999
"DXF R12 Output" (www.mydxf.blogspot.com)
 0 
SECTION
 2 
HEADER
 9 
$ACADVER
 1 
AC1009
 9 
$EXTMIN
 10 
 0 
 20 
 0 
 9 
$EXTMAX
 10 
 8.5 
 20 
 11 
 0 
ENDSEC
 0 
SECTION
 2 
ENTITIES
0
LINE
8
Image
10
42.047967
20
3.657336
11
40.779987
21
3.998055
0
LINE
8
Image
10
40.779987
20
3.998055
11
39.314371
21
4.695943
0
LINE
8
Image
10
39.314371
20
4.695943
11
37.075825
21
6.092740
0
LINE
8
Image
10
37.075825
20
6.092740
11
34.946637
21
7.454451
0
LINE
8
Image
10
34.946637
20
7.454451
11
33.181036
21
8.288204
0
LINE
8
Image
10
33.181036
20
8.288204
11
31.254480
21
8.782702
0
LINE
8
Image
10
31.254480
20
8.782702
11
28.642427
21
9.126647
0
LINE
8
Image
10
28.642427
20
9.126647
11
24.803661
21
9.723799
0
LINE
8
Image
10
24.803661
20
9.723799
11
23.327056
21
10.145705
0
LINE
8
Image
10
23.327056
20
10.145705
11
22.087845
21
10.680309
0
LINE
8
Image
10
22.087845
20
10.680309
11
21.042684
21
11.350472
0
LINE
8
Image
10
21.042684
20
11.350472
11
20.148229
21
12.179052
0
LINE
8
Image
10
20.148229
20
12.179052
11
19.361135
21
13.188911
0
LINE
8
Image
10
19.361135
20
13.188911
11
18.638059
21
14.402906
0
LINE
8
Image
10
18.638059
20
14.402906
11
17.226666
21
17.609867
0
LINE
8
Image
10
17.226666
20
17.609867
11
16.203995
21
21.330973
0
LINE
8
Image
10
16.203995
20
21.330973
11
15.505655
21
25.875472
0
LINE
8
Image
10
15.505655
20
25.875472
11
15.067258
21
31.552612
0
LINE
8
Image
10
15.067258
20
31.552612
11
14.921862
21
37.290755
0
LINE
8
Image
10
14.921862
20
37.290755
11
15.010042
21
42.665098
0
LINE
8
Image
10
15.010042
20
42.665098
11
15.264556
21
47.780369
0
LINE
8
Image
10
15.264556
20
47.780369
11
13.946099
21
49.032206
0
LINE
8
Image
10
13.946099
20
49.032206
11
12.649684
21
50.602630
0
LINE
8
Image
10
12.649684
20
50.602630
11
12.240318
21
51.436732
0
LINE
8
Image
10
12.240318
20
51.436732
11
11.985760
21
52.326315
0
LINE
8
Image
10
11.985760
20
52.326315
11
11.882695
21
53.288543
0
LINE
8
Image
10
11.882695
20
53.288543
11
11.927807
21
54.340584
0
LINE
8
Image
10
11.927807
20
54.340584
11
12.449303
21
56.782763
0
LINE
8
Image
10
12.449303
20
56.782763
11
12.817422
21
57.794061
0
LINE
8
Image
10
12.817422
20
57.794061
11
13.318760
21
58.698636
0
LINE
8
Image
10
13.318760
20
58.698636
11
15.038119
21
60.662761
0
LINE
8
Image
10
15.038119
20
60.662761
11
16.623876
21
62.451540
0
LINE
8
Image
10
16.623876
20
62.451540
11
17.073319
21
63.192016
0
LINE
8
Image
10
17.073319
20
63.192016
11
17.302787
21
63.842494
0
LINE
8
Image
10
17.302787
20
63.842494
11
17.881004
21
65.533677
0
LINE
8
Image
10
17.881004
20
65.533677
11
18.934653
21
67.917059
0
LINE
8
Image
10
18.934653
20
67.917059
11
19.917647
21
69.725036
0
LINE
8
Image
10
19.917647
20
69.725036
11
21.006920
21
71.274370
0
LINE
8
Image
10
21.006920
20
71.274370
11
22.237241
21
72.588226
0
LINE
8
Image
10
22.237241
20
72.588226
11
23.643376
21
73.689765
0
LINE
8
Image
10
23.643376
20
73.689765
11
25.260093
21
74.602151
0
LINE
8
Image
10
25.260093
20
74.602151
11
27.122158
21
75.348548
0
LINE
8
Image
10
27.122158
20
75.348548
11
29.264340
21
75.952118
0
LINE
8
Image
10
29.264340
20
75.952118
11
31.721406
21
76.436025
0
LINE
8
Image
10
31.721406
20
76.436025
11
34.700596
21
76.746021
0
LINE
8
Image
10
34.700596
20
76.746021
11
37.381284
21
76.609957
0
LINE
8
Image
10
37.381284
20
76.609957
11
39.945971
21
76.001945
0
LINE
8
Image
10
39.945971
20
76.001945
11
42.577159
21
74.896095
0
LINE
8
Image
10
42.577159
20
74.896095
11
43.848822
21
74.159852
0
LINE
8
Image
10
43.848822
20
74.159852
11
45.143047
21
73.223172
0
LINE
8
Image
10
45.143047
20
73.223172
11
47.682617
21
70.872591
0
LINE
8
Image
10
47.682617
20
70.872591
11
49.962728
21
68.092534
0
LINE
8
Image
10
49.962728
20
68.092534
11
51.750241
21
65.131181
0
LINE
8
Image
10
51.750241
20
65.131181
11
52.702002
21
62.901975
0
LINE
8
Image
10
52.702002
20
62.901975
11
53.482097
21
60.505601
0
LINE
8
Image
10
53.482097
20
60.505601
11
54.011868
21
58.223026
0
LINE
8
Image
10
54.011868
20
58.223026
11
54.212660
21
56.335218
0
LINE
8
Image
10
54.212660
20
56.335218
11
54.218772
21
55.365082
0
LINE
8
Image
10
54.218772
20
55.365082
11
57.587675
21
55.365082
0
LINE
8
Image
10
57.587675
20
55.365082
11
59.815768
21
55.296256
0
LINE
8
Image
10
59.815768
20
55.296256
11
61.526210
21
54.974767
0
LINE
8
Image
10
61.526210
20
54.974767
11
62.210859
21
54.665362
0
LINE
8
Image
10
62.210859
20
54.665362
11
62.794351
21
54.228098
0
LINE
8
Image
10
62.794351
20
54.228098
11
63.286106
21
53.641409
0
LINE
8
Image
10
63.286106
20
53.641409
11
63.695542
21
52.883733
0
LINE
8
Image
10
63.695542
20
52.883733
11
64.305135
21
50.769156
0
LINE
8
Image
10
64.305135
20
50.769156
11
64.698481
21
47.711851
0
LINE
8
Image
10
64.698481
20
47.711851
11
65.137834
21
38.078991
0
LINE
8
Image
10
65.137834
20
38.078991
11
65.268373
21
30.164437
0
LINE
8
Image
10
65.268373
20
30.164437
11
65.176220
21
28.263738
0
LINE
8
Image
10
65.176220
20
28.263738
11
64.972115
21
27.277594
0
LINE
8
Image
10
64.972115
20
27.277594
11
64.331796
21
26.259622
0
LINE
8
Image
10
64.331796
20
26.259622
11
63.340216
21
25.302146
0
LINE
8
Image
10
63.340216
20
25.302146
11
62.165212
21
24.538492
0
LINE
8
Image
10
62.165212
20
24.538492
11
60.974615
21
24.101987
0
LINE
8
Image
10
60.974615
20
24.101987
11
60.245063
21
23.834499
0
LINE
8
Image
10
60.245063
20
23.834499
11
60.142708
21
23.657622
0
LINE
8
Image
10
60.142708
20
23.657622
11
60.217804
21
23.448549
0
LINE
8
Image
10
60.217804
20
23.448549
11
60.907861
21
22.923492
0
LINE
8
Image
10
60.907861
20
22.923492
11
62.330254
21
22.238680
0
LINE
8
Image
10
62.330254
20
22.238680
11
63.830166
21
21.720591
0
LINE
8
Image
10
63.830166
20
21.720591
11
65.445758
21
21.398463
0
LINE
8
Image
10
65.445758
20
21.398463
11
67.152177
21
21.270106
0
LINE
8
Image
10
67.152177
20
21.270106
11
68.924571
21
21.333332
0
LINE
8
Image
10
68.924571
20
21.333332
11
70.738086
21
21.585952
0
LINE
8
Image
10
70.738086
20
21.585952
11
72.567869
21
22.025776
0
LINE
8
Image
10
72.567869
20
22.025776
11
74.389068
21
22.650616
0
LINE
8
Image
10
74.389068
20
22.650616
11
76.176830
21
23.458283
0
LINE
8
Image
10
76.176830
20
23.458283
11
78.225814
21
24.366318
0
LINE
8
Image
10
78.225814
20
24.366318
11
78.767919
21
24.438414
0
LINE
8
Image
10
78.767919
20
24.438414
11
79.121982
21
24.293780
0
LINE
8
Image
10
79.121982
20
24.293780
11
79.493699
21
23.830879
0
LINE
8
Image
10
79.493699
20
23.830879
11
79.579543
21
23.227598
0
LINE
8
Image
10
79.579543
20
23.227598
11
79.371340
21
22.387484
0
LINE
8
Image
10
79.371340
20
22.387484
11
78.860913
21
21.214087
0
LINE
8
Image
10
78.860913
20
21.214087
11
77.945644
21
19.681579
0
LINE
8
Image
10
77.945644
20
19.681579
11
76.694593
21
18.122796
0
LINE
8
Image
10
76.694593
20
18.122796
11
75.164802
21
16.582065
0
LINE
8
Image
10
75.164802
20
16.582065
11
73.413314
21
15.103713
0
LINE
8
Image
10
73.413314
20
15.103713
11
71.497172
21
13.732066
0
LINE
8
Image
10
71.497172
20
13.732066
11
69.473421
21
12.511451
0
LINE
8
Image
10
69.473421
20
12.511451
11
67.399101
21
11.486193
0
LINE
8
Image
10
67.399101
20
11.486193
11
65.331258
21
10.700620
0
LINE
8
Image
10
65.331258
20
10.700620
11
63.716354
21
10.226056
0
LINE
8
Image
10
63.716354
20
10.226056
11
62.411115
21
9.987168
0
LINE
8
Image
10
62.411115
20
9.987168
11
61.003863
21
9.940637
0
LINE
8
Image
10
61.003863
20
9.940637
11
59.082918
21
10.043144
0
LINE
8
Image
10
59.082918
20
10.043144
11
56.601741
21
10.110929
0
LINE
8
Image
10
56.601741
20
10.110929
11
55.672132
21
10.001697
0
LINE
8
Image
10
55.672132
20
10.001697
11
54.872824
21
9.765632
0
LINE
8
Image
10
54.872824
20
9.765632
11
54.146054
21
9.379170
0
LINE
8
Image
10
54.146054
20
9.379170
11
53.434059
21
8.818748
0
LINE
8
Image
10
53.434059
20
8.818748
11
51.823340
21
7.081773
0
LINE
8
Image
10
51.823340
20
7.081773
11
50.372922
21
5.639181
0
LINE
8
Image
10
50.372922
20
5.639181
11
48.775973
21
4.616692
0
LINE
8
Image
10
48.775973
20
4.616692
11
46.949204
21
3.973791
0
LINE
8
Image
10
46.949204
20
3.973791
11
44.809322
21
3.669962
0
LINE
8
Image
10
44.809322
20
3.669962
11
42.047954
21
3.657341
0
LINE
8
Image
10
42.047954
20
3.657341
11
42.047967
21
3.657336
0
LINE
8
Image
10
46.634071
20
6.360445
11
47.412614
21
6.672123
0
LINE
8
Image
10
47.412614
20
6.672123
11
48.298817
21
7.225563
0
LINE
8
Image
10
48.298817
20
7.225563
11
50.514623
21
9.144112
0
LINE
8
Image
10
50.514623
20
9.144112
11
52.669665
21
11.128930
0
LINE
8
Image
10
52.669665
20
11.128930
11
53.539087
21
11.750746
0
LINE
8
Image
10
53.539087
20
11.750746
11
54.395023
21
12.173078
0
LINE
8
Image
10
54.395023
20
12.173078
11
55.331406
21
12.431610
0
LINE
8
Image
10
55.331406
20
12.431610
11
56.442172
21
12.562026
0
LINE
8
Image
10
56.442172
20
12.562026
11
59.562586
21
12.581244
0
LINE
8
Image
10
59.562586
20
12.581244
11
63.920162
21
12.502636
0
LINE
8
Image
10
63.920162
20
12.502636
11
66.918769
21
13.955033
0
LINE
8
Image
10
66.918769
20
13.955033
11
69.554678
21
15.371799
0
LINE
8
Image
10
69.554678
20
15.371799
11
71.681263
21
16.738526
0
LINE
8
Image
10
71.681263
20
16.738526
11
73.103390
21
17.925118
0
LINE
8
Image
10
73.103390
20
17.925118
11
74.248653
21
19.065539
0
LINE
8
Image
10
74.248653
20
19.065539
11
74.846519
21
19.859562
0
LINE
8
Image
10
74.846519
20
19.859562
11
74.855636
21
20.032854
0
LINE
8
Image
10
74.855636
20
20.032854
11
74.626453
21
20.006962
0
LINE
8
Image
10
74.626453
20
20.006962
11
70.949397
21
19.169977
0
LINE
8
Image
10
70.949397
20
19.169977
11
67.947992
21
18.742437
0
LINE
8
Image
10
67.947992
20
18.742437
11
65.268475
21
18.925952
0
LINE
8
Image
10
65.268475
20
18.925952
11
63.644773
21
19.253881
0
LINE
8
Image
10
63.644773
20
19.253881
11
62.057481
21
19.756088
0
LINE
8
Image
10
62.057481
20
19.756088
11
60.533011
21
20.416018
0
LINE
8
Image
10
60.533011
20
20.416018
11
59.097772
21
21.217116
0
LINE
8
Image
10
59.097772
20
21.217116
11
57.778175
21
22.142827
0
LINE
8
Image
10
57.778175
20
22.142827
11
56.600630
21
23.176596
0
LINE
8
Image
10
56.600630
20
23.176596
11
55.591549
21
24.301869
0
LINE
8
Image
10
55.591549
20
24.301869
11
54.777341
21
25.502091
0
LINE
8
Image
10
54.777341
20
25.502091
11
54.243030
21
26.724077
0
LINE
8
Image
10
54.243030
20
26.724077
11
53.794161
21
29.836586
0
LINE
8
Image
10
53.794161
20
29.836586
11
52.094527
21
52.305738
0
LINE
8
Image
10
52.094527
20
52.305738
11
51.378997
21
59.008507
0
LINE
8
Image
10
51.378997
20
59.008507
11
50.968125
21
60.695762
0
LINE
8
Image
10
50.968125
20
60.695762
11
50.346768
21
62.425138
0
LINE
8
Image
10
50.346768
20
62.425138
11
49.540587
21
64.155611
0
LINE
8
Image
10
49.540587
20
64.155611
11
48.575238
21
65.846162
0
LINE
8
Image
10
48.575238
20
65.846162
11
47.476381
21
67.455767
0
LINE
8
Image
10
47.476381
20
67.455767
11
46.269674
21
68.943406
0
LINE
8
Image
10
46.269674
20
68.943406
11
44.980776
21
70.268057
0
LINE
8
Image
10
44.980776
20
70.268057
11
43.635346
21
71.388697
0
LINE
8
Image
10
43.635346
20
71.388697
11
41.527548
21
72.753664
0
LINE
8
Image
10
41.527548
20
72.753664
11
39.485009
21
73.629980
0
LINE
8
Image
10
39.485009
20
73.629980
11
37.268713
21
74.092800
0
LINE
8
Image
10
37.268713
20
74.092800
11
34.639643
21
74.217279
0
LINE
8
Image
10
34.639643
20
74.217279
11
32.609469
21
74.117209
0
LINE
8
Image
10
32.609469
20
74.117209
11
30.690892
21
73.849342
0
LINE
8
Image
10
30.690892
20
73.849342
11
28.899318
21
73.420135
0
LINE
8
Image
10
28.899318
20
73.420135
11
27.250151
21
72.836048
0
LINE
8
Image
10
27.250151
20
72.836048
11
25.758797
21
72.103537
0
LINE
8
Image
10
25.758797
20
72.103537
11
24.440660
21
71.229062
0
LINE
8
Image
10
24.440660
20
71.229062
11
23.311146
21
70.219080
0
LINE
8
Image
10
23.311146
20
70.219080
11
22.385659
21
69.080050
0
LINE
8
Image
10
22.385659
20
69.080050
11
20.872545
21
66.419999
0
LINE
8
Image
10
20.872545
20
66.419999
11
19.999382
21
64.377969
0
LINE
8
Image
10
19.999382
20
64.377969
11
22.027852
21
64.754483
0
LINE
8
Image
10
22.027852
20
64.754483
11
24.803100
21
65.096755
0
LINE
8
Image
10
24.803100
20
65.096755
11
28.693463
21
65.237336
0
LINE
8
Image
10
28.693463
20
65.237336
11
33.261997
21
65.011690
0
LINE
8
Image
10
33.261997
20
65.011690
11
35.074828
21
64.709385
0
LINE
8
Image
10
35.074828
20
64.709385
11
36.611105
21
64.266924
0
LINE
8
Image
10
36.611105
20
64.266924
11
37.899133
21
63.673929
0
LINE
8
Image
10
37.899133
20
63.673929
11
38.967214
21
62.920024
0
LINE
8
Image
10
38.967214
20
62.920024
11
39.843652
21
61.994833
0
LINE
8
Image
10
39.843652
20
61.994833
11
40.556751
21
60.887977
0
LINE
8
Image
10
40.556751
20
60.887977
11
40.959361
21
59.997268
0
LINE
8
Image
10
40.959361
20
59.997268
11
41.197331
21
59.015992
0
LINE
8
Image
10
41.197331
20
59.015992
11
41.340657
21
55.717859
0
LINE
8
Image
10
41.340657
20
55.717859
11
41.313494
21
53.661742
0
LINE
8
Image
10
41.313494
20
53.661742
11
41.184225
21
52.293500
0
LINE
8
Image
10
41.184225
20
52.293500
11
40.884751
21
51.226328
0
LINE
8
Image
10
40.884751
20
51.226328
11
40.346976
21
50.073422
0
LINE
8
Image
10
40.346976
20
50.073422
11
39.389285
21
48.418104
0
LINE
8
Image
10
39.389285
20
48.418104
11
38.394490
21
47.179157
0
LINE
8
Image
10
38.394490
20
47.179157
11
37.256511
21
46.248677
0
LINE
8
Image
10
37.256511
20
46.248677
11
35.869269
21
45.518761
0
LINE
8
Image
10
35.869269
20
45.518761
11
34.439695
21
45.044894
0
LINE
8
Image
10
34.439695
20
45.044894
11
32.750530
21
44.724486
0
LINE
8
Image
10
32.750530
20
44.724486
11
30.857889
21
44.556017
0
LINE
8
Image
10
30.857889
20
44.556017
11
28.817892
21
44.537972
0
LINE
8
Image
10
28.817892
20
44.537972
11
24.520294
21
44.947079
0
LINE
8
Image
10
24.520294
20
44.947079
11
22.374929
21
45.371196
0
LINE
8
Image
10
22.374929
20
45.371196
11
20.306676
21
45.939665
0
LINE
8
Image
10
20.306676
20
45.939665
11
17.615362
21
46.796363
0
LINE
8
Image
10
17.615362
20
46.796363
11
17.362131
21
41.545023
0
LINE
8
Image
10
17.362131
20
41.545023
11
17.246443
21
37.227084
0
LINE
8
Image
10
17.246443
20
37.227084
11
17.315636
21
33.069392
0
LINE
8
Image
10
17.315636
20
33.069392
11
17.560860
21
29.134514
0
LINE
8
Image
10
17.560860
20
29.134514
11
17.973267
21
25.485016
0
LINE
8
Image
10
17.973267
20
25.485016
11
18.544008
21
22.183463
0
LINE
8
Image
10
18.544008
20
22.183463
11
19.264232
21
19.292421
0
LINE
8
Image
10
19.264232
20
19.292421
11
20.125091
21
16.874455
0
LINE
8
Image
10
20.125091
20
16.874455
11
21.117736
21
14.992132
0
LINE
8
Image
10
21.117736
20
14.992132
11
22.267917
21
13.614585
0
LINE
8
Image
10
22.267917
20
13.614585
11
23.731582
21
12.670858
0
LINE
8
Image
10
23.731582
20
12.670858
11
25.776272
21
12.040948
0
LINE
8
Image
10
25.776272
20
12.040948
11
28.669531
21
11.604851
0
LINE
8
Image
10
28.669531
20
11.604851
11
31.657026
21
11.184137
0
LINE
8
Image
10
31.657026
20
11.184137
11
33.934819
21
10.603899
0
LINE
8
Image
10
33.934819
20
10.603899
11
35.904888
21
9.726167
0
LINE
8
Image
10
35.904888
20
9.726167
11
37.969211
21
8.412974
0
LINE
8
Image
10
37.969211
20
8.412974
11
41.260777
21
6.337598
0
LINE
8
Image
10
41.260777
20
6.337598
11
42.326586
21
6.091472
0
LINE
8
Image
10
42.326586
20
6.091472
11
43.728477
21
6.013881
0
LINE
8
Image
10
43.728477
20
6.013881
11
45.239843
21
6.103864
0
LINE
8
Image
10
45.239843
20
6.103864
11
46.634071
21
6.360458
0
LINE
8
Image
10
46.634071
20
6.360458
11
46.634071
21
6.360445
0
LINE
8
Image
10
61.362526
20
26.837346
11
61.969562
21
27.331688
0
LINE
8
Image
10
61.969562
20
27.331688
11
62.562098
21
28.056283
0
LINE
8
Image
10
62.562098
20
28.056283
11
62.863346
21
28.774192
0
LINE
8
Image
10
62.863346
20
28.774192
11
63.005913
21
30.106308
0
LINE
8
Image
10
63.005913
20
30.106308
11
62.898637
21
36.781378
0
LINE
8
Image
10
62.898637
20
36.781378
11
62.632141
21
42.661522
0
LINE
8
Image
10
62.632141
20
42.661522
11
62.251299
21
47.423934
0
LINE
8
Image
10
62.251299
20
47.423934
11
61.788141
21
50.761233
0
LINE
8
Image
10
61.788141
20
50.761233
11
61.535702
21
51.799408
0
LINE
8
Image
10
61.535702
20
51.799408
11
61.274695
21
52.366037
0
LINE
8
Image
10
61.274695
20
52.366037
11
60.908379
21
52.616768
0
LINE
8
Image
10
60.908379
20
52.616768
11
60.248082
21
52.780154
0
LINE
8
Image
10
60.248082
20
52.780154
11
57.703362
21
52.895639
0
LINE
8
Image
10
57.703362
20
52.895639
11
55.007704
21
52.785063
0
LINE
8
Image
10
55.007704
20
52.785063
11
54.636837
21
52.547999
0
LINE
8
Image
10
54.636837
20
52.547999
11
54.570500
21
52.101890
0
LINE
8
Image
10
54.570500
20
52.101890
11
55.481343
21
39.313713
0
LINE
8
Image
10
55.481343
20
39.313713
11
56.114576
21
31.448086
0
LINE
8
Image
10
56.114576
20
31.448086
11
56.389038
21
29.068577
0
LINE
8
Image
10
56.389038
20
29.068577
11
56.695721
21
27.510060
0
LINE
8
Image
10
56.695721
20
27.510060
11
57.079869
21
26.611625
0
LINE
8
Image
10
57.079869
20
26.611625
11
57.586725
21
26.212363
0
LINE
8
Image
10
57.586725
20
26.212363
11
58.261532
21
26.151364
0
LINE
8
Image
10
58.261532
20
26.151364
11
59.149535
21
26.267720
0
LINE
8
Image
10
59.149535
20
26.267720
11
61.362526
21
26.837346
0
LINE
8
Image
10
61.362526
20
26.837346
11
61.362526
21
26.837346
0
LINE
8
Image
10
33.972500
20
47.419298
11
35.116051
21
47.870539
0
LINE
8
Image
10
35.116051
20
47.870539
11
36.123762
21
48.500410
0
LINE
8
Image
10
36.123762
20
48.500410
11
36.990707
21
49.300977
0
LINE
8
Image
10
36.990707
20
49.300977
11
37.711963
21
50.264307
0
LINE
8
Image
10
37.711963
20
50.264307
11
38.282606
21
51.382466
0
LINE
8
Image
10
38.282606
20
51.382466
11
38.697710
21
52.647520
0
LINE
8
Image
10
38.697710
20
52.647520
11
38.952353
21
54.051536
0
LINE
8
Image
10
38.952353
20
54.051536
11
39.041611
21
55.586581
0
LINE
8
Image
10
39.041611
20
55.586581
11
38.937592
21
57.628068
0
LINE
8
Image
10
38.937592
20
57.628068
11
38.573120
21
59.268415
0
LINE
8
Image
10
38.573120
20
59.268415
11
37.890406
21
60.543894
0
LINE
8
Image
10
37.890406
20
60.543894
11
36.831661
21
61.490781
0
LINE
8
Image
10
36.831661
20
61.490781
11
35.339097
21
62.145349
0
LINE
8
Image
10
35.339097
20
62.145349
11
33.354925
21
62.543871
0
LINE
8
Image
10
33.354925
20
62.543871
11
30.821357
21
62.722621
0
LINE
8
Image
10
30.821357
20
62.722621
11
27.680605
21
62.717873
0
LINE
8
Image
10
27.680605
20
62.717873
11
23.915357
21
62.533122
0
LINE
8
Image
10
23.915357
20
62.533122
11
21.364384
21
62.069435
0
LINE
8
Image
10
21.364384
20
62.069435
11
20.343359
21
61.670656
0
LINE
8
Image
10
20.343359
20
61.670656
11
19.384833
21
61.127341
0
LINE
8
Image
10
19.384833
20
61.127341
11
17.333853
21
59.507370
0
LINE
8
Image
10
17.333853
20
59.507370
11
16.046504
21
58.168774
0
LINE
8
Image
10
16.046504
20
58.168774
11
15.119329
21
56.739500
0
LINE
8
Image
10
15.119329
20
56.739500
11
14.556626
21
55.228031
0
LINE
8
Image
10
14.556626
20
55.228031
11
14.362693
21
53.642851
0
LINE
8
Image
10
14.362693
20
53.642851
11
14.430631
21
52.867696
0
LINE
8
Image
10
14.430631
20
52.867696
11
14.651065
21
52.159571
0
LINE
8
Image
10
14.651065
20
52.159571
11
15.036708
21
51.507054
0
LINE
8
Image
10
15.036708
20
51.507054
11
15.600276
21
50.898722
0
LINE
8
Image
10
15.600276
20
50.898722
11
17.312037
21
49.768927
0
LINE
8
Image
10
17.312037
20
49.768927
11
19.888060
21
48.678805
0
LINE
8
Image
10
19.888060
20
48.678805
11
23.658250
21
47.596447
0
LINE
8
Image
10
23.658250
20
47.596447
11
27.468223
21
47.007336
0
LINE
8
Image
10
27.468223
20
47.007336
11
31.009224
21
46.939083
0
LINE
8
Image
10
31.009224
20
46.939083
11
32.582375
21
47.108906
0
LINE
8
Image
10
32.582375
20
47.108906
11
33.972500
21
47.419298
0
LINE
8
Image
10
33.972500
20
47.419298
11
33.972500
21
47.419298
 0 
ENDSEC
 0 
EOF