999
"DXF R12 Output" (www.mydxf.blogspot.com)
 0 
SECTION
 2 
HEADER
 9 
$ACADVER
 1 
AC1009
 9 
$EXTMIN
 10 
 0 
 20 
 0 
 9 
$EXTMAX
 10 
 8.5 
 20 
 11 
 0 
ENDSEC
 0 
SECTION
 2 
ENTITIES
0
LINE
8
Image
10
9.705158
20
9.113170
11
4.233357
21
9.315830
0
LINE
8
Image
10
4.233357
20
9.315830
11
4.237233
21
9.660488
0
LINE
8
Image
10
4.237233
20
9.660488
11
4.706513
21
10.817307
0
LINE
8
Image
10
4.706513
20
10.817307
11
7.844967
21
17.356764
0
LINE
8
Image
10
7.844967
20
17.356764
11
13.079696
21
28.132193
0
LINE
8
Image
10
13.079696
20
28.132193
11
24.253588
21
51.235358
0
LINE
8
Image
10
24.253588
20
51.235358
11
29.406897
21
62.071366
0
LINE
8
Image
10
29.406897
20
62.071366
11
30.139514
21
63.934851
0
LINE
8
Image
10
30.139514
20
63.934851
11
30.189620
21
64.305596
0
LINE
8
Image
10
30.189620
20
64.305596
11
30.084090
21
64.427157
0
LINE
8
Image
10
30.084090
20
64.427157
11
29.031252
21
64.330645
0
LINE
8
Image
10
29.031252
20
64.330645
11
27.269161
21
63.922808
0
LINE
8
Image
10
27.269161
20
63.922808
11
23.195218
21
62.593247
0
LINE
8
Image
10
23.195218
20
62.593247
11
20.822658
21
61.474017
0
LINE
8
Image
10
20.822658
20
61.474017
11
18.595581
21
60.082484
0
LINE
8
Image
10
18.595581
20
60.082484
11
16.530558
21
58.437079
0
LINE
8
Image
10
16.530558
20
58.437079
11
14.644164
21
56.556232
0
LINE
8
Image
10
14.644164
20
56.556232
11
12.952971
21
54.458376
0
LINE
8
Image
10
12.952971
20
54.458376
11
11.473552
21
52.161942
0
LINE
8
Image
10
11.473552
20
52.161942
11
10.222481
21
49.685361
0
LINE
8
Image
10
10.222481
20
49.685361
11
9.216331
21
47.047065
0
LINE
8
Image
10
9.216331
20
47.047065
11
8.610733
21
44.970694
0
LINE
8
Image
10
8.610733
20
44.970694
11
8.220425
21
43.074297
0
LINE
8
Image
10
8.220425
20
43.074297
11
8.011655
21
41.142172
0
LINE
8
Image
10
8.011655
20
41.142172
11
7.950671
21
38.958617
0
LINE
8
Image
10
7.950671
20
38.958617
11
8.082960
21
36.471713
0
LINE
8
Image
10
8.082960
20
36.471713
11
8.484939
21
34.087473
0
LINE
8
Image
10
8.484939
20
34.087473
11
9.169633
21
31.749304
0
LINE
8
Image
10
9.169633
20
31.749304
11
10.150065
21
29.400617
0
LINE
8
Image
10
10.150065
20
29.400617
11
11.271473
21
27.051345
0
LINE
8
Image
10
11.271473
20
27.051345
11
10.033306
21
24.754539
0
LINE
8
Image
10
10.033306
20
24.754539
11
9.062220
21
23.132419
0
LINE
8
Image
10
9.062220
20
23.132419
11
8.466185
21
22.457731
0
LINE
8
Image
10
8.466185
20
22.457731
11
8.175901
21
22.650765
0
LINE
8
Image
10
8.175901
20
22.650765
11
7.761662
21
23.185287
0
LINE
8
Image
10
7.761662
20
23.185287
11
6.700836
21
25.011331
0
LINE
8
Image
10
6.700836
20
25.011331
11
5.562735
21
27.400933
0
LINE
8
Image
10
5.562735
20
27.400933
11
4.626383
21
29.819161
0
LINE
8
Image
10
4.626383
20
29.819161
11
3.555179
21
33.877660
0
LINE
8
Image
10
3.555179
20
33.877660
11
2.951304
21
38.006279
0
LINE
8
Image
10
2.951304
20
38.006279
11
2.837297
21
41.951536
0
LINE
8
Image
10
2.837297
20
41.951536
11
3.235696
21
45.459950
0
LINE
8
Image
10
3.235696
20
45.459950
11
4.092190
21
48.713376
0
LINE
8
Image
10
4.092190
20
48.713376
11
5.296629
21
51.954589
0
LINE
8
Image
10
5.296629
20
51.954589
11
6.795166
21
55.057212
0
LINE
8
Image
10
6.795166
20
55.057212
11
8.533955
21
57.894872
0
LINE
8
Image
10
8.533955
20
57.894872
11
10.409164
21
60.241126
0
LINE
8
Image
10
10.409164
20
60.241126
11
12.633846
21
62.394946
0
LINE
8
Image
10
12.633846
20
62.394946
11
15.150597
21
64.325341
0
LINE
8
Image
10
15.150597
20
64.325341
11
17.902011
21
66.001319
0
LINE
8
Image
10
17.902011
20
66.001319
11
20.830683
21
67.391889
0
LINE
8
Image
10
20.830683
20
67.391889
11
23.879208
21
68.466059
0
LINE
8
Image
10
23.879208
20
68.466059
11
26.990181
21
69.192837
0
LINE
8
Image
10
26.990181
20
69.192837
11
30.106196
21
69.541231
0
LINE
8
Image
10
30.106196
20
69.541231
11
33.213638
21
69.690489
0
LINE
8
Image
10
33.213638
20
69.690489
11
35.356964
21
74.108651
0
LINE
8
Image
10
35.356964
20
74.108651
11
37.500288
21
78.526813
0
LINE
8
Image
10
37.500288
20
78.526813
11
42.179827
21
78.526813
0
LINE
8
Image
10
42.179827
20
78.526813
11
46.859366
21
78.526813
0
LINE
8
Image
10
46.859366
20
78.526813
11
46.859366
21
72.359623
0
LINE
8
Image
10
46.859366
20
72.359623
11
46.859366
21
66.192433
0
LINE
8
Image
10
46.859366
20
66.192433
11
48.816460
21
64.861228
0
LINE
8
Image
10
48.816460
20
64.861228
11
50.987077
21
63.144723
0
LINE
8
Image
10
50.987077
20
63.144723
11
53.455383
21
60.848739
0
LINE
8
Image
10
53.455383
20
60.848739
11
55.718801
21
58.469818
0
LINE
8
Image
10
55.718801
20
58.469818
11
57.274756
21
56.504499
0
LINE
8
Image
10
57.274756
20
56.504499
11
58.450209
21
54.553867
0
LINE
8
Image
10
58.450209
20
54.553867
11
59.467181
21
52.564158
0
LINE
8
Image
10
59.467181
20
52.564158
11
60.326677
21
50.531996
0
LINE
8
Image
10
60.326677
20
50.531996
11
61.029700
21
48.454006
0
LINE
8
Image
10
61.029700
20
48.454006
11
61.577254
21
46.326809
0
LINE
8
Image
10
61.577254
20
46.326809
11
61.970345
21
44.147031
0
LINE
8
Image
10
61.970345
20
44.147031
11
62.209975
21
41.911294
0
LINE
8
Image
10
62.209975
20
41.911294
11
62.297149
21
39.616222
0
LINE
8
Image
10
62.297149
20
39.616222
11
62.127691
21
36.107826
0
LINE
8
Image
10
62.127691
20
36.107826
11
61.561512
21
32.802649
0
LINE
8
Image
10
61.561512
20
32.802649
11
60.565129
21
29.560379
0
LINE
8
Image
10
60.565129
20
29.560379
11
59.105059
21
26.240707
0
LINE
8
Image
10
59.105059
20
26.240707
11
57.522450
21
23.441238
0
LINE
8
Image
10
57.522450
20
23.441238
11
55.693823
21
20.876134
0
LINE
8
Image
10
55.693823
20
20.876134
11
53.623420
21
18.548832
0
LINE
8
Image
10
53.623420
20
18.548832
11
51.315484
21
16.462769
0
LINE
8
Image
10
51.315484
20
16.462769
11
48.774257
21
14.621382
0
LINE
8
Image
10
48.774257
20
14.621382
11
46.003983
21
13.028105
0
LINE
8
Image
10
46.003983
20
13.028105
11
43.008904
21
11.686375
0
LINE
8
Image
10
43.008904
20
11.686375
11
39.793262
21
10.599629
0
LINE
8
Image
10
39.793262
20
10.599629
11
36.306893
21
9.788138
0
LINE
8
Image
10
36.306893
20
9.788138
11
33.021686
21
9.452548
0
LINE
8
Image
10
33.021686
20
9.452548
11
29.754758
21
9.587252
0
LINE
8
Image
10
29.754758
20
9.587252
11
26.323223
21
10.186642
0
LINE
8
Image
10
26.323223
20
10.186642
11
22.032394
21
11.483446
0
LINE
8
Image
10
22.032394
20
11.483446
11
20.212218
21
12.211997
0
LINE
8
Image
10
20.212218
20
12.211997
11
19.080314
21
12.822415
0
LINE
8
Image
10
19.080314
20
12.822415
11
18.457609
21
13.295050
0
LINE
8
Image
10
18.457609
20
13.295050
11
19.485633
21
15.499775
0
LINE
8
Image
10
19.485633
20
15.499775
11
20.144400
21
16.786448
0
LINE
8
Image
10
20.144400
20
16.786448
11
20.679868
21
17.510627
0
LINE
8
Image
10
20.679868
20
17.510627
11
21.148814
21
17.725391
0
LINE
8
Image
10
21.148814
20
17.725391
11
21.608016
21
17.483814
0
LINE
8
Image
10
21.608016
20
17.483814
11
22.613862
21
16.987052
0
LINE
8
Image
10
22.613862
20
16.987052
11
24.495748
21
16.333171
0
LINE
8
Image
10
24.495748
20
16.333171
11
28.557295
21
15.289789
0
LINE
8
Image
10
28.557295
20
15.289789
11
31.158237
21
15.056199
0
LINE
8
Image
10
31.158237
20
15.056199
11
34.041828
21
15.102554
0
LINE
8
Image
10
34.041828
20
15.102554
11
36.895629
21
15.409608
0
LINE
8
Image
10
36.895629
20
15.409608
11
39.407201
21
15.958118
0
LINE
8
Image
10
39.407201
20
15.958118
11
42.153041
21
16.924639
0
LINE
8
Image
10
42.153041
20
16.924639
11
44.678452
21
18.130422
0
LINE
8
Image
10
44.678452
20
18.130422
11
46.981563
21
19.573755
0
LINE
8
Image
10
46.981563
20
19.573755
11
49.060504
21
21.252932
0
LINE
8
Image
10
49.060504
20
21.252932
11
50.913405
21
23.166243
0
LINE
8
Image
10
50.913405
20
23.166243
11
52.538396
21
25.311979
0
LINE
8
Image
10
52.538396
20
25.311979
11
53.933608
21
27.688433
0
LINE
8
Image
10
53.933608
20
27.688433
11
55.097169
21
30.293894
0
LINE
8
Image
10
55.097169
20
30.293894
11
55.999998
21
32.804053
0
LINE
8
Image
10
55.999998
20
32.804053
11
56.566336
21
34.895780
0
LINE
8
Image
10
56.566336
20
34.895780
11
56.883792
21
36.983369
0
LINE
8
Image
10
56.883792
20
36.983369
11
57.039975
21
39.481115
0
LINE
8
Image
10
57.039975
20
39.481115
11
57.036432
21
42.835647
0
LINE
8
Image
10
57.036432
20
42.835647
11
56.503679
21
45.560897
0
LINE
8
Image
10
56.503679
20
45.560897
11
55.412408
21
48.905113
0
LINE
8
Image
10
55.412408
20
48.905113
11
53.925218
21
51.928662
0
LINE
8
Image
10
53.925218
20
51.928662
11
51.958005
21
54.774443
0
LINE
8
Image
10
51.958005
20
54.774443
11
49.426668
21
57.585350
0
LINE
8
Image
10
49.426668
20
57.585350
11
46.994473
21
60.017262
0
LINE
8
Image
10
46.994473
20
60.017262
11
46.924081
21
48.195466
0
LINE
8
Image
10
46.924081
20
48.195466
11
46.692031
21
36.373673
0
LINE
8
Image
10
46.692031
20
36.373673
11
38.347676
21
43.987422
0
LINE
8
Image
10
38.347676
20
43.987422
11
38.044287
21
44.461051
0
LINE
8
Image
10
38.044287
20
44.461051
11
37.866029
21
45.624663
0
LINE
8
Image
10
37.866029
20
45.624663
11
37.672145
21
52.796181
0
LINE
8
Image
10
37.672145
20
52.796181
11
37.537038
21
61.098111
0
LINE
8
Image
10
37.537038
20
61.098111
11
36.361539
21
58.260881
0
LINE
8
Image
10
36.361539
20
58.260881
11
31.700374
21
47.021670
0
LINE
8
Image
10
31.700374
20
47.021670
11
28.214710
21
38.442423
0
LINE
8
Image
10
28.214710
20
38.442423
11
32.943428
21
38.265161
0
LINE
8
Image
10
32.943428
20
38.265161
11
37.672145
21
38.265161
0
LINE
8
Image
10
37.672145
20
38.265161
11
37.672145
21
40.449378
0
LINE
8
Image
10
37.672145
20
40.449378
11
37.741599
21
41.965522
0
LINE
8
Image
10
37.741599
20
41.965522
11
37.908584
21
42.543523
0
LINE
8
Image
10
37.908584
20
42.543523
11
43.065527
21
37.865913
0
LINE
8
Image
10
43.065527
20
37.865913
11
47.940217
21
33.138730
0
LINE
8
Image
10
47.940217
20
33.138730
11
43.077704
21
29.262136
0
LINE
8
Image
10
43.077704
20
29.262136
11
37.784286
21
25.383866
0
LINE
8
Image
10
37.784286
20
25.383866
11
37.594158
21
25.398638
0
LINE
8
Image
10
37.594158
20
25.398638
11
37.477211
21
25.671671
0
LINE
8
Image
10
37.477211
20
25.671671
11
37.401932
21
27.297452
0
LINE
8
Image
10
37.401932
20
27.297452
11
37.401932
21
29.357757
0
LINE
8
Image
10
37.401932
20
29.357757
11
30.869195
21
29.285402
0
LINE
8
Image
10
30.869195
20
29.285402
11
24.336459
21
29.213043
0
LINE
8
Image
10
24.336459
20
29.213043
11
23.331292
21
26.916238
0
LINE
8
Image
10
23.331292
20
26.916238
11
20.513458
21
20.431139
0
LINE
8
Image
10
20.513458
20
20.431139
11
16.617705
21
11.531500
0
LINE
8
Image
10
16.617705
20
11.531500
11
15.427113
21
9.217323
0
LINE
8
Image
10
15.427113
20
9.217323
11
13.786308
21
9.060593
0
LINE
8
Image
10
13.786308
20
9.060593
11
9.705158
21
9.113170
0
LINE
8
Image
10
9.705158
20
9.113170
11
9.705158
21
9.113170
0
LINE
8
Image
10
16.277783
20
12.122106
11
22.190532
21
25.767834
0
LINE
8
Image
10
22.190532
20
25.767834
11
23.965620
21
29.888574
0
LINE
8
Image
10
23.965620
20
29.888574
11
30.953989
21
29.888574
0
LINE
8
Image
10
30.953989
20
29.888574
11
37.942358
21
29.888574
0
LINE
8
Image
10
37.942358
20
29.888574
11
37.942358
21
27.991636
0
LINE
8
Image
10
37.942358
20
27.991636
11
37.942358
21
26.094697
0
LINE
8
Image
10
37.942358
20
26.094697
11
42.521531
21
29.545357
0
LINE
8
Image
10
42.521531
20
29.545357
11
47.115141
21
33.163403
0
LINE
8
Image
10
47.115141
20
33.163403
11
42.829061
21
37.278253
0
LINE
8
Image
10
42.829061
20
37.278253
11
38.347165
21
41.237497
0
LINE
8
Image
10
38.347165
20
41.237497
11
38.219245
21
40.359306
0
LINE
8
Image
10
38.219245
20
40.359306
11
38.239961
21
38.602925
0
LINE
8
Image
10
38.239961
20
38.602925
11
38.212582
21
37.724734
0
LINE
8
Image
10
38.212582
20
37.724734
11
32.959387
21
37.724734
0
LINE
8
Image
10
32.959387
20
37.724734
11
29.205131
21
37.796232
0
LINE
8
Image
10
29.205131
20
37.796232
11
27.555766
21
37.968129
0
LINE
8
Image
10
27.555766
20
37.968129
11
27.677671
21
38.683684
0
LINE
8
Image
10
27.677671
20
38.683684
11
28.181997
21
40.062275
0
LINE
8
Image
10
28.181997
20
40.062275
11
33.163847
21
52.045995
0
LINE
8
Image
10
33.163847
20
52.045995
11
37.712518
21
62.989598
0
LINE
8
Image
10
37.712518
20
62.989598
11
37.812865
21
63.143940
0
LINE
8
Image
10
37.812865
20
63.143940
11
37.897616
21
63.053189
0
LINE
8
Image
10
37.897616
20
63.053189
11
38.034982
21
61.911120
0
LINE
8
Image
10
38.034982
20
61.911120
11
38.283753
21
54.207694
0
LINE
8
Image
10
38.283753
20
54.207694
11
38.511508
21
44.615153
0
LINE
8
Image
10
38.511508
20
44.615153
11
39.240236
21
43.966276
0
LINE
8
Image
10
39.240236
20
43.966276
11
42.899257
21
40.588620
0
LINE
8
Image
10
42.899257
20
40.588620
11
46.074253
21
37.769771
0
LINE
8
Image
10
46.074253
20
37.769771
11
46.250884
21
43.311027
0
LINE
8
Image
10
46.250884
20
43.311027
11
46.318956
21
57.833045
0
LINE
8
Image
10
46.318956
20
57.833045
11
46.318956
21
77.986388
0
LINE
8
Image
10
46.318956
20
77.986388
11
42.063109
21
77.974223
0
LINE
8
Image
10
42.063109
20
77.974223
11
37.807265
21
77.962057
0
LINE
8
Image
10
37.807265
20
77.962057
11
35.576457
21
73.313059
0
LINE
8
Image
10
35.576457
20
73.313059
11
22.402003
21
46.101321
0
LINE
8
Image
10
22.402003
20
46.101321
11
16.454940
21
33.806654
0
LINE
8
Image
10
16.454940
20
33.806654
11
12.606104
21
25.835387
0
LINE
8
Image
10
12.606104
20
25.835387
11
4.976454
21
10.007588
0
LINE
8
Image
10
4.976454
20
10.007588
11
6.788349
21
9.804983
0
LINE
8
Image
10
6.788349
20
9.804983
11
11.499686
21
9.672626
0
LINE
8
Image
10
11.499686
20
9.672626
11
15.185687
21
9.622643
0
LINE
8
Image
10
15.185687
20
9.622643
11
16.277783
21
12.122106
0
LINE
8
Image
10
37.401932
20
10.618084
11
40.454184
21
11.399463
0
LINE
8
Image
10
40.454184
20
11.399463
11
43.358724
21
12.455003
0
LINE
8
Image
10
43.358724
20
12.455003
11
46.178462
21
13.811210
0
LINE
8
Image
10
46.178462
20
13.811210
11
48.976311
21
15.494589
0
LINE
8
Image
10
48.976311
20
15.494589
11
51.936200
21
17.757391
0
LINE
8
Image
10
51.936200
20
17.757391
11
54.533861
21
20.400924
0
LINE
8
Image
10
54.533861
20
20.400924
11
56.790029
21
23.449504
0
LINE
8
Image
10
56.790029
20
23.449504
11
58.725440
21
26.927448
0
LINE
8
Image
10
58.725440
20
26.927448
11
60.023694
21
29.879930
0
LINE
8
Image
10
60.023694
20
29.879930
11
60.894157
21
32.544210
0
LINE
8
Image
10
60.894157
20
32.544210
11
61.411493
21
35.206868
0
LINE
8
Image
10
61.411493
20
35.206868
11
61.650360
21
38.154486
0
LINE
8
Image
10
61.650360
20
38.154486
11
61.589181
21
41.971696
0
LINE
8
Image
10
61.589181
20
41.971696
11
61.104616
21
45.626596
0
LINE
8
Image
10
61.104616
20
45.626596
11
60.201846
21
49.108278
0
LINE
8
Image
10
60.201846
20
49.108278
11
58.886050
21
52.405837
0
LINE
8
Image
10
58.886050
20
52.405837
11
57.162408
21
55.508366
0
LINE
8
Image
10
57.162408
20
55.508366
11
55.036098
21
58.404960
0
LINE
8
Image
10
55.036098
20
58.404960
11
52.512300
21
61.084711
0
LINE
8
Image
10
52.512300
20
61.084711
11
49.596194
21
63.536714
0
LINE
8
Image
10
49.596194
20
63.536714
11
47.062116
21
65.286404
0
LINE
8
Image
10
47.062116
20
65.286404
11
46.918925
21
64.646460
0
LINE
8
Image
10
46.918925
20
64.646460
11
46.859366
21
63.107871
0
LINE
8
Image
10
46.859366
20
63.107871
11
46.859366
21
60.929338
0
LINE
8
Image
10
46.859366
20
60.929338
11
49.534139
21
58.311599
0
LINE
8
Image
10
49.534139
20
58.311599
11
51.479627
21
56.253909
0
LINE
8
Image
10
51.479627
20
56.253909
11
53.150675
21
54.153692
0
LINE
8
Image
10
53.150675
20
54.153692
11
54.551737
21
52.000969
0
LINE
8
Image
10
54.551737
20
52.000969
11
55.687268
21
49.785761
0
LINE
8
Image
10
55.687268
20
49.785761
11
56.561723
21
47.498087
0
LINE
8
Image
10
56.561723
20
47.498087
11
57.179556
21
45.127970
0
LINE
8
Image
10
57.179556
20
45.127970
11
57.545222
21
42.665429
0
LINE
8
Image
10
57.545222
20
42.665429
11
57.663174
21
40.100486
0
LINE
8
Image
10
57.663174
20
40.100486
11
57.464902
21
36.946655
0
LINE
8
Image
10
57.464902
20
36.946655
11
56.896762
21
33.838937
0
LINE
8
Image
10
56.896762
20
33.838937
11
55.982751
21
30.825439
0
LINE
8
Image
10
55.982751
20
30.825439
11
54.746868
21
27.954268
0
LINE
8
Image
10
54.746868
20
27.954268
11
53.213110
21
25.273528
0
LINE
8
Image
10
53.213110
20
25.273528
11
51.405475
21
22.831328
0
LINE
8
Image
10
51.405475
20
22.831328
11
49.347962
21
20.675772
0
LINE
8
Image
10
49.347962
20
20.675772
11
47.064569
21
18.854968
0
LINE
8
Image
10
47.064569
20
18.854968
11
45.254913
21
17.766470
0
LINE
8
Image
10
45.254913
20
17.766470
11
43.122291
21
16.730993
0
LINE
8
Image
10
43.122291
20
16.730993
11
40.849138
21
15.828773
0
LINE
8
Image
10
40.849138
20
15.828773
11
38.617889
21
15.140046
0
LINE
8
Image
10
38.617889
20
15.140046
11
36.548553
21
14.713710
0
LINE
8
Image
10
36.548553
20
14.713710
11
34.393644
21
14.472212
0
LINE
8
Image
10
34.393644
20
14.472212
11
32.193482
21
14.411797
0
LINE
8
Image
10
32.193482
20
14.411797
11
29.988387
21
14.528711
0
LINE
8
Image
10
29.988387
20
14.528711
11
27.818679
21
14.819199
0
LINE
8
Image
10
27.818679
20
14.819199
11
25.724679
21
15.279506
0
LINE
8
Image
10
25.724679
20
15.279506
11
23.746706
21
15.905878
0
LINE
8
Image
10
23.746706
20
15.905878
11
21.925080
21
16.694558
0
LINE
8
Image
10
21.925080
20
16.694558
11
20.904592
21
17.206912
0
LINE
8
Image
10
20.904592
20
17.206912
11
20.091014
21
15.393598
0
LINE
8
Image
10
20.091014
20
15.393598
11
19.579805
21
14.145560
0
LINE
8
Image
10
19.579805
20
14.145560
11
19.506916
21
13.728179
0
LINE
8
Image
10
19.506916
20
13.728179
11
19.581364
21
13.399573
0
LINE
8
Image
10
19.581364
20
13.399573
11
20.248852
21
12.861736
0
LINE
8
Image
10
20.248852
20
12.861736
11
21.735431
21
12.238152
0
LINE
8
Image
10
21.735431
20
12.238152
11
25.801075
21
10.913764
0
LINE
8
Image
10
25.801075
20
10.913764
11
29.714625
21
10.207745
0
LINE
8
Image
10
29.714625
20
10.207745
11
31.639090
21
10.084067
0
LINE
8
Image
10
31.639090
20
10.084067
11
33.555203
21
10.111912
0
LINE
8
Image
10
33.555203
20
10.111912
11
37.401932
21
10.618084
0
LINE
8
Image
10
37.401932
20
10.618084
11
37.401932
21
10.618084
0
LINE
8
Image
10
9.626967
20
25.281798
11
10.629626
21
27.156450
0
LINE
8
Image
10
10.629626
20
27.156450
11
9.983041
21
28.319854
0
LINE
8
Image
10
9.983041
20
28.319854
11
9.159314
21
30.024396
0
LINE
8
Image
10
9.159314
20
30.024396
11
8.480004
21
31.892079
0
LINE
8
Image
10
8.480004
20
31.892079
11
7.951229
21
33.879162
0
LINE
8
Image
10
7.951229
20
33.879162
11
7.579106
21
35.941908
0
LINE
8
Image
10
7.579106
20
35.941908
11
7.369753
21
38.036576
0
LINE
8
Image
10
7.369753
20
38.036576
11
7.329287
21
40.119428
0
LINE
8
Image
10
7.329287
20
40.119428
11
7.463826
21
42.146725
0
LINE
8
Image
10
7.463826
20
42.146725
11
7.779487
21
44.074726
0
LINE
8
Image
10
7.779487
20
44.074726
11
8.938949
21
48.111848
0
LINE
8
Image
10
8.938949
20
48.111848
11
10.557080
21
51.775873
0
LINE
8
Image
10
10.557080
20
51.775873
11
12.615017
21
55.048166
0
LINE
8
Image
10
12.615017
20
55.048166
11
15.093894
21
57.910091
0
LINE
8
Image
10
15.093894
20
57.910091
11
17.974848
21
60.343013
0
LINE
8
Image
10
17.974848
20
60.343013
11
21.239014
21
62.328295
0
LINE
8
Image
10
21.239014
20
62.328295
11
24.867528
21
63.847303
0
LINE
8
Image
10
24.867528
20
63.847303
11
28.841526
21
64.881400
0
LINE
8
Image
10
28.841526
20
64.881400
11
31.068505
21
65.357512
0
LINE
8
Image
10
31.068505
20
65.357512
11
32.808321
21
68.965859
0
LINE
8
Image
10
32.808321
20
68.965859
11
32.034416
21
69.048289
0
LINE
8
Image
10
32.034416
20
69.048289
11
30.173749
21
68.990753
0
LINE
8
Image
10
30.173749
20
68.990753
11
27.227735
21
68.639290
0
LINE
8
Image
10
27.227735
20
68.639290
11
24.281987
21
67.952482
0
LINE
8
Image
10
24.281987
20
67.952482
11
21.388803
21
66.957411
0
LINE
8
Image
10
21.388803
20
66.957411
11
18.600481
21
65.681163
0
LINE
8
Image
10
18.600481
20
65.681163
11
15.969318
21
64.150819
0
LINE
8
Image
10
15.969318
20
64.150819
11
13.547613
21
62.393464
0
LINE
8
Image
10
13.547613
20
62.393464
11
11.387663
21
60.436181
0
LINE
8
Image
10
11.387663
20
60.436181
11
9.541767
21
58.306053
0
LINE
8
Image
10
9.541767
20
58.306053
11
7.713384
21
55.491390
0
LINE
8
Image
10
7.713384
20
55.491390
11
6.073476
21
52.191789
0
LINE
8
Image
10
6.073476
20
52.191789
11
4.723782
21
48.640396
0
LINE
8
Image
10
4.723782
20
48.640396
11
3.766043
21
45.070360
0
LINE
8
Image
10
3.766043
20
45.070360
11
3.463237
21
42.958166
0
LINE
8
Image
10
3.463237
20
42.958166
11
3.374538
21
40.640724
0
LINE
8
Image
10
3.374538
20
40.640724
11
3.489786
21
38.182435
0
LINE
8
Image
10
3.489786
20
38.182435
11
3.798819
21
35.647700
0
LINE
8
Image
10
3.798819
20
35.647700
11
4.291478
21
33.100920
0
LINE
8
Image
10
4.291478
20
33.100920
11
4.957602
21
30.606496
0
LINE
8
Image
10
4.957602
20
30.606496
11
5.787031
21
28.228828
0
LINE
8
Image
10
5.787031
20
28.228828
11
6.769605
21
26.032319
0
LINE
8
Image
10
6.769605
20
26.032319
11
7.851600
21
24.073637
0
LINE
8
Image
10
7.851600
20
24.073637
11
8.452726
21
23.405312
0
LINE
8
Image
10
8.452726
20
23.405312
11
9.626967
21
25.281798
0
LINE
8
Image
10
9.626967
20
25.281798
11
9.626967
21
25.281798
0
LINE
8
Image
10
37.264566
20
22.589184
11
42.090126
21
26.665109
0
LINE
8
Image
10
42.090126
20
26.665109
11
46.799782
21
30.308441
0
LINE
8
Image
10
46.799782
20
30.308441
11
46.720492
21
26.256844
0
LINE
8
Image
10
46.720492
20
26.256844
11
46.523820
21
22.322627
0
LINE
8
Image
10
46.523820
20
22.322627
11
41.811824
21
22.322627
0
LINE
8
Image
10
41.811824
20
22.322627
11
38.362435
21
22.391640
0
LINE
8
Image
10
38.362435
20
22.391640
11
37.504376
21
22.475236
0
LINE
8
Image
10
37.504376
20
22.475236
11
37.264566
21
22.589184
0
LINE
8
Image
10
37.264566
20
22.589184
11
37.264566
21
22.589184
0
LINE
8
Image
10
46.070949
20
25.227410
11
46.215300
21
28.334853
0
LINE
8
Image
10
46.215300
20
28.334853
11
46.247798
21
28.859656
0
LINE
8
Image
10
46.247798
20
28.859656
11
46.154430
21
29.077937
0
LINE
8
Image
10
46.154430
20
29.077937
11
42.816769
21
26.516131
0
LINE
8
Image
10
42.816769
20
26.516131
11
39.167222
21
23.413321
0
LINE
8
Image
10
39.167222
20
23.413321
11
38.669237
21
22.863051
0
LINE
8
Image
10
38.669237
20
22.863051
11
42.358984
21
22.863051
0
LINE
8
Image
10
42.358984
20
22.863051
11
46.048729
21
22.863051
0
LINE
8
Image
10
46.048729
20
22.863051
11
46.070949
21
25.227410
 0 
ENDSEC
 0 
EOF