999
"DXF R12 Output" (www.mydxf.blogspot.com)
 0 
SECTION
 2 
HEADER
 9 
$ACADVER
 1 
AC1009
 9 
$EXTMIN
 10 
 0 
 20 
 0 
 9 
$EXTMAX
 10 
 8.5 
 20 
 11 
 0 
ENDSEC
 0 
SECTION
 2 
ENTITIES
0
LINE
8
Image
10
94.673647
20
33.532109
11
89.625310
21
33.979936
0
LINE
8
Image
10
89.625310
20
33.979936
11
84.551616
21
34.720924
0
LINE
8
Image
10
84.551616
20
34.720924
11
79.477729
21
35.747854
0
LINE
8
Image
10
79.477729
20
35.747854
11
74.428815
21
37.053504
0
LINE
8
Image
10
74.428815
20
37.053504
11
69.430040
21
38.630655
0
LINE
8
Image
10
69.430040
20
38.630655
11
64.506568
21
40.472086
0
LINE
8
Image
10
64.506568
20
40.472086
11
59.683566
21
42.570576
0
LINE
8
Image
10
59.683566
20
42.570576
11
54.986197
21
44.918907
0
LINE
8
Image
10
54.986197
20
44.918907
11
51.213795
21
47.048651
0
LINE
8
Image
10
51.213795
20
47.048651
11
47.545057
21
49.350204
0
LINE
8
Image
10
47.545057
20
49.350204
11
43.986443
21
51.816192
0
LINE
8
Image
10
43.986443
20
51.816192
11
40.544411
21
54.439245
0
LINE
8
Image
10
40.544411
20
54.439245
11
37.225421
21
57.211988
0
LINE
8
Image
10
37.225421
20
57.211988
11
34.035932
21
60.127051
0
LINE
8
Image
10
34.035932
20
60.127051
11
30.982404
21
63.177060
0
LINE
8
Image
10
30.982404
20
63.177060
11
28.071295
21
66.354644
0
LINE
8
Image
10
28.071295
20
66.354644
11
25.309065
21
69.652429
0
LINE
8
Image
10
25.309065
20
69.652429
11
22.702173
21
73.063044
0
LINE
8
Image
10
22.702173
20
73.063044
11
20.257079
21
76.579117
0
LINE
8
Image
10
20.257079
20
76.579117
11
17.980241
21
80.193274
0
LINE
8
Image
10
17.980241
20
80.193274
11
15.878118
21
83.898143
0
LINE
8
Image
10
15.878118
20
83.898143
11
13.957171
21
87.686353
0
LINE
8
Image
10
13.957171
20
87.686353
11
12.223858
21
91.550530
0
LINE
8
Image
10
12.223858
20
91.550530
11
10.684639
21
95.483303
0
LINE
8
Image
10
10.684639
20
95.483303
11
8.825371
21
100.855342
0
LINE
8
Image
10
8.825371
20
100.855342
11
7.572241
21
105.672942
0
LINE
8
Image
10
7.572241
20
105.672942
11
6.234849
21
111.639941
0
LINE
8
Image
10
6.234849
20
111.639941
11
5.601783
21
116.079872
0
LINE
8
Image
10
5.601783
20
116.079872
11
4.879098
21
121.792264
0
LINE
8
Image
10
4.879098
20
121.792264
11
4.624187
21
124.322067
0
LINE
8
Image
10
4.624187
20
124.322067
11
4.521149
21
127.246211
0
LINE
8
Image
10
4.521149
20
127.246211
11
4.750439
21
133.991260
0
LINE
8
Image
10
4.750439
20
133.991260
11
5.526462
21
141.454884
0
LINE
8
Image
10
5.526462
20
141.454884
11
6.808710
21
149.064554
0
LINE
8
Image
10
6.808710
20
149.064554
11
7.817293
21
153.302722
0
LINE
8
Image
10
7.817293
20
153.302722
11
9.146264
21
157.729224
0
LINE
8
Image
10
9.146264
20
157.729224
11
10.758475
21
162.258652
0
LINE
8
Image
10
10.758475
20
162.258652
11
12.616781
21
166.805596
0
LINE
8
Image
10
12.616781
20
166.805596
11
14.684036
21
171.284646
0
LINE
8
Image
10
14.684036
20
171.284646
11
16.923094
21
175.610393
0
LINE
8
Image
10
16.923094
20
175.610393
11
19.296809
21
179.697429
0
LINE
8
Image
10
19.296809
20
179.697429
11
21.768034
21
183.460344
0
LINE
8
Image
10
21.768034
20
183.460344
11
24.403509
21
187.027894
0
LINE
8
Image
10
24.403509
20
187.027894
11
27.236982
21
190.511980
0
LINE
8
Image
10
27.236982
20
190.511980
11
30.239558
21
193.884172
0
LINE
8
Image
10
30.239558
20
193.884172
11
33.382346
21
197.116035
0
LINE
8
Image
10
33.382346
20
197.116035
11
36.636453
21
200.179138
0
LINE
8
Image
10
36.636453
20
200.179138
11
39.972984
21
203.045049
0
LINE
8
Image
10
39.972984
20
203.045049
11
43.363049
21
205.685334
0
LINE
8
Image
10
43.363049
20
205.685334
11
46.777753
21
208.071561
0
LINE
8
Image
10
46.777753
20
208.071561
11
51.299275
21
210.988952
0
LINE
8
Image
10
51.299275
20
210.988952
11
54.793270
21
213.061819
0
LINE
8
Image
10
54.793270
20
213.061819
11
57.973420
21
214.685434
0
LINE
8
Image
10
57.973420
20
214.685434
11
61.553409
21
216.255071
0
LINE
8
Image
10
61.553409
20
216.255071
11
66.508967
21
218.408972
0
LINE
8
Image
10
66.508967
20
218.408972
11
70.028074
21
219.720731
0
LINE
8
Image
10
70.028074
20
219.720731
11
74.918116
21
221.209814
0
LINE
8
Image
10
74.918116
20
221.209814
11
78.093112
21
222.080998
0
LINE
8
Image
10
78.093112
20
222.080998
11
81.677704
21
222.887668
0
LINE
8
Image
10
81.677704
20
222.887668
11
86.247863
21
223.670468
0
LINE
8
Image
10
86.247863
20
223.670468
11
91.038306
21
224.312878
0
LINE
8
Image
10
91.038306
20
224.312878
11
95.283749
21
224.698380
0
LINE
8
Image
10
95.283749
20
224.698380
11
102.044800
21
224.826870
0
LINE
8
Image
10
102.044800
20
224.826870
11
109.272549
21
224.533867
0
LINE
8
Image
10
109.272549
20
224.533867
11
115.923850
21
223.889800
0
LINE
8
Image
10
115.923850
20
223.889800
11
118.707350
21
223.458127
0
LINE
8
Image
10
118.707350
20
223.458127
11
120.955558
21
222.965099
0
LINE
8
Image
10
120.955558
20
222.965099
11
125.718052
21
221.777553
0
LINE
8
Image
10
125.718052
20
221.777553
11
131.136169
21
220.237075
0
LINE
8
Image
10
131.136169
20
220.237075
11
136.740666
21
218.221974
0
LINE
8
Image
10
136.740666
20
218.221974
11
142.301905
21
215.823033
0
LINE
8
Image
10
142.301905
20
215.823033
11
147.590247
21
213.131031
0
LINE
8
Image
10
147.590247
20
213.131031
11
151.132805
21
211.185020
0
LINE
8
Image
10
151.132805
20
211.185020
11
157.291625
21
207.094422
0
LINE
8
Image
10
157.291625
20
207.094422
11
159.584676
21
205.343292
0
LINE
8
Image
10
159.584676
20
205.343292
11
164.252016
21
201.596072
0
LINE
8
Image
10
164.252016
20
201.596072
11
168.707835
21
197.453790
0
LINE
8
Image
10
168.707835
20
197.453790
11
172.935334
21
192.938390
0
LINE
8
Image
10
172.935334
20
192.938390
11
176.917714
21
188.071816
0
LINE
8
Image
10
176.917714
20
188.071816
11
180.638178
21
182.876013
0
LINE
8
Image
10
180.638178
20
182.876013
11
184.079926
21
177.372924
0
LINE
8
Image
10
184.079926
20
177.372924
11
187.226160
21
171.584494
0
LINE
8
Image
10
187.226160
20
171.584494
11
190.060081
21
165.532668
0
LINE
8
Image
10
190.060081
20
165.532668
11
192.180553
21
159.925426
0
LINE
8
Image
10
192.180553
20
159.925426
11
194.125264
21
153.474445
0
LINE
8
Image
10
194.125264
20
153.474445
11
195.719015
21
146.828203
0
LINE
8
Image
10
195.719015
20
146.828203
11
196.786607
21
140.635180
0
LINE
8
Image
10
196.786607
20
140.635180
11
197.146845
21
138.830383
0
LINE
8
Image
10
197.146845
20
138.830383
11
197.569796
21
137.906560
0
LINE
8
Image
10
197.569796
20
137.906560
11
197.792444
21
137.695594
0
LINE
8
Image
10
197.792444
20
137.695594
11
197.671102
21
137.604692
0
LINE
8
Image
10
197.671102
20
137.604692
11
197.519346
21
137.183492
0
LINE
8
Image
10
197.519346
20
137.183492
11
197.432048
21
135.921167
0
LINE
8
Image
10
197.432048
20
135.921167
11
197.450011
21
130.848149
0
LINE
8
Image
10
197.450011
20
130.848149
11
197.440234
21
125.091603
0
LINE
8
Image
10
197.440234
20
125.091603
11
197.189360
21
120.882192
0
LINE
8
Image
10
197.189360
20
120.882192
11
196.413830
21
114.668764
0
LINE
8
Image
10
196.413830
20
114.668764
11
195.405923
21
109.200714
0
LINE
8
Image
10
195.405923
20
109.200714
11
194.533698
21
105.404200
0
LINE
8
Image
10
194.533698
20
105.404200
11
194.067679
21
103.467911
0
LINE
8
Image
10
194.067679
20
103.467911
11
193.275793
21
100.954393
0
LINE
8
Image
10
193.275793
20
100.954393
11
190.981095
21
94.852432
0
LINE
8
Image
10
190.981095
20
94.852432
11
188.182957
21
88.411852
0
LINE
8
Image
10
188.182957
20
88.411852
11
185.414734
21
82.946186
0
LINE
8
Image
10
185.414734
20
82.946186
11
182.995419
21
78.857032
0
LINE
8
Image
10
182.995419
20
78.857032
11
180.538537
21
75.077085
0
LINE
8
Image
10
180.538537
20
75.077085
11
177.925363
21
71.432486
0
LINE
8
Image
10
177.925363
20
71.432486
11
175.037175
21
67.749377
0
LINE
8
Image
10
175.037175
20
67.749377
11
172.242303
21
64.702308
0
LINE
8
Image
10
172.242303
20
64.702308
11
168.201977
21
60.708647
0
LINE
8
Image
10
168.201977
20
60.708647
11
163.930728
21
56.740260
0
LINE
8
Image
10
163.930728
20
56.740260
11
160.443084
21
53.769012
0
LINE
8
Image
10
160.443084
20
53.769012
11
155.967908
21
50.461173
0
LINE
8
Image
10
155.967908
20
50.461173
11
151.443685
21
47.483418
0
LINE
8
Image
10
151.443685
20
47.483418
11
146.822813
21
44.813701
0
LINE
8
Image
10
146.822813
20
44.813701
11
142.057695
21
42.429970
0
LINE
8
Image
10
142.057695
20
42.429970
11
137.100731
21
40.310179
0
LINE
8
Image
10
137.100731
20
40.310179
11
131.904324
21
38.432276
0
LINE
8
Image
10
131.904324
20
38.432276
11
126.420873
21
36.774214
0
LINE
8
Image
10
126.420873
20
36.774214
11
120.602781
21
35.313943
0
LINE
8
Image
10
120.602781
20
35.313943
11
116.064799
21
34.384909
0
LINE
8
Image
10
116.064799
20
34.384909
11
111.077793
21
33.903935
0
LINE
8
Image
10
111.077793
20
33.903935
11
101.986102
21
33.399219
0
LINE
8
Image
10
101.986102
20
33.399219
11
98.267074
21
33.389581
0
LINE
8
Image
10
98.267074
20
33.389581
11
94.673647
21
33.532109
0
LINE
8
Image
10
94.673647
20
33.532109
11
94.673647
21
33.532109
0
LINE
8
Image
10
108.608353
20
34.488188
11
107.126868
21
34.548732
0
LINE
8
Image
10
107.126868
20
34.548732
11
103.317307
21
34.427921
0
LINE
8
Image
10
103.317307
20
34.427921
11
97.672870
21
33.989705
0
LINE
8
Image
10
97.672870
20
33.989705
11
99.154100
21
33.929752
0
LINE
8
Image
10
99.154100
20
33.929752
11
102.963914
21
34.049972
0
LINE
8
Image
10
102.963914
20
34.049972
11
108.608353
21
34.488188
0
LINE
8
Image
10
108.608353
20
34.488188
11
108.608353
21
34.488188
0
LINE
8
Image
10
96.937303
20
34.363707
11
92.909760
21
34.671819
0
LINE
8
Image
10
92.909760
20
34.671819
11
90.635450
21
34.723958
0
LINE
8
Image
10
90.635450
20
34.723958
11
90.306513
21
34.681493
0
LINE
8
Image
10
90.306513
20
34.681493
11
90.616709
21
34.596630
0
LINE
8
Image
10
90.616709
20
34.596630
11
94.500702
21
34.297378
0
LINE
8
Image
10
94.500702
20
34.297378
11
96.291197
21
34.270426
0
LINE
8
Image
10
96.291197
20
34.270426
11
96.937303
21
34.363707
0
LINE
8
Image
10
96.937303
20
34.363707
11
96.937303
21
34.363707
0
LINE
8
Image
10
114.162305
20
34.928052
11
118.127074
21
35.604057
0
LINE
8
Image
10
118.127074
20
35.604057
11
123.374663
21
36.760030
0
LINE
8
Image
10
123.374663
20
36.760030
11
128.580703
21
38.082036
0
LINE
8
Image
10
128.580703
20
38.082036
11
132.420823
21
39.256140
0
LINE
8
Image
10
132.420823
20
39.256140
11
139.786138
21
42.250751
0
LINE
8
Image
10
139.786138
20
42.250751
11
146.763189
21
45.691384
0
LINE
8
Image
10
146.763189
20
45.691384
11
153.343356
21
49.573380
0
LINE
8
Image
10
153.343356
20
49.573380
11
159.518019
21
53.892086
0
LINE
8
Image
10
159.518019
20
53.892086
11
162.795944
21
56.676025
0
LINE
8
Image
10
162.795944
20
56.676025
11
167.173254
21
60.737906
0
LINE
8
Image
10
167.173254
20
60.737906
11
171.538808
21
65.017588
0
LINE
8
Image
10
171.538808
20
65.017588
11
174.781463
21
68.454932
0
LINE
8
Image
10
174.781463
20
68.454932
11
177.371930
21
71.819440
0
LINE
8
Image
10
177.371930
20
71.819440
11
180.579582
21
76.413009
0
LINE
8
Image
10
180.579582
20
76.413009
11
183.304717
21
80.606812
0
LINE
8
Image
10
183.304717
20
80.606812
11
184.447636
21
82.772024
0
LINE
8
Image
10
184.447636
20
82.772024
11
184.227342
21
82.721056
0
LINE
8
Image
10
184.227342
20
82.721056
11
183.750807
21
82.208479
0
LINE
8
Image
10
183.750807
20
82.208479
11
183.273831
21
81.548780
0
LINE
8
Image
10
183.273831
20
81.548780
11
183.052214
21
81.056447
0
LINE
8
Image
10
183.052214
20
81.056447
11
182.274027
21
79.599765
0
LINE
8
Image
10
182.274027
20
79.599765
11
180.369210
21
76.720856
0
LINE
8
Image
10
180.369210
20
76.720856
11
175.603367
21
70.221725
0
LINE
8
Image
10
175.603367
20
70.221725
11
171.694813
21
65.701281
0
LINE
8
Image
10
171.694813
20
65.701281
11
167.231834
21
61.171761
0
LINE
8
Image
10
167.231834
20
61.171761
11
162.376429
21
56.788118
0
LINE
8
Image
10
162.376429
20
56.788118
11
157.290596
21
52.705307
0
LINE
8
Image
10
157.290596
20
52.705307
11
150.972637
21
48.590759
0
LINE
8
Image
10
150.972637
20
48.590759
11
145.750641
21
45.524405
0
LINE
8
Image
10
145.750641
20
45.524405
11
142.695800
21
44.087251
0
LINE
8
Image
10
142.695800
20
44.087251
11
139.514392
21
42.582975
0
LINE
8
Image
10
139.514392
20
42.582975
11
136.181897
21
41.180181
0
LINE
8
Image
10
136.181897
20
41.180181
11
129.192663
21
38.718994
0
LINE
8
Image
10
129.192663
20
38.718994
11
121.986133
21
36.783608
0
LINE
8
Image
10
121.986133
20
36.783608
11
118.382016
21
36.038063
0
LINE
8
Image
10
118.382016
20
36.038063
11
114.820338
21
35.453937
0
LINE
8
Image
10
114.820338
20
35.453937
11
110.256793
21
34.646443
0
LINE
8
Image
10
110.256793
20
34.646443
11
111.120820
21
34.627057
0
LINE
8
Image
10
111.120820
20
34.627057
11
114.162305
21
34.928052
0
LINE
8
Image
10
114.162305
20
34.928052
11
114.162305
21
34.928052
0
LINE
8
Image
10
88.147266
20
35.188205
11
81.490150
21
36.472849
0
LINE
8
Image
10
81.490150
20
36.472849
11
75.340814
21
37.982385
0
LINE
8
Image
10
75.340814
20
37.982385
11
69.564838
21
39.773881
0
LINE
8
Image
10
69.564838
20
39.773881
11
64.027802
21
41.904405
0
LINE
8
Image
10
64.027802
20
41.904405
11
58.595285
21
44.431026
0
LINE
8
Image
10
58.595285
20
44.431026
11
53.132869
21
47.410811
0
LINE
8
Image
10
53.132869
20
47.410811
11
47.506133
21
50.900829
0
LINE
8
Image
10
47.506133
20
50.900829
11
41.580658
21
54.958149
0
LINE
8
Image
10
41.580658
20
54.958149
11
38.542510
21
57.551932
0
LINE
8
Image
10
38.542510
20
57.551932
11
34.232437
21
61.688383
0
LINE
8
Image
10
34.232437
20
61.688383
11
29.840456
21
66.186690
0
LINE
8
Image
10
29.840456
20
66.186690
11
26.556579
21
69.866041
0
LINE
8
Image
10
26.556579
20
69.866041
11
22.892025
21
74.724570
0
LINE
8
Image
10
22.892025
20
74.724570
11
19.541589
21
79.867567
0
LINE
8
Image
10
19.541589
20
79.867567
11
16.519779
21
85.261921
0
LINE
8
Image
10
16.519779
20
85.261921
11
13.841103
21
90.874521
0
LINE
8
Image
10
13.841103
20
90.874521
11
11.520071
21
96.672256
0
LINE
8
Image
10
11.520071
20
96.672256
11
9.571190
21
102.622013
0
LINE
8
Image
10
9.571190
20
102.622013
11
8.008970
21
108.690683
0
LINE
8
Image
10
8.008970
20
108.690683
11
6.847918
21
114.845154
0
LINE
8
Image
10
6.847918
20
114.845154
11
6.117196
21
122.319457
0
LINE
8
Image
10
6.117196
20
122.319457
11
5.756828
21
129.202888
0
LINE
8
Image
10
5.756828
20
129.202888
11
5.712819
21
130.585006
0
LINE
8
Image
10
5.712819
20
130.585006
11
5.623734
21
130.941000
0
LINE
8
Image
10
5.623734
20
130.941000
11
5.498728
21
131.011945
0
LINE
8
Image
10
5.498728
20
131.011945
11
5.359345
21
130.175703
0
LINE
8
Image
10
5.359345
20
130.175703
11
5.365985
21
128.174075
0
LINE
8
Image
10
5.365985
20
128.174075
11
5.711317
21
122.076530
0
LINE
8
Image
10
5.711317
20
122.076530
11
6.322695
21
115.523052
0
LINE
8
Image
10
6.322695
20
115.523052
11
6.988092
21
111.317378
0
LINE
8
Image
10
6.988092
20
111.317378
11
7.532776
21
108.847938
0
LINE
8
Image
10
7.532776
20
108.847938
11
8.163557
21
105.873855
0
LINE
8
Image
10
8.163557
20
105.873855
11
9.138342
21
102.415742
0
LINE
8
Image
10
9.138342
20
102.415742
11
10.397161
21
98.626183
0
LINE
8
Image
10
10.397161
20
98.626183
11
11.880041
21
94.657760
0
LINE
8
Image
10
11.880041
20
94.657760
11
15.278097
21
86.794654
0
LINE
8
Image
10
15.278097
20
86.794654
11
17.073331
21
83.205138
0
LINE
8
Image
10
17.073331
20
83.205138
11
18.852740
21
80.047089
0
LINE
8
Image
10
18.852740
20
80.047089
11
21.139942
21
76.468749
0
LINE
8
Image
10
21.139942
20
76.468749
11
23.619242
21
72.962752
0
LINE
8
Image
10
23.619242
20
72.962752
11
26.275101
21
69.546556
0
LINE
8
Image
10
26.275101
20
69.546556
11
29.091983
21
66.237617
0
LINE
8
Image
10
29.091983
20
66.237617
11
32.054348
21
63.053395
0
LINE
8
Image
10
32.054348
20
63.053395
11
35.146659
21
60.011345
0
LINE
8
Image
10
35.146659
20
60.011345
11
38.353378
21
57.128925
0
LINE
8
Image
10
38.353378
20
57.128925
11
41.658966
21
54.423593
0
LINE
8
Image
10
41.658966
20
54.423593
11
45.192876
21
51.811837
0
LINE
8
Image
10
45.192876
20
51.811837
11
48.920506
21
49.328461
0
LINE
8
Image
10
48.920506
20
49.328461
11
52.808089
21
46.990800
0
LINE
8
Image
10
52.808089
20
46.990800
11
56.821861
21
44.816189
0
LINE
8
Image
10
56.821861
20
44.816189
11
60.928055
21
42.821965
0
LINE
8
Image
10
60.928055
20
42.821965
11
65.092908
21
41.025462
0
LINE
8
Image
10
65.092908
20
41.025462
11
69.282652
21
39.444016
0
LINE
8
Image
10
69.282652
20
39.444016
11
73.463523
21
38.094962
0
LINE
8
Image
10
73.463523
20
38.094962
11
77.392449
21
37.054294
0
LINE
8
Image
10
77.392449
20
37.054294
11
81.809702
21
36.046807
0
LINE
8
Image
10
81.809702
20
36.046807
11
85.680705
21
35.292427
0
LINE
8
Image
10
85.680705
20
35.292427
11
87.970879
21
35.011078
0
LINE
8
Image
10
87.970879
20
35.011078
11
88.698385
21
35.058468
0
LINE
8
Image
10
88.698385
20
35.058468
11
88.147266
21
35.188205
0
LINE
8
Image
10
88.147266
20
35.188205
11
88.147266
21
35.188205
0
LINE
8
Image
10
113.370847
20
36.006344
11
120.234308
21
37.181468
0
LINE
8
Image
10
120.234308
20
37.181468
11
126.252161
21
38.591733
0
LINE
8
Image
10
126.252161
20
38.591733
11
132.074995
21
40.414795
0
LINE
8
Image
10
132.074995
20
40.414795
11
138.353403
21
42.828309
0
LINE
8
Image
10
138.353403
20
42.828309
11
141.230983
21
44.103107
0
LINE
8
Image
10
141.230983
20
44.103107
11
142.790897
21
44.961886
0
LINE
8
Image
10
142.790897
20
44.961886
11
143.377169
21
45.359552
0
LINE
8
Image
10
143.377169
20
45.359552
11
143.913864
21
45.525723
0
LINE
8
Image
10
143.913864
20
45.525723
11
144.630668
21
45.748321
0
LINE
8
Image
10
144.630668
20
45.748321
11
145.649973
21
46.281562
0
LINE
8
Image
10
145.649973
20
46.281562
11
148.745874
21
48.044751
0
LINE
8
Image
10
148.745874
20
48.044751
11
152.470596
21
50.302668
0
LINE
8
Image
10
152.470596
20
50.302668
11
156.940603
21
53.299973
0
LINE
8
Image
10
156.940603
20
53.299973
11
159.771188
21
55.505121
0
LINE
8
Image
10
159.771188
20
55.505121
11
163.379357
21
58.587828
0
LINE
8
Image
10
163.379357
20
58.587828
11
166.989237
21
61.864518
0
LINE
8
Image
10
166.989237
20
61.864518
11
169.824959
21
64.651618
0
LINE
8
Image
10
169.824959
20
64.651618
11
172.967863
21
68.153748
0
LINE
8
Image
10
172.967863
20
68.153748
11
175.963707
21
71.853510
0
LINE
8
Image
10
175.963707
20
71.853510
11
178.789500
21
75.714218
0
LINE
8
Image
10
178.789500
20
75.714218
11
181.422250
21
79.699187
0
LINE
8
Image
10
181.422250
20
79.699187
11
183.838969
21
83.771731
0
LINE
8
Image
10
183.838969
20
83.771731
11
186.016666
21
87.895164
0
LINE
8
Image
10
186.016666
20
87.895164
11
187.932351
21
92.032800
0
LINE
8
Image
10
187.932351
20
92.032800
11
189.563033
21
96.147954
0
LINE
8
Image
10
189.563033
20
96.147954
11
190.806922
21
100.013585
0
LINE
8
Image
10
190.806922
20
100.013585
11
192.103088
21
104.610432
0
LINE
8
Image
10
192.103088
20
104.610432
11
193.043485
21
108.407144
0
LINE
8
Image
10
193.043485
20
108.407144
11
193.252756
21
109.526904
0
LINE
8
Image
10
193.252756
20
109.526904
11
193.220067
21
109.872374
0
LINE
8
Image
10
193.220067
20
109.872374
11
193.009653
21
109.910004
0
LINE
8
Image
10
193.009653
20
109.910004
11
192.922134
21
110.259046
0
LINE
8
Image
10
192.922134
20
110.259046
11
193.009615
21
110.608112
0
LINE
8
Image
10
193.009615
20
110.608112
11
193.219940
21
110.645798
0
LINE
8
Image
10
193.219940
20
110.645798
11
193.597759
21
111.470508
0
LINE
8
Image
10
193.597759
20
111.470508
11
194.087937
21
113.711781
0
LINE
8
Image
10
194.087937
20
113.711781
11
194.660886
21
117.573744
0
LINE
8
Image
10
194.660886
20
117.573744
11
195.050788
21
121.570710
0
LINE
8
Image
10
195.050788
20
121.570710
11
195.257946
21
125.683271
0
LINE
8
Image
10
195.257946
20
125.683271
11
195.282662
21
129.892017
0
LINE
8
Image
10
195.282662
20
129.892017
11
195.125241
21
134.177538
0
LINE
8
Image
10
195.125241
20
134.177538
11
194.785986
21
138.520427
0
LINE
8
Image
10
194.785986
20
138.520427
11
194.265199
21
142.901272
0
LINE
8
Image
10
194.265199
20
142.901272
11
193.563184
21
147.300666
0
LINE
8
Image
10
193.563184
20
147.300666
11
192.845599
21
150.723777
0
LINE
8
Image
10
192.845599
20
150.723777
11
191.902958
21
154.309265
0
LINE
8
Image
10
191.902958
20
154.309265
11
190.754840
21
158.005210
0
LINE
8
Image
10
190.754840
20
158.005210
11
189.420828
21
161.759691
0
LINE
8
Image
10
189.420828
20
161.759691
11
187.920501
21
165.520788
0
LINE
8
Image
10
187.920501
20
165.520788
11
186.273441
21
169.236580
0
LINE
8
Image
10
186.273441
20
169.236580
11
184.499228
21
172.855145
0
LINE
8
Image
10
184.499228
20
172.855145
11
182.617443
21
176.324564
0
LINE
8
Image
10
182.617443
20
176.324564
11
180.645723
21
179.589173
0
LINE
8
Image
10
180.645723
20
179.589173
11
178.405630
21
182.970054
0
LINE
8
Image
10
178.405630
20
182.970054
11
176.004707
21
186.311439
0
LINE
8
Image
10
176.004707
20
186.311439
11
173.550494
21
189.457560
0
LINE
8
Image
10
173.550494
20
189.457560
11
170.752661
21
192.552392
0
LINE
8
Image
10
170.752661
20
192.552392
11
166.888022
21
196.444773
0
LINE
8
Image
10
166.888022
20
196.444773
11
162.907261
21
200.207121
0
LINE
8
Image
10
162.907261
20
200.207121
11
159.761065
21
202.911856
0
LINE
8
Image
10
159.761065
20
202.911856
11
155.130250
21
206.284027
0
LINE
8
Image
10
155.130250
20
206.284027
11
150.324200
21
209.371562
0
LINE
8
Image
10
150.324200
20
209.371562
11
145.358174
21
212.167548
0
LINE
8
Image
10
145.358174
20
212.167548
11
140.247432
21
214.665072
0
LINE
8
Image
10
140.247432
20
214.665072
11
135.007235
21
216.857220
0
LINE
8
Image
10
135.007235
20
216.857220
11
129.652842
21
218.737077
0
LINE
8
Image
10
129.652842
20
218.737077
11
124.199512
21
220.297732
0
LINE
8
Image
10
124.199512
20
220.297732
11
118.662507
21
221.532269
0
LINE
8
Image
10
118.662507
20
221.532269
11
115.538089
21
222.023452
0
LINE
8
Image
10
115.538089
20
222.023452
11
111.932873
21
222.409098
0
LINE
8
Image
10
111.932873
20
222.409098
11
103.948161
21
222.846852
0
LINE
8
Image
10
103.948161
20
222.846852
11
96.044589
21
222.811675
0
LINE
8
Image
10
96.044589
20
222.811675
11
92.540799
21
222.606157
0
LINE
8
Image
10
92.540799
20
222.606157
11
89.558377
21
222.269709
0
LINE
8
Image
10
89.558377
20
222.269709
11
83.850570
21
221.401131
0
LINE
8
Image
10
83.850570
20
221.401131
11
79.669376
21
220.594527
0
LINE
8
Image
10
79.669376
20
220.594527
11
75.213284
21
219.426310
0
LINE
8
Image
10
75.213284
20
219.426310
11
70.578493
21
217.935238
0
LINE
8
Image
10
70.578493
20
217.935238
11
65.861200
21
216.160070
0
LINE
8
Image
10
65.861200
20
216.160070
11
61.157604
21
214.139564
0
LINE
8
Image
10
61.157604
20
214.139564
11
56.563903
21
211.912477
0
LINE
8
Image
10
56.563903
20
211.912477
11
52.176295
21
209.517569
0
LINE
8
Image
10
52.176295
20
209.517569
11
48.090976
21
206.993597
0
LINE
8
Image
10
48.090976
20
206.993597
11
44.113354
21
204.146446
0
LINE
8
Image
10
44.113354
20
204.146446
11
39.892417
21
200.750967
0
LINE
8
Image
10
39.892417
20
200.750967
11
35.879970
21
197.188950
0
LINE
8
Image
10
35.879970
20
197.188950
11
32.527818
21
193.842187
0
LINE
8
Image
10
32.527818
20
193.842187
11
27.124207
21
187.659031
0
LINE
8
Image
10
27.124207
20
187.659031
11
23.378884
21
182.787689
0
LINE
8
Image
10
23.378884
20
182.787689
11
21.052864
21
179.259914
0
LINE
8
Image
10
21.052864
20
179.259914
11
19.139271
21
175.854889
0
LINE
8
Image
10
19.139271
20
175.854889
11
16.415278
21
170.532167
0
LINE
8
Image
10
16.415278
20
170.532167
11
13.853195
21
165.243573
0
LINE
8
Image
10
13.853195
20
165.243573
11
12.425331
21
161.940928
0
LINE
8
Image
10
12.425331
20
161.940928
11
11.595834
21
159.647874
0
LINE
8
Image
10
11.595834
20
159.647874
11
10.255281
21
155.193972
0
LINE
8
Image
10
10.255281
20
155.193972
11
8.757075
21
149.417330
0
LINE
8
Image
10
8.757075
20
149.417330
11
7.557125
21
143.024540
0
LINE
8
Image
10
7.557125
20
143.024540
11
6.809113
21
136.610901
0
LINE
8
Image
10
6.809113
20
136.610901
11
6.512959
21
130.177797
0
LINE
8
Image
10
6.512959
20
130.177797
11
6.668580
21
123.726616
0
LINE
8
Image
10
6.668580
20
123.726616
11
7.275894
21
117.258743
0
LINE
8
Image
10
7.275894
20
117.258743
11
8.334821
21
110.775564
0
LINE
8
Image
10
8.334821
20
110.775564
11
9.845278
21
104.278464
0
LINE
8
Image
10
9.845278
20
104.278464
11
11.807183
21
97.768829
0
LINE
8
Image
10
11.807183
20
97.768829
11
12.869902
21
94.874511
0
LINE
8
Image
10
12.869902
20
94.874511
11
14.172479
21
91.773430
0
LINE
8
Image
10
14.172479
20
91.773430
11
17.307440
21
85.311902
0
LINE
8
Image
10
17.307440
20
85.311902
11
20.832546
21
79.106091
0
LINE
8
Image
10
20.832546
20
79.106091
11
22.622802
21
76.324656
0
LINE
8
Image
10
22.622802
20
76.324656
11
24.368274
21
73.877842
0
LINE
8
Image
10
24.368274
20
73.877842
11
26.566462
21
70.962878
0
LINE
8
Image
10
26.566462
20
70.962878
11
28.957437
21
68.067289
0
LINE
8
Image
10
28.957437
20
68.067289
11
32.192292
21
64.540237
0
LINE
8
Image
10
32.192292
20
64.540237
11
35.574032
21
61.114167
0
LINE
8
Image
10
35.574032
20
61.114167
11
38.405662
21
58.521524
0
LINE
8
Image
10
38.405662
20
58.521524
11
42.530216
21
55.233157
0
LINE
8
Image
10
42.530216
20
55.233157
11
46.644610
21
52.238873
0
LINE
8
Image
10
46.644610
20
52.238873
11
50.782063
21
49.520319
0
LINE
8
Image
10
50.782063
20
49.520319
11
54.975792
21
47.059143
0
LINE
8
Image
10
54.975792
20
47.059143
11
59.259016
21
44.836993
0
LINE
8
Image
10
59.259016
20
44.836993
11
63.664954
21
42.835515
0
LINE
8
Image
10
63.664954
20
42.835515
11
68.226823
21
41.036359
0
LINE
8
Image
10
68.226823
20
41.036359
11
72.977841
21
39.421171
0
LINE
8
Image
10
72.977841
20
39.421171
11
77.848562
21
38.048585
0
LINE
8
Image
10
77.848562
20
38.048585
11
82.887674
21
36.936282
0
LINE
8
Image
10
82.887674
20
36.936282
11
88.036467
21
36.089225
0
LINE
8
Image
10
88.036467
20
36.089225
11
93.236233
21
35.512377
0
LINE
8
Image
10
93.236233
20
35.512377
11
98.428263
21
35.210701
0
LINE
8
Image
10
98.428263
20
35.210701
11
103.553848
21
35.189162
0
LINE
8
Image
10
103.553848
20
35.189162
11
108.554279
21
35.452722
0
LINE
8
Image
10
108.554279
20
35.452722
11
113.370847
21
36.006344
0
LINE
8
Image
10
113.370847
20
36.006344
11
113.370847
21
36.006344
0
LINE
8
Image
10
97.638078
20
37.915072
11
94.668869
21
38.142619
0
LINE
8
Image
10
94.668869
20
38.142619
11
91.962126
21
38.329244
0
LINE
8
Image
10
91.962126
20
38.329244
11
88.503537
21
38.738217
0
LINE
8
Image
10
88.503537
20
38.738217
11
80.738942
21
40.032202
0
LINE
8
Image
10
80.738942
20
40.032202
11
77.791231
21
40.714893
0
LINE
8
Image
10
77.791231
20
40.714893
11
74.588968
21
41.631891
0
LINE
8
Image
10
74.588968
20
41.631891
11
67.724418
21
44.049940
0
LINE
8
Image
10
67.724418
20
44.049940
11
60.752554
21
47.048615
0
LINE
8
Image
10
60.752554
20
47.048615
11
54.280642
21
50.390182
0
LINE
8
Image
10
54.280642
20
50.390182
11
49.273316
21
53.603293
0
LINE
8
Image
10
49.273316
20
53.603293
11
45.108433
21
56.465351
0
LINE
8
Image
10
45.108433
20
56.465351
11
42.991769
21
58.205402
0
LINE
8
Image
10
42.991769
20
58.205402
11
40.295213
21
60.493604
0
LINE
8
Image
10
40.295213
20
60.493604
11
36.467102
21
64.024652
0
LINE
8
Image
10
36.467102
20
64.024652
11
34.097487
21
66.359360
0
LINE
8
Image
10
34.097487
20
66.359360
11
31.457023
21
69.262844
0
LINE
8
Image
10
31.457023
20
69.262844
11
28.706038
21
72.550981
0
LINE
8
Image
10
28.706038
20
72.550981
11
26.004863
21
76.039646
0
LINE
8
Image
10
26.004863
20
76.039646
11
23.098787
21
80.283273
0
LINE
8
Image
10
23.098787
20
80.283273
11
20.395149
21
84.902828
0
LINE
8
Image
10
20.395149
20
84.902828
11
17.921860
21
89.827700
0
LINE
8
Image
10
17.921860
20
89.827700
11
15.706830
21
94.987282
0
LINE
8
Image
10
15.706830
20
94.987282
11
13.777971
21
100.310963
0
LINE
8
Image
10
13.777971
20
100.310963
11
12.163193
21
105.728134
0
LINE
8
Image
10
12.163193
20
105.728134
11
10.890408
21
111.168186
0
LINE
8
Image
10
10.890408
20
111.168186
11
9.987526
21
116.560509
0
LINE
8
Image
10
9.987526
20
116.560509
11
9.416977
21
122.282758
0
LINE
8
Image
10
9.416977
20
122.282758
11
9.208900
21
128.056236
0
LINE
8
Image
10
9.208900
20
128.056236
11
9.358386
21
133.839443
0
LINE
8
Image
10
9.358386
20
133.839443
11
9.860526
21
139.590883
0
LINE
8
Image
10
9.860526
20
139.590883
11
10.710412
21
145.269057
0
LINE
8
Image
10
10.710412
20
145.269057
11
11.903135
21
150.832468
0
LINE
8
Image
10
11.903135
20
150.832468
11
13.433786
21
156.239618
0
LINE
8
Image
10
13.433786
20
156.239618
11
15.297456
21
161.449010
0
LINE
8
Image
10
15.297456
20
161.449010
11
17.392866
21
166.397799
0
LINE
8
Image
10
17.392866
20
166.397799
11
19.625049
21
171.036992
0
LINE
8
Image
10
19.625049
20
171.036992
11
22.025833
21
175.414384
0
LINE
8
Image
10
22.025833
20
175.414384
11
24.627048
21
179.577766
0
LINE
8
Image
10
24.627048
20
179.577766
11
27.460521
21
183.574932
0
LINE
8
Image
10
27.460521
20
183.574932
11
30.558081
21
187.453673
0
LINE
8
Image
10
30.558081
20
187.453673
11
33.951557
21
191.261784
0
LINE
8
Image
10
33.951557
20
191.261784
11
37.672777
21
195.047055
0
LINE
8
Image
10
37.672777
20
195.047055
11
42.137960
21
199.103996
0
LINE
8
Image
10
42.137960
20
199.103996
11
47.655705
21
203.258827
0
LINE
8
Image
10
47.655705
20
203.258827
11
51.749474
21
206.060661
0
LINE
8
Image
10
51.749474
20
206.060661
11
55.192183
21
208.053606
0
LINE
8
Image
10
55.192183
20
208.053606
11
59.755631
21
210.476804
0
LINE
8
Image
10
59.755631
20
210.476804
11
64.123788
21
212.652615
0
LINE
8
Image
10
64.123788
20
212.652615
11
66.980626
21
213.903396
0
LINE
8
Image
10
66.980626
20
213.903396
11
71.037567
21
215.383442
0
LINE
8
Image
10
71.037567
20
215.383442
11
75.863288
21
216.938277
0
LINE
8
Image
10
75.863288
20
216.938277
11
81.576968
21
218.305758
0
LINE
8
Image
10
81.576968
20
218.305758
11
87.753683
21
219.397983
0
LINE
8
Image
10
87.753683
20
219.397983
11
93.968507
21
220.127050
0
LINE
8
Image
10
93.968507
20
220.127050
11
98.018291
21
220.307228
0
LINE
8
Image
10
98.018291
20
220.307228
11
103.177467
21
220.330077
0
LINE
8
Image
10
103.177467
20
220.330077
11
108.229971
21
220.207475
0
LINE
8
Image
10
108.229971
20
220.207475
11
111.959736
21
219.951303
0
LINE
8
Image
10
111.959736
20
219.951303
11
118.242619
21
218.947007
0
LINE
8
Image
10
118.242619
20
218.947007
11
124.733614
21
217.454887
0
LINE
8
Image
10
124.733614
20
217.454887
11
131.009430
21
215.586368
0
LINE
8
Image
10
131.009430
20
215.586368
11
136.646780
21
213.452872
0
LINE
8
Image
10
136.646780
20
213.452872
11
137.970882
21
212.996429
0
LINE
8
Image
10
137.970882
20
212.996429
11
138.356017
21
212.965388
0
LINE
8
Image
10
138.356017
20
212.965388
11
138.528258
21
213.071534
0
LINE
8
Image
10
138.528258
20
213.071534
11
138.722594
21
213.336297
0
LINE
8
Image
10
138.722594
20
213.336297
11
139.014345
21
213.446419
0
LINE
8
Image
10
139.014345
20
213.446419
11
139.217243
21
213.310532
0
LINE
8
Image
10
139.217243
20
213.310532
11
139.197952
21
212.983825
0
LINE
8
Image
10
139.197952
20
212.983825
11
139.373866
21
212.654772
0
LINE
8
Image
10
139.373866
20
212.654772
11
140.075007
21
212.129255
0
LINE
8
Image
10
140.075007
20
212.129255
11
143.034954
21
210.500491
0
LINE
8
Image
10
143.034954
20
210.500491
11
146.832234
21
208.398474
0
LINE
8
Image
10
146.832234
20
208.398474
11
151.171636
21
205.701599
0
LINE
8
Image
10
151.171636
20
205.701599
11
155.444656
21
202.805065
0
LINE
8
Image
10
155.444656
20
202.805065
11
159.042791
21
200.104067
0
LINE
8
Image
10
159.042791
20
200.104067
11
161.009793
21
198.661869
0
LINE
8
Image
10
161.009793
20
198.661869
11
162.041400
21
198.182991
0
LINE
8
Image
10
162.041400
20
198.182991
11
162.222131
21
198.243891
0
LINE
8
Image
10
162.222131
20
198.243891
11
162.143405
21
198.099459
0
LINE
8
Image
10
162.143405
20
198.099459
11
162.358610
21
197.664081
0
LINE
8
Image
10
162.358610
20
197.664081
11
163.139347
21
196.693505
0
LINE
8
Image
10
163.139347
20
196.693505
11
165.903854
21
193.721378
0
LINE
8
Image
10
165.903854
20
193.721378
11
169.433396
21
190.011515
0
LINE
8
Image
10
169.433396
20
190.011515
11
172.431219
21
186.572483
0
LINE
8
Image
10
172.431219
20
186.572483
11
175.052531
21
183.216599
0
LINE
8
Image
10
175.052531
20
183.216599
11
177.452535
21
179.756182
0
LINE
8
Image
10
177.452535
20
179.756182
11
181.139342
21
173.666256
0
LINE
8
Image
10
181.139342
20
173.666256
11
184.376800
21
167.394639
0
LINE
8
Image
10
184.376800
20
167.394639
11
187.033714
21
161.218384
0
LINE
8
Image
10
187.033714
20
161.218384
11
188.978895
21
155.414546
0
LINE
8
Image
10
188.978895
20
155.414546
11
191.189193
21
146.857173
0
LINE
8
Image
10
191.189193
20
146.857173
11
191.913513
21
143.236473
0
LINE
8
Image
10
191.913513
20
143.236473
11
192.421185
21
139.733239
0
LINE
8
Image
10
192.421185
20
139.733239
11
192.740138
21
136.106577
0
LINE
8
Image
10
192.740138
20
136.106577
11
192.898301
21
132.115594
0
LINE
8
Image
10
192.898301
20
132.115594
11
192.843971
21
122.077088
0
LINE
8
Image
10
192.843971
20
122.077088
11
192.434589
21
117.571109
0
LINE
8
Image
10
192.434589
20
117.571109
11
191.454543
21
112.010315
0
LINE
8
Image
10
191.454543
20
112.010315
11
190.043353
21
106.065983
0
LINE
8
Image
10
190.043353
20
106.065983
11
188.340538
21
100.409391
0
LINE
8
Image
10
188.340538
20
100.409391
11
187.642314
21
97.969620
0
LINE
8
Image
10
187.642314
20
97.969620
11
187.472494
21
96.528840
0
LINE
8
Image
10
187.472494
20
96.528840
11
187.549829
21
96.083442
0
LINE
8
Image
10
187.549829
20
96.083442
11
187.353466
21
96.259955
0
LINE
8
Image
10
187.353466
20
96.259955
11
187.177844
21
96.417334
0
LINE
8
Image
10
187.177844
20
96.417334
11
186.999660
21
96.362173
0
LINE
8
Image
10
186.999660
20
96.362173
11
186.569096
21
95.554402
0
LINE
8
Image
10
186.569096
20
95.554402
11
184.725208
21
91.231862
0
LINE
8
Image
10
184.725208
20
91.231862
11
182.635685
21
86.994678
0
LINE
8
Image
10
182.635685
20
86.994678
11
180.308126
21
82.854163
0
LINE
8
Image
10
180.308126
20
82.854163
11
177.750133
21
78.821626
0
LINE
8
Image
10
177.750133
20
78.821626
11
174.969306
21
74.908381
0
LINE
8
Image
10
174.969306
20
74.908381
11
171.973245
21
71.125739
0
LINE
8
Image
10
171.973245
20
71.125739
11
168.769550
21
67.485010
0
LINE
8
Image
10
168.769550
20
67.485010
11
165.365822
21
63.997508
0
LINE
8
Image
10
165.365822
20
63.997508
11
160.713779
21
59.714554
0
LINE
8
Image
10
160.713779
20
59.714554
11
156.119938
21
56.017170
0
LINE
8
Image
10
156.119938
20
56.017170
11
151.315080
21
52.704560
0
LINE
8
Image
10
151.315080
20
52.704560
11
146.029986
21
49.575927
0
LINE
8
Image
10
146.029986
20
49.575927
11
141.643316
21
47.273667
0
LINE
8
Image
10
141.643316
20
47.273667
11
137.308856
21
45.253590
0
LINE
8
Image
10
137.308856
20
45.253590
11
132.973346
21
43.499042
0
LINE
8
Image
10
132.973346
20
43.499042
11
128.583529
21
41.993369
0
LINE
8
Image
10
128.583529
20
41.993369
11
124.086145
21
40.719915
0
LINE
8
Image
10
124.086145
20
40.719915
11
119.427935
21
39.662028
0
LINE
8
Image
10
119.427935
20
39.662028
11
114.555642
21
38.803051
0
LINE
8
Image
10
114.555642
20
38.803051
11
109.416006
21
38.126331
0
LINE
8
Image
10
109.416006
20
38.126331
11
102.436182
21
37.775748
0
LINE
8
Image
10
102.436182
20
37.775748
11
99.152337
21
37.773193
0
LINE
8
Image
10
99.152337
20
37.773193
11
97.638078
21
37.915072
0
LINE
8
Image
10
97.638078
20
37.915072
11
97.638078
21
37.915072
0
LINE
8
Image
10
113.723623
20
39.325344
11
120.167423
21
40.524114
0
LINE
8
Image
10
120.167423
20
40.524114
11
124.836109
21
41.708211
0
LINE
8
Image
10
124.836109
20
41.708211
11
132.418347
21
44.120990
0
LINE
8
Image
10
132.418347
20
44.120990
11
135.966265
21
45.487444
0
LINE
8
Image
10
135.966265
20
45.487444
11
139.423290
21
46.993516
0
LINE
8
Image
10
139.423290
20
46.993516
11
142.842853
21
48.663886
0
LINE
8
Image
10
142.842853
20
48.663886
11
146.278384
21
50.523236
0
LINE
8
Image
10
146.278384
20
50.523236
11
153.411073
21
54.907595
0
LINE
8
Image
10
153.411073
20
54.907595
11
156.437227
21
57.143426
0
LINE
8
Image
10
156.437227
20
57.143426
11
160.320438
21
60.309635
0
LINE
8
Image
10
160.320438
20
60.309635
11
164.056254
21
63.560263
0
LINE
8
Image
10
164.056254
20
63.560263
11
166.640223
21
66.049346
0
LINE
8
Image
10
166.640223
20
66.049346
11
170.493034
21
70.360977
0
LINE
8
Image
10
170.493034
20
70.360977
11
173.509919
21
74.034280
0
LINE
8
Image
10
173.509919
20
74.034280
11
176.154097
21
77.667076
0
LINE
8
Image
10
176.154097
20
77.667076
11
178.888784
21
81.857189
0
LINE
8
Image
10
178.888784
20
81.857189
11
181.947318
21
87.409528
0
LINE
8
Image
10
181.947318
20
87.409528
11
184.828095
21
93.325734
0
LINE
8
Image
10
184.828095
20
93.325734
11
187.129610
21
99.246637
0
LINE
8
Image
10
187.129610
20
99.246637
11
189.067757
21
105.326389
0
LINE
8
Image
10
189.067757
20
105.326389
11
190.571198
21
111.314834
0
LINE
8
Image
10
190.571198
20
111.314834
11
191.568593
21
116.961818
0
LINE
8
Image
10
191.568593
20
116.961818
11
191.885731
21
121.654785
0
LINE
8
Image
10
191.885731
20
121.654785
11
192.002935
21
128.305285
0
LINE
8
Image
10
192.002935
20
128.305285
11
191.916120
21
135.104877
0
LINE
8
Image
10
191.916120
20
135.104877
11
191.621198
21
140.245122
0
LINE
8
Image
10
191.621198
20
140.245122
11
190.864588
21
144.805282
0
LINE
8
Image
10
190.864588
20
144.805282
11
189.633878
21
150.319791
0
LINE
8
Image
10
189.633878
20
150.319791
11
188.491299
21
154.453672
0
LINE
8
Image
10
188.491299
20
154.453672
11
187.179485
21
158.503406
0
LINE
8
Image
10
187.179485
20
158.503406
11
185.701401
21
162.464684
0
LINE
8
Image
10
185.701401
20
162.464684
11
184.060013
21
166.333198
0
LINE
8
Image
10
184.060013
20
166.333198
11
182.258289
21
170.104640
0
LINE
8
Image
10
182.258289
20
170.104640
11
180.299195
21
173.774702
0
LINE
8
Image
10
180.299195
20
173.774702
11
178.185697
21
177.339075
0
LINE
8
Image
10
178.185697
20
177.339075
11
175.920762
21
180.793452
0
LINE
8
Image
10
175.920762
20
180.793452
11
173.507356
21
184.133523
0
LINE
8
Image
10
173.507356
20
184.133523
11
170.948446
21
187.354980
0
LINE
8
Image
10
170.948446
20
187.354980
11
168.246998
21
190.453516
0
LINE
8
Image
10
168.246998
20
190.453516
11
165.405978
21
193.424821
0
LINE
8
Image
10
165.405978
20
193.424821
11
162.428354
21
196.264589
0
LINE
8
Image
10
162.428354
20
196.264589
11
159.317092
21
198.968509
0
LINE
8
Image
10
159.317092
20
198.968509
11
156.075157
21
201.532275
0
LINE
8
Image
10
156.075157
20
201.532275
11
152.705518
21
203.951578
0
LINE
8
Image
10
152.705518
20
203.951578
11
148.692835
21
206.537740
0
LINE
8
Image
10
148.692835
20
206.537740
11
144.547711
21
208.903692
0
LINE
8
Image
10
144.547711
20
208.903692
11
140.276498
21
211.046857
0
LINE
8
Image
10
140.276498
20
211.046857
11
135.885547
21
212.964660
0
LINE
8
Image
10
135.885547
20
212.964660
11
131.381210
21
214.654525
0
LINE
8
Image
10
131.381210
20
214.654525
11
126.769838
21
216.113875
0
LINE
8
Image
10
126.769838
20
216.113875
11
122.057783
21
217.340136
0
LINE
8
Image
10
122.057783
20
217.340136
11
117.251396
21
218.330730
0
LINE
8
Image
10
117.251396
20
218.330730
11
111.319664
21
219.274651
0
LINE
8
Image
10
111.319664
20
219.274651
11
105.080578
21
219.654780
0
LINE
8
Image
10
105.080578
20
219.654780
11
100.102583
21
219.703432
0
LINE
8
Image
10
100.102583
20
219.703432
11
94.943215
21
219.446583
0
LINE
8
Image
10
94.943215
20
219.446583
11
89.698748
21
218.901739
0
LINE
8
Image
10
89.698748
20
218.901739
11
84.465457
21
218.086405
0
LINE
8
Image
10
84.465457
20
218.086405
11
79.339615
21
217.018088
0
LINE
8
Image
10
79.339615
20
217.018088
11
74.417495
21
215.714293
0
LINE
8
Image
10
74.417495
20
215.714293
11
69.795371
21
214.192526
0
LINE
8
Image
10
69.795371
20
214.192526
11
65.569517
21
212.470293
0
LINE
8
Image
10
65.569517
20
212.470293
11
58.728126
21
209.240308
0
LINE
8
Image
10
58.728126
20
209.240308
11
53.793029
21
206.445915
0
LINE
8
Image
10
53.793029
20
206.445915
11
49.614534
21
203.755579
0
LINE
8
Image
10
49.614534
20
203.755579
11
45.601330
21
200.857673
0
LINE
8
Image
10
45.601330
20
200.857673
11
41.763830
21
197.762080
0
LINE
8
Image
10
41.763830
20
197.762080
11
38.112444
21
194.478683
0
LINE
8
Image
10
38.112444
20
194.478683
11
34.657585
21
191.017363
0
LINE
8
Image
10
34.657585
20
191.017363
11
31.409665
21
187.388002
0
LINE
8
Image
10
31.409665
20
187.388002
11
28.379096
21
183.600484
0
LINE
8
Image
10
28.379096
20
183.600484
11
25.576288
21
179.664689
0
LINE
8
Image
10
25.576288
20
179.664689
11
22.495071
21
174.733716
0
LINE
8
Image
10
22.495071
20
174.733716
11
19.715405
21
169.600724
0
LINE
8
Image
10
19.715405
20
169.600724
11
17.255657
21
164.316828
0
LINE
8
Image
10
17.255657
20
164.316828
11
15.134194
21
158.933146
0
LINE
8
Image
10
15.134194
20
158.933146
11
13.369381
21
153.500796
0
LINE
8
Image
10
13.369381
20
153.500796
11
11.979587
21
148.070894
0
LINE
8
Image
10
11.979587
20
148.070894
11
10.983177
21
142.694557
0
LINE
8
Image
10
10.983177
20
142.694557
11
10.398519
21
137.422902
0
LINE
8
Image
10
10.398519
20
137.422902
11
9.987960
21
131.602076
0
LINE
8
Image
10
9.987960
20
131.602076
11
9.905206
21
129.036113
0
LINE
8
Image
10
9.905206
20
129.036113
11
9.968982
21
126.045981
0
LINE
8
Image
10
9.968982
20
126.045981
11
10.481256
21
119.309972
0
LINE
8
Image
10
10.481256
20
119.309972
11
11.415039
21
112.427560
0
LINE
8
Image
10
11.415039
20
112.427560
11
12.660590
21
106.432258
0
LINE
8
Image
10
12.660590
20
106.432258
11
13.716354
21
102.761078
0
LINE
8
Image
10
13.716354
20
102.761078
11
14.968089
21
99.034757
0
LINE
8
Image
10
14.968089
20
99.034757
11
16.395988
21
95.297242
0
LINE
8
Image
10
16.395988
20
95.297242
11
17.980243
21
91.592481
0
LINE
8
Image
10
17.980243
20
91.592481
11
19.701045
21
87.964420
0
LINE
8
Image
10
19.701045
20
87.964420
11
21.538586
21
84.457008
0
LINE
8
Image
10
21.538586
20
84.457008
11
23.473059
21
81.114193
0
LINE
8
Image
10
23.473059
20
81.114193
11
25.484655
21
77.979920
0
LINE
8
Image
10
25.484655
20
77.979920
11
29.336548
21
72.878283
0
LINE
8
Image
10
29.336548
20
72.878283
11
34.033022
21
67.529230
0
LINE
8
Image
10
34.033022
20
67.529230
11
38.964382
21
62.584621
0
LINE
8
Image
10
38.964382
20
62.584621
11
41.327615
21
60.467689
0
LINE
8
Image
10
41.327615
20
60.467689
11
43.520935
21
58.696315
0
LINE
8
Image
10
43.520935
20
58.696315
11
47.048707
21
55.984765
0
LINE
8
Image
10
47.048707
20
55.984765
11
50.363523
21
53.661021
0
LINE
8
Image
10
50.363523
20
53.661021
11
54.789441
21
51.034062
0
LINE
8
Image
10
54.789441
20
51.034062
11
60.126386
21
48.215489
0
LINE
8
Image
10
60.126386
20
48.215489
11
66.174285
21
45.316898
0
LINE
8
Image
10
66.174285
20
45.316898
11
68.722883
21
44.291809
0
LINE
8
Image
10
68.722883
20
44.291809
11
71.889196
21
43.242355
0
LINE
8
Image
10
71.889196
20
43.242355
11
79.393668
21
41.230943
0
LINE
8
Image
10
79.393668
20
41.230943
11
87.325094
21
39.603849
0
LINE
8
Image
10
87.325094
20
39.603849
11
91.025102
21
39.034794
0
LINE
8
Image
10
91.025102
20
39.034794
11
94.320871
21
38.682265
0
LINE
8
Image
10
94.320871
20
38.682265
11
98.592773
21
38.580512
0
LINE
8
Image
10
98.592773
20
38.580512
11
104.357529
21
38.690465
0
LINE
8
Image
10
104.357529
20
38.690465
11
109.954644
21
38.957088
0
LINE
8
Image
10
109.954644
20
38.957088
11
113.723623
21
39.325344
0
LINE
8
Image
10
113.723623
20
39.325344
11
113.723623
21
39.325344
0
LINE
8
Image
10
95.202813
20
70.614858
11
89.601498
21
71.456064
0
LINE
8
Image
10
89.601498
20
71.456064
11
84.119468
21
72.825938
0
LINE
8
Image
10
84.119468
20
72.825938
11
78.801124
21
74.701428
0
LINE
8
Image
10
78.801124
20
74.701428
11
73.690861
21
77.059483
0
LINE
8
Image
10
73.690861
20
77.059483
11
68.833078
21
79.877048
0
LINE
8
Image
10
68.833078
20
79.877048
11
64.272172
21
83.131074
0
LINE
8
Image
10
64.272172
20
83.131074
11
60.052541
21
86.798506
0
LINE
8
Image
10
60.052541
20
86.798506
11
56.218583
21
90.856294
0
LINE
8
Image
10
56.218583
20
90.856294
11
53.500304
21
94.403875
0
LINE
8
Image
10
53.500304
20
94.403875
11
50.780976
21
98.591396
0
LINE
8
Image
10
50.780976
20
98.591396
11
48.344086
21
102.949043
0
LINE
8
Image
10
48.344086
20
102.949043
11
46.473126
21
107.007001
0
LINE
8
Image
10
46.473126
20
107.007001
11
45.458403
21
109.833826
0
LINE
8
Image
10
45.458403
20
109.833826
11
44.490251
21
113.047576
0
LINE
8
Image
10
44.490251
20
113.047576
11
43.639952
21
116.391200
0
LINE
8
Image
10
43.639952
20
116.391200
11
42.978791
21
119.607648
0
LINE
8
Image
10
42.978791
20
119.607648
11
42.429525
21
124.347781
0
LINE
8
Image
10
42.429525
20
124.347781
11
42.286421
21
129.645950
0
LINE
8
Image
10
42.286421
20
129.645950
11
42.543088
21
134.907947
0
LINE
8
Image
10
42.543088
20
134.907947
11
43.193138
21
139.539566
0
LINE
8
Image
10
43.193138
20
139.539566
11
44.586215
21
145.274181
0
LINE
8
Image
10
44.586215
20
145.274181
11
46.351083
21
150.397289
0
LINE
8
Image
10
46.351083
20
150.397289
11
48.679810
21
155.383195
0
LINE
8
Image
10
48.679810
20
155.383195
11
51.764463
21
160.706206
0
LINE
8
Image
10
51.764463
20
160.706206
11
53.402823
21
163.170363
0
LINE
8
Image
10
53.402823
20
163.170363
11
55.185322
21
165.549588
0
LINE
8
Image
10
55.185322
20
165.549588
11
57.103658
21
167.838303
0
LINE
8
Image
10
57.103658
20
167.838303
11
59.149533
21
170.030932
0
LINE
8
Image
10
59.149533
20
170.030932
11
61.314647
21
172.121899
0
LINE
8
Image
10
61.314647
20
172.121899
11
63.590701
21
174.105627
0
LINE
8
Image
10
63.590701
20
174.105627
11
65.969394
21
175.976540
0
LINE
8
Image
10
65.969394
20
175.976540
11
68.442427
21
177.729062
0
LINE
8
Image
10
68.442427
20
177.729062
11
71.001500
21
179.357614
0
LINE
8
Image
10
71.001500
20
179.357614
11
73.638315
21
180.856623
0
LINE
8
Image
10
73.638315
20
180.856623
11
76.344570
21
182.220509
0
LINE
8
Image
10
76.344570
20
182.220509
11
79.111968
21
183.443699
0
LINE
8
Image
10
79.111968
20
183.443699
11
81.932208
21
184.520613
0
LINE
8
Image
10
81.932208
20
184.520613
11
84.796990
21
185.445677
0
LINE
8
Image
10
84.796990
20
185.445677
11
87.698014
21
186.213314
0
LINE
8
Image
10
87.698014
20
186.213314
11
90.626983
21
186.817947
0
LINE
8
Image
10
90.626983
20
186.817947
11
94.577363
21
187.347565
0
LINE
8
Image
10
94.577363
20
187.347565
11
98.736730
21
187.590501
0
LINE
8
Image
10
98.736730
20
187.590501
11
103.009332
21
187.556444
0
LINE
8
Image
10
103.009332
20
187.556444
11
107.299412
21
187.255084
0
LINE
8
Image
10
107.299412
20
187.255084
11
111.511218
21
186.696111
0
LINE
8
Image
10
111.511218
20
186.696111
11
115.548995
21
185.889214
0
LINE
8
Image
10
115.548995
20
185.889214
11
119.316989
21
184.844083
0
LINE
8
Image
10
119.316989
20
184.844083
11
122.719445
21
183.570408
0
LINE
8
Image
10
122.719445
20
183.570408
11
128.572551
21
180.782339
0
LINE
8
Image
10
128.572551
20
180.782339
11
133.649141
21
177.805766
0
LINE
8
Image
10
133.649141
20
177.805766
11
138.184949
21
174.486286
0
LINE
8
Image
10
138.184949
20
174.486286
11
142.415710
21
170.669494
0
LINE
8
Image
10
142.415710
20
170.669494
11
145.081526
21
167.926477
0
LINE
8
Image
10
145.081526
20
167.926477
11
147.260153
21
165.428451
0
LINE
8
Image
10
147.260153
20
165.428451
11
149.153545
21
162.927488
0
LINE
8
Image
10
149.153545
20
162.927488
11
150.963657
21
160.175662
0
LINE
8
Image
10
150.963657
20
160.175662
11
153.430785
21
155.870188
0
LINE
8
Image
10
153.430785
20
155.870188
11
155.495042
21
151.547489
0
LINE
8
Image
10
155.495042
20
151.547489
11
157.163281
21
147.179260
0
LINE
8
Image
10
157.163281
20
147.179260
11
158.442354
21
142.737200
0
LINE
8
Image
10
158.442354
20
142.737200
11
159.339115
21
138.193005
0
LINE
8
Image
10
159.339115
20
138.193005
11
159.860416
21
133.518373
0
LINE
8
Image
10
159.860416
20
133.518373
11
160.013111
21
128.685001
0
LINE
8
Image
10
160.013111
20
128.685001
11
159.804052
21
123.664586
0
LINE
8
Image
10
159.804052
20
123.664586
11
159.180601
21
118.402858
0
LINE
8
Image
10
159.180601
20
118.402858
11
158.097987
21
113.455359
0
LINE
8
Image
10
158.097987
20
113.455359
11
156.489315
21
108.577878
0
LINE
8
Image
10
156.489315
20
108.577878
11
154.287692
21
103.526206
0
LINE
8
Image
10
154.287692
20
103.526206
11
152.079967
21
99.339535
0
LINE
8
Image
10
152.079967
20
99.339535
11
149.681242
21
95.636451
0
LINE
8
Image
10
149.681242
20
95.636451
11
146.855860
21
92.089925
0
LINE
8
Image
10
146.855860
20
92.089925
11
143.368161
21
88.372929
0
LINE
8
Image
10
143.368161
20
88.372929
11
139.496329
21
84.712697
0
LINE
8
Image
10
139.496329
20
84.712697
11
135.783492
21
81.724383
0
LINE
8
Image
10
135.783492
20
81.724383
11
131.891433
21
79.161091
0
LINE
8
Image
10
131.891433
20
79.161091
11
127.481939
21
76.775920
0
LINE
8
Image
10
127.481939
20
76.775920
11
122.373295
21
74.433388
0
LINE
8
Image
10
122.373295
20
74.433388
11
117.661136
21
72.786450
0
LINE
8
Image
10
117.661136
20
72.786450
11
112.626053
21
71.628053
0
LINE
8
Image
10
112.626053
20
71.628053
11
106.548635
21
70.751145
0
LINE
8
Image
10
106.548635
20
70.751145
11
103.364392
21
70.423515
0
LINE
8
Image
10
103.364392
20
70.423515
11
100.761069
21
70.295783
0
LINE
8
Image
10
100.761069
20
70.295783
11
98.215074
21
70.361661
0
LINE
8
Image
10
98.215074
20
70.361661
11
95.202813
21
70.614858
0
LINE
8
Image
10
95.202813
20
70.614858
11
95.202813
21
70.614858
0
LINE
8
Image
10
106.546328
20
71.460124
11
111.303930
21
72.061353
0
LINE
8
Image
10
111.303930
20
72.061353
11
114.838192
21
72.729270
0
LINE
8
Image
10
114.838192
20
72.729270
11
118.175022
21
73.710037
0
LINE
8
Image
10
118.175022
20
73.710037
11
122.340324
21
75.249816
0
LINE
8
Image
10
122.340324
20
75.249816
11
125.555199
21
76.601577
0
LINE
8
Image
10
125.555199
20
76.601577
11
128.663235
21
78.128563
0
LINE
8
Image
10
128.663235
20
78.128563
11
131.658166
21
79.823851
0
LINE
8
Image
10
131.658166
20
79.823851
11
134.533724
21
81.680517
0
LINE
8
Image
10
134.533724
20
81.680517
11
137.283642
21
83.691639
0
LINE
8
Image
10
137.283642
20
83.691639
11
139.901651
21
85.850294
0
LINE
8
Image
10
139.901651
20
85.850294
11
142.381484
21
88.149559
0
LINE
8
Image
10
142.381484
20
88.149559
11
144.716875
21
90.582511
0
LINE
8
Image
10
144.716875
20
90.582511
11
146.901555
21
93.142228
0
LINE
8
Image
10
146.901555
20
93.142228
11
148.929256
21
95.821786
0
LINE
8
Image
10
148.929256
20
95.821786
11
150.793712
21
98.614263
0
LINE
8
Image
10
150.793712
20
98.614263
11
152.488655
21
101.512737
0
LINE
8
Image
10
152.488655
20
101.512737
11
154.007816
21
104.510283
0
LINE
8
Image
10
154.007816
20
104.510283
11
155.344929
21
107.599980
0
LINE
8
Image
10
155.344929
20
107.599980
11
156.493727
21
110.774905
0
LINE
8
Image
10
156.493727
20
110.774905
11
157.447941
21
114.028135
0
LINE
8
Image
10
157.447941
20
114.028135
11
158.187627
21
117.270270
0
LINE
8
Image
10
158.187627
20
117.270270
11
158.741678
21
120.577381
0
LINE
8
Image
10
158.741678
20
120.577381
11
159.109617
21
123.931099
0
LINE
8
Image
10
159.109617
20
123.931099
11
159.290967
21
127.313058
0
LINE
8
Image
10
159.290967
20
127.313058
11
159.285253
21
130.704892
0
LINE
8
Image
10
159.285253
20
130.704892
11
159.091997
21
134.088232
0
LINE
8
Image
10
159.091997
20
134.088232
11
158.710724
21
137.444713
0
LINE
8
Image
10
158.710724
20
137.444713
11
158.140957
21
140.755968
0
LINE
8
Image
10
158.140957
20
140.755968
11
157.431174
21
143.761247
0
LINE
8
Image
10
157.431174
20
143.761247
11
156.516571
21
146.801935
0
LINE
8
Image
10
156.516571
20
146.801935
11
155.412687
21
149.843953
0
LINE
8
Image
10
155.412687
20
149.843953
11
154.135059
21
152.853222
0
LINE
8
Image
10
154.135059
20
152.853222
11
152.699225
21
155.795660
0
LINE
8
Image
10
152.699225
20
155.795660
11
151.120721
21
158.637189
0
LINE
8
Image
10
151.120721
20
158.637189
11
149.415085
21
161.343730
0
LINE
8
Image
10
149.415085
20
161.343730
11
147.597854
21
163.881202
0
LINE
8
Image
10
147.597854
20
163.881202
11
145.666125
21
166.278433
0
LINE
8
Image
10
145.666125
20
166.278433
11
143.631898
21
168.555958
0
LINE
8
Image
10
143.631898
20
168.555958
11
141.499195
21
170.711545
0
LINE
8
Image
10
141.499195
20
170.711545
11
139.272036
21
172.742962
0
LINE
8
Image
10
139.272036
20
172.742962
11
136.954443
21
174.647975
0
LINE
8
Image
10
136.954443
20
174.647975
11
134.550436
21
176.424353
0
LINE
8
Image
10
134.550436
20
176.424353
11
132.064036
21
178.069863
0
LINE
8
Image
10
132.064036
20
178.069863
11
129.499264
21
179.582272
0
LINE
8
Image
10
129.499264
20
179.582272
11
126.860141
21
180.959347
0
LINE
8
Image
10
126.860141
20
180.959347
11
124.150687
21
182.198856
0
LINE
8
Image
10
124.150687
20
182.198856
11
121.374923
21
183.298567
0
LINE
8
Image
10
121.374923
20
183.298567
11
118.536871
21
184.256246
0
LINE
8
Image
10
118.536871
20
184.256246
11
115.640550
21
185.069662
0
LINE
8
Image
10
115.640550
20
185.069662
11
112.689983
21
185.736581
0
LINE
8
Image
10
112.689983
20
185.736581
11
109.689189
21
186.254771
0
LINE
8
Image
10
109.689189
20
186.254771
11
106.642189
21
186.622000
0
LINE
8
Image
10
106.642189
20
186.622000
11
101.467315
21
186.910020
0
LINE
8
Image
10
101.467315
20
186.910020
11
96.428803
21
186.777355
0
LINE
8
Image
10
96.428803
20
186.777355
11
91.516491
21
186.221444
0
LINE
8
Image
10
91.516491
20
186.221444
11
86.720217
21
185.239725
0
LINE
8
Image
10
86.720217
20
185.239725
11
82.029819
21
183.829635
0
LINE
8
Image
10
82.029819
20
183.829635
11
77.435134
21
181.988612
0
LINE
8
Image
10
77.435134
20
181.988612
11
72.926000
21
179.714094
0
LINE
8
Image
10
72.926000
20
179.714094
11
68.492255
21
177.003519
0
LINE
8
Image
10
68.492255
20
177.003519
11
65.832350
21
175.016149
0
LINE
8
Image
10
65.832350
20
175.016149
11
62.705686
21
172.367508
0
LINE
8
Image
10
62.705686
20
172.367508
11
59.669055
21
169.551293
0
LINE
8
Image
10
59.669055
20
169.551293
11
57.279251
21
167.061199
0
LINE
8
Image
10
57.279251
20
167.061199
11
54.930704
21
164.138446
0
LINE
8
Image
10
54.930704
20
164.138446
11
52.720167
21
160.945683
0
LINE
8
Image
10
52.720167
20
160.945683
11
50.674062
21
157.537695
0
LINE
8
Image
10
50.674062
20
157.537695
11
48.818814
21
153.969263
0
LINE
8
Image
10
48.818814
20
153.969263
11
47.180844
21
150.295174
0
LINE
8
Image
10
47.180844
20
150.295174
11
45.786577
21
146.570209
0
LINE
8
Image
10
45.786577
20
146.570209
11
44.662436
21
142.849153
0
LINE
8
Image
10
44.662436
20
142.849153
11
43.834844
21
139.186790
0
LINE
8
Image
10
43.834844
20
139.186790
11
43.326544
21
134.640917
0
LINE
8
Image
10
43.326544
20
134.640917
11
43.154953
21
129.006260
0
LINE
8
Image
10
43.154953
20
129.006260
11
43.320629
21
123.346596
0
LINE
8
Image
10
43.320629
20
123.346596
11
43.824128
21
118.725702
0
LINE
8
Image
10
43.824128
20
118.725702
11
44.384403
21
116.121562
0
LINE
8
Image
10
44.384403
20
116.121562
11
45.151694
21
113.328129
0
LINE
8
Image
10
45.151694
20
113.328129
11
47.168354
21
107.526713
0
LINE
8
Image
10
47.168354
20
107.526713
11
49.596169
21
102.028112
0
LINE
8
Image
10
49.596169
20
102.028112
11
50.877403
21
99.613199
0
LINE
8
Image
10
50.877403
20
99.613199
11
52.157199
21
97.538986
0
LINE
8
Image
10
52.157199
20
97.538986
11
55.079634
21
93.532356
0
LINE
8
Image
10
55.079634
20
93.532356
11
58.248010
21
89.721464
0
LINE
8
Image
10
58.248010
20
89.721464
11
61.359105
21
86.448382
0
LINE
8
Image
10
61.359105
20
86.448382
11
64.109697
21
84.055177
0
LINE
8
Image
10
64.109697
20
84.055177
11
65.569520
21
82.900185
0
LINE
8
Image
10
65.569520
20
82.900185
11
69.320368
21
80.374555
0
LINE
8
Image
10
69.320368
20
80.374555
11
74.359076
21
77.455250
0
LINE
8
Image
10
74.359076
20
77.455250
11
78.865451
21
75.442485
0
LINE
8
Image
10
78.865451
20
75.442485
11
83.626164
21
73.743421
0
LINE
8
Image
10
83.626164
20
73.743421
11
88.346908
21
72.450919
0
LINE
8
Image
10
88.346908
20
72.450919
11
92.733376
21
71.657834
0
LINE
8
Image
10
92.733376
20
71.657834
11
96.922440
21
71.180469
0
LINE
8
Image
10
96.922440
20
71.180469
11
99.996953
21
70.997327
0
LINE
8
Image
10
99.996953
20
70.997327
11
102.892915
21
71.095012
0
LINE
8
Image
10
102.892915
20
71.095012
11
106.546331
21
71.460124
0
LINE
8
Image
10
106.546331
20
71.460124
11
106.546328
21
71.460124
0
LINE
8
Image
10
101.788469
20
74.011175
11
101.365957
21
99.146560
0
LINE
8
Image
10
101.365957
20
99.146560
11
101.077757
21
126.134026
0
LINE
8
Image
10
101.077757
20
126.134026
11
101.053310
21
128.250690
0
LINE
8
Image
10
101.053310
20
128.250690
11
128.535281
21
128.341064
0
LINE
8
Image
10
128.535281
20
128.341064
11
148.012627
21
128.326531
0
LINE
8
Image
10
148.012627
20
128.326531
11
156.249432
21
128.164677
0
LINE
8
Image
10
156.249432
20
128.164677
11
156.322028
21
126.888178
0
LINE
8
Image
10
156.322028
20
126.888178
11
156.170531
21
124.193752
0
LINE
8
Image
10
156.170531
20
124.193752
11
155.520677
21
119.319249
0
LINE
8
Image
10
155.520677
20
119.319249
11
154.400121
21
114.494597
0
LINE
8
Image
10
154.400121
20
114.494597
11
152.821845
21
109.765752
0
LINE
8
Image
10
152.821845
20
109.765752
11
150.798829
21
105.178667
0
LINE
8
Image
10
150.798829
20
105.178667
11
148.140048
21
100.063269
0
LINE
8
Image
10
148.140048
20
100.063269
11
146.699066
21
97.735452
0
LINE
8
Image
10
146.699066
20
97.735452
11
146.148976
21
96.992336
0
LINE
8
Image
10
146.148976
20
96.992336
11
145.308713
21
95.820774
0
LINE
8
Image
10
145.308713
20
95.820774
11
143.896881
21
94.157526
0
LINE
8
Image
10
143.896881
20
94.157526
11
140.143002
21
90.154747
0
LINE
8
Image
10
140.143002
20
90.154747
11
136.456329
21
86.581546
0
LINE
8
Image
10
136.456329
20
86.581546
11
135.128503
21
85.455270
0
LINE
8
Image
10
135.128503
20
85.455270
11
134.405849
21
85.035468
0
LINE
8
Image
10
134.405849
20
85.035468
11
133.949509
21
84.758140
0
LINE
8
Image
10
133.949509
20
84.758140
11
133.466620
21
84.246154
0
LINE
8
Image
10
133.466620
20
84.246154
11
132.408857
21
83.479400
0
LINE
8
Image
10
132.408857
20
83.479400
11
129.078926
21
81.468633
0
LINE
8
Image
10
129.078926
20
81.468633
11
124.980140
21
79.299938
0
LINE
8
Image
10
124.980140
20
79.299938
11
121.132921
21
77.547415
0
LINE
8
Image
10
121.132921
20
77.547415
11
117.914278
21
76.401778
0
LINE
8
Image
10
117.914278
20
76.401778
11
114.513958
21
75.420857
0
LINE
8
Image
10
114.513958
20
75.420857
11
111.428675
21
74.732495
0
LINE
8
Image
10
111.428675
20
74.732495
11
109.155143
21
74.464538
0
LINE
8
Image
10
109.155143
20
74.464538
11
108.123276
21
74.547293
0
LINE
8
Image
10
108.123276
20
74.547293
11
108.037628
21
74.649923
0
LINE
8
Image
10
108.037628
20
74.649923
11
108.216895
21
74.782955
0
LINE
8
Image
10
108.216895
20
74.782955
11
109.304353
21
75.108925
0
LINE
8
Image
10
109.304353
20
75.108925
11
111.254006
21
75.462606
0
LINE
8
Image
10
111.254006
20
75.462606
11
115.310944
21
76.263232
0
LINE
8
Image
10
115.310944
20
76.263232
11
120.178223
21
77.978529
0
LINE
8
Image
10
120.178223
20
77.978529
11
124.920013
21
80.054496
0
LINE
8
Image
10
124.920013
20
80.054496
11
129.363084
21
82.407599
0
LINE
8
Image
10
129.363084
20
82.407599
11
133.334206
21
84.954302
0
LINE
8
Image
10
133.334206
20
84.954302
11
135.112851
21
86.336487
0
LINE
8
Image
10
135.112851
20
86.336487
11
137.076623
21
88.061718
0
LINE
8
Image
10
137.076623
20
88.061718
11
141.172671
21
92.129537
0
LINE
8
Image
10
141.172671
20
92.129537
11
144.848609
21
96.334192
0
LINE
8
Image
10
144.848609
20
96.334192
11
146.287242
21
98.230469
0
LINE
8
Image
10
146.287242
20
98.230469
11
147.330694
21
99.852116
0
LINE
8
Image
10
147.330694
20
99.852116
11
148.861648
21
102.494144
0
LINE
8
Image
10
148.861648
20
102.494144
11
150.034084
21
104.680527
0
LINE
8
Image
10
150.034084
20
104.680527
11
151.151783
21
107.190427
0
LINE
8
Image
10
151.151783
20
107.190427
11
152.197061
21
109.964010
0
LINE
8
Image
10
152.197061
20
109.964010
11
153.152234
21
112.941446
0
LINE
8
Image
10
153.152234
20
112.941446
11
154.721529
21
119.268542
0
LINE
8
Image
10
154.721529
20
119.268542
11
155.300283
21
122.498538
0
LINE
8
Image
10
155.300283
20
122.498538
11
155.718197
21
125.693057
0
LINE
8
Image
10
155.718197
20
125.693057
11
155.931271
21
127.721524
0
LINE
8
Image
10
155.931271
20
127.721524
11
128.719913
21
127.721524
0
LINE
8
Image
10
128.719913
20
127.721524
11
101.508543
21
127.721524
0
LINE
8
Image
10
101.508543
20
127.721524
11
101.753084
21
114.227791
0
LINE
8
Image
10
101.753084
20
114.227791
11
102.074843
21
99.146560
0
LINE
8
Image
10
102.074843
20
99.146560
11
102.205211
21
85.956944
0
LINE
8
Image
10
102.205211
20
85.956944
11
102.258361
21
74.354829
0
LINE
8
Image
10
102.258361
20
74.354829
11
104.904191
21
74.594586
0
LINE
8
Image
10
104.904191
20
74.594586
11
106.801441
21
74.675598
0
LINE
8
Image
10
106.801441
20
74.675598
11
107.550021
21
74.513015
0
LINE
8
Image
10
107.550021
20
74.513015
11
107.316840
21
74.290869
0
LINE
8
Image
10
107.316840
20
74.290869
11
106.699102
21
74.092895
0
LINE
8
Image
10
106.699102
20
74.092895
11
104.800775
21
73.812212
0
LINE
8
Image
10
104.800775
20
73.812212
11
102.836683
21
73.756472
0
LINE
8
Image
10
102.836683
20
73.756472
11
102.136739
21
73.839674
0
LINE
8
Image
10
102.136739
20
73.839674
11
101.788469
21
74.011175
0
LINE
8
Image
10
101.788469
20
74.011175
11
101.788469
21
74.011175
0
LINE
8
Image
10
46.435735
20
128.628478
11
46.331943
21
129.750445
0
LINE
8
Image
10
46.331943
20
129.750445
11
46.436050
21
132.157568
0
LINE
8
Image
10
46.436050
20
132.157568
11
47.059772
21
137.775678
0
LINE
8
Image
10
47.059772
20
137.775678
11
47.851577
21
141.984286
0
LINE
8
Image
10
47.851577
20
141.984286
11
48.104428
21
142.792385
0
LINE
8
Image
10
48.104428
20
142.792385
11
48.352464
21
143.110005
0
LINE
8
Image
10
48.352464
20
143.110005
11
48.681756
21
143.230192
0
LINE
8
Image
10
48.681756
20
143.230192
11
48.836515
21
143.065485
0
LINE
8
Image
10
48.836515
20
143.065485
11
48.634478
21
141.826592
0
LINE
8
Image
10
48.634478
20
141.826592
11
47.763394
21
137.291179
0
LINE
8
Image
10
47.763394
20
137.291179
11
47.050575
21
131.699924
0
LINE
8
Image
10
47.050575
20
131.699924
11
46.831498
21
129.151942
0
LINE
8
Image
10
46.831498
20
129.151942
11
73.486597
21
129.155541
0
LINE
8
Image
10
73.486597
20
129.155541
11
100.141697
21
129.159139
0
LINE
8
Image
10
100.141697
20
129.159139
11
100.183472
21
130.645193
0
LINE
8
Image
10
100.183472
20
130.645193
11
100.200485
21
132.344758
0
LINE
8
Image
10
100.200485
20
132.344758
11
99.930242
21
157.744726
0
LINE
8
Image
10
99.930242
20
157.744726
11
99.668642
21
175.590526
0
LINE
8
Image
10
99.668642
20
175.590526
11
99.384418
21
183.128165
0
LINE
8
Image
10
99.384418
20
183.128165
11
98.813063
21
183.251904
0
LINE
8
Image
10
98.813063
20
183.251904
11
97.755201
21
183.250186
0
LINE
8
Image
10
97.755201
20
183.250186
11
94.613808
21
182.930542
0
LINE
8
Image
10
94.613808
20
182.930542
11
90.827943
21
182.289560
0
LINE
8
Image
10
90.827943
20
182.289560
11
87.265310
21
181.447569
0
LINE
8
Image
10
87.265310
20
181.447569
11
83.685596
21
180.322541
0
LINE
8
Image
10
83.685596
20
180.322541
11
80.327765
21
179.047846
0
LINE
8
Image
10
80.327765
20
179.047846
11
77.160742
21
177.605205
0
LINE
8
Image
10
77.160742
20
177.605205
11
74.153450
21
175.976336
0
LINE
8
Image
10
74.153450
20
175.976336
11
71.274813
21
174.142961
0
LINE
8
Image
10
71.274813
20
174.142961
11
68.493754
21
172.086798
0
LINE
8
Image
10
68.493754
20
172.086798
11
65.779196
21
169.789569
0
LINE
8
Image
10
65.779196
20
169.789569
11
63.100064
21
167.232992
0
LINE
8
Image
10
63.100064
20
167.232992
11
58.674905
21
162.631076
0
LINE
8
Image
10
58.674905
20
162.631076
11
56.814540
21
160.092704
0
LINE
8
Image
10
56.814540
20
160.092704
11
54.428108
21
156.273462
0
LINE
8
Image
10
54.428108
20
156.273462
11
51.994759
21
151.527702
0
LINE
8
Image
10
51.994759
20
151.527702
11
50.103102
21
147.103417
0
LINE
8
Image
10
50.103102
20
147.103417
11
49.544349
21
145.401826
0
LINE
8
Image
10
49.544349
20
145.401826
11
49.341748
21
144.248601
0
LINE
8
Image
10
49.341748
20
144.248601
11
49.217974
21
143.780526
0
LINE
8
Image
10
49.217974
20
143.780526
11
48.900775
21
143.691905
0
LINE
8
Image
10
48.900775
20
143.691905
11
48.625145
21
143.997308
0
LINE
8
Image
10
48.625145
20
143.997308
11
48.581699
21
144.515052
0
LINE
8
Image
10
48.581699
20
144.515052
11
50.091594
21
148.737394
0
LINE
8
Image
10
50.091594
20
148.737394
11
52.410910
21
154.003443
0
LINE
8
Image
10
52.410910
20
154.003443
11
53.811414
21
156.508547
0
LINE
8
Image
10
53.811414
20
156.508547
11
55.514509
21
159.223910
0
LINE
8
Image
10
55.514509
20
159.223910
11
57.028456
21
161.401605
0
LINE
8
Image
10
57.028456
20
161.401605
11
57.861516
21
162.293709
0
LINE
8
Image
10
57.861516
20
162.293709
11
58.073154
21
162.429575
0
LINE
8
Image
10
58.073154
20
162.429575
11
58.161180
21
162.756230
0
LINE
8
Image
10
58.161180
20
162.756230
11
58.438298
21
163.344308
0
LINE
8
Image
10
58.438298
20
163.344308
11
59.204370
21
164.322028
0
LINE
8
Image
10
59.204370
20
164.322028
11
61.811688
21
167.061920
0
LINE
8
Image
10
61.811688
20
167.061920
11
65.199757
21
170.206961
0
LINE
8
Image
10
65.199757
20
170.206961
11
68.585200
21
172.988207
0
LINE
8
Image
10
68.585200
20
172.988207
11
71.722816
21
175.182153
0
LINE
8
Image
10
71.722816
20
175.182153
11
74.972875
21
177.142831
0
LINE
8
Image
10
74.972875
20
177.142831
11
78.325137
21
178.866246
0
LINE
8
Image
10
78.325137
20
178.866246
11
81.769364
21
180.348404
0
LINE
8
Image
10
81.769364
20
180.348404
11
85.295317
21
181.585311
0
LINE
8
Image
10
85.295317
20
181.585311
11
88.892757
21
182.572973
0
LINE
8
Image
10
88.892757
20
182.572973
11
92.551446
21
183.307395
0
LINE
8
Image
10
92.551446
20
183.307395
11
96.261145
21
183.784583
0
LINE
8
Image
10
96.261145
20
183.784583
11
98.520293
21
183.908195
0
LINE
8
Image
10
98.520293
20
183.908195
11
99.741049
21
183.813576
0
LINE
8
Image
10
99.741049
20
183.813576
11
99.937013
21
183.565583
0
LINE
8
Image
10
99.937013
20
183.565583
11
100.092294
21
182.838931
0
LINE
8
Image
10
100.092294
20
182.838931
11
100.315976
21
178.686937
0
LINE
8
Image
10
100.315976
20
178.686937
11
100.662034
21
150.749207
0
LINE
8
Image
10
100.662034
20
150.749207
11
100.864956
21
128.445003
0
LINE
8
Image
10
100.864956
20
128.445003
11
73.744471
21
128.442622
0
LINE
8
Image
10
73.744471
20
128.442622
11
54.535331
21
128.496230
0
LINE
8
Image
10
54.535331
20
128.496230
11
46.435735
21
128.628486
0
LINE
8
Image
10
46.435735
20
128.628486
11
46.435735
21
128.628478
0
LINE
8
Image
10
35.001050
20
163.806537
11
25.144445
21
171.332959
0
LINE
8
Image
10
25.144445
20
171.332959
11
23.815674
21
172.551907
0
LINE
8
Image
10
23.815674
20
172.551907
11
23.589014
21
173.135395
0
LINE
8
Image
10
23.589014
20
173.135395
11
24.487183
21
174.699400
0
LINE
8
Image
10
24.487183
20
174.699400
11
26.646609
21
177.755019
0
LINE
8
Image
10
26.646609
20
177.755019
11
31.641290
21
184.518676
0
LINE
8
Image
10
31.641290
20
184.518676
11
33.711041
21
187.239230
0
LINE
8
Image
10
33.711041
20
187.239230
11
35.566261
21
189.433065
0
LINE
8
Image
10
35.566261
20
189.433065
11
37.251331
21
191.129693
0
LINE
8
Image
10
37.251331
20
191.129693
11
38.810630
21
192.358625
0
LINE
8
Image
10
38.810630
20
192.358625
11
40.288537
21
193.149372
0
LINE
8
Image
10
40.288537
20
193.149372
11
41.729431
21
193.531445
0
LINE
8
Image
10
41.729431
20
193.531445
11
43.177691
21
193.534355
0
LINE
8
Image
10
43.177691
20
193.534355
11
44.677697
21
193.187614
0
LINE
8
Image
10
44.677697
20
193.187614
11
45.767020
21
192.732922
0
LINE
8
Image
10
45.767020
20
192.732922
11
46.722429
21
192.141962
0
LINE
8
Image
10
46.722429
20
192.141962
11
47.537498
21
191.424377
0
LINE
8
Image
10
47.537498
20
191.424377
11
48.205804
21
190.589810
0
LINE
8
Image
10
48.205804
20
190.589810
11
48.720923
21
189.647903
0
LINE
8
Image
10
48.720923
20
189.647903
11
49.076431
21
188.608301
0
LINE
8
Image
10
49.076431
20
188.608301
11
49.265905
21
187.480646
0
LINE
8
Image
10
49.265905
20
187.480646
11
49.282920
21
186.274581
0
LINE
8
Image
10
49.282920
20
186.274581
11
49.165371
21
184.228431
0
LINE
8
Image
10
49.165371
20
184.228431
11
50.354981
21
184.726331
0
LINE
8
Image
10
50.354981
20
184.726331
11
51.760985
21
185.086414
0
LINE
8
Image
10
51.760985
20
185.086414
11
53.454925
21
185.206489
0
LINE
8
Image
10
53.454925
20
185.206489
11
55.091806
21
185.086542
0
LINE
8
Image
10
55.091806
20
185.086542
11
56.326630
21
184.726562
0
LINE
8
Image
10
56.326630
20
184.726562
11
57.508440
21
183.948277
0
LINE
8
Image
10
57.508440
20
183.948277
11
58.496178
21
182.971074
0
LINE
8
Image
10
58.496178
20
182.971074
11
59.276502
21
181.834093
0
LINE
8
Image
10
59.276502
20
181.834093
11
59.836072
21
180.576477
0
LINE
8
Image
10
59.836072
20
180.576477
11
60.161547
21
179.237369
0
LINE
8
Image
10
60.161547
20
179.237369
11
60.239587
21
177.855911
0
LINE
8
Image
10
60.239587
20
177.855911
11
60.056849
21
176.471245
0
LINE
8
Image
10
60.056849
20
176.471245
11
59.599993
21
175.122513
0
LINE
8
Image
10
59.599993
20
175.122513
11
58.689030
21
173.587230
0
LINE
8
Image
10
58.689030
20
173.587230
11
56.995368
21
171.113000
0
LINE
8
Image
10
56.995368
20
171.113000
11
52.328547
21
164.759148
0
LINE
8
Image
10
52.328547
20
164.759148
11
47.736735
21
158.883854
0
LINE
8
Image
10
47.736735
20
158.883854
11
46.136832
21
157.007823
0
LINE
8
Image
10
46.136832
20
157.007823
11
45.357133
21
156.310017
0
LINE
8
Image
10
45.357133
20
156.310017
11
42.139684
21
158.517697
0
LINE
8
Image
10
42.139684
20
158.517697
11
35.001050
21
163.806537
0
LINE
8
Image
10
35.001050
20
163.806537
11
35.001050
21
163.806537
0
LINE
8
Image
10
51.619786
20
164.990329
11
56.128522
21
171.175080
0
LINE
8
Image
10
56.128522
20
171.175080
11
58.568148
21
174.866254
0
LINE
8
Image
10
58.568148
20
174.866254
11
59.051996
21
176.018124
0
LINE
8
Image
10
59.051996
20
176.018124
11
59.342037
21
177.146807
0
LINE
8
Image
10
59.342037
20
177.146807
11
59.450427
21
178.240044
0
LINE
8
Image
10
59.450427
20
178.240044
11
59.389321
21
179.285576
0
LINE
8
Image
10
59.389321
20
179.285576
11
59.170874
21
180.271146
0
LINE
8
Image
10
59.170874
20
180.271146
11
58.807241
21
181.184493
0
LINE
8
Image
10
58.807241
20
181.184493
11
58.310578
21
182.013359
0
LINE
8
Image
10
58.310578
20
182.013359
11
57.693039
21
182.745486
0
LINE
8
Image
10
57.693039
20
182.745486
11
56.966780
21
183.368615
0
LINE
8
Image
10
56.966780
20
183.368615
11
56.143956
21
183.870486
0
LINE
8
Image
10
56.143956
20
183.870486
11
55.236721
21
184.238842
0
LINE
8
Image
10
55.236721
20
184.238842
11
54.257232
21
184.461422
0
LINE
8
Image
10
54.257232
20
184.461422
11
53.217642
21
184.525970
0
LINE
8
Image
10
53.217642
20
184.525970
11
52.130108
21
184.420226
0
LINE
8
Image
10
52.130108
20
184.420226
11
51.006784
21
184.131930
0
LINE
8
Image
10
51.006784
20
184.131930
11
49.859825
21
183.648825
0
LINE
8
Image
10
49.859825
20
183.648825
11
48.042185
21
182.878441
0
LINE
8
Image
10
48.042185
20
182.878441
11
48.289461
21
184.186937
0
LINE
8
Image
10
48.289461
20
184.186937
11
48.553021
21
185.498103
0
LINE
8
Image
10
48.553021
20
185.498103
11
48.616211
21
186.832667
0
LINE
8
Image
10
48.616211
20
186.832667
11
48.481378
21
188.105305
0
LINE
8
Image
10
48.481378
20
188.105305
11
48.150865
21
189.230693
0
LINE
8
Image
10
48.150865
20
189.230693
11
47.408819
21
190.404945
0
LINE
8
Image
10
47.408819
20
190.404945
11
46.285181
21
191.498679
0
LINE
8
Image
10
46.285181
20
191.498679
11
44.977487
21
192.353576
0
LINE
8
Image
10
44.977487
20
192.353576
11
43.683270
21
192.811318
0
LINE
8
Image
10
43.683270
20
192.811318
11
42.302628
21
192.903777
0
LINE
8
Image
10
42.302628
20
192.903777
11
40.958330
21
192.664562
0
LINE
8
Image
10
40.958330
20
192.664562
11
39.585849
21
192.038669
0
LINE
8
Image
10
39.585849
20
192.038669
11
38.120655
21
190.971097
0
LINE
8
Image
10
38.120655
20
190.971097
11
36.498222
21
189.406843
0
LINE
8
Image
10
36.498222
20
189.406843
11
34.654021
21
187.290906
0
LINE
8
Image
10
34.654021
20
187.290906
11
30.042204
21
181.183970
0
LINE
8
Image
10
30.042204
20
181.183970
11
27.214708
21
177.286742
0
LINE
8
Image
10
27.214708
20
177.286742
11
25.560940
21
175.052973
0
LINE
8
Image
10
25.560940
20
175.052973
11
24.192035
21
173.171984
0
LINE
8
Image
10
24.192035
20
173.171984
11
25.037050
21
172.338936
0
LINE
8
Image
10
25.037050
20
172.338936
11
35.500647
21
164.323161
0
LINE
8
Image
10
35.500647
20
164.323161
11
45.461209
21
157.019549
0
LINE
8
Image
10
45.461209
20
157.019549
11
51.619786
21
164.990329
0
LINE
8
Image
10
51.619786
20
164.990329
11
51.619786
21
164.990329
0
LINE
8
Image
10
42.991769
20
166.215753
11
40.582465
21
168.106873
0
LINE
8
Image
10
40.582465
20
168.106873
11
40.486217
21
168.514416
0
LINE
8
Image
10
40.486217
20
168.514416
11
40.860152
21
169.337305
0
LINE
8
Image
10
40.860152
20
169.337305
11
43.529724
21
173.094069
0
LINE
8
Image
10
43.529724
20
173.094069
11
47.686183
21
178.374831
0
LINE
8
Image
10
47.686183
20
178.374831
11
48.753282
21
179.359164
0
LINE
8
Image
10
48.753282
20
179.359164
11
49.611043
21
179.747975
0
LINE
8
Image
10
49.611043
20
179.747975
11
50.590590
21
179.794164
0
LINE
8
Image
10
50.590590
20
179.794164
11
51.575573
21
179.502133
0
LINE
8
Image
10
51.575573
20
179.502133
11
52.441169
21
178.930157
0
LINE
8
Image
10
52.441169
20
178.930157
11
53.062557
21
178.136513
0
LINE
8
Image
10
53.062557
20
178.136513
11
53.437333
21
177.266323
0
LINE
8
Image
10
53.437333
20
177.266323
11
53.535468
21
176.516852
0
LINE
8
Image
10
53.535468
20
176.516852
11
53.347267
21
175.721847
0
LINE
8
Image
10
53.347267
20
175.721847
11
52.863035
21
174.715053
0
LINE
8
Image
10
52.863035
20
174.715053
11
51.383187
21
172.536560
0
LINE
8
Image
10
51.383187
20
172.536560
11
48.925814
21
169.265604
0
LINE
8
Image
10
48.925814
20
169.265604
11
46.538883
21
166.259994
0
LINE
8
Image
10
46.538883
20
166.259994
11
45.270363
21
164.877537
0
LINE
8
Image
10
45.270363
20
164.877537
11
44.461469
21
165.224786
0
LINE
8
Image
10
44.461469
20
165.224786
11
42.991769
21
166.215753
0
LINE
8
Image
10
42.991769
20
166.215753
11
42.991769
21
166.215753
0
LINE
8
Image
10
48.555521
20
169.897304
11
50.935535
21
173.174283
0
LINE
8
Image
10
50.935535
20
173.174283
11
52.238693
21
175.245220
0
LINE
8
Image
10
52.238693
20
175.245220
11
52.698187
21
176.557729
0
LINE
8
Image
10
52.698187
20
176.557729
11
52.547208
21
177.559423
0
LINE
8
Image
10
52.547208
20
177.559423
11
52.061110
21
178.318664
0
LINE
8
Image
10
52.061110
20
178.318664
11
51.335585
21
178.828549
0
LINE
8
Image
10
51.335585
20
178.828549
11
50.480655
21
179.038936
0
LINE
8
Image
10
50.480655
20
179.038936
11
49.606344
21
178.899685
0
LINE
8
Image
10
49.606344
20
178.899685
11
48.720017
21
178.334010
0
LINE
8
Image
10
48.720017
20
178.334010
11
47.703688
21
177.409114
0
LINE
8
Image
10
47.703688
20
177.409114
11
45.886972
21
175.174465
0
LINE
8
Image
10
45.886972
20
175.174465
11
43.757983
21
172.199599
0
LINE
8
Image
10
43.757983
20
172.199599
11
42.041766
21
169.545841
0
LINE
8
Image
10
42.041766
20
169.545841
11
41.565025
21
168.671042
0
LINE
8
Image
10
41.565025
20
168.671042
11
41.463371
21
168.274518
0
LINE
8
Image
10
41.463371
20
168.274518
11
43.444354
21
166.672422
0
LINE
8
Image
10
43.444354
20
166.672422
11
45.108433
21
165.501958
0
LINE
8
Image
10
45.108433
20
165.501958
11
48.555521
21
169.897304
0
LINE
8
Image
10
48.555521
20
169.897304
11
48.555521
21
169.897304
0
LINE
8
Image
10
34.841631
20
172.270811
11
32.487792
21
174.129586
0
LINE
8
Image
10
32.487792
20
174.129586
11
31.052154
21
175.205759
0
LINE
8
Image
10
31.052154
20
175.205759
11
35.138903
21
180.598257
0
LINE
8
Image
10
35.138903
20
180.598257
11
38.136625
21
184.362245
0
LINE
8
Image
10
38.136625
20
184.362245
11
39.250475
21
185.531547
0
LINE
8
Image
10
39.250475
20
185.531547
11
40.185912
21
186.274750
0
LINE
8
Image
10
40.185912
20
186.274750
11
41.001635
21
186.628628
0
LINE
8
Image
10
41.001635
20
186.628628
11
41.756339
21
186.629954
0
LINE
8
Image
10
41.756339
20
186.629954
11
42.508721
21
186.315500
0
LINE
8
Image
10
42.508721
20
186.315500
11
43.317478
21
185.722039
0
LINE
8
Image
10
43.317478
20
185.722039
11
43.853901
21
185.191278
0
LINE
8
Image
10
43.853901
20
185.191278
11
44.219034
21
184.634596
0
LINE
8
Image
10
44.219034
20
184.634596
11
44.411297
21
184.036418
0
LINE
8
Image
10
44.411297
20
184.036418
11
44.429108
21
183.381170
0
LINE
8
Image
10
44.429108
20
183.381170
11
43.935052
21
181.837166
0
LINE
8
Image
10
43.935052
20
181.837166
11
42.724217
21
179.877988
0
LINE
8
Image
10
42.724217
20
179.877988
11
38.340256
21
173.991492
0
LINE
8
Image
10
38.340256
20
173.991492
11
36.839669
21
172.170687
0
LINE
8
Image
10
36.839669
20
172.170687
11
36.112611
21
171.494549
0
LINE
8
Image
10
36.112611
20
171.494549
11
35.593739
21
171.719960
0
LINE
8
Image
10
35.593739
20
171.719960
11
34.841631
21
172.270811
0
LINE
8
Image
10
34.841631
20
172.270811
11
34.841631
21
172.270811
0
LINE
8
Image
10
37.259800
20
173.675141
11
39.296619
21
176.404799
0
LINE
8
Image
10
39.296619
20
176.404799
11
41.982762
21
180.042721
0
LINE
8
Image
10
41.982762
20
180.042721
11
42.818072
21
181.402087
0
LINE
8
Image
10
42.818072
20
181.402087
11
43.336025
21
182.513153
0
LINE
8
Image
10
43.336025
20
182.513153
11
43.552483
21
183.419493
0
LINE
8
Image
10
43.552483
20
183.419493
11
43.483307
21
184.164680
0
LINE
8
Image
10
43.483307
20
184.164680
11
43.144360
21
184.792287
0
LINE
8
Image
10
43.144360
20
184.792287
11
42.551505
21
185.345887
0
LINE
8
Image
10
42.551505
20
185.345887
11
41.970839
21
185.708065
0
LINE
8
Image
10
41.970839
20
185.708065
11
41.416280
21
185.863154
0
LINE
8
Image
10
41.416280
20
185.863154
11
40.838527
21
185.774616
0
LINE
8
Image
10
40.838527
20
185.774616
11
40.188277
21
185.405910
0
LINE
8
Image
10
40.188277
20
185.405910
11
38.473082
21
183.681842
0
LINE
8
Image
10
38.473082
20
183.681842
11
35.876280
21
180.398635
0
LINE
8
Image
10
35.876280
20
180.398635
11
32.066753
21
175.397661
0
LINE
8
Image
10
32.066753
20
175.397661
11
33.871180
21
173.960954
0
LINE
8
Image
10
33.871180
20
173.960954
11
35.261557
21
172.947564
0
LINE
8
Image
10
35.261557
20
172.947564
11
36.070497
21
172.528613
0
LINE
8
Image
10
36.070497
20
172.528613
11
36.582748
21
172.867199
0
LINE
8
Image
10
36.582748
20
172.867199
11
37.259800
21
173.675141
0
LINE
8
Image
10
37.259800
20
173.675141
11
37.259800
21
173.675141
0
LINE
8
Image
10
152.038972
20
162.556784
11
150.603735
21
164.723083
0
LINE
8
Image
10
150.603735
20
164.723083
11
150.234368
21
165.511325
0
LINE
8
Image
10
150.234368
20
165.511325
11
150.093575
21
166.186885
0
LINE
8
Image
10
150.093575
20
166.186885
11
150.178663
21
166.812707
0
LINE
8
Image
10
150.178663
20
166.812707
11
150.486938
21
167.451732
0
LINE
8
Image
10
150.486938
20
167.451732
11
151.762271
21
169.021163
0
LINE
8
Image
10
151.762271
20
169.021163
11
159.600905
21
178.324981
0
LINE
8
Image
10
159.600905
20
178.324981
11
160.645277
21
179.716479
0
LINE
8
Image
10
160.645277
20
179.716479
11
160.496870
21
179.710756
0
LINE
8
Image
10
160.496870
20
179.710756
11
159.937455
21
179.346848
0
LINE
8
Image
10
159.937455
20
179.346848
11
148.003915
21
172.282575
0
LINE
8
Image
10
148.003915
20
172.282575
11
145.510630
21
171.113139
0
LINE
8
Image
10
145.510630
20
171.113139
11
144.250015
21
171.982026
0
LINE
8
Image
10
144.250015
20
171.982026
11
142.147349
21
173.944887
0
LINE
8
Image
10
142.147349
20
173.944887
11
140.173661
21
176.036017
0
LINE
8
Image
10
140.173661
20
176.036017
11
139.299981
21
177.289715
0
LINE
8
Image
10
139.299981
20
177.289715
11
139.703888
21
178.360191
0
LINE
8
Image
10
139.703888
20
178.360191
11
140.712076
21
180.147321
0
LINE
8
Image
10
140.712076
20
180.147321
11
142.019241
21
182.151220
0
LINE
8
Image
10
142.019241
20
182.151220
11
143.320081
21
183.872003
0
LINE
8
Image
10
143.320081
20
183.872003
11
146.002749
21
187.511626
0
LINE
8
Image
10
146.002749
20
187.511626
11
149.045271
21
191.714918
0
LINE
8
Image
10
149.045271
20
191.714918
11
151.501252
21
195.130844
0
LINE
8
Image
10
151.501252
20
195.130844
11
153.773247
21
198.293504
0
LINE
8
Image
10
153.773247
20
198.293504
11
154.579390
21
199.076031
0
LINE
8
Image
10
154.579390
20
199.076031
11
155.173754
21
199.335324
0
LINE
8
Image
10
155.173754
20
199.335324
11
156.249629
21
198.798116
0
LINE
8
Image
10
156.249629
20
198.798116
11
157.914008
21
197.572965
0
LINE
8
Image
10
157.914008
20
197.572965
11
159.443282
21
196.239576
0
LINE
8
Image
10
159.443282
20
196.239576
11
160.113842
21
195.377657
0
LINE
8
Image
10
160.113842
20
195.377657
11
159.362537
21
194.082849
0
LINE
8
Image
10
159.362537
20
194.082849
11
157.556208
21
191.487729
0
LINE
8
Image
10
157.556208
20
191.487729
11
150.670882
21
181.928072
0
LINE
8
Image
10
150.670882
20
181.928072
11
149.518190
21
180.316691
0
LINE
8
Image
10
149.518190
20
180.316691
11
151.552828
21
181.486579
0
LINE
8
Image
10
151.552828
20
181.486579
11
164.160268
21
188.969594
0
LINE
8
Image
10
164.160268
20
188.969594
11
165.121053
21
189.431860
0
LINE
8
Image
10
165.121053
20
189.431860
11
165.576337
21
189.439959
0
LINE
8
Image
10
165.576337
20
189.439959
11
166.050011
21
189.281815
0
LINE
8
Image
10
166.050011
20
189.281815
11
167.157918
21
188.414145
0
LINE
8
Image
10
167.157918
20
188.414145
11
168.655552
21
186.723536
0
LINE
8
Image
10
168.655552
20
186.723536
11
171.162100
21
183.573406
0
LINE
8
Image
10
171.162100
20
183.573406
11
171.214270
21
183.389719
0
LINE
8
Image
10
171.214270
20
183.389719
11
171.124820
21
183.095216
0
LINE
8
Image
10
171.124820
20
183.095216
11
170.214562
21
181.778763
0
LINE
8
Image
10
170.214562
20
181.778763
11
163.323077
21
173.471087
0
LINE
8
Image
10
163.323077
20
173.471087
11
160.113842
21
169.493283
0
LINE
8
Image
10
160.113842
20
169.493283
11
161.083980
21
169.826438
0
LINE
8
Image
10
161.083980
20
169.826438
11
163.641617
21
171.041228
0
LINE
8
Image
10
163.641617
20
171.041228
11
170.340012
21
174.259145
0
LINE
8
Image
10
170.340012
20
174.259145
11
175.859742
21
176.757576
0
LINE
8
Image
10
175.859742
20
176.757576
11
176.184885
21
176.533210
0
LINE
8
Image
10
176.184885
20
176.533210
11
176.683459
21
175.937735
0
LINE
8
Image
10
176.683459
20
175.937735
11
177.915900
21
174.099179
0
LINE
8
Image
10
177.915900
20
174.099179
11
178.987067
21
172.173354
0
LINE
8
Image
10
178.987067
20
172.173354
11
179.284049
21
171.468793
0
LINE
8
Image
10
179.284049
20
171.468793
11
179.326962
21
171.091708
0
LINE
8
Image
10
179.326962
20
171.091708
11
177.798194
21
170.169341
0
LINE
8
Image
10
177.798194
20
170.169341
11
174.453343
21
168.486814
0
LINE
8
Image
10
174.453343
20
168.486814
11
165.229115
21
164.063688
0
LINE
8
Image
10
165.229115
20
164.063688
11
157.144372
21
160.248203
0
LINE
8
Image
10
157.144372
20
160.248203
11
155.603280
21
159.619249
0
LINE
8
Image
10
155.603280
20
159.619249
11
154.893990
21
159.471487
0
LINE
8
Image
10
154.893990
20
159.471487
11
154.465319
21
159.669897
0
LINE
8
Image
10
154.465319
20
159.669897
11
153.839710
21
160.257687
0
LINE
8
Image
10
153.839710
20
160.257687
11
152.038972
21
162.556784
0
LINE
8
Image
10
152.038972
20
162.556784
11
152.038972
21
162.556784
0
LINE
8
Image
10
170.873551
20
167.563210
11
177.292385
21
170.585137
0
LINE
8
Image
10
177.292385
20
170.585137
11
178.466920
21
171.246243
0
LINE
8
Image
10
178.466920
20
171.246243
11
178.550425
21
171.554452
0
LINE
8
Image
10
178.550425
20
171.554452
11
178.392455
21
171.966239
0
LINE
8
Image
10
178.392455
20
171.966239
11
175.821261
21
176.052020
0
LINE
8
Image
10
175.821261
20
176.052020
11
166.973048
21
171.835297
0
LINE
8
Image
10
166.973048
20
171.835297
11
160.721682
21
168.962554
0
LINE
8
Image
10
160.721682
20
168.962554
11
158.791408
21
168.170618
0
LINE
8
Image
10
158.791408
20
168.170618
11
158.048523
21
167.977103
0
LINE
8
Image
10
158.048523
20
167.977103
11
158.110571
21
168.353284
0
LINE
8
Image
10
158.110571
20
168.353284
11
158.435346
21
168.754249
0
LINE
8
Image
10
158.435346
20
168.754249
11
163.852050
21
175.150342
0
LINE
8
Image
10
163.852050
20
175.150342
11
169.687397
21
182.193923
0
LINE
8
Image
10
169.687397
20
182.193923
11
170.617906
21
183.260026
0
LINE
8
Image
10
170.617906
20
183.260026
11
168.481194
21
185.917823
0
LINE
8
Image
10
168.481194
20
185.917823
11
166.118863
21
188.843275
0
LINE
8
Image
10
166.118863
20
188.843275
11
164.722061
21
188.295027
0
LINE
8
Image
10
164.722061
20
188.295027
11
161.680626
21
186.601039
0
LINE
8
Image
10
161.680626
20
186.601039
11
151.856418
21
180.865646
0
LINE
8
Image
10
151.856418
20
180.865646
11
149.155817
21
179.398534
0
LINE
8
Image
10
149.155817
20
179.398534
11
148.075971
21
178.947516
0
LINE
8
Image
10
148.075971
20
178.947516
11
148.024268
21
179.049496
0
LINE
8
Image
10
148.024268
20
179.049496
11
148.141001
21
179.345335
0
LINE
8
Image
10
148.141001
20
179.345335
11
149.150493
21
180.911439
0
LINE
8
Image
10
149.150493
20
180.911439
11
156.168547
21
190.691305
0
LINE
8
Image
10
156.168547
20
190.691305
11
159.490122
21
195.276433
0
LINE
8
Image
10
159.490122
20
195.276433
11
157.618134
21
196.953101
0
LINE
8
Image
10
157.618134
20
196.953101
11
156.164751
21
198.137250
0
LINE
8
Image
10
156.164751
20
198.137250
11
155.299204
21
198.629771
0
LINE
8
Image
10
155.299204
20
198.629771
11
154.860283
21
198.418882
0
LINE
8
Image
10
154.860283
20
198.418882
11
154.192152
21
197.737897
0
LINE
8
Image
10
154.192152
20
197.737897
11
151.920532
21
194.675718
0
LINE
8
Image
10
151.920532
20
194.675718
11
144.793703
21
184.695066
0
LINE
8
Image
10
144.793703
20
184.695066
11
141.517435
21
180.036875
0
LINE
8
Image
10
141.517435
20
180.036875
11
140.422866
21
178.291690
0
LINE
8
Image
10
140.422866
20
178.291690
11
140.005534
21
177.414530
0
LINE
8
Image
10
140.005534
20
177.414530
11
140.785235
21
176.334269
0
LINE
8
Image
10
140.785235
20
176.334269
11
142.536001
21
174.433578
0
LINE
8
Image
10
142.536001
20
174.433578
11
144.375330
21
172.624404
0
LINE
8
Image
10
144.375330
20
172.624404
11
145.420717
21
171.818692
0
LINE
8
Image
10
145.420717
20
171.818692
11
148.896910
21
173.647739
0
LINE
8
Image
10
148.896910
20
173.647739
11
157.537557
21
178.753950
0
LINE
8
Image
10
157.537557
20
178.753950
11
160.845871
21
180.683007
0
LINE
8
Image
10
160.845871
20
180.683007
11
162.376344
21
181.342364
0
LINE
8
Image
10
162.376344
20
181.342364
11
162.537689
21
181.198304
0
LINE
8
Image
10
162.537689
20
181.198304
11
162.329932
21
180.739696
0
LINE
8
Image
10
162.329932
20
180.739696
11
160.907591
21
178.882680
0
LINE
8
Image
10
160.907591
20
178.882680
11
157.997178
21
175.320181
0
LINE
8
Image
10
157.997178
20
175.320181
11
154.167537
21
170.777291
0
LINE
8
Image
10
154.167537
20
170.777291
11
152.067659
21
168.303483
0
LINE
8
Image
10
152.067659
20
168.303483
11
151.015524
21
166.886601
0
LINE
8
Image
10
151.015524
20
166.886601
11
150.741132
21
166.072569
0
LINE
8
Image
10
150.741132
20
166.072569
11
150.974486
21
165.407314
0
LINE
8
Image
10
150.974486
20
165.407314
11
153.123215
21
162.237962
0
LINE
8
Image
10
153.123215
20
162.237962
11
154.836170
21
159.882863
0
LINE
8
Image
10
154.836170
20
159.882863
11
160.385418
21
162.535427
0
LINE
8
Image
10
160.385418
20
162.535427
11
170.873551
21
167.563210
0
LINE
8
Image
10
170.873551
20
167.563210
11
170.873551
21
167.563210
0
LINE
8
Image
10
83.793026
20
188.311034
11
83.357769
21
197.964758
0
LINE
8
Image
10
83.357769
20
197.964758
11
83.045211
21
212.018877
0
LINE
8
Image
10
83.045211
20
212.018877
11
83.031982
21
216.059385
0
LINE
8
Image
10
83.031982
20
216.059385
11
84.266704
21
216.320653
0
LINE
8
Image
10
84.266704
20
216.320653
11
86.838347
21
216.763099
0
LINE
8
Image
10
86.838347
20
216.763099
11
89.426044
21
217.048395
0
LINE
8
Image
10
89.426044
20
217.048395
11
91.542300
21
217.137719
0
LINE
8
Image
10
91.542300
20
217.137719
11
92.699623
21
216.992247
0
LINE
8
Image
10
92.699623
20
216.992247
11
93.088203
21
216.595305
0
LINE
8
Image
10
93.088203
20
216.595305
11
93.537982
21
215.779463
0
LINE
8
Image
10
93.537982
20
215.779463
11
94.651864
21
212.825485
0
LINE
8
Image
10
94.651864
20
212.825485
11
97.611910
21
204.138090
0
LINE
8
Image
10
97.611910
20
204.138090
11
99.325977
21
199.239479
0
LINE
8
Image
10
99.325977
20
199.239479
11
99.695697
21
200.610318
0
LINE
8
Image
10
99.695697
20
200.610318
11
103.292814
21
212.917253
0
LINE
8
Image
10
103.292814
20
212.917253
11
104.053890
21
215.168780
0
LINE
8
Image
10
104.053890
20
215.168780
11
104.588918
21
216.635924
0
LINE
8
Image
10
104.588918
20
216.635924
11
104.924071
21
217.083772
0
LINE
8
Image
10
104.924071
20
217.083772
11
105.388400
21
217.374984
0
LINE
8
Image
10
105.388400
20
217.374984
11
106.956842
21
217.589027
0
LINE
8
Image
10
106.956842
20
217.589027
11
109.798749
21
217.481119
0
LINE
8
Image
10
109.798749
20
217.481119
11
112.950309
21
217.197164
0
LINE
8
Image
10
112.950309
20
217.197164
11
114.502037
21
216.845075
0
LINE
8
Image
10
114.502037
20
216.845075
11
114.822735
21
215.595629
0
LINE
8
Image
10
114.822735
20
215.595629
11
115.062606
21
212.281387
0
LINE
8
Image
10
115.062606
20
212.281387
11
115.370274
21
197.924216
0
LINE
8
Image
10
115.370274
20
197.924216
11
115.471496
21
188.928394
0
LINE
8
Image
10
115.471496
20
188.928394
11
112.833667
21
189.002823
0
LINE
8
Image
10
112.833667
20
189.002823
11
109.549799
21
189.268525
0
LINE
8
Image
10
109.549799
20
189.268525
11
108.819898
21
189.554593
0
LINE
8
Image
10
108.819898
20
189.554593
11
108.478469
21
189.992708
0
LINE
8
Image
10
108.478469
20
189.992708
11
108.214280
21
195.551996
0
LINE
8
Image
10
108.214280
20
195.551996
11
107.942091
21
203.498493
0
LINE
8
Image
10
107.942091
20
203.498493
11
107.726395
21
206.426937
0
LINE
8
Image
10
107.726395
20
206.426937
11
106.435449
21
201.910995
0
LINE
8
Image
10
106.435449
20
201.910995
11
104.184464
21
194.043664
0
LINE
8
Image
10
104.184464
20
194.043664
11
103.373583
21
191.442348
0
LINE
8
Image
10
103.373583
20
191.442348
11
103.003454
21
190.629371
0
LINE
8
Image
10
103.003454
20
190.629371
11
102.588989
21
190.075571
0
LINE
8
Image
10
102.588989
20
190.075571
11
102.079283
21
189.731489
0
LINE
8
Image
10
102.079283
20
189.731489
11
101.423428
21
189.547665
0
LINE
8
Image
10
101.423428
20
189.547665
11
99.469645
21
189.462962
0
LINE
8
Image
10
99.469645
20
189.462962
11
97.458129
21
189.542909
0
LINE
8
Image
10
97.458129
20
189.542909
11
96.384417
21
189.727545
0
LINE
8
Image
10
96.384417
20
189.727545
11
95.691204
21
191.102317
0
LINE
8
Image
10
95.691204
20
191.102317
11
94.594503
21
194.043664
0
LINE
8
Image
10
94.594503
20
194.043664
11
91.232611
21
203.726406
0
LINE
8
Image
10
91.232611
20
203.726406
11
90.518996
21
205.546038
0
LINE
8
Image
10
90.518996
20
205.546038
11
90.198512
21
206.038095
0
LINE
8
Image
10
90.198512
20
206.038095
11
90.051754
21
205.908560
0
LINE
8
Image
10
90.051754
20
205.908560
11
90.071358
21
205.597123
0
LINE
8
Image
10
90.071358
20
205.597123
11
90.266730
21
202.713237
0
LINE
8
Image
10
90.266730
20
202.713237
11
90.401553
21
197.216516
0
LINE
8
Image
10
90.401553
20
197.216516
11
90.434285
21
191.810094
0
LINE
8
Image
10
90.434285
20
191.810094
11
90.323387
21
189.197107
0
LINE
8
Image
10
90.323387
20
189.197107
11
89.920324
21
188.909224
0
LINE
8
Image
10
89.920324
20
188.909224
11
89.155460
21
188.638878
0
LINE
8
Image
10
89.155460
20
188.638878
11
87.027795
21
188.216933
0
LINE
8
Image
10
87.027795
20
188.216933
11
84.915333
21
188.063556
0
LINE
8
Image
10
84.915333
20
188.063556
11
84.169471
21
188.128921
0
LINE
8
Image
10
84.169471
20
188.128921
11
83.793013
21
188.311034
0
LINE
8
Image
10
83.793013
20
188.311034
11
83.793026
21
188.311034
0
LINE
8
Image
10
88.075961
20
189.122447
11
89.803270
21
189.492887
0
LINE
8
Image
10
89.803270
20
189.492887
11
89.643334
21
199.617573
0
LINE
8
Image
10
89.643334
20
199.617573
11
89.612229
21
207.078392
0
LINE
8
Image
10
89.612229
20
207.078392
11
89.690367
21
208.893216
0
LINE
8
Image
10
89.690367
20
208.893216
11
89.830172
21
209.389481
0
LINE
8
Image
10
89.830172
20
209.389481
11
90.130922
21
208.920378
0
LINE
8
Image
10
90.130922
20
208.920378
11
90.720408
21
207.421738
0
LINE
8
Image
10
90.720408
20
207.421738
11
94.188923
21
197.430787
0
LINE
8
Image
10
94.188923
20
197.430787
11
96.754183
21
190.258040
0
LINE
8
Image
10
96.754183
20
190.258040
11
99.620913
21
190.398689
0
LINE
8
Image
10
99.620913
20
190.398689
11
102.334706
21
190.692281
0
LINE
8
Image
10
102.334706
20
190.692281
11
103.741491
21
195.278386
0
LINE
8
Image
10
103.741491
20
195.278386
11
105.804286
21
202.157544
0
LINE
8
Image
10
105.804286
20
202.157544
11
106.964644
21
206.214485
0
LINE
8
Image
10
106.964644
20
206.214485
11
107.921575
21
209.036702
0
LINE
8
Image
10
107.921575
20
209.036702
11
108.185497
21
209.602223
0
LINE
8
Image
10
108.185497
20
209.602223
11
108.351461
21
209.658953
0
LINE
8
Image
10
108.351461
20
209.658953
11
108.652319
21
207.801983
0
LINE
8
Image
10
108.652319
20
207.801983
11
108.879180
21
203.954504
0
LINE
8
Image
10
108.879180
20
203.954504
11
109.034001
21
197.924216
0
LINE
8
Image
10
109.034001
20
197.924216
11
109.137519
21
190.339502
0
LINE
8
Image
10
109.137519
20
190.339502
11
111.706953
21
189.851534
0
LINE
8
Image
10
111.706953
20
189.851534
11
113.578326
21
189.563616
0
LINE
8
Image
10
113.578326
20
189.563616
11
114.469440
21
189.556617
0
LINE
8
Image
10
114.469440
20
189.556617
11
114.588926
21
195.170966
0
LINE
8
Image
10
114.588926
20
195.170966
11
114.404919
21
203.921431
0
LINE
8
Image
10
114.404919
20
203.921431
11
114.273125
21
211.396591
0
LINE
8
Image
10
114.273125
20
211.396591
11
114.252779
21
216.578701
0
LINE
8
Image
10
114.252779
20
216.578701
11
110.107644
21
216.688251
0
LINE
8
Image
10
110.107644
20
216.688251
11
107.054145
21
216.678149
0
LINE
8
Image
10
107.054145
20
216.678149
11
105.533576
21
216.500014
0
LINE
8
Image
10
105.533576
20
216.500014
11
105.161186
21
215.917394
0
LINE
8
Image
10
105.161186
20
215.917394
11
104.531881
21
214.201614
0
LINE
8
Image
10
104.531881
20
214.201614
11
101.708761
21
204.979763
0
LINE
8
Image
10
101.708761
20
204.979763
11
99.828352
21
198.839840
0
LINE
8
Image
10
99.828352
20
198.839840
11
99.463411
21
197.931333
0
LINE
8
Image
10
99.463411
20
197.931333
11
99.237302
21
197.747826
0
LINE
8
Image
10
99.237302
20
197.747826
11
98.193003
21
200.300370
0
LINE
8
Image
10
98.193003
20
200.300370
11
96.061446
21
206.437338
0
LINE
8
Image
10
96.061446
20
206.437338
11
92.786480
21
215.816607
0
LINE
8
Image
10
92.786480
20
215.816607
11
92.526737
21
216.164135
0
LINE
8
Image
10
92.526737
20
216.164135
11
92.139930
21
216.355331
0
LINE
8
Image
10
92.139930
20
216.355331
11
90.546877
21
216.378718
0
LINE
8
Image
10
90.546877
20
216.378718
11
85.236842
21
215.721754
0
LINE
8
Image
10
85.236842
20
215.721754
11
84.251212
21
215.607181
0
LINE
8
Image
10
84.251212
20
215.607181
11
83.842385
21
215.436016
0
LINE
8
Image
10
83.842385
20
215.436016
11
83.654723
21
214.481515
0
LINE
8
Image
10
83.654723
20
214.481515
11
83.768946
21
207.184621
0
LINE
8
Image
10
83.768946
20
207.184621
11
84.098543
21
197.747826
0
LINE
8
Image
10
84.098543
20
197.747826
11
84.228032
21
192.720749
0
LINE
8
Image
10
84.228032
20
192.720749
11
84.266706
21
188.752004
0
LINE
8
Image
10
84.266706
20
188.752004
11
85.307674
21
188.752004
0
LINE
8
Image
10
85.307674
20
188.752004
11
88.075950
21
189.122447
0
LINE
8
Image
10
88.075950
20
189.122447
11
88.075961
21
189.122447
0
LINE
8
Image
10
19.355686
20
82.213248
11
19.459314
21
82.462397
0
LINE
8
Image
10
19.459314
20
82.462397
11
19.708465
21
82.566025
0
LINE
8
Image
10
19.708465
20
82.566025
11
19.957613
21
82.462397
0
LINE
8
Image
10
19.957613
20
82.462397
11
20.061241
21
82.213248
0
LINE
8
Image
10
20.061241
20
82.213248
11
19.957613
21
81.964100
0
LINE
8
Image
10
19.957613
20
81.964100
11
19.708465
21
81.860472
0
LINE
8
Image
10
19.708465
20
81.860472
11
19.459314
21
81.964100
0
LINE
8
Image
10
19.459314
20
81.964100
11
19.355686
21
82.213248
0
LINE
8
Image
10
19.355686
20
82.213248
11
19.355686
21
82.213248
0
LINE
8
Image
10
192.922134
20
117.138204
11
193.031878
21
117.387355
0
LINE
8
Image
10
193.031878
20
117.387355
11
193.295733
21
117.490984
0
LINE
8
Image
10
193.295733
20
117.490984
11
193.495539
21
117.387355
0
LINE
8
Image
10
193.495539
20
117.387355
11
193.451300
21
117.138204
0
LINE
8
Image
10
193.451300
20
117.138204
11
193.077703
21
116.785428
0
LINE
8
Image
10
193.077703
20
116.785428
11
192.922134
21
117.138204
0
LINE
8
Image
10
192.922134
20
117.138204
11
192.922134
21
117.138204
0
LINE
8
Image
10
186.357724
20
86.181993
11
187.989835
21
89.532827
0
LINE
8
Image
10
187.989835
20
89.532827
11
189.686109
21
93.502124
0
LINE
8
Image
10
189.686109
20
93.502124
11
192.615595
21
101.438451
0
LINE
8
Image
10
192.615595
20
101.438451
11
193.675837
21
104.886620
0
LINE
8
Image
10
193.675837
20
104.886620
11
194.518640
21
108.221357
0
LINE
8
Image
10
194.518640
20
108.221357
11
195.183178
21
111.617585
0
LINE
8
Image
10
195.183178
20
111.617585
11
195.708624
21
115.250227
0
LINE
8
Image
10
195.708624
20
115.250227
11
196.498926
21
123.924449
0
LINE
8
Image
10
196.498926
20
123.924449
11
196.692639
21
129.701479
0
LINE
8
Image
10
196.692639
20
129.701479
11
196.480068
21
135.556012
0
LINE
8
Image
10
196.480068
20
135.556012
11
195.868753
21
141.450914
0
LINE
8
Image
10
195.868753
20
141.450914
11
194.866236
21
147.349047
0
LINE
8
Image
10
194.866236
20
147.349047
11
193.480058
21
153.213278
0
LINE
8
Image
10
193.480058
20
153.213278
11
191.717762
21
159.006469
0
LINE
8
Image
10
191.717762
20
159.006469
11
189.586889
21
164.691487
0
LINE
8
Image
10
189.586889
20
164.691487
11
187.094979
21
170.231194
0
LINE
8
Image
10
187.094979
20
170.231194
11
184.454437
21
175.310665
0
LINE
8
Image
10
184.454437
20
175.310665
11
181.640275
21
180.108463
0
LINE
8
Image
10
181.640275
20
180.108463
11
178.641016
21
184.639052
0
LINE
8
Image
10
178.641016
20
184.639052
11
175.445185
21
188.916895
0
LINE
8
Image
10
175.445185
20
188.916895
11
172.041306
21
192.956453
0
LINE
8
Image
10
172.041306
20
192.956453
11
168.417903
21
196.772191
0
LINE
8
Image
10
168.417903
20
196.772191
11
164.563500
21
200.378569
0
LINE
8
Image
10
164.563500
20
200.378569
11
160.466621
21
203.790052
0
LINE
8
Image
10
160.466621
20
203.790052
11
157.235795
21
206.234289
0
LINE
8
Image
10
157.235795
20
206.234289
11
153.997555
21
208.487115
0
LINE
8
Image
10
153.997555
20
208.487115
11
150.713188
21
210.569623
0
LINE
8
Image
10
150.713188
20
210.569623
11
147.343978
21
212.502905
0
LINE
8
Image
10
147.343978
20
212.502905
11
143.851212
21
214.308051
0
LINE
8
Image
10
143.851212
20
214.308051
11
140.196175
21
216.006153
0
LINE
8
Image
10
140.196175
20
216.006153
11
136.340154
21
217.618303
0
LINE
8
Image
10
136.340154
20
217.618303
11
132.244433
21
219.165592
0
LINE
8
Image
10
132.244433
20
219.165592
11
127.713508
21
220.541812
0
LINE
8
Image
10
127.713508
20
220.541812
11
122.121082
21
221.877313
0
LINE
8
Image
10
122.121082
20
221.877313
11
116.358975
21
222.980550
0
LINE
8
Image
10
116.358975
20
222.980550
11
111.319006
21
223.659976
0
LINE
8
Image
10
111.319006
20
223.659976
11
104.795676
21
224.032786
0
LINE
8
Image
10
104.795676
20
224.032786
11
98.035070
21
223.999489
0
LINE
8
Image
10
98.035070
20
223.999489
11
91.373845
21
223.571652
0
LINE
8
Image
10
91.373845
20
223.571652
11
85.148659
21
222.760841
0
LINE
8
Image
10
85.148659
20
222.760841
11
79.653976
21
221.636865
0
LINE
8
Image
10
79.653976
20
221.636865
11
73.922813
21
220.178424
0
LINE
8
Image
10
73.922813
20
220.178424
11
69.229923
21
218.739800
0
LINE
8
Image
10
69.229923
20
218.739800
11
67.671190
21
218.138632
0
LINE
8
Image
10
67.671190
20
218.138632
11
66.850057
21
217.675273
0
LINE
8
Image
10
66.850057
20
217.675273
11
67.015073
21
217.657268
0
LINE
8
Image
10
67.015073
20
217.657268
11
67.691288
21
217.824057
0
LINE
8
Image
10
67.691288
20
217.824057
11
70.144872
21
218.591736
0
LINE
8
Image
10
70.144872
20
218.591736
11
75.040553
21
220.090555
0
LINE
8
Image
10
75.040553
20
220.090555
11
80.022273
21
221.332527
0
LINE
8
Image
10
80.022273
20
221.332527
11
85.078574
21
222.316330
0
LINE
8
Image
10
85.078574
20
222.316330
11
90.197999
21
223.040639
0
LINE
8
Image
10
90.197999
20
223.040639
11
95.369090
21
223.504134
0
LINE
8
Image
10
95.369090
20
223.504134
11
100.580391
21
223.705491
0
LINE
8
Image
10
100.580391
20
223.705491
11
105.820445
21
223.643388
0
LINE
8
Image
10
105.820445
20
223.643388
11
111.077793
21
223.316503
0
LINE
8
Image
10
111.077793
20
223.316503
11
116.168812
21
222.683957
0
LINE
8
Image
10
116.168812
20
222.683957
11
121.421790
21
221.674994
0
LINE
8
Image
10
121.421790
20
221.674994
11
126.759212
21
220.316331
0
LINE
8
Image
10
126.759212
20
220.316331
11
132.103564
21
218.634683
0
LINE
8
Image
10
132.103564
20
218.634683
11
137.377330
21
216.656767
0
LINE
8
Image
10
137.377330
20
216.656767
11
142.502995
21
214.409297
0
LINE
8
Image
10
142.502995
20
214.409297
11
147.403045
21
211.918989
0
LINE
8
Image
10
147.403045
20
211.918989
11
151.999965
21
209.212559
0
LINE
8
Image
10
151.999965
20
209.212559
11
157.759992
21
205.206480
0
LINE
8
Image
10
157.759992
20
205.206480
11
162.230506
21
201.809434
0
LINE
8
Image
10
162.230506
20
201.809434
11
165.355689
21
198.998769
0
LINE
8
Image
10
165.355689
20
198.998769
11
167.667045
21
196.819906
0
LINE
8
Image
10
167.667045
20
196.819906
11
170.043779
21
194.358633
0
LINE
8
Image
10
170.043779
20
194.358633
11
174.802920
21
188.826333
0
LINE
8
Image
10
174.802920
20
188.826333
11
179.252199
21
182.876821
0
LINE
8
Image
10
179.252199
20
182.876821
11
183.010704
21
176.985051
0
LINE
8
Image
10
183.010704
20
176.985051
11
186.042803
21
171.408891
0
LINE
8
Image
10
186.042803
20
171.408891
11
188.613557
21
165.973022
0
LINE
8
Image
10
188.613557
20
165.973022
11
190.751637
21
160.574584
0
LINE
8
Image
10
190.751637
20
160.574584
11
192.485712
21
155.110717
0
LINE
8
Image
10
192.485712
20
155.110717
11
193.844455
21
149.478560
0
LINE
8
Image
10
193.844455
20
149.478560
11
194.856534
21
143.575252
0
LINE
8
Image
10
194.856534
20
143.575252
11
195.550620
21
137.297934
0
LINE
8
Image
10
195.550620
20
137.297934
11
195.955385
21
130.543744
0
LINE
8
Image
10
195.955385
20
130.543744
11
195.903700
21
124.124634
0
LINE
8
Image
10
195.903700
20
124.124634
11
195.270316
21
117.231143
0
LINE
8
Image
10
195.270316
20
117.231143
11
194.050761
21
109.828779
0
LINE
8
Image
10
194.050761
20
109.828779
11
192.240565
21
101.883050
0
LINE
8
Image
10
192.240565
20
101.883050
11
191.285036
21
98.783803
0
LINE
8
Image
10
191.285036
20
98.783803
11
189.869428
21
94.993777
0
LINE
8
Image
10
189.869428
20
94.993777
11
188.165109
21
90.943610
0
LINE
8
Image
10
188.165109
20
90.943610
11
186.343447
21
87.063936
0
LINE
8
Image
10
186.343447
20
87.063936
11
184.610444
21
83.271580
0
LINE
8
Image
10
184.610444
20
83.271580
11
186.357724
21
86.181993
0
LINE
8
Image
10
186.357724
20
86.181993
11
186.357724
21
86.181993
0
LINE
8
Image
10
6.062644
20
135.570821
11
6.466231
21
139.903770
0
LINE
8
Image
10
6.466231
20
139.903770
11
7.181945
21
144.837786
0
LINE
8
Image
10
7.181945
20
144.837786
11
8.103739
21
149.736105
0
LINE
8
Image
10
8.103739
20
149.736105
11
9.125563
21
153.961962
0
LINE
8
Image
10
9.125563
20
153.961962
11
10.063377
21
157.945290
0
LINE
8
Image
10
10.063377
20
157.945290
11
9.616160
21
156.840838
0
LINE
8
Image
10
9.616160
20
156.840838
11
8.775039
21
153.912949
0
LINE
8
Image
10
8.775039
20
153.912949
11
7.042440
21
146.771500
0
LINE
8
Image
10
7.042440
20
146.771500
11
6.445228
21
143.161047
0
LINE
8
Image
10
6.445228
20
143.161047
11
5.965952
21
139.186790
0
LINE
8
Image
10
5.965952
20
139.186790
11
5.397866
21
133.277767
0
LINE
8
Image
10
5.397866
20
133.277767
11
5.366472
21
132.094311
0
LINE
8
Image
10
5.366472
20
132.094311
11
5.533642
21
131.602076
0
LINE
8
Image
10
5.533642
20
131.602076
11
5.816324
21
132.767895
0
LINE
8
Image
10
5.816324
20
132.767895
11
6.062644
21
135.570821
0
LINE
8
Image
10
6.062644
20
135.570821
11
6.062644
21
135.570821
0
LINE
8
Image
10
11.720603
20
162.002747
11
13.012572
21
165.225353
0
LINE
8
Image
10
13.012572
20
165.225353
11
14.389862
21
168.197075
0
LINE
8
Image
10
14.389862
20
168.197075
11
15.827913
21
171.179168
0
LINE
8
Image
10
15.827913
20
171.179168
11
17.242548
21
173.941772
0
LINE
8
Image
10
17.242548
20
173.941772
11
18.200660
21
175.800328
0
LINE
8
Image
10
18.200660
20
175.800328
11
18.517696
21
176.654827
0
LINE
8
Image
10
18.517696
20
176.654827
11
17.997877
21
176.109974
0
LINE
8
Image
10
17.997877
20
176.109974
11
16.977863
21
174.307870
0
LINE
8
Image
10
16.977863
20
174.307870
11
14.139376
21
168.461174
0
LINE
8
Image
10
14.139376
20
168.461174
11
11.406495
21
162.173256
0
LINE
8
Image
10
11.406495
20
162.173256
11
10.518487
21
159.819627
0
LINE
8
Image
10
10.518487
20
159.819627
11
10.183477
21
158.502637
0
LINE
8
Image
10
10.183477
20
158.502637
11
10.264852
21
158.379541
0
LINE
8
Image
10
10.264852
20
158.379541
11
10.528571
21
158.877245
0
LINE
8
Image
10
10.528571
20
158.877245
11
11.720603
21
162.002747
0
LINE
8
Image
10
11.720603
20
162.002747
11
11.720603
21
162.002747
0
LINE
8
Image
10
21.592073
20
181.284522
11
26.006812
21
187.386844
0
LINE
8
Image
10
26.006812
20
187.386844
11
28.300215
21
190.225645
0
LINE
8
Image
10
28.300215
20
190.225645
11
30.425000
21
192.632556
0
LINE
8
Image
10
30.425000
20
192.632556
11
33.543491
21
196.101098
0
LINE
8
Image
10
33.543491
20
196.101098
11
33.628179
21
196.262577
0
LINE
8
Image
10
33.628179
20
196.262577
11
33.423084
21
196.125815
0
LINE
8
Image
10
33.423084
20
196.125815
11
32.119916
21
194.925609
0
LINE
8
Image
10
32.119916
20
194.925609
11
29.165349
21
191.815281
0
LINE
8
Image
10
29.165349
20
191.815281
11
26.028983
21
188.027371
0
LINE
8
Image
10
26.028983
20
188.027371
11
22.920561
21
183.830077
0
LINE
8
Image
10
22.920561
20
183.830077
11
20.049827
21
179.491599
0
LINE
8
Image
10
20.049827
20
179.491599
11
19.187431
21
178.031195
0
LINE
8
Image
10
19.187431
20
178.031195
11
19.107572
21
177.823897
0
LINE
8
Image
10
19.107572
20
177.823897
11
19.240953
21
177.940805
0
LINE
8
Image
10
19.240953
20
177.940805
11
21.592073
21
181.284522
0
LINE
8
Image
10
21.592073
20
181.284522
11
21.592073
21
181.284522
0
LINE
8
Image
10
43.785518
20
204.786477
11
46.519541
21
206.992827
0
LINE
8
Image
10
46.519541
20
206.992827
11
46.199030
21
206.888350
0
LINE
8
Image
10
46.199030
20
206.888350
11
45.334756
21
206.320280
0
LINE
8
Image
10
45.334756
20
206.320280
11
42.558487
21
204.246593
0
LINE
8
Image
10
42.558487
20
204.246593
11
39.357871
21
201.678239
0
LINE
8
Image
10
39.357871
20
201.678239
11
36.900039
21
199.521691
0
LINE
8
Image
10
36.900039
20
199.521691
11
35.745679
21
198.336827
0
LINE
8
Image
10
35.745679
20
198.336827
11
35.584197
21
198.110105
0
LINE
8
Image
10
35.584197
20
198.110105
11
35.679304
21
198.115958
0
LINE
8
Image
10
35.679304
20
198.115958
11
38.317468
21
200.296641
0
LINE
8
Image
10
38.317468
20
200.296641
11
43.785518
21
204.786477
0
LINE
8
Image
10
43.785518
20
204.786477
11
43.785518
21
204.786477
0
LINE
8
Image
10
50.929259
20
209.581581
11
57.279251
21
213.150978
0
LINE
8
Image
10
57.279251
20
213.150978
11
60.786857
21
215.141722
0
LINE
8
Image
10
60.786857
20
215.141722
11
60.783723
21
215.200596
0
LINE
8
Image
10
60.783723
20
215.200596
11
60.397759
21
215.057807
0
LINE
8
Image
10
60.397759
20
215.057807
11
58.415717
21
214.114965
0
LINE
8
Image
10
58.415717
20
214.114965
11
52.220383
21
210.686063
0
LINE
8
Image
10
52.220383
20
210.686063
11
47.577873
21
207.759512
0
LINE
8
Image
10
47.577873
20
207.759512
11
46.695931
21
207.012700
0
LINE
8
Image
10
46.695931
20
207.012700
11
47.577873
21
207.533807
0
LINE
8
Image
10
47.577873
20
207.533807
11
50.929259
21
209.581581
0
LINE
8
Image
10
50.929259
20
209.581581
11
50.929259
21
209.581581
0
LINE
8
Image
10
63.276464
20
215.941236
11
64.013990
21
216.356000
0
LINE
8
Image
10
64.013990
20
216.356000
11
64.036727
21
216.431978
0
LINE
8
Image
10
64.036727
20
216.431978
11
63.805630
21
216.400269
0
LINE
8
Image
10
63.805630
20
216.400269
11
62.082168
21
215.725269
0
LINE
8
Image
10
62.082168
20
215.725269
11
61.502751
21
215.387490
0
LINE
8
Image
10
61.502751
20
215.387490
11
61.415211
21
215.284506
0
LINE
8
Image
10
61.415211
20
215.284506
11
61.512579
21
215.250592
0
LINE
8
Image
10
61.512579
20
215.250592
11
63.276464
21
215.941236
0
LINE
8
Image
10
63.276464
20
215.941236
11
63.276464
21
215.941236
 0 
ENDSEC
 0 
EOF