999
"DXF R12 Output" (www.mydxf.blogspot.com)
 0 
SECTION
 2 
HEADER
 9 
$ACADVER
 1 
AC1009
 9 
$EXTMIN
 10 
 0 
 20 
 0 
 9 
$EXTMAX
 10 
 8.5 
 20 
 11 
 0 
ENDSEC
 0 
SECTION
 2 
ENTITIES
0
LINE
8
Image
10
33.371232
20
4.811940
11
29.111430
21
7.998656
0
LINE
8
Image
10
29.111430
20
7.998656
11
25.338585
21
11.157333
0
LINE
8
Image
10
25.338585
20
11.157333
11
22.005068
21
14.330406
0
LINE
8
Image
10
22.005068
20
14.330406
11
19.063252
21
17.560311
0
LINE
8
Image
10
19.063252
20
17.560311
11
16.132043
21
21.289503
0
LINE
8
Image
10
16.132043
20
21.289503
11
13.490362
21
25.185217
0
LINE
8
Image
10
13.490362
20
25.185217
11
11.141748
21
29.239492
0
LINE
8
Image
10
11.141748
20
29.239492
11
9.089744
21
33.444367
0
LINE
8
Image
10
9.089744
20
33.444367
11
7.337890
21
37.791881
0
LINE
8
Image
10
7.337890
20
37.791881
11
5.889726
21
42.274073
0
LINE
8
Image
10
5.889726
20
42.274073
11
4.748793
21
46.882983
0
LINE
8
Image
10
4.748793
20
46.882983
11
3.918633
21
51.610648
0
LINE
8
Image
10
3.918633
20
51.610648
11
3.579215
21
55.140714
0
LINE
8
Image
10
3.579215
20
55.140714
11
3.350273
21
59.476081
0
LINE
8
Image
10
3.350273
20
59.476081
11
3.280027
21
63.301468
0
LINE
8
Image
10
3.280027
20
63.301468
11
3.416699
21
65.301592
0
LINE
8
Image
10
3.416699
20
65.301592
11
4.279945
21
66.170210
0
LINE
8
Image
10
4.279945
20
66.170210
11
6.322832
21
67.833523
0
LINE
8
Image
10
6.322832
20
67.833523
11
12.429771
21
72.356262
0
LINE
8
Image
10
12.429771
20
72.356262
11
16.075796
21
74.977486
0
LINE
8
Image
10
16.075796
20
74.977486
11
18.729235
21
76.740401
0
LINE
8
Image
10
18.729235
20
76.740401
11
20.147150
21
75.918532
0
LINE
8
Image
10
20.147150
20
75.918532
11
21.787700
21
74.937007
0
LINE
8
Image
10
21.787700
20
74.937007
11
23.845547
21
73.924632
0
LINE
8
Image
10
23.845547
20
73.924632
11
26.076706
21
72.992048
0
LINE
8
Image
10
26.076706
20
72.992048
11
28.237197
21
72.249893
0
LINE
8
Image
10
28.237197
20
72.249893
11
30.940961
21
71.643520
0
LINE
8
Image
10
30.940961
20
71.643520
11
34.722296
21
71.510918
0
LINE
8
Image
10
34.722296
20
71.510918
11
38.751508
21
71.716780
0
LINE
8
Image
10
38.751508
20
71.716780
11
40.566413
21
72.016743
0
LINE
8
Image
10
40.566413
20
72.016743
11
42.340360
21
72.476425
0
LINE
8
Image
10
42.340360
20
72.476425
11
44.142481
21
73.117096
0
LINE
8
Image
10
44.142481
20
73.117096
11
46.041909
21
73.960029
0
LINE
8
Image
10
46.041909
20
73.960029
11
50.409213
21
76.337768
0
LINE
8
Image
10
50.409213
20
76.337768
11
51.234447
21
76.824598
0
LINE
8
Image
10
51.234447
20
76.824598
11
58.866455
21
71.310698
0
LINE
8
Image
10
58.866455
20
71.310698
11
66.498466
21
65.796799
0
LINE
8
Image
10
66.498466
20
65.796799
11
66.368201
21
59.717019
0
LINE
8
Image
10
66.368201
20
59.717019
11
66.108665
21
54.210839
0
LINE
8
Image
10
66.108665
20
54.210839
11
65.543938
21
49.360976
0
LINE
8
Image
10
65.543938
20
49.360976
11
64.611361
21
44.772460
0
LINE
8
Image
10
64.611361
20
44.772460
11
63.248275
21
40.050324
0
LINE
8
Image
10
63.248275
20
40.050324
11
61.443087
21
35.119682
0
LINE
8
Image
10
61.443087
20
35.119682
11
59.308035
21
30.427994
0
LINE
8
Image
10
59.308035
20
30.427994
11
56.837333
21
25.967256
0
LINE
8
Image
10
56.837333
20
25.967256
11
54.025196
21
21.729465
0
LINE
8
Image
10
54.025196
20
21.729465
11
50.865838
21
17.706616
0
LINE
8
Image
10
50.865838
20
17.706616
11
47.353473
21
13.890707
0
LINE
8
Image
10
47.353473
20
13.890707
11
43.482316
21
10.273735
0
LINE
8
Image
10
43.482316
20
10.273735
11
39.246581
21
6.847694
0
LINE
8
Image
10
39.246581
20
6.847694
11
35.733821
21
4.406117
0
LINE
8
Image
10
35.733821
20
4.406117
11
34.722296
21
3.850810
0
LINE
8
Image
10
34.722296
20
3.850810
11
33.371232
21
4.811940
0
LINE
8
Image
10
33.911659
20
7.566024
11
34.338368
21
7.950213
0
LINE
8
Image
10
34.338368
20
7.950213
11
34.740195
21
8.073998
0
LINE
8
Image
10
34.740195
20
8.073998
11
35.195073
21
7.936094
0
LINE
8
Image
10
35.195073
20
7.936094
11
35.780935
21
7.535219
0
LINE
8
Image
10
35.780935
20
7.535219
11
36.311648
21
7.172785
0
LINE
8
Image
10
36.311648
20
7.172785
11
36.600617
21
7.118110
0
LINE
8
Image
10
36.600617
20
7.118110
11
36.656070
21
7.376049
0
LINE
8
Image
10
36.656070
20
7.376049
11
36.486236
21
7.951458
0
LINE
8
Image
10
36.486236
20
7.951458
11
36.267790
21
8.640265
0
LINE
8
Image
10
36.267790
20
8.640265
11
36.271143
21
9.113520
0
LINE
8
Image
10
36.271143
20
9.113520
11
36.532147
21
9.485910
0
LINE
8
Image
10
36.532147
20
9.485910
11
37.086655
21
9.872121
0
LINE
8
Image
10
37.086655
20
9.872121
11
37.964843
21
10.403253
0
LINE
8
Image
10
37.964843
20
10.403253
11
36.748888
21
10.538360
0
LINE
8
Image
10
36.748888
20
10.538360
11
36.070542
21
10.637408
0
LINE
8
Image
10
36.070542
20
10.637408
11
35.675268
21
10.802912
0
LINE
8
Image
10
35.675268
20
10.802912
11
35.450236
21
11.123240
0
LINE
8
Image
10
35.450236
20
11.123240
11
35.282617
21
11.686764
0
LINE
8
Image
10
35.282617
20
11.686764
11
34.836588
21
12.700059
0
LINE
8
Image
10
34.836588
20
12.700059
11
34.402595
21
11.686764
0
LINE
8
Image
10
34.402595
20
11.686764
11
34.241893
21
11.122934
0
LINE
8
Image
10
34.241893
20
11.122934
11
34.021772
21
10.802665
0
LINE
8
Image
10
34.021772
20
10.802665
11
33.630697
21
10.637344
0
LINE
8
Image
10
33.630697
20
10.637344
11
32.957136
21
10.538360
0
LINE
8
Image
10
32.957136
20
10.538360
11
31.749957
21
10.403253
0
LINE
8
Image
10
31.749957
20
10.403253
11
32.640925
21
9.864576
0
LINE
8
Image
10
32.640925
20
9.864576
11
33.164221
21
9.500940
0
LINE
8
Image
10
33.164221
20
9.500940
11
33.387239
21
9.111796
0
LINE
8
Image
10
33.387239
20
9.111796
11
33.344363
21
8.507514
0
LINE
8
Image
10
33.344363
20
8.507514
11
33.069980
21
7.498471
0
LINE
8
Image
10
33.069980
20
7.498471
11
33.037289
21
7.148123
0
LINE
8
Image
10
33.037289
20
7.148123
11
33.194046
21
7.044796
0
LINE
8
Image
10
33.194046
20
7.044796
11
33.911659
21
7.566024
0
LINE
8
Image
10
33.911659
20
7.566024
11
33.911659
21
7.566024
0
LINE
8
Image
10
31.030776
20
13.021762
11
31.788988
21
12.513130
0
LINE
8
Image
10
31.788988
20
12.513130
11
31.859741
21
12.575751
0
LINE
8
Image
10
31.859741
20
12.575751
11
31.783401
21
12.835165
0
LINE
8
Image
10
31.783401
20
12.835165
11
31.471717
21
13.787103
0
LINE
8
Image
10
31.471717
20
13.787103
11
31.415083
21
14.441806
0
LINE
8
Image
10
31.415083
20
14.441806
11
31.628708
21
14.907854
0
LINE
8
Image
10
31.628708
20
14.907854
11
32.127803
21
15.293829
0
LINE
8
Image
10
32.127803
20
15.293829
11
32.752674
21
15.726649
0
LINE
8
Image
10
32.752674
20
15.726649
11
32.919929
21
16.011692
0
LINE
8
Image
10
32.919929
20
16.011692
11
32.631379
21
16.142746
0
LINE
8
Image
10
32.631379
20
16.142746
11
31.888834
21
16.113600
0
LINE
8
Image
10
31.888834
20
16.113600
11
31.270455
21
16.063119
0
LINE
8
Image
10
31.270455
20
16.063119
11
30.913234
21
16.147485
0
LINE
8
Image
10
30.913234
20
16.147485
11
30.695355
21
16.448278
0
LINE
8
Image
10
30.695355
20
16.448278
11
30.495000
21
17.047083
0
LINE
8
Image
10
30.495000
20
17.047083
11
30.217667
21
17.790047
0
LINE
8
Image
10
30.217667
20
17.790047
11
29.972460
21
18.056121
0
LINE
8
Image
10
29.972460
20
18.056121
11
29.757381
21
17.845547
0
LINE
8
Image
10
29.757381
20
17.845547
11
29.570431
21
17.158565
0
LINE
8
Image
10
29.570431
20
17.158565
11
29.423501
21
16.592323
0
LINE
8
Image
10
29.423501
20
16.592323
11
29.163464
21
16.286871
0
LINE
8
Image
10
29.163464
20
16.286871
11
28.655385
21
16.167595
0
LINE
8
Image
10
28.655385
20
16.167595
11
27.764327
21
16.159884
0
LINE
8
Image
10
27.764327
20
16.159884
11
27.228984
21
16.122974
0
LINE
8
Image
10
27.228984
20
16.122974
11
27.062441
21
15.972255
0
LINE
8
Image
10
27.062441
20
15.972255
11
27.841114
21
15.267077
0
LINE
8
Image
10
27.841114
20
15.267077
11
28.318713
21
14.897428
0
LINE
8
Image
10
28.318713
20
14.897428
11
28.519524
21
14.494630
0
LINE
8
Image
10
28.519524
20
14.494630
11
28.470153
21
13.879917
0
LINE
8
Image
10
28.470153
20
13.879917
11
28.197208
21
12.874522
0
LINE
8
Image
10
28.197208
20
12.874522
11
28.154171
21
12.636907
0
LINE
8
Image
10
28.154171
20
12.636907
11
28.251366
21
12.581831
0
LINE
8
Image
10
28.251366
20
12.581831
11
29.059765
21
13.061119
0
LINE
8
Image
10
29.059765
20
13.061119
11
30.071752
21
13.748784
0
LINE
8
Image
10
30.071752
20
13.748784
11
31.030776
21
13.021762
0
LINE
8
Image
10
39.093654
20
13.309377
11
39.449413
21
13.602345
0
LINE
8
Image
10
39.449413
20
13.602345
11
39.735576
21
13.674599
0
LINE
8
Image
10
39.735576
20
13.674599
11
40.695805
21
13.066519
0
LINE
8
Image
10
40.695805
20
13.066519
11
41.709571
21
12.294741
0
LINE
8
Image
10
41.709571
20
12.294741
11
41.504220
21
12.970272
0
LINE
8
Image
10
41.504220
20
12.970272
11
41.235342
21
13.936082
0
LINE
8
Image
10
41.235342
20
13.936082
11
41.187412
21
14.520627
0
LINE
8
Image
10
41.187412
20
14.520627
11
41.389053
21
14.904196
0
LINE
8
Image
10
41.389053
20
14.904196
11
41.868892
21
15.267077
0
LINE
8
Image
10
41.868892
20
15.267077
11
42.480808
21
15.724547
0
LINE
8
Image
10
42.480808
20
15.724547
11
42.631996
21
16.015235
0
LINE
8
Image
10
42.631996
20
16.015235
11
42.311329
21
16.168281
0
LINE
8
Image
10
42.311329
20
16.168281
11
41.507678
21
16.212821
0
LINE
8
Image
10
41.507678
20
16.212821
11
40.462050
21
16.344354
0
LINE
8
Image
10
40.462050
20
16.344354
11
40.268925
21
16.626787
0
LINE
8
Image
10
40.268925
20
16.626787
11
40.144372
21
17.158565
0
LINE
8
Image
10
40.144372
20
17.158565
11
39.958975
21
17.843009
0
LINE
8
Image
10
39.958975
20
17.843009
11
39.751439
21
18.059579
0
LINE
8
Image
10
39.751439
20
18.059579
11
39.527791
21
17.808754
0
LINE
8
Image
10
39.527791
20
17.808754
11
39.294057
21
17.091012
0
LINE
8
Image
10
39.294057
20
17.091012
11
39.128590
21
16.519366
0
LINE
8
Image
10
39.128590
20
16.519366
11
38.919538
21
16.221762
0
LINE
8
Image
10
38.919538
20
16.221762
11
38.548066
21
16.115534
0
LINE
8
Image
10
38.548066
20
16.115534
11
37.895339
21
16.118016
0
LINE
8
Image
10
37.895339
20
16.118016
11
37.112945
21
16.103425
0
LINE
8
Image
10
37.112945
20
16.103425
11
36.805726
21
15.974482
0
LINE
8
Image
10
36.805726
20
15.974482
11
36.966230
21
15.711259
0
LINE
8
Image
10
36.966230
20
15.711259
11
37.587000
21
15.293829
0
LINE
8
Image
10
37.587000
20
15.293829
11
38.085032
21
14.907483
0
LINE
8
Image
10
38.085032
20
14.907483
11
38.299627
21
14.441451
0
LINE
8
Image
10
38.299627
20
14.441451
11
38.245620
21
13.792748
0
LINE
8
Image
10
38.245620
20
13.792748
11
37.937847
21
12.858390
0
LINE
8
Image
10
37.937847
20
12.858390
11
37.882140
21
12.552932
0
LINE
8
Image
10
37.882140
20
12.552932
11
38.057842
21
12.526915
0
LINE
8
Image
10
38.057842
20
12.526915
11
39.093654
21
13.309377
0
LINE
8
Image
10
39.093654
20
13.309377
11
39.093654
21
13.309377
0
LINE
8
Image
10
26.105281
20
18.505229
11
26.870754
21
17.994653
0
LINE
8
Image
10
26.870754
20
17.994653
11
26.968512
21
18.039882
0
LINE
8
Image
10
26.968512
20
18.039882
11
26.928750
21
18.270499
0
LINE
8
Image
10
26.928750
20
18.270499
11
26.635462
21
19.335688
0
LINE
8
Image
10
26.635462
20
19.335688
11
26.576602
21
19.968430
0
LINE
8
Image
10
26.576602
20
19.968430
11
26.778948
21
20.359886
0
LINE
8
Image
10
26.778948
20
20.359886
11
27.269281
21
20.701213
0
LINE
8
Image
10
27.269281
20
20.701213
11
27.891826
21
21.128532
0
LINE
8
Image
10
27.891826
20
21.128532
11
28.044086
21
21.411778
0
LINE
8
Image
10
28.044086
20
21.411778
11
27.719095
21
21.568706
0
LINE
8
Image
10
27.719095
20
21.568706
11
26.909885
21
21.617069
0
LINE
8
Image
10
26.909885
20
21.617069
11
26.222456
21
21.635464
0
LINE
8
Image
10
26.222456
20
21.635464
11
25.847560
21
21.756288
0
LINE
8
Image
10
25.847560
20
21.756288
11
25.660076
21
22.078001
0
LINE
8
Image
10
25.660076
20
22.078001
11
25.534879
21
22.699066
0
LINE
8
Image
10
25.534879
20
22.699066
11
25.350874
21
23.395126
0
LINE
8
Image
10
25.350874
20
23.395126
11
25.134377
21
23.599904
0
LINE
8
Image
10
25.134377
20
23.599904
11
24.910619
21
23.317830
0
LINE
8
Image
10
24.910619
20
23.317830
11
24.704830
21
22.553333
0
LINE
8
Image
10
24.704830
20
22.553333
11
24.580010
21
22.017388
0
LINE
8
Image
10
24.580010
20
22.017388
11
24.371850
21
21.738842
0
LINE
8
Image
10
24.371850
20
21.738842
11
23.143852
21
21.617069
0
LINE
8
Image
10
23.143852
20
21.617069
11
21.758519
21
21.617069
0
LINE
8
Image
10
21.758519
20
21.617069
11
22.784270
21
20.887236
0
LINE
8
Image
10
22.784270
20
20.887236
11
23.391575
21
20.410317
0
LINE
8
Image
10
23.391575
20
20.410317
11
23.654208
21
19.963101
0
LINE
8
Image
10
23.654208
20
19.963101
11
23.618494
21
19.323768
0
LINE
8
Image
10
23.618494
20
19.323768
11
23.330758
21
18.270499
0
LINE
8
Image
10
23.330758
20
18.270499
11
23.290997
21
18.039882
0
LINE
8
Image
10
23.290997
20
18.039882
11
23.388755
21
17.994653
0
LINE
8
Image
10
23.388755
20
17.994653
11
24.154227
21
18.505229
0
LINE
8
Image
10
24.154227
20
18.505229
11
25.129754
21
19.249300
0
LINE
8
Image
10
25.129754
20
19.249300
11
26.105281
21
18.505229
0
LINE
8
Image
10
35.686749
20
18.631409
11
36.285914
21
18.252087
0
LINE
8
Image
10
36.285914
20
18.252087
11
36.592006
21
18.203570
0
LINE
8
Image
10
36.592006
20
18.203570
11
36.633556
21
18.506758
0
LINE
8
Image
10
36.633556
20
18.506758
11
36.439093
21
19.182554
0
LINE
8
Image
10
36.439093
20
19.182554
11
36.286112
21
19.698345
0
LINE
8
Image
10
36.286112
20
19.698345
11
36.304063
21
20.057313
0
LINE
8
Image
10
36.304063
20
20.057313
11
37.045853
21
20.828604
0
LINE
8
Image
10
37.045853
20
20.828604
11
37.964843
21
21.578988
0
LINE
8
Image
10
37.964843
20
21.578988
11
36.756108
21
21.665581
0
LINE
8
Image
10
36.756108
20
21.665581
11
36.073563
21
21.737774
0
LINE
8
Image
10
36.073563
20
21.737774
11
35.674516
21
21.893388
0
LINE
8
Image
10
35.674516
20
21.893388
11
35.435694
21
22.226959
0
LINE
8
Image
10
35.435694
20
22.226959
11
35.233828
21
22.833024
0
LINE
8
Image
10
35.233828
20
22.833024
11
34.920281
21
23.913875
0
LINE
8
Image
10
34.920281
20
23.913875
11
34.618627
21
23.153199
0
LINE
8
Image
10
34.618627
20
23.153199
11
34.316976
21
22.004797
0
LINE
8
Image
10
34.316976
20
22.004797
11
34.247177
21
21.825125
0
LINE
8
Image
10
34.247177
20
21.825125
11
34.023886
21
21.703099
0
LINE
8
Image
10
34.023886
20
21.703099
11
33.033468
21
21.606086
0
LINE
8
Image
10
33.033468
20
21.606086
11
31.749957
21
21.595106
0
LINE
8
Image
10
31.749957
20
21.595106
11
32.662303
21
20.814814
0
LINE
8
Image
10
32.662303
20
20.814814
11
33.196986
21
20.287125
0
LINE
8
Image
10
33.196986
20
20.287125
11
33.423413
21
19.785614
0
LINE
8
Image
10
33.423413
20
19.785614
11
33.366161
21
19.144240
0
LINE
8
Image
10
33.366161
20
19.144240
11
33.049809
21
18.196964
0
LINE
8
Image
10
33.049809
20
18.196964
11
33.002906
21
17.987793
0
LINE
8
Image
10
33.002906
20
17.987793
11
33.104073
21
17.955622
0
LINE
8
Image
10
33.104073
20
17.955622
11
33.862444
21
18.458229
0
LINE
8
Image
10
33.862444
20
18.458229
11
34.863705
21
19.217468
0
LINE
8
Image
10
34.863705
20
19.217468
11
35.686749
21
18.631409
0
LINE
8
Image
10
45.542801
20
18.518787
11
46.133631
21
18.106789
0
LINE
8
Image
10
46.133631
20
18.106789
11
46.411179
21
18.054097
0
LINE
8
Image
10
46.411179
20
18.054097
11
46.411071
21
18.398121
0
LINE
8
Image
10
46.411071
20
18.398121
11
46.168932
21
19.176270
0
LINE
8
Image
10
46.168932
20
19.176270
11
46.019154
21
19.682972
0
LINE
8
Image
10
46.019154
20
19.682972
11
46.038311
21
20.033895
0
LINE
8
Image
10
46.038311
20
20.033895
11
46.773919
21
20.770311
0
LINE
8
Image
10
46.773919
20
20.770311
11
47.686511
21
21.481963
0
LINE
8
Image
10
47.686511
20
21.481963
11
46.496425
21
21.617069
0
LINE
8
Image
10
46.496425
20
21.617069
11
45.831683
21
21.717949
0
LINE
8
Image
10
45.831683
20
21.717949
11
45.435141
21
21.892355
0
LINE
8
Image
10
45.435141
20
21.892355
11
45.191441
21
22.233107
0
LINE
8
Image
10
45.191441
20
22.233107
11
44.985230
21
22.833024
0
LINE
8
Image
10
44.985230
20
22.833024
11
44.664121
21
23.913875
0
LINE
8
Image
10
44.664121
20
23.913875
11
44.354371
21
23.153199
0
LINE
8
Image
10
44.354371
20
23.153199
11
44.044624
21
22.004797
0
LINE
8
Image
10
44.044624
20
22.004797
11
43.975067
21
21.825108
0
LINE
8
Image
10
43.975067
20
21.825108
11
43.752181
21
21.703755
0
LINE
8
Image
10
43.752181
20
21.703755
11
42.761113
21
21.609801
0
LINE
8
Image
10
42.761113
20
21.609801
11
41.477605
21
21.602525
0
LINE
8
Image
10
41.477605
20
21.602525
11
42.395632
21
20.841158
0
LINE
8
Image
10
42.395632
20
20.841158
11
42.935465
21
20.321655
0
LINE
8
Image
10
42.935465
20
20.321655
11
43.162932
21
19.819391
0
LINE
8
Image
10
43.162932
20
19.819391
11
43.102203
21
19.166961
0
LINE
8
Image
10
43.102203
20
19.166961
11
42.777454
21
18.196958
0
LINE
8
Image
10
42.777454
20
18.196958
11
42.731637
21
17.989073
0
LINE
8
Image
10
42.731637
20
17.989073
11
42.834913
21
17.958456
0
LINE
8
Image
10
42.834913
20
17.958456
11
43.598947
21
18.464978
0
LINE
8
Image
10
43.598947
20
18.464978
11
44.609067
21
19.230975
0
LINE
8
Image
10
44.609067
20
19.230975
11
45.542801
21
18.518787
0
LINE
8
Image
10
21.255534
20
23.898740
11
22.245137
21
23.143933
0
LINE
8
Image
10
22.245137
20
23.143933
11
22.064059
21
23.799117
0
LINE
8
Image
10
22.064059
20
23.799117
11
21.729053
21
25.028970
0
LINE
8
Image
10
21.729053
20
25.028970
11
21.801819
21
25.617982
0
LINE
8
Image
10
21.801819
20
25.617982
11
22.474249
21
26.244928
0
LINE
8
Image
10
22.474249
20
26.244928
11
23.373374
21
26.886211
0
LINE
8
Image
10
23.373374
20
26.886211
11
22.180298
21
27.021317
0
LINE
8
Image
10
22.180298
20
27.021317
11
21.513679
21
27.122153
0
LINE
8
Image
10
21.513679
20
27.122153
11
21.116209
21
27.296441
0
LINE
8
Image
10
21.116209
20
27.296441
11
20.872055
21
27.637156
0
LINE
8
Image
10
20.872055
20
27.637156
11
20.665384
21
28.237272
0
LINE
8
Image
10
20.665384
20
28.237272
11
20.462637
21
28.847735
0
LINE
8
Image
10
20.462637
20
28.847735
11
20.293687
21
28.999413
0
LINE
8
Image
10
20.293687
20
28.999413
11
19.740211
21
27.764401
0
LINE
8
Image
10
19.740211
20
27.764401
11
19.559212
21
27.373630
0
LINE
8
Image
10
19.559212
20
27.373630
11
19.316938
21
27.147680
0
LINE
8
Image
10
19.316938
20
27.147680
11
18.313579
21
27.014049
0
LINE
8
Image
10
18.313579
20
27.014049
11
17.158488
21
27.006773
0
LINE
8
Image
10
17.158488
20
27.006773
11
18.069925
21
26.250785
0
LINE
8
Image
10
18.069925
20
26.250785
11
18.767166
21
25.514369
0
LINE
8
Image
10
18.767166
20
25.514369
11
18.791569
21
24.839439
0
LINE
8
Image
10
18.791569
20
24.839439
11
18.458963
21
23.412748
0
LINE
8
Image
10
18.458963
20
23.412748
11
18.702032
21
23.471290
0
LINE
8
Image
10
18.702032
20
23.471290
11
19.290404
21
23.909472
0
LINE
8
Image
10
19.290404
20
23.909472
11
20.265931
21
24.653543
0
LINE
8
Image
10
20.265931
20
24.653543
11
21.255534
21
23.898740
0
LINE
8
Image
10
30.837934
20
24.066777
11
31.422297
21
23.682394
0
LINE
8
Image
10
31.422297
20
23.682394
11
31.735058
21
23.609554
0
LINE
8
Image
10
31.735058
20
23.609554
11
31.795377
21
23.857234
0
LINE
8
Image
10
31.795377
20
23.857234
11
31.622412
21
24.434415
0
LINE
8
Image
10
31.622412
20
24.434415
11
31.409967
21
25.076452
0
LINE
8
Image
10
31.409967
20
25.076452
11
31.421260
21
25.504148
0
LINE
8
Image
10
31.421260
20
25.504148
11
31.715803
21
25.872386
0
LINE
8
Image
10
31.715803
20
25.872386
11
32.353109
21
26.336045
0
LINE
8
Image
10
32.353109
20
26.336045
11
33.361577
21
27.021317
0
LINE
8
Image
10
33.361577
20
27.021317
11
32.093743
21
27.021317
0
LINE
8
Image
10
32.093743
20
27.021317
11
31.365241
21
27.040988
0
LINE
8
Image
10
31.365241
20
27.040988
11
30.951115
21
27.163106
0
LINE
8
Image
10
30.951115
20
27.163106
11
30.711050
21
27.482330
0
LINE
8
Image
10
30.711050
20
27.482330
11
30.504729
21
28.093318
0
LINE
8
Image
10
30.504729
20
28.093318
11
30.236848
21
28.782135
0
LINE
8
Image
10
30.236848
20
28.782135
11
29.990952
21
28.989033
0
LINE
8
Image
10
29.990952
20
28.989033
11
29.767926
21
28.714139
0
LINE
8
Image
10
29.767926
20
28.714139
11
29.568653
21
27.957581
0
LINE
8
Image
10
29.568653
20
27.957581
11
29.444420
21
27.428241
0
LINE
8
Image
10
29.444420
20
27.428241
11
29.246008
21
27.148606
0
LINE
8
Image
10
29.246008
20
27.148606
11
28.139572
21
27.018320
0
LINE
8
Image
10
28.139572
20
27.018320
11
26.886136
21
27.015330
0
LINE
8
Image
10
26.886136
20
27.015330
11
27.790145
21
26.303004
0
LINE
8
Image
10
27.790145
20
26.303004
11
28.325844
21
25.791866
0
LINE
8
Image
10
28.325844
20
25.791866
11
28.560645
21
25.265695
0
LINE
8
Image
10
28.560645
20
25.265695
11
28.514606
21
24.597579
0
LINE
8
Image
10
28.514606
20
24.597579
11
28.207786
21
23.660603
0
LINE
8
Image
10
28.207786
20
23.660603
11
28.146228
21
23.427491
0
LINE
8
Image
10
28.146228
20
23.427491
11
28.235861
21
23.383244
0
LINE
8
Image
10
28.235861
20
23.383244
11
29.011981
21
23.904852
0
LINE
8
Image
10
29.011981
20
23.904852
11
30.018537
21
24.672590
0
LINE
8
Image
10
30.018537
20
24.672590
11
30.837934
21
24.066777
0
LINE
8
Image
10
40.047312
20
24.437265
11
41.044766
21
23.671017
0
LINE
8
Image
10
41.044766
20
23.671017
11
41.692777
21
23.103237
0
LINE
8
Image
10
41.692777
20
23.103237
11
41.515525
21
23.778768
0
LINE
8
Image
10
41.515525
20
23.778768
11
41.184347
21
25.028970
0
LINE
8
Image
10
41.184347
20
25.028970
11
41.257113
21
25.617982
0
LINE
8
Image
10
41.257113
20
25.617982
11
41.929542
21
26.244928
0
LINE
8
Image
10
41.929542
20
26.244928
11
42.828667
21
26.886211
0
LINE
8
Image
10
42.828667
20
26.886211
11
41.635591
21
27.021317
0
LINE
8
Image
10
41.635591
20
27.021317
11
40.967762
21
27.121806
0
LINE
8
Image
10
40.967762
20
27.121806
11
40.573178
21
27.295144
0
LINE
8
Image
10
40.573178
20
27.295144
11
40.335963
21
27.635558
0
LINE
8
Image
10
40.335963
20
27.635558
11
40.140241
21
28.237272
0
LINE
8
Image
10
40.140241
20
28.237272
11
39.920138
21
28.867440
0
LINE
8
Image
10
39.920138
20
28.867440
11
39.726575
21
29.029517
0
LINE
8
Image
10
39.726575
20
29.029517
11
39.537110
21
28.714543
0
LINE
8
Image
10
39.537110
20
28.714543
11
39.329300
21
27.913563
0
LINE
8
Image
10
39.329300
20
27.913563
11
39.195739
21
27.436377
0
LINE
8
Image
10
39.195739
20
27.436377
11
38.981907
21
27.166913
0
LINE
8
Image
10
38.981907
20
27.166913
11
37.878909
21
26.967819
0
LINE
8
Image
10
37.878909
20
26.967819
11
36.613781
21
26.886211
0
LINE
8
Image
10
36.613781
20
26.886211
11
37.595268
21
26.222044
0
LINE
8
Image
10
37.595268
20
26.222044
11
38.576754
21
25.557877
0
LINE
8
Image
10
38.576754
20
25.557877
11
38.203245
21
24.499243
0
LINE
8
Image
10
38.203245
20
24.499243
11
37.829739
21
23.325725
0
LINE
8
Image
10
37.829739
20
23.325725
11
38.763804
21
23.923289
0
LINE
8
Image
10
38.763804
20
23.923289
11
39.534431
21
24.381077
0
LINE
8
Image
10
39.534431
20
24.381077
11
40.047312
21
24.437265
0
LINE
8
Image
10
40.047312
20
24.437265
11
40.047312
21
24.437265
0
LINE
8
Image
10
50.265796
20
24.044505
11
50.872333
21
23.659622
0
LINE
8
Image
10
50.872333
20
23.659622
11
51.182347
21
23.607794
0
LINE
8
Image
10
51.182347
20
23.607794
11
51.225278
21
23.909896
0
LINE
8
Image
10
51.225278
20
23.909896
11
51.030562
21
24.586802
0
LINE
8
Image
10
51.030562
20
24.586802
11
50.877581
21
25.102593
0
LINE
8
Image
10
50.877581
20
25.102593
11
50.895532
21
25.461561
0
LINE
8
Image
10
50.895532
20
25.461561
11
51.637323
21
26.232852
0
LINE
8
Image
10
51.637323
20
26.232852
11
52.556315
21
26.983236
0
LINE
8
Image
10
52.556315
20
26.983236
11
51.363268
21
27.069829
0
LINE
8
Image
10
51.363268
20
27.069829
11
50.691217
21
27.142499
0
LINE
8
Image
10
50.691217
20
27.142499
11
50.295407
21
27.299176
0
LINE
8
Image
10
50.295407
20
27.299176
11
50.054981
21
27.633040
0
LINE
8
Image
10
50.054981
20
27.633040
11
49.849083
21
28.237272
0
LINE
8
Image
10
49.849083
20
28.237272
11
49.527945
21
29.318123
0
LINE
8
Image
10
49.527945
20
29.318123
11
49.218195
21
28.557449
0
LINE
8
Image
10
49.218195
20
28.557449
11
48.908448
21
27.409045
0
LINE
8
Image
10
48.908448
20
27.409045
11
48.839171
21
27.229336
0
LINE
8
Image
10
48.839171
20
27.229336
11
48.616749
21
27.108754
0
LINE
8
Image
10
48.616749
20
27.108754
11
47.624937
21
27.018320
0
LINE
8
Image
10
47.624937
20
27.018320
11
46.341429
21
27.015330
0
LINE
8
Image
10
46.341429
20
27.015330
11
47.245438
21
26.303004
0
LINE
8
Image
10
47.245438
20
26.303004
11
47.781138
21
25.791866
0
LINE
8
Image
10
47.781138
20
25.791866
11
48.015938
21
25.265695
0
LINE
8
Image
10
48.015938
20
25.265695
11
47.969899
21
24.597579
0
LINE
8
Image
10
47.969899
20
24.597579
11
47.663080
21
23.660603
0
LINE
8
Image
10
47.663080
20
23.660603
11
47.598908
21
23.424287
0
LINE
8
Image
10
47.598908
20
23.424287
11
47.683552
21
23.376368
0
LINE
8
Image
10
47.683552
20
23.376368
11
48.445526
21
23.888263
0
LINE
8
Image
10
48.445526
20
23.888263
11
49.430333
21
24.639412
0
LINE
8
Image
10
49.430333
20
24.639412
11
50.265796
21
24.044505
0
LINE
8
Image
10
14.620046
20
29.473576
11
15.407579
21
30.034349
0
LINE
8
Image
10
15.407579
20
30.034349
11
16.350586
21
29.451539
0
LINE
8
Image
10
16.350586
20
29.451539
11
17.224486
21
29.021892
0
LINE
8
Image
10
17.224486
20
29.021892
11
16.982581
21
29.994545
0
LINE
8
Image
10
16.982581
20
29.994545
11
16.830743
21
30.508176
0
LINE
8
Image
10
16.830743
20
30.508176
11
16.849418
21
30.867919
0
LINE
8
Image
10
16.849418
20
30.867919
11
17.590559
21
31.648874
0
LINE
8
Image
10
17.590559
20
31.648874
11
18.509550
21
32.411026
0
LINE
8
Image
10
18.509550
20
32.411026
11
17.383665
21
32.418303
0
LINE
8
Image
10
17.383665
20
32.418303
11
16.743591
21
32.446885
0
LINE
8
Image
10
16.743591
20
32.446885
11
16.360076
21
32.585591
0
LINE
8
Image
10
16.360076
20
32.585591
11
16.107790
21
32.929570
0
LINE
8
Image
10
16.107790
20
32.929570
11
15.861403
21
33.573975
0
LINE
8
Image
10
15.861403
20
33.573975
11
15.525872
21
34.324878
0
LINE
8
Image
10
15.525872
20
34.324878
11
15.400443
21
34.417435
0
LINE
8
Image
10
15.400443
20
34.417435
11
15.306478
21
34.317059
0
LINE
8
Image
10
15.306478
20
34.317059
11
14.876388
21
33.168655
0
LINE
8
Image
10
14.876388
20
33.168655
11
14.695758
21
32.777911
0
LINE
8
Image
10
14.695758
20
32.777911
11
14.455090
21
32.552991
0
LINE
8
Image
10
14.455090
20
32.552991
11
13.459963
21
32.425571
0
LINE
8
Image
10
13.459963
20
32.425571
11
12.315079
21
32.425571
0
LINE
8
Image
10
12.315079
20
32.425571
11
13.212684
21
31.676216
0
LINE
8
Image
10
13.212684
20
31.676216
11
13.940642
21
30.889680
0
LINE
8
Image
10
13.940642
20
30.889680
11
13.966427
21
30.497290
0
LINE
8
Image
10
13.966427
20
30.497290
11
13.832236
21
29.919837
0
LINE
8
Image
10
13.832236
20
29.919837
11
13.670702
21
29.251547
0
LINE
8
Image
10
13.670702
20
29.251547
11
13.709014
21
28.976581
0
LINE
8
Image
10
13.709014
20
28.976581
11
14.005890
21
29.061679
0
LINE
8
Image
10
14.005890
20
29.061679
11
14.620046
21
29.473581
0
LINE
8
Image
10
14.620046
20
29.473581
11
14.620046
21
29.473576
0
LINE
8
Image
10
24.308858
20
29.488366
11
25.087353
21
30.063932
0
LINE
8
Image
10
25.087353
20
30.063932
11
26.085651
21
29.446948
0
LINE
8
Image
10
26.085651
20
29.446948
11
27.083949
21
28.829967
0
LINE
8
Image
10
27.083949
20
28.829967
11
26.917489
21
29.411806
0
LINE
8
Image
10
26.917489
20
29.411806
11
26.605834
21
30.508490
0
LINE
8
Image
10
26.605834
20
30.508490
11
26.701035
21
31.050947
0
LINE
8
Image
10
26.701035
20
31.050947
11
27.348918
21
31.656893
0
LINE
8
Image
10
27.348918
20
31.656893
11
28.237197
21
32.290453
0
LINE
8
Image
10
28.237197
20
32.290453
11
27.044121
21
32.425560
0
LINE
8
Image
10
27.044121
20
32.425560
11
26.377502
21
32.526396
0
LINE
8
Image
10
26.377502
20
32.526396
11
25.980033
21
32.700684
0
LINE
8
Image
10
25.980033
20
32.700684
11
25.735879
21
33.041400
0
LINE
8
Image
10
25.735879
20
33.041400
11
25.529207
21
33.641517
0
LINE
8
Image
10
25.529207
20
33.641517
11
25.326641
21
34.251039
0
LINE
8
Image
10
25.326641
20
34.251039
11
25.158058
21
34.403990
0
LINE
8
Image
10
25.158058
20
34.403990
11
24.610180
21
33.184807
0
LINE
8
Image
10
24.610180
20
33.184807
11
24.430543
21
32.809553
0
LINE
8
Image
10
24.430543
20
32.809553
11
24.180055
21
32.576161
0
LINE
8
Image
10
24.180055
20
32.576161
11
23.183548
21
32.374170
0
LINE
8
Image
10
23.183548
20
32.374170
11
22.022312
21
32.290453
0
LINE
8
Image
10
22.022312
20
32.290453
11
23.037292
21
31.659396
0
LINE
8
Image
10
23.037292
20
31.659396
11
23.707657
21
31.138532
0
LINE
8
Image
10
23.707657
20
31.138532
11
23.894096
21
30.772406
0
LINE
8
Image
10
23.894096
20
30.772406
11
23.502707
21
29.692482
0
LINE
8
Image
10
23.502707
20
29.692482
11
23.403178
21
28.912800
0
LINE
8
Image
10
23.403178
20
28.912800
11
24.308858
21
29.488366
0
LINE
8
Image
10
24.308858
20
29.488366
11
24.308858
21
29.488366
0
LINE
8
Image
10
34.075340
20
29.473576
11
34.862872
21
30.034349
0
LINE
8
Image
10
34.862872
20
30.034349
11
35.837233
21
29.432161
0
LINE
8
Image
10
35.837233
20
29.432161
11
36.811597
21
28.829972
0
LINE
8
Image
10
36.811597
20
28.829972
11
36.645137
21
29.411811
0
LINE
8
Image
10
36.645137
20
29.411811
11
36.331135
21
30.515887
0
LINE
8
Image
10
36.331135
20
30.515887
11
36.443096
21
31.076207
0
LINE
8
Image
10
36.443096
20
31.076207
11
37.204497
21
31.731842
0
LINE
8
Image
10
37.204497
20
31.731842
11
38.225401
21
32.425565
0
LINE
8
Image
10
38.225401
20
32.425565
11
36.957567
21
32.425565
0
LINE
8
Image
10
36.957567
20
32.425565
11
36.229065
21
32.445236
0
LINE
8
Image
10
36.229065
20
32.445236
11
35.814939
21
32.567354
0
LINE
8
Image
10
35.814939
20
32.567354
11
35.574874
21
32.886578
0
LINE
8
Image
10
35.574874
20
32.886578
11
35.368553
21
33.497566
0
LINE
8
Image
10
35.368553
20
33.497566
11
35.101217
21
34.185012
0
LINE
8
Image
10
35.101217
20
34.185012
11
34.855567
21
34.393693
0
LINE
8
Image
10
34.855567
20
34.393693
11
34.633033
21
34.123798
0
LINE
8
Image
10
34.633033
20
34.123798
11
34.435044
21
33.375511
0
LINE
8
Image
10
34.435044
20
33.375511
11
34.310226
21
32.859586
0
LINE
8
Image
10
34.310226
20
32.859586
11
34.106486
21
32.573725
0
LINE
8
Image
10
34.106486
20
32.573725
11
33.005962
21
32.371694
0
LINE
8
Image
10
33.005962
20
32.371694
11
31.749957
21
32.290459
0
LINE
8
Image
10
31.749957
20
32.290459
11
32.731444
21
31.626292
0
LINE
8
Image
10
32.731444
20
31.626292
11
33.292977
21
31.226381
0
LINE
8
Image
10
33.292977
20
31.226381
11
33.544794
21
30.916995
0
LINE
8
Image
10
33.544794
20
30.916995
11
33.544928
21
30.540051
0
LINE
8
Image
10
33.544928
20
30.540051
11
33.351409
21
29.937466
0
LINE
8
Image
10
33.351409
20
29.937466
11
33.137810
21
29.258811
0
LINE
8
Image
10
33.137810
20
29.258811
11
33.155043
21
28.975926
0
LINE
8
Image
10
33.155043
20
28.975926
11
33.451442
21
29.057838
0
LINE
8
Image
10
33.451442
20
29.057838
11
34.075340
21
29.473576
0
LINE
8
Image
10
34.075340
20
29.473576
11
34.075340
21
29.473576
0
LINE
8
Image
10
43.785351
20
29.504045
11
44.585048
21
30.095285
0
LINE
8
Image
10
44.585048
20
30.095285
11
45.416926
21
29.480251
0
LINE
8
Image
10
45.416926
20
29.480251
11
46.018453
21
29.080571
0
LINE
8
Image
10
46.018453
20
29.080571
11
46.323729
21
29.018715
0
LINE
8
Image
10
46.323729
20
29.018715
11
46.363057
21
29.315326
0
LINE
8
Image
10
46.363057
20
29.315326
11
46.166741
21
29.991050
0
LINE
8
Image
10
46.166741
20
29.991050
11
46.013933
21
30.506928
0
LINE
8
Image
10
46.013933
20
30.506928
11
46.032018
21
30.867470
0
LINE
8
Image
10
46.032018
20
30.867470
11
46.773499
21
31.648874
0
LINE
8
Image
10
46.773499
20
31.648874
11
47.692491
21
32.411026
0
LINE
8
Image
10
47.692491
20
32.411026
11
46.566605
21
32.418303
0
LINE
8
Image
10
46.566605
20
32.418303
11
45.926531
21
32.446885
0
LINE
8
Image
10
45.926531
20
32.446885
11
45.543016
21
32.585591
0
LINE
8
Image
10
45.543016
20
32.585591
11
45.290730
21
32.929570
0
LINE
8
Image
10
45.290730
20
32.929570
11
45.044343
21
33.573975
0
LINE
8
Image
10
45.044343
20
33.573975
11
44.708813
21
34.324878
0
LINE
8
Image
10
44.708813
20
34.324878
11
44.583384
21
34.417435
0
LINE
8
Image
10
44.583384
20
34.417435
11
44.489420
21
34.317059
0
LINE
8
Image
10
44.489420
20
34.317059
11
44.048680
21
33.140651
0
LINE
8
Image
10
44.048680
20
33.140651
11
43.865744
21
32.727615
0
LINE
8
Image
10
43.865744
20
32.727615
11
43.639834
21
32.508824
0
LINE
8
Image
10
43.639834
20
32.508824
11
42.689602
21
32.472259
0
LINE
8
Image
10
42.689602
20
32.472259
11
41.936895
21
32.498433
0
LINE
8
Image
10
41.936895
20
32.498433
11
41.666161
21
32.375677
0
LINE
8
Image
10
41.666161
20
32.375677
11
41.874783
21
32.086620
0
LINE
8
Image
10
41.874783
20
32.086620
11
42.560139
21
31.613893
0
LINE
8
Image
10
42.560139
20
31.613893
11
43.182795
21
31.125173
0
LINE
8
Image
10
43.182795
20
31.125173
11
43.349390
21
30.772416
0
LINE
8
Image
10
43.349390
20
30.772416
11
42.958001
21
29.692493
0
LINE
8
Image
10
42.958001
20
29.692493
11
42.858472
21
28.912811
0
LINE
8
Image
10
42.858472
20
28.912811
11
43.785351
21
29.504050
0
LINE
8
Image
10
43.785351
20
29.504050
11
43.785351
21
29.504045
0
LINE
8
Image
10
53.530634
20
29.473576
11
54.318165
21
30.034349
0
LINE
8
Image
10
54.318165
20
30.034349
11
55.310158
21
29.421265
0
LINE
8
Image
10
55.310158
20
29.421265
11
56.098142
21
28.998078
0
LINE
8
Image
10
56.098142
20
28.998078
11
56.180471
21
29.058743
0
LINE
8
Image
10
56.180471
20
29.058743
11
56.116906
21
29.290913
0
LINE
8
Image
10
56.116906
20
29.290913
11
55.810131
21
30.199661
0
LINE
8
Image
10
55.810131
20
30.199661
11
55.772543
21
30.798218
0
LINE
8
Image
10
55.772543
20
30.798218
11
56.040232
21
31.251571
0
LINE
8
Image
10
56.040232
20
31.251571
11
56.649289
21
31.724706
0
LINE
8
Image
10
56.649289
20
31.724706
11
57.680695
21
32.425565
0
LINE
8
Image
10
57.680695
20
32.425565
11
56.412861
21
32.425565
0
LINE
8
Image
10
56.412861
20
32.425565
11
55.684358
21
32.445236
0
LINE
8
Image
10
55.684358
20
32.445236
11
55.270232
21
32.567354
0
LINE
8
Image
10
55.270232
20
32.567354
11
55.030167
21
32.886578
0
LINE
8
Image
10
55.030167
20
32.886578
11
54.823847
21
33.497566
0
LINE
8
Image
10
54.823847
20
33.497566
11
54.561679
21
34.189956
0
LINE
8
Image
10
54.561679
20
34.189956
11
54.329275
21
34.403123
0
LINE
8
Image
10
54.329275
20
34.403123
11
54.120312
21
34.136296
0
LINE
8
Image
10
54.120312
20
34.136296
11
53.928469
21
33.388708
0
LINE
8
Image
10
53.928469
20
33.388708
11
53.802667
21
32.865160
0
LINE
8
Image
10
53.802667
20
32.865160
11
53.598866
21
32.575876
0
LINE
8
Image
10
53.598866
20
32.575876
11
52.495117
21
32.372429
0
LINE
8
Image
10
52.495117
20
32.372429
11
51.237043
21
32.290459
0
LINE
8
Image
10
51.237043
20
32.290459
11
52.204112
21
31.630485
0
LINE
8
Image
10
52.204112
20
31.630485
11
52.756959
21
31.233029
0
LINE
8
Image
10
52.756959
20
31.233029
11
53.004305
21
30.924232
0
LINE
8
Image
10
53.004305
20
30.924232
11
53.002572
21
30.546355
0
LINE
8
Image
10
53.002572
20
30.546355
11
52.808182
21
29.941660
0
LINE
8
Image
10
52.808182
20
29.941660
11
52.593633
21
29.260462
0
LINE
8
Image
10
52.593633
20
29.260462
11
52.610310
21
28.976255
0
LINE
8
Image
10
52.610310
20
28.976255
11
52.906536
21
29.057729
0
LINE
8
Image
10
52.906536
20
29.057729
11
53.530634
21
29.473576
0
LINE
8
Image
10
53.530634
20
29.473576
11
53.530634
21
29.473576
0
LINE
8
Image
10
19.372177
20
37.627153
11
20.167233
21
38.467377
0
LINE
8
Image
10
20.167233
20
38.467377
11
20.562619
21
39.045769
0
LINE
8
Image
10
20.562619
20
39.045769
11
20.672759
21
39.624162
0
LINE
8
Image
10
20.672759
20
39.624162
11
20.612077
21
40.464385
0
LINE
8
Image
10
20.612077
20
40.464385
11
20.467385
21
41.883000
0
LINE
8
Image
10
20.467385
20
41.883000
11
18.204959
21
41.883000
0
LINE
8
Image
10
18.204959
20
41.883000
11
15.942532
21
41.883000
0
LINE
8
Image
10
15.942532
20
41.883000
11
15.942532
21
40.802149
0
LINE
8
Image
10
15.942532
20
40.802149
11
15.942532
21
39.721301
0
LINE
8
Image
10
15.942532
20
39.721301
11
14.726577
21
39.721301
0
LINE
8
Image
10
14.726577
20
39.721301
11
13.510621
21
39.721301
0
LINE
8
Image
10
13.510621
20
39.721301
11
13.510621
21
43.504275
0
LINE
8
Image
10
13.510621
20
43.504275
11
13.510621
21
47.287248
0
LINE
8
Image
10
13.510621
20
47.287248
11
14.726577
21
47.287248
0
LINE
8
Image
10
14.726577
20
47.287248
11
15.426837
21
47.271768
0
LINE
8
Image
10
15.426837
20
47.271768
11
15.788125
21
47.167155
0
LINE
8
Image
10
15.788125
20
47.167155
11
15.922628
21
46.886153
0
LINE
8
Image
10
15.922628
20
46.886153
11
15.942532
21
46.341504
0
LINE
8
Image
10
15.942532
20
46.341504
11
15.942532
21
45.395763
0
LINE
8
Image
10
15.942532
20
45.395763
11
18.306891
21
45.395498
0
LINE
8
Image
10
18.306891
20
45.395498
11
20.671250
21
45.395233
0
LINE
8
Image
10
20.671250
20
45.395233
11
20.627966
21
46.939954
0
LINE
8
Image
10
20.627966
20
46.939954
11
20.574726
21
47.832755
0
LINE
8
Image
10
20.574726
20
47.832755
11
20.401818
21
48.447048
0
LINE
8
Image
10
20.401818
20
48.447048
11
19.996243
21
49.013465
0
LINE
8
Image
10
19.996243
20
49.013465
11
19.245003
21
49.762642
0
LINE
8
Image
10
19.245003
20
49.762642
11
17.905322
21
51.040607
0
LINE
8
Image
10
17.905322
20
51.040607
11
14.631958
21
51.019122
0
LINE
8
Image
10
14.631958
20
51.019122
11
11.358594
21
50.997638
0
LINE
8
Image
10
11.358594
20
50.997638
11
10.017485
21
49.579614
0
LINE
8
Image
10
10.017485
20
49.579614
11
8.676376
21
48.161589
0
LINE
8
Image
10
8.676376
20
48.161589
11
8.674524
21
43.566878
0
LINE
8
Image
10
8.674524
20
43.566878
11
8.672672
21
38.972169
0
LINE
8
Image
10
8.672672
20
38.972169
11
9.943237
21
37.597708
0
LINE
8
Image
10
9.943237
20
37.597708
11
11.213802
21
36.223247
0
LINE
8
Image
10
11.213802
20
36.223247
11
14.600688
21
36.215944
0
LINE
8
Image
10
14.600688
20
36.215944
11
17.987573
21
36.208615
0
LINE
8
Image
10
17.987573
20
36.208615
11
19.372177
21
37.627153
0
LINE
8
Image
10
27.291453
20
37.964920
11
27.207698
21
39.372099
0
LINE
8
Image
10
27.207698
20
39.372099
11
27.078747
21
39.645237
0
LINE
8
Image
10
27.078747
20
39.645237
11
26.870187
21
39.721301
0
LINE
8
Image
10
26.870187
20
39.721301
11
26.621725
21
39.800676
0
LINE
8
Image
10
26.621725
20
39.800676
11
26.615923
21
39.991512
0
LINE
8
Image
10
26.615923
20
39.991512
11
27.364182
21
40.182351
0
LINE
8
Image
10
27.364182
20
40.182351
11
28.928674
21
40.261725
0
LINE
8
Image
10
28.928674
20
40.261725
11
30.470436
21
40.185666
0
LINE
8
Image
10
30.470436
20
40.185666
11
31.074427
21
39.991512
0
LINE
8
Image
10
31.074427
20
39.991512
11
30.995052
21
39.800676
0
LINE
8
Image
10
30.995052
20
39.800676
11
30.804216
21
39.721301
0
LINE
8
Image
10
30.804216
20
39.721301
11
30.611948
21
39.214653
0
LINE
8
Image
10
30.611948
20
39.214653
11
30.534003
21
37.964920
0
LINE
8
Image
10
30.534003
20
37.964920
11
30.534003
21
36.208539
0
LINE
8
Image
10
30.534003
20
36.208539
11
33.515469
21
36.208539
0
LINE
8
Image
10
33.515469
20
36.208539
11
36.496936
21
36.208539
0
LINE
8
Image
10
36.496936
20
36.208539
11
36.448615
21
37.964920
0
LINE
8
Image
10
36.448615
20
37.964920
11
36.330569
21
39.278523
0
LINE
8
Image
10
36.330569
20
39.278523
11
36.075389
21
39.721301
0
LINE
8
Image
10
36.075389
20
39.721301
11
35.364172
21
40.808787
0
LINE
8
Image
10
35.364172
20
40.808787
11
34.110480
21
43.423381
0
LINE
8
Image
10
34.110480
20
43.423381
11
32.839873
21
46.507235
0
LINE
8
Image
10
32.839873
20
46.507235
11
32.723831
21
47.130756
0
LINE
8
Image
10
32.723831
20
47.130756
11
32.868577
21
47.416558
0
LINE
8
Image
10
32.868577
20
47.416558
11
33.158466
21
48.005255
0
LINE
8
Image
10
33.158466
20
48.005255
11
33.183849
21
49.321386
0
LINE
8
Image
10
33.183849
20
49.321386
11
33.101021
21
50.935115
0
LINE
8
Image
10
33.101021
20
50.935115
11
28.912728
21
50.935115
0
LINE
8
Image
10
28.912728
20
50.935115
11
24.724436
21
50.935115
0
LINE
8
Image
10
24.724436
20
50.935115
11
24.644537
21
49.111183
0
LINE
8
Image
10
24.644537
20
49.111183
11
24.659873
21
47.655603
0
LINE
8
Image
10
24.659873
20
47.655603
11
24.767336
21
47.368383
0
LINE
8
Image
10
24.767336
20
47.368383
11
24.956307
21
47.287248
0
LINE
8
Image
10
24.956307
20
47.287248
11
25.046580
21
47.088688
0
LINE
8
Image
10
25.046580
20
47.088688
11
24.884863
21
46.459395
0
LINE
8
Image
10
24.884863
20
46.459395
11
23.736767
21
43.706935
0
LINE
8
Image
10
23.736767
20
43.706935
11
22.484467
21
41.090211
0
LINE
8
Image
10
22.484467
20
41.090211
11
21.736169
21
39.826619
0
LINE
8
Image
10
21.736169
20
39.826619
11
21.442404
21
39.192872
0
LINE
8
Image
10
21.442404
20
39.192872
11
21.346781
21
37.867577
0
LINE
8
Image
10
21.346781
20
37.867577
11
21.346781
21
36.208539
0
LINE
8
Image
10
21.346781
20
36.208539
11
24.319117
21
36.208539
0
LINE
8
Image
10
24.319117
20
36.208539
11
27.291453
21
36.208539
0
LINE
8
Image
10
27.291453
20
36.208539
11
27.291453
21
37.964920
0
LINE
8
Image
10
28.111666
20
43.436721
11
28.484932
21
44.295926
0
LINE
8
Image
10
28.484932
20
44.295926
11
28.848620
21
44.952470
0
LINE
8
Image
10
28.848620
20
44.952470
11
29.292931
21
44.093266
0
LINE
8
Image
10
29.292931
20
44.093266
11
29.737243
21
43.234061
0
LINE
8
Image
10
29.737243
20
43.234061
11
28.919668
21
43.234061
0
LINE
8
Image
10
28.919668
20
43.234061
11
28.345068
21
43.293593
0
LINE
8
Image
10
28.345068
20
43.293593
11
28.111666
21
43.436721
0
LINE
8
Image
10
28.111666
20
43.436721
11
28.111666
21
43.436721
0
LINE
8
Image
10
47.885869
20
37.481889
11
49.178659
21
38.755243
0
LINE
8
Image
10
49.178659
20
38.755243
11
49.178659
21
41.032416
0
LINE
8
Image
10
49.178659
20
41.032416
11
49.086175
21
42.936105
0
LINE
8
Image
10
49.086175
20
42.936105
11
48.941619
21
43.397985
0
LINE
8
Image
10
48.941619
20
43.397985
11
48.705788
21
43.677145
0
LINE
8
Image
10
48.705788
20
43.677145
11
48.368022
21
44.044699
0
LINE
8
Image
10
48.368022
20
44.044699
11
48.705788
21
44.412255
0
LINE
8
Image
10
48.705788
20
44.412255
11
48.934900
21
44.676367
0
LINE
8
Image
10
48.934900
20
44.676367
11
49.080202
21
45.085779
0
LINE
8
Image
10
49.080202
20
45.085779
11
49.178659
21
46.616879
0
LINE
8
Image
10
49.178659
20
46.616879
11
49.178659
21
48.453951
0
LINE
8
Image
10
49.178659
20
48.453951
11
47.843369
21
49.754598
0
LINE
8
Image
10
47.843369
20
49.754598
11
46.508080
21
51.055246
0
LINE
8
Image
10
46.508080
20
51.055246
11
41.898697
21
50.998416
0
LINE
8
Image
10
41.898697
20
50.998416
11
37.289312
21
50.941589
0
LINE
8
Image
10
37.289312
20
50.941589
11
37.289312
21
49.114419
0
LINE
8
Image
10
37.289312
20
49.114419
11
37.376846
21
47.583197
0
LINE
8
Image
10
37.376846
20
47.583197
11
37.539783
21
47.341130
0
LINE
8
Image
10
37.539783
20
47.341130
11
37.829739
21
47.287248
0
LINE
8
Image
10
37.829739
20
47.287248
11
38.131315
21
47.202807
0
LINE
8
Image
10
38.131315
20
47.202807
11
38.292960
21
46.746823
0
LINE
8
Image
10
38.292960
20
46.746823
11
38.370163
21
43.504275
0
LINE
8
Image
10
38.370163
20
43.504275
11
38.292956
21
40.261726
0
LINE
8
Image
10
38.292956
20
40.261726
11
38.131311
21
39.805743
0
LINE
8
Image
10
38.131311
20
39.805743
11
37.829739
21
39.721301
0
LINE
8
Image
10
37.829739
20
39.721301
11
37.540689
21
39.668525
0
LINE
8
Image
10
37.540689
20
39.668525
11
37.377652
21
39.434201
0
LINE
8
Image
10
37.377652
20
39.434201
11
37.289312
21
37.964920
0
LINE
8
Image
10
37.289312
20
37.964920
11
37.289312
21
36.208539
0
LINE
8
Image
10
37.289312
20
36.208539
11
41.941194
21
36.208539
0
LINE
8
Image
10
41.941194
20
36.208539
11
46.593077
21
36.208539
0
LINE
8
Image
10
46.593077
20
36.208539
11
47.885869
21
37.481889
0
LINE
8
Image
10
42.693560
20
40.802149
11
42.711504
21
41.416160
0
LINE
8
Image
10
42.711504
20
41.416160
11
42.820222
21
41.738244
0
LINE
8
Image
10
42.820222
20
41.738244
11
43.102045
21
41.862493
0
LINE
8
Image
10
43.102045
20
41.862493
11
43.639304
21
41.883000
0
LINE
8
Image
10
43.639304
20
41.883000
11
44.176562
21
41.862491
0
LINE
8
Image
10
44.176562
20
41.862491
11
44.458386
21
41.738240
0
LINE
8
Image
10
44.458386
20
41.738240
11
44.567104
21
41.416155
0
LINE
8
Image
10
44.567104
20
41.416155
11
44.585048
21
40.802149
0
LINE
8
Image
10
44.585048
20
40.802149
11
44.567104
21
40.188140
0
LINE
8
Image
10
44.567104
20
40.188140
11
44.458387
21
39.866057
0
LINE
8
Image
10
44.458387
20
39.866057
11
44.176563
21
39.741808
0
LINE
8
Image
10
44.176563
20
39.741808
11
43.639304
21
39.721301
0
LINE
8
Image
10
43.639304
20
39.721301
11
43.102046
21
39.741810
0
LINE
8
Image
10
43.102046
20
39.741810
11
42.820223
21
39.866061
0
LINE
8
Image
10
42.820223
20
39.866061
11
42.711504
21
40.188145
0
LINE
8
Image
10
42.711504
20
40.188145
11
42.693560
21
40.802149
0
LINE
8
Image
10
42.693560
20
40.802149
11
42.693560
21
40.802149
0
LINE
8
Image
10
42.693560
20
46.505522
11
42.777148
21
47.366177
0
LINE
8
Image
10
42.777148
20
47.366177
11
42.907809
21
47.486360
0
LINE
8
Image
10
42.907809
20
47.486360
11
43.120981
21
47.451263
0
LINE
8
Image
10
43.120981
20
47.451263
11
44.066722
21
47.287248
0
LINE
8
Image
10
44.066722
20
47.287248
11
44.480472
21
47.096437
0
LINE
8
Image
10
44.480472
20
47.096437
11
44.585048
21
46.341504
0
LINE
8
Image
10
44.585048
20
46.341504
11
44.563938
21
45.813746
0
LINE
8
Image
10
44.563938
20
45.813746
11
44.449942
21
45.530868
0
LINE
8
Image
10
44.449942
20
45.530868
11
44.167063
21
45.416873
0
LINE
8
Image
10
44.167063
20
45.416873
11
43.639304
21
45.395763
0
LINE
8
Image
10
43.639304
20
45.395763
11
43.100313
21
45.416139
0
LINE
8
Image
10
43.100313
20
45.416139
11
42.818683
21
45.542579
0
LINE
8
Image
10
42.818683
20
45.542579
11
42.710927
21
45.873050
0
LINE
8
Image
10
42.710927
20
45.873050
11
42.693560
21
46.505522
0
LINE
8
Image
10
42.693560
20
46.505522
11
42.693560
21
46.505522
0
LINE
8
Image
10
59.469059
20
37.356943
11
60.392475
21
38.505344
0
LINE
8
Image
10
60.392475
20
38.505344
11
60.304742
21
42.896297
0
LINE
8
Image
10
60.304742
20
42.896297
11
60.304565
21
46.555769
0
LINE
8
Image
10
60.304565
20
46.555769
11
60.424950
21
47.150161
0
LINE
8
Image
10
60.424950
20
47.150161
11
60.654854
21
47.287248
0
LINE
8
Image
10
60.654854
20
47.287248
11
60.875609
21
47.356488
0
LINE
8
Image
10
60.875609
20
47.356488
11
60.997140
21
47.623881
0
LINE
8
Image
10
60.997140
20
47.623881
11
61.012797
21
49.111183
0
LINE
8
Image
10
61.012797
20
49.111183
11
60.932899
21
50.935115
0
LINE
8
Image
10
60.932899
20
50.935115
11
58.230776
21
50.934969
0
LINE
8
Image
10
58.230776
20
50.934969
11
55.528651
21
50.934824
0
LINE
8
Image
10
55.528651
20
50.934824
11
55.448752
21
49.111034
0
LINE
8
Image
10
55.448752
20
49.111034
11
55.464097
21
47.691315
0
LINE
8
Image
10
55.464097
20
47.691315
11
55.558701
21
47.381975
0
LINE
8
Image
10
55.558701
20
47.381975
11
55.718965
21
47.287685
0
LINE
8
Image
10
55.718965
20
47.287685
11
55.885466
21
47.112290
0
LINE
8
Image
10
55.885466
20
47.112290
11
55.979827
21
46.503140
0
LINE
8
Image
10
55.979827
20
46.503140
11
55.987080
21
43.488156
0
LINE
8
Image
10
55.987080
20
43.488156
11
55.905089
21
39.688191
0
LINE
8
Image
10
55.905089
20
39.688191
11
55.176446
21
39.772300
0
LINE
8
Image
10
55.176446
20
39.772300
11
54.787679
21
39.852538
0
LINE
8
Image
10
54.787679
20
39.852538
11
54.556304
21
40.031227
0
LINE
8
Image
10
54.556304
20
40.031227
11
54.365806
21
40.982394
0
LINE
8
Image
10
54.365806
20
40.982394
11
54.283811
21
42.108377
0
LINE
8
Image
10
54.283811
20
42.108377
11
52.474320
21
42.210178
0
LINE
8
Image
10
52.474320
20
42.210178
11
50.462169
21
42.216660
0
LINE
8
Image
10
50.462169
20
42.216660
11
50.319041
21
41.580716
0
LINE
8
Image
10
50.319041
20
41.580716
11
50.259509
21
40.185607
0
LINE
8
Image
10
50.259509
20
40.185607
11
50.259509
21
38.249881
0
LINE
8
Image
10
50.259509
20
38.249881
11
51.407911
21
37.240738
0
LINE
8
Image
10
51.407911
20
37.240738
11
52.556315
21
36.231594
0
LINE
8
Image
10
52.556315
20
36.231594
11
55.550979
21
36.220085
0
LINE
8
Image
10
55.550979
20
36.220085
11
58.545646
21
36.208549
0
LINE
8
Image
10
58.545646
20
36.208549
11
59.469059
21
37.356943
0
LINE
8
Image
10
22.174942
20
52.928965
11
21.931461
21
53.562430
0
LINE
8
Image
10
21.931461
20
53.562430
11
21.943813
21
54.101204
0
LINE
8
Image
10
21.943813
20
54.101204
11
22.219343
21
54.571016
0
LINE
8
Image
10
22.219343
20
54.571016
11
22.765396
21
54.997595
0
LINE
8
Image
10
22.765396
20
54.997595
11
23.643586
21
55.528727
0
LINE
8
Image
10
23.643586
20
55.528727
11
22.450187
21
55.663833
0
LINE
8
Image
10
22.450187
20
55.663833
11
21.409923
21
55.921989
0
LINE
8
Image
10
21.409923
20
55.921989
11
21.157244
21
56.200358
0
LINE
8
Image
10
21.157244
20
56.200358
11
20.964019
21
56.657737
0
LINE
8
Image
10
20.964019
20
56.657737
11
20.685453
21
57.375629
0
LINE
8
Image
10
20.685453
20
57.375629
11
20.467993
21
57.626734
0
LINE
8
Image
10
20.467993
20
57.626734
11
20.264583
21
57.415513
0
LINE
8
Image
10
20.264583
20
57.415513
11
20.028165
21
56.746425
0
LINE
8
Image
10
20.028165
20
56.746425
11
19.820104
21
56.128645
0
LINE
8
Image
10
19.820104
20
56.128645
11
19.579607
21
55.806351
0
LINE
8
Image
10
19.579607
20
55.806351
11
19.165343
21
55.683446
0
LINE
8
Image
10
19.165343
20
55.683446
11
18.435978
21
55.663833
0
LINE
8
Image
10
18.435978
20
55.663833
11
17.168143
21
55.663833
0
LINE
8
Image
10
17.168143
20
55.663833
11
18.176612
21
54.978561
0
LINE
8
Image
10
18.176612
20
54.978561
11
18.813918
21
54.514901
0
LINE
8
Image
10
18.813918
20
54.514901
11
19.108461
21
54.146663
0
LINE
8
Image
10
19.108461
20
54.146663
11
19.119754
21
53.718966
0
LINE
8
Image
10
19.119754
20
53.718966
11
18.907309
21
53.076930
0
LINE
8
Image
10
18.907309
20
53.076930
11
18.734311
21
52.499600
0
LINE
8
Image
10
18.734311
20
52.499600
11
18.794837
21
52.252087
0
LINE
8
Image
10
18.794837
20
52.252087
11
19.108160
21
52.325412
0
LINE
8
Image
10
19.108160
20
52.325412
11
19.693550
21
52.710596
0
LINE
8
Image
10
19.693550
20
52.710596
11
20.514713
21
53.317708
0
LINE
8
Image
10
20.514713
20
53.317708
11
21.403619
21
52.627679
0
LINE
8
Image
10
21.403619
20
52.627679
11
21.986653
21
52.241515
0
LINE
8
Image
10
21.986653
20
52.241515
11
22.321179
21
52.167551
0
LINE
8
Image
10
22.321179
20
52.167551
11
22.389756
21
52.398971
0
LINE
8
Image
10
22.389756
20
52.398971
11
22.174942
21
52.928965
0
LINE
8
Image
10
22.174942
20
52.928965
11
22.174942
21
52.928965
0
LINE
8
Image
10
29.937701
20
53.079782
11
30.462183
21
53.015234
0
LINE
8
Image
10
30.462183
20
53.015234
11
31.265072
21
52.532349
0
LINE
8
Image
10
31.265072
20
52.532349
11
32.242997
21
51.786450
0
LINE
8
Image
10
32.242997
20
51.786450
11
32.038768
21
52.441632
0
LINE
8
Image
10
32.038768
20
52.441632
11
31.747464
21
53.492363
0
LINE
8
Image
10
31.747464
20
53.492363
11
31.703661
21
54.154950
0
LINE
8
Image
10
31.703661
20
54.154950
11
31.936055
21
54.597545
0
LINE
8
Image
10
31.936055
20
54.597545
11
32.473338
21
54.988302
0
LINE
8
Image
10
32.473338
20
54.988302
11
33.371232
21
55.528727
0
LINE
8
Image
10
33.371232
20
55.528727
11
32.155277
21
55.663833
0
LINE
8
Image
10
32.155277
20
55.663833
11
31.476930
21
55.762881
0
LINE
8
Image
10
31.476930
20
55.762881
11
31.081656
21
55.928384
0
LINE
8
Image
10
31.081656
20
55.928384
11
30.856624
21
56.248712
0
LINE
8
Image
10
30.856624
20
56.248712
11
30.689006
21
56.812236
0
LINE
8
Image
10
30.689006
20
56.812236
11
30.249256
21
57.785579
0
LINE
8
Image
10
30.249256
20
57.785579
11
30.067726
21
57.802388
0
LINE
8
Image
10
30.067726
20
57.802388
11
29.993579
21
57.432928
0
LINE
8
Image
10
29.993579
20
57.432928
11
29.679992
21
56.352079
0
LINE
8
Image
10
29.679992
20
56.352079
11
29.219559
21
55.793202
0
LINE
8
Image
10
29.219559
20
55.793202
11
28.271585
21
55.663833
0
LINE
8
Image
10
28.271585
20
55.663833
11
27.176762
21
55.663833
0
LINE
8
Image
10
27.176762
20
55.663833
11
28.088446
21
54.902726
0
LINE
8
Image
10
28.088446
20
54.902726
11
28.823638
21
54.121548
0
LINE
8
Image
10
28.823638
20
54.121548
11
28.840243
21
53.759790
0
LINE
8
Image
10
28.840243
20
53.759790
11
28.686216
21
53.241130
0
LINE
8
Image
10
28.686216
20
53.241130
11
28.405462
21
52.064810
0
LINE
8
Image
10
28.405462
20
52.064810
11
28.581722
21
52.031676
0
LINE
8
Image
10
28.581722
20
52.031676
11
28.980281
21
52.333984
0
LINE
8
Image
10
28.980281
20
52.333984
11
29.937701
21
53.079782
0
LINE
8
Image
10
29.937701
20
53.079782
11
29.937701
21
53.079782
0
LINE
8
Image
10
39.975729
20
53.231923
11
40.914970
21
52.660691
0
LINE
8
Image
10
40.914970
20
52.660691
11
41.437763
21
52.313522
0
LINE
8
Image
10
41.437763
20
52.313522
11
41.746397
21
52.246368
0
LINE
8
Image
10
41.746397
20
52.246368
11
41.819225
21
52.451402
0
LINE
8
Image
10
41.819225
20
52.451402
11
41.634604
21
52.920802
0
LINE
8
Image
10
41.634604
20
52.920802
11
41.388242
21
53.558815
0
LINE
8
Image
10
41.388242
20
53.558815
11
41.398737
21
54.099668
0
LINE
8
Image
10
41.398737
20
54.099668
11
41.673686
21
54.570286
0
LINE
8
Image
10
41.673686
20
54.570286
11
42.220689
21
54.997595
0
LINE
8
Image
10
42.220689
20
54.997595
11
43.098880
21
55.528727
0
LINE
8
Image
10
43.098880
20
55.528727
11
41.882923
21
55.663833
0
LINE
8
Image
10
41.882923
20
55.663833
11
41.204576
21
55.762881
0
LINE
8
Image
10
41.204576
20
55.762881
11
40.809303
21
55.928384
0
LINE
8
Image
10
40.809303
20
55.928384
11
40.584272
21
56.248712
0
LINE
8
Image
10
40.584272
20
56.248712
11
40.416654
21
56.812236
0
LINE
8
Image
10
40.416654
20
56.812236
11
39.991437
21
57.825533
0
LINE
8
Image
10
39.991437
20
57.825533
11
39.566221
21
56.812236
0
LINE
8
Image
10
39.566221
20
56.812236
11
39.398534
21
56.239404
0
LINE
8
Image
10
39.398534
20
56.239404
11
39.171113
21
55.927198
0
LINE
8
Image
10
39.171113
20
55.927198
11
38.753550
21
55.783425
0
LINE
8
Image
10
38.753550
20
55.783425
11
38.015434
21
55.715888
0
LINE
8
Image
10
38.015434
20
55.715888
11
36.714963
21
55.632837
0
LINE
8
Image
10
36.714963
20
55.632837
11
37.610116
21
55.024451
0
LINE
8
Image
10
37.610116
20
55.024451
11
38.158812
21
54.552809
0
LINE
8
Image
10
38.158812
20
54.552809
11
38.428471
21
54.022549
0
LINE
8
Image
10
38.428471
20
54.022549
11
38.440149
21
53.343137
0
LINE
8
Image
10
38.440149
20
53.343137
11
38.214903
21
52.424040
0
LINE
8
Image
10
38.214903
20
52.424040
11
38.003030
21
51.751266
0
LINE
8
Image
10
38.003030
20
51.751266
11
38.882858
21
52.491593
0
LINE
8
Image
10
38.882858
20
52.491593
11
39.975729
21
53.231923
0
LINE
8
Image
10
39.975729
20
53.231923
11
39.975729
21
53.231923
0
LINE
8
Image
10
49.392995
20
53.079782
11
49.917476
21
53.015234
0
LINE
8
Image
10
49.917476
20
53.015234
11
50.720365
21
52.532349
0
LINE
8
Image
10
50.720365
20
52.532349
11
51.698291
21
51.786450
0
LINE
8
Image
10
51.698291
20
51.786450
11
51.497509
21
52.441632
0
LINE
8
Image
10
51.497509
20
52.441632
11
51.215249
21
53.445051
0
LINE
8
Image
10
51.215249
20
53.445051
11
51.164544
21
54.056492
0
LINE
8
Image
10
51.164544
20
54.056492
11
51.376322
21
54.473408
0
LINE
8
Image
10
51.376322
20
54.473408
11
51.881512
21
54.893256
0
LINE
8
Image
10
51.881512
20
54.893256
11
52.745370
21
55.528727
0
LINE
8
Image
10
52.745370
20
55.528727
11
51.569992
21
55.663833
0
LINE
8
Image
10
51.569992
20
55.663833
11
50.917606
21
55.763535
0
LINE
8
Image
10
50.917606
20
55.763535
11
50.533622
21
55.930903
0
LINE
8
Image
10
50.533622
20
55.930903
11
50.311400
21
56.251837
0
LINE
8
Image
10
50.311400
20
56.251837
11
50.144299
21
56.812236
0
LINE
8
Image
10
50.144299
20
56.812236
11
49.704549
21
57.785579
0
LINE
8
Image
10
49.704549
20
57.785579
11
49.523019
21
57.802388
0
LINE
8
Image
10
49.523019
20
57.802388
11
49.448872
21
57.432928
0
LINE
8
Image
10
49.448872
20
57.432928
11
49.135286
21
56.352079
0
LINE
8
Image
10
49.135286
20
56.352079
11
48.674852
21
55.793202
0
LINE
8
Image
10
48.674852
20
55.793202
11
47.726879
21
55.663833
0
LINE
8
Image
10
47.726879
20
55.663833
11
46.632055
21
55.663833
0
LINE
8
Image
10
46.632055
20
55.663833
11
47.543739
21
54.902726
0
LINE
8
Image
10
47.543739
20
54.902726
11
48.278931
21
54.121548
0
LINE
8
Image
10
48.278931
20
54.121548
11
48.295537
21
53.759790
0
LINE
8
Image
10
48.295537
20
53.759790
11
48.141509
21
53.241130
0
LINE
8
Image
10
48.141509
20
53.241130
11
47.860755
21
52.064810
0
LINE
8
Image
10
47.860755
20
52.064810
11
48.037015
21
52.031676
0
LINE
8
Image
10
48.037015
20
52.031676
11
48.435575
21
52.333984
0
LINE
8
Image
10
48.435575
20
52.333984
11
49.392995
21
53.079782
0
LINE
8
Image
10
49.392995
20
53.079782
11
49.392995
21
53.079782
0
LINE
8
Image
10
59.446731
20
53.231923
11
60.555307
21
52.491593
0
LINE
8
Image
10
60.555307
20
52.491593
11
61.435138
21
51.751266
0
LINE
8
Image
10
61.435138
20
51.751266
11
61.245067
21
52.424040
0
LINE
8
Image
10
61.245067
20
52.424040
11
60.950584
21
53.549993
0
LINE
8
Image
10
60.950584
20
53.549993
11
60.898135
21
54.210084
0
LINE
8
Image
10
60.898135
20
54.210084
11
61.122054
21
54.618218
0
LINE
8
Image
10
61.122054
20
54.618218
11
61.656679
21
54.988302
0
LINE
8
Image
10
61.656679
20
54.988302
11
62.554173
21
55.528727
0
LINE
8
Image
10
62.554173
20
55.528727
11
61.338219
21
55.663833
0
LINE
8
Image
10
61.338219
20
55.663833
11
60.659871
21
55.762881
0
LINE
8
Image
10
60.659871
20
55.762881
11
60.264596
21
55.928384
0
LINE
8
Image
10
60.264596
20
55.928384
11
60.039565
21
56.248712
0
LINE
8
Image
10
60.039565
20
56.248712
11
59.871947
21
56.812236
0
LINE
8
Image
10
59.871947
20
56.812236
11
59.446731
21
57.825533
0
LINE
8
Image
10
59.446731
20
57.825533
11
59.021514
21
56.812236
0
LINE
8
Image
10
59.021514
20
56.812236
11
58.853827
21
56.239404
0
LINE
8
Image
10
58.853827
20
56.239404
11
58.626408
21
55.927198
0
LINE
8
Image
10
58.626408
20
55.927198
11
58.208845
21
55.783425
0
LINE
8
Image
10
58.208845
20
55.783425
11
57.470730
21
55.715888
0
LINE
8
Image
10
57.470730
20
55.715888
11
56.170257
21
55.632837
0
LINE
8
Image
10
56.170257
20
55.632837
11
57.065410
21
55.023105
0
LINE
8
Image
10
57.065410
20
55.023105
11
57.606360
21
54.579526
0
LINE
8
Image
10
57.606360
20
54.579526
11
57.868557
21
54.105770
0
LINE
8
Image
10
57.868557
20
54.105770
11
57.883749
21
53.475466
0
LINE
8
Image
10
57.883749
20
53.475466
11
57.683687
21
52.562245
0
LINE
8
Image
10
57.683687
20
52.562245
11
57.465687
21
51.757462
0
LINE
8
Image
10
57.465687
20
51.757462
11
58.341835
21
52.494691
0
LINE
8
Image
10
58.341835
20
52.494691
11
59.446731
21
53.231923
0
LINE
8
Image
10
59.446731
20
53.231923
11
59.446731
21
53.231923
0
LINE
8
Image
10
9.986467
20
52.725799
11
10.763828
21
53.300529
0
LINE
8
Image
10
10.763828
20
53.300529
11
11.570959
21
52.725799
0
LINE
8
Image
10
11.570959
20
52.725799
11
12.207211
21
52.300908
0
LINE
8
Image
10
12.207211
20
52.300908
11
12.509489
21
52.214477
0
LINE
8
Image
10
12.509489
20
52.214477
11
12.528016
21
52.497239
0
LINE
8
Image
10
12.528016
20
52.497239
11
12.313010
21
53.179927
0
LINE
8
Image
10
12.313010
20
53.179927
11
12.118619
21
53.784623
0
LINE
8
Image
10
12.118619
20
53.784623
11
12.116886
21
54.162500
0
LINE
8
Image
10
12.116886
20
54.162500
11
12.364232
21
54.471297
0
LINE
8
Image
10
12.364232
20
54.471297
11
12.917079
21
54.868754
0
LINE
8
Image
10
12.917079
20
54.868754
11
13.884150
21
55.528727
0
LINE
8
Image
10
13.884150
20
55.528727
11
12.626075
21
55.610696
0
LINE
8
Image
10
12.626075
20
55.610696
11
11.522326
21
55.814144
0
LINE
8
Image
10
11.522326
20
55.814144
11
11.318525
21
56.103428
0
LINE
8
Image
10
11.318525
20
56.103428
11
11.192723
21
56.626977
0
LINE
8
Image
10
11.192723
20
56.626977
11
11.000879
21
57.374564
0
LINE
8
Image
10
11.000879
20
57.374564
11
10.791917
21
57.641390
0
LINE
8
Image
10
10.791917
20
57.641390
11
10.559513
21
57.428224
0
LINE
8
Image
10
10.559513
20
57.428224
11
10.297345
21
56.735834
0
LINE
8
Image
10
10.297345
20
56.735834
11
10.091025
21
56.124841
0
LINE
8
Image
10
10.091025
20
56.124841
11
9.850959
21
55.805618
0
LINE
8
Image
10
9.850959
20
55.805618
11
9.436833
21
55.683502
0
LINE
8
Image
10
9.436833
20
55.683502
11
8.708331
21
55.663833
0
LINE
8
Image
10
8.708331
20
55.663833
11
7.440496
21
55.663833
0
LINE
8
Image
10
7.440496
20
55.663833
11
8.471902
21
54.962975
0
LINE
8
Image
10
8.471902
20
54.962975
11
9.077682
21
54.492069
0
LINE
8
Image
10
9.077682
20
54.492069
11
9.347409
21
54.042831
0
LINE
8
Image
10
9.347409
20
54.042831
11
9.317497
21
53.458294
0
LINE
8
Image
10
9.317497
20
53.458294
11
9.024359
21
52.581493
0
LINE
8
Image
10
9.024359
20
52.581493
11
8.950280
21
52.262798
0
LINE
8
Image
10
8.950280
20
52.262798
11
9.073979
21
52.178823
0
LINE
8
Image
10
9.073979
20
52.178823
11
9.986467
21
52.725799
0
LINE
8
Image
10
9.986467
20
52.725799
11
9.986467
21
52.725799
0
LINE
8
Image
10
11.585236
20
58.987737
11
12.582701
21
58.428817
0
LINE
8
Image
10
12.582701
20
58.428817
11
12.298558
21
59.530918
0
LINE
8
Image
10
12.298558
20
59.530918
11
11.890038
21
60.508644
0
LINE
8
Image
10
11.890038
20
60.508644
11
12.898161
21
61.193681
0
LINE
8
Image
10
12.898161
20
61.193681
11
13.532191
21
61.684327
0
LINE
8
Image
10
13.532191
20
61.684327
11
13.640899
21
61.901996
0
LINE
8
Image
10
13.640899
20
61.901996
11
12.453583
21
61.969549
0
LINE
8
Image
10
12.453583
20
61.969549
11
11.944730
21
62.027641
0
LINE
8
Image
10
11.944730
20
62.027641
11
11.614556
21
62.198036
0
LINE
8
Image
10
11.614556
20
62.198036
11
11.130143
21
63.214468
0
LINE
8
Image
10
11.130143
20
63.214468
11
10.728634
21
64.415111
0
LINE
8
Image
10
10.728634
20
64.415111
11
10.328296
21
63.160744
0
LINE
8
Image
10
10.328296
20
63.160744
11
10.079983
21
62.456541
0
LINE
8
Image
10
10.079983
20
62.456541
11
9.827327
21
62.071903
0
LINE
8
Image
10
9.827327
20
62.071903
11
9.446709
21
61.897748
0
LINE
8
Image
10
9.446709
20
61.897748
11
8.814506
21
61.824994
0
LINE
8
Image
10
8.814506
20
61.824994
11
7.701054
21
61.743613
0
LINE
8
Image
10
7.701054
20
61.743613
11
8.592021
21
61.204933
0
LINE
8
Image
10
8.592021
20
61.204933
11
9.255261
21
60.665488
0
LINE
8
Image
10
9.255261
20
60.665488
11
9.337217
21
60.124084
0
LINE
8
Image
10
9.337217
20
60.124084
11
9.005798
21
58.906382
0
LINE
8
Image
10
9.005798
20
58.906382
11
8.820150
21
58.230851
0
LINE
8
Image
10
8.820150
20
58.230851
11
9.766148
21
58.950942
0
LINE
8
Image
10
9.766148
20
58.950942
11
10.712146
21
59.671032
0
LINE
8
Image
10
10.712146
20
59.671032
11
11.585236
21
58.987737
0
LINE
8
Image
10
20.473862
20
59.446807
11
21.459676
21
58.875577
0
LINE
8
Image
10
21.459676
20
58.875577
11
21.990389
21
58.513144
0
LINE
8
Image
10
21.990389
20
58.513144
11
22.279358
21
58.458469
0
LINE
8
Image
10
22.279358
20
58.458469
11
22.334812
21
58.716408
0
LINE
8
Image
10
22.334812
20
58.716408
11
22.164978
21
59.291816
0
LINE
8
Image
10
22.164978
20
59.291816
11
21.944680
21
59.997788
0
LINE
8
Image
10
21.944680
20
59.997788
11
21.949466
21
60.495662
0
LINE
8
Image
10
21.949466
20
60.495662
11
22.212112
21
60.895460
0
LINE
8
Image
10
22.212112
20
60.895460
11
22.765396
21
61.307206
0
LINE
8
Image
10
22.765396
20
61.307206
11
23.508480
21
61.898991
0
LINE
8
Image
10
23.508480
20
61.898991
11
22.312780
21
61.977881
0
LINE
8
Image
10
22.312780
20
61.977881
11
21.393788
21
62.158254
0
LINE
8
Image
10
21.393788
20
62.158254
11
21.007863
21
62.831247
0
LINE
8
Image
10
21.007863
20
62.831247
11
20.515003
21
64.085525
0
LINE
8
Image
10
20.515003
20
64.085525
11
20.337161
21
63.898982
0
LINE
8
Image
10
20.337161
20
63.898982
11
20.108182
21
63.210855
0
LINE
8
Image
10
20.108182
20
63.210855
11
19.876935
21
62.502754
0
LINE
8
Image
10
19.876935
20
62.502754
11
19.645735
21
62.145236
0
LINE
8
Image
10
19.645735
20
62.145236
11
19.281378
21
62.033300
0
LINE
8
Image
10
19.281378
20
62.033300
11
18.650659
21
62.061948
0
LINE
8
Image
10
18.650659
20
62.061948
11
17.902187
21
62.052947
0
LINE
8
Image
10
17.902187
20
62.052947
11
17.606016
21
61.888421
0
LINE
8
Image
10
17.606016
20
61.888421
11
17.769208
21
61.592816
0
LINE
8
Image
10
17.769208
20
61.592816
11
18.398831
21
61.190577
0
LINE
8
Image
10
18.398831
20
61.190577
11
18.890249
21
60.911552
0
LINE
8
Image
10
18.890249
20
60.911552
11
19.087627
21
60.593661
0
LINE
8
Image
10
19.087627
20
60.593661
11
18.737236
21
58.923749
0
LINE
8
Image
10
18.737236
20
58.923749
11
18.555378
21
58.265586
0
LINE
8
Image
10
18.555378
20
58.265586
11
19.384814
21
58.856196
0
LINE
8
Image
10
19.384814
20
58.856196
11
20.473862
21
59.446807
0
LINE
8
Image
10
20.473862
20
59.446807
11
20.473862
21
59.446807
0
LINE
8
Image
10
31.040528
20
58.987737
11
31.656340
21
58.556899
0
LINE
8
Image
10
31.656340
20
58.556899
11
31.992420
21
58.459967
0
LINE
8
Image
10
31.992420
20
58.459967
11
32.065578
21
58.702940
0
LINE
8
Image
10
32.065578
20
58.702940
11
31.892626
21
59.291816
0
LINE
8
Image
10
31.892626
20
59.291816
11
31.672098
21
59.999373
0
LINE
8
Image
10
31.672098
20
59.999373
11
31.669993
21
60.497110
0
LINE
8
Image
10
31.669993
20
60.497110
11
31.912420
21
60.880788
0
LINE
8
Image
10
31.912420
20
60.880788
11
32.425491
21
61.246171
0
LINE
8
Image
10
32.425491
20
61.246171
11
33.236477
21
61.869425
0
LINE
8
Image
10
33.236477
20
61.869425
11
32.088073
21
62.013825
0
LINE
8
Image
10
32.088073
20
62.013825
11
31.438015
21
62.035357
0
LINE
8
Image
10
31.438015
20
62.035357
11
31.065101
21
62.155685
0
LINE
8
Image
10
31.065101
20
62.155685
11
30.853906
21
62.458408
0
LINE
8
Image
10
30.853906
20
62.458408
11
30.689006
21
63.027121
0
LINE
8
Image
10
30.689006
20
63.027121
11
30.258905
21
64.040418
0
LINE
8
Image
10
30.258905
20
64.040418
11
29.745461
21
62.926763
0
LINE
8
Image
10
29.745461
20
62.926763
11
29.535886
21
62.291820
0
LINE
8
Image
10
29.535886
20
62.291820
11
29.317279
21
61.976499
0
LINE
8
Image
10
29.317279
20
61.976499
11
28.964305
21
61.893447
0
LINE
8
Image
10
28.964305
20
61.893447
11
28.351627
21
61.955307
0
LINE
8
Image
10
28.351627
20
61.955307
11
27.620679
21
61.995169
0
LINE
8
Image
10
27.620679
20
61.995169
11
27.335290
21
61.866950
0
LINE
8
Image
10
27.335290
20
61.866950
11
27.498879
21
61.582246
0
LINE
8
Image
10
27.498879
20
61.582246
11
28.114867
21
61.152657
0
LINE
8
Image
10
28.114867
20
61.152657
11
28.722351
21
60.653830
0
LINE
8
Image
10
28.722351
20
60.653830
11
28.792509
21
60.124084
0
LINE
8
Image
10
28.792509
20
60.124084
11
28.461093
21
58.906382
0
LINE
8
Image
10
28.461093
20
58.906382
11
28.275443
21
58.230851
0
LINE
8
Image
10
28.275443
20
58.230851
11
29.221441
21
58.950942
0
LINE
8
Image
10
29.221441
20
58.950942
11
30.167439
21
59.671032
0
LINE
8
Image
10
30.167439
20
59.671032
11
31.040528
21
58.987737
0
LINE
8
Image
10
39.316804
20
59.178047
11
39.600281
21
59.403397
0
LINE
8
Image
10
39.600281
20
59.403397
11
40.005928
21
59.419288
0
LINE
8
Image
10
40.005928
20
59.419288
11
40.484376
21
59.235117
0
LINE
8
Image
10
40.484376
20
59.235117
11
40.986254
21
58.860281
0
LINE
8
Image
10
40.986254
20
58.860281
11
41.458439
21
58.488712
0
LINE
8
Image
10
41.458439
20
58.488712
11
41.727947
21
58.441164
0
LINE
8
Image
10
41.727947
20
58.441164
11
41.785112
21
58.711058
0
LINE
8
Image
10
41.785112
20
58.711058
11
41.620271
21
59.291816
0
LINE
8
Image
10
41.620271
20
59.291816
11
41.399743
21
59.999373
0
LINE
8
Image
10
41.399743
20
59.999373
11
41.397638
21
60.497110
0
LINE
8
Image
10
41.397638
20
60.497110
11
41.640066
21
60.880788
0
LINE
8
Image
10
41.640066
20
60.880788
11
42.153136
21
61.246171
0
LINE
8
Image
10
42.153136
20
61.246171
11
42.752323
21
61.645058
0
LINE
8
Image
10
42.752323
20
61.645058
11
42.904800
21
61.891880
0
LINE
8
Image
10
42.904800
20
61.891880
11
42.599601
21
62.013059
0
LINE
8
Image
10
42.599601
20
62.013059
11
41.825760
21
62.035018
0
LINE
8
Image
10
41.825760
20
62.035018
11
41.179845
21
62.043941
0
LINE
8
Image
10
41.179845
20
62.043941
11
40.811894
21
62.156822
0
LINE
8
Image
10
40.811894
20
62.156822
11
40.606400
21
62.456827
0
LINE
8
Image
10
40.606400
20
62.456827
11
40.447856
21
63.027121
0
LINE
8
Image
10
40.447856
20
63.027121
11
40.231446
21
63.668924
0
LINE
8
Image
10
40.231446
20
63.668924
11
39.993921
21
64.004264
0
LINE
8
Image
10
39.993921
20
64.004264
11
39.799313
21
63.986139
0
LINE
8
Image
10
39.799313
20
63.986139
11
39.711649
21
63.567546
0
LINE
8
Image
10
39.711649
20
63.567546
11
39.590104
21
62.915723
0
LINE
8
Image
10
39.590104
20
62.915723
11
39.271325
21
62.421455
0
LINE
8
Image
10
39.271325
20
62.421455
11
38.780221
21
62.109535
0
LINE
8
Image
10
38.780221
20
62.109535
11
38.141701
21
62.004758
0
LINE
8
Image
10
38.141701
20
62.004758
11
37.454575
21
61.970263
0
LINE
8
Image
10
37.454575
20
61.970263
11
37.184114
21
61.838480
0
LINE
8
Image
10
37.184114
20
61.838480
11
37.324998
21
61.593962
0
LINE
8
Image
10
37.324998
20
61.593962
11
37.871908
21
61.221260
0
LINE
8
Image
10
37.871908
20
61.221260
11
38.359900
21
60.839803
0
LINE
8
Image
10
38.359900
20
60.839803
11
38.570147
21
60.375922
0
LINE
8
Image
10
38.570147
20
60.375922
11
38.516550
21
59.731243
0
LINE
8
Image
10
38.516550
20
59.731243
11
38.213008
21
58.807394
0
LINE
8
Image
10
38.213008
20
58.807394
11
38.148011
21
58.440958
0
LINE
8
Image
10
38.148011
20
58.440958
11
38.584353
21
58.606188
0
LINE
8
Image
10
38.584353
20
58.606188
11
39.316804
21
59.178047
0
LINE
8
Image
10
39.316804
20
59.178047
11
39.316804
21
59.178047
0
LINE
8
Image
10
50.516748
20
59.012431
11
51.534114
21
58.469643
0
LINE
8
Image
10
51.534114
20
58.469643
11
51.347919
21
59.291816
0
LINE
8
Image
10
51.347919
20
59.291816
11
51.127622
21
59.997788
0
LINE
8
Image
10
51.127622
20
59.997788
11
51.132407
21
60.495662
0
LINE
8
Image
10
51.132407
20
60.495662
11
51.395053
21
60.895460
0
LINE
8
Image
10
51.395053
20
60.895460
11
51.948337
21
61.307206
0
LINE
8
Image
10
51.948337
20
61.307206
11
52.489184
21
61.712582
0
LINE
8
Image
10
52.489184
20
61.712582
11
52.556315
21
61.897444
0
LINE
8
Image
10
52.556315
20
61.897444
11
51.340357
21
61.969549
0
LINE
8
Image
10
51.340357
20
61.969549
11
50.824341
21
62.022773
0
LINE
8
Image
10
50.824341
20
62.022773
11
50.506384
21
62.169566
0
LINE
8
Image
10
50.506384
20
62.169566
11
50.144299
21
63.027121
0
LINE
8
Image
10
50.144299
20
63.027121
11
49.714198
21
64.040418
0
LINE
8
Image
10
49.714198
20
64.040418
11
49.204810
21
62.940297
0
LINE
8
Image
10
49.204810
20
62.940297
11
48.788462
21
62.014980
0
LINE
8
Image
10
48.788462
20
62.014980
11
48.473425
21
61.902275
0
LINE
8
Image
10
48.473425
20
61.902275
11
47.960577
21
61.918976
0
LINE
8
Image
10
47.960577
20
61.918976
11
47.244407
21
61.940093
0
LINE
8
Image
10
47.244407
20
61.940093
11
46.947754
21
61.835032
0
LINE
8
Image
10
46.947754
20
61.835032
11
47.064037
21
61.591062
0
LINE
8
Image
10
47.064037
20
61.591062
11
47.586679
21
61.195453
0
LINE
8
Image
10
47.586679
20
61.195453
11
48.066608
21
60.788919
0
LINE
8
Image
10
48.066608
20
60.788919
11
48.274046
21
60.317555
0
LINE
8
Image
10
48.274046
20
60.317555
11
48.223447
21
59.679096
0
LINE
8
Image
10
48.223447
20
59.679096
11
47.929261
21
58.771276
0
LINE
8
Image
10
47.929261
20
58.771276
11
47.849934
21
58.507996
0
LINE
8
Image
10
47.849934
20
58.507996
11
47.915154
21
58.441342
0
LINE
8
Image
10
47.915154
20
58.441342
11
48.656912
21
58.938822
0
LINE
8
Image
10
48.656912
20
58.938822
11
49.590956
21
59.646794
0
LINE
8
Image
10
49.590956
20
59.646794
11
50.516748
21
59.012431
0
LINE
8
Image
10
58.772097
20
59.178047
11
59.055574
21
59.403397
0
LINE
8
Image
10
59.055574
20
59.403397
11
59.461222
21
59.419288
0
LINE
8
Image
10
59.461222
20
59.419288
11
59.939669
21
59.235117
0
LINE
8
Image
10
59.939669
20
59.235117
11
60.441547
21
58.860281
0
LINE
8
Image
10
60.441547
20
58.860281
11
60.913732
21
58.488712
0
LINE
8
Image
10
60.913732
20
58.488712
11
61.183240
21
58.441164
0
LINE
8
Image
10
61.183240
20
58.441164
11
61.240406
21
58.711058
0
LINE
8
Image
10
61.240406
20
58.711058
11
61.075564
21
59.291816
0
LINE
8
Image
10
61.075564
20
59.291816
11
60.855037
21
59.999373
0
LINE
8
Image
10
60.855037
20
59.999373
11
60.852931
21
60.497110
0
LINE
8
Image
10
60.852931
20
60.497110
11
61.095359
21
60.880788
0
LINE
8
Image
10
61.095359
20
60.880788
11
61.608429
21
61.246171
0
LINE
8
Image
10
61.608429
20
61.246171
11
62.209364
21
61.648012
0
LINE
8
Image
10
62.209364
20
61.648012
11
62.360293
21
61.898091
0
LINE
8
Image
10
62.360293
20
61.898091
11
62.050850
21
62.020791
0
LINE
8
Image
10
62.050850
20
62.020791
11
61.270665
21
62.040495
0
LINE
8
Image
10
61.270665
20
62.040495
11
60.618028
21
62.046110
0
LINE
8
Image
10
60.618028
20
62.046110
11
60.245913
21
62.157011
0
LINE
8
Image
10
60.245913
20
62.157011
11
60.036494
21
62.456311
0
LINE
8
Image
10
60.036494
20
62.456311
11
59.871947
21
63.027121
0
LINE
8
Image
10
59.871947
20
63.027121
11
59.425919
21
64.040418
0
LINE
8
Image
10
59.425919
20
64.040418
11
58.990312
21
63.027121
0
LINE
8
Image
10
58.990312
20
63.027121
11
58.831768
21
62.456827
0
LINE
8
Image
10
58.831768
20
62.456827
11
58.626274
21
62.156822
0
LINE
8
Image
10
58.626274
20
62.156822
11
58.258324
21
62.043941
0
LINE
8
Image
10
58.258324
20
62.043941
11
57.612409
21
62.035018
0
LINE
8
Image
10
57.612409
20
62.035018
11
56.474395
21
61.890619
0
LINE
8
Image
10
56.474395
20
61.890619
11
57.312506
21
61.229941
0
LINE
8
Image
10
57.312506
20
61.229941
11
57.809788
21
60.844123
0
LINE
8
Image
10
57.809788
20
60.844123
11
58.024939
21
60.379221
0
LINE
8
Image
10
58.024939
20
60.379221
11
57.972824
21
59.734042
0
LINE
8
Image
10
57.972824
20
59.734042
11
57.668302
21
58.807394
0
LINE
8
Image
10
57.668302
20
58.807394
11
57.603304
21
58.440958
0
LINE
8
Image
10
57.603304
20
58.440958
11
58.039647
21
58.606188
0
LINE
8
Image
10
58.039647
20
58.606188
11
58.772097
21
59.178047
0
LINE
8
Image
10
58.772097
20
59.178047
11
58.772097
21
59.178047
0
LINE
8
Image
10
16.352927
20
64.930348
11
17.165050
21
64.445287
0
LINE
8
Image
10
17.165050
20
64.445287
11
17.250740
21
64.501706
0
LINE
8
Image
10
17.250740
20
64.501706
11
17.183729
21
64.743751
0
LINE
8
Image
10
17.183729
20
64.743751
11
16.893479
21
65.634908
0
LINE
8
Image
10
16.893479
20
65.634908
11
16.847907
21
66.266455
0
LINE
8
Image
10
16.847907
20
66.266455
11
17.062204
21
66.737678
0
LINE
8
Image
10
17.062204
20
66.737678
11
17.551560
21
67.147861
0
LINE
8
Image
10
17.551560
20
67.147861
11
18.378972
21
67.688286
0
LINE
8
Image
10
18.378972
20
67.688286
11
17.237083
21
67.823392
0
LINE
8
Image
10
17.237083
20
67.823392
11
16.605299
21
67.923454
0
LINE
8
Image
10
16.605299
20
67.923454
11
16.232408
21
68.091851
0
LINE
8
Image
10
16.232408
20
68.091851
11
16.016812
21
68.413119
0
LINE
8
Image
10
16.016812
20
68.413119
11
15.856915
21
68.971794
0
LINE
8
Image
10
15.856915
20
68.971794
11
15.625024
21
69.687435
0
LINE
8
Image
10
15.625024
20
69.687435
11
15.402107
21
69.985091
0
LINE
8
Image
10
15.402107
20
69.985091
11
15.177434
21
69.687435
0
LINE
8
Image
10
15.177434
20
69.687435
11
14.941321
21
68.971794
0
LINE
8
Image
10
14.941321
20
68.971794
11
14.780580
21
68.400560
0
LINE
8
Image
10
14.780580
20
68.400560
11
14.575148
21
68.102920
0
LINE
8
Image
10
14.575148
20
68.102920
11
14.208327
21
67.996469
0
LINE
8
Image
10
14.208327
20
67.996469
11
13.563416
21
67.998800
0
LINE
8
Image
10
13.563416
20
67.998800
11
12.788667
21
67.984049
0
LINE
8
Image
10
12.788667
20
67.984049
11
12.485824
21
67.854769
0
LINE
8
Image
10
12.485824
20
67.854769
11
12.647894
21
67.591457
0
LINE
8
Image
10
12.647894
20
67.591457
11
13.267883
21
67.174614
0
LINE
8
Image
10
13.267883
20
67.174614
11
13.766978
21
66.788639
0
LINE
8
Image
10
13.766978
20
66.788639
11
13.980603
21
66.322590
0
LINE
8
Image
10
13.980603
20
66.322590
11
13.923969
21
65.667888
0
LINE
8
Image
10
13.923969
20
65.667888
11
13.612285
21
64.715949
0
LINE
8
Image
10
13.612285
20
64.715949
11
13.535944
21
64.456534
0
LINE
8
Image
10
13.535944
20
64.456534
11
13.606698
21
64.393913
0
LINE
8
Image
10
13.606698
20
64.393913
11
14.364911
21
64.902546
0
LINE
8
Image
10
14.364911
20
64.902546
11
15.323932
21
65.629568
0
LINE
8
Image
10
15.323932
20
65.629568
11
16.352927
21
64.930348
0
LINE
8
Image
10
26.077140
20
64.898040
11
26.633719
21
64.513380
0
LINE
8
Image
10
26.633719
20
64.513380
11
26.924503
21
64.462778
0
LINE
8
Image
10
26.924503
20
64.462778
11
26.967888
21
64.759799
0
LINE
8
Image
10
26.967888
20
64.759799
11
26.782271
21
65.418009
0
LINE
8
Image
10
26.782271
20
65.418009
11
26.560818
21
66.096951
0
LINE
8
Image
10
26.560818
20
66.096951
11
26.540563
21
66.495544
0
LINE
8
Image
10
26.540563
20
66.495544
11
26.773134
21
66.779850
0
LINE
8
Image
10
26.773134
20
66.779850
11
27.310162
21
67.115929
0
LINE
8
Image
10
27.310162
20
67.115929
11
27.841056
21
67.487254
0
LINE
8
Image
10
27.841056
20
67.487254
11
27.944185
21
67.736772
0
LINE
8
Image
10
27.944185
20
67.736772
11
27.609451
21
67.881683
0
LINE
8
Image
10
27.609451
20
67.881683
11
26.826753
21
67.939186
0
LINE
8
Image
10
26.826753
20
67.939186
11
26.273892
21
67.975991
0
LINE
8
Image
10
26.273892
20
67.975991
11
25.943513
21
68.109957
0
LINE
8
Image
10
25.943513
20
68.109957
11
25.744856
21
68.416689
0
LINE
8
Image
10
25.744856
20
68.416689
11
25.587159
21
68.971794
0
LINE
8
Image
10
25.587159
20
68.971794
11
25.353434
21
69.687435
0
LINE
8
Image
10
25.353434
20
69.687435
11
25.129754
21
69.985091
0
LINE
8
Image
10
25.129754
20
69.985091
11
24.904573
21
69.687435
0
LINE
8
Image
10
24.904573
20
69.687435
11
24.667237
21
68.971794
0
LINE
8
Image
10
24.667237
20
68.971794
11
24.505665
21
68.399911
0
LINE
8
Image
10
24.505665
20
68.399911
11
24.300472
21
68.103611
0
LINE
8
Image
10
24.300472
20
68.103611
11
23.934186
21
68.000869
0
LINE
8
Image
10
23.934186
20
68.000869
11
23.289332
21
68.009657
0
LINE
8
Image
10
23.289332
20
68.009657
11
22.517883
21
68.002900
0
LINE
8
Image
10
22.517883
20
68.002900
11
22.215840
21
67.874209
0
LINE
8
Image
10
22.215840
20
67.874209
11
22.374046
21
67.597793
0
LINE
8
Image
10
22.374046
20
67.597793
11
22.983343
21
67.147861
0
LINE
8
Image
10
22.983343
20
67.147861
11
23.470253
21
66.737901
0
LINE
8
Image
10
23.470253
20
66.737901
11
23.683872
21
66.267018
0
LINE
8
Image
10
23.683872
20
66.267018
11
23.639196
21
65.637539
0
LINE
8
Image
10
23.639196
20
65.637539
11
23.351219
21
64.751792
0
LINE
8
Image
10
23.351219
20
64.751792
11
23.277212
21
64.497845
0
LINE
8
Image
10
23.277212
20
64.497845
11
23.360480
21
64.427590
0
LINE
8
Image
10
23.360480
20
64.427590
11
24.238430
21
64.870114
0
LINE
8
Image
10
24.238430
20
64.870114
11
25.320748
21
65.493017
0
LINE
8
Image
10
25.320748
20
65.493017
11
26.077140
21
64.898040
0
LINE
8
Image
10
34.182769
20
65.122721
11
34.455012
21
65.343504
0
LINE
8
Image
10
34.455012
20
65.343504
11
34.861193
21
65.361499
0
LINE
8
Image
10
34.861193
20
65.361499
11
36.008730
21
64.800869
0
LINE
8
Image
10
36.008730
20
64.800869
11
36.838166
21
64.210259
0
LINE
8
Image
10
36.838166
20
64.210259
11
36.656308
21
64.868422
0
LINE
8
Image
10
36.656308
20
64.868422
11
36.396529
21
65.872010
0
LINE
8
Image
10
36.396529
20
65.872010
11
36.354344
21
66.453325
0
LINE
8
Image
10
36.354344
20
66.453325
11
36.568724
21
66.828937
0
LINE
8
Image
10
36.568724
20
66.828937
11
37.078640
21
67.215414
0
LINE
8
Image
10
37.078640
20
67.215414
11
37.957233
21
67.823392
0
LINE
8
Image
10
37.957233
20
67.823392
11
36.823482
21
67.823392
0
LINE
8
Image
10
36.823482
20
67.823392
11
36.180209
21
67.846334
0
LINE
8
Image
10
36.180209
20
67.846334
11
35.803069
21
67.974641
0
LINE
8
Image
10
35.803069
20
67.974641
11
35.571740
21
68.297536
0
LINE
8
Image
10
35.571740
20
68.297536
11
35.365902
21
68.904241
0
LINE
8
Image
10
35.365902
20
68.904241
11
34.862287
21
69.985091
0
LINE
8
Image
10
34.862287
20
69.985091
11
34.430183
21
68.971794
0
LINE
8
Image
10
34.430183
20
68.971794
11
34.264470
21
68.401521
0
LINE
8
Image
10
34.264470
20
68.401521
11
34.054295
21
68.101769
0
LINE
8
Image
10
34.054295
20
68.101769
11
33.682384
21
67.989536
0
LINE
8
Image
10
33.682384
20
67.989536
11
33.031465
21
67.981820
0
LINE
8
Image
10
33.031465
20
67.981820
11
31.885064
21
67.837420
0
LINE
8
Image
10
31.885064
20
67.837420
11
32.723178
21
67.174614
0
LINE
8
Image
10
32.723178
20
67.174614
11
33.220459
21
66.788796
0
LINE
8
Image
10
33.220459
20
66.788796
11
33.435610
21
66.323894
0
LINE
8
Image
10
33.435610
20
66.323894
11
33.383493
21
65.678715
0
LINE
8
Image
10
33.383493
20
65.678715
11
33.078971
21
64.752067
0
LINE
8
Image
10
33.078971
20
64.752067
11
33.013975
21
64.385631
0
LINE
8
Image
10
33.013975
20
64.385631
11
33.450319
21
64.550861
0
LINE
8
Image
10
33.450319
20
64.550861
11
34.182769
21
65.122721
0
LINE
8
Image
10
34.182769
20
65.122721
11
34.182769
21
65.122721
0
LINE
8
Image
10
45.652783
20
64.860393
11
46.372037
21
64.413053
0
LINE
8
Image
10
46.372037
20
64.413053
11
46.442301
21
64.484804
0
LINE
8
Image
10
46.442301
20
64.484804
11
46.385332
21
64.742978
0
LINE
8
Image
10
46.385332
20
64.742978
11
46.103947
21
65.767892
0
LINE
8
Image
10
46.103947
20
65.767892
11
46.050140
21
66.379573
0
LINE
8
Image
10
46.050140
20
66.379573
11
46.251089
21
66.761545
0
LINE
8
Image
10
46.251089
20
66.761545
11
46.733970
21
67.097330
0
LINE
8
Image
10
46.733970
20
67.097330
11
47.344238
21
67.512020
0
LINE
8
Image
10
47.344238
20
67.512020
11
47.508933
21
67.775894
0
LINE
8
Image
10
47.508933
20
67.775894
11
47.226491
21
67.894028
0
LINE
8
Image
10
47.226491
20
67.894028
11
46.495348
21
67.871498
0
LINE
8
Image
10
46.495348
20
67.871498
11
45.885825
21
67.835020
0
LINE
8
Image
10
45.885825
20
67.835020
11
45.531176
21
67.932205
0
LINE
8
Image
10
45.531176
20
67.932205
11
45.310154
21
68.250576
0
LINE
8
Image
10
45.310154
20
68.250576
11
45.101514
21
68.877654
0
LINE
8
Image
10
45.101514
20
68.877654
11
44.589932
21
69.985091
0
LINE
8
Image
10
44.589932
20
69.985091
11
44.159831
21
68.971794
0
LINE
8
Image
10
44.159831
20
68.971794
11
43.995212
21
68.401421
0
LINE
8
Image
10
43.995212
20
68.401421
11
43.785435
21
68.101424
0
LINE
8
Image
10
43.785435
20
68.101424
11
43.413177
21
67.988586
0
LINE
8
Image
10
43.413177
20
67.988586
11
42.761113
21
67.979691
0
LINE
8
Image
10
42.761113
20
67.979691
11
41.613487
21
67.844585
0
LINE
8
Image
10
41.613487
20
67.844585
11
42.438637
21
67.147861
0
LINE
8
Image
10
42.438637
20
67.147861
11
42.923043
21
66.739823
0
LINE
8
Image
10
42.923043
20
66.739823
11
43.138417
21
66.272435
0
LINE
8
Image
10
43.138417
20
66.272435
11
43.099716
21
65.653764
0
LINE
8
Image
10
43.099716
20
65.653764
11
42.821893
21
64.791876
0
LINE
8
Image
10
42.821893
20
64.791876
11
42.763850
21
64.568521
0
LINE
8
Image
10
42.763850
20
64.568521
11
42.857945
21
64.509161
0
LINE
8
Image
10
42.857945
20
64.509161
11
43.704529
21
64.909291
0
LINE
8
Image
10
43.704529
20
64.909291
11
44.766893
21
65.491204
0
LINE
8
Image
10
44.766893
20
65.491204
11
45.652783
21
64.860393
0
LINE
8
Image
10
53.638062
20
65.122721
11
53.910305
21
65.343504
0
LINE
8
Image
10
53.910305
20
65.343504
11
54.316486
21
65.361499
0
LINE
8
Image
10
54.316486
20
65.361499
11
55.464024
21
64.800869
0
LINE
8
Image
10
55.464024
20
64.800869
11
56.293460
21
64.210259
0
LINE
8
Image
10
56.293460
20
64.210259
11
56.111604
21
64.868422
0
LINE
8
Image
10
56.111604
20
64.868422
11
55.783973
21
66.068757
0
LINE
8
Image
10
55.783973
20
66.068757
11
55.854134
21
66.598503
0
LINE
8
Image
10
55.854134
20
66.598503
11
56.461618
21
67.097330
0
LINE
8
Image
10
56.461618
20
67.097330
11
57.070949
21
67.511335
0
LINE
8
Image
10
57.070949
20
67.511335
11
57.237233
21
67.775427
0
LINE
8
Image
10
57.237233
20
67.775427
11
56.959100
21
67.894303
0
LINE
8
Image
10
56.959100
20
67.894303
11
56.235175
21
67.872659
0
LINE
8
Image
10
56.235175
20
67.872659
11
55.631355
21
67.838196
0
LINE
8
Image
10
55.631355
20
67.838196
11
55.271869
21
67.943484
0
LINE
8
Image
10
55.271869
20
67.943484
11
55.030359
21
68.281787
0
LINE
8
Image
10
55.030359
20
68.281787
11
54.780466
21
68.946368
0
LINE
8
Image
10
54.780466
20
68.946368
11
54.438894
21
69.714480
0
LINE
8
Image
10
54.438894
20
69.714480
11
54.311549
21
69.812638
0
LINE
8
Image
10
54.311549
20
69.812638
11
54.217065
21
69.714879
0
LINE
8
Image
10
54.217065
20
69.714879
11
53.794280
21
68.585686
0
LINE
8
Image
10
53.794280
20
68.585686
11
53.619700
21
68.203482
0
LINE
8
Image
10
53.619700
20
68.203482
11
53.391689
21
67.995376
0
LINE
8
Image
10
53.391689
20
67.995376
11
52.435199
21
67.939795
0
LINE
8
Image
10
52.435199
20
67.939795
11
51.683609
21
67.952852
0
LINE
8
Image
10
51.683609
20
67.952852
11
51.394000
21
67.840729
0
LINE
8
Image
10
51.394000
20
67.840729
11
51.560809
21
67.586844
0
LINE
8
Image
10
51.560809
20
67.586844
11
52.178472
21
67.174614
0
LINE
8
Image
10
52.178472
20
67.174614
11
52.675752
21
66.788796
0
LINE
8
Image
10
52.675752
20
66.788796
11
52.890903
21
66.323894
0
LINE
8
Image
10
52.890903
20
66.323894
11
52.838787
21
65.678715
0
LINE
8
Image
10
52.838787
20
65.678715
11
52.534264
21
64.752067
0
LINE
8
Image
10
52.534264
20
64.752067
11
52.469269
21
64.385631
0
LINE
8
Image
10
52.469269
20
64.385631
11
52.905612
21
64.550861
0
LINE
8
Image
10
52.905612
20
64.550861
11
53.638062
21
65.122721
0
LINE
8
Image
10
53.638062
20
65.122721
11
53.638062
21
65.122721
 0 
ENDSEC
 0 
EOF