999
"DXF R12 Output" (www.mydxf.blogspot.com)
 0 
SECTION
 2 
HEADER
 9 
$ACADVER
 1 
AC1009
 9 
$EXTMIN
 10 
 0 
 20 
 0 
 9 
$EXTMAX
 10 
 8.5 
 20 
 11 
 0 
ENDSEC
 0 
SECTION
 2 
ENTITIES
0
LINE
8
Image
10
45.598377
20
0.774399
11
43.170598
21
1.299813
0
LINE
8
Image
10
43.170598
20
1.299813
11
40.816300
21
1.488773
0
LINE
8
Image
10
40.816300
20
1.488773
11
37.810335
21
1.347765
0
LINE
8
Image
10
37.810335
20
1.347765
11
33.427556
21
0.883275
0
LINE
8
Image
10
33.427556
20
0.883275
11
30.644576
21
0.657796
0
LINE
8
Image
10
30.644576
20
0.657796
11
27.602868
21
0.593510
0
LINE
8
Image
10
27.602868
20
0.593510
11
21.065854
21
0.918899
0
LINE
8
Image
10
21.065854
20
0.918899
11
14.461679
21
1.800199
0
LINE
8
Image
10
14.461679
20
1.800199
11
11.336019
21
2.430803
0
LINE
8
Image
10
11.336019
20
2.430803
11
8.435506
21
3.178170
0
LINE
8
Image
10
8.435506
20
3.178170
11
5.051569
21
4.323420
0
LINE
8
Image
10
5.051569
20
4.323420
11
2.795240
21
5.496648
0
LINE
8
Image
10
2.795240
20
5.496648
11
2.050517
21
6.121399
0
LINE
8
Image
10
2.050517
20
6.121399
11
1.540401
21
6.786319
0
LINE
8
Image
10
1.540401
20
6.786319
11
1.249128
21
7.502466
0
LINE
8
Image
10
1.249128
20
7.502466
11
1.160932
21
8.280899
0
LINE
8
Image
10
1.160932
20
8.280899
11
1.319529
21
9.643209
0
LINE
8
Image
10
1.319529
20
9.643209
11
1.877780
21
10.618891
0
LINE
8
Image
10
1.877780
20
10.618891
11
3.007553
21
11.385320
0
LINE
8
Image
10
3.007553
20
11.385320
11
4.880715
21
12.119871
0
LINE
8
Image
10
4.880715
20
12.119871
11
6.853924
21
12.901428
0
LINE
8
Image
10
6.853924
20
12.901428
11
8.769502
21
13.883494
0
LINE
8
Image
10
8.769502
20
13.883494
11
10.597679
21
15.041140
0
LINE
8
Image
10
10.597679
20
15.041140
11
12.308682
21
16.349438
0
LINE
8
Image
10
12.308682
20
16.349438
11
13.872740
21
17.783459
0
LINE
8
Image
10
13.872740
20
17.783459
11
15.260082
21
19.318275
0
LINE
8
Image
10
15.260082
20
19.318275
11
16.440936
21
20.928956
0
LINE
8
Image
10
16.440936
20
20.928956
11
17.385531
21
22.590574
0
LINE
8
Image
10
17.385531
20
22.590574
11
18.198168
21
24.656874
0
LINE
8
Image
10
18.198168
20
24.656874
11
18.727485
21
26.910928
0
LINE
8
Image
10
18.727485
20
26.910928
11
18.965662
21
29.305374
0
LINE
8
Image
10
18.965662
20
29.305374
11
18.904881
21
31.792853
0
LINE
8
Image
10
18.904881
20
31.792853
11
18.689083
21
34.345748
0
LINE
8
Image
10
18.689083
20
34.345748
11
17.314671
21
34.965520
0
LINE
8
Image
10
17.314671
20
34.965520
11
16.121416
21
35.695461
0
LINE
8
Image
10
16.121416
20
35.695461
11
14.904560
21
36.769945
0
LINE
8
Image
10
14.904560
20
36.769945
11
13.796633
21
38.054492
0
LINE
8
Image
10
13.796633
20
38.054492
11
12.930162
21
39.414619
0
LINE
8
Image
10
12.930162
20
39.414619
11
12.261613
21
41.120077
0
LINE
8
Image
10
12.261613
20
41.120077
11
11.504373
21
43.580824
0
LINE
8
Image
10
11.504373
20
43.580824
11
10.584803
21
46.252848
0
LINE
8
Image
10
10.584803
20
46.252848
11
10.051465
21
47.069391
0
LINE
8
Image
10
10.051465
20
47.069391
11
9.327952
21
47.814152
0
LINE
8
Image
10
9.327952
20
47.814152
11
7.961567
21
49.155011
0
LINE
8
Image
10
7.961567
20
49.155011
11
7.523026
21
49.822731
0
LINE
8
Image
10
7.523026
20
49.822731
11
7.195533
21
50.667181
0
LINE
8
Image
10
7.195533
20
50.667181
11
6.717528
21
53.421884
0
LINE
8
Image
10
6.717528
20
53.421884
11
6.215230
21
58.490341
0
LINE
8
Image
10
6.215230
20
58.490341
11
6.208672
21
60.427884
0
LINE
8
Image
10
6.208672
20
60.427884
11
6.584310
21
62.167389
0
LINE
8
Image
10
6.584310
20
62.167389
11
6.963055
21
63.634711
0
LINE
8
Image
10
6.963055
20
63.634711
11
6.879220
21
64.033697
0
LINE
8
Image
10
6.879220
20
64.033697
11
6.615880
21
64.395352
0
LINE
8
Image
10
6.615880
20
64.395352
11
6.222619
21
65.090628
0
LINE
8
Image
10
6.222619
20
65.090628
11
6.119230
21
66.006534
0
LINE
8
Image
10
6.119230
20
66.006534
11
6.306847
21
67.171040
0
LINE
8
Image
10
6.306847
20
67.171040
11
6.786601
21
68.612115
0
LINE
8
Image
10
6.786601
20
68.612115
11
7.211222
21
70.031066
0
LINE
8
Image
10
7.211222
20
70.031066
11
7.126448
21
71.106023
0
LINE
8
Image
10
7.126448
20
71.106023
11
6.455793
21
72.040431
0
LINE
8
Image
10
6.455793
20
72.040431
11
5.122772
21
73.037734
0
LINE
8
Image
10
5.122772
20
73.037734
11
3.775214
21
74.052497
0
LINE
8
Image
10
3.775214
20
74.052497
11
2.825383
21
75.006078
0
LINE
8
Image
10
2.825383
20
75.006078
11
2.226962
21
76.106590
0
LINE
8
Image
10
2.226962
20
76.106590
11
1.840429
21
77.401163
0
LINE
8
Image
10
1.840429
20
77.401163
11
1.700768
21
78.716288
0
LINE
8
Image
10
1.700768
20
78.716288
11
1.842964
21
79.878458
0
LINE
8
Image
10
1.842964
20
79.878458
11
1.968752
21
81.129702
0
LINE
8
Image
10
1.968752
20
81.129702
11
1.660573
21
82.664104
0
LINE
8
Image
10
1.660573
20
82.664104
11
1.314382
21
84.356282
0
LINE
8
Image
10
1.314382
20
84.356282
11
1.173245
21
86.312126
0
LINE
8
Image
10
1.173245
20
86.312126
11
1.241987
21
88.270694
0
LINE
8
Image
10
1.241987
20
88.270694
11
1.525435
21
89.971046
0
LINE
8
Image
10
1.525435
20
89.971046
11
2.296162
21
92.003924
0
LINE
8
Image
10
2.296162
20
92.003924
11
3.625305
21
94.909926
0
LINE
8
Image
10
3.625305
20
94.909926
11
4.540944
21
96.868513
0
LINE
8
Image
10
4.540944
20
96.868513
11
5.109295
21
98.393850
0
LINE
8
Image
10
5.109295
20
98.393850
11
5.448548
21
99.877814
0
LINE
8
Image
10
5.448548
20
99.877814
11
5.676893
21
101.712284
0
LINE
8
Image
10
5.676893
20
101.712284
11
6.005236
21
103.845452
0
LINE
8
Image
10
6.005236
20
103.845452
11
6.562648
21
105.828827
0
LINE
8
Image
10
6.562648
20
105.828827
11
7.367277
21
107.688248
0
LINE
8
Image
10
7.367277
20
107.688248
11
8.437274
21
109.449554
0
LINE
8
Image
10
8.437274
20
109.449554
11
9.790788
21
111.138584
0
LINE
8
Image
10
9.790788
20
111.138584
11
11.445968
21
112.781177
0
LINE
8
Image
10
11.445968
20
112.781177
11
13.420963
21
114.403173
0
LINE
8
Image
10
13.420963
20
114.403173
11
15.733922
21
116.030409
0
LINE
8
Image
10
15.733922
20
116.030409
11
18.326245
21
117.960590
0
LINE
8
Image
10
18.326245
20
117.960590
11
19.963425
21
119.671175
0
LINE
8
Image
10
19.963425
20
119.671175
11
21.115120
21
121.002444
0
LINE
8
Image
10
21.115120
20
121.002444
11
22.537069
21
121.941678
0
LINE
8
Image
10
22.537069
20
121.941678
11
24.480352
21
122.608720
0
LINE
8
Image
10
24.480352
20
122.608720
11
27.196050
21
123.123415
0
LINE
8
Image
10
27.196050
20
123.123415
11
30.581993
21
123.842544
0
LINE
8
Image
10
30.581993
20
123.842544
11
33.636461
21
125.067176
0
LINE
8
Image
10
33.636461
20
125.067176
11
35.628983
21
125.945056
0
LINE
8
Image
10
35.628983
20
125.945056
11
37.215842
21
126.375765
0
LINE
8
Image
10
37.215842
20
126.375765
11
38.754741
21
126.412835
0
LINE
8
Image
10
38.754741
20
126.412835
11
40.603383
21
126.109796
0
LINE
8
Image
10
40.603383
20
126.109796
11
42.262095
21
125.917824
0
LINE
8
Image
10
42.262095
20
125.917824
11
43.662437
21
126.286185
0
LINE
8
Image
10
43.662437
20
126.286185
11
45.244996
21
126.674686
0
LINE
8
Image
10
45.244996
20
126.674686
11
47.201102
21
126.836274
0
LINE
8
Image
10
47.201102
20
126.836274
11
49.680565
21
127.052421
0
LINE
8
Image
10
49.680565
20
127.052421
11
52.521408
21
127.572093
0
LINE
8
Image
10
52.521408
20
127.572093
11
54.300623
21
127.969707
0
LINE
8
Image
10
54.300623
20
127.969707
11
55.506558
21
128.122131
0
LINE
8
Image
10
55.506558
20
128.122131
11
56.571846
21
128.043403
0
LINE
8
Image
10
56.571846
20
128.043403
11
57.929117
21
127.747559
0
LINE
8
Image
10
57.929117
20
127.747559
11
60.017204
21
127.328583
0
LINE
8
Image
10
60.017204
20
127.328583
11
61.680762
21
127.234639
0
LINE
8
Image
10
61.680762
20
127.234639
11
63.161598
21
127.477152
0
LINE
8
Image
10
63.161598
20
127.477152
11
64.701518
21
128.067549
0
LINE
8
Image
10
64.701518
20
128.067549
11
66.280029
21
128.659057
0
LINE
8
Image
10
66.280029
20
128.659057
11
67.760371
21
128.908475
0
LINE
8
Image
10
67.760371
20
128.908475
11
69.178083
21
128.817751
0
LINE
8
Image
10
69.178083
20
128.817751
11
70.568705
21
128.388829
0
LINE
8
Image
10
70.568705
20
128.388829
11
72.272222
21
127.900523
0
LINE
8
Image
10
72.272222
20
127.900523
11
74.526118
21
127.518664
0
LINE
8
Image
10
74.526118
20
127.518664
11
76.882206
21
127.079536
0
LINE
8
Image
10
76.882206
20
127.079536
11
77.544637
21
126.711113
0
LINE
8
Image
10
77.544637
20
126.711113
11
78.142086
21
126.136933
0
LINE
8
Image
10
78.142086
20
126.136933
11
78.807353
21
125.200336
0
LINE
8
Image
10
78.807353
20
125.200336
11
79.067681
21
124.296941
0
LINE
8
Image
10
79.067681
20
124.296941
11
78.924957
21
123.397842
0
LINE
8
Image
10
78.924957
20
123.397842
11
78.381065
21
122.474133
0
LINE
8
Image
10
78.381065
20
122.474133
11
77.898992
21
121.726399
0
LINE
8
Image
10
77.898992
20
121.726399
11
77.952611
21
121.583736
0
LINE
8
Image
10
77.952611
20
121.583736
11
78.192399
21
121.544614
0
LINE
8
Image
10
78.192399
20
121.544614
11
78.792028
21
121.376944
0
LINE
8
Image
10
78.792028
20
121.376944
11
79.485423
21
120.918626
0
LINE
8
Image
10
79.485423
20
120.918626
11
80.943536
21
119.398219
0
LINE
8
Image
10
80.943536
20
119.398219
11
82.146779
21
117.519735
0
LINE
8
Image
10
82.146779
20
117.519735
11
82.521587
21
116.613820
0
LINE
8
Image
10
82.521587
20
116.613820
11
82.675195
21
115.819512
0
LINE
8
Image
10
82.675195
20
115.819512
11
82.615309
21
114.397983
0
LINE
8
Image
10
82.615309
20
114.397983
11
82.394770
21
112.802956
0
LINE
8
Image
10
82.394770
20
112.802956
11
82.081386
21
111.413458
0
LINE
8
Image
10
82.081386
20
111.413458
11
81.742963
21
110.608517
0
LINE
8
Image
10
81.742963
20
110.608517
11
81.333903
21
109.893511
0
LINE
8
Image
10
81.333903
20
109.893511
11
81.183392
21
109.091537
0
LINE
8
Image
10
81.183392
20
109.091537
11
81.294390
21
108.320450
0
LINE
8
Image
10
81.294390
20
108.320450
11
81.669859
21
107.698104
0
LINE
8
Image
10
81.669859
20
107.698104
11
81.955517
21
107.299836
0
LINE
8
Image
10
81.955517
20
107.299836
11
82.146713
21
106.747485
0
LINE
8
Image
10
82.146713
20
106.747485
11
82.287221
21
104.999109
0
LINE
8
Image
10
82.287221
20
104.999109
11
82.492587
21
102.962948
0
LINE
8
Image
10
82.492587
20
102.962948
11
83.165716
21
101.030364
0
LINE
8
Image
10
83.165716
20
101.030364
11
83.787167
21
99.519758
0
LINE
8
Image
10
83.787167
20
99.519758
11
84.047661
21
98.537862
0
LINE
8
Image
10
84.047661
20
98.537862
11
83.862763
21
97.617007
0
LINE
8
Image
10
83.862763
20
97.617007
11
83.377952
21
96.579481
0
LINE
8
Image
10
83.377952
20
96.579481
11
82.711623
21
95.629680
0
LINE
8
Image
10
82.711623
20
95.629680
11
81.982170
21
94.972000
0
LINE
8
Image
10
81.982170
20
94.972000
11
80.612066
21
94.105607
0
LINE
8
Image
10
80.612066
20
94.105607
11
80.187792
21
93.284809
0
LINE
8
Image
10
80.187792
20
93.284809
11
79.786202
21
91.725636
0
LINE
8
Image
10
79.786202
20
91.725636
11
79.345766
21
89.932377
0
LINE
8
Image
10
79.345766
20
89.932377
11
78.698666
21
88.299891
0
LINE
8
Image
10
78.698666
20
88.299891
11
77.799939
21
86.735183
0
LINE
8
Image
10
77.799939
20
86.735183
11
76.604623
21
85.145261
0
LINE
8
Image
10
76.604623
20
85.145261
11
75.634977
21
83.866172
0
LINE
8
Image
10
75.634977
20
83.866172
11
75.231673
21
83.109046
0
LINE
8
Image
10
75.231673
20
83.109046
11
76.231776
21
80.517937
0
LINE
8
Image
10
76.231776
20
80.517937
11
77.482134
21
77.315168
0
LINE
8
Image
10
77.482134
20
77.315168
11
77.558055
21
76.159868
0
LINE
8
Image
10
77.558055
20
76.159868
11
77.269518
21
74.994854
0
LINE
8
Image
10
77.269518
20
74.994854
11
76.673050
21
73.960594
0
LINE
8
Image
10
76.673050
20
73.960594
11
75.825175
21
73.197552
0
LINE
8
Image
10
75.825175
20
73.197552
11
75.249335
21
72.800612
0
LINE
8
Image
10
75.249335
20
72.800612
11
74.930990
21
72.409150
0
LINE
8
Image
10
74.930990
20
72.409150
11
74.810213
21
71.900306
0
LINE
8
Image
10
74.810213
20
71.900306
11
74.827081
21
71.151220
0
LINE
8
Image
10
74.827081
20
71.151220
11
74.478441
21
68.574960
0
LINE
8
Image
10
74.478441
20
68.574960
11
73.446508
21
64.173134
0
LINE
8
Image
10
73.446508
20
64.173134
11
72.324434
21
59.384933
0
LINE
8
Image
10
72.324434
20
59.384933
11
71.705163
21
55.735683
0
LINE
8
Image
10
71.705163
20
55.735683
11
71.206728
21
52.893733
0
LINE
8
Image
10
71.206728
20
52.893733
11
70.786695
21
51.775946
0
LINE
8
Image
10
70.786695
20
51.775946
11
70.231339
21
50.830718
0
LINE
8
Image
10
70.231339
20
50.830718
11
69.524575
21
50.035872
0
LINE
8
Image
10
69.524575
20
50.035872
11
68.650319
21
49.369234
0
LINE
8
Image
10
68.650319
20
49.369234
11
67.592486
21
48.808628
0
LINE
8
Image
10
67.592486
20
48.808628
11
66.334993
21
48.331878
0
LINE
8
Image
10
66.334993
20
48.331878
11
64.780359
21
47.748608
0
LINE
8
Image
10
64.780359
20
47.748608
11
63.475780
21
47.107076
0
LINE
8
Image
10
63.475780
20
47.107076
11
62.532645
21
46.470613
0
LINE
8
Image
10
62.532645
20
46.470613
11
62.062340
21
45.902554
0
LINE
8
Image
10
62.062340
20
45.902554
11
62.287122
21
44.824189
0
LINE
8
Image
10
62.287122
20
44.824189
11
63.089554
21
42.914292
0
LINE
8
Image
10
63.089554
20
42.914292
11
65.059725
21
38.416863
0
LINE
8
Image
10
65.059725
20
38.416863
11
65.685795
21
36.483650
0
LINE
8
Image
10
65.685795
20
36.483650
11
66.201357
21
34.408616
0
LINE
8
Image
10
66.201357
20
34.408616
11
67.145724
21
30.912814
0
LINE
8
Image
10
67.145724
20
30.912814
11
67.574882
21
30.066042
0
LINE
8
Image
10
67.574882
20
30.066042
11
68.027896
21
29.684132
0
LINE
8
Image
10
68.027896
20
29.684132
11
69.192821
21
29.669666
0
LINE
8
Image
10
69.192821
20
29.669666
11
71.301684
21
29.900396
0
LINE
8
Image
10
71.301684
20
29.900396
11
73.782288
21
30.074011
0
LINE
8
Image
10
73.782288
20
30.074011
11
74.831034
21
29.951808
0
LINE
8
Image
10
74.831034
20
29.951808
11
75.819120
21
29.664358
0
LINE
8
Image
10
75.819120
20
29.664358
11
76.796831
21
29.192233
0
LINE
8
Image
10
76.796831
20
29.192233
11
77.814452
21
28.516002
0
LINE
8
Image
10
77.814452
20
28.516002
11
80.170557
21
26.473504
0
LINE
8
Image
10
80.170557
20
26.473504
11
83.499159
21
23.575273
0
LINE
8
Image
10
83.499159
20
23.575273
11
83.830664
21
23.323379
0
LINE
8
Image
10
83.830664
20
23.323379
11
83.822222
21
22.995832
0
LINE
8
Image
10
83.822222
20
22.995832
11
82.484555
21
21.497486
0
LINE
8
Image
10
82.484555
20
21.497486
11
80.507499
21
19.125128
0
LINE
8
Image
10
80.507499
20
19.125128
11
78.137710
21
15.804928
0
LINE
8
Image
10
78.137710
20
15.804928
11
75.776387
21
12.546016
0
LINE
8
Image
10
75.776387
20
12.546016
11
73.819689
21
10.321006
0
LINE
8
Image
10
73.819689
20
10.321006
11
70.807833
21
8.220513
0
LINE
8
Image
10
70.807833
20
8.220513
11
65.818725
21
5.162920
0
LINE
8
Image
10
65.818725
20
5.162920
11
60.680775
21
2.229827
0
LINE
8
Image
10
60.680775
20
2.229827
11
57.222397
21
0.502836
0
LINE
8
Image
10
57.222397
20
0.502836
11
54.954201
21
-0.016262
0
LINE
8
Image
10
54.954201
20
-0.016262
11
52.096413
21
-0.140193
0
LINE
8
Image
10
52.096413
20
-0.140193
11
48.895611
21
0.125280
0
LINE
8
Image
10
48.895611
20
0.125280
11
45.598377
21
0.774399
0
LINE
8
Image
10
45.598377
20
0.774399
11
45.598377
21
0.774399
0
LINE
8
Image
10
57.058980
20
1.130718
11
60.444262
21
2.812231
0
LINE
8
Image
10
60.444262
20
2.812231
11
65.663135
21
5.798188
0
LINE
8
Image
10
65.663135
20
5.798188
11
70.720833
21
8.905781
0
LINE
8
Image
10
70.720833
20
8.905781
11
73.622588
21
10.952200
0
LINE
8
Image
10
73.622588
20
10.952200
11
75.497607
21
13.193687
0
LINE
8
Image
10
75.497607
20
13.193687
11
77.953423
21
16.596637
0
LINE
8
Image
10
77.953423
20
16.596637
11
80.296866
21
19.886761
0
LINE
8
Image
10
80.296866
20
19.886761
11
81.901710
21
21.856986
0
LINE
8
Image
10
81.901710
20
21.856986
11
82.980584
21
22.887285
0
LINE
8
Image
10
82.980584
20
22.887285
11
80.126467
21
25.561148
0
LINE
8
Image
10
80.126467
20
25.561148
11
77.668356
21
27.745153
0
LINE
8
Image
10
77.668356
20
27.745153
11
76.702054
21
28.436615
0
LINE
8
Image
10
76.702054
20
28.436615
11
75.800117
21
28.906868
0
LINE
8
Image
10
75.800117
20
28.906868
11
74.879443
21
29.190276
0
LINE
8
Image
10
74.879443
20
29.190276
11
73.856927
21
29.321202
0
LINE
8
Image
10
73.856927
20
29.321202
11
71.173959
21
29.263064
0
LINE
8
Image
10
71.173959
20
29.263064
11
68.635424
21
29.189671
0
LINE
8
Image
10
68.635424
20
29.189671
11
67.812326
21
29.319899
0
LINE
8
Image
10
67.812326
20
29.319899
11
67.206738
21
29.624428
0
LINE
8
Image
10
67.206738
20
29.624428
11
66.758709
21
30.150522
0
LINE
8
Image
10
66.758709
20
30.150522
11
66.408287
21
30.945442
0
LINE
8
Image
10
66.408287
20
30.945442
11
65.760454
21
33.530819
0
LINE
8
Image
10
65.760454
20
33.530819
11
65.191450
21
35.866842
0
LINE
8
Image
10
65.191450
20
35.866842
11
64.527509
21
37.960239
0
LINE
8
Image
10
64.527509
20
37.960239
11
62.403597
21
42.836275
0
LINE
8
Image
10
62.403597
20
42.836275
11
61.872430
21
44.030090
0
LINE
8
Image
10
61.872430
20
44.030090
11
61.570071
21
45.005148
0
LINE
8
Image
10
61.570071
20
45.005148
11
61.527272
21
45.810277
0
LINE
8
Image
10
61.527272
20
45.810277
11
61.774786
21
46.494305
0
LINE
8
Image
10
61.774786
20
46.494305
11
62.343364
21
47.106060
0
LINE
8
Image
10
62.343364
20
47.106060
11
63.263760
21
47.694371
0
LINE
8
Image
10
63.263760
20
47.694371
11
66.283013
21
48.995973
0
LINE
8
Image
10
66.283013
20
48.995973
11
68.237713
21
49.873471
0
LINE
8
Image
10
68.237713
20
49.873471
11
69.403357
21
50.628096
0
LINE
8
Image
10
69.403357
20
50.628096
11
70.040697
21
51.589961
0
LINE
8
Image
10
70.040697
20
51.589961
11
70.535995
21
52.865575
0
LINE
8
Image
10
70.535995
20
52.865575
11
70.859848
21
54.355675
0
LINE
8
Image
10
70.859848
20
54.355675
11
70.982859
21
55.960999
0
LINE
8
Image
10
70.982859
20
55.960999
11
71.201054
21
57.957003
0
LINE
8
Image
10
71.201054
20
57.957003
11
71.703901
21
59.984970
0
LINE
8
Image
10
71.703901
20
59.984970
11
72.409454
21
62.444301
0
LINE
8
Image
10
72.409454
20
62.444301
11
72.300653
21
62.704440
0
LINE
8
Image
10
72.300653
20
62.704440
11
71.973562
21
62.989055
0
LINE
8
Image
10
71.973562
20
62.989055
11
70.660364
21
63.633349
0
LINE
8
Image
10
70.660364
20
63.633349
11
68.461572
21
64.380467
0
LINE
8
Image
10
68.461572
20
64.380467
11
65.368900
21
65.233691
0
LINE
8
Image
10
65.368900
20
65.233691
11
62.206270
21
66.133053
0
LINE
8
Image
10
62.206270
20
66.133053
11
60.815919
21
66.703794
0
LINE
8
Image
10
60.815919
20
66.703794
11
60.973308
21
66.991426
0
LINE
8
Image
10
60.973308
20
66.991426
11
61.532514
21
67.411891
0
LINE
8
Image
10
61.532514
20
67.411891
11
63.443127
21
68.452447
0
LINE
8
Image
10
63.443127
20
68.452447
11
65.721262
21
69.427714
0
LINE
8
Image
10
65.721262
20
69.427714
11
67.540425
21
69.939943
0
LINE
8
Image
10
67.540425
20
69.939943
11
69.023845
21
69.954160
0
LINE
8
Image
10
69.023845
20
69.954160
11
70.388807
21
69.684495
0
LINE
8
Image
10
70.388807
20
69.684495
11
71.511090
21
69.170105
0
LINE
8
Image
10
71.511090
20
69.170105
11
72.266473
21
68.450150
0
LINE
8
Image
10
72.266473
20
68.450150
11
72.510195
21
67.948891
0
LINE
8
Image
10
72.510195
20
67.948891
11
72.642380
21
67.319913
0
LINE
8
Image
10
72.642380
20
67.319913
11
72.603454
21
65.394830
0
LINE
8
Image
10
72.603454
20
65.394830
11
72.402852
21
63.159966
0
LINE
8
Image
10
72.402852
20
63.159966
11
73.110355
21
65.453020
0
LINE
8
Image
10
73.110355
20
65.453020
11
73.629344
21
67.528195
0
LINE
8
Image
10
73.629344
20
67.528195
11
74.006723
21
69.718064
0
LINE
8
Image
10
74.006723
20
69.718064
11
74.164523
21
71.451103
0
LINE
8
Image
10
74.164523
20
71.451103
11
74.136714
21
71.967710
0
LINE
8
Image
10
74.136714
20
71.967710
11
74.024772
21
72.155788
0
LINE
8
Image
10
74.024772
20
72.155788
11
73.072260
21
71.780134
0
LINE
8
Image
10
73.072260
20
71.780134
11
72.452738
21
71.557358
0
LINE
8
Image
10
72.452738
20
71.557358
11
71.948926
21
71.549266
0
LINE
8
Image
10
71.948926
20
71.549266
11
71.958709
21
71.693409
0
LINE
8
Image
10
71.958709
20
71.693409
11
72.296870
21
71.978841
0
LINE
8
Image
10
72.296870
20
71.978841
11
73.725190
21
72.808322
0
LINE
8
Image
10
73.725190
20
72.808322
11
75.446469
21
73.853455
0
LINE
8
Image
10
75.446469
20
73.853455
11
76.498766
21
74.801515
0
LINE
8
Image
10
76.498766
20
74.801515
11
76.843541
21
75.710505
0
LINE
8
Image
10
76.843541
20
75.710505
11
76.847975
21
76.848341
0
LINE
8
Image
10
76.847975
20
76.848341
11
76.514928
21
78.193409
0
LINE
8
Image
10
76.514928
20
78.193409
11
75.847262
21
79.724093
0
LINE
8
Image
10
75.847262
20
79.724093
11
75.098190
21
81.509490
0
LINE
8
Image
10
75.098190
20
81.509490
11
74.331623
21
83.797440
0
LINE
8
Image
10
74.331623
20
83.797440
11
72.916133
21
88.088744
0
LINE
8
Image
10
72.916133
20
88.088744
11
72.470351
21
89.696849
0
LINE
8
Image
10
72.470351
20
89.696849
11
72.710022
21
91.170623
0
LINE
8
Image
10
72.710022
20
91.170623
11
73.229149
21
92.440791
0
LINE
8
Image
10
73.229149
20
92.440791
11
73.921899
21
93.473452
0
LINE
8
Image
10
73.921899
20
93.473452
11
74.713442
21
94.180879
0
LINE
8
Image
10
74.713442
20
94.180879
11
75.528945
21
94.475344
0
LINE
8
Image
10
75.528945
20
94.475344
11
75.971053
21
94.545941
0
LINE
8
Image
10
75.971053
20
94.545941
11
76.191357
21
94.741352
0
LINE
8
Image
10
76.191357
20
94.741352
11
76.136216
21
95.906436
0
LINE
8
Image
10
76.136216
20
95.906436
11
75.816198
21
97.193943
0
LINE
8
Image
10
75.816198
20
97.193943
11
75.354564
21
98.364761
0
LINE
8
Image
10
75.354564
20
98.364761
11
74.966746
21
99.603032
0
LINE
8
Image
10
74.966746
20
99.603032
11
74.824202
21
101.052708
0
LINE
8
Image
10
74.824202
20
101.052708
11
74.722727
21
102.401911
0
LINE
8
Image
10
74.722727
20
102.401911
11
74.183013
21
103.543065
0
LINE
8
Image
10
74.183013
20
103.543065
11
72.946720
21
104.829256
0
LINE
8
Image
10
72.946720
20
104.829256
11
70.755511
21
106.613566
0
LINE
8
Image
10
70.755511
20
106.613566
11
67.672381
21
109.021019
0
LINE
8
Image
10
67.672381
20
109.021019
11
64.308285
21
109.036246
0
LINE
8
Image
10
64.308285
20
109.036246
11
61.692762
21
109.167556
0
LINE
8
Image
10
61.692762
20
109.167556
11
60.185706
21
109.470757
0
LINE
8
Image
10
60.185706
20
109.470757
11
59.542783
21
109.709892
0
LINE
8
Image
10
59.542783
20
109.709892
11
59.243997
21
109.412566
0
LINE
8
Image
10
59.243997
20
109.412566
11
58.987590
21
109.035191
0
LINE
8
Image
10
58.987590
20
109.035191
11
58.533463
21
108.670688
0
LINE
8
Image
10
58.533463
20
108.670688
11
57.174358
21
108.030161
0
LINE
8
Image
10
57.174358
20
108.030161
11
55.451300
21
107.590714
0
LINE
8
Image
10
55.451300
20
107.590714
11
53.648908
21
107.452077
0
LINE
8
Image
10
53.648908
20
107.452077
11
51.829121
21
107.397074
0
LINE
8
Image
10
51.829121
20
107.397074
11
50.584962
21
107.184171
0
LINE
8
Image
10
50.584962
20
107.184171
11
49.750724
21
106.858824
0
LINE
8
Image
10
49.750724
20
106.858824
11
50.876612
21
105.911451
0
LINE
8
Image
10
50.876612
20
105.911451
11
52.078286
21
105.208453
0
LINE
8
Image
10
52.078286
20
105.208453
11
53.393248
21
104.939806
0
LINE
8
Image
10
53.393248
20
104.939806
11
54.659888
21
105.111573
0
LINE
8
Image
10
54.659888
20
105.111573
11
55.716597
21
105.729820
0
LINE
8
Image
10
55.716597
20
105.729820
11
56.499540
21
106.339888
0
LINE
8
Image
10
56.499540
20
106.339888
11
56.667708
21
106.359378
0
LINE
8
Image
10
56.667708
20
106.359378
11
56.691203
21
106.208747
0
LINE
8
Image
10
56.691203
20
106.208747
11
56.316755
21
105.457851
0
LINE
8
Image
10
56.316755
20
105.457851
11
55.401365
21
104.208656
0
LINE
8
Image
10
55.401365
20
104.208656
11
54.020902
21
102.771434
0
LINE
8
Image
10
54.020902
20
102.771434
11
52.510717
21
101.675144
0
LINE
8
Image
10
52.510717
20
101.675144
11
50.968608
21
100.977271
0
LINE
8
Image
10
50.968608
20
100.977271
11
49.492372
21
100.735301
0
LINE
8
Image
10
49.492372
20
100.735301
11
48.152383
21
100.914346
0
LINE
8
Image
10
48.152383
20
100.914346
11
46.325624
21
101.357299
0
LINE
8
Image
10
46.325624
20
101.357299
11
44.483726
21
101.933184
0
LINE
8
Image
10
44.483726
20
101.933184
11
43.098314
21
102.511026
0
LINE
8
Image
10
43.098314
20
102.511026
11
42.232073
21
103.220061
0
LINE
8
Image
10
42.232073
20
103.220061
11
41.575861
21
104.273765
0
LINE
8
Image
10
41.575861
20
104.273765
11
41.159694
21
105.605372
0
LINE
8
Image
10
41.159694
20
105.605372
11
41.013590
21
107.148117
0
LINE
8
Image
10
41.013590
20
107.148117
11
41.110440
21
108.626468
0
LINE
8
Image
10
41.110440
20
108.626468
11
41.345232
21
109.361548
0
LINE
8
Image
10
41.345232
20
109.361548
11
41.477513
21
109.293548
0
LINE
8
Image
10
41.477513
20
109.293548
11
41.576823
21
108.936140
0
LINE
8
Image
10
41.576823
20
108.936140
11
41.649150
21
107.519056
0
LINE
8
Image
10
41.649150
20
107.519056
11
41.784668
21
105.714634
0
LINE
8
Image
10
41.784668
20
105.714634
11
42.207190
21
104.335488
0
LINE
8
Image
10
42.207190
20
104.335488
11
42.874940
21
103.200192
0
LINE
8
Image
10
42.874940
20
103.200192
11
45.387108
21
102.318248
0
LINE
8
Image
10
45.387108
20
102.318248
11
47.529568
21
101.697652
0
LINE
8
Image
10
47.529568
20
101.697652
11
49.266132
21
101.444052
0
LINE
8
Image
10
49.266132
20
101.444052
11
50.606850
21
101.615900
0
LINE
8
Image
10
50.606850
20
101.615900
11
51.999378
21
102.067198
0
LINE
8
Image
10
51.999378
20
102.067198
11
53.260726
21
102.721696
0
LINE
8
Image
10
53.260726
20
102.721696
11
54.207903
21
103.503146
0
LINE
8
Image
10
54.207903
20
103.503146
11
54.879938
21
104.258524
0
LINE
8
Image
10
54.879938
20
104.258524
11
53.573022
21
104.258524
0
LINE
8
Image
10
53.573022
20
104.258524
11
52.396449
21
104.392024
0
LINE
8
Image
10
52.396449
20
104.392024
11
51.322788
21
104.774711
0
LINE
8
Image
10
51.322788
20
104.774711
11
50.405881
21
105.379865
0
LINE
8
Image
10
50.405881
20
105.379865
11
49.699570
21
106.180768
0
LINE
8
Image
10
49.699570
20
106.180768
11
48.977809
21
106.881913
0
LINE
8
Image
10
48.977809
20
106.881913
11
47.922379
21
107.080742
0
LINE
8
Image
10
47.922379
20
107.080742
11
46.833611
21
107.285383
0
LINE
8
Image
10
46.833611
20
107.285383
11
45.902042
21
107.815825
0
LINE
8
Image
10
45.902042
20
107.815825
11
45.335933
21
108.380685
0
LINE
8
Image
10
45.335933
20
108.380685
11
45.774764
21
108.304187
0
LINE
8
Image
10
45.774764
20
108.304187
11
48.169791
21
107.693200
0
LINE
8
Image
10
48.169791
20
107.693200
11
49.172653
21
107.630754
0
LINE
8
Image
10
49.172653
20
107.630754
11
50.053650
21
107.732106
0
LINE
8
Image
10
50.053650
20
107.732106
11
50.818710
21
107.998580
0
LINE
8
Image
10
50.818710
20
107.998580
11
51.473759
21
108.431501
0
LINE
8
Image
10
51.473759
20
108.431501
11
52.024725
21
109.032194
0
LINE
8
Image
10
52.024725
20
109.032194
11
52.477535
21
109.801983
0
LINE
8
Image
10
52.477535
20
109.801983
11
53.064788
21
110.855593
0
LINE
8
Image
10
53.064788
20
110.855593
11
53.485916
21
111.301286
0
LINE
8
Image
10
53.485916
20
111.301286
11
53.645193
21
111.014390
0
LINE
8
Image
10
53.645193
20
111.014390
11
53.529489
21
110.314156
0
LINE
8
Image
10
53.529489
20
110.314156
11
53.217419
21
109.482171
0
LINE
8
Image
10
53.217419
20
109.482171
11
52.787597
21
108.800022
0
LINE
8
Image
10
52.787597
20
108.800022
11
52.451587
21
108.288023
0
LINE
8
Image
10
52.451587
20
108.288023
11
52.818466
21
108.016046
0
LINE
8
Image
10
52.818466
20
108.016046
11
53.687733
21
107.968295
0
LINE
8
Image
10
53.687733
20
107.968295
11
55.059741
21
108.136086
0
LINE
8
Image
10
55.059741
20
108.136086
11
56.492275
21
108.444355
0
LINE
8
Image
10
56.492275
20
108.444355
11
57.543120
21
108.818037
0
LINE
8
Image
10
57.543120
20
108.818037
11
58.261185
21
109.298682
0
LINE
8
Image
10
58.261185
20
109.298682
11
58.716786
21
109.807527
0
LINE
8
Image
10
58.716786
20
109.807527
11
58.876459
21
110.290623
0
LINE
8
Image
10
58.876459
20
110.290623
11
58.706742
21
110.694022
0
LINE
8
Image
10
58.706742
20
110.694022
11
58.418710
21
111.194880
0
LINE
8
Image
10
58.418710
20
111.194880
11
58.299679
21
111.825597
0
LINE
8
Image
10
58.299679
20
111.825597
11
58.328748
21
112.141398
0
LINE
8
Image
10
58.328748
20
112.141398
11
58.433858
21
112.190561
0
LINE
8
Image
10
58.433858
20
112.190561
11
58.989145
21
111.420194
0
LINE
8
Image
10
58.989145
20
111.420194
11
59.868459
21
110.457668
0
LINE
8
Image
10
59.868459
20
110.457668
11
61.192685
21
109.881645
0
LINE
8
Image
10
61.192685
20
109.881645
11
62.704145
21
109.663240
0
LINE
8
Image
10
62.704145
20
109.663240
11
64.496812
21
109.677146
0
LINE
8
Image
10
64.496812
20
109.677146
11
66.248361
21
109.901677
0
LINE
8
Image
10
66.248361
20
109.901677
11
67.636471
21
110.315148
0
LINE
8
Image
10
67.636471
20
110.315148
11
68.357888
21
110.822907
0
LINE
8
Image
10
68.357888
20
110.822907
11
68.981816
21
111.582167
0
LINE
8
Image
10
68.981816
20
111.582167
11
69.422113
21
112.460386
0
LINE
8
Image
10
69.422113
20
112.460386
11
69.592637
21
113.325021
0
LINE
8
Image
10
69.592637
20
113.325021
11
69.660562
21
113.726548
0
LINE
8
Image
10
69.660562
20
113.726548
11
69.902175
21
113.479877
0
LINE
8
Image
10
69.902175
20
113.479877
11
70.095959
21
112.845561
0
LINE
8
Image
10
70.095959
20
112.845561
11
69.968619
21
112.114652
0
LINE
8
Image
10
69.968619
20
112.114652
11
69.538886
21
111.337841
0
LINE
8
Image
10
69.538886
20
111.337841
11
68.825489
21
110.565820
0
LINE
8
Image
10
68.825489
20
110.565820
11
67.782611
21
109.641180
0
LINE
8
Image
10
67.782611
20
109.641180
11
69.283588
21
108.537350
0
LINE
8
Image
10
69.283588
20
108.537350
11
70.452772
21
107.760046
0
LINE
8
Image
10
70.452772
20
107.760046
11
71.156037
21
107.441267
0
LINE
8
Image
10
71.156037
20
107.441267
11
72.150827
21
107.694183
0
LINE
8
Image
10
72.150827
20
107.694183
11
73.317272
21
108.301537
0
LINE
8
Image
10
73.317272
20
108.301537
11
74.374327
21
109.087249
0
LINE
8
Image
10
74.374327
20
109.087249
11
75.040948
21
109.875239
0
LINE
8
Image
10
75.040948
20
109.875239
11
75.533064
21
110.572454
0
LINE
8
Image
10
75.533064
20
110.572454
11
76.100481
21
110.894226
0
LINE
8
Image
10
76.100481
20
110.894226
11
76.753884
21
110.842921
0
LINE
8
Image
10
76.753884
20
110.842921
11
77.503957
21
110.420907
0
LINE
8
Image
10
77.503957
20
110.420907
11
78.162101
21
110.062292
0
LINE
8
Image
10
78.162101
20
110.062292
11
78.884799
21
109.930991
0
LINE
8
Image
10
78.884799
20
109.930991
11
79.667508
21
110.027109
0
LINE
8
Image
10
79.667508
20
110.027109
11
80.505685
21
110.350753
0
LINE
8
Image
10
80.505685
20
110.350753
11
80.953096
21
110.665265
0
LINE
8
Image
10
80.953096
20
110.665265
11
81.281015
21
111.150588
0
LINE
8
Image
10
81.281015
20
111.150588
11
81.782177
21
113.067383
0
LINE
8
Image
10
81.782177
20
113.067383
11
81.995107
21
114.705595
0
LINE
8
Image
10
81.995107
20
114.705595
11
81.936394
21
116.029278
0
LINE
8
Image
10
81.936394
20
116.029278
11
81.571431
21
117.245914
0
LINE
8
Image
10
81.571431
20
117.245914
11
80.865616
21
118.562986
0
LINE
8
Image
10
80.865616
20
118.562986
11
80.213566
21
119.457191
0
LINE
8
Image
10
80.213566
20
119.457191
11
79.461108
21
120.116234
0
LINE
8
Image
10
79.461108
20
120.116234
11
78.487488
21
120.621578
0
LINE
8
Image
10
78.487488
20
120.621578
11
77.171948
21
121.054681
0
LINE
8
Image
10
77.171948
20
121.054681
11
75.760839
21
121.446692
0
LINE
8
Image
10
75.760839
20
121.446692
11
76.735312
21
121.841347
0
LINE
8
Image
10
76.735312
20
121.841347
11
77.560972
21
122.372816
0
LINE
8
Image
10
77.560972
20
122.372816
11
78.108668
21
123.136152
0
LINE
8
Image
10
78.108668
20
123.136152
11
78.335690
21
124.039477
0
LINE
8
Image
10
78.335690
20
124.039477
11
78.199329
21
124.990907
0
LINE
8
Image
10
78.199329
20
124.990907
11
77.727730
21
125.788858
0
LINE
8
Image
10
77.727730
20
125.788858
11
76.955334
21
126.363065
0
LINE
8
Image
10
76.955334
20
126.363065
11
75.886633
21
126.711280
0
LINE
8
Image
10
75.886633
20
126.711280
11
74.526118
21
126.831250
0
LINE
8
Image
10
74.526118
20
126.831250
11
72.859787
21
127.042253
0
LINE
8
Image
10
72.859787
20
127.042253
11
71.082755
21
127.542006
0
LINE
8
Image
10
71.082755
20
127.542006
11
69.401748
21
128.056569
0
LINE
8
Image
10
69.401748
20
128.056569
11
67.898349
21
128.202212
0
LINE
8
Image
10
67.898349
20
128.202212
11
66.378552
21
127.973610
0
LINE
8
Image
10
66.378552
20
127.973610
11
64.648353
21
127.365440
0
LINE
8
Image
10
64.648353
20
127.365440
11
62.991445
21
126.768285
0
LINE
8
Image
10
62.991445
20
126.768285
11
61.524439
21
126.529060
0
LINE
8
Image
10
61.524439
20
126.529060
11
59.938771
21
126.634213
0
LINE
8
Image
10
59.938771
20
126.634213
11
57.925876
21
127.070194
0
LINE
8
Image
10
57.925876
20
127.070194
11
56.557729
21
127.389934
0
LINE
8
Image
10
56.557729
20
127.389934
11
55.511948
21
127.477458
0
LINE
8
Image
10
55.511948
20
127.477458
11
54.331359
21
127.317994
0
LINE
8
Image
10
54.331359
20
127.317994
11
52.558789
21
126.896768
0
LINE
8
Image
10
52.558789
20
126.896768
11
49.750241
21
126.354238
0
LINE
8
Image
10
49.750241
20
126.354238
11
47.286835
21
126.125585
0
LINE
8
Image
10
47.286835
20
126.125585
11
45.298466
21
125.974823
0
LINE
8
Image
10
45.298466
20
125.974823
11
43.632031
21
125.619559
0
LINE
8
Image
10
43.632031
20
125.619559
11
42.206798
21
125.307046
0
LINE
8
Image
10
42.206798
20
125.307046
11
40.809811
21
125.439889
0
LINE
8
Image
10
40.809811
20
125.439889
11
39.035556
21
125.732499
0
LINE
8
Image
10
39.035556
20
125.732499
11
37.428455
21
125.680032
0
LINE
8
Image
10
37.428455
20
125.680032
11
35.717626
21
125.242482
0
LINE
8
Image
10
35.717626
20
125.242482
11
33.632188
21
124.379842
0
LINE
8
Image
10
33.632188
20
124.379842
11
30.502470
21
123.182293
0
LINE
8
Image
10
30.502470
20
123.182293
11
27.146906
21
122.463438
0
LINE
8
Image
10
27.146906
20
122.463438
11
24.625695
21
121.984304
0
LINE
8
Image
10
24.625695
20
121.984304
11
22.834119
21
121.360248
0
LINE
8
Image
10
22.834119
20
121.360248
11
21.533573
21
120.474789
0
LINE
8
Image
10
21.533573
20
120.474789
11
20.485451
21
119.211443
0
LINE
8
Image
10
20.485451
20
119.211443
11
18.901634
21
117.589648
0
LINE
8
Image
10
18.901634
20
117.589648
11
16.184049
21
115.593686
0
LINE
8
Image
10
16.184049
20
115.593686
11
14.023304
21
114.071095
0
LINE
8
Image
10
14.023304
20
114.071095
11
12.146369
21
112.528851
0
LINE
8
Image
10
12.146369
20
112.528851
11
10.544941
21
110.955633
0
LINE
8
Image
10
10.544941
20
110.955633
11
9.210715
21
109.340121
0
LINE
8
Image
10
9.210715
20
109.340121
11
8.135387
21
107.670994
0
LINE
8
Image
10
8.135387
20
107.670994
11
7.310652
21
105.936932
0
LINE
8
Image
10
7.310652
20
105.936932
11
6.728205
21
104.126614
0
LINE
8
Image
10
6.728205
20
104.126614
11
6.379743
21
102.228721
0
LINE
8
Image
10
6.379743
20
102.228721
11
6.012247
21
99.585712
0
LINE
8
Image
10
6.012247
20
99.585712
11
5.600964
21
97.664486
0
LINE
8
Image
10
5.600964
20
97.664486
11
5.060727
21
96.158271
0
LINE
8
Image
10
5.060727
20
96.158271
11
4.306371
21
94.760294
0
LINE
8
Image
10
4.306371
20
94.760294
11
3.503860
21
93.301218
0
LINE
8
Image
10
3.503860
20
93.301218
11
2.853546
21
91.789309
0
LINE
8
Image
10
2.853546
20
91.789309
11
2.358611
21
90.243953
0
LINE
8
Image
10
2.358611
20
90.243953
11
2.022235
21
88.684538
0
LINE
8
Image
10
2.022235
20
88.684538
11
1.847601
21
87.130453
0
LINE
8
Image
10
1.847601
20
87.130453
11
1.837892
21
85.601085
0
LINE
8
Image
10
1.837892
20
85.601085
11
1.996290
21
84.115823
0
LINE
8
Image
10
1.996290
20
84.115823
11
2.325976
21
82.694053
0
LINE
8
Image
10
2.325976
20
82.694053
11
2.583369
21
81.378737
0
LINE
8
Image
10
2.583369
20
81.378737
11
2.527159
21
80.433127
0
LINE
8
Image
10
2.527159
20
80.433127
11
2.270266
21
79.503955
0
LINE
8
Image
10
2.270266
20
79.503955
11
2.210357
21
78.555843
0
LINE
8
Image
10
2.210357
20
78.555843
11
2.340789
21
77.604074
0
LINE
8
Image
10
2.340789
20
77.604074
11
2.654923
21
76.663931
0
LINE
8
Image
10
2.654923
20
76.663931
11
3.146119
21
75.750696
0
LINE
8
Image
10
3.146119
20
75.750696
11
3.807734
21
74.879652
0
LINE
8
Image
10
3.807734
20
74.879652
11
4.633130
21
74.066082
0
LINE
8
Image
10
4.633130
20
74.066082
11
5.615664
21
73.325269
0
LINE
8
Image
10
5.615664
20
73.325269
11
6.708010
21
72.564609
0
LINE
8
Image
10
6.708010
20
72.564609
11
7.345408
21
71.976337
0
LINE
8
Image
10
7.345408
20
71.976337
11
7.659777
21
71.398878
0
LINE
8
Image
10
7.659777
20
71.398878
11
7.783037
21
70.670658
0
LINE
8
Image
10
7.783037
20
70.670658
11
7.712688
21
69.465097
0
LINE
8
Image
10
7.712688
20
69.465097
11
7.391574
21
68.384650
0
LINE
8
Image
10
7.391574
20
68.384650
11
6.841943
21
67.126124
0
LINE
8
Image
10
6.841943
20
67.126124
11
6.621603
21
66.145135
0
LINE
8
Image
10
6.621603
20
66.145135
11
6.726034
21
65.373341
0
LINE
8
Image
10
6.726034
20
65.373341
11
7.150717
21
64.742395
0
LINE
8
Image
10
7.150717
20
64.742395
11
7.536641
21
64.307684
0
LINE
8
Image
10
7.536641
20
64.307684
11
7.689852
21
63.905794
0
LINE
8
Image
10
7.689852
20
63.905794
11
7.363036
21
62.521647
0
LINE
8
Image
10
7.363036
20
62.521647
11
6.809918
21
60.684472
0
LINE
8
Image
10
6.809918
20
60.684472
11
6.563191
21
59.242957
0
LINE
8
Image
10
6.563191
20
59.242957
11
6.609698
21
58.022179
0
LINE
8
Image
10
6.609698
20
58.022179
11
6.936284
21
56.847217
0
LINE
8
Image
10
6.936284
20
56.847217
11
7.309213
21
56.104532
0
LINE
8
Image
10
7.309213
20
56.104532
11
7.799283
21
55.490942
0
LINE
8
Image
10
7.799283
20
55.490942
11
8.389446
21
55.003374
0
LINE
8
Image
10
8.389446
20
55.003374
11
9.062654
21
54.638757
0
LINE
8
Image
10
9.062654
20
54.638757
11
10.590016
21
54.266088
0
LINE
8
Image
10
10.590016
20
54.266088
11
12.244990
21
54.348355
0
LINE
8
Image
10
12.244990
20
54.348355
11
13.891193
21
54.860984
0
LINE
8
Image
10
13.891193
20
54.860984
11
15.392247
21
55.779397
0
LINE
8
Image
10
15.392247
20
55.779397
11
16.611769
21
57.079017
0
LINE
8
Image
10
16.611769
20
57.079017
11
17.073337
21
57.864100
0
LINE
8
Image
10
17.073337
20
57.864100
11
17.413380
21
58.735268
0
LINE
8
Image
10
17.413380
20
58.735268
11
17.790856
21
59.676310
0
LINE
8
Image
10
17.790856
20
59.676310
11
18.108133
21
59.968662
0
LINE
8
Image
10
18.108133
20
59.968662
11
18.220529
21
59.492785
0
LINE
8
Image
10
18.220529
20
59.492785
11
18.025839
21
58.598394
0
LINE
8
Image
10
18.025839
20
58.598394
11
17.605066
21
57.542208
0
LINE
8
Image
10
17.605066
20
57.542208
11
17.039213
21
56.580946
0
LINE
8
Image
10
17.039213
20
56.580946
11
16.349308
21
55.646365
0
LINE
8
Image
10
16.349308
20
55.646365
11
17.832886
21
55.492928
0
LINE
8
Image
10
17.832886
20
55.492928
11
19.707838
21
55.476074
0
LINE
8
Image
10
19.707838
20
55.476074
11
20.250186
21
55.932891
0
LINE
8
Image
10
20.250186
20
55.932891
11
20.677869
21
56.809191
0
LINE
8
Image
10
20.677869
20
56.809191
11
20.947013
21
57.976317
0
LINE
8
Image
10
20.947013
20
57.976317
11
21.013747
21
59.305614
0
LINE
8
Image
10
21.013747
20
59.305614
11
21.079279
21
60.778664
0
LINE
8
Image
10
21.079279
20
60.778664
11
21.224974
21
61.163850
0
LINE
8
Image
10
21.224974
20
61.163850
11
21.454719
21
61.355542
0
LINE
8
Image
10
21.454719
20
61.355542
11
21.807049
21
61.868847
0
LINE
8
Image
10
21.807049
20
61.868847
11
21.956162
21
62.879622
0
LINE
8
Image
10
21.956162
20
62.879622
11
21.891682
21
64.112762
0
LINE
8
Image
10
21.891682
20
64.112762
11
21.603231
21
65.293159
0
LINE
8
Image
10
21.603231
20
65.293159
11
21.160329
21
66.004744
0
LINE
8
Image
10
21.160329
20
66.004744
11
20.864453
21
66.074784
0
LINE
8
Image
10
20.864453
20
66.074784
11
20.456705
21
65.992285
0
LINE
8
Image
10
20.456705
20
65.992285
11
17.874865
21
65.561107
0
LINE
8
Image
10
17.874865
20
65.561107
11
16.392389
21
65.575918
0
LINE
8
Image
10
16.392389
20
65.575918
11
15.103113
21
65.886931
0
LINE
8
Image
10
15.103113
20
65.886931
11
14.193101
21
66.422521
0
LINE
8
Image
10
14.193101
20
66.422521
11
13.938464
21
66.752150
0
LINE
8
Image
10
13.938464
20
66.752150
11
13.848416
21
67.111064
0
LINE
8
Image
10
13.848416
20
67.111064
11
13.883443
21
67.370728
0
LINE
8
Image
10
13.883443
20
67.370728
11
14.013621
21
67.425946
0
LINE
8
Image
10
14.013621
20
67.425946
11
14.710026
21
66.883223
0
LINE
8
Image
10
14.710026
20
66.883223
11
15.239380
21
66.460637
0
LINE
8
Image
10
15.239380
20
66.460637
11
15.815948
21
66.235940
0
LINE
8
Image
10
15.815948
20
66.235940
11
17.873625
21
66.220364
0
LINE
8
Image
10
17.873625
20
66.220364
11
19.888749
21
66.509160
0
LINE
8
Image
10
19.888749
20
66.509160
11
20.529780
21
66.791055
0
LINE
8
Image
10
20.529780
20
66.791055
11
21.072919
21
67.209915
0
LINE
8
Image
10
21.072919
20
67.209915
11
21.857673
21
68.235746
0
LINE
8
Image
10
21.857673
20
68.235746
11
22.356572
21
69.498947
0
LINE
8
Image
10
22.356572
20
69.498947
11
22.533286
21
70.858490
0
LINE
8
Image
10
22.533286
20
70.858490
11
22.351487
21
72.173351
0
LINE
8
Image
10
22.351487
20
72.173351
11
22.098789
21
72.848088
0
LINE
8
Image
10
22.098789
20
72.848088
11
21.764563
21
73.301834
0
LINE
8
Image
10
21.764563
20
73.301834
11
21.252380
21
73.622854
0
LINE
8
Image
10
21.252380
20
73.622854
11
20.465814
21
73.899414
0
LINE
8
Image
10
20.465814
20
73.899414
11
18.555383
21
74.677741
0
LINE
8
Image
10
18.555383
20
74.677741
11
18.347301
21
74.757046
0
LINE
8
Image
10
18.347301
20
74.757046
11
18.147391
21
74.639249
0
LINE
8
Image
10
18.147391
20
74.639249
11
17.740095
21
73.776997
0
LINE
8
Image
10
17.740095
20
73.776997
11
17.111759
21
72.595708
0
LINE
8
Image
10
17.111759
20
72.595708
11
16.115029
21
71.507969
0
LINE
8
Image
10
16.115029
20
71.507969
11
14.914231
21
70.658631
0
LINE
8
Image
10
14.914231
20
70.658631
11
13.673691
21
70.192543
0
LINE
8
Image
10
13.673691
20
70.192543
11
12.616639
21
70.157036
0
LINE
8
Image
10
12.616639
20
70.157036
11
11.523266
21
70.354643
0
LINE
8
Image
10
11.523266
20
70.354643
11
10.666844
21
70.708126
0
LINE
8
Image
10
10.666844
20
70.708126
11
10.320643
21
71.140247
0
LINE
8
Image
10
10.320643
20
71.140247
11
10.420610
21
71.372930
0
LINE
8
Image
10
10.420610
20
71.372930
11
10.660719
21
71.440456
0
LINE
8
Image
10
10.660719
20
71.440456
11
10.951275
21
71.347178
0
LINE
8
Image
10
10.951275
20
71.347178
11
11.202586
21
71.097449
0
LINE
8
Image
10
11.202586
20
71.097449
11
11.802929
21
70.799950
0
LINE
8
Image
10
11.802929
20
70.799950
11
12.857940
21
70.769120
0
LINE
8
Image
10
12.857940
20
70.769120
11
14.062469
21
70.980566
0
LINE
8
Image
10
14.062469
20
70.980566
11
15.111371
21
71.409897
0
LINE
8
Image
10
15.111371
20
71.409897
11
15.907350
21
72.102618
0
LINE
8
Image
10
15.907350
20
72.102618
11
16.636759
21
73.082456
0
LINE
8
Image
10
16.636759
20
73.082456
11
17.169679
21
74.139749
0
LINE
8
Image
10
17.169679
20
74.139749
11
17.376189
21
75.064834
0
LINE
8
Image
10
17.376189
20
75.064834
11
17.157906
21
75.621987
0
LINE
8
Image
10
17.157906
20
75.621987
11
16.633096
21
76.246239
0
LINE
8
Image
10
16.633096
20
76.246239
11
15.555796
21
77.472572
0
LINE
8
Image
10
15.555796
20
77.472572
11
14.862106
21
78.950017
0
LINE
8
Image
10
14.862106
20
78.950017
11
14.490471
21
80.875180
0
LINE
8
Image
10
14.490471
20
80.875180
11
14.379338
21
83.444664
0
LINE
8
Image
10
14.379338
20
83.444664
11
14.535424
21
86.863040
0
LINE
8
Image
10
14.535424
20
86.863040
11
14.825468
21
87.948976
0
LINE
8
Image
10
14.825468
20
87.948976
11
15.339670
21
89.107812
0
LINE
8
Image
10
15.339670
20
89.107812
11
16.393833
21
90.791555
0
LINE
8
Image
10
16.393833
20
90.791555
11
16.984675
21
91.372317
0
LINE
8
Image
10
16.984675
20
91.372317
11
17.663203
21
91.831972
0
LINE
8
Image
10
17.663203
20
91.831972
11
19.231209
21
92.473725
0
LINE
8
Image
10
19.231209
20
92.473725
11
21.012455
21
92.804756
0
LINE
8
Image
10
21.012455
20
92.804756
11
22.851956
21
92.810641
0
LINE
8
Image
10
22.851956
20
92.810641
11
24.594730
21
92.476959
0
LINE
8
Image
10
24.594730
20
92.476959
11
26.035403
21
92.138810
0
LINE
8
Image
10
26.035403
20
92.138810
11
26.403261
21
92.182807
0
LINE
8
Image
10
26.403261
20
92.182807
11
26.617799
21
92.364305
0
LINE
8
Image
10
26.617799
20
92.364305
11
26.794607
21
92.539692
0
LINE
8
Image
10
26.794607
20
92.539692
11
26.917201
21
92.470850
0
LINE
8
Image
10
26.917201
20
92.470850
11
26.921138
21
91.757674
0
LINE
8
Image
10
26.921138
20
91.757674
11
26.887938
21
91.181223
0
LINE
8
Image
10
26.887938
20
91.181223
11
27.012269
21
90.673242
0
LINE
8
Image
10
27.012269
20
90.673242
11
27.665778
21
89.866401
0
LINE
8
Image
10
27.665778
20
89.866401
11
28.746164
21
89.344577
0
LINE
8
Image
10
28.746164
20
89.344577
11
30.117930
21
89.115196
0
LINE
8
Image
10
30.117930
20
89.115196
11
31.645575
21
89.185682
0
LINE
8
Image
10
31.645575
20
89.185682
11
33.193602
21
89.563463
0
LINE
8
Image
10
33.193602
20
89.563463
11
34.626511
21
90.255963
0
LINE
8
Image
10
34.626511
20
90.255963
11
35.808803
21
91.270608
0
LINE
8
Image
10
35.808803
20
91.270608
11
36.278263
21
92.198115
0
LINE
8
Image
10
36.278263
20
92.198115
11
36.412222
21
93.358005
0
LINE
8
Image
10
36.412222
20
93.358005
11
36.216022
21
94.548521
0
LINE
8
Image
10
36.216022
20
94.548521
11
35.695006
21
95.567905
0
LINE
8
Image
10
35.695006
20
95.567905
11
35.273713
21
96.224376
0
LINE
8
Image
10
35.273713
20
96.224376
11
35.287551
21
96.497422
0
LINE
8
Image
10
35.287551
20
96.497422
11
35.740377
21
96.297724
0
LINE
8
Image
10
35.740377
20
96.297724
11
36.232624
21
95.778481
0
LINE
8
Image
10
36.232624
20
95.778481
11
36.673983
21
95.059470
0
LINE
8
Image
10
36.673983
20
95.059470
11
36.974146
21
94.260470
0
LINE
8
Image
10
36.974146
20
94.260470
11
37.224317
21
93.258238
0
LINE
8
Image
10
37.224317
20
93.258238
11
37.971767
21
94.005854
0
LINE
8
Image
10
37.971767
20
94.005854
11
38.478198
21
94.930175
0
LINE
8
Image
10
38.478198
20
94.930175
11
38.695077
21
96.193713
0
LINE
8
Image
10
38.695077
20
96.193713
11
38.605978
21
97.469950
0
LINE
8
Image
10
38.605978
20
97.469950
11
38.194474
21
98.432368
0
LINE
8
Image
10
38.194474
20
98.432368
11
37.938846
21
98.889550
0
LINE
8
Image
10
37.938846
20
98.889550
11
37.967036
21
99.214218
0
LINE
8
Image
10
37.967036
20
99.214218
11
38.225426
21
99.260819
0
LINE
8
Image
10
38.225426
20
99.260819
11
38.523812
21
98.998117
0
LINE
8
Image
10
38.523812
20
98.998117
11
39.116788
21
97.866700
0
LINE
8
Image
10
39.116788
20
97.866700
11
39.498394
21
96.463761
0
LINE
8
Image
10
39.498394
20
96.463761
11
39.532569
21
95.861656
0
LINE
8
Image
10
39.532569
20
95.861656
11
39.421063
21
95.433092
0
LINE
8
Image
10
39.421063
20
95.433092
11
39.376958
21
95.249394
0
LINE
8
Image
10
39.376958
20
95.249394
11
39.494086
21
95.137276
0
LINE
8
Image
10
39.494086
20
95.137276
11
40.069584
21
95.109478
0
LINE
8
Image
10
40.069584
20
95.109478
11
40.862640
21
95.313093
0
LINE
8
Image
10
40.862640
20
95.313093
11
41.588341
21
95.711518
0
LINE
8
Image
10
41.588341
20
95.711518
11
42.273144
21
96.397275
0
LINE
8
Image
10
42.273144
20
96.397275
11
42.753380
21
97.186204
0
LINE
8
Image
10
42.753380
20
97.186204
11
43.036245
21
98.094305
0
LINE
8
Image
10
43.036245
20
98.094305
11
43.128934
21
99.137579
0
LINE
8
Image
10
43.128934
20
99.137579
11
42.981865
21
100.370953
0
LINE
8
Image
10
42.981865
20
100.370953
11
42.546375
21
101.468452
0
LINE
8
Image
10
42.546375
20
101.468452
11
41.831040
21
102.414846
0
LINE
8
Image
10
41.831040
20
102.414846
11
40.844434
21
103.194907
0
LINE
8
Image
10
40.844434
20
103.194907
11
39.966372
21
103.838871
0
LINE
8
Image
10
39.966372
20
103.838871
11
39.601162
21
104.308117
0
LINE
8
Image
10
39.601162
20
104.308117
11
39.732797
21
104.461290
0
LINE
8
Image
10
39.732797
20
104.461290
11
40.085560
21
104.370072
0
LINE
8
Image
10
40.085560
20
104.370072
11
41.201603
21
103.650537
0
LINE
8
Image
10
41.201603
20
103.650537
11
42.443558
21
102.541659
0
LINE
8
Image
10
42.443558
20
102.541659
11
43.305694
21
101.435588
0
LINE
8
Image
10
43.305694
20
101.435588
11
43.695225
21
100.384181
0
LINE
8
Image
10
43.695225
20
100.384181
11
43.829903
21
99.288298
0
LINE
8
Image
10
43.829903
20
99.288298
11
43.730131
21
98.196952
0
LINE
8
Image
10
43.730131
20
98.196952
11
43.416309
21
97.159153
0
LINE
8
Image
10
43.416309
20
97.159153
11
42.908838
21
96.223911
0
LINE
8
Image
10
42.908838
20
96.223911
11
42.228119
21
95.440237
0
LINE
8
Image
10
42.228119
20
95.440237
11
41.394555
21
94.857143
0
LINE
8
Image
10
41.394555
20
94.857143
11
40.428544
21
94.523638
0
LINE
8
Image
10
40.428544
20
94.523638
11
39.270424
21
94.038284
0
LINE
8
Image
10
39.270424
20
94.038284
11
38.048590
21
93.184061
0
LINE
8
Image
10
38.048590
20
93.184061
11
37.182614
21
92.308576
0
LINE
8
Image
10
37.182614
20
92.308576
11
37.014189
21
91.971488
0
LINE
8
Image
10
37.014189
20
91.971488
11
37.092068
21
91.759436
0
LINE
8
Image
10
37.092068
20
91.759436
11
37.353557
21
90.720727
0
LINE
8
Image
10
37.353557
20
90.720727
11
37.453888
21
88.458374
0
LINE
8
Image
10
37.453888
20
88.458374
11
37.295071
21
85.680072
0
LINE
8
Image
10
37.295071
20
85.680072
11
37.024189
21
84.842305
0
LINE
8
Image
10
37.024189
20
84.842305
11
36.555650
21
84.026747
0
LINE
8
Image
10
36.555650
20
84.026747
11
35.663907
21
82.668552
0
LINE
8
Image
10
35.663907
20
82.668552
11
36.486009
21
81.793468
0
LINE
8
Image
10
36.486009
20
81.793468
11
36.889702
21
81.249959
0
LINE
8
Image
10
36.889702
20
81.249959
11
37.170122
21
80.629707
0
LINE
8
Image
10
37.170122
20
80.629707
11
37.365027
21
79.272628
0
LINE
8
Image
10
37.365027
20
79.272628
11
37.078496
21
77.949536
0
LINE
8
Image
10
37.078496
20
77.949536
11
36.757119
21
77.371769
0
LINE
8
Image
10
36.757119
20
77.371769
11
36.318298
21
76.887739
0
LINE
8
Image
10
36.318298
20
76.887739
11
35.560750
21
76.387841
0
LINE
8
Image
10
35.560750
20
76.387841
11
34.752214
21
76.090926
0
LINE
8
Image
10
34.752214
20
76.090926
11
34.028322
21
76.028774
0
LINE
8
Image
10
34.028322
20
76.028774
11
33.524711
21
76.233166
0
LINE
8
Image
10
33.524711
20
76.233166
11
33.496835
21
76.666598
0
LINE
8
Image
10
33.496835
20
76.666598
11
33.706207
21
77.432283
0
LINE
8
Image
10
33.706207
20
77.432283
11
33.887499
21
78.423901
0
LINE
8
Image
10
33.887499
20
78.423901
11
33.463273
21
79.382728
0
LINE
8
Image
10
33.463273
20
79.382728
11
33.066262
21
80.096004
0
LINE
8
Image
10
33.066262
20
80.096004
11
33.007781
21
80.449523
0
LINE
8
Image
10
33.007781
20
80.449523
11
33.259792
21
80.399339
0
LINE
8
Image
10
33.259792
20
80.399339
11
33.794258
21
79.901506
0
LINE
8
Image
10
33.794258
20
79.901506
11
34.262308
21
79.035117
0
LINE
8
Image
10
34.262308
20
79.035117
11
34.450612
21
77.959070
0
LINE
8
Image
10
34.450612
20
77.959070
11
34.554338
21
77.129099
0
LINE
8
Image
10
34.554338
20
77.129099
11
34.863763
21
76.781418
0
LINE
8
Image
10
34.863763
20
76.781418
11
35.376253
21
76.916707
0
LINE
8
Image
10
35.376253
20
76.916707
11
36.089177
21
77.535645
0
LINE
8
Image
10
36.089177
20
77.535645
11
36.646566
21
78.448608
0
LINE
8
Image
10
36.646566
20
78.448608
11
36.659144
21
79.700844
0
LINE
8
Image
10
36.659144
20
79.700844
11
36.368043
21
80.910005
0
LINE
8
Image
10
36.368043
20
80.910005
11
35.811975
21
81.681717
0
LINE
8
Image
10
35.811975
20
81.681717
11
34.898442
21
82.090267
0
LINE
8
Image
10
34.898442
20
82.090267
11
33.534948
21
82.209942
0
LINE
8
Image
10
33.534948
20
82.209942
11
32.224166
21
82.316400
0
LINE
8
Image
10
32.224166
20
82.316400
11
31.605929
21
82.572350
0
LINE
8
Image
10
31.605929
20
82.572350
11
31.648749
21
82.712709
0
LINE
8
Image
10
31.648749
20
82.712709
11
31.877409
21
82.801415
0
LINE
8
Image
10
31.877409
20
82.801415
11
32.810737
21
82.807932
0
LINE
8
Image
10
32.810737
20
82.807932
11
34.068773
21
82.887308
0
LINE
8
Image
10
34.068773
20
82.887308
11
35.149751
21
83.474895
0
LINE
8
Image
10
35.149751
20
83.474895
11
36.009477
21
84.375490
0
LINE
8
Image
10
36.009477
20
84.375490
11
36.647539
21
85.444113
0
LINE
8
Image
10
36.647539
20
85.444113
11
36.950038
21
86.431759
0
LINE
8
Image
10
36.950038
20
86.431759
11
36.939858
21
86.817399
0
LINE
8
Image
10
36.939858
20
86.817399
11
36.803075
21
87.089417
0
LINE
8
Image
10
36.803075
20
87.089417
11
36.514360
21
87.282050
0
LINE
8
Image
10
36.514360
20
87.282050
11
36.426166
21
87.055711
0
LINE
8
Image
10
36.426166
20
87.055711
11
36.039411
21
86.502908
0
LINE
8
Image
10
36.039411
20
86.502908
11
35.109553
21
85.750433
0
LINE
8
Image
10
35.109553
20
85.750433
11
33.939469
21
85.176056
0
LINE
8
Image
10
33.939469
20
85.176056
11
32.673528
21
84.877247
0
LINE
8
Image
10
32.673528
20
84.877247
11
31.582987
21
84.887253
0
LINE
8
Image
10
31.582987
20
84.887253
11
31.188258
21
85.018450
0
LINE
8
Image
10
31.188258
20
85.018450
11
30.939100
21
85.239317
0
LINE
8
Image
10
30.939100
20
85.239317
11
30.904048
21
85.398942
0
LINE
8
Image
10
30.904048
20
85.398942
11
31.024497
21
85.506068
0
LINE
8
Image
10
31.024497
20
85.506068
11
31.712032
21
85.554713
0
LINE
8
Image
10
31.712032
20
85.554713
11
32.823680
21
85.517358
0
LINE
8
Image
10
32.823680
20
85.517358
11
33.612099
21
85.625626
0
LINE
8
Image
10
33.612099
20
85.625626
11
34.281466
21
85.938509
0
LINE
8
Image
10
34.281466
20
85.938509
11
35.035957
21
86.514994
0
LINE
8
Image
10
35.035957
20
86.514994
11
35.921770
21
87.443599
0
LINE
8
Image
10
35.921770
20
87.443599
11
36.566186
21
88.486926
0
LINE
8
Image
10
36.566186
20
88.486926
11
36.911311
21
89.523298
0
LINE
8
Image
10
36.911311
20
89.523298
11
36.899248
21
90.431039
0
LINE
8
Image
10
36.899248
20
90.431039
11
36.764245
21
90.838747
0
LINE
8
Image
10
36.764245
20
90.838747
11
36.559619
21
90.947314
0
LINE
8
Image
10
36.559619
20
90.947314
11
35.418435
21
90.177452
0
LINE
8
Image
10
35.418435
20
90.177452
11
34.156252
21
89.355990
0
LINE
8
Image
10
34.156252
20
89.355990
11
32.833431
21
88.783941
0
LINE
8
Image
10
32.833431
20
88.783941
11
31.499124
21
88.459589
0
LINE
8
Image
10
31.499124
20
88.459589
11
30.202484
21
88.381219
0
LINE
8
Image
10
30.202484
20
88.381219
11
28.992663
21
88.547112
0
LINE
8
Image
10
28.992663
20
88.547112
11
27.918811
21
88.955555
0
LINE
8
Image
10
27.918811
20
88.955555
11
27.030082
21
89.604829
0
LINE
8
Image
10
27.030082
20
89.604829
11
26.375627
21
90.493219
0
LINE
8
Image
10
26.375627
20
90.493219
11
25.623758
21
91.336580
0
LINE
8
Image
10
25.623758
20
91.336580
11
24.422844
21
91.909464
0
LINE
8
Image
10
24.422844
20
91.909464
11
22.848822
21
92.188556
0
LINE
8
Image
10
22.848822
20
92.188556
11
20.977631
21
92.150540
0
LINE
8
Image
10
20.977631
20
92.150540
11
19.696384
21
91.933376
0
LINE
8
Image
10
19.696384
20
91.933376
11
18.582233
21
91.555819
0
LINE
8
Image
10
18.582233
20
91.555819
11
17.626727
21
91.008421
0
LINE
8
Image
10
17.626727
20
91.008421
11
16.821415
21
90.281735
0
LINE
8
Image
10
16.821415
20
90.281735
11
16.157845
21
89.366313
0
LINE
8
Image
10
16.157845
20
89.366313
11
15.627567
21
88.252707
0
LINE
8
Image
10
15.627567
20
88.252707
11
15.222130
21
86.931470
0
LINE
8
Image
10
15.222130
20
86.931470
11
14.933082
21
85.393154
0
LINE
8
Image
10
14.933082
20
85.393154
11
14.782661
21
83.293736
0
LINE
8
Image
10
14.782661
20
83.293736
11
14.935367
21
81.347421
0
LINE
8
Image
10
14.935367
20
81.347421
11
15.376308
21
79.579780
0
LINE
8
Image
10
15.376308
20
79.579780
11
16.090595
21
78.016383
0
LINE
8
Image
10
16.090595
20
78.016383
11
17.063337
21
76.682799
0
LINE
8
Image
10
17.063337
20
76.682799
11
18.279643
21
75.604600
0
LINE
8
Image
10
18.279643
20
75.604600
11
19.724622
21
74.807356
0
LINE
8
Image
10
19.724622
20
74.807356
11
21.383383
21
74.316638
0
LINE
8
Image
10
21.383383
20
74.316638
11
22.874800
21
73.834963
0
LINE
8
Image
10
22.874800
20
73.834963
11
24.036592
21
73.078323
0
LINE
8
Image
10
24.036592
20
73.078323
11
25.193908
21
72.338443
0
LINE
8
Image
10
25.193908
20
72.338443
11
26.474073
21
72.100997
0
LINE
8
Image
10
26.474073
20
72.100997
11
27.694816
21
72.364116
0
LINE
8
Image
10
27.694816
20
72.364116
11
28.225943
21
72.682802
0
LINE
8
Image
10
28.225943
20
72.682802
11
28.673862
21
73.125927
0
LINE
8
Image
10
28.673862
20
73.125927
11
29.246780
21
74.205325
0
LINE
8
Image
10
29.246780
20
74.205325
11
29.271968
21
75.595367
0
LINE
8
Image
10
29.271968
20
75.595367
11
29.241989
21
76.650097
0
LINE
8
Image
10
29.241989
20
76.650097
11
29.399655
21
77.059050
0
LINE
8
Image
10
29.399655
20
77.059050
11
29.658091
21
76.792496
0
LINE
8
Image
10
29.658091
20
76.792496
11
29.930423
21
75.820705
0
LINE
8
Image
10
29.930423
20
75.820705
11
29.959960
21
74.559372
0
LINE
8
Image
10
29.959960
20
74.559372
11
29.607035
21
73.388774
0
LINE
8
Image
10
29.607035
20
73.388774
11
28.924327
21
72.417840
0
LINE
8
Image
10
28.924327
20
72.417840
11
27.964515
21
71.755501
0
LINE
8
Image
10
27.964515
20
71.755501
11
27.370674
21
71.460169
0
LINE
8
Image
10
27.370674
20
71.460169
11
27.067670
21
71.156627
0
LINE
8
Image
10
27.067670
20
71.156627
11
26.993296
21
70.723429
0
LINE
8
Image
10
26.993296
20
70.723429
11
27.085343
21
70.039124
0
LINE
8
Image
10
27.085343
20
70.039124
11
27.501198
21
68.487505
0
LINE
8
Image
10
27.501198
20
68.487505
11
28.159840
21
66.942475
0
LINE
8
Image
10
28.159840
20
66.942475
11
29.005513
21
65.514231
0
LINE
8
Image
10
29.005513
20
65.514231
11
29.982466
21
64.312969
0
LINE
8
Image
10
29.982466
20
64.312969
11
30.821443
21
63.316387
0
LINE
8
Image
10
30.821443
20
63.316387
11
31.037486
21
62.768966
0
LINE
8
Image
10
31.037486
20
62.768966
11
30.457225
21
63.058169
0
LINE
8
Image
10
30.457225
20
63.058169
11
29.381691
21
64.073042
0
LINE
8
Image
10
29.381691
20
64.073042
11
28.420238
21
65.305795
0
LINE
8
Image
10
28.420238
20
65.305795
11
27.581406
21
66.788887
0
LINE
8
Image
10
27.581406
20
66.788887
11
26.897631
21
68.455230
0
LINE
8
Image
10
26.897631
20
68.455230
11
26.401345
21
70.237736
0
LINE
8
Image
10
26.401345
20
70.237736
11
26.229108
21
70.776331
0
LINE
8
Image
10
26.229108
20
70.776331
11
25.952144
21
71.183359
0
LINE
8
Image
10
25.952144
20
71.183359
11
24.924332
21
71.768201
0
LINE
8
Image
10
24.924332
20
71.768201
11
23.989472
21
72.232240
0
LINE
8
Image
10
23.989472
20
72.232240
11
23.489020
21
72.716117
0
LINE
8
Image
10
23.489020
20
72.716117
11
23.215463
21
73.203657
0
LINE
8
Image
10
23.215463
20
73.203657
11
23.027805
21
73.067827
0
LINE
8
Image
10
23.027805
20
73.067827
11
22.964043
21
71.092617
0
LINE
8
Image
10
22.964043
20
71.092617
11
22.909401
21
69.157025
0
LINE
8
Image
10
22.909401
20
69.157025
11
22.363381
21
67.748727
0
LINE
8
Image
10
22.363381
20
67.748727
11
21.839873
21
66.566487
0
LINE
8
Image
10
21.839873
20
66.566487
11
21.899026
21
66.111486
0
LINE
8
Image
10
21.899026
20
66.111486
11
22.153209
21
65.549352
0
LINE
8
Image
10
22.153209
20
65.549352
11
22.529044
21
64.475803
0
LINE
8
Image
10
22.529044
20
64.475803
11
22.644159
21
63.301714
0
LINE
8
Image
10
22.644159
20
63.301714
11
22.500480
21
62.181963
0
LINE
8
Image
10
22.500480
20
62.181963
11
22.099938
21
61.271429
0
LINE
8
Image
10
22.099938
20
61.271429
11
21.730366
21
60.398797
0
LINE
8
Image
10
21.730366
20
60.398797
11
21.742729
21
59.407111
0
LINE
8
Image
10
21.742729
20
59.407111
11
21.748969
21
58.416114
0
LINE
8
Image
10
21.748969
20
58.416114
11
21.470737
21
57.254267
0
LINE
8
Image
10
21.470737
20
57.254267
11
20.969485
21
56.103863
0
LINE
8
Image
10
20.969485
20
56.103863
11
20.306666
21
55.147195
0
LINE
8
Image
10
20.306666
20
55.147195
11
20.001176
21
54.702066
0
LINE
8
Image
10
20.001176
20
54.702066
11
20.067671
21
54.516924
0
LINE
8
Image
10
20.067671
20
54.516924
11
20.562861
21
54.179775
0
LINE
8
Image
10
20.562861
20
54.179775
11
21.064618
21
53.340448
0
LINE
8
Image
10
21.064618
20
53.340448
11
21.453363
21
52.257121
0
LINE
8
Image
10
21.453363
20
52.257121
11
21.609518
21
51.187972
0
LINE
8
Image
10
21.609518
20
51.187972
11
21.468332
21
49.976337
0
LINE
8
Image
10
21.468332
20
49.976337
11
21.083691
21
48.698652
0
LINE
8
Image
10
21.083691
20
48.698652
11
20.513973
21
47.506020
0
LINE
8
Image
10
20.513973
20
47.506020
11
19.817554
21
46.549546
0
LINE
8
Image
10
19.817554
20
46.549546
11
19.430084
21
45.964589
0
LINE
8
Image
10
19.430084
20
45.964589
11
19.253680
21
44.806261
0
LINE
8
Image
10
19.253680
20
44.806261
11
19.393420
21
37.901688
0
LINE
8
Image
10
19.393420
20
37.901688
11
19.542213
21
31.746369
0
LINE
8
Image
10
19.542213
20
31.746369
11
19.424238
21
27.681193
0
LINE
8
Image
10
19.424238
20
27.681193
11
18.974245
21
24.922184
0
LINE
8
Image
10
18.974245
20
24.922184
11
18.126984
21
22.685366
0
LINE
8
Image
10
18.126984
20
22.685366
11
17.156664
21
20.961524
0
LINE
8
Image
10
17.156664
20
20.961524
11
15.917739
21
19.261051
0
LINE
8
Image
10
15.917739
20
19.261051
11
14.449512
21
17.617730
0
LINE
8
Image
10
14.449512
20
17.617730
11
12.791285
21
16.065340
0
LINE
8
Image
10
12.791285
20
16.065340
11
10.982362
21
14.637665
0
LINE
8
Image
10
10.982362
20
14.637665
11
9.062046
21
13.368485
0
LINE
8
Image
10
9.062046
20
13.368485
11
7.069638
21
12.291581
0
LINE
8
Image
10
7.069638
20
12.291581
11
5.044443
21
11.440734
0
LINE
8
Image
10
5.044443
20
11.440734
11
2.766851
21
10.624956
0
LINE
8
Image
10
2.766851
20
10.624956
11
5.044443
21
9.598123
0
LINE
8
Image
10
5.044443
20
9.598123
11
7.936981
21
8.428946
0
LINE
8
Image
10
7.936981
20
8.428946
11
11.320350
21
7.279580
0
LINE
8
Image
10
11.320350
20
7.279580
11
14.879899
21
6.248828
0
LINE
8
Image
10
14.879899
20
6.248828
11
18.300972
21
5.435491
0
LINE
8
Image
10
18.300972
20
5.435491
11
20.649371
21
5.011716
0
LINE
8
Image
10
20.649371
20
5.011716
11
23.136153
21
4.769175
0
LINE
8
Image
10
23.136153
20
4.769175
11
32.016448
21
4.620261
0
LINE
8
Image
10
32.016448
20
4.620261
11
41.894212
21
4.598935
0
LINE
8
Image
10
41.894212
20
4.598935
11
46.303930
21
2.598436
0
LINE
8
Image
10
46.303930
20
2.598436
11
49.729178
21
1.138955
0
LINE
8
Image
10
49.729178
20
1.138955
11
51.771980
21
0.439204
0
LINE
8
Image
10
51.771980
20
0.439204
11
52.935943
21
0.372255
0
LINE
8
Image
10
52.935943
20
0.372255
11
54.275595
21
0.474412
0
LINE
8
Image
10
54.275595
20
0.474412
11
57.058980
21
1.130723
0
LINE
8
Image
10
57.058980
20
1.130723
11
57.058980
21
1.130718
0
LINE
8
Image
10
34.309502
20
10.699939
11
34.480996
21
11.081567
0
LINE
8
Image
10
34.480996
20
11.081567
11
34.893315
21
11.523086
0
LINE
8
Image
10
34.893315
20
11.523086
11
35.388830
21
12.092177
0
LINE
8
Image
10
35.388830
20
12.092177
11
35.796246
21
12.878727
0
LINE
8
Image
10
35.796246
20
12.878727
11
36.322137
21
14.929099
0
LINE
8
Image
10
36.322137
20
14.929099
11
36.421715
21
17.324004
0
LINE
8
Image
10
36.421715
20
17.324004
11
36.045703
21
19.713242
0
LINE
8
Image
10
36.045703
20
19.713242
11
35.853825
21
21.141886
0
LINE
8
Image
10
35.853825
20
21.141886
11
35.994094
21
21.401939
0
LINE
8
Image
10
35.994094
20
21.401939
11
36.278287
21
21.268545
0
LINE
8
Image
10
36.278287
20
21.268545
11
36.608685
21
20.253439
0
LINE
8
Image
10
36.608685
20
20.253439
11
36.886466
21
18.336031
0
LINE
8
Image
10
36.886466
20
18.336031
11
37.037778
21
16.211919
0
LINE
8
Image
10
37.037778
20
16.211919
11
36.988767
21
14.576702
0
LINE
8
Image
10
36.988767
20
14.576702
11
36.587569
21
13.085013
0
LINE
8
Image
10
36.587569
20
13.085013
11
35.967453
21
11.795712
0
LINE
8
Image
10
35.967453
20
11.795712
11
35.380006
21
11.050689
0
LINE
8
Image
10
35.380006
20
11.050689
11
34.846573
21
10.579210
0
LINE
8
Image
10
34.846573
20
10.579210
11
34.459092
21
10.442039
0
LINE
8
Image
10
34.459092
20
10.442039
11
34.309502
21
10.699939
0
LINE
8
Image
10
34.309502
20
10.699939
11
34.309502
21
10.699939
0
LINE
8
Image
10
44.915256
20
11.102875
11
44.440082
21
11.842152
0
LINE
8
Image
10
44.440082
20
11.842152
11
43.892904
21
13.126233
0
LINE
8
Image
10
43.892904
20
13.126233
11
42.708516
21
16.870391
0
LINE
8
Image
10
42.708516
20
16.870391
11
41.614051
21
21.418513
0
LINE
8
Image
10
41.614051
20
21.418513
11
40.861471
21
25.853763
0
LINE
8
Image
10
40.861471
20
25.853763
11
40.771051
21
27.425184
0
LINE
8
Image
10
40.771051
20
27.425184
11
40.843153
21
27.698487
0
LINE
8
Image
10
40.843153
20
27.698487
11
40.970899
21
27.658669
0
LINE
8
Image
10
40.970899
20
27.658669
11
41.325631
21
26.725119
0
LINE
8
Image
10
41.325631
20
26.725119
11
41.699866
21
24.795431
0
LINE
8
Image
10
41.699866
20
24.795431
11
42.525199
21
20.048301
0
LINE
8
Image
10
42.525199
20
20.048301
11
43.508987
21
16.077136
0
LINE
8
Image
10
43.508987
20
16.077136
11
44.580938
21
13.118879
0
LINE
8
Image
10
44.580938
20
13.118879
11
45.128008
21
12.093635
0
LINE
8
Image
10
45.128008
20
12.093635
11
45.670759
21
11.410471
0
LINE
8
Image
10
45.670759
20
11.410471
11
46.351677
21
10.650925
0
LINE
8
Image
10
46.351677
20
10.650925
11
46.363644
21
10.475485
0
LINE
8
Image
10
46.363644
20
10.475485
11
46.164849
21
10.419756
0
LINE
8
Image
10
46.164849
20
10.419756
11
45.564111
21
10.620422
0
LINE
8
Image
10
45.564111
20
10.620422
11
44.915256
21
11.102875
0
LINE
8
Image
10
44.915256
20
11.102875
11
44.915256
21
11.102875
0
LINE
8
Image
10
50.671232
20
22.875472
11
52.271644
21
24.927074
0
LINE
8
Image
10
52.271644
20
24.927074
11
53.593166
21
27.000393
0
LINE
8
Image
10
53.593166
20
27.000393
11
54.614440
21
29.057775
0
LINE
8
Image
10
54.614440
20
29.057775
11
55.314111
21
31.061561
0
LINE
8
Image
10
55.314111
20
31.061561
11
55.803941
21
32.517213
0
LINE
8
Image
10
55.803941
20
32.517213
11
56.235589
21
33.299623
0
LINE
8
Image
10
56.235589
20
33.299623
11
56.384376
21
33.388286
0
LINE
8
Image
10
56.384376
20
33.388286
11
56.464356
21
33.248550
0
LINE
8
Image
10
56.464356
20
33.248550
11
56.345540
21
32.203755
0
LINE
8
Image
10
56.345540
20
32.203755
11
55.594573
21
29.734483
0
LINE
8
Image
10
55.594573
20
29.734483
11
54.417827
21
27.184074
0
LINE
8
Image
10
54.417827
20
27.184074
11
52.910565
21
24.730149
0
LINE
8
Image
10
52.910565
20
24.730149
11
51.168053
21
22.550328
0
LINE
8
Image
10
51.168053
20
22.550328
11
49.968084
21
21.360363
0
LINE
8
Image
10
49.968084
20
21.360363
11
49.440953
21
21.046915
0
LINE
8
Image
10
49.440953
20
21.046915
11
49.653167
21
21.566460
0
LINE
8
Image
10
49.653167
20
21.566460
11
50.671232
21
22.875472
0
LINE
8
Image
10
50.671232
20
22.875472
11
50.671232
21
22.875472
0
LINE
8
Image
10
54.835216
20
47.470851
11
52.008789
21
48.386507
0
LINE
8
Image
10
52.008789
20
48.386507
11
48.838000
21
49.638444
0
LINE
8
Image
10
48.838000
20
49.638444
11
45.848023
21
51.010611
0
LINE
8
Image
10
45.848023
20
51.010611
11
43.206353
21
52.419597
0
LINE
8
Image
10
43.206353
20
52.419597
11
40.327587
21
54.204046
0
LINE
8
Image
10
40.327587
20
54.204046
11
36.626317
21
56.702599
0
LINE
8
Image
10
36.626317
20
56.702599
11
36.436723
21
56.937821
0
LINE
8
Image
10
36.436723
20
56.937821
11
36.480953
21
57.158745
0
LINE
8
Image
10
36.480953
20
57.158745
11
37.549354
21
56.688486
0
LINE
8
Image
10
37.549354
20
56.688486
11
39.822123
21
55.261926
0
LINE
8
Image
10
39.822123
20
55.261926
11
44.360917
21
52.540437
0
LINE
8
Image
10
44.360917
20
52.540437
11
49.206640
21
50.192298
0
LINE
8
Image
10
49.206640
20
50.192298
11
53.807977
21
48.455876
0
LINE
8
Image
10
53.807977
20
48.455876
11
55.844716
21
47.891549
0
LINE
8
Image
10
55.844716
20
47.891549
11
57.613615
21
47.569540
0
LINE
8
Image
10
57.613615
20
47.569540
11
58.844664
21
47.334547
0
LINE
8
Image
10
58.844664
20
47.334547
11
59.356693
21
47.059461
0
LINE
8
Image
10
59.356693
20
47.059461
11
59.044261
21
46.818394
0
LINE
8
Image
10
59.044261
20
46.818394
11
58.146750
21
46.810223
0
LINE
8
Image
10
58.146750
20
46.810223
11
54.835216
21
47.470851
0
LINE
8
Image
10
54.835216
20
47.470851
11
54.835216
21
47.470851
0
LINE
8
Image
10
69.168762
20
60.556001
11
68.121189
21
61.363445
0
LINE
8
Image
10
68.121189
20
61.363445
11
66.787515
21
61.572468
0
LINE
8
Image
10
66.787515
20
61.572468
11
65.775029
21
61.676097
0
LINE
8
Image
10
65.775029
20
61.676097
11
65.353906
21
61.925248
0
LINE
8
Image
10
65.353906
20
61.925248
11
65.732785
21
62.189099
0
LINE
8
Image
10
65.732785
20
62.189099
11
66.638115
21
62.267262
0
LINE
8
Image
10
66.638115
20
62.267262
11
67.722937
21
62.164095
0
LINE
8
Image
10
67.722937
20
62.164095
11
68.640289
21
61.883957
0
LINE
8
Image
10
68.640289
20
61.883957
11
69.528871
21
61.237385
0
LINE
8
Image
10
69.528871
20
61.237385
11
70.268207
21
60.414365
0
LINE
8
Image
10
70.268207
20
60.414365
11
70.628759
21
59.729569
0
LINE
8
Image
10
70.628759
20
59.729569
11
70.595259
21
59.537340
0
LINE
8
Image
10
70.595259
20
59.537340
11
70.380986
21
59.497669
0
LINE
8
Image
10
70.380986
20
59.497669
11
69.168762
21
60.556001
0
LINE
8
Image
10
69.168762
20
60.556001
11
69.168762
21
60.556001
0
LINE
8
Image
10
65.379512
20
74.143640
11
64.946918
21
74.798468
0
LINE
8
Image
10
64.946918
20
74.798468
11
64.691423
21
75.478894
0
LINE
8
Image
10
64.691423
20
75.478894
11
64.626350
21
77.271062
0
LINE
8
Image
10
64.626350
20
77.271062
11
64.954637
21
77.989824
0
LINE
8
Image
10
64.954637
20
77.989824
11
65.664282
21
78.865400
0
LINE
8
Image
10
65.664282
20
78.865400
11
66.479214
21
79.605264
0
LINE
8
Image
10
66.479214
20
79.605264
11
67.123360
21
79.916892
0
LINE
8
Image
10
67.123360
20
79.916892
11
67.443268
21
79.817641
0
LINE
8
Image
10
67.443268
20
79.817641
11
67.432863
21
79.569108
0
LINE
8
Image
10
67.432863
20
79.569108
11
67.132252
21
79.245124
0
LINE
8
Image
10
67.132252
20
79.245124
11
66.581545
21
78.919519
0
LINE
8
Image
10
66.581545
20
78.919519
11
66.024679
21
78.562242
0
LINE
8
Image
10
66.024679
20
78.562242
11
65.602183
21
78.080075
0
LINE
8
Image
10
65.602183
20
78.080075
11
65.317667
21
77.506157
0
LINE
8
Image
10
65.317667
20
77.506157
11
65.174743
21
76.873625
0
LINE
8
Image
10
65.174743
20
76.873625
11
65.177021
21
76.215619
0
LINE
8
Image
10
65.177021
20
76.215619
11
65.328115
21
75.565276
0
LINE
8
Image
10
65.328115
20
75.565276
11
65.631634
21
74.955733
0
LINE
8
Image
10
65.631634
20
74.955733
11
66.091190
21
74.420129
0
LINE
8
Image
10
66.091190
20
74.420129
11
66.765017
21
73.512223
0
LINE
8
Image
10
66.765017
20
73.512223
11
66.649611
21
73.235069
0
LINE
8
Image
10
66.649611
20
73.235069
11
66.341810
21
73.265428
0
LINE
8
Image
10
66.341810
20
73.265428
11
65.379512
21
74.143640
0
LINE
8
Image
10
65.379512
20
74.143640
11
65.379512
21
74.143640
0
LINE
8
Image
10
67.178338
20
74.861110
11
67.338133
21
75.202208
0
LINE
8
Image
10
67.338133
20
75.202208
11
67.656870
21
75.485764
0
LINE
8
Image
10
67.656870
20
75.485764
11
68.650088
21
75.856626
0
LINE
8
Image
10
68.650088
20
75.856626
11
69.915820
21
75.926452
0
LINE
8
Image
10
69.915820
20
75.926452
11
71.211895
21
75.647998
0
LINE
8
Image
10
71.211895
20
75.647998
11
72.193600
21
75.139499
0
LINE
8
Image
10
72.193600
20
75.139499
11
72.703334
21
74.621252
0
LINE
8
Image
10
72.703334
20
74.621252
11
72.740591
21
74.284109
0
LINE
8
Image
10
72.740591
20
74.284109
11
72.361125
21
74.521563
0
LINE
8
Image
10
72.361125
20
74.521563
11
71.411454
21
74.995650
0
LINE
8
Image
10
71.411454
20
74.995650
11
70.184937
21
75.214980
0
LINE
8
Image
10
70.184937
20
75.214980
11
68.949702
21
75.161490
0
LINE
8
Image
10
68.949702
20
75.161490
11
67.973881
21
74.817118
0
LINE
8
Image
10
67.973881
20
74.817118
11
67.203576
21
74.392973
0
LINE
8
Image
10
67.203576
20
74.392973
11
67.129878
21
74.513734
0
LINE
8
Image
10
67.129878
20
74.513734
11
67.178338
21
74.861110
0
LINE
8
Image
10
67.178338
20
74.861110
11
67.178338
21
74.861110
0
LINE
8
Image
10
19.918603
20
78.150319
11
19.172478
21
78.567256
0
LINE
8
Image
10
19.172478
20
78.567256
11
18.541837
21
79.090252
0
LINE
8
Image
10
18.541837
20
79.090252
11
18.025170
21
79.722784
0
LINE
8
Image
10
18.025170
20
79.722784
11
17.620970
21
80.468329
0
LINE
8
Image
10
17.620970
20
80.468329
11
17.143934
21
82.312368
0
LINE
8
Image
10
17.143934
20
82.312368
11
17.098660
21
84.650189
0
LINE
8
Image
10
17.098660
20
84.650189
11
17.259591
21
86.135816
0
LINE
8
Image
10
17.259591
20
86.135816
11
17.539885
21
87.410707
0
LINE
8
Image
10
17.539885
20
87.410707
11
17.942556
21
88.478763
0
LINE
8
Image
10
17.942556
20
88.478763
11
18.470623
21
89.343883
0
LINE
8
Image
10
18.470623
20
89.343883
11
19.127101
21
90.009965
0
LINE
8
Image
10
19.127101
20
90.009965
11
19.915008
21
90.480911
0
LINE
8
Image
10
19.915008
20
90.480911
11
20.837359
21
90.760619
0
LINE
8
Image
10
20.837359
20
90.760619
11
21.897172
21
90.852988
0
LINE
8
Image
10
21.897172
20
90.852988
11
23.250916
21
90.583111
0
LINE
8
Image
10
23.250916
20
90.583111
11
24.270543
21
89.807680
0
LINE
8
Image
10
24.270543
20
89.807680
11
24.913514
21
88.577999
0
LINE
8
Image
10
24.913514
20
88.577999
11
25.137291
21
86.945370
0
LINE
8
Image
10
25.137291
20
86.945370
11
25.033663
21
85.718742
0
LINE
8
Image
10
25.033663
20
85.718742
11
24.784514
21
85.208552
0
LINE
8
Image
10
24.784514
20
85.208552
11
24.535365
21
85.731403
0
LINE
8
Image
10
24.535365
20
85.731403
11
24.431736
21
86.988473
0
LINE
8
Image
10
24.431736
20
86.988473
11
24.253825
21
88.596524
0
LINE
8
Image
10
24.253825
20
88.596524
11
23.976962
21
89.147623
0
LINE
8
Image
10
23.976962
20
89.147623
11
23.526408
21
89.673723
0
LINE
8
Image
10
23.526408
20
89.673723
11
22.578202
21
90.357547
0
LINE
8
Image
10
22.578202
20
90.357547
11
22.095003
21
90.429972
0
LINE
8
Image
10
22.095003
20
90.429972
11
21.497938
21
90.359168
0
LINE
8
Image
10
21.497938
20
90.359168
11
20.586878
21
90.105438
0
LINE
8
Image
10
20.586878
20
90.105438
11
19.812914
21
89.722685
0
LINE
8
Image
10
19.812914
20
89.722685
11
19.170704
21
89.202164
0
LINE
8
Image
10
19.170704
20
89.202164
11
18.654902
21
88.535134
0
LINE
8
Image
10
18.654902
20
88.535134
11
18.260163
21
87.712854
0
LINE
8
Image
10
18.260163
20
87.712854
11
17.981143
21
86.726580
0
LINE
8
Image
10
17.981143
20
86.726580
11
17.748878
21
84.227084
0
LINE
8
Image
10
17.748878
20
84.227084
11
17.970887
21
81.739442
0
LINE
8
Image
10
17.970887
20
81.739442
11
18.271382
21
80.753013
0
LINE
8
Image
10
18.271382
20
80.753013
11
18.701631
21
79.933080
0
LINE
8
Image
10
18.701631
20
79.933080
11
19.264206
21
79.275816
0
LINE
8
Image
10
19.264206
20
79.275816
11
19.961677
21
78.777397
0
LINE
8
Image
10
19.961677
20
78.777397
11
20.796615
21
78.433998
0
LINE
8
Image
10
20.796615
20
78.433998
11
21.771591
21
78.241793
0
LINE
8
Image
10
21.771591
20
78.241793
11
22.902872
21
78.024129
0
LINE
8
Image
10
22.902872
20
78.024129
11
23.373404
21
77.754346
0
LINE
8
Image
10
23.373404
20
77.754346
11
23.289458
21
77.588914
0
LINE
8
Image
10
23.289458
20
77.588914
11
23.054743
21
77.490777
0
LINE
8
Image
10
23.054743
20
77.490777
11
22.235741
21
77.484617
0
LINE
8
Image
10
22.235741
20
77.484617
11
21.121870
21
77.712314
0
LINE
8
Image
10
21.121870
20
77.712314
11
19.918603
21
78.150319
0
LINE
8
Image
10
19.918603
20
78.150319
11
19.918603
21
78.150319
0
LINE
8
Image
10
21.377896
20
80.116443
11
20.842982
21
80.970209
0
LINE
8
Image
10
20.842982
20
80.970209
11
20.565394
21
82.073871
0
LINE
8
Image
10
20.565394
20
82.073871
11
20.572129
21
83.204709
0
LINE
8
Image
10
20.572129
20
83.204709
11
20.890183
21
84.140001
0
LINE
8
Image
10
20.890183
20
84.140001
11
21.224230
21
84.487874
0
LINE
8
Image
10
21.224230
20
84.487874
11
21.436722
21
84.417192
0
LINE
8
Image
10
21.436722
20
84.417192
11
21.468857
21
84.036462
0
LINE
8
Image
10
21.468857
20
84.036462
11
21.261837
21
83.454186
0
LINE
8
Image
10
21.261837
20
83.454186
11
21.033582
21
82.607058
0
LINE
8
Image
10
21.033582
20
82.607058
11
21.104180
21
81.662380
0
LINE
8
Image
10
21.104180
20
81.662380
11
21.430092
21
80.816742
0
LINE
8
Image
10
21.430092
20
80.816742
11
21.967777
21
80.266734
0
LINE
8
Image
10
21.967777
20
80.266734
11
23.161655
21
80.019658
0
LINE
8
Image
10
23.161655
20
80.019658
11
25.114099
21
79.916892
0
LINE
8
Image
10
25.114099
20
79.916892
11
26.686082
21
79.964932
0
LINE
8
Image
10
26.686082
20
79.964932
11
27.454956
21
80.210977
0
LINE
8
Image
10
27.454956
20
80.210977
11
27.589088
21
80.456028
0
LINE
8
Image
10
27.589088
20
80.456028
11
27.583474
21
80.807913
0
LINE
8
Image
10
27.583474
20
80.807913
11
27.234391
21
81.908625
0
LINE
8
Image
10
27.234391
20
81.908625
11
27.048467
21
82.777703
0
LINE
8
Image
10
27.048467
20
82.777703
11
27.068477
21
83.637799
0
LINE
8
Image
10
27.068477
20
83.637799
11
27.258835
21
84.241322
0
LINE
8
Image
10
27.258835
20
84.241322
11
27.406774
21
84.369498
0
LINE
8
Image
10
27.406774
20
84.369498
11
27.583955
21
84.340685
0
LINE
8
Image
10
27.583955
20
84.340685
11
27.749074
21
84.001712
0
LINE
8
Image
10
27.749074
20
84.001712
11
27.711701
21
83.455186
0
LINE
8
Image
10
27.711701
20
83.455186
11
27.696518
21
82.640513
0
LINE
8
Image
10
27.696518
20
82.640513
11
27.914991
21
81.656842
0
LINE
8
Image
10
27.914991
20
81.656842
11
28.170872
21
80.470237
0
LINE
8
Image
10
28.170872
20
80.470237
11
28.087173
21
80.057099
0
LINE
8
Image
10
28.087173
20
80.057099
11
27.841112
21
79.747293
0
LINE
8
Image
10
27.841112
20
79.747293
11
26.798103
21
79.387345
0
LINE
8
Image
10
26.798103
20
79.387345
11
24.914235
21
79.289732
0
LINE
8
Image
10
24.914235
20
79.289732
11
22.528051
21
79.431742
0
LINE
8
Image
10
22.528051
20
79.431742
11
21.902202
21
79.682006
0
LINE
8
Image
10
21.902202
20
79.682006
11
21.377896
21
80.116443
0
LINE
8
Image
10
21.377896
20
80.116443
11
21.377896
21
80.116443
0
LINE
8
Image
10
6.445671
20
82.751382
11
5.426369
21
83.179543
0
LINE
8
Image
10
5.426369
20
83.179543
11
4.518475
21
83.890755
0
LINE
8
Image
10
4.518475
20
83.890755
11
3.867230
21
84.739685
0
LINE
8
Image
10
3.867230
20
84.739685
11
3.617873
21
85.581000
0
LINE
8
Image
10
3.617873
20
85.581000
11
3.670449
21
86.117594
0
LINE
8
Image
10
3.670449
20
86.117594
11
3.828898
21
86.209158
0
LINE
8
Image
10
3.828898
20
86.209158
11
4.467741
21
85.054514
0
LINE
8
Image
10
4.467741
20
85.054514
11
5.003391
21
84.228766
0
LINE
8
Image
10
5.003391
20
84.228766
11
5.770023
21
83.642691
0
LINE
8
Image
10
5.770023
20
83.642691
11
6.692740
21
83.295557
0
LINE
8
Image
10
6.692740
20
83.295557
11
7.696646
21
83.186635
0
LINE
8
Image
10
7.696646
20
83.186635
11
8.706841
21
83.315195
0
LINE
8
Image
10
8.706841
20
83.315195
11
9.648430
21
83.680506
0
LINE
8
Image
10
9.648430
20
83.680506
11
10.446515
21
84.281838
0
LINE
8
Image
10
10.446515
20
84.281838
11
11.026197
21
85.118461
0
LINE
8
Image
10
11.026197
20
85.118461
11
11.425951
21
85.840961
0
LINE
8
Image
10
11.425951
20
85.840961
11
11.763709
21
86.206687
0
LINE
8
Image
10
11.763709
20
86.206687
11
11.997295
21
86.189880
0
LINE
8
Image
10
11.997295
20
86.189880
11
12.084529
21
85.764784
0
LINE
8
Image
10
12.084529
20
85.764784
11
11.808792
21
85.042125
0
LINE
8
Image
10
11.808792
20
85.042125
11
11.134804
21
84.154625
0
LINE
8
Image
10
11.134804
20
84.154625
11
10.292395
21
83.357599
0
LINE
8
Image
10
10.292395
20
83.357599
11
9.511399
21
82.906362
0
LINE
8
Image
10
9.511399
20
82.906362
11
7.888405
21
82.564279
0
LINE
8
Image
10
7.888405
20
82.564279
11
6.445671
21
82.751382
0
LINE
8
Image
10
6.445671
20
82.751382
11
6.445671
21
82.751382
0
LINE
8
Image
10
6.351890
20
87.000699
11
5.579497
21
87.755602
0
LINE
8
Image
10
5.579497
20
87.755602
11
4.985368
21
88.808044
0
LINE
8
Image
10
4.985368
20
88.808044
11
4.743773
21
89.743497
0
LINE
8
Image
10
4.743773
20
89.743497
11
4.809635
21
90.037813
0
LINE
8
Image
10
4.809635
20
90.037813
11
5.028982
21
90.147432
0
LINE
8
Image
10
5.028982
20
90.147432
11
5.278131
21
89.958240
0
LINE
8
Image
10
5.278131
20
89.958240
11
5.381760
21
89.503374
0
LINE
8
Image
10
5.381760
20
89.503374
11
5.627961
21
88.777210
0
LINE
8
Image
10
5.627961
20
88.777210
11
6.249363
21
88.071338
0
LINE
8
Image
10
6.249363
20
88.071338
11
7.070163
21
87.536944
0
LINE
8
Image
10
7.070163
20
87.536944
11
7.914557
21
87.325216
0
LINE
8
Image
10
7.914557
20
87.325216
11
8.828563
21
87.544286
0
LINE
8
Image
10
8.828563
20
87.544286
11
9.762480
21
88.070988
0
LINE
8
Image
10
9.762480
20
88.070988
11
10.438021
21
88.499210
0
LINE
8
Image
10
10.438021
20
88.499210
11
10.878735
21
88.605732
0
LINE
8
Image
10
10.878735
20
88.605732
11
10.975688
21
88.408859
0
LINE
8
Image
10
10.975688
20
88.408859
11
10.619943
21
87.926896
0
LINE
8
Image
10
10.619943
20
87.926896
11
9.597742
21
87.154318
0
LINE
8
Image
10
9.597742
20
87.154318
11
8.476261
21
86.727364
0
LINE
8
Image
10
8.476261
20
86.727364
11
7.359609
21
86.668627
0
LINE
8
Image
10
7.359609
20
86.668627
11
6.351890
21
87.000699
0
LINE
8
Image
10
6.351890
20
87.000699
11
6.351890
21
87.000699
0
LINE
8
Image
10
68.801489
20
87.652113
11
69.090258
21
88.238557
0
LINE
8
Image
10
69.090258
20
88.238557
11
69.211315
21
88.774137
0
LINE
8
Image
10
69.211315
20
88.774137
11
68.987768
21
90.206649
0
LINE
8
Image
10
68.987768
20
90.206649
11
68.748112
21
91.806419
0
LINE
8
Image
10
68.748112
20
91.806419
11
68.906621
21
91.941570
0
LINE
8
Image
10
68.906621
20
91.941570
11
69.236312
21
91.555543
0
LINE
8
Image
10
69.236312
20
91.555543
11
69.637258
21
90.580205
0
LINE
8
Image
10
69.637258
20
90.580205
11
69.810715
21
89.443304
0
LINE
8
Image
10
69.810715
20
89.443304
11
69.746814
21
88.346137
0
LINE
8
Image
10
69.746814
20
88.346137
11
69.435684
21
87.489998
0
LINE
8
Image
10
69.435684
20
87.489998
11
68.896441
21
86.821769
0
LINE
8
Image
10
68.896441
20
86.821769
11
68.548037
21
86.642139
0
LINE
8
Image
10
68.548037
20
86.642139
11
68.484908
21
86.926967
0
LINE
8
Image
10
68.484908
20
86.926967
11
68.801489
21
87.652113
0
LINE
8
Image
10
68.801489
20
87.652113
11
68.801489
21
87.652113
0
LINE
8
Image
10
59.356693
20
88.520652
11
54.217234
21
90.107383
0
LINE
8
Image
10
54.217234
20
90.107383
11
52.802198
21
90.644855
0
LINE
8
Image
10
52.802198
20
90.644855
11
52.304448
21
90.960700
0
LINE
8
Image
10
52.304448
20
90.960700
11
52.895653
21
91.469128
0
LINE
8
Image
10
52.895653
20
91.469128
11
54.351802
21
92.167770
0
LINE
8
Image
10
54.351802
20
92.167770
11
56.184668
21
92.851434
0
LINE
8
Image
10
56.184668
20
92.851434
11
57.906024
21
93.314928
0
LINE
8
Image
10
57.906024
20
93.314928
11
59.619051
21
93.487223
0
LINE
8
Image
10
59.619051
20
93.487223
11
60.954460
21
93.164486
0
LINE
8
Image
10
60.954460
20
93.164486
11
61.777061
21
92.675840
0
LINE
8
Image
10
61.777061
20
92.675840
11
62.276635
21
91.979917
0
LINE
8
Image
10
62.276635
20
91.979917
11
62.493518
21
90.981317
0
LINE
8
Image
10
62.493518
20
90.981317
11
62.468044
21
89.584641
0
LINE
8
Image
10
62.468044
20
89.584641
11
62.276056
21
88.639633
0
LINE
8
Image
10
62.276056
20
88.639633
11
61.795523
21
88.182187
0
LINE
8
Image
10
61.795523
20
88.182187
11
60.873413
21
88.159971
0
LINE
8
Image
10
60.873413
20
88.159971
11
59.356693
21
88.520652
0
LINE
8
Image
10
59.356693
20
88.520652
11
59.356693
21
88.520652
0
LINE
8
Image
10
61.826134
20
90.315689
11
61.733210
21
91.261831
0
LINE
8
Image
10
61.733210
20
91.261831
11
61.448187
21
91.987505
0
LINE
8
Image
10
61.448187
20
91.987505
11
60.961683
21
92.494851
0
LINE
8
Image
10
60.961683
20
92.494851
11
60.264317
21
92.786007
0
LINE
8
Image
10
60.264317
20
92.786007
11
59.346709
21
92.863112
0
LINE
8
Image
10
59.346709
20
92.863112
11
58.199477
21
92.728306
0
LINE
8
Image
10
58.199477
20
92.728306
11
55.178621
21
91.831516
0
LINE
8
Image
10
55.178621
20
91.831516
11
53.293599
21
91.130424
0
LINE
8
Image
10
53.293599
20
91.130424
11
55.884174
21
90.240235
0
LINE
8
Image
10
55.884174
20
90.240235
11
59.188036
21
89.153624
0
LINE
8
Image
10
59.188036
20
89.153624
11
60.966648
21
88.800021
0
LINE
8
Image
10
60.966648
20
88.800021
11
61.430705
21
88.899961
0
LINE
8
Image
10
61.430705
20
88.899961
11
61.689513
21
89.185389
0
LINE
8
Image
10
61.689513
20
89.185389
11
61.826134
21
90.315689
0
LINE
8
Image
10
61.826134
20
90.315689
11
61.826134
21
90.315689
0
LINE
8
Image
10
63.472427
20
88.971509
11
63.306328
21
89.676318
0
LINE
8
Image
10
63.306328
20
89.676318
11
63.237242
21
91.040599
0
LINE
8
Image
10
63.237242
20
91.040599
11
63.065582
21
92.680757
0
LINE
8
Image
10
63.065582
20
92.680757
11
62.473097
21
93.845956
0
LINE
8
Image
10
62.473097
20
93.845956
11
61.987729
21
94.390597
0
LINE
8
Image
10
61.987729
20
94.390597
11
61.446168
21
94.661303
0
LINE
8
Image
10
61.446168
20
94.661303
11
60.558178
21
94.726215
0
LINE
8
Image
10
60.558178
20
94.726215
11
59.033518
21
94.653471
0
LINE
8
Image
10
59.033518
20
94.653471
11
56.410083
21
94.282007
0
LINE
8
Image
10
56.410083
20
94.282007
11
53.921161
21
93.373697
0
LINE
8
Image
10
53.921161
20
93.373697
11
52.238120
21
92.661167
0
LINE
8
Image
10
52.238120
20
92.661167
11
51.424850
21
92.437009
0
LINE
8
Image
10
51.424850
20
92.437009
11
51.368347
21
92.506801
0
LINE
8
Image
10
51.368347
20
92.506801
11
51.558050
21
92.697162
0
LINE
8
Image
10
51.558050
20
92.697162
11
52.714422
21
93.437567
0
LINE
8
Image
10
52.714422
20
93.437567
11
55.259734
21
94.594983
0
LINE
8
Image
10
55.259734
20
94.594983
11
57.889328
21
95.259380
0
LINE
8
Image
10
57.889328
20
95.259380
11
60.294625
21
95.382495
0
LINE
8
Image
10
60.294625
20
95.382495
11
61.316731
21
95.225988
0
LINE
8
Image
10
61.316731
20
95.225988
11
62.167046
21
94.916062
0
LINE
8
Image
10
62.167046
20
94.916062
11
62.927761
21
94.303928
0
LINE
8
Image
10
62.927761
20
94.303928
11
63.462166
21
93.361466
0
LINE
8
Image
10
63.462166
20
93.361466
11
63.777253
21
92.070291
0
LINE
8
Image
10
63.777253
20
92.070291
11
63.880015
21
90.412015
0
LINE
8
Image
10
63.880015
20
90.412015
11
63.820107
21
88.891960
0
LINE
8
Image
10
63.820107
20
88.891960
11
63.698282
21
88.788454
0
LINE
8
Image
10
63.698282
20
88.788454
11
63.472427
21
88.971509
0
LINE
8
Image
10
63.472427
20
88.971509
11
63.472427
21
88.971509
0
LINE
8
Image
10
69.234458
20
96.099804
11
69.128209
21
96.408930
0
LINE
8
Image
10
69.128209
20
96.408930
11
68.819021
21
96.742367
0
LINE
8
Image
10
68.819021
20
96.742367
11
67.649163
21
97.454493
0
LINE
8
Image
10
67.649163
20
97.454493
11
65.839563
21
98.180814
0
LINE
8
Image
10
65.839563
20
98.180814
11
63.504902
21
98.865966
0
LINE
8
Image
10
63.504902
20
98.865966
11
60.063503
21
99.574361
0
LINE
8
Image
10
60.063503
20
99.574361
11
58.858653
21
99.566347
0
LINE
8
Image
10
58.858653
20
99.566347
11
57.416416
21
99.364451
0
LINE
8
Image
10
57.416416
20
99.364451
11
54.910312
21
98.711055
0
LINE
8
Image
10
54.910312
20
98.711055
11
52.352723
21
97.723293
0
LINE
8
Image
10
52.352723
20
97.723293
11
49.843563
21
96.592924
0
LINE
8
Image
10
49.843563
20
96.592924
11
49.525859
21
96.572273
0
LINE
8
Image
10
49.525859
20
96.572273
11
49.478926
21
96.801108
0
LINE
8
Image
10
49.478926
20
96.801108
11
49.715967
21
97.076191
0
LINE
8
Image
10
49.715967
20
97.076191
11
50.360228
21
97.471123
0
LINE
8
Image
10
50.360228
20
97.471123
11
52.469242
21
98.452913
0
LINE
8
Image
10
52.469242
20
98.452913
11
55.003630
21
99.411242
0
LINE
8
Image
10
55.003630
20
99.411242
11
57.161051
21
100.010875
0
LINE
8
Image
10
57.161051
20
100.010875
11
59.040505
21
100.198511
0
LINE
8
Image
10
59.040505
20
100.198511
11
61.061107
21
100.083879
0
LINE
8
Image
10
61.061107
20
100.083879
11
63.327507
21
99.653680
0
LINE
8
Image
10
63.327507
20
99.653680
11
65.944352
21
98.894613
0
LINE
8
Image
10
65.944352
20
98.894613
11
67.554462
21
98.196882
0
LINE
8
Image
10
67.554462
20
98.196882
11
68.883555
21
97.336645
0
LINE
8
Image
10
68.883555
20
97.336645
11
69.660999
21
96.528272
0
LINE
8
Image
10
69.660999
20
96.528272
11
69.758281
21
96.210525
0
LINE
8
Image
10
69.758281
20
96.210525
11
69.616164
21
95.986134
0
LINE
8
Image
10
69.616164
20
95.986134
11
69.346584
21
95.922213
0
LINE
8
Image
10
69.346584
20
95.922213
11
69.234458
21
96.099804
0
LINE
8
Image
10
69.234458
20
96.099804
11
69.234458
21
96.099804
0
LINE
8
Image
10
21.261816
20
96.502528
11
20.274936
21
96.954037
0
LINE
8
Image
10
20.274936
20
96.954037
11
19.236230
21
97.734521
0
LINE
8
Image
10
19.236230
20
97.734521
11
18.415299
21
98.604678
0
LINE
8
Image
10
18.415299
20
98.604678
11
18.081744
21
99.325208
0
LINE
8
Image
10
18.081744
20
99.325208
11
18.173823
21
99.641279
0
LINE
8
Image
10
18.173823
20
99.641279
11
18.419532
21
99.615922
0
LINE
8
Image
10
18.419532
20
99.615922
11
19.188658
21
98.652289
0
LINE
8
Image
10
19.188658
20
98.652289
11
19.923180
21
97.838266
0
LINE
8
Image
10
19.923180
20
97.838266
11
20.991947
21
97.253618
0
LINE
8
Image
10
20.991947
20
97.253618
11
22.245217
21
96.955285
0
LINE
8
Image
10
22.245217
20
96.955285
11
23.533249
21
97.000209
0
LINE
8
Image
10
23.533249
20
97.000209
11
24.659612
21
97.421667
0
LINE
8
Image
10
24.659612
20
97.421667
11
25.623266
21
98.161655
0
LINE
8
Image
10
25.623266
20
98.161655
11
26.295699
21
99.089193
0
LINE
8
Image
10
26.295699
20
99.089193
11
26.548401
21
100.073301
0
LINE
8
Image
10
26.548401
20
100.073301
11
26.663795
21
100.786774
0
LINE
8
Image
10
26.663795
20
100.786774
11
26.941233
21
101.083529
0
LINE
8
Image
10
26.941233
20
101.083529
11
27.099823
21
100.987737
0
LINE
8
Image
10
27.099823
20
100.987737
11
27.179081
21
100.698443
0
LINE
8
Image
10
27.179081
20
100.698443
11
27.100776
21
99.527834
0
LINE
8
Image
10
27.100776
20
99.527834
11
27.045308
21
98.143178
0
LINE
8
Image
10
27.045308
20
98.143178
11
27.255413
21
97.757549
0
LINE
8
Image
10
27.255413
20
97.757549
11
27.668381
21
97.411170
0
LINE
8
Image
10
27.668381
20
97.411170
11
28.661734
21
97.014986
0
LINE
8
Image
10
28.661734
20
97.014986
11
29.925348
21
96.850201
0
LINE
8
Image
10
29.925348
20
96.850201
11
30.729521
21
96.921911
0
LINE
8
Image
10
30.729521
20
96.921911
11
31.507158
21
97.140311
0
LINE
8
Image
10
31.507158
20
97.140311
11
33.006679
21
98.036809
0
LINE
8
Image
10
33.006679
20
98.036809
11
34.471629
21
99.578948
0
LINE
8
Image
10
34.471629
20
99.578948
11
35.949723
21
101.805981
0
LINE
8
Image
10
35.949723
20
101.805981
11
37.028660
21
103.516676
0
LINE
8
Image
10
37.028660
20
103.516676
11
37.943730
21
104.665718
0
LINE
8
Image
10
37.943730
20
104.665718
11
38.666645
21
105.223631
0
LINE
8
Image
10
38.666645
20
105.223631
11
38.947205
21
105.271702
0
LINE
8
Image
10
38.947205
20
105.271702
11
39.169119
21
105.160936
0
LINE
8
Image
10
39.169119
20
105.160936
11
39.106947
21
104.861489
0
LINE
8
Image
10
39.106947
20
104.861489
11
38.658243
21
104.440769
0
LINE
8
Image
10
38.658243
20
104.440769
11
37.718529
21
103.361510
0
LINE
8
Image
10
37.718529
20
103.361510
11
36.475844
21
101.478768
0
LINE
8
Image
10
36.475844
20
101.478768
11
35.129836
21
99.512439
0
LINE
8
Image
10
35.129836
20
99.512439
11
33.686173
21
97.934908
0
LINE
8
Image
10
33.686173
20
97.934908
11
32.235055
21
96.829766
0
LINE
8
Image
10
32.235055
20
96.829766
11
30.866681
21
96.280604
0
LINE
8
Image
10
30.866681
20
96.280604
11
29.646582
21
96.240296
0
LINE
8
Image
10
29.646582
20
96.240296
11
28.335695
21
96.467321
0
LINE
8
Image
10
28.335695
20
96.467321
11
27.240945
21
96.880055
0
LINE
8
Image
10
27.240945
20
96.880055
11
26.669255
21
97.396874
0
LINE
8
Image
10
26.669255
20
97.396874
11
26.533949
21
97.628544
0
LINE
8
Image
10
26.533949
20
97.628544
11
26.336030
21
97.685135
0
LINE
8
Image
10
26.336030
20
97.685135
11
25.541379
21
97.244599
0
LINE
8
Image
10
25.541379
20
97.244599
11
24.585821
21
96.719755
0
LINE
8
Image
10
24.585821
20
96.719755
11
23.534671
21
96.417770
0
LINE
8
Image
10
23.534671
20
96.417770
11
22.416985
21
96.343682
0
LINE
8
Image
10
22.416985
20
96.343682
11
21.261816
21
96.502528
0
LINE
8
Image
10
21.261816
20
96.502528
11
21.261816
21
96.502528
0
LINE
8
Image
10
30.175527
20
101.219419
11
31.138400
21
102.450865
0
LINE
8
Image
10
31.138400
20
102.450865
11
32.178420
21
104.229967
0
LINE
8
Image
10
32.178420
20
104.229967
11
33.120459
21
105.773688
0
LINE
8
Image
10
33.120459
20
105.773688
11
34.166624
21
106.885356
0
LINE
8
Image
10
34.166624
20
106.885356
11
35.308471
21
107.558083
0
LINE
8
Image
10
35.308471
20
107.558083
11
36.537552
21
107.784979
0
LINE
8
Image
10
36.537552
20
107.784979
11
37.384370
21
107.689947
0
LINE
8
Image
10
37.384370
20
107.689947
11
38.141798
21
107.440275
0
LINE
8
Image
10
38.141798
20
107.440275
11
38.686617
21
107.092496
0
LINE
8
Image
10
38.686617
20
107.092496
11
38.895606
21
106.703142
0
LINE
8
Image
10
38.895606
20
106.703142
11
38.721913
21
106.533121
0
LINE
8
Image
10
38.721913
20
106.533121
11
38.213244
21
106.715554
0
LINE
8
Image
10
38.213244
20
106.715554
11
37.444926
21
107.023692
0
LINE
8
Image
10
37.444926
20
107.023692
11
36.674809
21
107.134941
0
LINE
8
Image
10
36.674809
20
107.134941
11
35.914945
21
107.055231
0
LINE
8
Image
10
35.914945
20
107.055231
11
35.177389
21
106.790488
0
LINE
8
Image
10
35.177389
20
106.790488
11
34.474197
21
106.346643
0
LINE
8
Image
10
34.474197
20
106.346643
11
33.817422
21
105.729623
0
LINE
8
Image
10
33.817422
20
105.729623
11
32.691341
21
103.999776
0
LINE
8
Image
10
32.691341
20
103.999776
11
31.876653
21
102.454832
0
LINE
8
Image
10
31.876653
20
102.454832
11
31.106883
21
101.318619
0
LINE
8
Image
10
31.106883
20
101.318619
11
30.403201
21
100.617534
0
LINE
8
Image
10
30.403201
20
100.617534
11
29.786775
21
100.377973
0
LINE
8
Image
10
29.786775
20
100.377973
11
29.614854
21
100.430044
0
LINE
8
Image
10
29.614854
20
100.430044
11
29.622018
21
100.586948
0
LINE
8
Image
10
29.622018
20
100.586948
11
30.175527
21
101.219419
0
LINE
8
Image
10
30.175527
20
101.219419
11
30.175527
21
101.219419
0
LINE
8
Image
10
25.747152
20
104.178175
11
26.452464
21
105.109250
0
LINE
8
Image
10
26.452464
20
105.109250
11
27.044116
21
106.491875
0
LINE
8
Image
10
27.044116
20
106.491875
11
27.965312
21
108.714921
0
LINE
8
Image
10
27.965312
20
108.714921
11
28.561775
21
109.629438
0
LINE
8
Image
10
28.561775
20
109.629438
11
29.253426
21
110.417134
0
LINE
8
Image
10
29.253426
20
110.417134
11
30.043722
21
111.081398
0
LINE
8
Image
10
30.043722
20
111.081398
11
30.936121
21
111.625617
0
LINE
8
Image
10
30.936121
20
111.625617
11
33.041062
21
112.367473
0
LINE
8
Image
10
33.041062
20
112.367473
11
34.665188
21
112.536417
0
LINE
8
Image
10
34.665188
20
112.536417
11
36.399408
21
112.412299
0
LINE
8
Image
10
36.399408
20
112.412299
11
37.972638
21
112.036125
0
LINE
8
Image
10
37.972638
20
112.036125
11
39.113797
21
111.448897
0
LINE
8
Image
10
39.113797
20
111.448897
11
39.555490
21
111.017593
0
LINE
8
Image
10
39.555490
20
111.017593
11
38.895606
21
111.125352
0
LINE
8
Image
10
38.895606
20
111.125352
11
34.964413
21
111.933252
0
LINE
8
Image
10
34.964413
20
111.933252
11
33.834947
21
111.913854
0
LINE
8
Image
10
33.834947
20
111.913854
11
32.700522
21
111.660834
0
LINE
8
Image
10
32.700522
20
111.660834
11
31.014474
21
110.916898
0
LINE
8
Image
10
31.014474
20
110.916898
11
29.540751
21
109.743048
0
LINE
8
Image
10
29.540751
20
109.743048
11
28.390261
21
108.251916
0
LINE
8
Image
10
28.390261
20
108.251916
11
27.673911
21
106.556133
0
LINE
8
Image
10
27.673911
20
106.556133
11
27.246474
21
105.272294
0
LINE
8
Image
10
27.246474
20
105.272294
11
26.734939
21
104.330268
0
LINE
8
Image
10
26.734939
20
104.330268
11
26.155310
21
103.752345
0
LINE
8
Image
10
26.155310
20
103.752345
11
25.523586
21
103.560815
0
LINE
8
Image
10
25.523586
20
103.560815
11
25.291689
21
103.594085
0
LINE
8
Image
10
25.291689
20
103.594085
11
25.247451
21
103.696470
0
LINE
8
Image
10
25.247451
20
103.696470
11
25.747152
21
104.178175
0
LINE
8
Image
10
25.747152
20
104.178175
11
25.747152
21
104.178175
0
LINE
8
Image
10
63.898020
20
112.256125
11
63.031904
21
112.592938
0
LINE
8
Image
10
63.031904
20
112.592938
11
62.250895
21
113.185395
0
LINE
8
Image
10
62.250895
20
113.185395
11
61.703722
21
114.076599
0
LINE
8
Image
10
61.703722
20
114.076599
11
61.309904
21
115.212698
0
LINE
8
Image
10
61.309904
20
115.212698
11
61.171110
21
116.190229
0
LINE
8
Image
10
61.171110
20
116.190229
11
61.229119
21
116.493450
0
LINE
8
Image
10
61.229119
20
116.493450
11
61.389008
21
116.605731
0
LINE
8
Image
10
61.389008
20
116.605731
11
61.698172
21
116.204677
0
LINE
8
Image
10
61.698172
20
116.204677
11
61.954276
21
115.240438
0
LINE
8
Image
10
61.954276
20
115.240438
11
62.267187
21
114.118672
0
LINE
8
Image
10
62.267187
20
114.118672
11
62.834493
21
113.398721
0
LINE
8
Image
10
62.834493
20
113.398721
11
63.744069
21
113.014912
0
LINE
8
Image
10
63.744069
20
113.014912
11
65.083788
21
112.901569
0
LINE
8
Image
10
65.083788
20
112.901569
11
66.124118
21
112.938615
0
LINE
8
Image
10
66.124118
20
112.938615
11
66.800412
21
113.152152
0
LINE
8
Image
10
66.800412
20
113.152152
11
67.364243
21
113.695778
0
LINE
8
Image
10
67.364243
20
113.695778
11
68.067186
21
114.723092
0
LINE
8
Image
10
68.067186
20
114.723092
11
68.422008
21
115.167080
0
LINE
8
Image
10
68.422008
20
115.167080
11
68.508159
21
114.773323
0
LINE
8
Image
10
68.508159
20
114.773323
11
68.420800
21
114.185770
0
LINE
8
Image
10
68.420800
20
114.185770
11
68.135958
21
113.644632
0
LINE
8
Image
10
68.135958
20
113.644632
11
67.682528
21
113.165688
0
LINE
8
Image
10
67.682528
20
113.165688
11
67.089411
21
112.764716
0
LINE
8
Image
10
67.089411
20
112.764716
11
65.599704
21
112.259804
0
LINE
8
Image
10
65.599704
20
112.259804
11
63.898020
21
112.256125
0
LINE
8
Image
10
63.898020
20
112.256125
11
63.898020
21
112.256125
0
LINE
8
Image
10
73.291399
20
113.022106
11
74.239510
21
113.682051
0
LINE
8
Image
10
74.239510
20
113.682051
11
74.850420
21
114.352639
0
LINE
8
Image
10
74.850420
20
114.352639
11
75.216200
21
115.174570
0
LINE
8
Image
10
75.216200
20
115.174570
11
75.428925
21
116.288545
0
LINE
8
Image
10
75.428925
20
116.288545
11
75.406158
21
117.720337
0
LINE
8
Image
10
75.406158
20
117.720337
11
74.984592
21
119.020145
0
LINE
8
Image
10
74.984592
20
119.020145
11
74.199233
21
120.118412
0
LINE
8
Image
10
74.199233
20
120.118412
11
73.085090
21
120.945577
0
LINE
8
Image
10
73.085090
20
120.945577
11
71.590222
21
121.420652
0
LINE
8
Image
10
71.590222
20
121.420652
11
69.322654
21
121.467887
0
LINE
8
Image
10
69.322654
20
121.467887
11
66.955724
21
121.538391
0
LINE
8
Image
10
66.955724
20
121.538391
11
66.784783
21
121.737463
0
LINE
8
Image
10
66.784783
20
121.737463
11
67.323036
21
122.036037
0
LINE
8
Image
10
67.323036
20
122.036037
11
68.450396
21
122.226350
0
LINE
8
Image
10
68.450396
20
122.226350
11
70.037272
21
122.231564
0
LINE
8
Image
10
70.037272
20
122.231564
11
71.655828
21
122.072249
0
LINE
8
Image
10
71.655828
20
122.072249
11
72.878228
21
121.768972
0
LINE
8
Image
10
72.878228
20
121.768972
11
73.843886
21
121.247249
0
LINE
8
Image
10
73.843886
20
121.247249
11
74.653487
21
120.569188
0
LINE
8
Image
10
74.653487
20
120.569188
11
75.296509
21
119.761602
0
LINE
8
Image
10
75.296509
20
119.761602
11
75.762430
21
118.851307
0
LINE
8
Image
10
75.762430
20
118.851307
11
76.040725
21
117.865119
0
LINE
8
Image
10
76.040725
20
117.865119
11
76.120873
21
116.829853
0
LINE
8
Image
10
76.120873
20
116.829853
11
75.992350
21
115.772324
0
LINE
8
Image
10
75.992350
20
115.772324
11
75.644634
21
114.719348
0
LINE
8
Image
10
75.644634
20
114.719348
11
75.079337
21
113.679466
0
LINE
8
Image
10
75.079337
20
113.679466
11
74.435531
21
112.947372
0
LINE
8
Image
10
74.435531
20
112.947372
11
73.703522
21
112.514859
0
LINE
8
Image
10
73.703522
20
112.514859
11
72.873617
21
112.373722
0
LINE
8
Image
10
72.873617
20
112.373722
11
72.632814
21
112.408972
0
LINE
8
Image
10
72.632814
20
112.408972
11
72.617184
21
112.521041
0
LINE
8
Image
10
72.617184
20
112.521041
11
73.291399
21
113.022106
0
LINE
8
Image
10
73.291399
20
113.022106
11
73.291399
21
113.022106
0
LINE
8
Image
10
47.715041
20
1.249092
11
44.540045
21
2.741158
0
LINE
8
Image
10
44.540045
20
2.741158
11
41.894212
21
3.889707
0
LINE
8
Image
10
41.894212
20
3.889707
11
32.192838
21
3.922143
0
LINE
8
Image
10
32.192838
20
3.922143
11
25.840948
21
4.001284
0
LINE
8
Image
10
25.840948
20
4.001284
11
21.427312
21
4.281154
0
LINE
8
Image
10
21.427312
20
4.281154
11
17.671092
21
4.903140
0
LINE
8
Image
10
17.671092
20
4.903140
11
13.291454
21
6.008634
0
LINE
8
Image
10
13.291454
20
6.008634
11
9.943695
21
7.065922
0
LINE
8
Image
10
9.943695
20
7.065922
11
6.537137
21
8.343205
0
LINE
8
Image
10
6.537137
20
8.343205
11
2.581559
21
9.833874
0
LINE
8
Image
10
2.581559
20
9.833874
11
2.118105
21
9.538203
0
LINE
8
Image
10
2.118105
20
9.538203
11
1.722591
21
8.694598
0
LINE
8
Image
10
1.722591
20
8.694598
11
1.561035
21
8.018502
0
LINE
8
Image
10
1.561035
20
8.018502
11
1.594850
21
7.534047
0
LINE
8
Image
10
1.594850
20
7.534047
11
1.875660
21
7.088659
0
LINE
8
Image
10
1.875660
20
7.088659
11
2.455092
21
6.529764
0
LINE
8
Image
10
2.455092
20
6.529764
11
3.808836
21
5.625542
0
LINE
8
Image
10
3.808836
20
5.625542
11
5.540918
21
4.812062
0
LINE
8
Image
10
5.540918
20
4.812062
11
8.767641
21
3.751864
0
LINE
8
Image
10
8.767641
20
3.751864
11
12.265791
21
2.873723
0
LINE
8
Image
10
12.265791
20
2.873723
11
15.977471
21
2.183505
0
LINE
8
Image
10
15.977471
20
2.183505
11
19.844784
21
1.687072
0
LINE
8
Image
10
19.844784
20
1.687072
11
23.809833
21
1.390288
0
LINE
8
Image
10
23.809833
20
1.390288
11
27.814719
21
1.299016
0
LINE
8
Image
10
27.814719
20
1.299016
11
31.801546
21
1.419120
0
LINE
8
Image
10
31.801546
20
1.419120
11
35.712416
21
1.756465
0
LINE
8
Image
10
35.712416
20
1.756465
11
39.051406
21
2.078942
0
LINE
8
Image
10
39.051406
20
2.078942
11
41.575762
21
2.138418
0
LINE
8
Image
10
41.575762
20
2.138418
11
43.655462
21
1.922305
0
LINE
8
Image
10
43.655462
20
1.922305
11
45.660485
21
1.418018
0
LINE
8
Image
10
45.660485
20
1.418018
11
47.715041
21
0.923769
0
LINE
8
Image
10
47.715041
20
0.923769
11
48.067817
21
0.965863
0
LINE
8
Image
10
48.067817
20
0.965863
11
47.715041
21
1.249092
0
LINE
8
Image
10
47.715041
20
1.249092
11
47.715041
21
1.249092
0
LINE
8
Image
10
18.784232
20
38.377361
11
18.554740
21
43.526109
0
LINE
8
Image
10
18.554740
20
43.526109
11
18.407213
21
44.596562
0
LINE
8
Image
10
18.407213
20
44.596562
11
18.225117
21
45.135174
0
LINE
8
Image
10
18.225117
20
45.135174
11
17.899919
21
45.290380
0
LINE
8
Image
10
17.899919
20
45.290380
11
17.323086
21
45.210619
0
LINE
8
Image
10
17.323086
20
45.210619
11
16.612252
21
45.169185
0
LINE
8
Image
10
16.612252
20
45.169185
11
16.317857
21
45.353531
0
LINE
8
Image
10
16.317857
20
45.353531
11
16.431731
21
45.596451
0
LINE
8
Image
10
16.431731
20
45.596451
11
16.705514
21
45.697488
0
LINE
8
Image
10
16.705514
20
45.697488
11
18.235233
21
46.239434
0
LINE
8
Image
10
18.235233
20
46.239434
11
19.090562
21
46.813094
0
LINE
8
Image
10
19.090562
20
46.813094
11
19.800368
21
47.615635
0
LINE
8
Image
10
19.800368
20
47.615635
11
20.348521
21
48.582969
0
LINE
8
Image
10
20.348521
20
48.582969
11
20.718890
21
49.651007
0
LINE
8
Image
10
20.718890
20
49.651007
11
20.895346
21
50.755661
0
LINE
8
Image
10
20.895346
20
50.755661
11
20.861759
21
51.832841
0
LINE
8
Image
10
20.861759
20
51.832841
11
20.601999
21
52.818459
0
LINE
8
Image
10
20.601999
20
52.818459
11
20.099937
21
53.648427
0
LINE
8
Image
10
20.099937
20
53.648427
11
19.040046
21
54.466317
0
LINE
8
Image
10
19.040046
20
54.466317
11
17.686449
21
54.902359
0
LINE
8
Image
10
17.686449
20
54.902359
11
16.197249
21
54.930728
0
LINE
8
Image
10
16.197249
20
54.930728
11
14.730545
21
54.525594
0
LINE
8
Image
10
14.730545
20
54.525594
11
12.938007
21
53.846739
0
LINE
8
Image
10
12.938007
20
53.846739
11
11.387967
21
53.593731
0
LINE
8
Image
10
11.387967
20
53.593731
11
9.855525
21
53.760261
0
LINE
8
Image
10
9.855525
20
53.760261
11
8.115784
21
54.340018
0
LINE
8
Image
10
8.115784
20
54.340018
11
7.793875
21
54.416305
0
LINE
8
Image
10
7.793875
20
54.416305
11
7.606707
21
54.267106
0
LINE
8
Image
10
7.606707
20
54.267106
11
7.498424
21
52.990134
0
LINE
8
Image
10
7.498424
20
52.990134
11
7.591737
21
51.537127
0
LINE
8
Image
10
7.591737
20
51.537127
11
7.947186
21
50.371035
0
LINE
8
Image
10
7.947186
20
50.371035
11
8.678035
21
49.253783
0
LINE
8
Image
10
8.678035
20
49.253783
11
9.897545
21
47.947299
0
LINE
8
Image
10
9.897545
20
47.947299
11
11.342979
21
46.253575
0
LINE
8
Image
10
11.342979
20
46.253575
11
11.698516
21
45.495772
0
LINE
8
Image
10
11.698516
20
45.495772
11
11.905268
21
44.639156
0
LINE
8
Image
10
11.905268
20
44.639156
11
12.352432
21
42.828039
0
LINE
8
Image
10
12.352432
20
42.828039
11
13.063615
21
40.871037
0
LINE
8
Image
10
13.063615
20
40.871037
11
13.900612
21
39.100865
0
LINE
8
Image
10
13.900612
20
39.100865
11
14.725223
21
37.850240
0
LINE
8
Image
10
14.725223
20
37.850240
11
16.751477
21
36.097164
0
LINE
8
Image
10
16.751477
20
36.097164
11
17.808375
21
35.397290
0
LINE
8
Image
10
17.808375
20
35.397290
11
18.483750
21
35.114168
0
LINE
8
Image
10
18.483750
20
35.114168
11
18.697231
21
36.072731
0
LINE
8
Image
10
18.697231
20
36.072731
11
18.784232
21
38.377361
0
LINE
8
Image
10
18.784232
20
38.377361
11
18.784232
21
38.377361
0
LINE
8
Image
10
71.362004
20
65.079910
11
70.977182
21
65.542875
0
LINE
8
Image
10
70.977182
20
65.542875
11
70.612353
21
65.608881
0
LINE
8
Image
10
70.612353
20
65.608881
11
70.136142
21
65.603839
0
LINE
8
Image
10
70.136142
20
65.603839
11
69.483528
21
65.895974
0
LINE
8
Image
10
69.483528
20
65.895974
11
68.565006
21
66.371004
0
LINE
8
Image
10
68.565006
20
66.371004
11
67.563860
21
66.646305
0
LINE
8
Image
10
67.563860
20
66.646305
11
66.435887
21
66.729314
0
LINE
8
Image
10
66.435887
20
66.729314
11
65.136882
21
66.627472
0
LINE
8
Image
10
65.136882
20
66.627472
11
63.439325
21
66.394795
0
LINE
8
Image
10
63.439325
20
66.394795
11
67.278911
21
65.393462
0
LINE
8
Image
10
67.278911
20
65.393462
11
71.293604
21
64.217021
0
LINE
8
Image
10
71.293604
20
64.217021
11
71.523382
21
64.087358
0
LINE
8
Image
10
71.523382
20
64.087358
11
71.615478
21
64.239726
0
LINE
8
Image
10
71.615478
20
64.239726
11
71.362004
21
65.079910
0
LINE
8
Image
10
71.362004
20
65.079910
11
71.362004
21
65.079910
0
LINE
8
Image
10
71.917985
20
67.721475
11
71.600409
21
68.342860
0
LINE
8
Image
10
71.600409
20
68.342860
11
71.024757
21
68.812647
0
LINE
8
Image
10
71.024757
20
68.812647
11
70.232470
21
69.127755
0
LINE
8
Image
10
70.232470
20
69.127755
11
69.264990
21
69.285102
0
LINE
8
Image
10
69.264990
20
69.285102
11
68.163757
21
69.281606
0
LINE
8
Image
10
68.163757
20
69.281606
11
66.970215
21
69.114185
0
LINE
8
Image
10
66.970215
20
69.114185
11
65.725803
21
68.779757
0
LINE
8
Image
10
65.725803
20
68.779757
11
64.471964
21
68.275240
0
LINE
8
Image
10
64.471964
20
68.275240
11
62.355300
21
67.270949
0
LINE
8
Image
10
62.355300
20
67.270949
11
65.413514
21
67.243927
0
LINE
8
Image
10
65.413514
20
67.243927
11
68.016334
21
67.081093
0
LINE
8
Image
10
68.016334
20
67.081093
11
69.646842
21
66.628282
0
LINE
8
Image
10
69.646842
20
66.628282
11
71.615961
21
65.738998
0
LINE
8
Image
10
71.615961
20
65.738998
11
71.893351
21
65.834029
0
LINE
8
Image
10
71.893351
20
65.834029
11
71.997720
21
66.239490
0
LINE
8
Image
10
71.997720
20
66.239490
11
71.917985
21
67.721475
0
LINE
8
Image
10
71.917985
20
67.721475
11
71.917985
21
67.721475
0
LINE
8
Image
10
76.123810
20
85.473135
11
77.123171
21
86.767510
0
LINE
8
Image
10
77.123171
20
86.767510
11
78.010732
21
88.377896
0
LINE
8
Image
10
78.010732
20
88.377896
11
78.718148
21
90.158966
0
LINE
8
Image
10
78.718148
20
90.158966
11
79.177071
21
91.965393
0
LINE
8
Image
10
79.177071
20
91.965393
11
79.659757
21
93.758019
0
LINE
8
Image
10
79.659757
20
93.758019
11
80.002682
21
94.264710
0
LINE
8
Image
10
80.002682
20
94.264710
11
80.476131
21
94.641007
0
LINE
8
Image
10
80.476131
20
94.641007
11
82.223334
21
95.957594
0
LINE
8
Image
10
82.223334
20
95.957594
11
82.762985
21
96.618650
0
LINE
8
Image
10
82.762985
20
96.618650
11
83.091569
21
97.318874
0
LINE
8
Image
10
83.091569
20
97.318874
11
83.217761
21
98.086261
0
LINE
8
Image
10
83.217761
20
98.086261
11
83.150237
21
98.948806
0
LINE
8
Image
10
83.150237
20
98.948806
11
82.468735
21
101.071345
0
LINE
8
Image
10
82.468735
20
101.071345
11
81.780090
21
103.113359
0
LINE
8
Image
10
81.780090
20
103.113359
11
81.699793
21
103.897895
0
LINE
8
Image
10
81.699793
20
103.897895
11
81.767614
21
104.667893
0
LINE
8
Image
10
81.767614
20
104.667893
11
81.814014
21
105.933901
0
LINE
8
Image
10
81.814014
20
105.933901
11
81.417883
21
106.934626
0
LINE
8
Image
10
81.417883
20
106.934626
11
80.835385
21
107.823630
0
LINE
8
Image
10
80.835385
20
107.823630
11
79.619454
21
106.756030
0
LINE
8
Image
10
79.619454
20
106.756030
11
78.198665
21
105.838648
0
LINE
8
Image
10
78.198665
20
105.838648
11
76.490199
21
105.132211
0
LINE
8
Image
10
76.490199
20
105.132211
11
74.576873
21
104.575992
0
LINE
8
Image
10
74.576873
20
104.575992
11
75.112018
21
103.295215
0
LINE
8
Image
10
75.112018
20
103.295215
11
75.434373
21
102.112724
0
LINE
8
Image
10
75.434373
20
102.112724
11
75.457923
21
101.068255
0
LINE
8
Image
10
75.457923
20
101.068255
11
75.494037
21
100.052386
0
LINE
8
Image
10
75.494037
20
100.052386
11
75.883934
21
98.927109
0
LINE
8
Image
10
75.883934
20
98.927109
11
76.512459
21
97.279532
0
LINE
8
Image
10
76.512459
20
97.279532
11
77.159631
21
94.996374
0
LINE
8
Image
10
77.159631
20
94.996374
11
77.526529
21
93.397762
0
LINE
8
Image
10
77.526529
20
93.397762
11
77.643217
21
92.397299
0
LINE
8
Image
10
77.643217
20
92.397299
11
77.504884
21
91.593945
0
LINE
8
Image
10
77.504884
20
91.593945
11
77.106720
21
90.586656
0
LINE
8
Image
10
77.106720
20
90.586656
11
75.861825
21
87.325216
0
LINE
8
Image
10
75.861825
20
87.325216
11
75.066851
21
85.120355
0
LINE
8
Image
10
75.066851
20
85.120355
11
74.923455
21
84.644196
0
LINE
8
Image
10
74.923455
20
84.644196
11
75.056695
21
84.545894
0
LINE
8
Image
10
75.056695
20
84.545894
11
76.123810
21
85.473135
0
LINE
8
Image
10
76.123810
20
85.473135
11
76.123810
21
85.473135
0
LINE
8
Image
10
75.555954
20
88.051573
11
75.980735
21
89.608086
0
LINE
8
Image
10
75.980735
20
89.608086
11
76.466450
21
90.853096
0
LINE
8
Image
10
76.466450
20
90.853096
11
76.968893
21
92.290127
0
LINE
8
Image
10
76.968893
20
92.290127
11
76.989421
21
92.865889
0
LINE
8
Image
10
76.989421
20
92.865889
11
76.866324
21
93.325526
0
LINE
8
Image
10
76.866324
20
93.325526
11
76.607231
21
93.653323
0
LINE
8
Image
10
76.607231
20
93.653323
11
76.219770
21
93.833562
0
LINE
8
Image
10
76.219770
20
93.833562
11
75.711569
21
93.850528
0
LINE
8
Image
10
75.711569
20
93.850528
11
75.090256
21
93.688503
0
LINE
8
Image
10
75.090256
20
93.688503
11
74.334053
21
93.023907
0
LINE
8
Image
10
74.334053
20
93.023907
11
73.671758
21
91.840600
0
LINE
8
Image
10
73.671758
20
91.840600
11
73.255915
21
90.496219
0
LINE
8
Image
10
73.255915
20
90.496219
11
73.239067
21
89.348400
0
LINE
8
Image
10
73.239067
20
89.348400
11
74.088967
21
87.028122
0
LINE
8
Image
10
74.088967
20
87.028122
11
74.535701
21
86.279594
0
LINE
8
Image
10
74.535701
20
86.279594
11
74.861019
21
86.079445
0
LINE
8
Image
10
74.861019
20
86.079445
11
75.194496
21
86.738694
0
LINE
8
Image
10
75.194496
20
86.738694
11
75.555954
21
88.051573
0
LINE
8
Image
10
75.555954
20
88.051573
11
75.555954
21
88.051573
0
LINE
8
Image
10
78.259934
20
106.550306
11
79.241008
21
107.210723
0
LINE
8
Image
10
79.241008
20
107.210723
11
79.949338
21
107.879833
0
LINE
8
Image
10
79.949338
20
107.879833
11
80.378816
21
108.550443
0
LINE
8
Image
10
80.378816
20
108.550443
11
80.523333
21
109.215360
0
LINE
8
Image
10
80.523333
20
109.215360
11
80.317848
21
109.464634
0
LINE
8
Image
10
80.317848
20
109.464634
11
79.772177
21
109.436043
0
LINE
8
Image
10
79.772177
20
109.436043
11
78.832896
21
109.460874
0
LINE
8
Image
10
78.832896
20
109.460874
11
77.629435
21
109.796415
0
LINE
8
Image
10
77.629435
20
109.796415
11
76.237845
21
110.353218
0
LINE
8
Image
10
76.237845
20
110.353218
11
75.195819
21
109.089058
0
LINE
8
Image
10
75.195819
20
109.089058
11
74.101174
21
108.066533
0
LINE
8
Image
10
74.101174
20
108.066533
11
72.932640
21
107.383324
0
LINE
8
Image
10
72.932640
20
107.383324
11
71.711489
21
106.941750
0
LINE
8
Image
10
71.711489
20
106.941750
11
72.501444
21
106.093920
0
LINE
8
Image
10
72.501444
20
106.093920
11
72.973117
21
105.655932
0
LINE
8
Image
10
72.973117
20
105.655932
11
73.450591
21
105.426935
0
LINE
8
Image
10
73.450591
20
105.426935
11
75.003232
21
105.445522
0
LINE
8
Image
10
75.003232
20
105.445522
11
76.666021
21
105.852317
0
LINE
8
Image
10
76.666021
20
105.852317
11
78.259934
21
106.550306
0
LINE
8
Image
10
78.259934
20
106.550306
11
78.259934
21
106.550306
 0 
ENDSEC
 0 
EOF