999
"DXF R12 Output" (www.mydxf.blogspot.com)
 0 
SECTION
 2 
HEADER
 9 
$ACADVER
 1 
AC1009
 9 
$EXTMIN
 10 
 0 
 20 
 0 
 9 
$EXTMAX
 10 
 8.5 
 20 
 11 
 0 
ENDSEC
 0 
SECTION
 2 
ENTITIES
0
LINE
8
Image
10
19.595990
20
5.434970
11
18.997045
21
6.521464
0
LINE
8
Image
10
18.997045
20
6.521464
11
18.818516
21
7.628384
0
LINE
8
Image
10
18.818516
20
7.628384
11
19.056494
21
8.617870
0
LINE
8
Image
10
19.056494
20
8.617870
11
19.707070
21
9.352063
0
LINE
8
Image
10
19.707070
20
9.352063
11
20.545643
21
9.704181
0
LINE
8
Image
10
20.545643
20
9.704181
11
21.322434
21
9.738712
0
LINE
8
Image
10
21.322434
20
9.738712
11
21.857088
21
9.705581
0
LINE
8
Image
10
21.857088
20
9.705581
11
21.808875
21
10.138703
0
LINE
8
Image
10
21.808875
20
10.138703
11
17.420203
21
21.943124
0
LINE
8
Image
10
17.420203
20
21.943124
11
16.782660
21
23.364745
0
LINE
8
Image
10
16.782660
20
23.364745
11
16.109458
21
24.412564
0
LINE
8
Image
10
16.109458
20
24.412564
11
15.382719
21
25.350934
0
LINE
8
Image
10
15.382719
20
25.350934
11
14.735987
21
26.442711
0
LINE
8
Image
10
14.735987
20
26.442711
11
13.703367
21
29.017706
0
LINE
8
Image
10
13.703367
20
29.017706
11
13.053250
21
31.999995
0
LINE
8
Image
10
13.053250
20
31.999995
11
12.827289
21
35.252022
0
LINE
8
Image
10
12.827289
20
35.252022
11
12.827289
21
37.310292
0
LINE
8
Image
10
12.827289
20
37.310292
11
11.504374
21
37.732376
0
LINE
8
Image
10
11.504374
20
37.732376
11
9.830695
21
38.410228
0
LINE
8
Image
10
9.830695
20
38.410228
11
8.069512
21
39.372219
0
LINE
8
Image
10
8.069512
20
39.372219
11
6.382239
21
40.519616
0
LINE
8
Image
10
6.382239
20
40.519616
11
4.930286
21
41.753683
0
LINE
8
Image
10
4.930286
20
41.753683
11
4.113737
21
42.625611
0
LINE
8
Image
10
4.113737
20
42.625611
11
3.512916
21
43.493839
0
LINE
8
Image
10
3.512916
20
43.493839
11
3.033697
21
44.523795
0
LINE
8
Image
10
3.033697
20
44.523795
11
2.581953
21
45.880908
0
LINE
8
Image
10
2.581953
20
45.880908
11
1.940922
21
48.410219
0
LINE
8
Image
10
1.940922
20
48.410219
11
1.646204
21
50.611897
0
LINE
8
Image
10
1.646204
20
50.611897
11
1.688781
21
52.637169
0
LINE
8
Image
10
1.688781
20
52.637169
11
2.059631
21
54.637264
0
LINE
8
Image
10
2.059631
20
54.637264
11
2.675916
21
56.541974
0
LINE
8
Image
10
2.675916
20
56.541974
11
3.439124
21
57.935430
0
LINE
8
Image
10
3.439124
20
57.935430
11
4.447454
21
58.951174
0
LINE
8
Image
10
4.447454
20
58.951174
11
5.799103
21
59.722753
0
LINE
8
Image
10
5.799103
20
59.722753
11
6.749652
21
60.229462
0
LINE
8
Image
10
6.749652
20
60.229462
11
7.568938
21
60.930647
0
LINE
8
Image
10
7.568938
20
60.930647
11
8.470965
21
62.053025
0
LINE
8
Image
10
8.470965
20
62.053025
11
9.669737
21
63.823311
0
LINE
8
Image
10
9.669737
20
63.823311
11
13.512771
21
69.209880
0
LINE
8
Image
10
13.512771
20
69.209880
11
17.420211
21
73.840070
0
LINE
8
Image
10
17.420211
20
73.840070
11
19.263668
21
75.726451
0
LINE
8
Image
10
19.263668
20
75.726451
11
20.961928
21
77.249650
0
LINE
8
Image
10
20.961928
20
77.249650
11
22.461225
21
78.351638
0
LINE
8
Image
10
22.461225
20
78.351638
11
23.707793
21
78.974386
0
LINE
8
Image
10
23.707793
20
78.974386
11
24.642507
21
79.347610
0
LINE
8
Image
10
24.642507
20
79.347610
11
25.071803
21
79.782816
0
LINE
8
Image
10
25.071803
20
79.782816
11
25.060165
21
80.450243
0
LINE
8
Image
10
25.060165
20
80.450243
11
24.672079
21
81.520130
0
LINE
8
Image
10
24.672079
20
81.520130
11
23.977926
21
83.563400
0
LINE
8
Image
10
23.977926
20
83.563400
11
23.307315
21
86.205882
0
LINE
8
Image
10
23.307315
20
86.205882
11
22.738641
21
89.097500
0
LINE
8
Image
10
22.738641
20
89.097500
11
22.350299
21
91.888175
0
LINE
8
Image
10
22.350299
20
91.888175
11
21.942946
21
94.629851
0
LINE
8
Image
10
21.942946
20
94.629851
11
21.701222
21
95.362429
0
LINE
8
Image
10
21.701222
20
95.362429
11
21.415583
21
95.746067
0
LINE
8
Image
10
21.415583
20
95.746067
11
21.165022
21
96.067386
0
LINE
8
Image
10
21.165022
20
96.067386
11
21.016906
21
96.555221
0
LINE
8
Image
10
21.016906
20
96.555221
11
21.005090
21
97.838526
0
LINE
8
Image
10
21.005090
20
97.838526
11
21.334284
21
99.212153
0
LINE
8
Image
10
21.334284
20
99.212153
11
21.958640
21
100.292270
0
LINE
8
Image
10
21.958640
20
100.292270
11
22.486057
21
101.053979
0
LINE
8
Image
10
22.486057
20
101.053979
11
22.705944
21
101.769609
0
LINE
8
Image
10
22.705944
20
101.769609
11
23.026629
21
103.665403
0
LINE
8
Image
10
23.026629
20
103.665403
11
23.840039
21
106.540688
0
LINE
8
Image
10
23.840039
20
106.540688
11
24.927971
21
109.702559
0
LINE
8
Image
10
24.927971
20
109.702559
11
26.072220
21
112.458116
0
LINE
8
Image
10
26.072220
20
112.458116
11
27.779559
21
115.699701
0
LINE
8
Image
10
27.779559
20
115.699701
11
29.670891
21
118.820462
0
LINE
8
Image
10
29.670891
20
118.820462
11
32.059424
21
121.904071
0
LINE
8
Image
10
32.059424
20
121.904071
11
35.248749
21
125.357210
0
LINE
8
Image
10
35.248749
20
125.357210
11
38.718366
21
128.652394
0
LINE
8
Image
10
38.718366
20
128.652394
11
41.947777
21
131.262135
0
LINE
8
Image
10
41.947777
20
131.262135
11
45.076792
21
133.281301
0
LINE
8
Image
10
45.076792
20
133.281301
11
48.810039
21
135.369324
0
LINE
8
Image
10
48.810039
20
135.369324
11
52.682638
21
137.281692
0
LINE
8
Image
10
52.682638
20
137.281692
11
56.229708
21
138.773896
0
LINE
8
Image
10
56.229708
20
138.773896
11
58.613506
21
139.729258
0
LINE
8
Image
10
58.613506
20
139.729258
11
59.657664
21
140.283604
0
LINE
8
Image
10
59.657664
20
140.283604
11
60.592200
21
142.196506
0
LINE
8
Image
10
60.592200
20
142.196506
11
61.934225
21
143.711865
0
LINE
8
Image
10
61.934225
20
143.711865
11
63.589908
21
144.749759
0
LINE
8
Image
10
63.589908
20
144.749759
11
64.506049
21
145.064683
0
LINE
8
Image
10
64.506049
20
145.064683
11
65.465417
21
145.230271
0
LINE
8
Image
10
65.465417
20
145.230271
11
67.097403
21
145.553202
0
LINE
8
Image
10
67.097403
20
145.553202
11
68.213331
21
146.219438
0
LINE
8
Image
10
68.213331
20
146.219438
11
69.378323
21
147.078908
0
LINE
8
Image
10
69.378323
20
147.078908
11
70.761148
21
147.696225
0
LINE
8
Image
10
70.761148
20
147.696225
11
72.343685
21
148.065359
0
LINE
8
Image
10
72.343685
20
148.065359
11
74.107812
21
148.180284
0
LINE
8
Image
10
74.107812
20
148.180284
11
75.795916
21
148.104619
0
LINE
8
Image
10
75.795916
20
148.104619
11
76.702331
21
147.946892
0
LINE
8
Image
10
76.702331
20
147.946892
11
77.421188
21
148.022640
0
LINE
8
Image
10
77.421188
20
148.022640
11
78.658351
21
148.508306
0
LINE
8
Image
10
78.658351
20
148.508306
11
80.334443
21
149.093242
0
LINE
8
Image
10
80.334443
20
149.093242
11
82.236770
21
149.054094
0
LINE
8
Image
10
82.236770
20
149.054094
11
83.940623
21
148.724961
0
LINE
8
Image
10
83.940623
20
148.724961
11
85.616040
21
148.173428
0
LINE
8
Image
10
85.616040
20
148.173428
11
87.092389
21
147.467566
0
LINE
8
Image
10
87.092389
20
147.467566
11
88.199037
21
146.675451
0
LINE
8
Image
10
88.199037
20
146.675451
11
88.952312
21
146.194455
0
LINE
8
Image
10
88.952312
20
146.194455
11
89.676841
21
146.179071
0
LINE
8
Image
10
89.676841
20
146.179071
11
90.524064
21
146.193571
0
LINE
8
Image
10
90.524064
20
146.193571
11
91.564445
21
145.912140
0
LINE
8
Image
10
91.564445
20
145.912140
11
92.689146
21
145.213924
0
LINE
8
Image
10
92.689146
20
145.213924
11
93.813610
21
144.173340
0
LINE
8
Image
10
93.813610
20
144.173340
11
94.678482
21
143.069908
0
LINE
8
Image
10
94.678482
20
143.069908
11
95.024408
21
142.183150
0
LINE
8
Image
10
95.024408
20
142.183150
11
95.176622
21
141.828275
0
LINE
8
Image
10
95.176622
20
141.828275
11
95.720602
21
141.490418
0
LINE
8
Image
10
95.720602
20
141.490418
11
98.507894
21
140.632482
0
LINE
8
Image
10
98.507894
20
140.632482
11
103.944332
21
138.925274
0
LINE
8
Image
10
103.944332
20
138.925274
11
109.164754
21
136.726123
0
LINE
8
Image
10
109.164754
20
136.726123
11
114.117071
21
134.073192
0
LINE
8
Image
10
114.117071
20
134.073192
11
118.749193
21
131.004643
0
LINE
8
Image
10
118.749193
20
131.004643
11
123.009030
21
127.558639
0
LINE
8
Image
10
123.009030
20
127.558639
11
126.844493
21
123.773343
0
LINE
8
Image
10
126.844493
20
123.773343
11
130.203492
21
119.686917
0
LINE
8
Image
10
130.203492
20
119.686917
11
131.688040
21
117.542706
0
LINE
8
Image
10
131.688040
20
117.542706
11
133.033938
21
115.337523
0
LINE
8
Image
10
133.033938
20
115.337523
11
134.316270
21
112.892788
0
LINE
8
Image
10
134.316270
20
112.892788
11
135.272914
21
110.742693
0
LINE
8
Image
10
135.272914
20
110.742693
11
135.965484
21
109.165117
0
LINE
8
Image
10
135.965484
20
109.165117
11
136.612918
21
108.096863
0
LINE
8
Image
10
136.612918
20
108.096863
11
137.030226
21
107.450497
0
LINE
8
Image
10
137.030226
20
107.450497
11
137.380512
21
106.534563
0
LINE
8
Image
10
137.380512
20
106.534563
11
137.888555
21
103.819741
0
LINE
8
Image
10
137.888555
20
103.819741
11
138.154116
21
99.803901
0
LINE
8
Image
10
138.154116
20
99.803901
11
138.194262
21
94.338547
0
LINE
8
Image
10
138.194262
20
94.338547
11
137.972117
21
90.724902
0
LINE
8
Image
10
137.972117
20
90.724902
11
137.409992
21
87.086438
0
LINE
8
Image
10
137.409992
20
87.086438
11
136.550859
21
83.637455
0
LINE
8
Image
10
136.550859
20
83.637455
11
135.437693
21
80.592253
0
LINE
8
Image
10
135.437693
20
80.592253
11
134.535471
21
78.441125
0
LINE
8
Image
10
134.535471
20
78.441125
11
137.567208
21
77.364346
0
LINE
8
Image
10
137.567208
20
77.364346
11
140.549293
21
76.177852
0
LINE
8
Image
10
140.549293
20
76.177852
11
141.744939
21
75.487536
0
LINE
8
Image
10
141.744939
20
75.487536
11
142.765607
21
74.713306
0
LINE
8
Image
10
142.765607
20
74.713306
11
143.627764
21
73.840760
0
LINE
8
Image
10
143.627764
20
73.840760
11
144.347876
21
72.855497
0
LINE
8
Image
10
144.347876
20
72.855497
11
144.942409
21
71.743115
0
LINE
8
Image
10
144.942409
20
71.743115
11
145.427829
21
70.489212
0
LINE
8
Image
10
145.427829
20
70.489212
11
146.060017
21
69.187468
0
LINE
8
Image
10
146.060017
20
69.187468
11
146.993888
21
67.843382
0
LINE
8
Image
10
146.993888
20
67.843382
11
148.755487
21
65.499002
0
LINE
8
Image
10
148.755487
20
65.499002
11
149.404219
21
64.806169
0
LINE
8
Image
10
149.404219
20
64.806169
11
150.106651
21
64.528864
0
LINE
8
Image
10
150.106651
20
64.528864
11
152.542217
21
63.926038
0
LINE
8
Image
10
152.542217
20
63.926038
11
153.314506
21
63.595573
0
LINE
8
Image
10
153.314506
20
63.595573
11
153.957945
21
63.167521
0
LINE
8
Image
10
153.957945
20
63.167521
11
154.499319
21
62.585859
0
LINE
8
Image
10
154.499319
20
62.585859
11
154.965416
21
61.794563
0
LINE
8
Image
10
154.965416
20
61.794563
11
155.778922
21
59.358976
0
LINE
8
Image
10
155.778922
20
59.358976
11
156.612755
21
55.412574
0
LINE
8
Image
10
156.612755
20
55.412574
11
157.347327
21
50.785297
0
LINE
8
Image
10
157.347327
20
50.785297
11
157.345651
21
49.410962
0
LINE
8
Image
10
157.345651
20
49.410962
11
157.146014
21
47.994964
0
LINE
8
Image
10
157.146014
20
47.994964
11
156.548029
21
45.607160
0
LINE
8
Image
10
156.548029
20
45.607160
11
155.676728
21
43.582541
0
LINE
8
Image
10
155.676728
20
43.582541
11
154.541689
21
41.938620
0
LINE
8
Image
10
154.541689
20
41.938620
11
153.152491
21
40.692912
0
LINE
8
Image
10
153.152491
20
40.692912
11
151.127431
21
39.425551
0
LINE
8
Image
10
151.127431
20
39.425551
11
150.772102
21
38.079608
0
LINE
8
Image
10
150.772102
20
38.079608
11
150.419661
21
35.012500
0
LINE
8
Image
10
150.419661
20
35.012500
11
150.015702
21
31.604616
0
LINE
8
Image
10
150.015702
20
31.604616
11
149.378001
21
28.991541
0
LINE
8
Image
10
149.378001
20
28.991541
11
148.413803
21
26.900917
0
LINE
8
Image
10
148.413803
20
26.900917
11
147.030353
21
25.060385
0
LINE
8
Image
10
147.030353
20
25.060385
11
146.155888
21
24.165595
0
LINE
8
Image
10
146.155888
20
24.165595
11
145.319611
21
23.510144
0
LINE
8
Image
10
145.319611
20
23.510144
11
144.386133
21
23.005264
0
LINE
8
Image
10
144.386133
20
23.005264
11
143.220066
21
22.562190
0
LINE
8
Image
10
143.220066
20
22.562190
11
141.754632
21
22.018137
0
LINE
8
Image
10
141.754632
20
22.018137
11
141.252679
21
21.694812
0
LINE
8
Image
10
141.252679
20
21.694812
11
140.831839
21
21.236820
0
LINE
8
Image
10
140.831839
20
21.236820
11
140.015310
21
19.615429
0
LINE
8
Image
10
140.015310
20
19.615429
11
138.868668
21
16.551150
0
LINE
8
Image
10
138.868668
20
16.551150
11
136.962732
21
11.086797
0
LINE
8
Image
10
136.962732
20
11.086797
11
136.564867
21
9.675934
0
LINE
8
Image
10
136.564867
20
9.675934
11
136.516864
21
9.081771
0
LINE
8
Image
10
136.516864
20
9.081771
11
137.688573
21
8.618467
0
LINE
8
Image
10
137.688573
20
8.618467
11
138.552992
21
8.225733
0
LINE
8
Image
10
138.552992
20
8.225733
11
139.241031
21
7.550154
0
LINE
8
Image
10
139.241031
20
7.550154
11
139.642172
21
6.742257
0
LINE
8
Image
10
139.642172
20
6.742257
11
139.645897
21
5.952569
0
LINE
8
Image
10
139.645897
20
5.952569
11
139.188758
21
5.338655
0
LINE
8
Image
10
139.188758
20
5.338655
11
138.192833
21
5.035776
0
LINE
8
Image
10
138.192833
20
5.035776
11
136.482234
21
5.023447
0
LINE
8
Image
10
136.482234
20
5.023447
11
133.881075
21
5.281184
0
LINE
8
Image
10
133.881075
20
5.281184
11
128.849967
21
5.584006
0
LINE
8
Image
10
128.849967
20
5.584006
11
120.031127
21
5.748689
0
LINE
8
Image
10
120.031127
20
5.748689
11
92.907744
21
5.646888
0
LINE
8
Image
10
92.907744
20
5.646888
11
59.393899
21
5.574670
0
LINE
8
Image
10
59.393899
20
5.574670
11
42.831649
21
5.526914
0
LINE
8
Image
10
42.831649
20
5.526914
11
34.346707
21
5.290204
0
LINE
8
Image
10
34.346707
20
5.290204
11
25.681399
21
4.693797
0
LINE
8
Image
10
25.681399
20
4.693797
11
20.367475
21
4.454185
0
LINE
8
Image
10
20.367475
20
4.454185
11
19.595990
21
5.434970
0
LINE
8
Image
10
27.996715
20
6.336039
11
34.976765
21
6.841166
0
LINE
8
Image
10
34.976765
20
6.841166
11
43.860791
21
7.152382
0
LINE
8
Image
10
43.860791
20
7.152382
11
56.189849
21
7.303256
0
LINE
8
Image
10
56.189849
20
7.303256
11
73.504991
21
7.327358
0
LINE
8
Image
10
73.504991
20
7.327358
11
96.194086
21
7.376585
0
LINE
8
Image
10
96.194086
20
7.376585
11
110.370222
21
7.550745
0
LINE
8
Image
10
110.370222
20
7.550745
11
115.901340
21
7.639592
0
LINE
8
Image
10
115.901340
20
7.639592
11
121.857862
21
7.553891
0
LINE
8
Image
10
121.857862
20
7.553891
11
135.770190
21
6.838573
0
LINE
8
Image
10
135.770190
20
6.838573
11
137.886854
21
6.691004
0
LINE
8
Image
10
137.886854
20
6.691004
11
135.784141
21
7.396067
0
LINE
8
Image
10
135.784141
20
7.396067
11
133.752593
21
7.966400
0
LINE
8
Image
10
133.752593
20
7.966400
11
131.287052
21
8.472746
0
LINE
8
Image
10
131.287052
20
8.472746
11
125.284561
21
9.289529
0
LINE
8
Image
10
125.284561
20
9.289529
11
118.237809
21
9.838530
0
LINE
8
Image
10
118.237809
20
9.838530
11
110.607935
21
10.111861
0
LINE
8
Image
10
110.607935
20
10.111861
11
102.856079
21
10.101634
0
LINE
8
Image
10
102.856079
20
10.101634
11
95.443380
21
9.799960
0
LINE
8
Image
10
95.443380
20
9.799960
11
88.830980
21
9.198954
0
LINE
8
Image
10
88.830980
20
9.198954
11
83.480016
21
8.290726
0
LINE
8
Image
10
83.480016
20
8.290726
11
79.873115
21
7.449950
0
LINE
8
Image
10
79.873115
20
7.449950
11
77.130024
21
8.304196
0
LINE
8
Image
10
77.130024
20
8.304196
11
73.201958
21
9.390678
0
LINE
8
Image
10
73.201958
20
9.390678
11
69.366923
21
10.010686
0
LINE
8
Image
10
69.366923
20
10.010686
11
64.450241
21
10.284142
0
LINE
8
Image
10
64.450241
20
10.284142
11
57.277235
21
10.330968
0
LINE
8
Image
10
57.277235
20
10.330968
11
47.269570
21
10.147665
0
LINE
8
Image
10
47.269570
20
10.147665
11
39.440544
21
9.528403
0
LINE
8
Image
10
39.440544
20
9.528403
11
32.688243
21
8.911658
0
LINE
8
Image
10
32.688243
20
8.911658
11
26.391876
21
8.509769
0
LINE
8
Image
10
26.391876
20
8.509769
11
21.365468
21
8.197084
0
LINE
8
Image
10
21.365468
20
8.197084
11
20.538466
21
7.970146
0
LINE
8
Image
10
20.538466
20
7.970146
11
20.296979
21
7.617272
0
LINE
8
Image
10
20.296979
20
7.617272
11
20.370042
21
6.808654
0
LINE
8
Image
10
20.370042
20
6.808654
11
20.873489
21
6.199025
0
LINE
8
Image
10
20.873489
20
6.199025
11
21.723550
21
5.847849
0
LINE
8
Image
10
21.723550
20
5.847849
11
22.836457
21
5.814589
0
LINE
8
Image
10
22.836457
20
5.814589
11
27.996715
21
6.336039
0
LINE
8
Image
10
27.996715
20
6.336039
11
27.996715
21
6.336039
0
LINE
8
Image
10
82.368265
20
8.985576
11
84.033642
21
9.470638
0
LINE
8
Image
10
84.033642
20
9.470638
11
86.100334
21
9.895723
0
LINE
8
Image
10
86.100334
20
9.895723
11
91.257599
21
10.564607
0
LINE
8
Image
10
91.257599
20
10.564607
11
97.479930
21
10.989513
0
LINE
8
Image
10
97.479930
20
10.989513
11
104.407195
21
11.167728
0
LINE
8
Image
10
104.407195
20
11.167728
11
111.679262
21
11.096537
0
LINE
8
Image
10
111.679262
20
11.096537
11
118.935999
21
10.773226
0
LINE
8
Image
10
118.935999
20
10.773226
11
125.817274
21
10.195080
0
LINE
8
Image
10
125.817274
20
10.195080
11
131.962957
21
9.359384
0
LINE
8
Image
10
131.962957
20
9.359384
11
134.505713
21
8.925524
0
LINE
8
Image
10
134.505713
20
8.925524
11
135.187364
21
11.062643
0
LINE
8
Image
10
135.187364
20
11.062643
11
137.161570
21
16.719014
0
LINE
8
Image
10
137.161570
20
16.719014
11
138.779829
21
20.805089
0
LINE
8
Image
10
138.779829
20
20.805089
11
139.029332
21
21.403012
0
LINE
8
Image
10
139.029332
20
21.403012
11
138.932258
21
21.704920
0
LINE
8
Image
10
138.932258
20
21.704920
11
138.434386
21
21.741680
0
LINE
8
Image
10
138.434386
20
21.741680
11
137.481494
21
21.544157
0
LINE
8
Image
10
137.481494
20
21.544157
11
135.847211
21
21.227282
0
LINE
8
Image
10
135.847211
20
21.227282
11
133.149285
21
20.931386
0
LINE
8
Image
10
133.149285
20
20.931386
11
121.129931
21
20.099200
0
LINE
8
Image
10
121.129931
20
20.099200
11
114.525059
21
19.643806
0
LINE
8
Image
10
114.525059
20
19.643806
11
110.369849
21
19.120731
0
LINE
8
Image
10
110.369849
20
19.120731
11
106.964477
21
18.206924
0
LINE
8
Image
10
106.964477
20
18.206924
11
102.609121
21
16.579336
0
LINE
8
Image
10
102.609121
20
16.579336
11
98.958809
21
15.396578
0
LINE
8
Image
10
98.958809
20
15.396578
11
94.356362
21
14.233693
0
LINE
8
Image
10
94.356362
20
14.233693
11
89.508128
21
13.251041
0
LINE
8
Image
10
89.508128
20
13.251041
11
85.120457
21
12.608980
0
LINE
8
Image
10
85.120457
20
12.608980
11
78.325940
21
12.284722
0
LINE
8
Image
10
78.325940
20
12.284722
11
68.073486
21
12.176768
0
LINE
8
Image
10
68.073486
20
12.176768
11
57.396889
21
12.285052
0
LINE
8
Image
10
57.396889
20
12.285052
11
49.329942
21
12.609509
0
LINE
8
Image
10
49.329942
20
12.609509
11
42.506587
21
13.347962
0
LINE
8
Image
10
42.506587
20
13.347962
11
39.531450
21
13.884174
0
LINE
8
Image
10
39.531450
20
13.884174
11
36.711014
21
14.569473
0
LINE
8
Image
10
36.711014
20
14.569473
11
33.943031
21
15.432182
0
LINE
8
Image
10
33.943031
20
15.432182
11
31.125257
21
16.500621
0
LINE
8
Image
10
31.125257
20
16.500621
11
24.931352
21
19.367985
0
LINE
8
Image
10
24.931352
20
19.367985
11
18.867382
21
22.422972
0
LINE
8
Image
10
18.867382
20
22.422972
11
19.425146
21
21.162697
0
LINE
8
Image
10
19.425146
20
21.162697
11
21.633025
21
15.316317
0
LINE
8
Image
10
21.633025
20
15.316317
11
23.043385
21
11.416425
0
LINE
8
Image
10
23.043385
20
11.416425
11
23.555203
21
10.293749
0
LINE
8
Image
10
23.555203
20
10.293749
11
24.070110
21
9.600142
0
LINE
8
Image
10
24.070110
20
9.600142
11
24.687105
21
9.243773
0
LINE
8
Image
10
24.687105
20
9.243773
11
25.505183
21
9.132810
0
LINE
8
Image
10
25.505183
20
9.132810
11
28.140582
21
9.279771
0
LINE
8
Image
10
28.140582
20
9.279771
11
37.538499
21
10.207309
0
LINE
8
Image
10
37.538499
20
10.207309
11
44.691563
21
10.933027
0
LINE
8
Image
10
44.691563
20
10.933027
11
52.194213
21
11.381914
0
LINE
8
Image
10
52.194213
20
11.381914
11
59.311185
21
11.524239
0
LINE
8
Image
10
59.311185
20
11.524239
11
65.307218
21
11.330268
0
LINE
8
Image
10
65.307218
20
11.330268
11
69.308372
21
10.936833
0
LINE
8
Image
10
69.308372
20
10.936833
11
73.021582
21
10.365605
0
LINE
8
Image
10
73.021582
20
10.365605
11
76.249969
21
9.652996
0
LINE
8
Image
10
76.249969
20
9.652996
11
78.796651
21
8.835417
0
LINE
8
Image
10
78.796651
20
8.835417
11
79.631860
21
8.560933
0
LINE
8
Image
10
79.631860
20
8.560933
11
80.389496
21
8.489572
0
LINE
8
Image
10
80.389496
20
8.489572
11
81.243612
21
8.628645
0
LINE
8
Image
10
81.243612
20
8.628645
11
82.368265
21
8.985465
0
LINE
8
Image
10
82.368265
20
8.985465
11
82.368265
21
8.985576
0
LINE
8
Image
10
84.847384
20
13.539576
11
85.350977
21
14.049984
0
LINE
8
Image
10
85.350977
20
14.049984
11
85.660574
21
15.298273
0
LINE
8
Image
10
85.660574
20
15.298273
11
85.819554
21
17.614421
0
LINE
8
Image
10
85.819554
20
17.614421
11
85.871296
21
21.328405
0
LINE
8
Image
10
85.871296
20
21.328405
11
86.031161
21
27.386851
0
LINE
8
Image
10
86.031161
20
27.386851
11
86.394906
21
34.542791
0
LINE
8
Image
10
86.394906
20
34.542791
11
86.907184
21
45.618916
0
LINE
8
Image
10
86.907184
20
45.618916
11
86.910544
21
48.757547
0
LINE
8
Image
10
86.910544
20
48.757547
11
83.470965
21
48.550244
0
LINE
8
Image
10
83.470965
20
48.550244
11
79.696380
21
48.491906
0
LINE
8
Image
10
79.696380
20
48.491906
11
75.351851
21
48.693871
0
LINE
8
Image
10
75.351851
20
48.693871
11
70.933503
21
49.120548
0
LINE
8
Image
10
70.933503
20
49.120548
11
66.937462
21
49.736346
0
LINE
8
Image
10
66.937462
20
49.736346
11
63.824004
21
50.419536
0
LINE
8
Image
10
63.824004
20
50.419536
11
60.762285
21
51.254712
0
LINE
8
Image
10
60.762285
20
51.254712
11
57.760940
21
52.236095
0
LINE
8
Image
10
57.760940
20
52.236095
11
54.828605
21
53.357911
0
LINE
8
Image
10
54.828605
20
53.357911
11
51.973917
21
54.614382
0
LINE
8
Image
10
51.973917
20
54.614382
11
49.205511
21
55.999731
0
LINE
8
Image
10
49.205511
20
55.999731
11
46.532024
21
57.508181
0
LINE
8
Image
10
46.532024
20
57.508181
11
43.962090
21
59.133957
0
LINE
8
Image
10
43.962090
20
59.133957
11
41.504346
21
60.871281
0
LINE
8
Image
10
41.504346
20
60.871281
11
39.167427
21
62.714377
0
LINE
8
Image
10
39.167427
20
62.714377
11
36.959970
21
64.657467
0
LINE
8
Image
10
36.959970
20
64.657467
11
34.890611
21
66.694776
0
LINE
8
Image
10
34.890611
20
66.694776
11
32.967985
21
68.820526
0
LINE
8
Image
10
32.967985
20
68.820526
11
31.200728
21
71.028942
0
LINE
8
Image
10
31.200728
20
71.028942
11
29.597477
21
73.314245
0
LINE
8
Image
10
29.597477
20
73.314245
11
28.166866
21
75.670660
0
LINE
8
Image
10
28.166866
20
75.670660
11
26.354869
21
78.639956
0
LINE
8
Image
10
26.354869
20
78.639956
11
25.263306
21
78.236658
0
LINE
8
Image
10
25.263306
20
78.236658
11
23.597272
21
77.199720
0
LINE
8
Image
10
23.597272
20
77.199720
11
21.731097
21
75.788580
0
LINE
8
Image
10
21.731097
20
75.788580
11
20.039109
21
74.262674
0
LINE
8
Image
10
20.039109
20
74.262674
11
16.852786
21
70.695693
0
LINE
8
Image
10
16.852786
20
70.695693
11
13.456032
21
66.415273
0
LINE
8
Image
10
13.456032
20
66.415273
11
10.754116
21
62.620127
0
LINE
8
Image
10
10.754116
20
62.620127
11
9.946618
21
61.279130
0
LINE
8
Image
10
9.946618
20
61.279130
11
9.652306
21
60.508969
0
LINE
8
Image
10
9.652306
20
60.508969
11
9.812093
21
60.280054
0
LINE
8
Image
10
9.812093
20
60.280054
11
10.262144
21
60.022118
0
LINE
8
Image
10
10.262144
20
60.022118
11
11.857164
21
59.499689
0
LINE
8
Image
10
11.857164
20
59.499689
11
13.655018
21
58.942822
0
LINE
8
Image
10
13.655018
20
58.942822
11
15.949366
21
57.982993
0
LINE
8
Image
10
15.949366
20
57.982993
11
23.587011
21
54.142176
0
LINE
8
Image
10
23.587011
20
54.142176
11
26.604881
21
52.498844
0
LINE
8
Image
10
26.604881
20
52.498844
11
28.577846
21
51.213722
0
LINE
8
Image
10
28.577846
20
51.213722
11
29.925622
21
49.966772
0
LINE
8
Image
10
29.925622
20
49.966772
11
31.067929
21
48.437960
0
LINE
8
Image
10
31.067929
20
48.437960
11
31.936706
21
46.816154
0
LINE
8
Image
10
31.936706
20
46.816154
11
32.311066
21
45.252321
0
LINE
8
Image
10
32.311066
20
45.252321
11
32.199530
21
43.643627
0
LINE
8
Image
10
32.199530
20
43.643627
11
31.610615
21
41.887237
0
LINE
8
Image
10
31.610615
20
41.887237
11
30.942743
21
40.643586
0
LINE
8
Image
10
30.942743
20
40.643586
11
30.116174
21
39.627245
0
LINE
8
Image
10
30.116174
20
39.627245
11
29.088385
21
38.822639
0
LINE
8
Image
10
29.088385
20
38.822639
11
27.816853
21
38.214192
0
LINE
8
Image
10
27.816853
20
38.214192
11
26.259054
21
37.786331
0
LINE
8
Image
10
26.259054
20
37.786331
11
24.372465
21
37.523479
0
LINE
8
Image
10
24.372465
20
37.523479
11
19.442826
21
37.430503
0
LINE
8
Image
10
19.442826
20
37.430503
11
14.180642
21
37.579992
0
LINE
8
Image
10
14.180642
20
37.579992
11
14.405307
21
35.091253
0
LINE
8
Image
10
14.405307
20
35.091253
11
14.741115
21
32.204341
0
LINE
8
Image
10
14.741115
20
32.204341
11
15.229988
21
29.815873
0
LINE
8
Image
10
15.229988
20
29.815873
11
15.953020
21
27.819554
0
LINE
8
Image
10
15.953020
20
27.819554
11
16.991308
21
26.109090
0
LINE
8
Image
10
16.991308
20
26.109090
11
18.425945
21
24.578186
0
LINE
8
Image
10
18.425945
20
24.578186
11
20.338028
21
23.120549
0
LINE
8
Image
10
20.338028
20
23.120549
11
22.808650
21
21.629882
0
LINE
8
Image
10
22.808650
20
21.629882
11
25.918908
21
19.999891
0
LINE
8
Image
10
25.918908
20
19.999891
11
29.216711
21
18.422823
0
LINE
8
Image
10
29.216711
20
18.422823
11
32.331000
21
17.112725
0
LINE
8
Image
10
32.331000
20
17.112725
11
35.369941
21
16.043418
0
LINE
8
Image
10
35.369941
20
16.043418
11
38.441702
21
15.188725
0
LINE
8
Image
10
38.441702
20
15.188725
11
41.654451
21
14.522467
0
LINE
8
Image
10
41.654451
20
14.522467
11
45.116357
21
14.018466
0
LINE
8
Image
10
45.116357
20
14.018466
11
48.935586
21
13.650543
0
LINE
8
Image
10
48.935586
20
13.650543
11
53.220307
21
13.392521
0
LINE
8
Image
10
53.220307
20
13.392521
11
61.133022
21
13.217713
0
LINE
8
Image
10
61.133022
20
13.217713
11
71.442054
21
13.195113
0
LINE
8
Image
10
71.442054
20
13.195113
11
80.546984
21
13.307981
0
LINE
8
Image
10
80.546984
20
13.307981
11
84.847397
21
13.539576
0
LINE
8
Image
10
84.847397
20
13.539576
11
84.847384
21
13.539576
0
LINE
8
Image
10
82.185780
20
17.814722
11
81.989520
21
18.822563
0
LINE
8
Image
10
81.989520
20
18.822563
11
81.987257
21
20.050778
0
LINE
8
Image
10
81.987257
20
20.050778
11
82.155067
21
21.161392
0
LINE
8
Image
10
82.155067
20
21.161392
11
82.469029
21
21.816431
0
LINE
8
Image
10
82.469029
20
21.816431
11
82.876591
21
21.980627
0
LINE
8
Image
10
82.876591
20
21.980627
11
83.254987
21
21.828061
0
LINE
8
Image
10
83.254987
20
21.828061
11
83.582971
21
21.424420
0
LINE
8
Image
10
83.582971
20
21.424420
11
83.839297
21
20.835387
0
LINE
8
Image
10
83.839297
20
20.835387
11
84.051995
21
19.363893
0
LINE
8
Image
10
84.051995
20
19.363893
11
83.965877
21
18.612803
0
LINE
8
Image
10
83.965877
20
18.612803
11
83.723121
21
17.939065
0
LINE
8
Image
10
83.723121
20
17.939065
11
83.337914
21
17.463816
0
LINE
8
Image
10
83.337914
20
17.463816
11
82.899024
21
17.280287
0
LINE
8
Image
10
82.899024
20
17.280287
11
82.487846
21
17.395061
0
LINE
8
Image
10
82.487846
20
17.395061
11
82.185780
21
17.814722
0
LINE
8
Image
10
82.185780
20
17.814722
11
82.185780
21
17.814722
0
LINE
8
Image
10
83.265164
20
30.897427
11
83.100147
21
31.371016
0
LINE
8
Image
10
83.100147
20
31.371016
11
83.042418
21
32.208995
0
LINE
8
Image
10
83.042418
20
32.208995
11
83.252332
21
34.101821
0
LINE
8
Image
10
83.252332
20
34.101821
11
83.573092
21
34.641092
0
LINE
8
Image
10
83.573092
20
34.641092
11
84.064193
21
34.874750
0
LINE
8
Image
10
84.064193
20
34.874750
11
84.569410
21
34.780876
0
LINE
8
Image
10
84.569410
20
34.780876
11
84.932514
21
34.337552
0
LINE
8
Image
10
84.932514
20
34.337552
11
85.130905
21
33.563580
0
LINE
8
Image
10
85.130905
20
33.563580
11
85.163379
21
32.785368
0
LINE
8
Image
10
85.163379
20
32.785368
11
84.829947
21
31.421249
0
LINE
8
Image
10
84.829947
20
31.421249
11
84.513727
21
30.937856
0
LINE
8
Image
10
84.513727
20
30.937856
11
84.130961
21
30.655250
0
LINE
8
Image
10
84.130961
20
30.655250
11
83.706494
21
30.624688
0
LINE
8
Image
10
83.706494
20
30.624688
11
83.265167
21
30.897427
0
LINE
8
Image
10
83.265167
20
30.897427
11
83.265164
21
30.897427
0
LINE
8
Image
10
82.348310
20
44.375928
11
82.087757
21
45.136437
0
LINE
8
Image
10
82.087757
20
45.136437
11
81.989995
21
46.032024
0
LINE
8
Image
10
81.989995
20
46.032024
11
82.057868
21
46.895272
0
LINE
8
Image
10
82.057868
20
46.895272
11
82.294222
21
47.558764
0
LINE
8
Image
10
82.294222
20
47.558764
11
82.732288
21
47.905258
0
LINE
8
Image
10
82.732288
20
47.905258
11
83.213308
21
47.769354
0
LINE
8
Image
10
83.213308
20
47.769354
11
83.646860
21
47.218910
0
LINE
8
Image
10
83.646860
20
47.218910
11
83.942523
21
46.321786
0
LINE
8
Image
10
83.942523
20
46.321786
11
83.958098
21
44.986400
0
LINE
8
Image
10
83.958098
20
44.986400
11
83.575543
21
44.067998
0
LINE
8
Image
10
83.575543
20
44.067998
11
83.292176
21
43.834993
0
LINE
8
Image
10
83.292176
20
43.834993
11
82.977926
21
43.790026
0
LINE
8
Image
10
82.977926
20
43.790026
11
82.655676
21
43.961028
0
LINE
8
Image
10
82.655676
20
43.961028
11
82.348310
21
44.375928
0
LINE
8
Image
10
82.348310
20
44.375928
11
82.348310
21
44.375928
0
LINE
8
Image
10
94.125400
20
15.195577
11
98.049973
21
16.184827
0
LINE
8
Image
10
98.049973
20
16.184827
11
101.021623
21
17.089740
0
LINE
8
Image
10
101.021623
20
17.089740
11
105.765874
21
18.849937
0
LINE
8
Image
10
105.765874
20
18.849937
11
108.384033
21
19.706547
0
LINE
8
Image
10
108.384033
20
19.706547
11
111.078774
21
20.300879
0
LINE
8
Image
10
111.078774
20
20.300879
11
114.208427
21
20.693665
0
LINE
8
Image
10
114.208427
20
20.693665
11
118.131325
21
20.945633
0
LINE
8
Image
10
118.131325
20
20.945633
11
126.655188
21
21.396815
0
LINE
8
Image
10
126.655188
20
21.396815
11
132.826488
21
21.891802
0
LINE
8
Image
10
132.826488
20
21.891802
11
137.250547
21
22.493234
0
LINE
8
Image
10
137.250547
20
22.493234
11
140.532684
21
23.263750
0
LINE
8
Image
10
140.532684
20
23.263750
11
143.088366
21
24.146739
0
LINE
8
Image
10
143.088366
20
24.146739
11
144.905703
21
25.109644
0
LINE
8
Image
10
144.905703
20
25.109644
11
146.264074
21
26.345939
0
LINE
8
Image
10
146.264074
20
26.345939
11
147.442859
21
28.049096
0
LINE
8
Image
10
147.442859
20
28.049096
11
147.968477
21
29.185515
0
LINE
8
Image
10
147.968477
20
29.185515
11
148.422006
21
30.925029
0
LINE
8
Image
10
148.422006
20
30.925029
11
149.547963
21
38.340872
0
LINE
8
Image
10
149.547963
20
38.340872
11
149.749843
21
39.845897
0
LINE
8
Image
10
149.749843
20
39.845897
11
147.875288
21
39.626891
0
LINE
8
Image
10
147.875288
20
39.626891
11
146.002539
21
39.620471
0
LINE
8
Image
10
146.002539
20
39.620471
11
143.972323
21
39.999933
0
LINE
8
Image
10
143.972323
20
39.999933
11
141.863746
21
40.743805
0
LINE
8
Image
10
141.863746
20
40.743805
11
139.755916
21
41.830619
0
LINE
8
Image
10
139.755916
20
41.830619
11
137.623819
21
42.845156
0
LINE
8
Image
10
137.623819
20
42.845156
11
135.169811
21
43.339909
0
LINE
8
Image
10
135.169811
20
43.339909
11
133.020088
21
43.656626
0
LINE
8
Image
10
133.020088
20
43.656626
11
131.635958
21
44.061971
0
LINE
8
Image
10
131.635958
20
44.061971
11
130.812660
21
44.647893
0
LINE
8
Image
10
130.812660
20
44.647893
11
130.345434
21
45.506341
0
LINE
8
Image
10
130.345434
20
45.506341
11
129.977733
21
47.184596
0
LINE
8
Image
10
129.977733
20
47.184596
11
130.140815
21
48.778943
0
LINE
8
Image
10
130.140815
20
48.778943
11
130.878989
21
50.449915
0
LINE
8
Image
10
130.878989
20
50.449915
11
132.236565
21
52.358046
0
LINE
8
Image
10
132.236565
20
52.358046
11
133.329492
21
53.921684
0
LINE
8
Image
10
133.329492
20
53.921684
11
134.354903
21
55.699507
0
LINE
8
Image
10
134.354903
20
55.699507
11
135.647073
21
57.665079
0
LINE
8
Image
10
135.647073
20
57.665079
11
137.468291
21
59.720043
0
LINE
8
Image
10
137.468291
20
59.720043
11
139.481364
21
61.524953
0
LINE
8
Image
10
139.481364
20
61.524953
11
141.349099
21
62.740367
0
LINE
8
Image
10
141.349099
20
62.740367
11
143.210042
21
63.375560
0
LINE
8
Image
10
143.210042
20
63.375560
11
145.317844
21
63.737663
0
LINE
8
Image
10
145.317844
20
63.737663
11
146.921305
21
63.937160
0
LINE
8
Image
10
146.921305
20
63.937160
11
147.588231
21
64.160887
0
LINE
8
Image
10
147.588231
20
64.160887
11
146.337428
21
65.863145
0
LINE
8
Image
10
146.337428
20
65.863145
11
145.138176
21
67.598582
0
LINE
8
Image
10
145.138176
20
67.598582
11
144.011310
21
69.719001
0
LINE
8
Image
10
144.011310
20
69.719001
11
142.924790
21
71.753259
0
LINE
8
Image
10
142.924790
20
71.753259
11
141.822534
21
73.281539
0
LINE
8
Image
10
141.822534
20
73.281539
11
140.808999
21
74.126761
0
LINE
8
Image
10
140.808999
20
74.126761
11
139.500929
21
74.946006
0
LINE
8
Image
10
139.500929
20
74.946006
11
138.204191
21
75.569826
0
LINE
8
Image
10
138.204191
20
75.569826
11
137.224650
21
75.828770
0
LINE
8
Image
10
137.224650
20
75.828770
11
135.079615
21
76.696295
0
LINE
8
Image
10
135.079615
20
76.696295
11
133.315727
21
77.479011
0
LINE
8
Image
10
133.315727
20
77.479011
11
132.304829
21
75.619424
0
LINE
8
Image
10
132.304829
20
75.619424
11
130.343793
21
72.466354
0
LINE
8
Image
10
130.343793
20
72.466354
11
127.807206
21
69.245349
0
LINE
8
Image
10
127.807206
20
69.245349
11
124.229382
21
65.502271
0
LINE
8
Image
10
124.229382
20
65.502271
11
120.302869
21
61.913728
0
LINE
8
Image
10
120.302869
20
61.913728
11
116.720214
21
59.156329
0
LINE
8
Image
10
116.720214
20
59.156329
11
113.411759
21
57.127955
0
LINE
8
Image
10
113.411759
20
57.127955
11
109.786360
21
55.220385
0
LINE
8
Image
10
109.786360
20
55.220385
11
105.972971
21
53.496568
0
LINE
8
Image
10
105.972971
20
53.496568
11
102.100545
21
52.019456
0
LINE
8
Image
10
102.100545
20
52.019456
11
98.942995
21
51.070252
0
LINE
8
Image
10
98.942995
20
51.070252
11
95.144822
21
50.123607
0
LINE
8
Image
10
95.144822
20
50.123607
11
91.467979
21
49.354421
0
LINE
8
Image
10
91.467979
20
49.354421
11
88.674416
21
48.937593
0
LINE
8
Image
10
88.674416
20
48.937593
11
87.971060
21
48.850175
0
LINE
8
Image
10
87.971060
20
48.850175
11
87.615690
21
48.653338
0
LINE
8
Image
10
87.615690
20
48.653338
11
87.507803
21
48.207696
0
LINE
8
Image
10
87.507803
20
48.207696
11
87.546895
21
47.373866
0
LINE
8
Image
10
87.546895
20
47.373866
11
87.138810
21
35.555824
0
LINE
8
Image
10
87.138810
20
35.555824
11
86.582800
21
20.608088
0
LINE
8
Image
10
86.582800
20
20.608088
11
86.325392
21
14.828183
0
LINE
8
Image
10
86.325392
20
14.828183
11
86.108717
21
13.634384
0
LINE
8
Image
10
86.108717
20
13.634384
11
87.815473
21
13.890329
0
LINE
8
Image
10
87.815473
20
13.890329
11
94.125400
21
15.195577
0
LINE
8
Image
10
94.125400
20
15.195577
11
94.125400
21
15.195577
0
LINE
8
Image
10
26.938383
20
38.780966
11
28.505033
21
39.517757
0
LINE
8
Image
10
28.505033
20
39.517757
11
29.798276
21
40.697166
0
LINE
8
Image
10
29.798276
20
40.697166
11
30.764100
21
42.253778
0
LINE
8
Image
10
30.764100
20
42.253778
11
31.348490
21
44.122172
0
LINE
8
Image
10
31.348490
20
44.122172
11
31.367689
21
45.432591
0
LINE
8
Image
10
31.367689
20
45.432591
11
30.834929
21
46.858643
0
LINE
8
Image
10
30.834929
20
46.858643
11
30.210710
21
47.928592
0
LINE
8
Image
10
30.210710
20
47.928592
11
29.431345
21
48.922260
0
LINE
8
Image
10
29.431345
20
48.922260
11
28.410597
21
49.898975
0
LINE
8
Image
10
28.410597
20
49.898975
11
27.062227
21
50.918061
0
LINE
8
Image
10
27.062227
20
50.918061
11
23.037669
21
53.320651
0
LINE
8
Image
10
23.037669
20
53.320651
11
16.667766
21
56.604635
0
LINE
8
Image
10
16.667766
20
56.604635
11
14.627946
21
57.539776
0
LINE
8
Image
10
14.627946
20
57.539776
11
12.752858
21
58.224051
0
LINE
8
Image
10
12.752858
20
58.224051
11
11.039848
21
58.657564
0
LINE
8
Image
10
11.039848
20
58.657564
11
9.486263
21
58.840416
0
LINE
8
Image
10
9.486263
20
58.840416
11
8.089449
21
58.772714
0
LINE
8
Image
10
8.089449
20
58.772714
11
6.846752
21
58.454558
0
LINE
8
Image
10
6.846752
20
58.454558
11
5.755518
21
57.886055
0
LINE
8
Image
10
5.755518
20
57.886055
11
4.813095
21
57.067306
0
LINE
8
Image
10
4.813095
20
57.067306
11
4.060684
21
55.712963
0
LINE
8
Image
10
4.060684
20
55.712963
11
3.500701
21
53.725457
0
LINE
8
Image
10
3.500701
20
53.725457
11
3.222755
21
51.549980
0
LINE
8
Image
10
3.222755
20
51.549980
11
3.316456
21
49.631727
0
LINE
8
Image
10
3.316456
20
49.631727
11
3.872183
21
47.093172
0
LINE
8
Image
10
3.872183
20
47.093172
11
4.494913
21
45.245332
0
LINE
8
Image
10
4.494913
20
45.245332
11
5.297715
21
43.829331
0
LINE
8
Image
10
5.297715
20
43.829331
11
6.393655
21
42.586292
0
LINE
8
Image
10
6.393655
20
42.586292
11
7.732138
21
41.437243
0
LINE
8
Image
10
7.732138
20
41.437243
11
9.199683
21
40.471281
0
LINE
8
Image
10
9.199683
20
40.471281
11
10.812924
21
39.683683
0
LINE
8
Image
10
10.812924
20
39.683683
11
12.588494
21
39.069729
0
LINE
8
Image
10
12.588494
20
39.069729
11
14.543025
21
38.624695
0
LINE
8
Image
10
14.543025
20
38.624695
11
16.693151
21
38.343859
0
LINE
8
Image
10
16.693151
20
38.343859
11
19.055506
21
38.222499
0
LINE
8
Image
10
19.055506
20
38.222499
11
21.646723
21
38.255893
0
LINE
8
Image
10
21.646723
20
38.255893
11
24.874635
21
38.477535
0
LINE
8
Image
10
24.874635
20
38.477535
11
26.938383
21
38.780966
0
LINE
8
Image
10
26.938383
20
38.780966
11
26.938383
21
38.780966
0
LINE
8
Image
10
149.697823
20
40.921411
11
150.795190
21
41.253838
0
LINE
8
Image
10
150.795190
20
41.253838
11
151.769233
21
41.720710
0
LINE
8
Image
10
151.769233
20
41.720710
11
152.625658
21
42.328911
0
LINE
8
Image
10
152.625658
20
42.328911
11
153.370174
21
43.085324
0
LINE
8
Image
10
153.370174
20
43.085324
11
154.008487
21
43.996832
0
LINE
8
Image
10
154.008487
20
43.996832
11
154.546303
21
45.070320
0
LINE
8
Image
10
154.546303
20
45.070320
11
155.343275
21
47.730769
0
LINE
8
Image
10
155.343275
20
47.730769
11
155.575401
21
49.425445
0
LINE
8
Image
10
155.575401
20
49.425445
11
155.549553
21
51.317816
0
LINE
8
Image
10
155.549553
20
51.317816
11
155.239678
21
53.742916
0
LINE
8
Image
10
155.239678
20
53.742916
11
154.619726
21
57.035781
0
LINE
8
Image
10
154.619726
20
57.035781
11
153.999086
21
59.721068
0
LINE
8
Image
10
153.999086
20
59.721068
11
153.371690
21
61.351084
0
LINE
8
Image
10
153.371690
20
61.351084
11
152.999033
21
61.868977
0
LINE
8
Image
10
152.999033
20
61.868977
11
152.556976
21
62.241386
0
LINE
8
Image
10
152.556976
20
62.241386
11
151.374385
21
62.707530
0
LINE
8
Image
10
151.374385
20
62.707530
11
149.126927
21
62.945223
0
LINE
8
Image
10
149.126927
20
62.945223
11
146.317186
21
62.811989
0
LINE
8
Image
10
146.317186
20
62.811989
11
143.553505
21
62.370554
0
LINE
8
Image
10
143.553505
20
62.370554
11
141.444228
21
61.683644
0
LINE
8
Image
10
141.444228
20
61.683644
11
139.785391
21
60.573562
0
LINE
8
Image
10
139.785391
20
60.573562
11
138.026610
21
58.932005
0
LINE
8
Image
10
138.026610
20
58.932005
11
136.388617
21
56.991729
0
LINE
8
Image
10
136.388617
20
56.991729
11
135.092145
21
54.985495
0
LINE
8
Image
10
135.092145
20
54.985495
11
132.933921
21
51.652493
0
LINE
8
Image
10
132.933921
20
51.652493
11
131.407108
21
49.470826
0
LINE
8
Image
10
131.407108
20
49.470826
11
131.140982
21
48.586507
0
LINE
8
Image
10
131.140982
20
48.586507
11
131.025504
21
47.441737
0
LINE
8
Image
10
131.025504
20
47.441737
11
131.070266
21
46.341094
0
LINE
8
Image
10
131.070266
20
46.341094
11
131.284862
21
45.589153
0
LINE
8
Image
10
131.284862
20
45.589153
11
131.795728
21
45.145380
0
LINE
8
Image
10
131.795728
20
45.145380
11
132.646972
21
44.772694
0
LINE
8
Image
10
132.646972
20
44.772694
11
133.702283
21
44.516089
0
LINE
8
Image
10
133.702283
20
44.516089
11
134.825348
21
44.420556
0
LINE
8
Image
10
134.825348
20
44.420556
11
136.127246
21
44.325834
0
LINE
8
Image
10
136.127246
20
44.325834
11
137.406601
21
44.030013
0
LINE
8
Image
10
137.406601
20
44.030013
11
138.719352
21
43.515604
0
LINE
8
Image
10
138.719352
20
43.515604
11
140.121440
21
42.765123
0
LINE
8
Image
10
140.121440
20
42.765123
11
142.573923
21
41.536930
0
LINE
8
Image
10
142.573923
20
41.536930
11
144.965106
21
40.824555
0
LINE
8
Image
10
144.965106
20
40.824555
11
147.328552
21
40.621536
0
LINE
8
Image
10
147.328552
20
40.621536
11
149.697823
21
40.921411
0
LINE
8
Image
10
149.697823
20
40.921411
11
149.697823
21
40.921411
0
LINE
8
Image
10
91.445385
20
49.908314
11
95.166420
21
50.604705
0
LINE
8
Image
10
95.166420
20
50.604705
11
98.859183
21
51.535241
0
LINE
8
Image
10
98.859183
20
51.535241
11
102.500494
21
52.690221
0
LINE
8
Image
10
102.500494
20
52.690221
11
106.067168
21
54.059941
0
LINE
8
Image
10
106.067168
20
54.059941
11
109.536024
21
55.634700
0
LINE
8
Image
10
109.536024
20
55.634700
11
112.883880
21
57.404795
0
LINE
8
Image
10
112.883880
20
57.404795
11
116.087553
21
59.360525
0
LINE
8
Image
10
116.087553
20
59.360525
11
119.123860
21
61.492186
0
LINE
8
Image
10
119.123860
20
61.492186
11
121.935452
21
63.879331
0
LINE
8
Image
10
121.935452
20
63.879331
11
125.022148
21
66.917520
0
LINE
8
Image
10
125.022148
20
66.917520
11
127.877309
21
70.078200
0
LINE
8
Image
10
127.877309
20
70.078200
11
129.994300
21
72.832822
0
LINE
8
Image
10
129.994300
20
72.832822
11
131.725392
21
75.619859
0
LINE
8
Image
10
131.725392
20
75.619859
11
133.203033
21
78.398057
0
LINE
8
Image
10
133.203033
20
78.398057
11
134.432933
21
81.186068
0
LINE
8
Image
10
134.432933
20
81.186068
11
135.420805
21
84.002540
0
LINE
8
Image
10
135.420805
20
84.002540
11
136.172359
21
86.866123
0
LINE
8
Image
10
136.172359
20
86.866123
11
136.693307
21
89.795469
0
LINE
8
Image
10
136.693307
20
89.795469
11
136.989359
21
92.809226
0
LINE
8
Image
10
136.989359
20
92.809226
11
137.066228
21
95.926045
0
LINE
8
Image
10
137.066228
20
95.926045
11
136.953519
21
99.403107
0
LINE
8
Image
10
136.953519
20
99.403107
11
136.742657
21
101.570484
0
LINE
8
Image
10
136.742657
20
101.570484
11
136.499538
21
102.308591
0
LINE
8
Image
10
136.499538
20
102.308591
11
135.869150
21
102.861073
0
LINE
8
Image
10
135.869150
20
102.861073
11
134.372336
21
103.495221
0
LINE
8
Image
10
134.372336
20
103.495221
11
131.529938
21
104.478328
0
LINE
8
Image
10
131.529938
20
104.478328
11
119.530517
21
108.292786
0
LINE
8
Image
10
119.530517
20
108.292786
11
114.849614
21
109.570019
0
LINE
8
Image
10
114.849614
20
109.570019
11
111.222348
21
110.376592
0
LINE
8
Image
10
111.222348
20
110.376592
11
102.517803
21
112.024206
0
LINE
8
Image
10
102.517803
20
112.024206
11
97.743246
21
112.726088
0
LINE
8
Image
10
97.743246
20
112.726088
11
92.183129
21
113.147457
0
LINE
8
Image
10
92.183129
20
113.147457
11
86.080547
21
113.276834
0
LINE
8
Image
10
86.080547
20
113.276834
11
79.678594
21
113.102739
0
LINE
8
Image
10
79.678594
20
113.102739
11
75.958222
21
112.860498
0
LINE
8
Image
10
75.958222
20
112.860498
11
73.850290
21
112.594939
0
LINE
8
Image
10
73.850290
20
112.594939
11
73.400789
21
112.453372
0
LINE
8
Image
10
73.400789
20
112.453372
11
73.354157
21
112.305925
0
LINE
8
Image
10
73.354157
20
112.305925
11
74.469179
21
111.993318
0
LINE
8
Image
10
74.469179
20
111.993318
11
75.959540
21
111.430572
0
LINE
8
Image
10
75.959540
20
111.430572
11
77.638630
21
110.280903
0
LINE
8
Image
10
77.638630
20
110.280903
11
79.645466
21
108.437953
0
LINE
8
Image
10
79.645466
20
108.437953
11
81.086616
21
106.672454
0
LINE
8
Image
10
81.086616
20
106.672454
11
82.030079
21
104.883036
0
LINE
8
Image
10
82.030079
20
104.883036
11
82.543853
21
102.968329
0
LINE
8
Image
10
82.543853
20
102.968329
11
82.783462
21
101.469892
0
LINE
8
Image
10
82.783462
20
101.469892
11
83.461911
21
103.679946
0
LINE
8
Image
10
83.461911
20
103.679946
11
83.904350
21
104.911945
0
LINE
8
Image
10
83.904350
20
104.911945
11
84.476614
21
105.949559
0
LINE
8
Image
10
84.476614
20
105.949559
11
85.346072
21
107.039814
0
LINE
8
Image
10
85.346072
20
107.039814
11
86.680095
21
108.429734
0
LINE
8
Image
10
86.680095
20
108.429734
11
88.120205
21
109.820454
0
LINE
8
Image
10
88.120205
20
109.820454
11
89.191034
21
110.661858
0
LINE
8
Image
10
89.191034
20
110.661858
11
90.230684
21
111.170175
0
LINE
8
Image
10
90.230684
20
111.170175
11
91.577259
21
111.561635
0
LINE
8
Image
10
91.577259
20
111.561635
11
93.702467
21
111.964338
0
LINE
8
Image
10
93.702467
20
111.964338
11
95.747639
21
112.083207
0
LINE
8
Image
10
95.747639
20
112.083207
11
97.716628
21
111.917008
0
LINE
8
Image
10
97.716628
20
111.917008
11
99.613287
21
111.464507
0
LINE
8
Image
10
99.613287
20
111.464507
11
101.441468
21
110.724471
0
LINE
8
Image
10
101.441468
20
110.724471
11
103.205024
21
109.695667
0
LINE
8
Image
10
103.205024
20
109.695667
11
104.907808
21
108.376861
0
LINE
8
Image
10
104.907808
20
108.376861
11
106.553673
21
106.766820
0
LINE
8
Image
10
106.553673
20
106.766820
11
108.232724
21
104.646288
0
LINE
8
Image
10
108.232724
20
104.646288
11
109.648385
21
102.260764
0
LINE
8
Image
10
109.648385
20
102.260764
11
110.776569
21
99.707203
0
LINE
8
Image
10
110.776569
20
99.707203
11
111.593192
21
97.082556
0
LINE
8
Image
10
111.593192
20
97.082556
11
112.074169
21
94.483777
0
LINE
8
Image
10
112.074169
20
94.483777
11
112.195415
21
92.007817
0
LINE
8
Image
10
112.195415
20
92.007817
11
111.932845
21
89.751630
0
LINE
8
Image
10
111.932845
20
89.751630
11
111.262374
21
87.812168
0
LINE
8
Image
10
111.262374
20
87.812168
11
109.636407
21
85.011706
0
LINE
8
Image
10
109.636407
20
85.011706
11
107.876032
21
82.849009
0
LINE
8
Image
10
107.876032
20
82.849009
11
105.887858
21
81.229857
0
LINE
8
Image
10
105.887858
20
81.229857
11
103.578495
21
80.060029
0
LINE
8
Image
10
103.578495
20
80.060029
11
102.712616
21
79.828894
0
LINE
8
Image
10
102.712616
20
79.828894
11
101.628042
21
79.708337
0
LINE
8
Image
10
101.628042
20
79.708337
11
99.024315
21
79.777788
0
LINE
8
Image
10
99.024315
20
79.777788
11
96.210327
21
80.226048
0
LINE
8
Image
10
96.210327
20
80.226048
11
93.629092
21
81.010784
0
LINE
8
Image
10
93.629092
20
81.010784
11
91.524182
21
81.992297
0
LINE
8
Image
10
91.524182
20
81.992297
11
89.824245
21
83.121034
0
LINE
8
Image
10
89.824245
20
83.121034
11
88.325678
21
84.560472
0
LINE
8
Image
10
88.325678
20
84.560472
11
86.824880
21
86.474092
0
LINE
8
Image
10
86.824880
20
86.474092
11
85.475871
21
88.478717
0
LINE
8
Image
10
85.475871
20
88.478717
11
84.512316
21
90.202822
0
LINE
8
Image
10
84.512316
20
90.202822
11
83.837657
21
91.844807
0
LINE
8
Image
10
83.837657
20
91.844807
11
83.355337
21
93.603069
0
LINE
8
Image
10
83.355337
20
93.603069
11
82.891623
21
95.689809
0
LINE
8
Image
10
82.891623
20
95.689809
11
82.131527
21
93.200570
0
LINE
8
Image
10
82.131527
20
93.200570
11
81.220665
21
90.939323
0
LINE
8
Image
10
81.220665
20
90.939323
11
79.870181
21
88.507878
0
LINE
8
Image
10
79.870181
20
88.507878
11
78.236092
21
86.156267
0
LINE
8
Image
10
78.236092
20
86.156267
11
76.474417
21
84.134525
0
LINE
8
Image
10
76.474417
20
84.134525
11
74.520084
21
82.632710
0
LINE
8
Image
10
74.520084
20
82.632710
11
72.025170
21
81.410576
0
LINE
8
Image
10
72.025170
20
81.410576
11
69.198617
21
80.549901
0
LINE
8
Image
10
69.198617
20
80.549901
11
66.249371
21
80.132466
0
LINE
8
Image
10
66.249371
20
80.132466
11
64.659191
21
80.073641
0
LINE
8
Image
10
64.659191
20
80.073641
11
63.526111
21
80.154723
0
LINE
8
Image
10
63.526111
20
80.154723
11
62.521864
21
80.430524
0
LINE
8
Image
10
62.521864
20
80.430524
11
61.318182
21
80.955859
0
LINE
8
Image
10
61.318182
20
80.955859
11
59.366163
21
82.111764
0
LINE
8
Image
10
59.366163
20
82.111764
11
57.601585
21
83.625646
0
LINE
8
Image
10
57.601585
20
83.625646
11
56.075147
21
85.446135
0
LINE
8
Image
10
56.075147
20
85.446135
11
54.837552
21
87.521862
0
LINE
8
Image
10
54.837552
20
87.521862
11
53.910520
21
89.824133
0
LINE
8
Image
10
53.910520
20
89.824133
11
53.490521
21
92.073709
0
LINE
8
Image
10
53.490521
20
92.073709
11
53.559162
21
94.516189
0
LINE
8
Image
10
53.559162
20
94.516189
11
54.098053
21
97.397171
0
LINE
8
Image
10
54.098053
20
97.397171
11
54.631637
21
99.273396
0
LINE
8
Image
10
54.631637
20
99.273396
11
55.306506
21
101.072393
0
LINE
8
Image
10
55.306506
20
101.072393
11
56.118499
21
102.787663
0
LINE
8
Image
10
56.118499
20
102.787663
11
57.063454
21
104.412705
0
LINE
8
Image
10
57.063454
20
104.412705
11
58.137209
21
105.941016
0
LINE
8
Image
10
58.137209
20
105.941016
11
59.335602
21
107.366098
0
LINE
8
Image
10
59.335602
20
107.366098
11
60.654471
21
108.681447
0
LINE
8
Image
10
60.654471
20
108.681447
11
62.089656
21
109.880565
0
LINE
8
Image
10
62.089656
20
109.880565
11
63.092998
21
110.768882
0
LINE
8
Image
10
63.092998
20
110.768882
11
63.222260
21
111.010967
0
LINE
8
Image
10
63.222260
20
111.010967
11
63.084527
21
111.095472
0
LINE
8
Image
10
63.084527
20
111.095472
11
61.804071
21
110.906792
0
LINE
8
Image
10
61.804071
20
110.906792
11
59.741581
21
110.385198
0
LINE
8
Image
10
59.741581
20
110.385198
11
54.061845
21
108.609942
0
LINE
8
Image
10
54.061845
20
108.609942
11
47.627995
21
106.303048
0
LINE
8
Image
10
47.627995
20
106.303048
11
42.022710
21
103.997863
0
LINE
8
Image
10
42.022710
20
103.997863
11
37.765302
21
102.251858
0
LINE
8
Image
10
37.765302
20
102.251858
11
32.850498
21
100.480449
0
LINE
8
Image
10
32.850498
20
100.480449
11
25.439078
21
97.789489
0
LINE
8
Image
10
25.439078
20
97.789489
11
23.410608
21
96.888023
0
LINE
8
Image
10
23.410608
20
96.888023
11
23.410608
21
94.336581
0
LINE
8
Image
10
23.410608
20
94.336581
11
23.545620
21
91.584421
0
LINE
8
Image
10
23.545620
20
91.584421
11
23.942131
21
88.744731
0
LINE
8
Image
10
23.942131
20
88.744731
11
24.587349
21
85.854756
0
LINE
8
Image
10
24.587349
20
85.854756
11
25.468486
21
82.951744
0
LINE
8
Image
10
25.468486
20
82.951744
11
26.572752
21
80.072939
0
LINE
8
Image
10
26.572752
20
80.072939
11
27.887356
21
77.255588
0
LINE
8
Image
10
27.887356
20
77.255588
11
29.399509
21
74.536937
0
LINE
8
Image
10
29.399509
20
74.536937
11
31.096421
21
71.954232
0
LINE
8
Image
10
31.096421
20
71.954232
11
33.919843
21
68.420822
0
LINE
8
Image
10
33.919843
20
68.420822
11
37.188763
21
65.085812
0
LINE
8
Image
10
37.188763
20
65.085812
11
40.851040
21
61.982979
0
LINE
8
Image
10
40.851040
20
61.982979
11
44.854532
21
59.146099
0
LINE
8
Image
10
44.854532
20
59.146099
11
49.147097
21
56.608949
0
LINE
8
Image
10
49.147097
20
56.608949
11
53.676593
21
54.405305
0
LINE
8
Image
10
53.676593
20
54.405305
11
58.390879
21
52.568943
0
LINE
8
Image
10
58.390879
20
52.568943
11
63.237813
21
51.133640
0
LINE
8
Image
10
63.237813
20
51.133640
11
66.821310
21
50.320447
0
LINE
8
Image
10
66.821310
20
50.320447
11
70.316528
21
49.698954
0
LINE
8
Image
10
70.316528
20
49.698954
11
73.759385
21
49.267600
0
LINE
8
Image
10
73.759385
20
49.267600
11
77.185799
21
49.024825
0
LINE
8
Image
10
77.185799
20
49.024825
11
80.631689
21
48.969069
0
LINE
8
Image
10
80.631689
20
48.969069
11
84.132971
21
49.098772
0
LINE
8
Image
10
84.132971
20
49.098772
11
87.725564
21
49.412374
0
LINE
8
Image
10
87.725564
20
49.412374
11
91.445385
21
49.908314
0
LINE
8
Image
10
91.445385
20
49.908314
11
91.445385
21
49.908314
0
LINE
8
Image
10
78.091096
20
53.477769
11
71.357155
21
54.193974
0
LINE
8
Image
10
71.357155
20
54.193974
11
66.787739
21
54.822005
0
LINE
8
Image
10
66.787739
20
54.822005
11
63.019313
21
55.590190
0
LINE
8
Image
10
63.019313
20
55.590190
11
58.688343
21
56.726861
0
LINE
8
Image
10
58.688343
20
56.726861
11
55.622560
21
57.664623
0
LINE
8
Image
10
55.622560
20
57.664623
11
53.001363
21
58.691358
0
LINE
8
Image
10
53.001363
20
58.691358
11
50.590719
21
59.911573
0
LINE
8
Image
10
50.590719
20
59.911573
11
48.156593
21
61.429774
0
LINE
8
Image
10
48.156593
20
61.429774
11
44.805210
21
63.591240
0
LINE
8
Image
10
44.805210
20
63.591240
11
42.813363
21
65.038607
0
LINE
8
Image
10
42.813363
20
65.038607
11
40.343923
21
66.913820
0
LINE
8
Image
10
40.343923
20
66.913820
11
38.808239
21
68.120179
0
LINE
8
Image
10
38.808239
20
68.120179
11
37.345314
21
69.507183
0
LINE
8
Image
10
37.345314
20
69.507183
11
35.934205
21
71.022826
0
LINE
8
Image
10
35.934205
20
71.022826
11
37.379011
21
69.766274
0
LINE
8
Image
10
37.379011
20
69.766274
11
41.047984
21
66.951421
0
LINE
8
Image
10
41.047984
20
66.951421
11
47.575857
21
62.568354
0
LINE
8
Image
10
47.575857
20
62.568354
11
50.555152
21
60.735357
0
LINE
8
Image
10
50.555152
20
60.735357
11
53.258125
21
59.363466
0
LINE
8
Image
10
53.258125
20
59.363466
11
56.098401
21
58.268617
0
LINE
8
Image
10
56.098401
20
58.268617
11
59.489604
21
57.266748
0
LINE
8
Image
10
59.489604
20
57.266748
11
63.310167
21
56.277304
0
LINE
8
Image
10
63.310167
20
56.277304
11
66.282895
21
55.643144
0
LINE
8
Image
10
66.282895
20
55.643144
11
74.148891
21
54.641122
0
LINE
8
Image
10
74.148891
20
54.641122
11
79.850950
21
54.109970
0
LINE
8
Image
10
79.850950
20
54.109970
11
84.070197
21
53.985023
0
LINE
8
Image
10
84.070197
20
53.985023
11
87.751499
21
54.287516
0
LINE
8
Image
10
87.751499
20
54.287516
11
91.839723
21
55.038682
0
LINE
8
Image
10
91.839723
20
55.038682
11
95.758305
21
55.987294
0
LINE
8
Image
10
95.758305
20
55.987294
11
99.381574
21
57.139072
0
LINE
8
Image
10
99.381574
20
57.139072
11
103.122597
21
58.642976
0
LINE
8
Image
10
103.122597
20
58.642976
11
107.394441
21
60.647963
0
LINE
8
Image
10
107.394441
20
60.647963
11
111.370110
21
62.765670
0
LINE
8
Image
10
111.370110
20
62.765670
11
115.308084
21
65.230921
0
LINE
8
Image
10
115.308084
20
65.230921
11
119.636563
21
68.332053
0
LINE
8
Image
10
119.636563
20
68.332053
11
124.783746
21
72.357401
0
LINE
8
Image
10
124.783746
20
72.357401
11
127.278203
21
74.294033
0
LINE
8
Image
10
127.278203
20
74.294033
11
128.392319
21
75.022937
0
LINE
8
Image
10
128.392319
20
75.022937
11
128.328375
21
74.786321
0
LINE
8
Image
10
128.328375
20
74.786321
11
127.923408
21
74.312365
0
LINE
8
Image
10
127.923408
20
74.312365
11
126.164257
21
72.715112
0
LINE
8
Image
10
126.164257
20
72.715112
11
119.366044
21
67.362005
0
LINE
8
Image
10
119.366044
20
67.362005
11
115.988962
21
64.875785
0
LINE
8
Image
10
115.988962
20
64.875785
11
113.289297
21
63.061888
0
LINE
8
Image
10
113.289297
20
63.061888
11
110.673496
21
61.548803
0
LINE
8
Image
10
110.673496
20
61.548803
11
107.548005
21
59.965024
0
LINE
8
Image
10
107.548005
20
59.965024
11
102.607092
21
57.632966
0
LINE
8
Image
10
102.607092
20
57.632966
11
98.804928
21
56.105597
0
LINE
8
Image
10
98.804928
20
56.105597
11
95.056772
21
55.005424
0
LINE
8
Image
10
95.056772
20
55.005424
11
90.277879
21
53.954950
0
LINE
8
Image
10
90.277879
20
53.954950
11
87.529223
21
53.543456
0
LINE
8
Image
10
87.529223
20
53.543456
11
84.396558
21
53.319505
0
LINE
8
Image
10
84.396558
20
53.319505
11
81.157858
21
53.293981
0
LINE
8
Image
10
81.157858
20
53.293981
11
78.091096
21
53.477769
0
LINE
8
Image
10
78.091096
20
53.477769
11
78.091096
21
53.477769
0
LINE
8
Image
10
75.983599
20
58.203917
11
74.516673
21
58.550427
0
LINE
8
Image
10
74.516673
20
58.550427
11
73.701571
21
58.899514
0
LINE
8
Image
10
73.701571
20
58.899514
11
73.625654
21
59.035435
0
LINE
8
Image
10
73.625654
20
59.035435
11
73.746388
21
59.094081
0
LINE
8
Image
10
73.746388
20
59.094081
11
74.574348
21
58.979235
0
LINE
8
Image
10
74.574348
20
58.979235
11
77.793652
21
58.714741
0
LINE
8
Image
10
77.793652
20
58.714741
11
82.724512
21
58.707918
0
LINE
8
Image
10
82.724512
20
58.707918
11
87.754149
21
58.924762
0
LINE
8
Image
10
87.754149
20
58.924762
11
91.269787
21
59.331266
0
LINE
8
Image
10
91.269787
20
59.331266
11
94.056514
21
59.896554
0
LINE
8
Image
10
94.056514
20
59.896554
11
94.310908
21
59.814232
0
LINE
8
Image
10
94.310908
20
59.814232
11
94.235138
21
59.515222
0
LINE
8
Image
10
94.235138
20
59.515222
11
93.468224
21
59.079910
0
LINE
8
Image
10
93.468224
20
59.079910
11
91.824493
21
58.633679
0
LINE
8
Image
10
91.824493
20
58.633679
11
88.454186
21
58.255189
0
LINE
8
Image
10
88.454186
20
58.255189
11
83.728816
21
58.031306
0
LINE
8
Image
10
83.728816
20
58.031306
11
79.091061
21
58.001169
0
LINE
8
Image
10
79.091061
20
58.001169
11
75.983599
21
58.203917
0
LINE
8
Image
10
75.983599
20
58.203917
11
75.983599
21
58.203917
0
LINE
8
Image
10
88.850805
20
62.473914
11
85.980540
21
63.502096
0
LINE
8
Image
10
85.980540
20
63.502096
11
83.502008
21
64.038660
0
LINE
8
Image
10
83.502008
20
64.038660
11
81.340223
21
64.093155
0
LINE
8
Image
10
81.340223
20
64.093155
11
79.420199
21
63.675134
0
LINE
8
Image
10
79.420199
20
63.675134
11
78.557248
21
63.448263
0
LINE
8
Image
10
78.557248
20
63.448263
11
78.345253
21
63.558650
0
LINE
8
Image
10
78.345253
20
63.558650
11
78.743264
21
63.905614
0
LINE
8
Image
10
78.743264
20
63.905614
11
79.710330
21
64.388471
0
LINE
8
Image
10
79.710330
20
64.388471
11
81.246445
21
64.780865
0
LINE
8
Image
10
81.246445
20
64.780865
11
83.114627
21
64.846474
0
LINE
8
Image
10
83.114627
20
64.846474
11
85.207537
21
64.590457
0
LINE
8
Image
10
85.207537
20
64.590457
11
87.417840
21
64.017975
0
LINE
8
Image
10
87.417840
20
64.017975
11
90.667626
21
62.803530
0
LINE
8
Image
10
90.667626
20
62.803530
11
91.267183
21
62.390066
0
LINE
8
Image
10
91.267183
20
62.390066
11
91.309308
21
62.041723
0
LINE
8
Image
10
91.309308
20
62.041723
11
91.100186
21
61.802891
0
LINE
8
Image
10
91.100186
20
61.802891
11
90.751622
21
61.772302
0
LINE
8
Image
10
90.751622
20
61.772302
11
88.850805
21
62.473914
0
LINE
8
Image
10
88.850805
20
62.473914
11
88.850805
21
62.473914
0
LINE
8
Image
10
105.293625
20
81.662058
11
106.805223
21
82.728608
0
LINE
8
Image
10
106.805223
20
82.728608
11
108.107147
21
84.001358
0
LINE
8
Image
10
108.107147
20
84.001358
11
109.301705
21
85.597887
0
LINE
8
Image
10
109.301705
20
85.597887
11
110.491200
21
87.635778
0
LINE
8
Image
10
110.491200
20
87.635778
11
110.988664
21
88.677875
0
LINE
8
Image
10
110.988664
20
88.677875
11
111.267689
21
89.663593
0
LINE
8
Image
10
111.267689
20
89.663593
11
111.398322
21
92.751049
0
LINE
8
Image
10
111.398322
20
92.751049
11
111.224455
21
95.505898
0
LINE
8
Image
10
111.224455
20
95.505898
11
110.726400
21
97.987321
0
LINE
8
Image
10
110.726400
20
97.987321
11
109.859806
21
100.352841
0
LINE
8
Image
10
109.859806
20
100.352841
11
108.580323
21
102.759983
0
LINE
8
Image
10
108.580323
20
102.759983
11
106.901967
21
105.176692
0
LINE
8
Image
10
106.901967
20
105.176692
11
105.029993
21
107.221390
0
LINE
8
Image
10
105.029993
20
107.221390
11
102.993275
21
108.880416
0
LINE
8
Image
10
102.993275
20
108.880416
11
100.820690
21
110.140108
0
LINE
8
Image
10
100.820690
20
110.140108
11
98.541112
21
110.986805
0
LINE
8
Image
10
98.541112
20
110.986805
11
96.183416
21
111.406846
0
LINE
8
Image
10
96.183416
20
111.406846
11
93.776478
21
111.386570
0
LINE
8
Image
10
93.776478
20
111.386570
11
91.349173
21
110.912314
0
LINE
8
Image
10
91.349173
20
110.912314
11
89.424055
21
110.033522
0
LINE
8
Image
10
89.424055
20
110.033522
11
87.512184
21
108.603208
0
LINE
8
Image
10
87.512184
20
108.603208
11
85.819217
21
106.805529
0
LINE
8
Image
10
85.819217
20
106.805529
11
84.550813
21
104.824643
0
LINE
8
Image
10
84.550813
20
104.824643
11
84.007844
21
103.609620
0
LINE
8
Image
10
84.007844
20
103.609620
11
83.710071
21
102.468263
0
LINE
8
Image
10
83.710071
20
102.468263
11
83.584753
21
100.941904
0
LINE
8
Image
10
83.584753
20
100.941904
11
83.559145
21
98.571875
0
LINE
8
Image
10
83.559145
20
98.571875
11
83.678602
21
95.298898
0
LINE
8
Image
10
83.678602
20
95.298898
11
84.122628
21
92.752440
0
LINE
8
Image
10
84.122628
20
92.752440
11
85.019701
21
90.469871
0
LINE
8
Image
10
85.019701
20
90.469871
11
86.498303
21
87.988557
0
LINE
8
Image
10
86.498303
20
87.988557
11
88.222418
21
85.595537
0
LINE
8
Image
10
88.222418
20
85.595537
11
89.835739
21
83.861584
0
LINE
8
Image
10
89.835739
20
83.861584
11
91.520808
21
82.622142
0
LINE
8
Image
10
91.520808
20
82.622142
11
93.460164
21
81.712656
0
LINE
8
Image
10
93.460164
20
81.712656
11
95.904674
21
80.834143
0
LINE
8
Image
10
95.904674
20
80.834143
11
97.640310
21
80.352833
0
LINE
8
Image
10
97.640310
20
80.352833
11
99.112486
21
80.177556
0
LINE
8
Image
10
99.112486
20
80.177556
11
100.766621
21
80.217143
0
LINE
8
Image
10
100.766621
20
80.217143
11
102.061478
21
80.343067
0
LINE
8
Image
10
102.061478
20
80.343067
11
103.109340
21
80.581732
0
LINE
8
Image
10
103.109340
20
80.581732
11
104.117594
21
80.999331
0
LINE
8
Image
10
104.117594
20
80.999331
11
105.293625
21
81.662058
0
LINE
8
Image
10
105.293625
20
81.662058
11
105.293625
21
81.662058
0
LINE
8
Image
10
90.575341
20
95.232742
11
90.071704
21
95.544221
0
LINE
8
Image
10
90.071704
20
95.544221
11
89.765260
21
95.984916
0
LINE
8
Image
10
89.765260
20
95.984916
11
89.643153
21
96.502199
0
LINE
8
Image
10
89.643153
20
96.502199
11
89.692531
21
97.043444
0
LINE
8
Image
10
89.692531
20
97.043444
11
89.900540
21
97.556022
0
LINE
8
Image
10
89.900540
20
97.556022
11
90.254325
21
97.987307
0
LINE
8
Image
10
90.254325
20
97.987307
11
90.741034
21
98.284671
0
LINE
8
Image
10
90.741034
20
98.284671
11
91.347813
21
98.395488
0
LINE
8
Image
10
91.347813
20
98.395488
11
92.025866
21
98.174429
0
LINE
8
Image
10
92.025866
20
98.174429
11
92.562843
21
97.618709
0
LINE
8
Image
10
92.562843
20
97.618709
11
92.854766
21
96.889508
0
LINE
8
Image
10
92.854766
20
96.889508
11
92.797659
21
96.148009
0
LINE
8
Image
10
92.797659
20
96.148009
11
92.440936
21
95.626907
0
LINE
8
Image
10
92.440936
20
95.626907
11
91.888589
21
95.274695
0
LINE
8
Image
10
91.888589
20
95.274695
11
91.235199
21
95.130322
0
LINE
8
Image
10
91.235199
20
95.130322
11
90.575341
21
95.232742
0
LINE
8
Image
10
90.575341
20
95.232742
11
90.575341
21
95.232742
0
LINE
8
Image
10
72.093883
20
82.104258
11
74.404138
21
83.346707
0
LINE
8
Image
10
74.404138
20
83.346707
11
76.524571
21
85.079671
0
LINE
8
Image
10
76.524571
20
85.079671
11
78.449284
21
87.297389
0
LINE
8
Image
10
78.449284
20
87.297389
11
80.172382
21
89.994107
0
LINE
8
Image
10
80.172382
20
89.994107
11
81.259751
21
92.336588
0
LINE
8
Image
10
81.259751
20
92.336588
11
81.949299
21
94.764803
0
LINE
8
Image
10
81.949299
20
94.764803
11
82.268694
21
97.418114
0
LINE
8
Image
10
82.268694
20
97.418114
11
82.245607
21
100.435883
0
LINE
8
Image
10
82.245607
20
100.435883
11
81.945252
21
103.025494
0
LINE
8
Image
10
81.945252
20
103.025494
11
81.292490
21
105.093624
0
LINE
8
Image
10
81.292490
20
105.093624
11
80.155885
21
106.926846
0
LINE
8
Image
10
80.155885
20
106.926846
11
78.403997
21
108.811734
0
LINE
8
Image
10
78.403997
20
108.811734
11
76.923674
21
110.126887
0
LINE
8
Image
10
76.923674
20
110.126887
11
75.634319
21
110.955945
0
LINE
8
Image
10
75.634319
20
110.955945
11
74.178688
21
111.474262
0
LINE
8
Image
10
74.178688
20
111.474262
11
72.199539
21
111.857190
0
LINE
8
Image
10
72.199539
20
111.857190
11
70.309537
21
111.973393
0
LINE
8
Image
10
70.309537
20
111.973393
11
68.293392
21
111.757170
0
LINE
8
Image
10
68.293392
20
111.757170
11
66.211259
21
111.219587
0
LINE
8
Image
10
66.211259
20
111.219587
11
64.123291
21
110.371708
0
LINE
8
Image
10
64.123291
20
110.371708
11
63.021353
21
109.703114
0
LINE
8
Image
10
63.021353
20
109.703114
11
61.820582
21
108.738487
0
LINE
8
Image
10
61.820582
20
108.738487
11
59.341043
21
106.178397
0
LINE
8
Image
10
59.341043
20
106.178397
11
57.121683
21
103.205977
0
LINE
8
Image
10
57.121683
20
103.205977
11
56.246136
21
101.725935
0
LINE
8
Image
10
56.246136
20
101.725935
11
55.599511
21
100.335762
0
LINE
8
Image
10
55.599511
20
100.335762
11
55.020937
21
98.569548
0
LINE
8
Image
10
55.020937
20
98.569548
11
54.544541
21
96.593357
0
LINE
8
Image
10
54.544541
20
96.593357
11
54.221313
21
94.656694
0
LINE
8
Image
10
54.221313
20
94.656694
11
54.102239
21
93.009065
0
LINE
8
Image
10
54.102239
20
93.009065
11
54.263111
21
91.207191
0
LINE
8
Image
10
54.263111
20
91.207191
11
54.726247
21
89.410409
0
LINE
8
Image
10
54.726247
20
89.410409
11
55.462424
21
87.661494
0
LINE
8
Image
10
55.462424
20
87.661494
11
56.442418
21
86.003222
0
LINE
8
Image
10
56.442418
20
86.003222
11
57.637007
21
84.478369
0
LINE
8
Image
10
57.637007
20
84.478369
11
59.016968
21
83.129710
0
LINE
8
Image
10
59.016968
20
83.129710
11
60.553079
21
82.000023
0
LINE
8
Image
10
60.553079
20
82.000023
11
62.216116
21
81.132082
0
LINE
8
Image
10
62.216116
20
81.132082
11
63.771645
21
80.906220
0
LINE
8
Image
10
63.771645
20
80.906220
11
66.273057
21
80.884628
0
LINE
8
Image
10
66.273057
20
80.884628
11
69.343785
21
81.200002
0
LINE
8
Image
10
69.343785
20
81.200002
11
72.093883
21
82.104258
0
LINE
8
Image
10
72.093883
20
82.104258
11
72.093883
21
82.104258
0
LINE
8
Image
10
72.711242
20
95.954302
11
72.184488
21
96.575673
0
LINE
8
Image
10
72.184488
20
96.575673
11
72.073509
21
97.417976
0
LINE
8
Image
10
72.073509
20
97.417976
11
72.354392
21
98.246101
0
LINE
8
Image
10
72.354392
20
98.246101
11
73.003223
21
98.824935
0
LINE
8
Image
10
73.003223
20
98.824935
11
73.824800
21
99.033890
0
LINE
8
Image
10
73.824800
20
99.033890
11
74.491079
21
98.867208
0
LINE
8
Image
10
74.491079
20
98.867208
11
74.965362
21
98.346996
0
LINE
8
Image
10
74.965362
20
98.346996
11
75.210948
21
97.495358
0
LINE
8
Image
10
75.210948
20
97.495358
11
75.087204
21
96.501807
0
LINE
8
Image
10
75.087204
20
96.501807
11
74.538310
21
95.857661
0
LINE
8
Image
10
74.538310
20
95.857661
11
73.700808
21
95.647100
0
LINE
8
Image
10
73.700808
20
95.647100
11
72.711242
21
95.954302
0
LINE
8
Image
10
72.711242
20
95.954302
11
72.711242
21
95.954302
0
LINE
8
Image
10
24.965604
20
98.406386
11
30.217866
21
100.385750
0
LINE
8
Image
10
30.217866
20
100.385750
11
36.787232
21
102.696149
0
LINE
8
Image
10
36.787232
20
102.696149
11
41.162651
21
104.558512
0
LINE
8
Image
10
41.162651
20
104.558512
11
42.744109
21
105.390223
0
LINE
8
Image
10
42.744109
20
105.390223
11
45.155626
21
106.409563
0
LINE
8
Image
10
45.155626
20
106.409563
11
51.574580
21
108.714472
0
LINE
8
Image
10
51.574580
20
108.714472
11
58.631000
21
110.879912
0
LINE
8
Image
10
58.631000
20
110.879912
11
64.536371
21
112.312559
0
LINE
8
Image
10
64.536371
20
112.312559
11
69.471584
21
113.087664
0
LINE
8
Image
10
69.471584
20
113.087664
11
74.664299
21
113.665677
0
LINE
8
Image
10
74.664299
20
113.665677
11
79.969263
21
114.044474
0
LINE
8
Image
10
79.969263
20
114.044474
11
85.241227
21
114.221934
0
LINE
8
Image
10
85.241227
20
114.221934
11
90.334937
21
114.195934
0
LINE
8
Image
10
90.334937
20
114.195934
11
95.105142
21
113.964351
0
LINE
8
Image
10
95.105142
20
113.964351
11
99.406592
21
113.525064
0
LINE
8
Image
10
99.406592
20
113.525064
11
103.094033
21
112.875949
0
LINE
8
Image
10
103.094033
20
112.875949
11
108.782724
21
111.805107
0
LINE
8
Image
10
108.782724
20
111.805107
11
112.808556
21
111.082839
0
LINE
8
Image
10
112.808556
20
111.082839
11
117.367200
21
109.956681
0
LINE
8
Image
10
117.367200
20
109.956681
11
122.959872
21
108.288673
0
LINE
8
Image
10
122.959872
20
108.288673
11
130.087786
21
105.940855
0
LINE
8
Image
10
130.087786
20
105.940855
11
136.117661
21
104.039924
0
LINE
8
Image
10
136.117661
20
104.039924
11
136.293218
21
104.115434
0
LINE
8
Image
10
136.293218
20
104.115434
11
136.386809
21
104.345789
0
LINE
8
Image
10
136.386809
20
104.345789
11
136.332018
21
105.293973
0
LINE
8
Image
10
136.332018
20
105.293973
11
136.142489
21
106.023601
0
LINE
8
Image
10
136.142489
20
106.023601
11
135.693050
21
106.571858
0
LINE
8
Image
10
135.693050
20
106.571858
11
134.717084
21
107.149305
0
LINE
8
Image
10
134.717084
20
107.149305
11
132.947973
21
107.966500
0
LINE
8
Image
10
132.947973
20
107.966500
11
127.176079
21
110.262128
0
LINE
8
Image
10
127.176079
20
110.262128
11
123.254055
21
111.413513
0
LINE
8
Image
10
123.254055
20
111.413513
11
117.591422
21
112.854022
0
LINE
8
Image
10
117.591422
20
112.854022
11
104.065733
21
115.869335
0
LINE
8
Image
10
104.065733
20
115.869335
11
98.517618
21
116.797304
0
LINE
8
Image
10
98.517618
20
116.797304
11
92.699450
21
117.401094
0
LINE
8
Image
10
92.699450
20
117.401094
11
86.731147
21
117.684522
0
LINE
8
Image
10
86.731147
20
117.684522
11
80.732628
21
117.651405
0
LINE
8
Image
10
80.732628
20
117.651405
11
74.823811
21
117.305559
0
LINE
8
Image
10
74.823811
20
117.305559
11
69.124613
21
116.650801
0
LINE
8
Image
10
69.124613
20
116.650801
11
63.754955
21
115.690946
0
LINE
8
Image
10
63.754955
20
115.690946
11
58.834753
21
114.429813
0
LINE
8
Image
10
58.834753
20
114.429813
11
53.289833
21
112.528007
0
LINE
8
Image
10
53.289833
20
112.528007
11
46.469780
21
109.904167
0
LINE
8
Image
10
46.469780
20
109.904167
11
40.039536
21
107.224673
0
LINE
8
Image
10
40.039536
20
107.224673
11
35.664045
21
105.155906
0
LINE
8
Image
10
35.664045
20
105.155906
11
32.406433
21
103.704835
0
LINE
8
Image
10
32.406433
20
103.704835
11
26.321023
21
100.960945
0
LINE
8
Image
10
26.321023
20
100.960945
11
23.051226
21
99.227285
0
LINE
8
Image
10
23.051226
20
99.227285
11
22.490359
21
98.697625
0
LINE
8
Image
10
22.490359
20
98.697625
11
22.352276
21
98.187848
0
LINE
8
Image
10
22.352276
20
98.187848
11
22.479871
21
97.337156
0
LINE
8
Image
10
22.479871
20
97.337156
11
24.965604
21
98.406386
0
LINE
8
Image
10
24.965604
20
98.406386
11
24.965604
21
98.406386
0
LINE
8
Image
10
31.182617
20
103.797230
11
35.459258
21
105.778473
0
LINE
8
Image
10
35.459258
20
105.778473
11
41.562429
21
108.624781
0
LINE
8
Image
10
41.562429
20
108.624781
11
50.544486
21
112.369619
0
LINE
8
Image
10
50.544486
20
112.369619
11
57.386001
21
114.819708
0
LINE
8
Image
10
57.386001
20
114.819708
11
60.586163
21
115.742752
0
LINE
8
Image
10
60.586163
20
115.742752
11
63.825176
21
116.503214
0
LINE
8
Image
10
63.825176
20
116.503214
11
67.242475
21
117.130158
0
LINE
8
Image
10
67.242475
20
117.130158
11
70.977495
21
117.652645
0
LINE
8
Image
10
70.977495
20
117.652645
11
79.958443
21
118.500504
0
LINE
8
Image
10
79.958443
20
118.500504
11
83.118353
21
118.651530
0
LINE
8
Image
10
83.118353
20
118.651530
11
86.488655
21
118.644560
0
LINE
8
Image
10
86.488655
20
118.644560
11
93.831455
21
118.159618
0
LINE
8
Image
10
93.831455
20
118.159618
11
101.928889
21
117.051659
0
LINE
8
Image
10
101.928889
20
117.051659
11
110.723001
21
115.326662
0
LINE
8
Image
10
110.723001
20
115.326662
11
118.158872
21
113.619180
0
LINE
8
Image
10
118.158872
20
113.619180
11
123.615765
21
112.225108
0
LINE
8
Image
10
123.615765
20
112.225108
11
127.754301
21
110.961469
0
LINE
8
Image
10
127.754301
20
110.961469
11
131.235099
21
109.645287
0
LINE
8
Image
10
131.235099
20
109.645287
11
133.669679
21
108.696931
0
LINE
8
Image
10
133.669679
20
108.696931
11
134.773397
21
108.393587
0
LINE
8
Image
10
134.773397
20
108.393587
11
134.604923
21
109.228434
0
LINE
8
Image
10
134.604923
20
109.228434
11
133.882156
21
111.014274
0
LINE
8
Image
10
133.882156
20
111.014274
11
131.696056
21
115.353094
0
LINE
8
Image
10
131.696056
20
115.353094
11
128.996299
21
119.452827
0
LINE
8
Image
10
128.996299
20
119.452827
11
125.848323
21
123.269254
0
LINE
8
Image
10
125.848323
20
123.269254
11
122.273224
21
126.787014
0
LINE
8
Image
10
122.273224
20
126.787014
11
118.292100
21
129.990744
0
LINE
8
Image
10
118.292100
20
129.990744
11
113.926050
21
132.865081
0
LINE
8
Image
10
113.926050
20
132.865081
11
109.196170
21
135.394663
0
LINE
8
Image
10
109.196170
20
135.394663
11
104.123558
21
137.564128
0
LINE
8
Image
10
104.123558
20
137.564128
11
98.729313
21
139.358112
0
LINE
8
Image
10
98.729313
20
139.358112
11
94.956206
21
140.375989
0
LINE
8
Image
10
94.956206
20
140.375989
11
94.647225
21
140.094880
0
LINE
8
Image
10
94.647225
20
140.094880
11
94.249910
21
139.419021
0
LINE
8
Image
10
94.249910
20
139.419021
11
93.711356
21
138.574272
0
LINE
8
Image
10
93.711356
20
138.574272
11
93.004481
21
137.894452
0
LINE
8
Image
10
93.004481
20
137.894452
11
92.158002
21
137.386374
0
LINE
8
Image
10
92.158002
20
137.386374
11
91.200638
21
137.056850
0
LINE
8
Image
10
91.200638
20
137.056850
11
90.161106
21
136.912691
0
LINE
8
Image
10
90.161106
20
136.912691
11
89.068125
21
136.960710
0
LINE
8
Image
10
89.068125
20
136.960710
11
87.950412
21
137.207719
0
LINE
8
Image
10
87.950412
20
137.207719
11
86.836686
21
137.660531
0
LINE
8
Image
10
86.836686
20
137.660531
11
85.232159
21
138.472847
0
LINE
8
Image
10
85.232159
20
138.472847
11
84.287786
21
137.660531
0
LINE
8
Image
10
84.287786
20
137.660531
11
83.728659
21
137.258327
0
LINE
8
Image
10
83.728659
20
137.258327
11
83.110823
21
137.009680
0
LINE
8
Image
10
83.110823
20
137.009680
11
81.228902
21
136.848216
0
LINE
8
Image
10
81.228902
20
136.848216
11
79.705093
21
136.971247
0
LINE
8
Image
10
79.705093
20
136.971247
11
78.359133
21
137.293761
0
LINE
8
Image
10
78.359133
20
137.293761
11
77.399023
21
137.745886
0
LINE
8
Image
10
77.399023
20
137.745886
11
77.128662
21
137.998719
0
LINE
8
Image
10
77.128662
20
137.998719
11
77.032764
21
138.257753
0
LINE
8
Image
10
77.032764
20
138.257753
11
76.655604
21
138.237047
0
LINE
8
Image
10
76.655604
20
138.237047
11
75.748814
21
137.719528
0
LINE
8
Image
10
75.748814
20
137.719528
11
74.936288
21
137.262145
0
LINE
8
Image
10
74.936288
20
137.262145
11
74.102361
21
136.964738
0
LINE
8
Image
10
74.102361
20
136.964738
11
73.272583
21
136.824354
0
LINE
8
Image
10
73.272583
20
136.824354
11
72.472503
21
136.838042
0
LINE
8
Image
10
72.472503
20
136.838042
11
71.727671
21
137.002849
0
LINE
8
Image
10
71.727671
20
137.002849
11
71.063639
21
137.315823
0
LINE
8
Image
10
71.063639
20
137.315823
11
70.505954
21
137.774013
0
LINE
8
Image
10
70.505954
20
137.774013
11
70.080168
21
138.374466
0
LINE
8
Image
10
70.080168
20
138.374466
11
69.868811
21
138.711357
0
LINE
8
Image
10
69.868811
20
138.711357
11
69.641472
21
138.799300
0
LINE
8
Image
10
69.641472
20
138.799300
11
68.713393
21
138.162295
0
LINE
8
Image
10
68.713393
20
138.162295
11
67.626699
21
137.338158
0
LINE
8
Image
10
67.626699
20
137.338158
11
66.668422
21
136.827809
0
LINE
8
Image
10
66.668422
20
136.827809
11
65.678554
21
136.567988
0
LINE
8
Image
10
65.678554
20
136.567988
11
64.497083
21
136.495439
0
LINE
8
Image
10
64.497083
20
136.495439
11
63.597845
21
136.539765
0
LINE
8
Image
10
63.597845
20
136.539765
11
62.919645
21
136.718578
0
LINE
8
Image
10
62.919645
20
136.718578
11
62.303862
21
137.100631
0
LINE
8
Image
10
62.303862
20
137.100631
11
61.591877
21
137.754676
0
LINE
8
Image
10
61.591877
20
137.754676
11
60.332639
21
139.013914
0
LINE
8
Image
10
60.332639
20
139.013914
11
57.658412
21
138.077933
0
LINE
8
Image
10
57.658412
20
138.077933
11
52.323989
21
135.913654
0
LINE
8
Image
10
52.323989
20
135.913654
11
47.296407
21
133.278996
0
LINE
8
Image
10
47.296407
20
133.278996
11
42.621631
21
130.215073
0
LINE
8
Image
10
42.621631
20
130.215073
11
38.345630
21
126.762998
0
LINE
8
Image
10
38.345630
20
126.762998
11
34.514369
21
122.963883
0
LINE
8
Image
10
34.514369
20
122.963883
11
31.173816
21
118.858842
0
LINE
8
Image
10
31.173816
20
118.858842
11
29.701920
21
116.704447
0
LINE
8
Image
10
29.701920
20
116.704447
11
28.369938
21
114.488988
0
LINE
8
Image
10
28.369938
20
114.488988
11
27.183616
21
112.217604
0
LINE
8
Image
10
27.183616
20
112.217604
11
26.148701
21
109.895434
0
LINE
8
Image
10
26.148701
20
109.895434
11
25.328833
21
107.595200
0
LINE
8
Image
10
25.328833
20
107.595200
11
24.560531
21
104.967187
0
LINE
8
Image
10
24.560531
20
104.967187
11
23.990603
21
102.563403
0
LINE
8
Image
10
23.990603
20
102.563403
11
23.765858
21
100.935858
0
LINE
8
Image
10
23.765858
20
100.935858
11
23.802213
21
100.491498
0
LINE
8
Image
10
23.802213
20
100.491498
11
24.048122
21
100.386729
0
LINE
8
Image
10
24.048122
20
100.386729
11
25.968244
21
101.344228
0
LINE
8
Image
10
25.968244
20
101.344228
11
31.182617
21
103.797230
0
LINE
8
Image
10
31.182617
20
103.797230
11
31.182617
21
103.797230
0
LINE
8
Image
10
67.629804
20
138.296624
11
68.943376
21
139.277948
0
LINE
8
Image
10
68.943376
20
139.277948
11
69.778758
21
140.098755
0
LINE
8
Image
10
69.778758
20
140.098755
11
70.224163
21
140.530202
0
LINE
8
Image
10
70.224163
20
140.530202
11
70.602270
21
140.573227
0
LINE
8
Image
10
70.602270
20
140.573227
11
70.819397
21
140.268949
0
LINE
8
Image
10
70.819397
20
140.268949
11
70.781863
21
139.658483
0
LINE
8
Image
10
70.781863
20
139.658483
11
70.824350
21
138.936571
0
LINE
8
Image
10
70.824350
20
138.936571
11
71.237049
21
138.256748
0
LINE
8
Image
10
71.237049
20
138.256748
11
71.899634
21
137.751615
0
LINE
8
Image
10
71.899634
20
137.751615
11
72.691777
21
137.553771
0
LINE
8
Image
10
72.691777
20
137.553771
11
73.740503
21
137.764579
0
LINE
8
Image
10
73.740503
20
137.764579
11
74.950561
21
138.293233
0
LINE
8
Image
10
74.950561
20
138.293233
11
76.029755
21
138.984081
0
LINE
8
Image
10
76.029755
20
138.984081
11
76.685893
21
139.681467
0
LINE
8
Image
10
76.685893
20
139.681467
11
77.034262
21
140.106239
0
LINE
8
Image
10
77.034262
20
140.106239
11
77.375597
21
140.174765
0
LINE
8
Image
10
77.375597
20
140.174765
11
77.635187
21
139.911284
0
LINE
8
Image
10
77.635187
20
139.911284
11
77.738319
21
139.340033
0
LINE
8
Image
10
77.738319
20
139.340033
11
77.894792
21
138.695455
0
LINE
8
Image
10
77.894792
20
138.695455
11
78.409664
21
138.229834
0
LINE
8
Image
10
78.409664
20
138.229834
11
79.351118
21
137.906220
0
LINE
8
Image
10
79.351118
20
137.906220
11
80.787337
21
137.687663
0
LINE
8
Image
10
80.787337
20
137.687663
11
82.008103
21
137.583976
0
LINE
8
Image
10
82.008103
20
137.583976
11
82.756577
21
137.661798
0
LINE
8
Image
10
82.756577
20
137.661798
11
83.324508
21
138.017127
0
LINE
8
Image
10
83.324508
20
138.017127
11
84.003645
21
138.745959
0
LINE
8
Image
10
84.003645
20
138.745959
11
84.786213
21
139.548593
0
LINE
8
Image
10
84.786213
20
139.548593
11
85.366794
21
139.952151
0
LINE
8
Image
10
85.366794
20
139.952151
11
85.727939
21
139.949212
0
LINE
8
Image
10
85.727939
20
139.949212
11
85.852199
21
139.532350
0
LINE
8
Image
10
85.852199
20
139.532350
11
85.963658
21
139.270716
0
LINE
8
Image
10
85.963658
20
139.270716
11
86.272450
21
138.996525
0
LINE
8
Image
10
86.272450
20
138.996525
11
87.328502
21
138.468966
0
LINE
8
Image
10
87.328502
20
138.468966
11
88.713303
21
138.066648
0
LINE
8
Image
10
88.713303
20
138.066648
11
90.119801
21
137.906548
0
LINE
8
Image
10
90.119801
20
137.906548
11
91.467415
21
138.121840
0
LINE
8
Image
10
91.467415
20
138.121840
11
92.582103
21
138.937743
0
LINE
8
Image
10
92.582103
20
138.937743
11
93.272011
21
139.812008
0
LINE
8
Image
10
93.272011
20
139.812008
11
93.561830
21
140.688206
0
LINE
8
Image
10
93.561830
20
140.688206
11
93.457254
21
141.621997
0
LINE
8
Image
10
93.457254
20
141.621997
11
92.963981
21
142.669042
0
LINE
8
Image
10
92.963981
20
142.669042
11
92.174132
21
143.672004
0
LINE
8
Image
10
92.174132
20
143.672004
11
91.278201
21
144.290036
0
LINE
8
Image
10
91.278201
20
144.290036
11
90.302448
21
144.511359
0
LINE
8
Image
10
90.302448
20
144.511359
11
89.273133
21
144.324199
0
LINE
8
Image
10
89.273133
20
144.324199
11
88.389440
21
144.092606
0
LINE
8
Image
10
88.389440
20
144.092606
11
88.022179
21
144.272981
0
LINE
8
Image
10
88.022179
20
144.272981
11
87.545143
21
144.981856
0
LINE
8
Image
10
87.545143
20
144.981856
11
86.655104
21
145.734802
0
LINE
8
Image
10
86.655104
20
145.734802
11
85.515273
21
146.416468
0
LINE
8
Image
10
85.515273
20
146.416468
11
84.288865
21
146.911505
0
LINE
8
Image
10
84.288865
20
146.911505
11
82.730471
21
147.284143
0
LINE
8
Image
10
82.730471
20
147.284143
11
81.369987
21
147.406091
0
LINE
8
Image
10
81.369987
20
147.406091
11
80.181797
21
147.277281
0
LINE
8
Image
10
80.181797
20
147.277281
11
79.140289
21
146.897643
0
LINE
8
Image
10
79.140289
20
146.897643
11
78.522399
21
146.641256
0
LINE
8
Image
10
78.522399
20
146.641256
11
77.854539
21
146.537011
0
LINE
8
Image
10
77.854539
20
146.537011
11
75.717744
21
146.758470
0
LINE
8
Image
10
75.717744
20
146.758470
11
73.682730
21
146.954544
0
LINE
8
Image
10
73.682730
20
146.954544
11
71.986822
21
146.774541
0
LINE
8
Image
10
71.986822
20
146.774541
11
70.482055
21
146.182783
0
LINE
8
Image
10
70.482055
20
146.182783
11
69.020468
21
145.143591
0
LINE
8
Image
10
69.020468
20
145.143591
11
67.569526
21
144.154265
0
LINE
8
Image
10
67.569526
20
144.154265
11
66.893625
21
143.958956
0
LINE
8
Image
10
66.893625
20
143.958956
11
66.111264
21
143.903762
0
LINE
8
Image
10
66.111264
20
143.903762
11
64.741037
21
143.741940
0
LINE
8
Image
10
64.741037
20
143.741940
11
63.535377
21
143.296823
0
LINE
8
Image
10
63.535377
20
143.296823
11
62.535961
21
142.628931
0
LINE
8
Image
10
62.535961
20
142.628931
11
61.784467
21
141.798785
0
LINE
8
Image
10
61.784467
20
141.798785
11
61.322570
21
140.866907
0
LINE
8
Image
10
61.322570
20
140.866907
11
61.191949
21
139.893818
0
LINE
8
Image
10
61.191949
20
139.893818
11
61.434280
21
138.940039
0
LINE
8
Image
10
61.434280
20
138.940039
11
62.091240
21
138.066092
0
LINE
8
Image
10
62.091240
20
138.066092
11
63.233273
21
137.369474
0
LINE
8
Image
10
63.233273
20
137.369474
11
64.573619
21
137.177212
0
LINE
8
Image
10
64.573619
20
137.177212
11
66.057416
21
137.487024
0
LINE
8
Image
10
66.057416
20
137.487024
11
67.629804
21
138.296624
0
LINE
8
Image
10
67.629804
20
138.296624
11
67.629804
21
138.296624
 0 
ENDSEC
 0 
EOF