999
"DXF R12 Output" (www.mydxf.blogspot.com)
 0 
SECTION
 2 
HEADER
 9 
$ACADVER
 1 
AC1009
 9 
$EXTMIN
 10 
 0 
 20 
 0 
 9 
$EXTMAX
 10 
 8.5 
 20 
 11 
 0 
ENDSEC
 0 
SECTION
 2 
ENTITIES
0
LINE
8
Image
10
66.145747
20
5.890822
11
61.011679
21
8.659960
0
LINE
8
Image
10
61.011679
20
8.659960
11
55.337575
21
11.419565
0
LINE
8
Image
10
55.337575
20
11.419565
11
49.204624
21
14.138015
0
LINE
8
Image
10
49.204624
20
14.138015
11
42.694018
21
16.783688
0
LINE
8
Image
10
42.694018
20
16.783688
11
35.886944
21
19.324963
0
LINE
8
Image
10
35.886944
20
19.324963
11
28.864593
21
21.730217
0
LINE
8
Image
10
28.864593
20
21.730217
11
21.708155
21
23.967831
0
LINE
8
Image
10
21.708155
20
23.967831
11
14.498820
21
26.006181
0
LINE
8
Image
10
14.498820
20
26.006181
11
10.829607
21
26.987617
0
LINE
8
Image
10
10.829607
20
26.987617
11
9.977560
21
29.267717
0
LINE
8
Image
10
9.977560
20
29.267717
11
8.332125
21
34.201500
0
LINE
8
Image
10
8.332125
20
34.201500
11
7.193643
21
38.892262
0
LINE
8
Image
10
7.193643
20
38.892262
11
6.530462
21
43.503411
0
LINE
8
Image
10
6.530462
20
43.503411
11
6.310932
21
48.198360
0
LINE
8
Image
10
6.310932
20
48.198360
11
6.510643
21
52.918823
0
LINE
8
Image
10
6.510643
20
52.918823
11
7.160148
21
57.246930
0
LINE
8
Image
10
7.160148
20
57.246930
11
8.309185
21
61.417721
0
LINE
8
Image
10
8.309185
20
61.417721
11
10.007494
21
65.666237
0
LINE
8
Image
10
10.007494
20
65.666237
11
10.781126
21
67.119651
0
LINE
8
Image
10
10.781126
20
67.119651
11
11.743684
21
68.486986
0
LINE
8
Image
10
11.743684
20
68.486986
11
12.908356
21
69.778833
0
LINE
8
Image
10
12.908356
20
69.778833
11
14.288329
21
71.005779
0
LINE
8
Image
10
14.288329
20
71.005779
11
15.896790
21
72.178412
0
LINE
8
Image
10
15.896790
20
72.178412
11
17.746926
21
73.307323
0
LINE
8
Image
10
17.746926
20
73.307323
11
22.224971
21
75.476327
0
LINE
8
Image
10
22.224971
20
75.476327
11
25.934461
21
76.835277
0
LINE
8
Image
10
25.934461
20
76.835277
11
29.838505
21
77.865120
0
LINE
8
Image
10
29.838505
20
77.865120
11
33.865723
21
78.562491
0
LINE
8
Image
10
33.865723
20
78.562491
11
37.944734
21
78.924023
0
LINE
8
Image
10
37.944734
20
78.924023
11
42.004156
21
78.946348
0
LINE
8
Image
10
42.004156
20
78.946348
11
45.972610
21
78.626100
0
LINE
8
Image
10
45.972610
20
78.626100
11
49.778714
21
77.959913
0
LINE
8
Image
10
49.778714
20
77.959913
11
53.351088
21
76.944419
0
LINE
8
Image
10
53.351088
20
76.944419
11
56.974132
21
75.448653
0
LINE
8
Image
10
56.974132
20
75.448653
11
60.278839
21
73.592084
0
LINE
8
Image
10
60.278839
20
73.592084
11
63.255539
21
71.385342
0
LINE
8
Image
10
63.255539
20
71.385342
11
65.894565
21
68.839056
0
LINE
8
Image
10
65.894565
20
68.839056
11
68.186250
21
65.963859
0
LINE
8
Image
10
68.186250
20
65.963859
11
70.120924
21
62.770379
0
LINE
8
Image
10
70.120924
20
62.770379
11
71.688920
21
59.269246
0
LINE
8
Image
10
71.688920
20
59.269246
11
72.880570
21
55.471091
0
LINE
8
Image
10
72.880570
20
55.471091
11
73.459770
21
52.920252
0
LINE
8
Image
10
73.459770
20
52.920252
11
73.705189
21
51.134752
0
LINE
8
Image
10
73.705189
20
51.134752
11
73.618481
21
50.085087
0
LINE
8
Image
10
73.618481
20
50.085087
11
73.451094
21
49.826973
0
LINE
8
Image
10
73.451094
20
49.826973
11
73.201295
21
49.741755
0
LINE
8
Image
10
73.201295
20
49.741755
11
72.831991
21
49.632693
0
LINE
8
Image
10
72.831991
20
49.632693
11
72.705592
21
49.166213
0
LINE
8
Image
10
72.705592
20
49.166213
11
73.175101
21
46.325240
0
LINE
8
Image
10
73.175101
20
46.325240
11
73.791646
21
42.961134
0
LINE
8
Image
10
73.791646
20
42.961134
11
74.201327
21
39.662352
0
LINE
8
Image
10
74.201327
20
39.662352
11
74.426982
21
36.185330
0
LINE
8
Image
10
74.426982
20
36.185330
11
74.491447
21
32.286503
0
LINE
8
Image
10
74.491447
20
32.286503
11
74.519018
21
28.832575
0
LINE
8
Image
10
74.519018
20
28.832575
11
74.706529
21
26.989042
0
LINE
8
Image
10
74.706529
20
26.989042
11
74.900960
21
26.513199
0
LINE
8
Image
10
74.900960
20
26.513199
11
75.184213
21
26.250383
0
LINE
8
Image
10
75.184213
20
26.250383
11
76.082300
21
26.111075
0
LINE
8
Image
10
76.082300
20
26.111075
11
76.672969
21
26.006947
0
LINE
8
Image
10
76.672969
20
26.006947
11
76.960714
21
25.549598
0
LINE
8
Image
10
76.960714
20
25.549598
11
76.995735
21
24.505511
0
LINE
8
Image
10
76.995735
20
24.505511
11
76.828230
21
22.641167
0
LINE
8
Image
10
76.828230
20
22.641167
11
76.331625
21
19.274696
0
LINE
8
Image
10
76.331625
20
19.274696
11
75.583552
21
16.077905
0
LINE
8
Image
10
75.583552
20
16.077905
11
74.589281
21
13.069569
0
LINE
8
Image
10
74.589281
20
13.069569
11
73.354086
21
10.268467
0
LINE
8
Image
10
73.354086
20
10.268467
11
72.114063
21
7.990246
0
LINE
8
Image
10
72.114063
20
7.990246
11
70.892544
21
6.059178
0
LINE
8
Image
10
70.892544
20
6.059178
11
69.864989
21
4.729635
0
LINE
8
Image
10
69.864989
20
4.729635
11
69.206856
21
4.255987
0
LINE
8
Image
10
69.206856
20
4.255987
11
66.145737
21
5.890822
0
LINE
8
Image
10
66.145737
20
5.890822
11
66.145747
21
5.890822
0
LINE
8
Image
10
71.155452
20
7.394275
11
72.521780
21
9.701745
0
LINE
8
Image
10
72.521780
20
9.701745
11
73.726051
21
12.276483
0
LINE
8
Image
10
73.726051
20
12.276483
11
74.724138
21
15.012086
0
LINE
8
Image
10
74.724138
20
15.012086
11
75.471912
21
17.802155
0
LINE
8
Image
10
75.471912
20
17.802155
11
76.112896
21
20.735346
0
LINE
8
Image
10
76.112896
20
20.735346
11
72.011264
21
21.687713
0
LINE
8
Image
10
72.011264
20
21.687713
11
66.025958
21
23.191886
0
LINE
8
Image
10
66.025958
20
23.191886
11
60.151782
21
24.885312
0
LINE
8
Image
10
60.151782
20
24.885312
11
54.522392
21
26.716249
0
LINE
8
Image
10
54.522392
20
26.716249
11
49.271442
21
28.632953
0
LINE
8
Image
10
49.271442
20
28.632953
11
44.532588
21
30.583681
0
LINE
8
Image
10
44.532588
20
30.583681
11
40.439482
21
32.516692
0
LINE
8
Image
10
40.439482
20
32.516692
11
37.125782
21
34.380241
0
LINE
8
Image
10
37.125782
20
34.380241
11
34.725140
21
36.122586
0
LINE
8
Image
10
34.725140
20
36.122586
11
33.694679
21
37.148004
0
LINE
8
Image
10
33.694679
20
37.148004
11
32.769727
21
38.316532
0
LINE
8
Image
10
32.769727
20
38.316532
11
31.960114
21
39.605484
0
LINE
8
Image
10
31.960114
20
39.605484
11
31.275665
21
40.992172
0
LINE
8
Image
10
31.275665
20
40.992172
11
30.726210
21
42.453910
0
LINE
8
Image
10
30.726210
20
42.453910
11
30.321574
21
43.968013
0
LINE
8
Image
10
30.321574
20
43.968013
11
30.071586
21
45.511794
0
LINE
8
Image
10
30.071586
20
45.511794
11
29.986072
21
47.062566
0
LINE
8
Image
10
29.986072
20
47.062566
11
29.986072
21
48.581979
0
LINE
8
Image
10
29.986072
20
48.581979
11
27.252049
21
48.810010
0
LINE
8
Image
10
27.252049
20
48.810010
11
23.235328
21
49.405234
0
LINE
8
Image
10
23.235328
20
49.405234
11
18.669916
21
50.503887
0
LINE
8
Image
10
18.669916
20
50.503887
11
14.037079
21
51.971688
0
LINE
8
Image
10
14.037079
20
51.971688
11
9.818084
21
53.674355
0
LINE
8
Image
10
9.818084
20
53.674355
11
8.035917
21
54.387817
0
LINE
8
Image
10
8.035917
20
54.387817
11
7.147685
21
54.537592
0
LINE
8
Image
10
7.147685
20
54.537592
11
6.970540
21
52.733879
0
LINE
8
Image
10
6.970540
20
52.733879
11
6.898007
21
48.750662
0
LINE
8
Image
10
6.898007
20
48.750662
11
7.063818
21
43.541683
0
LINE
8
Image
10
7.063818
20
43.541683
11
7.692466
21
39.254476
0
LINE
8
Image
10
7.692466
20
39.254476
11
8.521632
21
35.791128
0
LINE
8
Image
10
8.521632
20
35.791128
11
9.592004
21
32.155536
0
LINE
8
Image
10
9.592004
20
32.155536
11
10.640624
21
29.169427
0
LINE
8
Image
10
10.640624
20
29.169427
11
11.404534
21
27.654525
0
LINE
8
Image
10
11.404534
20
27.654525
11
13.354626
21
26.933920
0
LINE
8
Image
10
13.354626
20
26.933920
11
17.462477
21
25.751062
0
LINE
8
Image
10
17.462477
20
25.751062
11
28.473192
21
22.487450
0
LINE
8
Image
10
28.473192
20
22.487450
11
39.413512
21
18.632162
0
LINE
8
Image
10
39.413512
20
18.632162
11
50.049829
21
14.274123
0
LINE
8
Image
10
50.049829
20
14.274123
11
55.180984
21
11.934361
0
LINE
8
Image
10
55.180984
20
11.934361
11
60.148534
21
9.502258
0
LINE
8
Image
10
60.148534
20
9.502258
11
66.479857
21
6.362557
0
LINE
8
Image
10
66.479857
20
6.362557
11
69.317240
21
5.099147
0
LINE
8
Image
10
69.317240
20
5.099147
11
70.001290
21
5.803345
0
LINE
8
Image
10
70.001290
20
5.803345
11
71.155452
21
7.394275
0
LINE
8
Image
10
71.155452
20
7.394275
11
71.155452
21
7.394275
0
LINE
8
Image
10
76.382236
20
23.326696
11
76.494546
21
24.573778
0
LINE
8
Image
10
76.494546
20
24.573778
11
76.424657
21
24.982945
0
LINE
8
Image
10
76.424657
20
24.982945
11
76.229956
21
25.289740
0
LINE
8
Image
10
76.229956
20
25.289740
11
75.343769
21
25.717851
0
LINE
8
Image
10
75.343769
20
25.717851
11
73.591290
21
26.101383
0
LINE
8
Image
10
73.591290
20
26.101383
11
69.926616
21
27.002236
0
LINE
8
Image
10
69.926616
20
27.002236
11
64.506494
21
28.531660
0
LINE
8
Image
10
64.506494
20
28.531660
11
53.662790
21
31.935502
0
LINE
8
Image
10
53.662790
20
31.935502
11
47.456185
21
34.262217
0
LINE
8
Image
10
47.456185
20
34.262217
11
42.727215
21
36.434020
0
LINE
8
Image
10
42.727215
20
36.434020
11
40.826977
21
37.508997
0
LINE
8
Image
10
40.826977
20
37.508997
11
39.188309
21
38.601849
0
LINE
8
Image
10
39.188309
20
38.601849
11
37.775266
21
39.731443
0
LINE
8
Image
10
37.775266
20
39.731443
11
36.551901
21
40.916645
0
LINE
8
Image
10
36.551901
20
40.916645
11
35.142923
21
42.620480
0
LINE
8
Image
10
35.142923
20
42.620480
11
34.207616
21
44.261666
0
LINE
8
Image
10
34.207616
20
44.261666
11
33.686875
21
45.976431
0
LINE
8
Image
10
33.686875
20
45.976431
11
33.521595
21
47.901004
0
LINE
8
Image
10
33.521595
20
47.901004
11
33.764376
21
50.413780
0
LINE
8
Image
10
33.764376
20
50.413780
11
34.084557
21
51.475361
0
LINE
8
Image
10
34.084557
20
51.475361
11
34.545605
21
52.420999
0
LINE
8
Image
10
34.545605
20
52.420999
11
35.153775
21
53.261140
0
LINE
8
Image
10
35.153775
20
53.261140
11
35.915322
21
54.006230
0
LINE
8
Image
10
35.915322
20
54.006230
11
36.836499
21
54.666717
0
LINE
8
Image
10
36.836499
20
54.666717
11
37.923562
21
55.253045
0
LINE
8
Image
10
37.923562
20
55.253045
11
39.745280
21
55.887250
0
LINE
8
Image
10
39.745280
20
55.887250
11
41.729537
21
56.039536
0
LINE
8
Image
10
41.729537
20
56.039536
11
44.193582
21
55.696284
0
LINE
8
Image
10
44.193582
20
55.696284
11
47.454662
21
54.843873
0
LINE
8
Image
10
47.454662
20
54.843873
11
54.207128
21
52.958536
0
LINE
8
Image
10
54.207128
20
52.958536
11
59.903760
21
51.629320
0
LINE
8
Image
10
59.903760
20
51.629320
11
65.009568
21
50.761657
0
LINE
8
Image
10
65.009568
20
50.761657
11
69.989556
21
50.260981
0
LINE
8
Image
10
69.989556
20
50.260981
11
73.480589
21
50.020972
0
LINE
8
Image
10
73.480589
20
50.020972
11
73.249073
21
51.178555
0
LINE
8
Image
10
73.249073
20
51.178555
11
72.900750
21
52.452942
0
LINE
8
Image
10
72.900750
20
52.452942
11
69.817625
21
52.934666
0
LINE
8
Image
10
69.817625
20
52.934666
11
66.448066
21
53.458408
0
LINE
8
Image
10
66.448066
20
53.458408
11
62.853842
21
54.280364
0
LINE
8
Image
10
62.853842
20
54.280364
11
58.472155
21
55.547980
0
LINE
8
Image
10
58.472155
20
55.547980
11
52.740210
21
57.408700
0
LINE
8
Image
10
52.740210
20
57.408700
11
44.626331
21
60.123410
0
LINE
8
Image
10
44.626331
20
60.123410
11
40.745782
21
60.136048
0
LINE
8
Image
10
40.745782
20
60.136048
11
37.259858
21
60.002631
0
LINE
8
Image
10
37.259858
20
60.002631
11
36.176797
21
59.764316
0
LINE
8
Image
10
36.176797
20
59.764316
11
35.153246
21
59.358720
0
LINE
8
Image
10
35.153246
20
59.358720
11
34.040607
21
58.897913
0
LINE
8
Image
10
34.040607
20
58.897913
11
33.760033
21
58.866885
0
LINE
8
Image
10
33.760033
20
58.866885
11
33.662465
21
58.997448
0
LINE
8
Image
10
33.662465
20
58.997448
11
34.013882
21
59.829374
0
LINE
8
Image
10
34.013882
20
59.829374
11
35.089924
21
61.565740
0
LINE
8
Image
10
35.089924
20
61.565740
11
36.336064
21
63.785725
0
LINE
8
Image
10
36.336064
20
63.785725
11
35.435064
21
64.116020
0
LINE
8
Image
10
35.435064
20
64.116020
11
33.268830
21
64.528240
0
LINE
8
Image
10
33.268830
20
64.528240
11
28.578554
21
65.483531
0
LINE
8
Image
10
28.578554
20
65.483531
11
23.824138
21
66.850894
0
LINE
8
Image
10
23.824138
20
66.850894
11
19.597933
21
68.435614
0
LINE
8
Image
10
19.597933
20
68.435614
11
17.868019
21
69.248634
0
LINE
8
Image
10
17.868019
20
69.248634
11
16.492288
21
70.042975
0
LINE
8
Image
10
16.492288
20
70.042975
11
15.696722
21
70.548849
0
LINE
8
Image
10
15.696722
20
70.548849
11
15.191077
21
70.739582
0
LINE
8
Image
10
15.191077
20
70.739582
11
14.759327
21
70.635038
0
LINE
8
Image
10
14.759327
20
70.635038
11
14.185445
21
70.255079
0
LINE
8
Image
10
14.185445
20
70.255079
11
12.595567
21
68.872296
0
LINE
8
Image
10
12.595567
20
68.872296
11
12.263235
21
68.453523
0
LINE
8
Image
10
12.263235
20
68.453523
11
12.234780
21
68.117440
0
LINE
8
Image
10
12.234780
20
68.117440
11
12.575285
21
67.708701
0
LINE
8
Image
10
12.575285
20
67.708701
11
13.349834
21
67.071961
0
LINE
8
Image
10
13.349834
20
67.071961
11
15.617562
21
65.550761
0
LINE
8
Image
10
15.617562
20
65.550761
11
18.413941
21
64.294158
0
LINE
8
Image
10
18.413941
20
64.294158
11
22.210673
21
63.128879
0
LINE
8
Image
10
22.210673
20
63.128879
11
27.479463
21
61.881649
0
LINE
8
Image
10
27.479463
20
61.881649
11
28.059234
21
61.647535
0
LINE
8
Image
10
28.059234
20
61.647535
11
27.902966
21
61.275683
0
LINE
8
Image
10
27.902966
20
61.275683
11
27.351717
21
61.085380
0
LINE
8
Image
10
27.351717
20
61.085380
11
26.098663
21
60.954337
0
LINE
8
Image
10
26.098663
20
60.954337
11
21.237365
21
60.854240
0
LINE
8
Image
10
21.237365
20
60.854240
11
15.491148
21
60.995582
0
LINE
8
Image
10
15.491148
20
60.995582
11
13.903073
21
61.289732
0
LINE
8
Image
10
13.903073
20
61.289732
11
12.213126
21
61.837288
0
LINE
8
Image
10
12.213126
20
61.837288
11
9.324529
21
62.711649
0
LINE
8
Image
10
9.324529
20
62.711649
11
8.291780
21
59.403964
0
LINE
8
Image
10
8.291780
20
59.403964
11
7.408324
21
55.861139
0
LINE
8
Image
10
7.408324
20
55.861139
11
7.571462
21
55.578191
0
LINE
8
Image
10
7.571462
20
55.578191
11
8.046400
21
55.212901
0
LINE
8
Image
10
8.046400
20
55.212901
11
9.844812
21
54.274840
0
LINE
8
Image
10
9.844812
20
54.274840
11
12.629838
21
53.126053
0
LINE
8
Image
10
12.629838
20
53.126053
11
16.227757
21
51.845637
0
LINE
8
Image
10
16.227757
20
51.845637
11
19.161535
21
50.950387
0
LINE
8
Image
10
19.161535
20
50.950387
11
22.129873
21
50.217100
0
LINE
8
Image
10
22.129873
20
50.217100
11
25.154178
21
49.641099
0
LINE
8
Image
10
25.154178
20
49.641099
11
28.255861
21
49.217706
0
LINE
8
Image
10
28.255861
20
49.217706
11
30.229812
21
48.999055
0
LINE
8
Image
10
30.229812
20
48.999055
11
30.617614
21
45.849382
0
LINE
8
Image
10
30.617614
20
45.849382
11
30.910352
21
43.985673
0
LINE
8
Image
10
30.910352
20
43.985673
11
31.313691
21
42.330972
0
LINE
8
Image
10
31.313691
20
42.330972
11
31.846108
21
40.854505
0
LINE
8
Image
10
31.846108
20
40.854505
11
32.526084
21
39.525497
0
LINE
8
Image
10
32.526084
20
39.525497
11
33.372097
21
38.313174
0
LINE
8
Image
10
33.372097
20
38.313174
11
34.402626
21
37.186761
0
LINE
8
Image
10
34.402626
20
37.186761
11
35.636152
21
36.115482
0
LINE
8
Image
10
35.636152
20
36.115482
11
37.091153
21
35.068564
0
LINE
8
Image
10
37.091153
20
35.068564
11
40.374144
21
33.178352
0
LINE
8
Image
10
40.374144
20
33.178352
11
44.734159
21
31.114515
0
LINE
8
Image
10
44.734159
20
31.114515
11
49.890490
21
29.000298
0
LINE
8
Image
10
49.890490
20
29.000298
11
55.562427
21
26.958942
0
LINE
8
Image
10
55.562427
20
26.958942
11
61.166860
21
25.195977
0
LINE
8
Image
10
61.166860
20
25.195977
11
67.307047
21
23.437875
0
LINE
8
Image
10
67.307047
20
23.437875
11
72.527580
21
22.083385
0
LINE
8
Image
10
72.527580
20
22.083385
11
75.373048
21
21.531259
0
LINE
8
Image
10
75.373048
20
21.531259
11
75.775071
21
21.590429
0
LINE
8
Image
10
75.775071
20
21.590429
11
76.041737
21
21.846165
0
LINE
8
Image
10
76.041737
20
21.846165
11
76.382236
21
23.326696
0
LINE
8
Image
10
76.382236
20
23.326696
11
76.382236
21
23.326696
0
LINE
8
Image
10
73.936203
20
28.471502
11
74.114165
21
32.067951
0
LINE
8
Image
10
74.114165
20
32.067951
11
73.883817
21
36.926988
0
LINE
8
Image
10
73.883817
20
36.926988
11
73.309965
21
42.229725
0
LINE
8
Image
10
73.309965
20
42.229725
11
72.457417
21
47.157277
0
LINE
8
Image
10
72.457417
20
47.157277
11
71.907693
21
49.688071
0
LINE
8
Image
10
71.907693
20
49.688071
11
69.254648
21
49.803107
0
LINE
8
Image
10
69.254648
20
49.803107
11
66.601605
21
49.918142
0
LINE
8
Image
10
66.601605
20
49.918142
11
66.802908
21
48.507034
0
LINE
8
Image
10
66.802908
20
48.507034
11
67.537113
21
43.593457
0
LINE
8
Image
10
67.537113
20
43.593457
11
68.037725
21
39.323891
0
LINE
8
Image
10
68.037725
20
39.323891
11
68.492998
21
33.977122
0
LINE
8
Image
10
68.492998
20
33.977122
11
68.915984
21
27.863257
0
LINE
8
Image
10
68.915984
20
27.863257
11
70.353085
21
27.494627
0
LINE
8
Image
10
70.353085
20
27.494627
11
72.142963
21
26.996465
0
LINE
8
Image
10
72.142963
20
26.996465
11
72.893313
21
26.813572
0
LINE
8
Image
10
72.893313
20
26.813572
11
73.396671
21
26.960912
0
LINE
8
Image
10
73.396671
20
26.960912
11
73.721485
21
27.494788
0
LINE
8
Image
10
73.721485
20
27.494788
11
73.936203
21
28.471502
0
LINE
8
Image
10
73.936203
20
28.471502
11
73.936203
21
28.471502
0
LINE
8
Image
10
68.084818
20
30.779973
11
67.975232
21
33.918322
0
LINE
8
Image
10
67.975232
20
33.918322
11
67.674816
21
37.694055
0
LINE
8
Image
10
67.674816
20
37.694055
11
66.657245
21
45.547617
0
LINE
8
Image
10
66.657245
20
45.547617
11
65.969360
21
49.869139
0
LINE
8
Image
10
65.969360
20
49.869139
11
65.724162
21
50.028323
0
LINE
8
Image
10
65.724162
20
50.028323
11
65.134643
21
50.094532
0
LINE
8
Image
10
65.134643
20
50.094532
11
64.659397
21
50.062762
0
LINE
8
Image
10
64.659397
20
50.062762
11
64.462073
21
49.840774
0
LINE
8
Image
10
64.462073
20
49.840774
11
64.761314
21
48.066061
0
LINE
8
Image
10
64.761314
20
48.066061
11
65.361388
21
44.962530
0
LINE
8
Image
10
65.361388
20
44.962530
11
65.877246
21
41.380332
0
LINE
8
Image
10
65.877246
20
41.380332
11
66.522686
21
33.857867
0
LINE
8
Image
10
66.522686
20
33.857867
11
66.846565
21
29.013942
0
LINE
8
Image
10
66.846565
20
29.013942
11
67.107234
21
28.343080
0
LINE
8
Image
10
67.107234
20
28.343080
11
67.545786
21
28.222339
0
LINE
8
Image
10
67.545786
20
28.222339
11
67.813900
21
28.331988
0
LINE
8
Image
10
67.813900
20
28.331988
11
67.979003
21
28.727872
0
LINE
8
Image
10
67.979003
20
28.727872
11
68.084818
21
30.779973
0
LINE
8
Image
10
68.084818
20
30.779973
11
68.084818
21
30.779973
0
LINE
8
Image
10
66.086132
20
32.184752
11
65.517260
21
39.652282
0
LINE
8
Image
10
65.517260
20
39.652282
11
64.526767
21
46.438375
0
LINE
8
Image
10
64.526767
20
46.438375
11
63.791406
21
50.366933
0
LINE
8
Image
10
63.791406
20
50.366933
11
62.363846
21
50.595210
0
LINE
8
Image
10
62.363846
20
50.595210
11
60.799070
21
50.686274
0
LINE
8
Image
10
60.799070
20
50.686274
11
61.363886
21
46.245971
0
LINE
8
Image
10
61.363886
20
46.245971
11
62.284103
21
38.959207
0
LINE
8
Image
10
62.284103
20
38.959207
11
62.886908
21
31.230512
0
LINE
8
Image
10
62.886908
20
31.230512
11
62.960457
21
30.222668
0
LINE
8
Image
10
62.960457
20
30.222668
11
63.145902
21
29.654368
0
LINE
8
Image
10
63.145902
20
29.654368
11
63.575589
21
29.334531
0
LINE
8
Image
10
63.575589
20
29.334531
11
64.381862
21
29.072073
0
LINE
8
Image
10
64.381862
20
29.072073
11
66.013623
21
28.791592
0
LINE
8
Image
10
66.013623
20
28.791592
11
66.125942
21
29.839335
0
LINE
8
Image
10
66.125942
20
29.839335
11
66.086132
21
32.184752
0
LINE
8
Image
10
66.086132
20
32.184752
11
66.086132
21
32.184752
0
LINE
8
Image
10
62.076924
20
35.134189
11
61.335399
21
42.724596
0
LINE
8
Image
10
61.335399
20
42.724596
11
60.313761
21
49.216984
0
LINE
8
Image
10
60.313761
20
49.216984
11
59.956916
21
50.985263
0
LINE
8
Image
10
59.956916
20
50.985263
11
57.406894
21
51.562734
0
LINE
8
Image
10
57.406894
20
51.562734
11
54.753176
21
52.042606
0
LINE
8
Image
10
54.753176
20
52.042606
11
55.352375
21
48.462134
0
LINE
8
Image
10
55.352375
20
48.462134
11
56.448196
21
41.881401
0
LINE
8
Image
10
56.448196
20
41.881401
11
57.088674
21
35.073162
0
LINE
8
Image
10
57.088674
20
35.073162
11
57.326315
21
31.247771
0
LINE
8
Image
10
57.326315
20
31.247771
11
59.795755
21
30.475101
0
LINE
8
Image
10
59.795755
20
30.475101
11
62.356689
21
29.788829
0
LINE
8
Image
10
62.356689
20
29.788829
11
62.076924
21
35.134189
0
LINE
8
Image
10
62.076924
20
35.134189
11
62.076924
21
35.134189
0
LINE
8
Image
10
56.647689
20
33.778582
11
56.259929
21
38.452880
0
LINE
8
Image
10
56.259929
20
38.452880
11
55.551997
21
44.260158
0
LINE
8
Image
10
55.551997
20
44.260158
11
54.471909
21
50.130277
0
LINE
8
Image
10
54.471909
20
50.130277
11
53.935149
21
52.490230
0
LINE
8
Image
10
53.935149
20
52.490230
11
52.279347
21
52.898770
0
LINE
8
Image
10
52.279347
20
52.898770
11
47.173490
21
54.384779
0
LINE
8
Image
10
47.173490
20
54.384779
11
43.881599
21
55.233690
0
LINE
8
Image
10
43.881599
20
55.233690
11
42.569615
21
55.354395
0
LINE
8
Image
10
42.569615
20
55.354395
11
41.110311
21
55.330293
0
LINE
8
Image
10
41.110311
20
55.330293
11
38.702254
21
55.030227
0
LINE
8
Image
10
38.702254
20
55.030227
11
37.869261
21
54.690974
0
LINE
8
Image
10
37.869261
20
54.690974
11
37.007073
21
54.145739
0
LINE
8
Image
10
37.007073
20
54.145739
11
35.661371
21
52.960324
0
LINE
8
Image
10
35.661371
20
52.960324
11
34.741382
21
51.578572
0
LINE
8
Image
10
34.741382
20
51.578572
11
34.217461
21
49.938435
0
LINE
8
Image
10
34.217461
20
49.938435
11
34.059960
21
47.977868
0
LINE
8
Image
10
34.059960
20
47.977868
11
34.204175
21
46.381266
0
LINE
8
Image
10
34.204175
20
46.381266
11
34.616648
21
44.859737
0
LINE
8
Image
10
34.616648
20
44.859737
11
35.303406
21
43.405859
0
LINE
8
Image
10
35.303406
20
43.405859
11
36.270476
21
42.012208
0
LINE
8
Image
10
36.270476
20
42.012208
11
37.523886
21
40.671362
0
LINE
8
Image
10
37.523886
20
40.671362
11
39.069662
21
39.375899
0
LINE
8
Image
10
39.069662
20
39.375899
11
40.913833
21
38.118394
0
LINE
8
Image
10
40.913833
20
38.118394
11
43.062426
21
36.891427
0
LINE
8
Image
10
43.062426
20
36.891427
11
46.293125
21
35.384635
0
LINE
8
Image
10
46.293125
20
35.384635
11
50.377152
21
33.709030
0
LINE
8
Image
10
50.377152
20
33.709030
11
54.087535
21
32.343360
0
LINE
8
Image
10
54.087535
20
32.343360
11
56.197307
21
31.766372
0
LINE
8
Image
10
56.197307
20
31.766372
11
56.526962
21
31.822976
0
LINE
8
Image
10
56.526962
20
31.822976
11
56.693678
21
32.095754
0
LINE
8
Image
10
56.693678
20
32.095754
11
56.647689
21
33.778582
0
LINE
8
Image
10
56.647689
20
33.778582
11
56.647689
21
33.778582
0
LINE
8
Image
10
39.263604
20
44.062383
11
38.508742
21
44.637111
0
LINE
8
Image
10
38.508742
20
44.637111
11
37.909607
21
45.304021
0
LINE
8
Image
10
37.909607
20
45.304021
11
37.470856
21
46.043188
0
LINE
8
Image
10
37.470856
20
46.043188
11
37.197150
21
46.834683
0
LINE
8
Image
10
37.197150
20
46.834683
11
37.093148
21
47.658581
0
LINE
8
Image
10
37.093148
20
47.658581
11
37.163509
21
48.494953
0
LINE
8
Image
10
37.163509
20
48.494953
11
37.412893
21
49.323874
0
LINE
8
Image
10
37.412893
20
49.323874
11
37.845958
21
50.125416
0
LINE
8
Image
10
37.845958
20
50.125416
11
38.623677
21
51.068784
0
LINE
8
Image
10
38.623677
20
51.068784
11
39.503965
21
51.713586
0
LINE
8
Image
10
39.503965
20
51.713586
11
40.533114
21
52.084448
0
LINE
8
Image
10
40.533114
20
52.084448
11
41.757420
21
52.205994
0
LINE
8
Image
10
41.757420
20
52.205994
11
42.498488
21
52.152437
0
LINE
8
Image
10
42.498488
20
52.152437
11
43.122840
21
51.946280
0
LINE
8
Image
10
43.122840
20
51.946280
11
44.491446
21
50.841590
0
LINE
8
Image
10
44.491446
20
50.841590
11
45.210322
21
50.068174
0
LINE
8
Image
10
45.210322
20
50.068174
11
45.625027
21
49.426388
0
LINE
8
Image
10
45.625027
20
49.426388
11
45.815343
21
48.741256
0
LINE
8
Image
10
45.815343
20
48.741256
11
45.861052
21
47.837803
0
LINE
8
Image
10
45.861052
20
47.837803
11
45.693136
21
46.632006
0
LINE
8
Image
10
45.693136
20
46.632006
11
45.226433
21
45.572286
0
LINE
8
Image
10
45.226433
20
45.572286
11
44.516514
21
44.690443
0
LINE
8
Image
10
44.516514
20
44.690443
11
43.618947
21
44.018276
0
LINE
8
Image
10
43.618947
20
44.018276
11
42.589303
21
43.587587
0
LINE
8
Image
10
42.589303
20
43.587587
11
41.483151
21
43.430175
0
LINE
8
Image
10
41.483151
20
43.430175
11
40.356062
21
43.577841
0
LINE
8
Image
10
40.356062
20
43.577841
11
39.263604
21
44.062383
0
LINE
8
Image
10
39.263604
20
44.062383
11
39.263604
21
44.062383
0
LINE
8
Image
10
44.148822
20
45.026008
11
44.731749
21
45.837715
0
LINE
8
Image
10
44.731749
20
45.837715
11
45.206461
21
46.950526
0
LINE
8
Image
10
45.206461
20
46.950526
11
45.411225
21
48.250021
0
LINE
8
Image
10
45.411225
20
48.250021
11
44.929011
21
49.450727
0
LINE
8
Image
10
44.929011
20
49.450727
11
44.023630
21
50.584475
0
LINE
8
Image
10
44.023630
20
50.584475
11
42.929938
21
51.291646
0
LINE
8
Image
10
42.929938
20
51.291646
11
41.743184
21
51.594116
0
LINE
8
Image
10
41.743184
20
51.594116
11
40.558616
21
51.513755
0
LINE
8
Image
10
40.558616
20
51.513755
11
39.471482
21
51.072439
0
LINE
8
Image
10
39.471482
20
51.072439
11
38.577031
21
50.292038
0
LINE
8
Image
10
38.577031
20
50.292038
11
37.970512
21
49.194427
0
LINE
8
Image
10
37.970512
20
49.194427
11
37.747173
21
47.801478
0
LINE
8
Image
10
37.747173
20
47.801478
11
37.918550
21
46.616794
0
LINE
8
Image
10
37.918550
20
46.616794
11
38.391911
21
45.618436
0
LINE
8
Image
10
38.391911
20
45.618436
11
39.106095
21
44.832919
0
LINE
8
Image
10
39.106095
20
44.832919
11
39.999945
21
44.286759
0
LINE
8
Image
10
39.999945
20
44.286759
11
41.012301
21
44.006473
0
LINE
8
Image
10
41.012301
20
44.006473
11
42.082005
21
44.018575
0
LINE
8
Image
10
42.082005
20
44.018575
11
43.147898
21
44.349581
0
LINE
8
Image
10
43.147898
20
44.349581
11
44.148822
21
45.026008
0
LINE
8
Image
10
44.148822
20
45.026008
11
44.148822
21
45.026008
0
LINE
8
Image
10
40.418202
20
46.768345
11
40.026682
21
47.300504
0
LINE
8
Image
10
40.026682
20
47.300504
11
39.863837
21
47.801478
0
LINE
8
Image
10
39.863837
20
47.801478
11
40.026682
21
48.302455
0
LINE
8
Image
10
40.026682
20
48.302455
11
40.418202
21
48.834614
0
LINE
8
Image
10
40.418202
20
48.834614
11
41.277198
21
49.331621
0
LINE
8
Image
10
41.277198
20
49.331621
11
42.128093
21
49.274722
0
LINE
8
Image
10
42.128093
20
49.274722
11
42.779200
21
48.739484
0
LINE
8
Image
10
42.779200
20
48.739484
11
43.038833
21
47.801478
0
LINE
8
Image
10
43.038833
20
47.801478
11
42.779200
21
46.863473
0
LINE
8
Image
10
42.779200
20
46.863473
11
42.128093
21
46.328237
0
LINE
8
Image
10
42.128093
20
46.328237
11
41.277198
21
46.271337
0
LINE
8
Image
10
41.277198
20
46.271337
11
40.418202
21
46.768345
0
LINE
8
Image
10
40.418202
20
46.768345
11
40.418202
21
46.768345
0
LINE
8
Image
10
42.456936
20
47.438494
11
42.446366
21
47.972071
0
LINE
8
Image
10
42.446366
20
47.972071
11
42.121315
21
48.471458
0
LINE
8
Image
10
42.121315
20
48.471458
11
41.621927
21
48.796509
0
LINE
8
Image
10
41.621927
20
48.796509
11
41.088348
21
48.807079
0
LINE
8
Image
10
41.088348
20
48.807079
11
40.760668
21
48.522482
0
LINE
8
Image
10
40.760668
20
48.522482
11
40.588852
21
48.063171
0
LINE
8
Image
10
40.588852
20
48.063171
11
40.595842
21
47.562724
0
LINE
8
Image
10
40.595842
20
47.562724
11
40.804578
21
47.154721
0
LINE
8
Image
10
40.804578
20
47.154721
11
41.212580
21
46.945985
0
LINE
8
Image
10
41.212580
20
46.945985
11
41.713026
21
46.938997
0
LINE
8
Image
10
41.713026
20
46.938997
11
42.172337
21
47.110813
0
LINE
8
Image
10
42.172337
20
47.110813
11
42.456936
21
47.438494
0
LINE
8
Image
10
42.456936
20
47.438494
11
42.456936
21
47.438494
0
LINE
8
Image
10
72.672129
20
53.937922
11
72.420423
21
55.349483
0
LINE
8
Image
10
72.420423
20
55.349483
11
71.764060
21
57.469523
0
LINE
8
Image
10
71.764060
20
57.469523
11
70.851168
21
59.871216
0
LINE
8
Image
10
70.851168
20
59.871216
11
69.829878
21
62.127734
0
LINE
8
Image
10
69.829878
20
62.127734
11
68.105482
21
65.097833
0
LINE
8
Image
10
68.105482
20
65.097833
11
66.059052
21
67.798086
0
LINE
8
Image
10
66.059052
20
67.798086
11
63.703778
21
70.219124
0
LINE
8
Image
10
63.703778
20
70.219124
11
61.052846
21
72.351578
0
LINE
8
Image
10
61.052846
20
72.351578
11
58.119446
21
74.186079
0
LINE
8
Image
10
58.119446
20
74.186079
11
54.916765
21
75.713260
0
LINE
8
Image
10
54.916765
20
75.713260
11
51.457992
21
76.923751
0
LINE
8
Image
10
51.457992
20
76.923751
11
47.756313
21
77.808185
0
LINE
8
Image
10
47.756313
20
77.808185
11
43.543673
21
78.246604
0
LINE
8
Image
10
43.543673
20
78.246604
11
38.477754
21
78.261456
0
LINE
8
Image
10
38.477754
20
78.261456
11
33.388070
21
77.882481
0
LINE
8
Image
10
33.388070
20
77.882481
11
29.104130
21
77.139423
0
LINE
8
Image
10
29.104130
20
77.139423
11
24.850764
21
75.803341
0
LINE
8
Image
10
24.850764
20
75.803341
11
20.546167
21
74.072453
0
LINE
8
Image
10
20.546167
20
74.072453
11
17.213264
21
72.402280
0
LINE
8
Image
10
17.213264
20
72.402280
11
16.230862
21
71.732311
0
LINE
8
Image
10
16.230862
20
71.732311
11
15.874979
21
71.248341
0
LINE
8
Image
10
15.874979
20
71.248341
11
16.085145
21
70.973690
0
LINE
8
Image
10
16.085145
20
70.973690
11
16.672788
21
70.571615
0
LINE
8
Image
10
16.672788
20
70.571615
11
18.723407
21
69.506183
0
LINE
8
Image
10
18.723407
20
69.506183
11
21.512621
21
68.294029
0
LINE
8
Image
10
21.512621
20
68.294029
11
24.526217
21
67.177137
0
LINE
8
Image
10
24.526217
20
67.177137
11
28.431455
21
66.095113
0
LINE
8
Image
10
28.431455
20
66.095113
11
32.696588
21
65.208266
0
LINE
8
Image
10
32.696588
20
65.208266
11
37.326467
21
64.371547
0
LINE
8
Image
10
37.326467
20
64.371547
11
36.150391
21
62.274633
0
LINE
8
Image
10
36.150391
20
62.274633
11
34.984074
21
60.148362
0
LINE
8
Image
10
34.984074
20
60.148362
11
37.030780
21
60.530386
0
LINE
8
Image
10
37.030780
20
60.530386
11
38.431364
21
60.830875
0
LINE
8
Image
10
38.431364
20
60.830875
11
39.830521
21
60.975114
0
LINE
8
Image
10
39.830521
20
60.975114
11
41.332312
21
60.944730
0
LINE
8
Image
10
41.332312
20
60.944730
11
43.040802
21
60.721352
0
LINE
8
Image
10
43.040802
20
60.721352
11
47.494132
21
59.622126
0
LINE
8
Image
10
47.494132
20
59.622126
11
54.023017
21
57.530457
0
LINE
8
Image
10
54.023017
20
57.530457
11
59.533404
21
55.781688
0
LINE
8
Image
10
59.533404
20
55.781688
11
64.299163
21
54.486584
0
LINE
8
Image
10
64.299163
20
54.486584
11
68.258399
21
53.660195
0
LINE
8
Image
10
68.258399
20
53.660195
11
71.349214
21
53.317571
0
LINE
8
Image
10
71.349214
20
53.317571
11
72.415716
21
53.408391
0
LINE
8
Image
10
72.415716
20
53.408391
11
72.617315
21
53.605249
0
LINE
8
Image
10
72.617315
20
53.605249
11
72.672129
21
53.937922
0
LINE
8
Image
10
72.672129
20
53.937922
11
72.672129
21
53.937922
0
LINE
8
Image
10
24.532885
20
61.263754
11
26.233719
21
61.496879
0
LINE
8
Image
10
26.233719
20
61.496879
11
22.553653
21
62.425362
0
LINE
8
Image
10
22.553653
20
62.425362
11
19.555592
21
63.285516
0
LINE
8
Image
10
19.555592
20
63.285516
11
17.025657
21
64.240950
0
LINE
8
Image
10
17.025657
20
64.240950
11
14.915871
21
65.312625
0
LINE
8
Image
10
14.915871
20
65.312625
11
13.178258
21
66.521501
0
LINE
8
Image
10
13.178258
20
66.521501
11
11.666964
21
67.759893
0
LINE
8
Image
10
11.666964
20
67.759893
11
10.772364
21
65.994487
0
LINE
8
Image
10
10.772364
20
65.994487
11
9.877765
21
63.736114
0
LINE
8
Image
10
9.877765
20
63.736114
11
10.052605
21
63.439058
0
LINE
8
Image
10
10.052605
20
63.439058
11
10.541788
21
63.102482
0
LINE
8
Image
10
10.541788
20
63.102482
11
12.251154
21
62.383167
0
LINE
8
Image
10
12.251154
20
62.383167
11
14.581810
21
61.722969
0
LINE
8
Image
10
14.581810
20
61.722969
11
17.109700
21
61.266683
0
LINE
8
Image
10
17.109700
20
61.266683
11
20.898730
21
61.087382
0
LINE
8
Image
10
20.898730
20
61.087382
11
24.532885
21
61.263754
0
LINE
8
Image
10
24.532885
20
61.263754
11
24.532885
21
61.263754
 0 
ENDSEC
 0 
EOF