999
"DXF R12 Output" (www.mydxf.blogspot.com)
 0 
SECTION
 2 
HEADER
 9 
$ACADVER
 1 
AC1009
 9 
$EXTMIN
 10 
 0 
 20 
 0 
 9 
$EXTMAX
 10 
 8.5 
 20 
 11 
 0 
ENDSEC
 0 
SECTION
 2 
ENTITIES
0
LINE
8
Image
10
18.135871
20
6.749450
11
17.814509
21
7.350402
0
LINE
8
Image
10
17.814509
20
7.350402
11
17.694899
21
8.664875
0
LINE
8
Image
10
17.694899
20
8.664875
11
17.844820
21
9.886847
0
LINE
8
Image
10
17.844820
20
9.886847
11
18.385161
21
11.716869
0
LINE
8
Image
10
18.385161
20
11.716869
11
21.180573
21
18.777825
0
LINE
8
Image
10
21.180573
20
18.777825
11
24.432506
21
26.950904
0
LINE
8
Image
10
24.432506
20
26.950904
11
27.356207
21
34.839786
0
LINE
8
Image
10
27.356207
20
34.839786
11
29.570438
21
41.522324
0
LINE
8
Image
10
29.570438
20
41.522324
11
29.756430
21
42.767866
0
LINE
8
Image
10
29.756430
20
42.767866
11
29.549227
21
43.487260
0
LINE
8
Image
10
29.549227
20
43.487260
11
28.701441
21
45.516718
0
LINE
8
Image
10
28.701441
20
45.516718
11
27.633489
21
48.551244
0
LINE
8
Image
10
27.633489
20
48.551244
11
25.963976
21
54.252010
0
LINE
8
Image
10
25.963976
20
54.252010
11
25.605218
21
56.743300
0
LINE
8
Image
10
25.605218
20
56.743300
11
25.456000
21
59.356734
0
LINE
8
Image
10
25.456000
20
59.356734
11
25.391280
21
61.000070
0
LINE
8
Image
10
25.391280
20
61.000070
11
25.077975
21
62.625836
0
LINE
8
Image
10
25.077975
20
62.625836
11
24.337369
21
64.894417
0
LINE
8
Image
10
24.337369
20
64.894417
11
22.990745
21
68.466195
0
LINE
8
Image
10
22.990745
20
68.466195
11
21.153520
21
73.651918
0
LINE
8
Image
10
21.153520
20
73.651918
11
20.198211
21
77.119786
0
LINE
8
Image
10
20.198211
20
77.119786
11
19.799433
21
79.098590
0
LINE
8
Image
10
19.799433
20
79.098590
11
19.300251
21
80.704227
0
LINE
8
Image
10
19.300251
20
80.704227
11
18.740659
21
82.707733
0
LINE
8
Image
10
18.740659
20
82.707733
11
18.196636
21
85.643111
0
LINE
8
Image
10
18.196636
20
85.643111
11
17.705394
21
88.671535
0
LINE
8
Image
10
17.705394
20
88.671535
11
17.236500
21
90.713125
0
LINE
8
Image
10
17.236500
20
90.713125
11
16.675179
21
92.156090
0
LINE
8
Image
10
16.675179
20
92.156090
11
15.906659
21
93.388638
0
LINE
8
Image
10
15.906659
20
93.388638
11
15.041906
21
94.911026
0
LINE
8
Image
10
15.041906
20
94.911026
11
14.260833
21
96.959781
0
LINE
8
Image
10
14.260833
20
96.959781
11
13.576642
21
99.493617
0
LINE
8
Image
10
13.576642
20
99.493617
11
13.002535
21
102.471246
0
LINE
8
Image
10
13.002535
20
102.471246
11
12.380040
21
105.164579
0
LINE
8
Image
10
12.380040
20
105.164579
11
11.542325
21
107.382044
0
LINE
8
Image
10
11.542325
20
107.382044
11
10.903588
21
108.944064
0
LINE
8
Image
10
10.903588
20
108.944064
11
10.756089
21
110.303674
0
LINE
8
Image
10
10.756089
20
110.303674
11
11.113990
21
111.642531
0
LINE
8
Image
10
11.113990
20
111.642531
11
11.991455
21
113.142294
0
LINE
8
Image
10
11.991455
20
113.142294
11
12.519753
21
114.000150
0
LINE
8
Image
10
12.519753
20
114.000150
11
12.873475
21
114.866028
0
LINE
8
Image
10
12.873475
20
114.866028
11
13.258181
21
117.278086
0
LINE
8
Image
10
13.258181
20
117.278086
11
13.514721
21
119.262663
0
LINE
8
Image
10
13.514721
20
119.262663
11
13.942168
21
121.217612
0
LINE
8
Image
10
13.942168
20
121.217612
11
14.533787
21
123.135214
0
LINE
8
Image
10
14.533787
20
123.135214
11
15.282840
21
125.007752
0
LINE
8
Image
10
15.282840
20
125.007752
11
16.182589
21
126.827508
0
LINE
8
Image
10
16.182589
20
126.827508
11
17.226298
21
128.586764
0
LINE
8
Image
10
17.226298
20
128.586764
11
18.407230
21
130.277801
0
LINE
8
Image
10
18.407230
20
130.277801
11
19.718648
21
131.892901
0
LINE
8
Image
10
19.718648
20
131.892901
11
22.705994
21
134.864420
0
LINE
8
Image
10
22.705994
20
134.864420
11
26.134439
21
137.439577
0
LINE
8
Image
10
26.134439
20
137.439577
11
27.997232
21
138.559224
0
LINE
8
Image
10
27.997232
20
138.559224
11
29.950088
21
139.556627
0
LINE
8
Image
10
29.950088
20
139.556627
11
31.986271
21
140.424066
0
LINE
8
Image
10
31.986271
20
140.424066
11
34.099044
21
141.153825
0
LINE
8
Image
10
34.099044
20
141.153825
11
35.489540
21
141.461540
0
LINE
8
Image
10
35.489540
20
141.461540
11
37.276413
21
141.679970
0
LINE
8
Image
10
37.276413
20
141.679970
11
41.535498
21
141.849841
0
LINE
8
Image
10
41.535498
20
141.849841
11
45.868714
21
141.665172
0
LINE
8
Image
10
45.868714
20
141.665172
11
49.268471
21
141.127700
0
LINE
8
Image
10
49.268471
20
141.127700
11
53.107266
21
139.811817
0
LINE
8
Image
10
53.107266
20
139.811817
11
56.583331
21
138.055541
0
LINE
8
Image
10
56.583331
20
138.055541
11
59.774387
21
135.812248
0
LINE
8
Image
10
59.774387
20
135.812248
11
62.758156
21
133.035313
0
LINE
8
Image
10
62.758156
20
133.035313
11
64.231682
21
131.370337
0
LINE
8
Image
10
64.231682
20
131.370337
11
65.554158
21
129.636993
0
LINE
8
Image
10
65.554158
20
129.636993
11
66.725443
21
127.835564
0
LINE
8
Image
10
66.725443
20
127.835564
11
67.745396
21
125.966334
0
LINE
8
Image
10
67.745396
20
125.966334
11
68.613878
21
124.029585
0
LINE
8
Image
10
68.613878
20
124.029585
11
69.330748
21
122.025601
0
LINE
8
Image
10
69.330748
20
122.025601
11
69.895866
21
119.954665
0
LINE
8
Image
10
69.895866
20
119.954665
11
70.309091
21
117.817060
0
LINE
8
Image
10
70.309091
20
117.817060
11
70.835457
21
115.614147
0
LINE
8
Image
10
70.835457
20
115.614147
11
71.710436
21
114.062132
0
LINE
8
Image
10
71.710436
20
114.062132
11
72.388384
21
112.920551
0
LINE
8
Image
10
72.388384
20
112.920551
11
72.697119
21
111.670926
0
LINE
8
Image
10
72.697119
20
111.670926
11
72.637266
21
110.306681
0
LINE
8
Image
10
72.637266
20
110.306681
11
72.209453
21
108.821240
0
LINE
8
Image
10
72.209453
20
108.821240
11
69.603313
21
101.893137
0
LINE
8
Image
10
69.603313
20
101.893137
11
65.897971
21
92.720928
0
LINE
8
Image
10
65.897971
20
92.720928
11
64.515564
21
89.376070
0
LINE
8
Image
10
64.515564
20
89.376070
11
63.389020
21
85.852780
0
LINE
8
Image
10
63.389020
20
85.852780
11
62.402027
21
81.730299
0
LINE
8
Image
10
62.402027
20
81.730299
11
61.438273
21
76.587869
0
LINE
8
Image
10
61.438273
20
76.587869
11
60.621994
21
72.193519
0
LINE
8
Image
10
60.621994
20
72.193519
11
59.841506
21
68.940094
0
LINE
8
Image
10
59.841506
20
68.940094
11
58.982926
21
66.426931
0
LINE
8
Image
10
58.982926
20
66.426931
11
57.932371
21
64.253367
0
LINE
8
Image
10
57.932371
20
64.253367
11
57.394330
21
63.079734
0
LINE
8
Image
10
57.394330
20
63.079734
11
56.896542
21
61.499113
0
LINE
8
Image
10
56.896542
20
61.499113
11
55.791614
21
56.257420
0
LINE
8
Image
10
55.791614
20
56.257420
11
55.032555
21
52.516157
0
LINE
8
Image
10
55.032555
20
52.516157
11
54.182270
21
49.183081
0
LINE
8
Image
10
54.182270
20
49.183081
11
53.163986
21
45.990055
0
LINE
8
Image
10
53.163986
20
45.990055
11
51.900929
21
42.668939
0
LINE
8
Image
10
51.900929
20
42.668939
11
51.738502
21
41.927362
0
LINE
8
Image
10
51.738502
20
41.927362
11
52.024415
21
40.816894
0
LINE
8
Image
10
52.024415
20
40.816894
11
54.888651
21
35.084226
0
LINE
8
Image
10
54.888651
20
35.084226
11
58.321720
21
28.029135
0
LINE
8
Image
10
58.321720
20
28.029135
11
61.868936
21
19.997044
0
LINE
8
Image
10
61.868936
20
19.997044
11
64.671771
21
13.017525
0
LINE
8
Image
10
64.671771
20
13.017525
11
65.525756
21
10.556722
0
LINE
8
Image
10
65.525756
20
10.556722
11
65.871698
21
9.120151
0
LINE
8
Image
10
65.871698
20
9.120151
11
65.955674
21
8.207194
0
LINE
8
Image
10
65.955674
20
8.207194
11
65.839307
21
7.536247
0
LINE
8
Image
10
65.839307
20
7.536247
11
65.179970
21
7.070721
0
LINE
8
Image
10
65.179970
20
7.070721
11
63.635034
21
6.774022
0
LINE
8
Image
10
63.635034
20
6.774022
11
60.861872
21
6.609559
0
LINE
8
Image
10
60.861872
20
6.609559
11
56.517856
21
6.540740
0
LINE
8
Image
10
56.517856
20
6.540740
11
41.746752
21
6.543668
0
LINE
8
Image
10
41.746752
20
6.543668
11
18.135871
21
6.749453
0
LINE
8
Image
10
18.135871
20
6.749453
11
18.135871
21
6.749450
0
LINE
8
Image
10
64.261506
20
8.808866
11
64.104869
21
8.965069
0
LINE
8
Image
10
64.104869
20
8.965069
11
63.522879
21
9.087660
0
LINE
8
Image
10
63.522879
20
9.087660
11
60.410354
21
9.247771
0
LINE
8
Image
10
60.410354
20
9.247771
11
41.683758
21
9.338032
0
LINE
8
Image
10
41.683758
20
9.338032
11
25.738222
21
9.251676
0
LINE
8
Image
10
25.738222
20
9.251676
11
19.106007
21
9.044052
0
LINE
8
Image
10
19.106007
20
9.044052
11
19.341192
21
8.514886
0
LINE
8
Image
10
19.341192
20
8.514886
11
26.070421
21
8.348786
0
LINE
8
Image
10
26.070421
20
8.348786
11
41.918943
21
8.279700
0
LINE
8
Image
10
41.918943
20
8.279700
11
60.449552
21
8.369983
0
LINE
8
Image
10
60.449552
20
8.369983
11
63.530228
21
8.530096
0
LINE
8
Image
10
63.530228
20
8.530096
11
64.106401
21
8.652680
0
LINE
8
Image
10
64.106401
20
8.652680
11
64.261506
21
8.808866
0
LINE
8
Image
10
64.261506
20
8.808866
11
64.261506
21
8.808866
0
LINE
8
Image
10
63.555953
20
11.447558
11
62.988484
21
13.211443
0
LINE
8
Image
10
62.988484
20
13.211443
11
62.421011
21
14.629692
0
LINE
8
Image
10
62.421011
20
14.629692
11
41.809305
21
14.629692
0
LINE
8
Image
10
41.809305
20
14.629692
11
21.197599
21
14.629692
0
LINE
8
Image
10
21.197599
20
14.629692
11
20.504580
21
13.012947
0
LINE
8
Image
10
20.504580
20
13.012947
11
19.811563
21
11.249060
0
LINE
8
Image
10
19.811563
20
11.249060
11
41.683758
21
11.101920
0
LINE
8
Image
10
41.683758
20
11.101920
11
57.886770
21
11.191507
0
LINE
8
Image
10
57.886770
20
11.191507
11
62.113516
21
11.299917
0
LINE
8
Image
10
62.113516
20
11.299917
11
63.555953
21
11.447558
0
LINE
8
Image
10
63.555953
20
11.447558
11
63.555953
21
11.447558
0
LINE
8
Image
10
61.034493
20
17.892882
11
59.903967
21
20.715101
0
LINE
8
Image
10
59.903967
20
20.715101
11
59.520719
21
21.685237
0
LINE
8
Image
10
59.520719
20
21.685237
11
41.831715
21
21.685237
0
LINE
8
Image
10
41.831715
20
21.685237
11
24.142714
21
21.685237
0
LINE
8
Image
10
24.142714
20
21.685237
11
23.035471
21
19.047459
0
LINE
8
Image
10
23.035471
20
19.047459
11
21.928227
21
16.225239
0
LINE
8
Image
10
21.928227
20
16.225239
11
27.781716
21
16.094980
0
LINE
8
Image
10
27.781716
20
16.094980
11
41.854999
21
16.040801
0
LINE
8
Image
10
41.854999
20
16.040801
11
61.781771
21
16.040801
0
LINE
8
Image
10
61.781771
20
16.040801
11
61.034493
21
17.892882
0
LINE
8
Image
10
58.442342
20
24.066484
11
57.839664
21
25.657591
0
LINE
8
Image
10
57.839664
20
25.657591
11
57.487203
21
26.631333
0
LINE
8
Image
10
57.487203
20
26.631333
11
41.807263
21
26.539534
0
LINE
8
Image
10
41.807263
20
26.539534
11
26.127322
21
26.447731
0
LINE
8
Image
10
26.127322
20
26.447731
11
25.456132
21
24.948429
0
LINE
8
Image
10
25.456132
20
24.948429
11
24.784942
21
23.449125
0
LINE
8
Image
10
24.784942
20
23.449125
11
41.738749
21
23.449125
0
LINE
8
Image
10
41.738749
20
23.449125
11
56.181615
21
23.539229
0
LINE
8
Image
10
56.181615
20
23.539229
11
58.182998
21
23.724124
0
LINE
8
Image
10
58.182998
20
23.724124
11
58.448956
21
23.872610
0
LINE
8
Image
10
58.448956
20
23.872610
11
58.442342
21
24.066484
0
LINE
8
Image
10
58.442342
20
24.066484
11
58.442342
21
24.066484
0
LINE
8
Image
10
56.147629
20
28.758110
11
53.328349
21
34.413961
0
LINE
8
Image
10
53.328349
20
34.413961
11
50.158063
21
40.146529
0
LINE
8
Image
10
50.158063
20
40.146529
11
49.683437
21
40.060665
0
LINE
8
Image
10
49.683437
20
40.060665
11
48.595659
21
39.610087
0
LINE
8
Image
10
48.595659
20
39.610087
11
45.227752
21
37.908533
0
LINE
8
Image
10
45.227752
20
37.908533
11
41.895448
21
36.166503
0
LINE
8
Image
10
41.895448
20
36.166503
11
40.418644
21
35.532742
0
LINE
8
Image
10
40.418644
20
35.532742
11
41.668492
21
36.565167
0
LINE
8
Image
10
41.668492
20
36.565167
11
44.891755
21
38.829070
0
LINE
8
Image
10
44.891755
20
38.829070
11
48.811167
21
41.682238
0
LINE
8
Image
10
48.811167
20
41.682238
11
49.734991
21
42.627198
0
LINE
8
Image
10
49.734991
20
42.627198
11
50.319924
21
43.557433
0
LINE
8
Image
10
50.319924
20
43.557433
11
51.235495
21
45.657785
0
LINE
8
Image
10
51.235495
20
45.657785
11
52.120832
21
48.203068
0
LINE
8
Image
10
52.120832
20
48.203068
11
52.900310
21
50.952753
0
LINE
8
Image
10
52.900310
20
50.952753
11
53.498304
21
53.666313
0
LINE
8
Image
10
53.498304
20
53.666313
11
54.901684
21
60.843521
0
LINE
8
Image
10
54.901684
20
60.843521
11
55.550970
21
64.484269
0
LINE
8
Image
10
55.550970
20
64.484269
11
55.948920
21
67.540577
0
LINE
8
Image
10
55.948920
20
67.540577
11
56.300022
21
70.340599
0
LINE
8
Image
10
56.300022
20
70.340599
11
56.858621
21
73.522504
0
LINE
8
Image
10
56.858621
20
73.522504
11
57.463917
21
76.267469
0
LINE
8
Image
10
57.463917
20
76.267469
11
57.955115
21
77.756672
0
LINE
8
Image
10
57.955115
20
77.756672
11
58.107216
21
77.931929
0
LINE
8
Image
10
58.107216
20
77.931929
11
58.181076
21
77.855402
0
LINE
8
Image
10
58.181076
20
77.855402
11
58.103017
21
76.894888
0
LINE
8
Image
10
58.103017
20
76.894888
11
57.409564
21
71.445337
0
LINE
8
Image
10
57.409564
20
71.445337
11
57.271054
21
68.370310
0
LINE
8
Image
10
57.271054
20
68.370310
11
57.382348
21
67.017124
0
LINE
8
Image
10
57.382348
20
67.017124
11
58.012384
21
68.948955
0
LINE
8
Image
10
58.012384
20
68.948955
11
58.765310
21
72.129289
0
LINE
8
Image
10
58.765310
20
72.129289
11
59.690814
21
77.062835
0
LINE
8
Image
10
59.690814
20
77.062835
11
60.583464
21
81.983957
0
LINE
8
Image
10
60.583464
20
81.983957
11
61.419789
21
85.781001
0
LINE
8
Image
10
61.419789
20
85.781001
11
62.284473
21
88.792942
0
LINE
8
Image
10
62.284473
20
88.792942
11
63.262197
21
91.358760
0
LINE
8
Image
10
63.262197
20
91.358760
11
66.191860
21
98.324839
0
LINE
8
Image
10
66.191860
20
98.324839
11
68.317667
21
103.882354
0
LINE
8
Image
10
68.317667
20
103.882354
11
70.306447
21
108.816012
0
LINE
8
Image
10
70.306447
20
108.816012
11
70.722153
21
109.845058
0
LINE
8
Image
10
70.722153
20
109.845058
11
70.928426
21
110.913167
0
LINE
8
Image
10
70.928426
20
110.913167
11
70.912767
21
111.886461
0
LINE
8
Image
10
70.912767
20
111.886461
11
70.662674
21
112.631064
0
LINE
8
Image
10
70.662674
20
112.631064
11
70.485737
21
112.656028
0
LINE
8
Image
10
70.485737
20
112.656028
11
70.242609
21
112.287327
0
LINE
8
Image
10
70.242609
20
112.287327
11
69.574219
21
110.402595
0
LINE
8
Image
10
69.574219
20
110.402595
11
68.877021
21
108.260173
0
LINE
8
Image
10
68.877021
20
108.260173
11
68.123852
21
106.391986
0
LINE
8
Image
10
68.123852
20
106.391986
11
67.277599
21
104.748890
0
LINE
8
Image
10
67.277599
20
104.748890
11
66.301150
21
103.281742
0
LINE
8
Image
10
66.301150
20
103.281742
11
65.157392
21
101.941400
0
LINE
8
Image
10
65.157392
20
101.941400
11
63.809212
21
100.678721
0
LINE
8
Image
10
63.809212
20
100.678721
11
62.219497
21
99.444562
0
LINE
8
Image
10
62.219497
20
99.444562
11
60.351136
21
98.189780
0
LINE
8
Image
10
60.351136
20
98.189780
11
58.583771
21
96.943679
0
LINE
8
Image
10
58.583771
20
96.943679
11
57.742104
21
96.109387
0
LINE
8
Image
10
57.742104
20
96.109387
11
57.345777
21
95.597539
0
LINE
8
Image
10
57.345777
20
95.597539
11
56.610718
21
95.021736
0
LINE
8
Image
10
56.610718
20
95.021736
11
55.789566
21
94.551754
0
LINE
8
Image
10
55.789566
20
94.551754
11
55.134956
21
94.357366
0
LINE
8
Image
10
55.134956
20
94.357366
11
55.049029
21
94.458277
0
LINE
8
Image
10
55.049029
20
94.458277
11
55.092015
21
94.733035
0
LINE
8
Image
10
55.092015
20
94.733035
11
55.514866
21
95.636239
0
LINE
8
Image
10
55.514866
20
95.636239
11
56.144719
21
97.375861
0
LINE
8
Image
10
56.144719
20
97.375861
11
56.458005
21
99.610470
0
LINE
8
Image
10
56.458005
20
99.610470
11
56.421970
21
101.815529
0
LINE
8
Image
10
56.421970
20
101.815529
11
56.262719
21
102.743061
0
LINE
8
Image
10
56.262719
20
102.743061
11
56.003855
21
103.466504
0
LINE
8
Image
10
56.003855
20
103.466504
11
55.641631
21
104.075827
0
LINE
8
Image
10
55.641631
20
104.075827
11
55.244358
21
104.413077
0
LINE
8
Image
10
55.244358
20
104.413077
11
54.648893
21
104.557391
0
LINE
8
Image
10
54.648893
20
104.557391
11
53.692093
21
104.587910
0
LINE
8
Image
10
53.692093
20
104.587910
11
52.165713
21
104.497957
0
LINE
8
Image
10
52.165713
20
104.497957
11
51.066219
21
104.202319
0
LINE
8
Image
10
51.066219
20
104.202319
11
50.307632
21
103.662331
0
LINE
8
Image
10
50.307632
20
103.662331
11
49.803974
21
102.839326
0
LINE
8
Image
10
49.803974
20
102.839326
11
49.548704
21
101.841819
0
LINE
8
Image
10
49.548704
20
101.841819
11
49.482850
21
100.626679
0
LINE
8
Image
10
49.482850
20
100.626679
11
49.841350
21
97.880266
0
LINE
8
Image
10
49.841350
20
97.880266
11
50.723388
21
95.273619
0
LINE
8
Image
10
50.723388
20
95.273619
11
51.311957
21
94.233186
0
LINE
8
Image
10
51.311957
20
94.233186
11
51.972877
21
93.480268
0
LINE
8
Image
10
51.972877
20
93.480268
11
53.070450
21
92.865604
0
LINE
8
Image
10
53.070450
20
92.865604
11
54.422359
21
92.596176
0
LINE
8
Image
10
54.422359
20
92.596176
11
55.915500
21
92.679388
0
LINE
8
Image
10
55.915500
20
92.679388
11
57.436762
21
93.122645
0
LINE
8
Image
10
57.436762
20
93.122645
11
58.784672
21
93.620324
0
LINE
8
Image
10
58.784672
20
93.620324
11
58.912747
21
93.554774
0
LINE
8
Image
10
58.912747
20
93.554774
11
58.790343
21
93.293994
0
LINE
8
Image
10
58.790343
20
93.293994
11
58.117618
21
92.720269
0
LINE
8
Image
10
58.117618
20
92.720269
11
56.968063
21
92.148878
0
LINE
8
Image
10
56.968063
20
92.148878
11
55.659356
21
91.710334
0
LINE
8
Image
10
55.659356
20
91.710334
11
54.509175
21
91.535149
0
LINE
8
Image
10
54.509175
20
91.535149
11
53.108899
21
91.735653
0
LINE
8
Image
10
53.108899
20
91.735653
11
51.568429
21
92.365481
0
LINE
8
Image
10
51.568429
20
92.365481
11
49.806753
21
93.467110
0
LINE
8
Image
10
49.806753
20
93.467110
11
47.742862
21
95.083020
0
LINE
8
Image
10
47.742862
20
95.083020
11
45.355002
21
97.382570
0
LINE
8
Image
10
45.355002
20
97.382570
11
42.541378
21
100.522224
0
LINE
8
Image
10
42.541378
20
100.522224
11
39.738948
21
103.988043
0
LINE
8
Image
10
39.738948
20
103.988043
11
37.384668
21
107.266088
0
LINE
8
Image
10
37.384668
20
107.266088
11
36.523503
21
108.650226
0
LINE
8
Image
10
36.523503
20
108.650226
11
35.988005
21
109.791320
0
LINE
8
Image
10
35.988005
20
109.791320
11
35.657661
21
111.019080
0
LINE
8
Image
10
35.657661
20
111.019080
11
35.411958
21
112.663218
0
LINE
8
Image
10
35.411958
20
112.663218
11
34.921513
21
115.297888
0
LINE
8
Image
10
34.921513
20
115.297888
11
34.543579
21
116.037100
0
LINE
8
Image
10
34.543579
20
116.037100
11
33.965747
21
116.702067
0
LINE
8
Image
10
33.965747
20
116.702067
11
33.152028
21
117.412167
0
LINE
8
Image
10
33.152028
20
117.412167
11
32.710566
21
117.604504
0
LINE
8
Image
10
32.710566
20
117.604504
11
32.299909
21
115.434749
0
LINE
8
Image
10
32.299909
20
115.434749
11
32.211308
21
114.222305
0
LINE
8
Image
10
32.211308
20
114.222305
11
32.392055
21
113.118630
0
LINE
8
Image
10
32.392055
20
113.118630
11
33.002578
21
111.590035
0
LINE
8
Image
10
33.002578
20
111.590035
11
34.203306
21
109.102833
0
LINE
8
Image
10
34.203306
20
109.102833
11
36.579744
21
103.960498
0
LINE
8
Image
10
36.579744
20
103.960498
11
38.554818
21
98.994294
0
LINE
8
Image
10
38.554818
20
98.994294
11
40.128533
21
94.204212
0
LINE
8
Image
10
40.128533
20
94.204212
11
41.300890
21
89.590245
0
LINE
8
Image
10
41.300890
20
89.590245
11
41.854652
21
86.572107
0
LINE
8
Image
10
41.854652
20
86.572107
11
42.209899
21
83.788028
0
LINE
8
Image
10
42.209899
20
83.788028
11
42.317926
21
81.745453
0
LINE
8
Image
10
42.317926
20
81.745453
11
42.264012
21
81.160807
0
LINE
8
Image
10
42.264012
20
81.160807
11
42.130027
21
80.951829
0
LINE
8
Image
10
42.130027
20
80.951829
11
41.821712
21
81.806763
0
LINE
8
Image
10
41.821712
20
81.806763
11
41.560957
21
83.862242
0
LINE
8
Image
10
41.560957
20
83.862242
11
40.916512
21
87.911006
0
LINE
8
Image
10
40.916512
20
87.911006
11
39.640873
21
92.706481
0
LINE
8
Image
10
39.640873
20
92.706481
11
37.904048
21
97.696427
0
LINE
8
Image
10
37.904048
20
97.696427
11
35.876045
21
102.328604
0
LINE
8
Image
10
35.876045
20
102.328604
11
35.018142
21
104.058744
0
LINE
8
Image
10
35.018142
20
104.058744
11
34.999568
21
102.810579
0
LINE
8
Image
10
34.999568
20
102.810579
11
34.766091
21
101.495629
0
LINE
8
Image
10
34.766091
20
101.495629
11
34.186807
21
100.050750
0
LINE
8
Image
10
34.186807
20
100.050750
11
33.391529
21
98.736506
0
LINE
8
Image
10
33.391529
20
98.736506
11
32.510070
21
97.813461
0
LINE
8
Image
10
32.510070
20
97.813461
11
29.594204
21
96.345260
0
LINE
8
Image
10
29.594204
20
96.345260
11
27.561759
21
95.519214
0
LINE
8
Image
10
27.561759
20
95.519214
11
28.984462
21
94.533282
0
LINE
8
Image
10
28.984462
20
94.533282
11
31.099718
21
92.730450
0
LINE
8
Image
10
31.099718
20
92.730450
11
33.064386
21
90.415212
0
LINE
8
Image
10
33.064386
20
90.415212
11
34.750129
21
87.762233
0
LINE
8
Image
10
34.750129
20
87.762233
11
36.028614
21
84.946178
0
LINE
8
Image
10
36.028614
20
84.946178
11
36.545263
21
83.278705
0
LINE
8
Image
10
36.545263
20
83.278705
11
36.675069
21
82.329905
0
LINE
8
Image
10
36.675069
20
82.329905
11
36.558423
21
82.324906
0
LINE
8
Image
10
36.558423
20
82.324906
11
36.348504
21
82.634349
0
LINE
8
Image
10
36.348504
20
82.634349
11
35.767920
21
83.979992
0
LINE
8
Image
10
35.767920
20
83.979992
11
34.897690
21
86.007798
0
LINE
8
Image
10
34.897690
20
86.007798
11
33.812103
21
87.899047
0
LINE
8
Image
10
33.812103
20
87.899047
11
32.496239
21
89.676534
0
LINE
8
Image
10
32.496239
20
89.676534
11
30.935177
21
91.363054
0
LINE
8
Image
10
30.935177
20
91.363054
11
29.150880
21
92.814089
0
LINE
8
Image
10
29.150880
20
92.814089
11
26.917109
21
94.215808
0
LINE
8
Image
10
26.917109
20
94.215808
11
24.572104
21
95.378756
0
LINE
8
Image
10
24.572104
20
95.378756
11
22.454104
21
96.113478
0
LINE
8
Image
10
22.454104
20
96.113478
11
21.299650
21
96.476169
0
LINE
8
Image
10
21.299650
20
96.476169
11
20.226358
21
96.987027
0
LINE
8
Image
10
20.226358
20
96.987027
11
19.232788
21
97.647508
0
LINE
8
Image
10
19.232788
20
97.647508
11
18.317499
21
98.459074
0
LINE
8
Image
10
18.317499
20
98.459074
11
17.479050
21
99.423182
0
LINE
8
Image
10
17.479050
20
99.423182
11
16.715999
21
100.541292
0
LINE
8
Image
10
16.715999
20
100.541292
11
15.410330
21
103.245355
0
LINE
8
Image
10
15.410330
20
103.245355
11
14.827064
21
104.685224
0
LINE
8
Image
10
14.827064
20
104.685224
11
14.666212
21
104.979090
0
LINE
8
Image
10
14.666212
20
104.979090
11
14.588836
21
104.972601
0
LINE
8
Image
10
14.588836
20
104.972601
11
15.058456
21
101.698444
0
LINE
8
Image
10
15.058456
20
101.698444
11
15.557334
21
99.213764
0
LINE
8
Image
10
15.557334
20
99.213764
11
16.109917
21
97.244746
0
LINE
8
Image
10
16.109917
20
97.244746
11
16.764055
21
95.650077
0
LINE
8
Image
10
16.764055
20
95.650077
11
17.567600
21
94.288442
0
LINE
8
Image
10
17.567600
20
94.288442
11
18.393512
21
92.886237
0
LINE
8
Image
10
18.393512
20
92.886237
11
19.023304
21
91.265982
0
LINE
8
Image
10
19.023304
20
91.265982
11
19.526814
21
89.200548
0
LINE
8
Image
10
19.526814
20
89.200548
11
19.973882
21
86.462807
0
LINE
8
Image
10
19.973882
20
86.462807
11
20.803533
21
82.406066
0
LINE
8
Image
10
20.803533
20
82.406066
11
21.370723
21
80.751155
0
LINE
8
Image
10
21.370723
20
80.751155
11
22.050923
21
79.324851
0
LINE
8
Image
10
22.050923
20
79.324851
11
22.852711
21
78.111881
0
LINE
8
Image
10
22.852711
20
78.111881
11
23.784663
21
77.096970
0
LINE
8
Image
10
23.784663
20
77.096970
11
24.855355
21
76.264846
0
LINE
8
Image
10
24.855355
20
76.264846
11
26.073363
21
75.600233
0
LINE
8
Image
10
26.073363
20
75.600233
11
27.572668
21
74.733687
0
LINE
8
Image
10
27.572668
20
74.733687
11
27.182627
21
74.632491
0
LINE
8
Image
10
27.182627
20
74.632491
11
26.216529
21
74.852807
0
LINE
8
Image
10
26.216529
20
74.852807
11
24.980411
21
75.301645
0
LINE
8
Image
10
24.980411
20
75.301645
11
23.780311
21
75.886015
0
LINE
8
Image
10
23.780311
20
75.886015
11
22.477529
21
76.539342
0
LINE
8
Image
10
22.477529
20
76.539342
11
22.307849
21
76.419198
0
LINE
8
Image
10
22.307849
20
76.419198
11
22.281006
21
76.016729
0
LINE
8
Image
10
22.281006
20
76.016729
11
23.992530
21
70.867294
0
LINE
8
Image
10
23.992530
20
70.867294
11
25.958119
21
65.873948
0
LINE
8
Image
10
25.958119
20
65.873948
11
27.132521
21
68.872554
0
LINE
8
Image
10
27.132521
20
68.872554
11
29.134941
21
74.353301
0
LINE
8
Image
10
29.134941
20
74.353301
11
29.774616
21
76.326655
0
LINE
8
Image
10
29.774616
20
76.326655
11
30.038664
21
77.704687
0
LINE
8
Image
10
30.038664
20
77.704687
11
29.767991
21
79.070530
0
LINE
8
Image
10
29.767991
20
79.070530
11
29.024709
21
80.732116
0
LINE
8
Image
10
29.024709
20
80.732116
11
27.899300
21
82.522303
0
LINE
8
Image
10
27.899300
20
82.522303
11
26.482247
21
84.273949
0
LINE
8
Image
10
26.482247
20
84.273949
11
25.346187
21
85.635133
0
LINE
8
Image
10
25.346187
20
85.635133
11
25.165268
21
85.961235
0
LINE
8
Image
10
25.165268
20
85.961235
11
25.294391
21
85.976522
0
LINE
8
Image
10
25.294391
20
85.976522
11
26.403368
21
85.108679
0
LINE
8
Image
10
26.403368
20
85.108679
11
27.783458
21
83.677117
0
LINE
8
Image
10
27.783458
20
83.677117
11
29.102861
21
82.056932
0
LINE
8
Image
10
29.102861
20
82.056932
11
30.029776
21
80.623223
0
LINE
8
Image
10
30.029776
20
80.623223
11
30.656806
21
78.909039
0
LINE
8
Image
10
30.656806
20
78.909039
11
30.737960
21
76.980397
0
LINE
8
Image
10
30.737960
20
76.980397
11
30.235753
21
74.439381
0
LINE
8
Image
10
30.235753
20
74.439381
11
29.112700
21
70.888079
0
LINE
8
Image
10
29.112700
20
70.888079
11
27.411230
21
65.958792
0
LINE
8
Image
10
27.411230
20
65.958792
11
27.407499
21
60.137966
0
LINE
8
Image
10
27.407499
20
60.137966
11
27.403769
21
54.317140
0
LINE
8
Image
10
27.403769
20
54.317140
11
28.763847
21
50.260201
0
LINE
8
Image
10
28.763847
20
50.260201
11
29.964414
21
46.746093
0
LINE
8
Image
10
29.964414
20
46.746093
11
30.382763
21
45.905222
0
LINE
8
Image
10
30.382763
20
45.905222
11
30.766850
21
45.702862
0
LINE
8
Image
10
30.766850
20
45.702862
11
31.181945
21
46.159806
0
LINE
8
Image
10
31.181945
20
46.159806
11
31.693320
21
47.296847
0
LINE
8
Image
10
31.693320
20
47.296847
11
33.265989
21
51.694387
0
LINE
8
Image
10
33.265989
20
51.694387
11
37.428871
21
62.865656
0
LINE
8
Image
10
37.428871
20
62.865656
11
38.852724
21
66.267468
0
LINE
8
Image
10
38.852724
20
66.267468
11
39.280657
21
67.121814
0
LINE
8
Image
10
39.280657
20
67.121814
11
39.473699
21
67.297270
0
LINE
8
Image
10
39.473699
20
67.297270
11
39.113132
21
65.419760
0
LINE
8
Image
10
39.113132
20
65.419760
11
37.751233
21
60.823055
0
LINE
8
Image
10
37.751233
20
60.823055
11
32.212419
21
44.076410
0
LINE
8
Image
10
32.212419
20
44.076410
11
27.256994
21
29.687958
0
LINE
8
Image
10
27.256994
20
29.687958
11
26.867094
21
28.541430
0
LINE
8
Image
10
26.867094
20
28.541430
11
41.507355
21
28.388008
0
LINE
8
Image
10
41.507355
20
28.388008
11
52.570680
21
28.478432
0
LINE
8
Image
10
52.570680
20
28.478432
11
55.263773
21
28.593826
0
LINE
8
Image
10
55.263773
20
28.593826
11
56.147616
21
28.758110
0
LINE
8
Image
10
56.147616
20
28.758110
11
56.147629
21
28.758110
0
LINE
8
Image
10
34.049940
20
37.024532
11
40.590511
21
42.835396
0
LINE
8
Image
10
40.590511
20
42.835396
11
44.046215
21
45.962680
0
LINE
8
Image
10
44.046215
20
45.962680
11
46.073362
21
48.114513
0
LINE
8
Image
10
46.073362
20
48.114513
11
46.974178
21
49.745015
0
LINE
8
Image
10
46.974178
20
49.745015
11
47.582005
21
51.672607
0
LINE
8
Image
10
47.582005
20
51.672607
11
47.925608
21
54.026737
0
LINE
8
Image
10
47.925608
20
54.026737
11
48.033750
21
56.936853
0
LINE
8
Image
10
48.033750
20
56.936853
11
48.033750
21
60.637525
0
LINE
8
Image
10
48.033750
20
60.637525
11
46.225103
21
57.477332
0
LINE
8
Image
10
46.225103
20
57.477332
11
43.236169
21
52.674840
0
LINE
8
Image
10
43.236169
20
52.674840
11
40.121928
21
48.297933
0
LINE
8
Image
10
40.121928
20
48.297933
11
37.553939
21
45.226857
0
LINE
8
Image
10
37.553939
20
45.226857
11
36.684651
21
44.456082
0
LINE
8
Image
10
36.684651
20
44.456082
11
36.390409
21
44.310025
0
LINE
8
Image
10
36.390409
20
44.310025
11
36.203760
21
44.341858
0
LINE
8
Image
10
36.203760
20
44.341858
11
36.409280
21
44.955519
0
LINE
8
Image
10
36.409280
20
44.955519
11
37.273265
21
46.072469
0
LINE
8
Image
10
37.273265
20
46.072469
11
39.099977
21
48.417420
0
LINE
8
Image
10
39.099977
20
48.417420
11
41.310861
21
51.746212
0
LINE
8
Image
10
41.310861
20
51.746212
11
43.634585
21
55.627431
0
LINE
8
Image
10
43.634585
20
55.627431
11
45.799820
21
59.629660
0
LINE
8
Image
10
45.799820
20
59.629660
11
47.923547
21
63.383241
0
LINE
8
Image
10
47.923547
20
63.383241
11
48.633405
21
64.180184
0
LINE
8
Image
10
48.633405
20
64.180184
11
48.908355
21
64.302352
0
LINE
8
Image
10
48.908355
20
64.302352
11
49.133042
21
64.237901
0
LINE
8
Image
10
49.133042
20
64.237901
11
49.440793
21
63.541895
0
LINE
8
Image
10
49.440793
20
63.541895
11
49.574995
21
62.077671
0
LINE
8
Image
10
49.574995
20
62.077671
11
49.396098
21
56.786583
0
LINE
8
Image
10
49.396098
20
56.786583
11
49.188894
21
54.309308
0
LINE
8
Image
10
49.188894
20
54.309308
11
48.883380
21
52.232997
0
LINE
8
Image
10
48.883380
20
52.232997
11
48.435039
21
50.470936
0
LINE
8
Image
10
48.435039
20
50.470936
11
47.799354
21
48.936406
0
LINE
8
Image
10
47.799354
20
48.936406
11
46.931811
21
47.542691
0
LINE
8
Image
10
46.931811
20
47.542691
11
45.787891
21
46.203074
0
LINE
8
Image
10
45.787891
20
46.203074
11
44.323079
21
44.830840
0
LINE
8
Image
10
44.323079
20
44.830840
11
42.492858
21
43.339271
0
LINE
8
Image
10
42.492858
20
43.339271
11
36.215708
21
38.251065
0
LINE
8
Image
10
36.215708
20
38.251065
11
32.631394
21
35.409729
0
LINE
8
Image
10
32.631394
20
35.409729
11
32.495702
21
35.383598
0
LINE
8
Image
10
32.495702
20
35.383598
11
32.681213
21
35.640804
0
LINE
8
Image
10
32.681213
20
35.640804
11
34.049940
21
37.024532
0
LINE
8
Image
10
34.049940
20
37.024532
11
34.049940
21
37.024532
0
LINE
8
Image
10
48.549978
20
97.693086
11
48.178322
21
99.457049
0
LINE
8
Image
10
48.178322
20
99.457049
11
48.053933
21
101.294035
0
LINE
8
Image
10
48.053933
20
101.294035
11
48.176905
21
102.958545
0
LINE
8
Image
10
48.176905
20
102.958545
11
48.547332
21
104.205079
0
LINE
8
Image
10
48.547332
20
104.205079
11
49.290488
21
105.134332
0
LINE
8
Image
10
49.290488
20
105.134332
11
50.417397
21
105.806284
0
LINE
8
Image
10
50.417397
20
105.806284
11
51.911980
21
106.214313
0
LINE
8
Image
10
51.911980
20
106.214313
11
53.758157
21
106.351795
0
LINE
8
Image
10
53.758157
20
106.351795
11
55.738331
21
106.204580
0
LINE
8
Image
10
55.738331
20
106.204580
11
56.291971
21
105.962936
0
LINE
8
Image
10
56.291971
20
105.962936
11
56.747561
21
105.558046
0
LINE
8
Image
10
56.747561
20
105.558046
11
57.514976
21
104.579150
0
LINE
8
Image
10
57.514976
20
104.579150
11
58.018238
21
103.570077
0
LINE
8
Image
10
58.018238
20
103.570077
11
58.300239
21
102.412482
0
LINE
8
Image
10
58.300239
20
102.412482
11
58.403872
21
100.988017
0
LINE
8
Image
10
58.403872
20
100.988017
11
58.572226
21
98.944259
0
LINE
8
Image
10
58.572226
20
98.944259
11
60.876813
21
100.533178
0
LINE
8
Image
10
60.876813
20
100.533178
11
63.770570
21
102.743216
0
LINE
8
Image
10
63.770570
20
102.743216
11
64.775087
21
103.863568
0
LINE
8
Image
10
64.775087
20
103.863568
11
65.756204
21
105.471076
0
LINE
8
Image
10
65.756204
20
105.471076
11
66.715718
21
107.569169
0
LINE
8
Image
10
66.715718
20
107.569169
11
67.655424
21
110.161279
0
LINE
8
Image
10
67.655424
20
110.161279
11
68.532726
21
113.290099
0
LINE
8
Image
10
68.532726
20
113.290099
11
68.776165
21
115.303751
0
LINE
8
Image
10
68.776165
20
115.303751
11
68.681142
21
116.108110
0
LINE
8
Image
10
68.681142
20
116.108110
11
68.437175
21
116.584564
0
LINE
8
Image
10
68.437175
20
116.584564
11
67.875788
21
116.898451
0
LINE
8
Image
10
67.875788
20
116.898451
11
66.828504
21
117.215104
0
LINE
8
Image
10
66.828504
20
117.215104
11
65.199579
21
117.903385
0
LINE
8
Image
10
65.199579
20
117.903385
11
64.549233
21
118.396995
0
LINE
8
Image
10
64.549233
20
118.396995
11
63.993562
21
119.009741
0
LINE
8
Image
10
63.993562
20
119.009741
11
63.122031
21
120.651119
0
LINE
8
Image
10
63.122031
20
120.651119
11
62.496560
21
122.944469
0
LINE
8
Image
10
62.496560
20
122.944469
11
62.187731
21
125.170494
0
LINE
8
Image
10
62.187731
20
125.170494
11
62.092440
21
127.293584
0
LINE
8
Image
10
62.092440
20
127.293584
11
62.207444
21
128.728491
0
LINE
8
Image
10
62.207444
20
128.728491
11
62.342793
21
129.004987
0
LINE
8
Image
10
62.342793
20
129.004987
11
62.529501
21
128.889968
0
LINE
8
Image
10
62.529501
20
128.889968
11
62.751591
21
128.129682
0
LINE
8
Image
10
62.751591
20
128.129682
11
62.850165
21
126.989269
0
LINE
8
Image
10
62.850165
20
126.989269
11
63.018521
21
125.193873
0
LINE
8
Image
10
63.018521
20
125.193873
11
63.440468
21
123.198718
0
LINE
8
Image
10
63.440468
20
123.198718
11
64.027044
21
121.343453
0
LINE
8
Image
10
64.027044
20
121.343453
11
64.689287
21
119.967728
0
LINE
8
Image
10
64.689287
20
119.967728
11
65.382003
21
119.206273
0
LINE
8
Image
10
65.382003
20
119.206273
11
66.318712
21
118.577944
0
LINE
8
Image
10
66.318712
20
118.577944
11
67.370893
21
118.150937
0
LINE
8
Image
10
67.370893
20
118.150937
11
68.410025
21
117.993447
0
LINE
8
Image
10
68.410025
20
117.993447
11
68.550988
21
118.102133
0
LINE
8
Image
10
68.550988
20
118.102133
11
68.594271
21
118.416239
0
LINE
8
Image
10
68.594271
20
118.416239
11
68.405205
21
119.588993
0
LINE
8
Image
10
68.405205
20
119.588993
11
67.046412
21
123.610655
0
LINE
8
Image
10
67.046412
20
123.610655
11
65.716085
21
126.438826
0
LINE
8
Image
10
65.716085
20
126.438826
11
64.080463
21
129.060887
0
LINE
8
Image
10
64.080463
20
129.060887
11
62.157944
21
131.460681
0
LINE
8
Image
10
62.157944
20
131.460681
11
59.966925
21
133.622051
0
LINE
8
Image
10
59.966925
20
133.622051
11
57.525803
21
135.528840
0
LINE
8
Image
10
57.525803
20
135.528840
11
54.852977
21
137.164890
0
LINE
8
Image
10
54.852977
20
137.164890
11
51.966843
21
138.514045
0
LINE
8
Image
10
51.966843
20
138.514045
11
48.885800
21
139.560148
0
LINE
8
Image
10
48.885800
20
139.560148
11
45.735748
21
140.159951
0
LINE
8
Image
10
45.735748
20
140.159951
11
42.142760
21
140.393562
0
LINE
8
Image
10
42.142760
20
140.393562
11
38.533283
21
140.255332
0
LINE
8
Image
10
38.533283
20
140.255332
11
35.333766
21
139.739615
0
LINE
8
Image
10
35.333766
20
139.739615
11
33.380772
21
139.167170
0
LINE
8
Image
10
33.380772
20
139.167170
11
31.430920
21
138.423223
0
LINE
8
Image
10
31.430920
20
138.423223
11
29.506788
21
137.521408
0
LINE
8
Image
10
29.506788
20
137.521408
11
27.630953
21
136.475359
0
LINE
8
Image
10
27.630953
20
136.475359
11
25.825991
21
135.298708
0
LINE
8
Image
10
25.825991
20
135.298708
11
24.114480
21
134.005090
0
LINE
8
Image
10
24.114480
20
134.005090
11
22.518997
21
132.608138
0
LINE
8
Image
10
22.518997
20
132.608138
11
21.062120
21
131.121484
0
LINE
8
Image
10
21.062120
20
131.121484
11
19.666847
21
129.577681
0
LINE
8
Image
10
19.666847
20
129.577681
11
20.445739
21
128.107086
0
LINE
8
Image
10
20.445739
20
128.107086
11
20.995544
21
126.687319
0
LINE
8
Image
10
20.995544
20
126.687319
11
21.223653
21
125.338925
0
LINE
8
Image
10
21.223653
20
125.338925
11
21.263324
21
124.590473
0
LINE
8
Image
10
21.263324
20
124.590473
11
21.499193
21
124.116925
0
LINE
8
Image
10
21.499193
20
124.116925
11
22.104164
21
123.744228
0
LINE
8
Image
10
22.104164
20
123.744228
11
23.251142
21
123.298331
0
LINE
8
Image
10
23.251142
20
123.298331
11
25.960679
21
122.261640
0
LINE
8
Image
10
25.960679
20
122.261640
11
26.119721
21
122.096055
0
LINE
8
Image
10
26.119721
20
122.096055
11
25.808778
21
121.999501
0
LINE
8
Image
10
25.808778
20
121.999501
11
24.709656
21
122.102352
0
LINE
8
Image
10
24.709656
20
122.102352
11
22.810170
21
122.515451
0
LINE
8
Image
10
22.810170
20
122.515451
11
21.400793
21
122.899125
0
LINE
8
Image
10
21.400793
20
122.899125
11
20.655176
21
123.226184
0
LINE
8
Image
10
20.655176
20
123.226184
11
20.347107
21
123.659968
0
LINE
8
Image
10
20.347107
20
123.659968
11
20.250374
21
124.363822
0
LINE
8
Image
10
20.250374
20
124.363822
11
19.754959
21
126.865409
0
LINE
8
Image
10
19.754959
20
126.865409
11
19.396992
21
127.835152
0
LINE
8
Image
10
19.396992
20
127.835152
11
19.084388
21
128.223990
0
LINE
8
Image
10
19.084388
20
128.223990
11
18.704205
21
127.887198
0
LINE
8
Image
10
18.704205
20
127.887198
11
18.157313
21
127.077462
0
LINE
8
Image
10
18.157313
20
127.077462
11
16.590365
21
123.813677
0
LINE
8
Image
10
16.590365
20
123.813677
11
15.402846
21
120.237930
0
LINE
8
Image
10
15.402846
20
120.237930
11
14.716566
21
116.805781
0
LINE
8
Image
10
14.716566
20
116.805781
11
14.599455
21
115.285919
0
LINE
8
Image
10
14.599455
20
115.285919
11
14.653332
21
113.972791
0
LINE
8
Image
10
14.653332
20
113.972791
11
15.408127
21
110.022560
0
LINE
8
Image
10
15.408127
20
110.022560
11
16.629438
21
105.821455
0
LINE
8
Image
10
16.629438
20
105.821455
11
18.047053
21
102.173213
0
LINE
8
Image
10
18.047053
20
102.173213
11
18.745032
21
100.807583
0
LINE
8
Image
10
18.745032
20
100.807583
11
19.390757
21
99.881568
0
LINE
8
Image
10
19.390757
20
99.881568
11
20.566543
21
98.909799
0
LINE
8
Image
10
20.566543
20
98.909799
11
22.033038
21
98.205976
0
LINE
8
Image
10
22.033038
20
98.205976
11
23.697414
21
97.771537
0
LINE
8
Image
10
23.697414
20
97.771537
11
25.466843
21
97.607920
0
LINE
8
Image
10
25.466843
20
97.607920
11
27.248496
21
97.716560
0
LINE
8
Image
10
27.248496
20
97.716560
11
28.949546
21
98.098895
0
LINE
8
Image
10
28.949546
20
98.098895
11
30.477164
21
98.756362
0
LINE
8
Image
10
30.477164
20
98.756362
11
31.738522
21
99.690399
0
LINE
8
Image
10
31.738522
20
99.690399
11
32.409138
21
100.547103
0
LINE
8
Image
10
32.409138
20
100.547103
11
32.885740
21
101.596547
0
LINE
8
Image
10
32.885740
20
101.596547
11
33.168490
21
102.809365
0
LINE
8
Image
10
33.168490
20
102.809365
11
33.257550
21
104.156192
0
LINE
8
Image
10
33.257550
20
104.156192
11
33.153082
21
105.607660
0
LINE
8
Image
10
33.153082
20
105.607660
11
32.855247
21
107.134405
0
LINE
8
Image
10
32.855247
20
107.134405
11
32.364207
21
108.707060
0
LINE
8
Image
10
32.364207
20
108.707060
11
31.680123
21
110.296259
0
LINE
8
Image
10
31.680123
20
110.296259
11
30.974356
21
111.798495
0
LINE
8
Image
10
30.974356
20
111.798495
11
30.621751
21
112.882635
0
LINE
8
Image
10
30.621751
20
112.882635
11
30.537068
21
113.972437
0
LINE
8
Image
10
30.537068
20
113.972437
11
30.635068
21
115.491658
0
LINE
8
Image
10
30.635068
20
115.491658
11
31.077378
21
117.858306
0
LINE
8
Image
10
31.077378
20
117.858306
11
31.441014
21
118.640071
0
LINE
8
Image
10
31.441014
20
118.640071
11
31.897298
21
119.152373
0
LINE
8
Image
10
31.897298
20
119.152373
11
32.444474
21
119.393894
0
LINE
8
Image
10
32.444474
20
119.393894
11
33.080789
21
119.363317
0
LINE
8
Image
10
33.080789
20
119.363317
11
33.804487
21
119.059322
0
LINE
8
Image
10
33.804487
20
119.059322
11
34.613814
21
118.480592
0
LINE
8
Image
10
34.613814
20
118.480592
11
35.573189
21
117.515830
0
LINE
8
Image
10
35.573189
20
117.515830
11
36.253184
21
116.429691
0
LINE
8
Image
10
36.253184
20
116.429691
11
36.702344
21
115.119132
0
LINE
8
Image
10
36.702344
20
115.119132
11
36.969217
21
113.481111
0
LINE
8
Image
10
36.969217
20
113.481111
11
37.184593
21
111.420520
0
LINE
8
Image
10
37.184593
20
111.420520
11
38.993203
21
110.561850
0
LINE
8
Image
10
38.993203
20
110.561850
11
40.801815
21
109.703180
0
LINE
8
Image
10
40.801815
20
109.703180
11
40.806128
21
107.382888
0
LINE
8
Image
10
40.806128
20
107.382888
11
40.842368
21
106.041130
0
LINE
8
Image
10
40.842368
20
106.041130
11
41.031260
21
105.119861
0
LINE
8
Image
10
41.031260
20
105.119861
11
41.502353
21
104.271773
0
LINE
8
Image
10
41.502353
20
104.271773
11
42.385194
21
103.149560
0
LINE
8
Image
10
42.385194
20
103.149560
11
46.529755
21
98.364419
0
LINE
8
Image
10
46.529755
20
98.364419
11
48.957073
21
95.868648
0
LINE
8
Image
10
48.957073
20
95.868648
11
48.549980
21
97.693086
0
LINE
8
Image
10
48.549980
20
97.693086
11
48.549978
21
97.693086
0
LINE
8
Image
10
44.507295
20
103.441382
11
44.788024
21
104.206201
0
LINE
8
Image
10
44.788024
20
104.206201
11
45.534933
21
105.252223
0
LINE
8
Image
10
45.534933
20
105.252223
11
46.613622
21
106.416712
0
LINE
8
Image
10
46.613622
20
106.416712
11
47.889690
21
107.536931
0
LINE
8
Image
10
47.889690
20
107.536931
11
49.682044
21
109.303162
0
LINE
8
Image
10
49.682044
20
109.303162
11
51.821231
21
111.840060
0
LINE
8
Image
10
51.821231
20
111.840060
11
53.616384
21
114.274639
0
LINE
8
Image
10
53.616384
20
114.274639
11
54.169052
21
115.180751
0
LINE
8
Image
10
54.169052
20
115.180751
11
54.376638
21
115.733913
0
LINE
8
Image
10
54.376638
20
115.733913
11
54.195103
21
116.169236
0
LINE
8
Image
10
54.195103
20
116.169236
11
53.751236
21
116.682027
0
LINE
8
Image
10
53.751236
20
116.682027
11
53.215015
21
117.109256
0
LINE
8
Image
10
53.215015
20
117.109256
11
52.756416
21
117.287894
0
LINE
8
Image
10
52.756416
20
117.287894
11
51.955496
21
117.857849
0
LINE
8
Image
10
51.955496
20
117.857849
11
50.503190
21
119.228168
0
LINE
8
Image
10
50.503190
20
119.228168
11
49.404723
21
120.298328
0
LINE
8
Image
10
49.404723
20
120.298328
11
48.619276
21
120.880076
0
LINE
8
Image
10
48.619276
20
120.880076
11
47.871961
21
121.120939
0
LINE
8
Image
10
47.871961
20
121.120939
11
46.887894
21
121.168443
0
LINE
8
Image
10
46.887894
20
121.168443
11
44.903935
21
121.454864
0
LINE
8
Image
10
44.903935
20
121.454864
11
42.432665
21
122.231310
0
LINE
8
Image
10
42.432665
20
122.231310
11
40.798744
21
122.837673
0
LINE
8
Image
10
40.798744
20
122.837673
11
39.694545
21
123.097680
0
LINE
8
Image
10
39.694545
20
123.097680
11
38.617287
21
123.063344
0
LINE
8
Image
10
38.617287
20
123.063344
11
37.064192
21
122.786677
0
LINE
8
Image
10
37.064192
20
122.786677
11
34.904336
21
122.268462
0
LINE
8
Image
10
34.904336
20
122.268462
11
33.379929
21
121.735203
0
LINE
8
Image
10
33.379929
20
121.735203
11
32.713315
21
121.458252
0
LINE
8
Image
10
32.713315
20
121.458252
11
32.040208
21
121.479532
0
LINE
8
Image
10
32.040208
20
121.479532
11
31.007377
21
121.888036
0
LINE
8
Image
10
31.007377
20
121.888036
11
29.261594
21
122.772755
0
LINE
8
Image
10
29.261594
20
122.772755
11
26.882866
21
124.141818
0
LINE
8
Image
10
26.882866
20
124.141818
11
25.386698
21
125.361669
0
LINE
8
Image
10
25.386698
20
125.361669
11
24.935972
21
125.952121
0
LINE
8
Image
10
24.935972
20
125.952121
11
24.665564
21
126.549046
0
LINE
8
Image
10
24.665564
20
126.549046
11
24.562033
21
127.167036
0
LINE
8
Image
10
24.562033
20
127.167036
11
24.611937
21
127.820684
0
LINE
8
Image
10
24.611937
20
127.820684
11
24.901103
21
129.180393
0
LINE
8
Image
10
24.901103
20
129.180393
11
27.714469
21
129.860506
0
LINE
8
Image
10
27.714469
20
129.860506
11
30.214179
21
130.268054
0
LINE
8
Image
10
30.214179
20
130.268054
11
31.088871
21
130.241381
0
LINE
8
Image
10
31.088871
20
130.241381
11
31.932133
21
130.072045
0
LINE
8
Image
10
31.932133
20
130.072045
11
32.798705
21
129.881380
0
LINE
8
Image
10
32.798705
20
129.881380
11
33.496220
21
129.932956
0
LINE
8
Image
10
33.496220
20
129.932956
11
34.325448
21
130.311507
0
LINE
8
Image
10
34.325448
20
130.311507
11
35.587160
21
131.101771
0
LINE
8
Image
10
35.587160
20
131.101771
11
38.201915
21
132.522472
0
LINE
8
Image
10
38.201915
20
132.522472
11
41.407986
21
133.938768
0
LINE
8
Image
10
41.407986
20
133.938768
11
45.319353
21
135.617580
0
LINE
8
Image
10
45.319353
20
135.617580
11
45.207492
21
135.934673
0
LINE
8
Image
10
45.207492
20
135.934673
11
44.539450
21
136.324002
0
LINE
8
Image
10
44.539450
20
136.324002
11
43.909233
21
136.525622
0
LINE
8
Image
10
43.909233
20
136.525622
11
43.269882
21
136.552594
0
LINE
8
Image
10
43.269882
20
136.552594
11
41.259970
21
136.016629
0
LINE
8
Image
10
41.259970
20
136.016629
11
39.227672
21
135.456996
0
LINE
8
Image
10
39.227672
20
135.456996
11
38.713667
21
135.562443
0
LINE
8
Image
10
38.713667
20
135.562443
11
38.181563
21
135.912837
0
LINE
8
Image
10
38.181563
20
135.912837
11
37.468317
21
136.538302
0
LINE
8
Image
10
37.468317
20
136.538302
11
37.236361
21
137.035544
0
LINE
8
Image
10
37.236361
20
137.035544
11
37.487035
21
137.471377
0
LINE
8
Image
10
37.487035
20
137.471377
11
38.221679
21
137.912619
0
LINE
8
Image
10
38.221679
20
137.912619
11
39.098367
21
138.300939
0
LINE
8
Image
10
39.098367
20
138.300939
11
38.596955
21
137.890285
0
LINE
8
Image
10
38.596955
20
137.890285
11
38.045845
21
137.417676
0
LINE
8
Image
10
38.045845
20
137.417676
11
37.843820
21
137.033441
0
LINE
8
Image
10
37.843820
20
137.033441
11
37.987382
21
136.694304
0
LINE
8
Image
10
37.987382
20
136.694304
11
38.473033
21
136.356990
0
LINE
8
Image
10
38.473033
20
136.356990
11
38.892824
21
136.226686
0
LINE
8
Image
10
38.892824
20
136.226686
11
39.448126
21
136.235592
0
LINE
8
Image
10
39.448126
20
136.235592
11
41.174092
21
136.697355
0
LINE
8
Image
10
41.174092
20
136.697355
11
43.684209
21
137.396201
0
LINE
8
Image
10
43.684209
20
137.396201
11
44.433638
21
137.151571
0
LINE
8
Image
10
44.433638
20
137.151571
11
45.401408
21
136.584639
0
LINE
8
Image
10
45.401408
20
136.584639
11
46.217081
21
135.945847
0
LINE
8
Image
10
46.217081
20
135.945847
11
46.510220
21
135.485633
0
LINE
8
Image
10
46.510220
20
135.485633
11
45.202614
21
134.755396
0
LINE
8
Image
10
45.202614
20
134.755396
11
42.203378
21
133.453393
0
LINE
8
Image
10
42.203378
20
133.453393
11
38.620325
21
131.815551
0
LINE
8
Image
10
38.620325
20
131.815551
11
35.909070
21
130.277872
0
LINE
8
Image
10
35.909070
20
130.277872
11
34.693687
21
129.455311
0
LINE
8
Image
10
34.693687
20
129.455311
11
33.875865
21
129.057747
0
LINE
8
Image
10
33.875865
20
129.057747
11
33.134505
21
128.989189
0
LINE
8
Image
10
33.134505
20
128.989189
11
32.148509
21
129.153642
0
LINE
8
Image
10
32.148509
20
129.153642
11
30.142646
21
129.272367
0
LINE
8
Image
10
30.142646
20
129.272367
11
28.012638
21
128.985543
0
LINE
8
Image
10
28.012638
20
128.985543
11
26.295725
21
128.413161
0
LINE
8
Image
10
26.295725
20
128.413161
11
25.760066
21
128.057383
0
LINE
8
Image
10
25.760066
20
128.057383
11
25.529145
21
127.675212
0
LINE
8
Image
10
25.529145
20
127.675212
11
25.703314
21
126.808390
0
LINE
8
Image
10
25.703314
20
126.808390
11
26.457201
21
125.869716
0
LINE
8
Image
10
26.457201
20
125.869716
11
27.780586
21
124.868731
0
LINE
8
Image
10
27.780586
20
124.868731
11
29.663252
21
123.814975
0
LINE
8
Image
10
29.663252
20
123.814975
11
31.156742
21
123.093023
0
LINE
8
Image
10
31.156742
20
123.093023
11
32.071308
21
122.765454
0
LINE
8
Image
10
32.071308
20
122.765454
11
32.714143
21
122.768194
0
LINE
8
Image
10
32.714143
20
122.768194
11
33.392438
21
123.037174
0
LINE
8
Image
10
33.392438
20
123.037174
11
34.953748
21
123.536283
0
LINE
8
Image
10
34.953748
20
123.536283
11
37.149607
21
123.993349
0
LINE
8
Image
10
37.149607
20
123.993349
11
38.685120
21
124.211574
0
LINE
8
Image
10
38.685120
20
124.211574
11
39.783673
21
124.228647
0
LINE
8
Image
10
39.783673
20
124.228647
11
40.865059
21
124.004737
0
LINE
8
Image
10
40.865059
20
124.004737
11
42.349070
21
123.500016
0
LINE
8
Image
10
42.349070
20
123.500016
11
44.735098
21
122.826152
0
LINE
8
Image
10
44.735098
20
122.826152
11
46.834017
21
122.579554
0
LINE
8
Image
10
46.834017
20
122.579554
11
47.975791
21
122.535922
0
LINE
8
Image
10
47.975791
20
122.535922
11
48.836192
21
122.279464
0
LINE
8
Image
10
48.836192
20
122.279464
11
49.788779
21
121.621837
0
LINE
8
Image
10
49.788779
20
121.621837
11
51.207111
21
120.374696
0
LINE
8
Image
10
51.207111
20
120.374696
11
54.888000
21
117.173086
0
LINE
8
Image
10
54.888000
20
117.173086
11
55.590862
21
116.584534
0
LINE
8
Image
10
55.590862
20
116.584534
11
55.892495
21
116.183153
0
LINE
8
Image
10
55.892495
20
116.183153
11
55.851083
21
115.791668
0
LINE
8
Image
10
55.851083
20
115.791668
11
55.524809
21
115.232806
0
LINE
8
Image
10
55.524809
20
115.232806
11
53.712018
21
112.583968
0
LINE
8
Image
10
53.712018
20
112.583968
11
51.846400
21
110.175900
0
LINE
8
Image
10
51.846400
20
110.175900
11
50.101231
21
108.218111
0
LINE
8
Image
10
50.101231
20
108.218111
11
48.649784
21
106.920111
0
LINE
8
Image
10
48.649784
20
106.920111
11
47.066201
21
105.602870
0
LINE
8
Image
10
47.066201
20
105.602870
11
45.933022
21
104.362475
0
LINE
8
Image
10
45.933022
20
104.362475
11
44.935635
21
103.257153
0
LINE
8
Image
10
44.935635
20
103.257153
11
44.622504
21
103.170094
0
LINE
8
Image
10
44.622504
20
103.170094
11
44.507295
21
103.441382
0
LINE
8
Image
10
44.507295
20
103.441382
11
44.507295
21
103.441382
0
LINE
8
Image
10
40.272649
20
107.415313
11
40.218375
21
107.959799
0
LINE
8
Image
10
40.218375
20
107.959799
11
40.033735
21
108.399302
0
LINE
8
Image
10
40.033735
20
108.399302
11
39.142459
21
109.166138
0
LINE
8
Image
10
39.142459
20
109.166138
11
38.302590
21
109.609878
0
LINE
8
Image
10
38.302590
20
109.609878
11
37.870405
21
109.711583
0
LINE
8
Image
10
37.870405
20
109.711583
11
38.874371
21
107.979880
0
LINE
8
Image
10
38.874371
20
107.979880
11
40.156061
21
106.351795
0
LINE
8
Image
10
40.156061
20
106.351795
11
40.272649
21
107.415313
0
LINE
8
Image
10
40.272649
20
107.415313
11
40.272649
21
107.415313
0
LINE
8
Image
10
13.761219
20
108.856615
11
13.131899
21
110.943199
0
LINE
8
Image
10
13.131899
20
110.943199
11
12.881929
21
111.092528
0
LINE
8
Image
10
12.881929
20
111.092528
11
12.671314
21
110.652097
0
LINE
8
Image
10
12.671314
20
110.652097
11
12.774415
21
109.742051
0
LINE
8
Image
10
12.774415
20
109.742051
11
13.186307
21
108.385793
0
LINE
8
Image
10
13.186307
20
108.385793
11
13.684340
21
107.204287
0
LINE
8
Image
10
13.684340
20
107.204287
11
13.896082
21
106.873118
0
LINE
8
Image
10
13.896082
20
106.873118
11
14.045865
21
106.818498
0
LINE
8
Image
10
14.045865
20
106.818498
11
13.761219
21
108.856615
0
LINE
8
Image
10
13.761219
20
108.856615
11
13.761219
21
108.856615
 0 
ENDSEC
 0 
EOF