999
"DXF R12 Output" (www.mydxf.blogspot.com)
 0 
SECTION
 2 
HEADER
 9 
$ACADVER
 1 
AC1009
 9 
$EXTMIN
 10 
 0 
 20 
 0 
 9 
$EXTMAX
 10 
 8.5 
 20 
 11 
 0 
ENDSEC
 0 
SECTION
 2 
ENTITIES
0
LINE
8
Image
10
37.747176
20
0.267573
11
38.557018
21
2.011598
0
LINE
8
Image
10
38.557018
20
2.011598
11
40.479465
21
5.524784
0
LINE
8
Image
10
40.479465
20
5.524784
11
44.619690
21
12.460695
0
LINE
8
Image
10
44.619690
20
12.460695
11
46.513522
21
15.061903
0
LINE
8
Image
10
46.513522
20
15.061903
11
48.334890
21
17.263776
0
LINE
8
Image
10
48.334890
20
17.263776
11
49.592517
21
18.810138
0
LINE
8
Image
10
49.592517
20
18.810138
11
49.798212
21
19.271718
0
LINE
8
Image
10
49.798212
20
19.271718
11
49.736479
21
19.549456
0
LINE
8
Image
10
49.736479
20
19.549456
11
47.500541
21
19.853951
0
LINE
8
Image
10
47.500541
20
19.853951
11
42.177316
21
20.053196
0
LINE
8
Image
10
42.177316
20
20.053196
11
35.933034
21
20.272786
0
LINE
8
Image
10
35.933034
20
20.272786
11
35.030230
21
20.513334
0
LINE
8
Image
10
35.030230
20
20.513334
11
34.760867
21
20.942512
0
LINE
8
Image
10
34.760867
20
20.942512
11
34.463009
21
24.161868
0
LINE
8
Image
10
34.463009
20
24.161868
11
34.311182
21
29.890897
0
LINE
8
Image
10
34.311182
20
29.890897
11
34.330880
21
35.870536
0
LINE
8
Image
10
34.330880
20
35.870536
11
34.547594
21
39.841723
0
LINE
8
Image
10
34.547594
20
39.841723
11
35.045460
21
42.441436
0
LINE
8
Image
10
35.045460
20
42.441436
11
35.734612
21
44.947332
0
LINE
8
Image
10
35.734612
20
44.947332
11
36.530704
21
47.095124
0
LINE
8
Image
10
36.530704
20
47.095124
11
37.349386
21
48.620524
0
LINE
8
Image
10
37.349386
20
48.620524
11
38.099952
21
50.018228
0
LINE
8
Image
10
38.099952
20
50.018228
11
37.869082
21
50.232107
0
LINE
8
Image
10
37.869082
20
50.232107
11
37.206815
21
50.445779
0
LINE
8
Image
10
37.206815
20
50.445779
11
34.770165
21
50.850211
0
LINE
8
Image
10
34.770165
20
50.850211
11
31.154141
21
51.186935
0
LINE
8
Image
10
31.154141
20
51.186935
11
26.722883
21
51.411361
0
LINE
8
Image
10
26.722883
20
51.411361
11
22.273762
21
51.652917
0
LINE
8
Image
10
22.273762
20
51.652917
11
21.178159
21
51.810988
0
LINE
8
Image
10
21.178159
20
51.810988
11
20.817059
21
51.995714
0
LINE
8
Image
10
20.817059
20
51.995714
11
21.671436
21
56.140020
0
LINE
8
Image
10
21.671436
20
56.140020
11
23.090498
21
61.661005
0
LINE
8
Image
10
23.090498
20
61.661005
11
24.835911
21
67.106765
0
LINE
8
Image
10
24.835911
20
67.106765
11
26.950503
21
72.598661
0
LINE
8
Image
10
26.950503
20
72.598661
11
29.477102
21
78.258053
0
LINE
8
Image
10
29.477102
20
78.258053
11
31.375906
21
82.256011
0
LINE
8
Image
10
31.375906
20
82.256011
11
29.887240
21
82.024217
0
LINE
8
Image
10
29.887240
20
82.024217
11
24.025000
21
80.764790
0
LINE
8
Image
10
24.025000
20
80.764790
11
18.915916
21
79.316287
0
LINE
8
Image
10
18.915916
20
79.316287
11
17.056670
21
78.781642
0
LINE
8
Image
10
17.056670
20
78.781642
11
17.965405
21
82.977767
0
LINE
8
Image
10
17.965405
20
82.977767
11
19.070648
21
86.861081
0
LINE
8
Image
10
19.070648
20
86.861081
11
20.366840
21
90.690429
0
LINE
8
Image
10
20.366840
20
90.690429
11
21.843992
21
94.445005
0
LINE
8
Image
10
21.843992
20
94.445005
11
23.492119
21
98.104006
0
LINE
8
Image
10
23.492119
20
98.104006
11
25.301231
21
101.646626
0
LINE
8
Image
10
25.301231
20
101.646626
11
27.261341
21
105.052061
0
LINE
8
Image
10
27.261341
20
105.052061
11
29.362463
21
108.299506
0
LINE
8
Image
10
29.362463
20
108.299506
11
31.594607
21
111.368158
0
LINE
8
Image
10
31.594607
20
111.368158
11
33.958117
21
114.707983
0
LINE
8
Image
10
33.958117
20
114.707983
11
33.707190
21
115.024416
0
LINE
8
Image
10
33.707190
20
115.024416
11
32.984682
21
115.240541
0
LINE
8
Image
10
32.984682
20
115.240541
11
30.767534
21
115.756140
0
LINE
8
Image
10
30.767534
20
115.756140
11
29.411594
21
115.951593
0
LINE
8
Image
10
29.411594
20
115.951593
11
27.768928
21
115.891850
0
LINE
8
Image
10
27.768928
20
115.891850
11
25.693794
21
115.495776
0
LINE
8
Image
10
25.693794
20
115.495776
11
23.496321
21
114.879427
0
LINE
8
Image
10
23.496321
20
114.879427
11
21.617304
21
114.184581
0
LINE
8
Image
10
21.617304
20
114.184581
11
20.497539
21
113.553020
0
LINE
8
Image
10
20.497539
20
113.553020
11
19.762155
21
113.097039
0
LINE
8
Image
10
19.762155
20
113.097039
11
18.895259
21
112.850936
0
LINE
8
Image
10
18.895259
20
112.850936
11
18.138808
21
112.851335
0
LINE
8
Image
10
18.138808
20
112.851335
11
17.734759
21
113.134855
0
LINE
8
Image
10
17.734759
20
113.134855
11
18.030387
21
113.634914
0
LINE
8
Image
10
18.030387
20
113.634914
11
18.940638
21
114.244548
0
LINE
8
Image
10
18.940638
20
114.244548
11
20.258172
21
115.213428
0
LINE
8
Image
10
20.258172
20
115.213428
11
21.543253
21
116.717208
0
LINE
8
Image
10
21.543253
20
116.717208
11
22.761826
21
118.675527
0
LINE
8
Image
10
22.761826
20
118.675527
11
23.879836
21
121.008021
0
LINE
8
Image
10
23.879836
20
121.008021
11
24.863227
21
123.634328
0
LINE
8
Image
10
24.863227
20
123.634328
11
25.677944
21
126.474086
0
LINE
8
Image
10
25.677944
20
126.474086
11
26.289932
21
129.446932
0
LINE
8
Image
10
26.289932
20
129.446932
11
26.665135
21
132.472504
0
LINE
8
Image
10
26.665135
20
132.472504
11
26.838487
21
134.263291
0
LINE
8
Image
10
26.838487
20
134.263291
11
27.102943
21
135.409086
0
LINE
8
Image
10
27.102943
20
135.409086
11
27.625505
21
136.353399
0
LINE
8
Image
10
27.625505
20
136.353399
11
28.573173
21
137.539740
0
LINE
8
Image
10
28.573173
20
137.539740
11
32.877327
21
142.029758
0
LINE
8
Image
10
32.877327
20
142.029758
11
35.440893
21
144.322548
0
LINE
8
Image
10
35.440893
20
144.322548
11
37.946880
21
146.292783
0
LINE
8
Image
10
37.946880
20
146.292783
11
40.390500
21
147.938105
0
LINE
8
Image
10
40.390500
20
147.938105
11
42.766961
21
149.256152
0
LINE
8
Image
10
42.766961
20
149.256152
11
45.071474
21
150.244566
0
LINE
8
Image
10
45.071474
20
150.244566
11
47.299249
21
150.900984
0
LINE
8
Image
10
47.299249
20
150.900984
11
49.445495
21
151.223048
0
LINE
8
Image
10
49.445495
20
151.223048
11
51.505423
21
151.208396
0
LINE
8
Image
10
51.505423
20
151.208396
11
53.524232
21
150.820830
0
LINE
8
Image
10
53.524232
20
150.820830
11
55.614543
21
150.085772
0
LINE
8
Image
10
55.614543
20
150.085772
11
57.482359
21
149.128893
0
LINE
8
Image
10
57.482359
20
149.128893
11
58.833684
21
148.075863
0
LINE
8
Image
10
58.833684
20
148.075863
11
59.269331
21
147.556429
0
LINE
8
Image
10
59.269331
20
147.556429
11
59.437851
21
147.015731
0
LINE
8
Image
10
59.437851
20
147.015731
11
59.052737
21
144.621087
0
LINE
8
Image
10
59.052737
20
144.621087
11
58.716214
21
142.280685
0
LINE
8
Image
10
58.716214
20
142.280685
11
58.691839
21
139.998659
0
LINE
8
Image
10
58.691839
20
139.998659
11
58.972814
21
137.891340
0
LINE
8
Image
10
58.972814
20
137.891340
11
59.552336
21
136.075061
0
LINE
8
Image
10
59.552336
20
136.075061
11
60.506746
21
134.538936
0
LINE
8
Image
10
60.506746
20
134.538936
11
61.906771
21
133.076885
0
LINE
8
Image
10
61.906771
20
133.076885
11
63.598442
21
131.824107
0
LINE
8
Image
10
63.598442
20
131.824107
11
65.427793
21
130.915801
0
LINE
8
Image
10
65.427793
20
130.915801
11
66.617732
21
130.496514
0
LINE
8
Image
10
66.617732
20
130.496514
11
67.441291
21
130.336348
0
LINE
8
Image
10
67.441291
20
130.336348
11
68.221079
21
130.419884
0
LINE
8
Image
10
68.221079
20
130.419884
11
69.279704
21
130.731704
0
LINE
8
Image
10
69.279704
20
130.731704
11
71.648369
21
131.672401
0
LINE
8
Image
10
71.648369
20
131.672401
11
73.943489
21
132.934949
0
LINE
8
Image
10
73.943489
20
132.934949
11
76.121835
21
134.492100
0
LINE
8
Image
10
76.121835
20
134.492100
11
78.140178
21
136.316607
0
LINE
8
Image
10
78.140178
20
136.316607
11
79.934182
21
138.335233
0
LINE
8
Image
10
79.934182
20
138.335233
11
81.392919
21
140.449999
0
LINE
8
Image
10
81.392919
20
140.449999
11
82.592259
21
142.788007
0
LINE
8
Image
10
82.592259
20
142.788007
11
83.608075
21
145.476354
0
LINE
8
Image
10
83.608075
20
145.476354
11
84.057112
21
147.032802
0
LINE
8
Image
10
84.057112
20
147.032802
11
84.248357
21
148.835176
0
LINE
8
Image
10
84.248357
20
148.835176
11
84.002205
21
157.647174
0
LINE
8
Image
10
84.002205
20
157.647174
11
83.721708
21
166.939750
0
LINE
8
Image
10
83.721708
20
166.939750
11
83.606217
21
175.595395
0
LINE
8
Image
10
83.606217
20
175.595395
11
83.701823
21
182.341927
0
LINE
8
Image
10
83.701823
20
182.341927
11
83.862647
21
183.507955
0
LINE
8
Image
10
83.862647
20
183.507955
11
84.137394
21
183.797468
0
LINE
8
Image
10
84.137394
20
183.797468
11
84.408457
21
183.601674
0
LINE
8
Image
10
84.408457
20
183.601674
11
84.569697
21
182.841728
0
LINE
8
Image
10
84.569697
20
182.841728
11
84.668364
21
178.594002
0
LINE
8
Image
10
84.668364
20
178.594002
11
85.024640
21
162.687695
0
LINE
8
Image
10
85.024640
20
162.687695
11
85.504399
21
150.739296
0
LINE
8
Image
10
85.504399
20
150.739296
11
91.395321
21
151.852817
0
LINE
8
Image
10
91.395321
20
151.852817
11
98.706331
21
153.213351
0
LINE
8
Image
10
98.706331
20
153.213351
11
104.633298
21
153.960669
0
LINE
8
Image
10
104.633298
20
153.960669
11
109.094146
21
154.087861
0
LINE
8
Image
10
109.094146
20
154.087861
11
110.749128
21
153.916751
0
LINE
8
Image
10
110.749128
20
153.916751
11
112.006802
21
153.588019
0
LINE
8
Image
10
112.006802
20
153.588019
11
113.586073
21
153.111856
0
LINE
8
Image
10
113.586073
20
153.111856
11
115.401482
21
152.732617
0
LINE
8
Image
10
115.401482
20
152.732617
11
117.547393
21
152.286001
0
LINE
8
Image
10
117.547393
20
152.286001
11
119.716833
21
151.614337
0
LINE
8
Image
10
119.716833
20
151.614337
11
121.907362
21
150.718976
0
LINE
8
Image
10
121.907362
20
150.718976
11
124.116538
21
149.601270
0
LINE
8
Image
10
124.116538
20
149.601270
11
126.341924
21
148.262568
0
LINE
8
Image
10
126.341924
20
148.262568
11
128.581079
21
146.704224
0
LINE
8
Image
10
128.581079
20
146.704224
11
130.831562
21
144.927589
0
LINE
8
Image
10
130.831562
20
144.927589
11
133.090935
21
142.934013
0
LINE
8
Image
10
133.090935
20
142.934013
11
136.500590
21
140.021835
0
LINE
8
Image
10
136.500590
20
140.021835
11
138.042267
21
138.948078
0
LINE
8
Image
10
138.042267
20
138.948078
11
139.558648
21
138.087344
0
LINE
8
Image
10
139.558648
20
138.087344
11
141.112335
21
137.408233
0
LINE
8
Image
10
141.112335
20
137.408233
11
142.765930
21
136.879346
0
LINE
8
Image
10
142.765930
20
136.879346
11
146.623255
21
136.146647
0
LINE
8
Image
10
146.623255
20
136.146647
11
149.264876
21
135.973236
0
LINE
8
Image
10
149.264876
20
135.973236
11
152.261162
21
136.071091
0
LINE
8
Image
10
152.261162
20
136.071091
11
155.337838
21
136.420032
0
LINE
8
Image
10
155.337838
20
136.420032
11
158.220634
21
136.999882
0
LINE
8
Image
10
158.220634
20
136.999882
11
159.984522
21
137.450654
0
LINE
8
Image
10
159.984522
20
137.450654
11
160.160908
21
140.806281
0
LINE
8
Image
10
160.160908
20
140.806281
11
160.479008
21
143.841731
0
LINE
8
Image
10
160.479008
20
143.841731
11
160.805160
21
144.764987
0
LINE
8
Image
10
160.805160
20
144.764987
11
161.333014
21
145.666353
0
LINE
8
Image
10
161.333014
20
145.666353
11
162.350959
21
146.901084
0
LINE
8
Image
10
162.350959
20
146.901084
11
163.400119
21
147.757070
0
LINE
8
Image
10
163.400119
20
147.757070
11
164.679887
21
148.518809
0
LINE
8
Image
10
164.679887
20
148.518809
11
165.423425
21
149.179479
0
LINE
8
Image
10
165.423425
20
149.179479
11
165.772318
21
149.920781
0
LINE
8
Image
10
165.772318
20
149.920781
11
165.868152
21
150.924419
0
LINE
8
Image
10
165.868152
20
150.924419
11
165.699006
21
152.306434
0
LINE
8
Image
10
165.699006
20
152.306434
11
165.053471
21
153.348576
0
LINE
8
Image
10
165.053471
20
153.348576
11
164.295509
21
154.040953
0
LINE
8
Image
10
164.295509
20
154.040953
11
163.388216
21
154.611683
0
LINE
8
Image
10
163.388216
20
154.611683
11
162.290778
21
155.069262
0
LINE
8
Image
10
162.290778
20
155.069262
11
160.962380
21
155.422188
0
LINE
8
Image
10
160.962380
20
155.422188
11
157.449447
21
155.848069
0
LINE
8
Image
10
157.449447
20
155.848069
11
152.522900
21
155.957304
0
LINE
8
Image
10
152.522900
20
155.957304
11
147.120027
21
156.066227
0
LINE
8
Image
10
147.120027
20
156.066227
11
145.523720
21
156.286759
0
LINE
8
Image
10
145.523720
20
156.286759
11
144.056244
21
156.669117
0
LINE
8
Image
10
144.056244
20
156.669117
11
142.158985
21
157.342044
0
LINE
8
Image
10
142.158985
20
157.342044
11
140.214211
21
158.214501
0
LINE
8
Image
10
140.214211
20
158.214501
11
136.169382
21
160.566473
0
LINE
8
Image
10
136.169382
20
160.566473
11
131.896278
21
163.741963
0
LINE
8
Image
10
131.896278
20
163.741963
11
127.369423
21
167.757902
0
LINE
8
Image
10
127.369423
20
167.757902
11
125.477240
21
169.511266
0
LINE
8
Image
10
125.477240
20
169.511266
11
124.089302
21
170.610631
0
LINE
8
Image
10
124.089302
20
170.610631
11
122.793822
21
171.336018
0
LINE
8
Image
10
122.793822
20
171.336018
11
121.179014
21
171.967446
0
LINE
8
Image
10
121.179014
20
171.967446
11
116.493301
21
173.715130
0
LINE
8
Image
10
116.493301
20
173.715130
11
112.614869
21
175.363206
0
LINE
8
Image
10
112.614869
20
175.363206
11
109.347457
21
177.001943
0
LINE
8
Image
10
109.347457
20
177.001943
11
106.494806
21
178.721615
0
LINE
8
Image
10
106.494806
20
178.721615
11
104.157802
21
180.265050
0
LINE
8
Image
10
104.157802
20
180.265050
11
102.643282
21
184.588894
0
LINE
8
Image
10
102.643282
20
184.588894
11
95.559844
21
203.519316
0
LINE
8
Image
10
95.559844
20
203.519316
11
95.225893
21
204.367577
0
LINE
8
Image
10
95.225893
20
204.367577
11
94.267748
21
203.487878
0
LINE
8
Image
10
94.267748
20
203.487878
11
91.982297
21
201.710998
0
LINE
8
Image
10
91.982297
20
201.710998
11
91.222146
21
201.376857
0
LINE
8
Image
10
91.222146
20
201.376857
11
90.818424
21
201.471512
0
LINE
8
Image
10
90.818424
20
201.471512
11
90.874527
21
201.773371
0
LINE
8
Image
10
90.874527
20
201.773371
11
91.235245
21
202.291074
0
LINE
8
Image
10
91.235245
20
202.291074
11
92.708666
21
203.776625
0
LINE
8
Image
10
92.708666
20
203.776625
11
94.519463
21
205.550647
0
LINE
8
Image
10
94.519463
20
205.550647
11
95.784122
21
207.362832
0
LINE
8
Image
10
95.784122
20
207.362832
11
96.820553
21
209.800295
0
LINE
8
Image
10
96.820553
20
209.800295
11
97.946666
21
213.450150
0
LINE
8
Image
10
97.946666
20
213.450150
11
99.524643
21
218.533585
0
LINE
8
Image
10
99.524643
20
218.533585
11
101.244605
21
223.269991
0
LINE
8
Image
10
101.244605
20
223.269991
11
103.112331
21
227.670146
0
LINE
8
Image
10
103.112331
20
227.670146
11
105.133601
21
231.744825
0
LINE
8
Image
10
105.133601
20
231.744825
11
107.314196
21
235.504807
0
LINE
8
Image
10
107.314196
20
235.504807
11
109.659894
21
238.960869
0
LINE
8
Image
10
109.659894
20
238.960869
11
112.176476
21
242.123788
0
LINE
8
Image
10
112.176476
20
242.123788
11
114.869723
21
245.004340
0
LINE
8
Image
10
114.869723
20
245.004340
11
118.086856
21
248.310940
0
LINE
8
Image
10
118.086856
20
248.310940
11
120.291830
21
250.811566
0
LINE
8
Image
10
120.291830
20
250.811566
11
121.877268
21
253.187345
0
LINE
8
Image
10
121.877268
20
253.187345
11
123.424883
21
256.076270
0
LINE
8
Image
10
123.424883
20
256.076270
11
124.790286
21
259.181244
0
LINE
8
Image
10
124.790286
20
259.181244
11
125.829089
21
262.205169
0
LINE
8
Image
10
125.829089
20
262.205169
11
126.337193
21
264.077356
0
LINE
8
Image
10
126.337193
20
264.077356
11
126.566636
21
265.401541
0
LINE
8
Image
10
126.566636
20
265.401541
11
126.558142
21
266.652335
0
LINE
8
Image
10
126.558142
20
266.652335
11
126.352437
21
268.304352
0
LINE
8
Image
10
126.352437
20
268.304352
11
125.992932
21
272.483100
0
LINE
8
Image
10
125.992932
20
272.483100
11
126.137638
21
276.554685
0
LINE
8
Image
10
126.137638
20
276.554685
11
126.786165
21
280.515156
0
LINE
8
Image
10
126.786165
20
280.515156
11
127.938123
21
284.360562
0
LINE
8
Image
10
127.938123
20
284.360562
11
128.458844
21
285.654623
0
LINE
8
Image
10
128.458844
20
285.654623
11
128.945054
21
286.514717
0
LINE
8
Image
10
128.945054
20
286.514717
11
129.531689
21
287.125890
0
LINE
8
Image
10
129.531689
20
287.125890
11
130.353684
21
287.673190
0
LINE
8
Image
10
130.353684
20
287.673190
11
131.572916
21
288.642807
0
LINE
8
Image
10
131.572916
20
288.642807
11
132.525782
21
289.958617
0
LINE
8
Image
10
132.525782
20
289.958617
11
133.202647
21
291.603119
0
LINE
8
Image
10
133.202647
20
291.603119
11
133.593875
21
293.558812
0
LINE
8
Image
10
133.593875
20
293.558812
11
133.869690
21
294.980163
0
LINE
8
Image
10
133.869690
20
294.980163
11
134.310239
21
296.070713
0
LINE
8
Image
10
134.310239
20
296.070713
11
134.882809
21
296.772588
0
LINE
8
Image
10
134.882809
20
296.772588
11
135.554689
21
297.027914
0
LINE
8
Image
10
135.554689
20
297.027914
11
135.991665
21
296.992334
0
LINE
8
Image
10
135.991665
20
296.992334
11
136.130585
21
296.812020
0
LINE
8
Image
10
136.130585
20
296.812020
11
135.501646
21
295.701800
0
LINE
8
Image
10
135.501646
20
295.701800
11
134.968981
21
294.456773
0
LINE
8
Image
10
134.968981
20
294.456773
11
134.629742
21
292.805672
0
LINE
8
Image
10
134.629742
20
292.805672
11
134.428243
21
290.865396
0
LINE
8
Image
10
134.428243
20
290.865396
11
136.975839
21
290.082960
0
LINE
8
Image
10
136.975839
20
290.082960
11
139.902476
21
288.902283
0
LINE
8
Image
10
139.902476
20
288.902283
11
142.552183
21
287.248897
0
LINE
8
Image
10
142.552183
20
287.248897
11
144.917217
21
285.134020
0
LINE
8
Image
10
144.917217
20
285.134020
11
146.989832
21
282.568870
0
LINE
8
Image
10
146.989832
20
282.568870
11
148.762283
21
279.564665
0
LINE
8
Image
10
148.762283
20
279.564665
11
150.226826
21
276.132622
0
LINE
8
Image
10
150.226826
20
276.132622
11
151.375715
21
272.283959
0
LINE
8
Image
10
151.375715
20
272.283959
11
152.201207
21
268.029895
0
LINE
8
Image
10
152.201207
20
268.029895
11
152.677835
21
264.111783
0
LINE
8
Image
10
152.677835
20
264.111783
11
152.691260
21
262.936506
0
LINE
8
Image
10
152.691260
20
262.936506
11
152.534091
21
262.245484
0
LINE
8
Image
10
152.534091
20
262.245484
11
152.190828
21
262.010019
0
LINE
8
Image
10
152.190828
20
262.010019
11
151.645968
21
262.201415
0
LINE
8
Image
10
151.645968
20
262.201415
11
149.889460
21
263.749992
0
LINE
8
Image
10
149.889460
20
263.749992
11
147.869092
21
265.599501
0
LINE
8
Image
10
147.869092
20
265.599501
11
145.795677
21
267.093625
0
LINE
8
Image
10
145.795677
20
267.093625
11
143.665599
21
268.233358
0
LINE
8
Image
10
143.665599
20
268.233358
11
141.475242
21
269.019692
0
LINE
8
Image
10
141.475242
20
269.019692
11
139.220989
21
269.453621
0
LINE
8
Image
10
139.220989
20
269.453621
11
136.899224
21
269.536136
0
LINE
8
Image
10
136.899224
20
269.536136
11
134.506330
21
269.268232
0
LINE
8
Image
10
134.506330
20
269.268232
11
132.038691
21
268.650900
0
LINE
8
Image
10
132.038691
20
268.650900
11
129.915000
21
267.902815
0
LINE
8
Image
10
129.915000
20
267.902815
11
128.682987
21
267.327985
0
LINE
8
Image
10
128.682987
20
267.327985
11
128.127969
21
266.229574
0
LINE
8
Image
10
128.127969
20
266.229574
11
127.553620
21
264.235344
0
LINE
8
Image
10
127.553620
20
264.235344
11
127.168492
21
262.217381
0
LINE
8
Image
10
127.168492
20
262.217381
11
127.181135
21
261.047769
0
LINE
8
Image
10
127.181135
20
261.047769
11
127.483295
21
260.804228
0
LINE
8
Image
10
127.483295
20
260.804228
11
127.910484
21
260.702933
0
LINE
8
Image
10
127.910484
20
260.702933
11
128.854605
21
260.231024
0
LINE
8
Image
10
128.854605
20
260.231024
11
130.174203
21
259.063513
0
LINE
8
Image
10
130.174203
20
259.063513
11
131.498912
21
257.572726
0
LINE
8
Image
10
131.498912
20
257.572726
11
132.458367
21
256.130989
0
LINE
8
Image
10
132.458367
20
256.130989
11
133.244466
21
254.282691
0
LINE
8
Image
10
133.244466
20
254.282691
11
133.998013
21
252.088052
0
LINE
8
Image
10
133.998013
20
252.088052
11
134.518526
21
249.995543
0
LINE
8
Image
10
134.518526
20
249.995543
11
134.548781
21
249.404836
0
LINE
8
Image
10
134.548781
20
249.404836
11
134.414923
21
249.110535
0
LINE
8
Image
10
134.414923
20
249.110535
11
134.108870
21
249.107169
0
LINE
8
Image
10
134.108870
20
249.107169
11
133.622536
21
249.389269
0
LINE
8
Image
10
133.622536
20
249.389269
11
132.076696
21
250.787987
0
LINE
8
Image
10
132.076696
20
250.787987
11
130.554595
21
252.066936
0
LINE
8
Image
10
130.554595
20
252.066936
11
128.983389
21
252.860725
0
LINE
8
Image
10
128.983389
20
252.860725
11
127.253169
21
253.207319
0
LINE
8
Image
10
127.253169
20
253.207319
11
125.254029
21
253.144683
0
LINE
8
Image
10
125.254029
20
253.144683
11
123.189932
21
252.777288
0
LINE
8
Image
10
123.189932
20
252.777288
11
123.348601
21
252.333476
0
LINE
8
Image
10
123.348601
20
252.333476
11
123.929338
21
251.465697
0
LINE
8
Image
10
123.929338
20
251.465697
11
124.731790
21
250.148266
0
LINE
8
Image
10
124.731790
20
250.148266
11
125.380238
21
248.511022
0
LINE
8
Image
10
125.380238
20
248.511022
11
125.890727
21
246.503508
0
LINE
8
Image
10
125.890727
20
246.503508
11
126.279298
21
244.075270
0
LINE
8
Image
10
126.279298
20
244.075270
11
126.631957
21
240.202059
0
LINE
8
Image
10
126.631957
20
240.202059
11
126.548123
21
237.848025
0
LINE
8
Image
10
126.548123
20
237.848025
11
126.348163
21
237.270475
0
LINE
8
Image
10
126.348163
20
237.270475
11
126.045849
21
237.108450
0
LINE
8
Image
10
126.045849
20
237.108450
11
125.643438
21
237.373860
0
LINE
8
Image
10
125.643438
20
237.373860
11
125.143187
21
238.078615
0
LINE
8
Image
10
125.143187
20
238.078615
11
124.051459
21
239.607576
0
LINE
8
Image
10
124.051459
20
239.607576
11
122.631391
21
241.171891
0
LINE
8
Image
10
122.631391
20
241.171891
11
121.137707
21
242.517199
0
LINE
8
Image
10
121.137707
20
242.517199
11
119.825127
21
243.389140
0
LINE
8
Image
10
119.825127
20
243.389140
11
118.336790
21
243.907003
0
LINE
8
Image
10
118.336790
20
243.907003
11
116.885477
21
244.122397
0
LINE
8
Image
10
116.885477
20
244.122397
11
116.075046
21
244.063784
0
LINE
8
Image
10
116.075046
20
244.063784
11
115.407359
21
243.811754
0
LINE
8
Image
10
115.407359
20
243.811754
11
114.687001
21
243.252025
0
LINE
8
Image
10
114.687001
20
243.252025
11
113.718554
21
242.270314
0
LINE
8
Image
10
113.718554
20
242.270314
11
111.503327
21
239.657376
0
LINE
8
Image
10
111.503327
20
239.657376
11
109.333259
21
236.592230
0
LINE
8
Image
10
109.333259
20
236.592230
11
107.231668
21
233.122432
0
LINE
8
Image
10
107.231668
20
233.122432
11
105.221871
21
229.295538
0
LINE
8
Image
10
105.221871
20
229.295538
11
103.327185
21
225.159105
0
LINE
8
Image
10
103.327185
20
225.159105
11
101.570927
21
220.760689
0
LINE
8
Image
10
101.570927
20
220.760689
11
99.976415
21
216.147845
0
LINE
8
Image
10
99.976415
20
216.147845
11
98.566965
21
211.368131
0
LINE
8
Image
10
98.566965
20
211.368131
11
97.709515
21
208.621780
0
LINE
8
Image
10
97.709515
20
208.621780
11
96.939518
21
206.800925
0
LINE
8
Image
10
96.939518
20
206.800925
11
96.487397
21
205.750335
0
LINE
8
Image
10
96.487397
20
205.750335
11
96.405110
21
204.860648
0
LINE
8
Image
10
96.405110
20
204.860648
11
98.715036
21
198.614116
0
LINE
8
Image
10
98.715036
20
198.614116
11
100.851650
21
193.146067
0
LINE
8
Image
10
100.851650
20
193.146067
11
103.254230
21
193.034341
0
LINE
8
Image
10
103.254230
20
193.034341
11
104.822830
21
193.035490
0
LINE
8
Image
10
104.822830
20
193.035490
11
106.252618
21
193.193353
0
LINE
8
Image
10
106.252618
20
193.193353
11
107.549204
21
193.510775
0
LINE
8
Image
10
107.549204
20
193.510775
11
108.718195
21
193.990606
0
LINE
8
Image
10
108.718195
20
193.990606
11
109.765202
21
194.635692
0
LINE
8
Image
10
109.765202
20
194.635692
11
110.695832
21
195.448880
0
LINE
8
Image
10
110.695832
20
195.448880
11
111.515694
21
196.433018
0
LINE
8
Image
10
111.515694
20
196.433018
11
112.230399
21
197.590952
0
LINE
8
Image
10
112.230399
20
197.590952
11
113.123523
21
199.098123
0
LINE
8
Image
10
113.123523
20
199.098123
11
114.129080
21
200.481563
0
LINE
8
Image
10
114.129080
20
200.481563
11
115.243719
21
201.738476
0
LINE
8
Image
10
115.243719
20
201.738476
11
116.464090
21
202.866063
0
LINE
8
Image
10
116.464090
20
202.866063
11
117.786842
21
203.861529
0
LINE
8
Image
10
117.786842
20
203.861529
11
119.208625
21
204.722075
0
LINE
8
Image
10
119.208625
20
204.722075
11
120.726089
21
205.444906
0
LINE
8
Image
10
120.726089
20
205.444906
11
122.335882
21
206.027224
0
LINE
8
Image
10
122.335882
20
206.027224
11
123.671565
21
206.384576
0
LINE
8
Image
10
123.671565
20
206.384576
11
124.987076
21
206.565608
0
LINE
8
Image
10
124.987076
20
206.565608
11
129.064095
21
206.505899
0
LINE
8
Image
10
129.064095
20
206.505899
11
132.804505
21
206.457263
0
LINE
8
Image
10
132.804505
20
206.457263
11
136.578463
21
206.645784
0
LINE
8
Image
10
136.578463
20
206.645784
11
139.985881
21
207.039049
0
LINE
8
Image
10
139.985881
20
207.039049
11
142.626673
21
207.604646
0
LINE
8
Image
10
142.626673
20
207.604646
11
144.924120
21
208.470390
0
LINE
8
Image
10
144.924120
20
208.470390
11
147.121179
21
209.652688
0
LINE
8
Image
10
147.121179
20
209.652688
11
149.221816
21
211.155564
0
LINE
8
Image
10
149.221816
20
211.155564
11
151.229999
21
212.983041
0
LINE
8
Image
10
151.229999
20
212.983041
11
153.149693
21
215.139141
0
LINE
8
Image
10
153.149693
20
215.139141
11
154.984866
21
217.627888
0
LINE
8
Image
10
154.984866
20
217.627888
11
156.739484
21
220.453305
0
LINE
8
Image
10
156.739484
20
220.453305
11
158.417513
21
223.619414
0
LINE
8
Image
10
158.417513
20
223.619414
11
159.340287
21
225.372988
0
LINE
8
Image
10
159.340287
20
225.372988
11
160.084163
21
226.473227
0
LINE
8
Image
10
160.084163
20
226.473227
11
160.665939
21
226.889943
0
LINE
8
Image
10
160.665939
20
226.889943
11
160.901288
21
226.832545
0
LINE
8
Image
10
160.901288
20
226.832545
11
161.102411
21
226.592947
0
LINE
8
Image
10
161.102411
20
226.592947
11
161.410376
21
225.552052
0
LINE
8
Image
10
161.410376
20
225.552052
11
161.606633
21
223.737070
0
LINE
8
Image
10
161.606633
20
223.737070
11
161.731209
21
217.664095
0
LINE
8
Image
10
161.731209
20
217.664095
11
161.575688
21
211.683398
0
LINE
8
Image
10
161.575688
20
211.683398
11
161.288990
21
210.019621
0
LINE
8
Image
10
161.288990
20
210.019621
11
160.764846
21
208.287831
0
LINE
8
Image
10
160.764846
20
208.287831
11
159.431367
21
205.084868
0
LINE
8
Image
10
159.431367
20
205.084868
11
157.689512
21
202.249402
0
LINE
8
Image
10
157.689512
20
202.249402
11
155.544480
21
199.785037
0
LINE
8
Image
10
155.544480
20
199.785037
11
153.001469
21
197.695382
0
LINE
8
Image
10
153.001469
20
197.695382
11
150.065676
21
195.984042
0
LINE
8
Image
10
150.065676
20
195.984042
11
146.742301
21
194.654623
0
LINE
8
Image
10
146.742301
20
194.654623
11
143.036541
21
193.710732
0
LINE
8
Image
10
143.036541
20
193.710732
11
138.953594
21
193.155975
0
LINE
8
Image
10
138.953594
20
193.155975
11
136.265601
21
192.781093
0
LINE
8
Image
10
136.265601
20
192.781093
11
133.474581
21
192.115851
0
LINE
8
Image
10
133.474581
20
192.115851
11
130.700505
21
191.194455
0
LINE
8
Image
10
130.700505
20
191.194455
11
128.063342
21
190.051107
0
LINE
8
Image
10
128.063342
20
190.051107
11
126.399637
21
189.157336
0
LINE
8
Image
10
126.399637
20
189.157336
11
124.895035
21
188.135853
0
LINE
8
Image
10
124.895035
20
188.135853
11
123.250367
21
186.758807
0
LINE
8
Image
10
123.250367
20
186.758807
11
121.166462
21
184.798346
0
LINE
8
Image
10
121.166462
20
184.798346
11
118.603371
21
182.437651
0
LINE
8
Image
10
118.603371
20
182.437651
11
116.464363
21
180.786552
0
LINE
8
Image
10
116.464363
20
180.786552
11
114.474684
21
179.660219
0
LINE
8
Image
10
114.474684
20
179.660219
11
112.359582
21
178.873822
0
LINE
8
Image
10
112.359582
20
178.873822
11
110.419304
21
178.273533
0
LINE
8
Image
10
110.419304
20
178.273533
11
110.290481
21
178.137899
0
LINE
8
Image
10
110.290481
20
178.137899
11
110.448577
21
177.912563
0
LINE
8
Image
10
110.448577
20
177.912563
11
111.641869
21
177.184392
0
LINE
8
Image
10
111.641869
20
177.184392
11
117.651242
21
174.559307
0
LINE
8
Image
10
117.651242
20
174.559307
11
122.237346
21
172.702262
0
LINE
8
Image
10
122.237346
20
172.702262
11
126.294284
21
172.693610
0
LINE
8
Image
10
126.294284
20
172.693610
11
129.489642
21
172.812610
0
LINE
8
Image
10
129.489642
20
172.812610
11
131.800036
21
173.255610
0
LINE
8
Image
10
131.800036
20
173.255610
11
132.724745
21
173.631444
0
LINE
8
Image
10
132.724745
20
173.631444
11
133.549864
21
174.127680
0
LINE
8
Image
10
133.549864
20
174.127680
11
135.063526
21
175.533893
0
LINE
8
Image
10
135.063526
20
175.533893
11
136.152853
21
176.636203
0
LINE
8
Image
10
136.152853
20
176.636203
11
136.842619
21
177.094686
0
LINE
8
Image
10
136.842619
20
177.094686
11
137.239883
21
176.841121
0
LINE
8
Image
10
137.239883
20
176.841121
11
137.616154
21
176.062697
0
LINE
8
Image
10
137.616154
20
176.062697
11
138.343095
21
172.824891
0
LINE
8
Image
10
138.343095
20
172.824891
11
138.563992
21
170.340951
0
LINE
8
Image
10
138.563992
20
170.340951
11
138.308519
21
168.236452
0
LINE
8
Image
10
138.308519
20
168.236452
11
137.544613
21
166.387018
0
LINE
8
Image
10
137.544613
20
166.387018
11
136.240211
21
164.668273
0
LINE
8
Image
10
136.240211
20
164.668273
11
135.041771
21
163.214789
0
LINE
8
Image
10
135.041771
20
163.214789
11
134.947237
21
162.847387
0
LINE
8
Image
10
134.947237
20
162.847387
11
135.131388
21
162.612429
0
LINE
8
Image
10
135.131388
20
162.612429
11
135.885013
21
162.358334
0
LINE
8
Image
10
135.885013
20
162.358334
11
137.038310
21
162.309922
0
LINE
8
Image
10
137.038310
20
162.309922
11
140.661525
21
162.834880
0
LINE
8
Image
10
140.661525
20
162.834880
11
142.566530
21
163.315771
0
LINE
8
Image
10
142.566530
20
163.315771
11
144.296079
21
163.937727
0
LINE
8
Image
10
144.296079
20
163.937727
11
145.857015
21
164.705914
0
LINE
8
Image
10
145.857015
20
164.705914
11
147.256179
21
165.625496
0
LINE
8
Image
10
147.256179
20
165.625496
11
148.500413
21
166.701638
0
LINE
8
Image
10
148.500413
20
166.701638
11
149.596559
21
167.939507
0
LINE
8
Image
10
149.596559
20
167.939507
11
150.551459
21
169.344267
0
LINE
8
Image
10
150.551459
20
169.344267
11
151.371953
21
170.921084
0
LINE
8
Image
10
151.371953
20
170.921084
11
153.051235
21
175.005612
0
LINE
8
Image
10
153.051235
20
175.005612
11
154.158746
21
178.772374
0
LINE
8
Image
10
154.158746
20
178.772374
11
154.812328
21
182.738822
0
LINE
8
Image
10
154.812328
20
182.738822
11
155.129820
21
187.422409
0
LINE
8
Image
10
155.129820
20
187.422409
11
155.360939
21
191.164196
0
LINE
8
Image
10
155.360939
20
191.164196
11
155.651692
21
192.840799
0
LINE
8
Image
10
155.651692
20
192.840799
11
156.175064
21
192.800467
0
LINE
8
Image
10
156.175064
20
192.800467
11
156.869502
21
192.227422
0
LINE
8
Image
10
156.869502
20
192.227422
11
157.677259
21
191.219693
0
LINE
8
Image
10
157.677259
20
191.219693
11
158.540584
21
189.875314
0
LINE
8
Image
10
158.540584
20
189.875314
11
160.202949
21
186.568724
0
LINE
8
Image
10
160.202949
20
186.568724
11
160.886491
21
184.802576
0
LINE
8
Image
10
160.886491
20
184.802576
11
161.394609
21
183.091902
0
LINE
8
Image
10
161.394609
20
183.091902
11
161.867952
21
180.009077
0
LINE
8
Image
10
161.867952
20
180.009077
11
162.146753
21
175.936660
0
LINE
8
Image
10
162.146753
20
175.936660
11
162.196708
21
171.737701
0
LINE
8
Image
10
162.196708
20
171.737701
11
161.983512
21
168.275254
0
LINE
8
Image
10
161.983512
20
168.275254
11
161.310443
21
165.045477
0
LINE
8
Image
10
161.310443
20
165.045477
11
159.999973
21
161.311921
0
LINE
8
Image
10
159.999973
20
161.311921
11
158.397024
21
157.212237
0
LINE
8
Image
10
158.397024
20
157.212237
11
160.108047
21
156.850301
0
LINE
8
Image
10
160.108047
20
156.850301
11
161.956388
21
156.398283
0
LINE
8
Image
10
161.956388
20
156.398283
11
163.790211
21
155.600470
0
LINE
8
Image
10
163.790211
20
155.600470
11
165.361525
21
154.588655
0
LINE
8
Image
10
165.361525
20
154.588655
11
166.422339
21
153.494629
0
LINE
8
Image
10
166.422339
20
153.494629
11
166.934453
21
152.538778
0
LINE
8
Image
10
166.934453
20
152.538778
11
167.169351
21
151.572389
0
LINE
8
Image
10
167.169351
20
151.572389
11
167.138103
21
150.483752
0
LINE
8
Image
10
167.138103
20
150.483752
11
166.851779
21
149.161162
0
LINE
8
Image
10
166.851779
20
149.161162
11
166.620746
21
148.505316
0
LINE
8
Image
10
166.620746
20
148.505316
11
166.319893
21
148.044395
0
LINE
8
Image
10
166.319893
20
148.044395
11
165.893008
21
147.717549
0
LINE
8
Image
10
165.893008
20
147.717549
11
165.283881
21
147.463930
0
LINE
8
Image
10
165.283881
20
147.463930
11
164.126234
21
146.835079
0
LINE
8
Image
10
164.126234
20
146.835079
11
163.038106
21
145.882610
0
LINE
8
Image
10
163.038106
20
145.882610
11
162.094251
21
144.572719
0
LINE
8
Image
10
162.094251
20
144.572719
11
161.522544
21
143.144136
0
LINE
8
Image
10
161.522544
20
143.144136
11
161.282859
21
141.442038
0
LINE
8
Image
10
161.282859
20
141.442038
11
161.335070
21
139.311602
0
LINE
8
Image
10
161.335070
20
139.311602
11
161.546030
21
136.575932
0
LINE
8
Image
10
161.546030
20
136.575932
11
159.115967
21
136.023227
0
LINE
8
Image
10
159.115967
20
136.023227
11
154.101884
21
135.079372
0
LINE
8
Image
10
154.101884
20
135.079372
11
152.701908
21
134.837242
0
LINE
8
Image
10
152.701908
20
134.837242
11
151.827269
21
134.571996
0
LINE
8
Image
10
151.827269
20
134.571996
11
151.267544
21
134.188458
0
LINE
8
Image
10
151.267544
20
134.188458
11
150.812310
21
133.591449
0
LINE
8
Image
10
150.812310
20
133.591449
11
149.959303
21
132.562855
0
LINE
8
Image
10
149.959303
20
132.562855
11
148.860996
21
131.683697
0
LINE
8
Image
10
148.860996
20
131.683697
11
147.624634
21
131.024636
0
LINE
8
Image
10
147.624634
20
131.024636
11
146.357463
21
130.656330
0
LINE
8
Image
10
146.357463
20
130.656330
11
145.584871
21
130.478776
0
LINE
8
Image
10
145.584871
20
130.478776
11
145.053155
21
130.094279
0
LINE
8
Image
10
145.053155
20
130.094279
11
144.561494
21
129.264572
0
LINE
8
Image
10
144.561494
20
129.264572
11
143.909067
21
127.751388
0
LINE
8
Image
10
143.909067
20
127.751388
11
142.564932
21
125.221173
0
LINE
8
Image
10
142.564932
20
125.221173
11
140.552242
21
122.311035
0
LINE
8
Image
10
140.552242
20
122.311035
11
138.150508
21
119.390180
0
LINE
8
Image
10
138.150508
20
119.390180
11
135.639242
21
116.827812
0
LINE
8
Image
10
135.639242
20
116.827812
11
133.737237
21
115.089486
0
LINE
8
Image
10
133.737237
20
115.089486
11
130.103957
21
114.666314
0
LINE
8
Image
10
130.103957
20
114.666314
11
124.278670
21
113.716342
0
LINE
8
Image
10
124.278670
20
113.716342
11
122.639031
21
113.388273
0
LINE
8
Image
10
122.639031
20
113.388273
11
121.468858
21
113.323942
0
LINE
8
Image
10
121.468858
20
113.323942
11
120.677173
21
113.529917
0
LINE
8
Image
10
120.677173
20
113.529917
11
120.173001
21
114.012768
0
LINE
8
Image
10
120.173001
20
114.012768
11
119.996042
21
114.679531
0
LINE
8
Image
10
119.996042
20
114.679531
11
120.289155
21
115.520251
0
LINE
8
Image
10
120.289155
20
115.520251
11
120.664854
21
116.008641
0
LINE
8
Image
10
120.664854
20
116.008641
11
121.294070
21
116.434015
0
LINE
8
Image
10
121.294070
20
116.434015
11
123.800637
21
117.349755
0
LINE
8
Image
10
123.800637
20
117.349755
11
128.721878
21
119.140574
0
LINE
8
Image
10
128.721878
20
119.140574
11
130.754448
21
120.089484
0
LINE
8
Image
10
130.754448
20
120.089484
11
132.210643
21
120.949499
0
LINE
8
Image
10
132.210643
20
120.949499
11
133.047121
21
121.983470
0
LINE
8
Image
10
133.047121
20
121.983470
11
133.949186
21
123.639819
0
LINE
8
Image
10
133.949186
20
123.639819
11
134.598826
21
125.249251
0
LINE
8
Image
10
134.598826
20
125.249251
11
134.729610
21
125.827218
0
LINE
8
Image
10
134.729610
20
125.827218
11
134.678033
21
126.142470
0
LINE
8
Image
10
134.678033
20
126.142470
11
134.379101
21
126.216712
0
LINE
8
Image
10
134.379101
20
126.216712
11
133.887096
21
126.092848
0
LINE
8
Image
10
133.887096
20
126.092848
11
132.537429
21
125.386454
0
LINE
8
Image
10
132.537429
20
125.386454
11
131.056151
21
124.294602
0
LINE
8
Image
10
131.056151
20
124.294602
11
129.870383
21
123.088600
0
LINE
8
Image
10
129.870383
20
123.088600
11
128.787505
21
121.943463
0
LINE
8
Image
10
128.787505
20
121.943463
11
127.493089
21
121.005007
0
LINE
8
Image
10
127.493089
20
121.005007
11
126.072929
21
120.293076
0
LINE
8
Image
10
126.072929
20
120.293076
11
124.612818
21
119.827517
0
LINE
8
Image
10
124.612818
20
119.827517
11
123.198552
21
119.628176
0
LINE
8
Image
10
123.198552
20
119.628176
11
121.915924
21
119.714897
0
LINE
8
Image
10
121.915924
20
119.714897
11
120.850728
21
120.107527
0
LINE
8
Image
10
120.850728
20
120.107527
11
120.088757
21
120.825912
0
LINE
8
Image
10
120.088757
20
120.825912
11
119.727080
21
121.705088
0
LINE
8
Image
10
119.727080
20
121.705088
11
119.873761
21
122.543492
0
LINE
8
Image
10
119.873761
20
122.543492
11
120.562737
21
123.410384
0
LINE
8
Image
10
120.562737
20
123.410384
11
121.827949
21
124.375021
0
LINE
8
Image
10
121.827949
20
124.375021
11
124.815781
21
126.528356
0
LINE
8
Image
10
124.815781
20
126.528356
11
126.153860
21
127.371224
0
LINE
8
Image
10
126.153860
20
127.371224
11
127.731722
21
128.067546
0
LINE
8
Image
10
127.731722
20
128.067546
11
128.663333
21
128.442813
0
LINE
8
Image
10
128.663333
20
128.442813
11
129.398762
21
128.912881
0
LINE
8
Image
10
129.398762
20
128.912881
11
130.069338
21
129.584378
0
LINE
8
Image
10
130.069338
20
129.584378
11
130.806388
21
130.563932
0
LINE
8
Image
10
130.806388
20
130.563932
11
132.257758
21
132.241703
0
LINE
8
Image
10
132.257758
20
132.241703
11
133.887660
21
133.596601
0
LINE
8
Image
10
133.887660
20
133.596601
11
136.301400
21
135.350382
0
LINE
8
Image
10
136.301400
20
135.350382
11
136.823205
21
136.020242
0
LINE
8
Image
10
136.823205
20
136.020242
11
137.100405
21
136.760992
0
LINE
8
Image
10
137.100405
20
136.760992
11
137.179880
21
137.287491
0
LINE
8
Image
10
137.179880
20
137.287491
11
137.079308
21
137.709766
0
LINE
8
Image
10
137.079308
20
137.709766
11
136.142143
21
138.622048
0
LINE
8
Image
10
136.142143
20
138.622048
11
131.933723
21
142.353843
0
LINE
8
Image
10
131.933723
20
142.353843
11
128.387227
21
145.400788
0
LINE
8
Image
10
128.387227
20
145.400788
11
124.873189
21
147.845577
0
LINE
8
Image
10
124.873189
20
147.845577
11
121.401662
21
149.685460
0
LINE
8
Image
10
121.401662
20
149.685460
11
117.982699
21
150.917686
0
LINE
8
Image
10
117.982699
20
150.917686
11
114.626351
21
151.539504
0
LINE
8
Image
10
114.626351
20
151.539504
11
112.974799
21
151.620650
0
LINE
8
Image
10
112.974799
20
151.620650
11
111.342671
21
151.548163
0
LINE
8
Image
10
111.342671
20
151.548163
11
109.731223
21
151.321699
0
LINE
8
Image
10
109.731223
20
151.321699
11
108.141711
21
150.940913
0
LINE
8
Image
10
108.141711
20
150.940913
11
106.575393
21
150.405462
0
LINE
8
Image
10
106.575393
20
150.405462
11
105.033524
21
149.715003
0
LINE
8
Image
10
105.033524
20
149.715003
11
102.130706
21
147.883708
0
LINE
8
Image
10
102.130706
20
147.883708
11
98.878414
21
145.245849
0
LINE
8
Image
10
98.878414
20
145.245849
11
95.726791
21
142.200882
0
LINE
8
Image
10
95.726791
20
142.200882
11
93.125982
21
139.148264
0
LINE
8
Image
10
93.125982
20
139.148264
11
90.916054
21
135.656820
0
LINE
8
Image
10
90.916054
20
135.656820
11
88.919147
21
131.666496
0
LINE
8
Image
10
88.919147
20
131.666496
11
87.566152
21
128.143692
0
LINE
8
Image
10
87.566152
20
128.143692
11
87.265775
21
126.859610
0
LINE
8
Image
10
87.265775
20
126.859610
11
87.287961
21
126.054808
0
LINE
8
Image
10
87.287961
20
126.054808
11
87.291160
21
125.487441
0
LINE
8
Image
10
87.291160
20
125.487441
11
86.992948
21
124.920472
0
LINE
8
Image
10
86.992948
20
124.920472
11
86.536977
21
123.910899
0
LINE
8
Image
10
86.536977
20
123.910899
11
86.187623
21
122.125828
0
LINE
8
Image
10
86.187623
20
122.125828
11
85.824931
21
116.955942
0
LINE
8
Image
10
85.824931
20
116.955942
11
85.937194
21
110.864328
0
LINE
8
Image
10
85.937194
20
110.864328
11
86.181535
21
107.927094
0
LINE
8
Image
10
86.181535
20
107.927094
11
86.556736
21
105.304495
0
LINE
8
Image
10
86.556736
20
105.304495
11
87.342231
21
101.571344
0
LINE
8
Image
10
87.342231
20
101.571344
11
88.343720
21
97.680242
0
LINE
8
Image
10
88.343720
20
97.680242
11
89.525155
21
93.731425
0
LINE
8
Image
10
89.525155
20
93.731425
11
90.850484
21
89.825125
0
LINE
8
Image
10
90.850484
20
89.825125
11
92.283659
21
86.061577
0
LINE
8
Image
10
92.283659
20
86.061577
11
93.788629
21
82.541015
0
LINE
8
Image
10
93.788629
20
82.541015
11
95.329345
21
79.363673
0
LINE
8
Image
10
95.329345
20
79.363673
11
96.869758
21
76.629785
0
LINE
8
Image
10
96.869758
20
76.629785
11
98.812700
21
73.682861
0
LINE
8
Image
10
98.812700
20
73.682861
11
101.122810
21
70.564718
0
LINE
8
Image
10
101.122810
20
70.564718
11
103.844266
21
67.226825
0
LINE
8
Image
10
103.844266
20
67.226825
11
107.021242
21
63.620653
0
LINE
8
Image
10
107.021242
20
63.620653
11
114.918458
21
55.409355
0
LINE
8
Image
10
114.918458
20
55.409355
11
125.167865
21
45.542585
0
LINE
8
Image
10
125.167865
20
45.542585
11
130.245958
21
40.553784
0
LINE
8
Image
10
130.245958
20
40.553784
11
135.056544
21
35.376293
0
LINE
8
Image
10
135.056544
20
35.376293
11
139.547432
21
30.081299
0
LINE
8
Image
10
139.547432
20
30.081299
11
143.666432
21
24.739987
0
LINE
8
Image
10
143.666432
20
24.739987
11
147.361352
21
19.423544
0
LINE
8
Image
10
147.361352
20
19.423544
11
150.580001
21
14.203156
0
LINE
8
Image
10
150.580001
20
14.203156
11
153.270188
21
9.150009
0
LINE
8
Image
10
153.270188
20
9.150009
11
155.379722
21
4.335288
0
LINE
8
Image
10
155.379722
20
4.335288
11
156.554571
21
0.828624
0
LINE
8
Image
10
156.554571
20
0.828624
11
156.522803
21
0.175562
0
LINE
8
Image
10
156.522803
20
0.175562
11
156.121996
21
0.000466
0
LINE
8
Image
10
156.121996
20
0.000466
11
155.867534
21
0.138649
0
LINE
8
Image
10
155.867534
20
0.138649
11
155.582520
21
0.531610
0
LINE
8
Image
10
155.582520
20
0.531610
11
154.995579
21
1.952348
0
LINE
8
Image
10
154.995579
20
1.952348
11
154.451502
21
3.288379
0
LINE
8
Image
10
154.451502
20
3.288379
11
154.200748
21
3.661733
0
LINE
8
Image
10
154.200748
20
3.661733
11
154.007414
21
3.759582
0
LINE
8
Image
10
154.007414
20
3.759582
11
151.014076
21
1.807674
0
LINE
8
Image
10
151.014076
20
1.807674
11
148.707551
21
0.407233
0
LINE
8
Image
10
148.707551
20
0.407233
11
147.877800
21
0.096528
0
LINE
8
Image
10
147.877800
20
0.096528
11
147.167888
21
0.000466
0
LINE
8
Image
10
147.167888
20
0.000466
11
146.552239
21
0.043759
0
LINE
8
Image
10
146.552239
20
0.043759
11
146.469614
21
0.127627
0
LINE
8
Image
10
146.469614
20
0.127627
11
146.562933
21
0.279422
0
LINE
8
Image
10
146.562933
20
0.279422
11
149.082786
21
1.962561
0
LINE
8
Image
10
149.082786
20
1.962561
11
151.534818
21
3.578213
0
LINE
8
Image
10
151.534818
20
3.578213
11
153.019877
21
4.707318
0
LINE
8
Image
10
153.019877
20
4.707318
11
153.816332
21
5.489955
0
LINE
8
Image
10
153.816332
20
5.489955
11
151.561736
21
9.954264
0
LINE
8
Image
10
151.561736
20
9.954264
11
149.552157
21
13.598130
0
LINE
8
Image
10
149.552157
20
13.598130
11
146.923120
21
18.006688
0
LINE
8
Image
10
146.923120
20
18.006688
11
144.569294
21
21.721411
0
LINE
8
Image
10
144.569294
20
21.721411
11
143.385343
21
23.283770
0
LINE
8
Image
10
143.385343
20
23.283770
11
140.643528
21
21.399013
0
LINE
8
Image
10
140.643528
20
21.399013
11
137.956749
21
19.664602
0
LINE
8
Image
10
137.956749
20
19.664602
11
134.912661
21
18.061009
0
LINE
8
Image
10
134.912661
20
18.061009
11
131.508827
21
16.587443
0
LINE
8
Image
10
131.508827
20
16.587443
11
127.742812
21
15.243116
0
LINE
8
Image
10
127.742812
20
15.243116
11
123.612178
21
14.027235
0
LINE
8
Image
10
123.612178
20
14.027235
11
119.114489
21
12.939012
0
LINE
8
Image
10
119.114489
20
12.939012
11
114.247307
21
11.977654
0
LINE
8
Image
10
114.247307
20
11.977654
11
109.008196
21
11.142374
0
LINE
8
Image
10
109.008196
20
11.142374
11
99.646878
21
9.990290
0
LINE
8
Image
10
99.646878
20
9.990290
11
93.221409
21
9.526645
0
LINE
8
Image
10
93.221409
20
9.526645
11
92.081357
21
9.642839
0
LINE
8
Image
10
92.081357
20
9.642839
11
91.809973
21
9.794122
0
LINE
8
Image
10
91.809973
20
9.794122
11
91.722108
21
10.012895
0
LINE
8
Image
10
91.722108
20
10.012895
11
91.884352
21
10.253227
0
LINE
8
Image
10
91.884352
20
10.253227
11
92.411992
21
10.444731
0
LINE
8
Image
10
92.411992
20
10.444731
11
94.808907
21
10.738990
0
LINE
8
Image
10
94.808907
20
10.738990
11
105.562073
21
11.840060
0
LINE
8
Image
10
105.562073
20
11.840060
11
115.337738
21
13.386907
0
LINE
8
Image
10
115.337738
20
13.386907
11
119.785122
21
14.313416
0
LINE
8
Image
10
119.785122
20
14.313416
11
123.899468
21
15.334473
0
LINE
8
Image
10
123.899468
20
15.334473
11
127.651222
21
16.444446
0
LINE
8
Image
10
127.651222
20
16.444446
11
131.010828
21
17.637701
0
LINE
8
Image
10
131.010828
20
17.637701
11
133.832955
21
18.883664
0
LINE
8
Image
10
133.832955
20
18.883664
11
136.815978
21
20.432911
0
LINE
8
Image
10
136.815978
20
20.432911
11
139.551276
21
22.058572
0
LINE
8
Image
10
139.551276
20
22.058572
11
141.630227
21
23.533774
0
LINE
8
Image
10
141.630227
20
23.533774
11
142.580164
21
24.312971
0
LINE
8
Image
10
142.580164
20
24.312971
11
141.585377
21
25.650438
0
LINE
8
Image
10
141.585377
20
25.650438
11
137.206356
21
31.041069
0
LINE
8
Image
10
137.206356
20
31.041069
11
132.230937
21
36.822905
0
LINE
8
Image
10
132.230937
20
36.822905
11
130.342097
21
38.896792
0
LINE
8
Image
10
130.342097
20
38.896792
11
127.816055
21
36.999295
0
LINE
8
Image
10
127.816055
20
36.999295
11
124.521451
21
34.813825
0
LINE
8
Image
10
124.521451
20
34.813825
11
120.764533
21
32.850054
0
LINE
8
Image
10
120.764533
20
32.850054
11
116.576689
21
31.116988
0
LINE
8
Image
10
116.576689
20
31.116988
11
111.989309
21
29.623634
0
LINE
8
Image
10
111.989309
20
29.623634
11
107.033782
21
28.378998
0
LINE
8
Image
10
107.033782
20
28.378998
11
101.741499
21
27.392087
0
LINE
8
Image
10
101.741499
20
27.392087
11
96.143848
21
26.671908
0
LINE
8
Image
10
96.143848
20
26.671908
11
90.272219
21
26.227467
0
LINE
8
Image
10
90.272219
20
26.227467
11
86.509404
21
25.936916
0
LINE
8
Image
10
86.509404
20
25.936916
11
85.913848
21
25.733813
0
LINE
8
Image
10
85.913848
20
25.733813
11
85.845542
21
25.432925
0
LINE
8
Image
10
85.845542
20
25.432925
11
88.001848
21
19.050442
0
LINE
8
Image
10
88.001848
20
19.050442
11
89.476085
21
14.303601
0
LINE
8
Image
10
89.476085
20
14.303601
11
91.165275
21
8.337103
0
LINE
8
Image
10
91.165275
20
8.337103
11
92.555593
21
3.031693
0
LINE
8
Image
10
92.555593
20
3.031693
11
93.133216
21
0.268118
0
LINE
8
Image
10
93.133216
20
0.268118
11
92.925959
21
0.079087
0
LINE
8
Image
10
92.925959
20
0.079087
11
92.427660
21
0.000466
0
LINE
8
Image
10
92.427660
20
0.000466
11
91.907005
21
0.169085
0
LINE
8
Image
10
91.907005
20
0.169085
11
91.722108
21
0.643932
0
LINE
8
Image
10
91.722108
20
0.643932
11
90.302046
21
7.048798
0
LINE
8
Image
10
90.302046
20
7.048798
11
88.007773
21
15.245236
0
LINE
8
Image
10
88.007773
20
15.245236
11
85.127804
21
23.802927
0
LINE
8
Image
10
85.127804
20
23.802927
11
81.902238
21
32.060611
0
LINE
8
Image
10
81.902238
20
32.060611
11
78.571176
21
39.357023
0
LINE
8
Image
10
78.571176
20
39.357023
11
74.621981
21
47.727833
0
LINE
8
Image
10
74.621981
20
47.727833
11
71.231133
21
55.945357
0
LINE
8
Image
10
71.231133
20
55.945357
11
68.408474
21
63.970943
0
LINE
8
Image
10
68.408474
20
63.970943
11
66.163847
21
71.765939
0
LINE
8
Image
10
66.163847
20
71.765939
11
64.507095
21
79.291691
0
LINE
8
Image
10
64.507095
20
79.291691
11
63.448061
21
86.509547
0
LINE
8
Image
10
63.448061
20
86.509547
11
62.996587
21
93.380855
0
LINE
8
Image
10
62.996587
20
93.380855
11
63.001761
21
96.674475
0
LINE
8
Image
10
63.001761
20
96.674475
11
63.162516
21
99.866962
0
LINE
8
Image
10
63.162516
20
99.866962
11
63.581238
21
103.947647
0
LINE
8
Image
10
63.581238
20
103.947647
11
64.206088
21
107.822293
0
LINE
8
Image
10
64.206088
20
107.822293
11
65.047482
21
111.521591
0
LINE
8
Image
10
65.047482
20
111.521591
11
66.115836
21
115.076231
0
LINE
8
Image
10
66.115836
20
115.076231
11
67.421566
21
118.516904
0
LINE
8
Image
10
67.421566
20
118.516904
11
68.975088
21
121.874302
0
LINE
8
Image
10
68.975088
20
121.874302
11
70.786818
21
125.179114
0
LINE
8
Image
10
70.786818
20
125.179114
11
72.867172
21
128.462032
0
LINE
8
Image
10
72.867172
20
128.462032
11
74.645511
21
131.169739
0
LINE
8
Image
10
74.645511
20
131.169739
11
75.230318
21
132.218478
0
LINE
8
Image
10
75.230318
20
132.218478
11
70.010631
21
129.750312
0
LINE
8
Image
10
70.010631
20
129.750312
11
68.708417
21
129.374955
0
LINE
8
Image
10
68.708417
20
129.374955
11
67.556858
21
129.297598
0
LINE
8
Image
10
67.556858
20
129.297598
11
65.998130
21
129.521389
0
LINE
8
Image
10
65.998130
20
129.521389
11
64.242260
21
130.112874
0
LINE
8
Image
10
64.242260
20
130.112874
11
62.552225
21
130.962102
0
LINE
8
Image
10
62.552225
20
130.962102
11
61.191002
21
131.959123
0
LINE
8
Image
10
61.191002
20
131.959123
11
60.735296
21
132.304496
0
LINE
8
Image
10
60.735296
20
132.304496
11
60.248322
21
132.227806
0
LINE
8
Image
10
60.248322
20
132.227806
11
59.438939
21
131.562385
0
LINE
8
Image
10
59.438939
20
131.562385
11
58.016006
21
130.141568
0
LINE
8
Image
10
58.016006
20
130.141568
11
55.213481
21
127.480986
0
LINE
8
Image
10
55.213481
20
127.480986
11
51.782625
21
124.476714
0
LINE
8
Image
10
51.782625
20
124.476714
11
48.385625
21
121.690346
0
LINE
8
Image
10
48.385625
20
121.690346
11
45.684666
21
119.683475
0
LINE
8
Image
10
45.684666
20
119.683475
11
42.040999
21
117.511427
0
LINE
8
Image
10
42.040999
20
117.511427
11
38.288369
21
115.909577
0
LINE
8
Image
10
38.288369
20
115.909577
11
36.183733
21
115.155407
0
LINE
8
Image
10
36.183733
20
115.155407
11
35.181969
21
112.010861
0
LINE
8
Image
10
35.181969
20
112.010861
11
33.978931
21
107.650778
0
LINE
8
Image
10
33.978931
20
107.650778
11
33.201613
21
103.242090
0
LINE
8
Image
10
33.201613
20
103.242090
11
32.780818
21
98.241355
0
LINE
8
Image
10
32.780818
20
98.241355
11
32.647349
21
92.105131
0
LINE
8
Image
10
32.647349
20
92.105131
11
32.729433
21
85.589341
0
LINE
8
Image
10
32.729433
20
85.589341
11
32.861884
21
84.175968
0
LINE
8
Image
10
32.861884
20
84.175968
11
33.070057
21
83.698210
0
LINE
8
Image
10
33.070057
20
83.698210
11
33.320521
21
83.440994
0
LINE
8
Image
10
33.320521
20
83.440994
11
33.196700
21
82.962868
0
LINE
8
Image
10
33.196700
20
82.962868
11
33.066448
21
82.114629
0
LINE
8
Image
10
33.066448
20
82.114629
11
33.136530
21
80.541409
0
LINE
8
Image
10
33.136530
20
80.541409
11
33.800757
21
75.676324
0
LINE
8
Image
10
33.800757
20
75.676324
11
35.035490
21
69.280208
0
LINE
8
Image
10
35.035490
20
69.280208
11
36.686841
21
62.265656
0
LINE
8
Image
10
36.686841
20
62.265656
11
38.988653
21
54.062439
0
LINE
8
Image
10
38.988653
20
54.062439
11
39.772631
21
51.896881
0
LINE
8
Image
10
39.772631
20
51.896881
11
40.269707
21
51.153170
0
LINE
8
Image
10
40.269707
20
51.153170
11
40.475149
21
50.998054
0
LINE
8
Image
10
40.475149
20
50.998054
11
40.442244
21
50.625113
0
LINE
8
Image
10
40.442244
20
50.625113
11
40.539057
21
49.761828
0
LINE
8
Image
10
40.539057
20
49.761828
11
41.047169
21
47.962576
0
LINE
8
Image
10
41.047169
20
47.962576
11
43.044439
21
42.237381
0
LINE
8
Image
10
43.044439
20
42.237381
11
45.928358
21
34.811951
0
LINE
8
Image
10
45.928358
20
34.811951
11
49.193229
21
27.048707
0
LINE
8
Image
10
49.193229
20
27.048707
11
50.596689
21
23.679808
0
LINE
8
Image
10
50.596689
20
23.679808
11
51.320614
21
21.610177
0
LINE
8
Image
10
51.320614
20
21.610177
11
51.663376
21
20.704129
0
LINE
8
Image
10
51.663376
20
20.704129
11
52.150421
21
20.132825
0
LINE
8
Image
10
52.150421
20
20.132825
11
52.516460
21
19.787597
0
LINE
8
Image
10
52.516460
20
19.787597
11
52.358094
21
19.413476
0
LINE
8
Image
10
52.358094
20
19.413476
11
52.216972
21
19.056377
0
LINE
8
Image
10
52.216972
20
19.056377
11
52.207637
21
18.366230
0
LINE
8
Image
10
52.207637
20
18.366230
11
52.598283
21
15.775539
0
LINE
8
Image
10
52.598283
20
15.775539
11
53.149707
21
12.117880
0
LINE
8
Image
10
53.149707
20
12.117880
11
53.573881
21
7.924608
0
LINE
8
Image
10
53.573881
20
7.924608
11
53.796819
21
4.111165
0
LINE
8
Image
10
53.796819
20
4.111165
11
53.744533
21
1.592991
0
LINE
8
Image
10
53.744533
20
1.592991
11
53.464462
21
0.456647
0
LINE
8
Image
10
53.464462
20
0.456647
11
53.092262
21
0.000466
0
LINE
8
Image
10
53.092262
20
0.000466
11
52.881040
21
0.289466
0
LINE
8
Image
10
52.881040
20
0.289466
11
52.714772
21
1.219453
0
LINE
8
Image
10
52.714772
20
1.219453
11
52.473638
21
5.380311
0
LINE
8
Image
10
52.473638
20
5.380311
11
52.206123
21
9.583324
0
LINE
8
Image
10
52.206123
20
9.583324
11
51.754772
21
13.670583
0
LINE
8
Image
10
51.754772
20
13.670583
11
51.237751
21
16.765656
0
LINE
8
Image
10
51.237751
20
16.765656
11
50.991540
21
17.667237
0
LINE
8
Image
10
50.991540
20
17.667237
11
50.773224
21
17.992110
0
LINE
8
Image
10
50.773224
20
17.992110
11
49.979811
21
17.370854
0
LINE
8
Image
10
49.979811
20
17.370854
11
48.566664
21
15.773373
0
LINE
8
Image
10
48.566664
20
15.773373
11
45.201124
21
11.247466
0
LINE
8
Image
10
45.201124
20
11.247466
11
43.157950
21
7.896049
0
LINE
8
Image
10
43.157950
20
7.896049
11
41.081699
21
4.108011
0
LINE
8
Image
10
41.081699
20
4.108011
11
39.335536
21
0.985819
0
LINE
8
Image
10
39.335536
20
0.985819
11
38.764804
21
0.245249
0
LINE
8
Image
10
38.764804
20
0.245249
11
38.364535
21
0.004726
0
LINE
8
Image
10
38.364535
20
0.004726
11
37.928525
21
0.080056
0
LINE
8
Image
10
37.928525
20
0.080056
11
37.747176
21
0.267562
0
LINE
8
Image
10
37.747176
20
0.267562
11
37.747176
21
0.267573
0
LINE
8
Image
10
50.094380
20
21.376984
11
49.205878
21
23.863012
0
LINE
8
Image
10
49.205878
20
23.863012
11
47.069694
21
29.049891
0
LINE
8
Image
10
47.069694
20
29.049891
11
42.189698
21
41.181113
0
LINE
8
Image
10
42.189698
20
41.181113
11
40.279342
21
46.277822
0
LINE
8
Image
10
40.279342
20
46.277822
11
39.511060
21
48.679624
0
LINE
8
Image
10
39.511060
20
48.679624
11
39.375906
21
49.073164
0
LINE
8
Image
10
39.375906
20
49.073164
11
39.006003
21
48.858492
0
LINE
8
Image
10
39.006003
20
48.858492
11
38.454689
21
48.092394
0
LINE
8
Image
10
38.454689
20
48.092394
11
37.775301
21
46.831657
0
LINE
8
Image
10
37.775301
20
46.831657
11
36.589325
21
44.020136
0
LINE
8
Image
10
36.589325
20
44.020136
11
35.890539
21
41.093134
0
LINE
8
Image
10
35.890539
20
41.093134
11
35.559141
21
37.265088
0
LINE
8
Image
10
35.559141
20
37.265088
11
35.475328
21
31.750437
0
LINE
8
Image
10
35.475328
20
31.750437
11
35.556208
21
25.747720
0
LINE
8
Image
10
35.556208
20
25.747720
11
35.750593
21
22.461906
0
LINE
8
Image
10
35.750593
20
22.461906
11
36.025804
21
21.110893
0
LINE
8
Image
10
36.025804
20
21.110893
11
38.562181
21
21.319649
0
LINE
8
Image
10
38.562181
20
21.319649
11
42.422717
21
21.355258
0
LINE
8
Image
10
42.422717
20
21.355258
11
49.477021
21
20.865386
0
LINE
8
Image
10
49.477021
20
20.865386
11
49.917422
21
20.990246
0
LINE
8
Image
10
49.917422
20
20.990246
11
50.094380
21
21.376984
0
LINE
8
Image
10
50.094380
20
21.376984
11
50.094380
21
21.376984
0
LINE
8
Image
10
97.542934
20
28.059848
11
103.445780
21
28.869897
0
LINE
8
Image
10
103.445780
20
28.869897
11
108.944826
21
29.994359
0
LINE
8
Image
10
108.944826
20
29.994359
11
114.009517
21
31.425842
0
LINE
8
Image
10
114.009517
20
31.425842
11
118.609299
21
33.156954
0
LINE
8
Image
10
118.609299
20
33.156954
11
121.300110
21
34.430366
0
LINE
8
Image
10
121.300110
20
34.430366
11
124.038031
21
35.917875
0
LINE
8
Image
10
124.038031
20
35.917875
11
126.485803
21
37.424738
0
LINE
8
Image
10
126.485803
20
37.424738
11
128.306166
21
38.756211
0
LINE
8
Image
10
128.306166
20
38.756211
11
129.436102
21
39.711599
0
LINE
8
Image
10
129.436102
20
39.711599
11
127.411140
21
41.816423
0
LINE
8
Image
10
127.411140
20
41.816423
11
121.614536
21
47.397269
0
LINE
8
Image
10
121.614536
20
47.397269
11
117.842895
21
50.873292
0
LINE
8
Image
10
117.842895
20
50.873292
11
115.625353
21
49.472788
0
LINE
8
Image
10
115.625353
20
49.472788
11
112.385499
21
47.621303
0
LINE
8
Image
10
112.385499
20
47.621303
11
108.925568
21
46.021915
0
LINE
8
Image
10
108.925568
20
46.021915
11
105.238827
21
44.672997
0
LINE
8
Image
10
105.238827
20
44.672997
11
101.318540
21
43.572920
0
LINE
8
Image
10
101.318540
20
43.572920
11
97.157974
21
42.720059
0
LINE
8
Image
10
97.157974
20
42.720059
11
92.750394
21
42.112784
0
LINE
8
Image
10
92.750394
20
42.112784
11
88.089066
21
41.749469
0
LINE
8
Image
10
88.089066
20
41.749469
11
83.167255
21
41.628487
0
LINE
8
Image
10
83.167255
20
41.628487
11
80.128181
21
41.532428
0
LINE
8
Image
10
80.128181
20
41.532428
11
79.307360
21
41.419368
0
LINE
8
Image
10
79.307360
20
41.419368
11
79.022124
21
41.269006
0
LINE
8
Image
10
79.022124
20
41.269006
11
80.738725
21
37.476648
0
LINE
8
Image
10
80.738725
20
37.476648
11
83.781556
21
30.692105
0
LINE
8
Image
10
83.781556
20
30.692105
11
85.213384
21
27.152804
0
LINE
8
Image
10
85.213384
20
27.152804
11
86.216015
21
27.097128
0
LINE
8
Image
10
86.216015
20
27.097128
11
88.821401
21
27.245656
0
LINE
8
Image
10
88.821401
20
27.245656
11
97.542934
21
28.059848
0
LINE
8
Image
10
97.542934
20
28.059848
11
97.542934
21
28.059848
0
LINE
8
Image
10
84.942033
20
42.873056
11
89.469550
21
43.073711
0
LINE
8
Image
10
89.469550
20
43.073711
11
93.743467
21
43.468580
0
LINE
8
Image
10
93.743467
20
43.468580
11
97.766029
21
44.058204
0
LINE
8
Image
10
97.766029
20
44.058204
11
101.539481
21
44.843127
0
LINE
8
Image
10
101.539481
20
44.843127
11
105.066069
21
45.823892
0
LINE
8
Image
10
105.066069
20
45.823892
11
108.348038
21
47.001042
0
LINE
8
Image
10
108.348038
20
47.001042
11
111.387635
21
48.375121
0
LINE
8
Image
10
111.387635
20
48.375121
11
114.187104
21
49.946672
0
LINE
8
Image
10
114.187104
20
49.946672
11
116.844771
21
51.603120
0
LINE
8
Image
10
116.844771
20
51.603120
11
112.774096
21
55.673796
0
LINE
8
Image
10
112.774096
20
55.673796
11
108.703420
21
59.744471
0
LINE
8
Image
10
108.703420
20
59.744471
11
105.592617
21
58.303142
0
LINE
8
Image
10
105.592617
20
58.303142
11
100.402850
21
56.181212
0
LINE
8
Image
10
100.402850
20
56.181212
11
94.394793
21
54.235167
0
LINE
8
Image
10
94.394793
20
54.235167
11
87.657054
21
52.490661
0
LINE
8
Image
10
87.657054
20
52.490661
11
80.278242
21
50.973352
0
LINE
8
Image
10
80.278242
20
50.973352
11
75.207006
21
49.925098
0
LINE
8
Image
10
75.207006
20
49.925098
11
75.229626
21
49.486459
0
LINE
8
Image
10
75.229626
20
49.486459
11
75.531609
21
48.570971
0
LINE
8
Image
10
75.531609
20
48.570971
11
76.652482
21
45.986112
0
LINE
8
Image
10
76.652482
20
45.986112
11
77.927261
21
43.523840
0
LINE
8
Image
10
77.927261
20
43.523840
11
78.421628
21
42.761587
0
LINE
8
Image
10
78.421628
20
42.761587
11
78.713585
21
42.537477
0
LINE
8
Image
10
78.713585
20
42.537477
11
80.679449
21
42.720265
0
LINE
8
Image
10
80.679449
20
42.720265
11
84.942033
21
42.873056
0
LINE
8
Image
10
84.942033
20
42.873056
11
84.942033
21
42.873056
0
LINE
8
Image
10
80.502098
20
52.221054
11
84.902550
21
53.089384
0
LINE
8
Image
10
84.902550
20
53.089384
11
89.671741
21
54.192146
0
LINE
8
Image
10
89.671741
20
54.192146
11
94.197516
21
55.378576
0
LINE
8
Image
10
94.197516
20
55.378576
11
97.867717
21
56.497911
0
LINE
8
Image
10
97.867717
20
56.497911
11
104.312728
21
59.009364
0
LINE
8
Image
10
104.312728
20
59.009364
11
106.669495
21
60.114292
0
LINE
8
Image
10
106.669495
20
60.114292
11
107.597088
21
60.746622
0
LINE
8
Image
10
107.597088
20
60.746622
11
106.841597
21
61.822572
0
LINE
8
Image
10
106.841597
20
61.822572
11
105.025203
21
63.959427
0
LINE
8
Image
10
105.025203
20
63.959427
11
100.583286
21
69.233021
0
LINE
8
Image
10
100.583286
20
69.233021
11
98.480867
21
71.609765
0
LINE
8
Image
10
98.480867
20
71.609765
11
95.441983
21
70.709071
0
LINE
8
Image
10
95.441983
20
70.709071
11
91.883026
21
69.702796
0
LINE
8
Image
10
91.883026
20
69.702796
11
87.439590
21
68.660323
0
LINE
8
Image
10
87.439590
20
68.660323
11
76.729070
21
66.646915
0
LINE
8
Image
10
76.729070
20
66.646915
11
69.593899
21
65.423883
0
LINE
8
Image
10
69.593899
20
65.423883
11
69.518178
21
65.156101
0
LINE
8
Image
10
69.518178
20
65.156101
11
69.615372
21
64.483759
0
LINE
8
Image
10
69.615372
20
64.483759
11
70.271952
21
62.105221
0
LINE
8
Image
10
70.271952
20
62.105221
11
73.038045
21
54.471496
0
LINE
8
Image
10
73.038045
20
54.471496
11
73.838601
21
52.478199
0
LINE
8
Image
10
73.838601
20
52.478199
11
74.328330
21
51.520578
0
LINE
8
Image
10
74.328330
20
51.520578
11
74.768362
21
51.255118
0
LINE
8
Image
10
74.768362
20
51.255118
11
75.419834
21
51.338304
0
LINE
8
Image
10
75.419834
20
51.338304
11
80.502098
21
52.221054
0
LINE
8
Image
10
80.502098
20
52.221054
11
80.502098
21
52.221054
0
LINE
8
Image
10
38.264996
20
52.247248
11
36.511137
21
58.278005
0
LINE
8
Image
10
36.511137
20
58.278005
11
34.809364
21
65.004282
0
LINE
8
Image
10
34.809364
20
65.004282
11
33.369869
21
71.538758
0
LINE
8
Image
10
33.369869
20
71.538758
11
32.402845
21
76.994111
0
LINE
8
Image
10
32.402845
20
76.994111
11
32.030921
21
79.174165
0
LINE
8
Image
10
32.030921
20
79.174165
11
31.756630
21
80.080914
0
LINE
8
Image
10
31.756630
20
80.080914
11
31.154492
21
79.110775
0
LINE
8
Image
10
31.154492
20
79.110775
11
28.994603
21
74.260088
0
LINE
8
Image
10
28.994603
20
74.260088
11
27.369469
21
70.431350
0
LINE
8
Image
10
27.369469
20
70.431350
11
25.937253
21
66.675374
0
LINE
8
Image
10
25.937253
20
66.675374
11
23.605654
21
58.898000
0
LINE
8
Image
10
23.605654
20
58.898000
11
22.626719
21
55.121759
0
LINE
8
Image
10
22.626719
20
55.121759
11
22.224972
21
53.078279
0
LINE
8
Image
10
22.224972
20
53.078279
11
22.414219
21
52.818536
0
LINE
8
Image
10
22.414219
20
52.818536
11
23.119157
21
52.658226
0
LINE
8
Image
10
23.119157
20
52.658226
11
26.899273
21
52.541345
0
LINE
8
Image
10
26.899273
20
52.541345
11
31.029522
21
52.390851
0
LINE
8
Image
10
31.029522
20
52.390851
11
34.395790
21
52.061248
0
LINE
8
Image
10
34.395790
20
52.061248
11
37.993461
21
51.578579
0
LINE
8
Image
10
37.993461
20
51.578579
11
38.360943
21
51.760152
0
LINE
8
Image
10
38.360943
20
51.760152
11
38.264996
21
52.247258
0
LINE
8
Image
10
38.264996
20
52.247258
11
38.264996
21
52.247248
0
LINE
8
Image
10
75.330180
20
67.542973
11
82.874112
21
68.911526
0
LINE
8
Image
10
82.874112
20
68.911526
11
89.818481
21
70.390203
0
LINE
8
Image
10
89.818481
20
70.390203
11
95.058373
21
71.723962
0
LINE
8
Image
10
95.058373
20
71.723962
11
96.693856
21
72.256797
0
LINE
8
Image
10
96.693856
20
72.256797
11
97.488877
21
72.657762
0
LINE
8
Image
10
97.488877
20
72.657762
11
97.333353
21
73.438862
0
LINE
8
Image
10
97.333353
20
73.438862
11
96.539958
21
74.902900
0
LINE
8
Image
10
96.539958
20
74.902900
11
94.171466
21
79.006924
0
LINE
8
Image
10
94.171466
20
79.006924
11
93.173346
21
80.635649
0
LINE
8
Image
10
93.173346
20
80.635649
11
92.802262
21
80.951607
0
LINE
8
Image
10
92.802262
20
80.951607
11
92.474555
21
80.984166
0
LINE
8
Image
10
92.474555
20
80.984166
11
89.004824
21
80.417973
0
LINE
8
Image
10
89.004824
20
80.417973
11
82.843891
21
79.801395
0
LINE
8
Image
10
82.843891
20
79.801395
11
75.479668
21
79.261642
0
LINE
8
Image
10
75.479668
20
79.261642
11
68.400066
21
78.925921
0
LINE
8
Image
10
68.400066
20
78.925921
11
65.715501
21
78.846192
0
LINE
8
Image
10
65.715501
20
78.846192
11
66.543924
21
75.142030
0
LINE
8
Image
10
66.543924
20
75.142030
11
67.465920
21
71.267376
0
LINE
8
Image
10
67.465920
20
71.267376
11
68.228642
21
68.640490
0
LINE
8
Image
10
68.228642
20
68.640490
11
68.870853
21
67.147709
0
LINE
8
Image
10
68.870853
20
67.147709
11
69.158880
21
66.791090
0
LINE
8
Image
10
69.158880
20
66.791090
11
69.431315
21
66.675374
0
LINE
8
Image
10
69.431315
20
66.675374
11
75.330180
21
67.542973
0
LINE
8
Image
10
75.330180
20
67.542973
11
75.330180
21
67.542973
0
LINE
8
Image
10
26.465907
20
82.502319
11
30.770040
21
83.330932
0
LINE
8
Image
10
30.770040
20
83.330932
11
30.955580
21
83.413695
0
LINE
8
Image
10
30.955580
20
83.413695
11
31.101956
21
83.645629
0
LINE
8
Image
10
31.101956
20
83.645629
11
31.302600
21
84.873773
0
LINE
8
Image
10
31.302600
20
84.873773
11
31.513126
21
92.604511
0
LINE
8
Image
10
31.513126
20
92.604511
11
31.653424
21
98.373730
0
LINE
8
Image
10
31.653424
20
98.373730
11
31.936571
21
102.521723
0
LINE
8
Image
10
31.936571
20
102.521723
11
32.461297
21
105.977805
0
LINE
8
Image
10
32.461297
20
105.977805
11
33.326335
21
109.671286
0
LINE
8
Image
10
33.326335
20
109.671286
11
33.752224
21
112.062870
0
LINE
8
Image
10
33.752224
20
112.062870
11
33.283647
21
111.674487
0
LINE
8
Image
10
33.283647
20
111.674487
11
32.373249
21
110.524540
0
LINE
8
Image
10
32.373249
20
110.524540
11
28.157264
21
104.223565
0
LINE
8
Image
10
28.157264
20
104.223565
11
26.346865
21
101.109956
0
LINE
8
Image
10
26.346865
20
101.109956
11
24.712385
21
97.975222
0
LINE
8
Image
10
24.712385
20
97.975222
11
23.236968
21
94.785079
0
LINE
8
Image
10
23.236968
20
94.785079
11
21.903757
21
91.505243
0
LINE
8
Image
10
21.903757
20
91.505243
11
20.695895
21
88.101432
0
LINE
8
Image
10
20.695895
20
88.101432
11
19.596525
21
84.539362
0
LINE
8
Image
10
19.596525
20
84.539362
11
18.915041
21
82.096111
0
LINE
8
Image
10
18.915041
20
82.096111
11
18.797922
21
80.952754
0
LINE
8
Image
10
18.797922
20
80.952754
11
18.988225
21
80.757259
0
LINE
8
Image
10
18.988225
20
80.757259
11
19.364292
21
80.753205
0
LINE
8
Image
10
19.364292
20
80.753205
11
20.733275
21
81.141375
0
LINE
8
Image
10
20.733275
20
81.141375
11
26.465907
21
82.502319
0
LINE
8
Image
10
26.465907
20
82.502319
11
26.465907
21
82.502319
0
LINE
8
Image
10
81.491564
20
80.787583
11
88.609316
21
81.551439
0
LINE
8
Image
10
88.609316
20
81.551439
11
90.946728
21
81.900894
0
LINE
8
Image
10
90.946728
20
81.900894
11
92.032291
21
82.171265
0
LINE
8
Image
10
92.032291
20
82.171265
11
92.132375
21
82.500612
0
LINE
8
Image
10
92.132375
20
82.500612
11
91.994657
21
83.251514
0
LINE
8
Image
10
91.994657
20
83.251514
11
90.959717
21
86.190736
0
LINE
8
Image
10
90.959717
20
86.190736
11
89.480179
21
89.958691
0
LINE
8
Image
10
89.480179
20
89.958691
11
87.429367
21
89.958691
0
LINE
8
Image
10
87.429367
20
89.958691
11
83.011031
21
90.180996
0
LINE
8
Image
10
83.011031
20
90.180996
11
77.509735
21
90.809289
0
LINE
8
Image
10
77.509735
20
90.809289
11
71.346592
21
91.785638
0
LINE
8
Image
10
71.346592
20
91.785638
11
64.942712
21
93.052114
0
LINE
8
Image
10
64.942712
20
93.052114
11
64.092451
21
93.237544
0
LINE
8
Image
10
64.092451
20
93.237544
11
64.326959
21
89.933789
0
LINE
8
Image
10
64.326959
20
89.933789
11
64.958788
21
83.531867
0
LINE
8
Image
10
64.958788
20
83.531867
11
65.356113
21
80.433701
0
LINE
8
Image
10
65.356113
20
80.433701
11
71.571757
21
80.445580
0
LINE
8
Image
10
71.571757
20
80.445580
11
77.049654
21
80.550945
0
LINE
8
Image
10
77.049654
20
80.550945
11
81.491564
21
80.787583
0
LINE
8
Image
10
81.491564
20
80.787583
11
81.491564
21
80.787583
0
LINE
8
Image
10
88.889096
20
91.281606
11
87.552454
21
96.091302
0
LINE
8
Image
10
87.552454
20
96.091302
11
86.226605
21
100.636414
0
LINE
8
Image
10
86.226605
20
100.636414
11
82.359780
21
101.830814
0
LINE
8
Image
10
82.359780
20
101.830814
11
76.408619
21
103.532987
0
LINE
8
Image
10
76.408619
20
103.532987
11
71.021982
21
104.838566
0
LINE
8
Image
10
71.021982
20
104.838566
11
67.013283
21
105.571099
0
LINE
8
Image
10
67.013283
20
105.571099
11
65.779852
21
105.667332
0
LINE
8
Image
10
65.779852
20
105.667332
11
65.195937
21
105.554134
0
LINE
8
Image
10
65.195937
20
105.554134
11
64.870458
21
104.535812
0
LINE
8
Image
10
64.870458
20
104.535812
11
64.556068
21
102.459837
0
LINE
8
Image
10
64.556068
20
102.459837
11
64.216366
21
97.292419
0
LINE
8
Image
10
64.216366
20
97.292419
11
64.205465
21
94.571992
0
LINE
8
Image
10
64.205465
20
94.571992
11
65.656684
21
94.181219
0
LINE
8
Image
10
65.656684
20
94.181219
11
72.106025
21
92.834311
0
LINE
8
Image
10
72.106025
20
92.834311
11
79.788785
21
91.694775
0
LINE
8
Image
10
79.788785
20
91.694775
11
86.213595
21
91.073559
0
LINE
8
Image
10
86.213595
20
91.073559
11
88.175716
21
91.054490
0
LINE
8
Image
10
88.175716
20
91.054490
11
88.707958
21
91.134846
0
LINE
8
Image
10
88.707958
20
91.134846
11
88.889085
21
91.281606
0
LINE
8
Image
10
88.889085
20
91.281606
11
88.889096
21
91.281606
0
LINE
8
Image
10
85.226598
20
106.425120
11
84.576356
21
111.996084
0
LINE
8
Image
10
84.576356
20
111.996084
11
84.495726
21
112.764097
0
LINE
8
Image
10
84.495726
20
112.764097
11
84.310484
21
113.223857
0
LINE
8
Image
10
84.310484
20
113.223857
11
83.927953
21
113.494607
0
LINE
8
Image
10
83.927953
20
113.494607
11
83.255452
21
113.695591
0
LINE
8
Image
10
83.255452
20
113.695591
11
79.634387
21
114.692034
0
LINE
8
Image
10
79.634387
20
114.692034
11
76.356888
21
115.844997
0
LINE
8
Image
10
76.356888
20
115.844997
11
73.381785
21
117.170801
0
LINE
8
Image
10
73.381785
20
117.170801
11
70.667905
21
118.685769
0
LINE
8
Image
10
70.667905
20
118.685769
11
69.574456
21
119.249979
0
LINE
8
Image
10
69.574456
20
119.249979
11
69.016891
21
119.318366
0
LINE
8
Image
10
69.016891
20
119.318366
11
68.107299
21
117.082080
0
LINE
8
Image
10
68.107299
20
117.082080
11
66.853085
21
113.278982
0
LINE
8
Image
10
66.853085
20
113.278982
11
65.742503
21
109.478886
0
LINE
8
Image
10
65.742503
20
109.478886
11
65.263808
21
107.251609
0
LINE
8
Image
10
65.263808
20
107.251609
11
65.807856
21
106.991734
0
LINE
8
Image
10
65.807856
20
106.991734
11
67.115889
21
106.744263
0
LINE
8
Image
10
67.115889
20
106.744263
11
69.937174
21
106.260902
0
LINE
8
Image
10
69.937174
20
106.260902
11
73.515550
21
105.473020
0
LINE
8
Image
10
73.515550
20
105.473020
11
81.138788
21
103.412501
0
LINE
8
Image
10
81.138788
20
103.412501
11
85.669581
21
102.153099
0
LINE
8
Image
10
85.669581
20
102.153099
11
85.226598
21
106.425120
0
LINE
8
Image
10
85.226598
20
106.425120
11
85.226598
21
106.425120
0
LINE
8
Image
10
123.110615
20
114.648463
11
124.952466
21
115.072639
0
LINE
8
Image
10
124.952466
20
115.072639
11
128.467278
21
115.603592
0
LINE
8
Image
10
128.467278
20
115.603592
11
133.173442
21
116.210582
0
LINE
8
Image
10
133.173442
20
116.210582
11
135.066878
21
117.989479
0
LINE
8
Image
10
135.066878
20
117.989479
11
137.611110
21
120.579634
0
LINE
8
Image
10
137.611110
20
120.579634
11
139.802307
21
123.222089
0
LINE
8
Image
10
139.802307
20
123.222089
11
141.579427
21
125.835988
0
LINE
8
Image
10
141.579427
20
125.835988
11
142.881427
21
128.340474
0
LINE
8
Image
10
142.881427
20
128.340474
11
143.641720
21
130.040754
0
LINE
8
Image
10
143.641720
20
130.040754
11
144.193715
21
130.988977
0
LINE
8
Image
10
144.193715
20
130.988977
11
144.739823
21
131.443755
0
LINE
8
Image
10
144.739823
20
131.443755
11
145.482455
21
131.663698
0
LINE
8
Image
10
145.482455
20
131.663698
11
147.989057
21
132.568702
0
LINE
8
Image
10
147.989057
20
132.568702
11
149.109862
21
133.128167
0
LINE
8
Image
10
149.109862
20
133.128167
11
149.577588
21
133.505010
0
LINE
8
Image
10
149.577588
20
133.505010
11
149.771692
21
134.151199
0
LINE
8
Image
10
149.771692
20
134.151199
11
149.742842
21
134.410241
0
LINE
8
Image
10
149.742842
20
134.410241
11
149.362241
21
134.601969
0
LINE
8
Image
10
149.362241
20
134.601969
11
147.170259
21
134.890158
0
LINE
8
Image
10
147.170259
20
134.890158
11
145.095388
21
135.177165
0
LINE
8
Image
10
145.095388
20
135.177165
11
142.870090
21
135.666962
0
LINE
8
Image
10
142.870090
20
135.666962
11
140.820104
21
136.275839
0
LINE
8
Image
10
140.820104
20
136.275839
11
139.271165
21
136.920089
0
LINE
8
Image
10
139.271165
20
136.920089
11
138.935016
21
137.014208
0
LINE
8
Image
10
138.935016
20
137.014208
11
138.638278
21
136.851466
0
LINE
8
Image
10
138.638278
20
136.851466
11
137.913590
21
135.493211
0
LINE
8
Image
10
137.913590
20
135.493211
11
137.109801
21
134.060887
0
LINE
8
Image
10
137.109801
20
134.060887
11
136.681697
21
133.712217
0
LINE
8
Image
10
136.681697
20
133.712217
11
136.161140
21
133.524298
0
LINE
8
Image
10
136.161140
20
133.524298
11
134.888242
21
132.918205
0
LINE
8
Image
10
134.888242
20
132.918205
11
133.429936
21
131.747153
0
LINE
8
Image
10
133.429936
20
131.747153
11
132.055481
21
130.263479
0
LINE
8
Image
10
132.055481
20
130.263479
11
131.034138
21
128.719521
0
LINE
8
Image
10
131.034138
20
128.719521
11
130.134406
21
127.310436
0
LINE
8
Image
10
130.134406
20
127.310436
11
129.696226
21
127.062884
0
LINE
8
Image
10
129.696226
20
127.062884
11
129.133527
21
127.000314
0
LINE
8
Image
10
129.133527
20
127.000314
11
128.078861
21
126.902270
0
LINE
8
Image
10
128.078861
20
126.902270
11
127.084166
21
126.572334
0
LINE
8
Image
10
127.084166
20
126.572334
11
126.033242
21
125.956801
0
LINE
8
Image
10
126.033242
20
125.956801
11
124.809889
21
125.001963
0
LINE
8
Image
10
124.809889
20
125.001963
11
122.081663
21
123.032974
0
LINE
8
Image
10
122.081663
20
123.032974
11
121.325624
21
122.456709
0
LINE
8
Image
10
121.325624
20
122.456709
11
121.084831
21
121.872151
0
LINE
8
Image
10
121.084831
20
121.872151
11
121.357578
21
121.339028
0
LINE
8
Image
10
121.357578
20
121.339028
11
122.142157
21
120.917072
0
LINE
8
Image
10
122.142157
20
120.917072
11
123.343558
21
120.808085
0
LINE
8
Image
10
123.343558
20
120.808085
11
125.072176
21
121.167976
0
LINE
8
Image
10
125.072176
20
121.167976
11
126.143394
21
121.543048
0
LINE
8
Image
10
126.143394
20
121.543048
11
127.047098
21
122.042474
0
LINE
8
Image
10
127.047098
20
122.042474
11
127.957276
21
122.785422
0
LINE
8
Image
10
127.957276
20
122.785422
11
129.047916
21
123.891061
0
LINE
8
Image
10
129.047916
20
123.891061
11
130.557930
21
125.332240
0
LINE
8
Image
10
130.557930
20
125.332240
11
132.043444
21
126.415800
0
LINE
8
Image
10
132.043444
20
126.415800
11
133.437401
21
127.100561
0
LINE
8
Image
10
133.437401
20
127.100561
11
134.672747
21
127.345343
0
LINE
8
Image
10
134.672747
20
127.345343
11
135.237498
21
127.495690
0
LINE
8
Image
10
135.237498
20
127.495690
11
135.466496
21
127.855121
0
LINE
8
Image
10
135.466496
20
127.855121
11
135.801498
21
128.582539
0
LINE
8
Image
10
135.801498
20
128.582539
11
136.664562
21
129.530221
0
LINE
8
Image
10
136.664562
20
129.530221
11
137.842775
21
130.498342
0
LINE
8
Image
10
137.842775
20
130.498342
11
139.123226
21
131.287077
0
LINE
8
Image
10
139.123226
20
131.287077
11
140.444957
21
132.044353
0
LINE
8
Image
10
140.444957
20
132.044353
11
141.398057
21
132.802675
0
LINE
8
Image
10
141.398057
20
132.802675
11
141.975250
21
133.554865
0
LINE
8
Image
10
141.975250
20
133.554865
11
142.169264
21
134.293743
0
LINE
8
Image
10
142.169264
20
134.293743
11
142.314342
21
134.889257
0
LINE
8
Image
10
142.314342
20
134.889257
11
142.698430
21
135.114193
0
LINE
8
Image
10
142.698430
20
135.114193
11
142.930963
21
135.038176
0
LINE
8
Image
10
142.930963
20
135.038176
11
143.095674
21
134.829008
0
LINE
8
Image
10
143.095674
20
134.829008
11
143.222648
21
134.124514
0
LINE
8
Image
10
143.222648
20
134.124514
11
143.081374
21
133.227303
0
LINE
8
Image
10
143.081374
20
133.227303
11
142.673877
21
132.363967
0
LINE
8
Image
10
142.673877
20
132.363967
11
141.786654
21
131.554220
0
LINE
8
Image
10
141.786654
20
131.554220
11
140.431113
21
130.717515
0
LINE
8
Image
10
140.431113
20
130.717515
11
138.955364
21
129.870006
0
LINE
8
Image
10
138.955364
20
129.870006
11
137.708733
21
128.971322
0
LINE
8
Image
10
137.708733
20
128.971322
11
136.846721
21
128.148421
0
LINE
8
Image
10
136.846721
20
128.148421
11
136.524828
21
127.528260
0
LINE
8
Image
10
136.524828
20
127.528260
11
136.152209
21
126.058110
0
LINE
8
Image
10
136.152209
20
126.058110
11
135.272407
21
123.835011
0
LINE
8
Image
10
135.272407
20
123.835011
11
134.242501
21
121.677968
0
LINE
8
Image
10
134.242501
20
121.677968
11
133.419573
21
120.405990
0
LINE
8
Image
10
133.419573
20
120.405990
11
132.129994
21
119.497911
0
LINE
8
Image
10
132.129994
20
119.497911
11
130.186211
21
118.502638
0
LINE
8
Image
10
130.186211
20
118.502638
11
127.764097
21
117.500629
0
LINE
8
Image
10
127.764097
20
117.500629
11
125.039526
21
116.572341
0
LINE
8
Image
10
125.039526
20
116.572341
11
121.757253
21
115.403531
0
LINE
8
Image
10
121.757253
20
115.403531
11
121.201996
21
114.993006
0
LINE
8
Image
10
121.201996
20
114.993006
11
121.203718
21
114.613133
0
LINE
8
Image
10
121.203718
20
114.613133
11
121.495659
21
114.383735
0
LINE
8
Image
10
121.495659
20
114.383735
11
121.949835
21
114.313881
0
LINE
8
Image
10
121.949835
20
114.313881
11
123.110615
21
114.648463
0
LINE
8
Image
10
123.110615
20
114.648463
11
123.110615
21
114.648463
0
LINE
8
Image
10
84.619096
20
117.846994
11
85.042816
21
122.721970
0
LINE
8
Image
10
85.042816
20
122.721970
11
85.291210
21
124.496709
0
LINE
8
Image
10
85.291210
20
124.496709
11
85.197175
21
125.589006
0
LINE
8
Image
10
85.197175
20
125.589006
11
84.611122
21
126.422434
0
LINE
8
Image
10
84.611122
20
126.422434
11
83.383462
21
127.420567
0
LINE
8
Image
10
83.383462
20
127.420567
11
79.279232
21
130.668498
0
LINE
8
Image
10
79.279232
20
130.668498
11
77.163656
21
132.396405
0
LINE
8
Image
10
77.163656
20
132.396405
11
76.496089
21
131.550440
0
LINE
8
Image
10
76.496089
20
131.550440
11
73.358172
21
127.036996
0
LINE
8
Image
10
73.358172
20
127.036996
11
70.666971
21
122.638944
0
LINE
8
Image
10
70.666971
20
122.638944
11
69.767767
21
120.864446
0
LINE
8
Image
10
69.767767
20
120.864446
11
70.602587
21
120.188085
0
LINE
8
Image
10
70.602587
20
120.188085
11
71.882080
21
119.334207
0
LINE
8
Image
10
71.882080
20
119.334207
11
73.660311
21
118.389087
0
LINE
8
Image
10
73.660311
20
118.389087
11
77.964832
21
116.515282
0
LINE
8
Image
10
77.964832
20
116.515282
11
82.019832
21
115.146993
0
LINE
8
Image
10
82.019832
20
115.146993
11
83.486162
21
114.833767
0
LINE
8
Image
10
83.486162
20
114.833767
11
84.328992
21
114.864540
0
LINE
8
Image
10
84.328992
20
114.864540
11
84.619096
21
117.846994
0
LINE
8
Image
10
84.619096
20
117.846994
11
84.619096
21
117.846994
0
LINE
8
Image
10
25.287735
20
116.621043
11
27.511055
21
116.969982
0
LINE
8
Image
10
27.511055
20
116.969982
11
29.454758
21
116.991748
0
LINE
8
Image
10
29.454758
20
116.991748
11
33.192184
21
116.614127
0
LINE
8
Image
10
33.192184
20
116.614127
11
35.352154
21
116.500212
0
LINE
8
Image
10
35.352154
20
116.500212
11
36.756777
21
116.660757
0
LINE
8
Image
10
36.756777
20
116.660757
11
38.228164
21
117.106516
0
LINE
8
Image
10
38.228164
20
117.106516
11
40.004641
21
117.807169
0
LINE
8
Image
10
40.004641
20
117.807169
11
41.914836
21
118.768852
0
LINE
8
Image
10
41.914836
20
118.768852
11
46.098656
21
121.448173
0
LINE
8
Image
10
46.098656
20
121.448173
11
50.704183
21
125.090222
0
LINE
8
Image
10
50.704183
20
125.090222
11
55.655976
21
129.640741
0
LINE
8
Image
10
55.655976
20
129.640741
11
59.630071
21
133.526695
0
LINE
8
Image
10
59.630071
20
133.526695
11
58.695307
21
135.383891
0
LINE
8
Image
10
58.695307
20
135.383891
11
57.996265
21
137.274546
0
LINE
8
Image
10
57.996265
20
137.274546
11
57.612201
21
139.486672
0
LINE
8
Image
10
57.612201
20
139.486672
11
57.553069
21
141.916023
0
LINE
8
Image
10
57.553069
20
141.916023
11
57.828822
21
144.458355
0
LINE
8
Image
10
57.828822
20
144.458355
11
58.042124
21
146.128452
0
LINE
8
Image
10
58.042124
20
146.128452
11
57.848978
21
147.199129
0
LINE
8
Image
10
57.848978
20
147.199129
11
57.084673
21
147.990757
0
LINE
8
Image
10
57.084673
20
147.990757
11
55.584499
21
148.823704
0
LINE
8
Image
10
55.584499
20
148.823704
11
53.786995
21
149.545373
0
LINE
8
Image
10
53.786995
20
149.545373
11
51.915580
21
149.952900
0
LINE
8
Image
10
51.915580
20
149.952900
11
49.972539
21
150.046705
0
LINE
8
Image
10
49.972539
20
150.046705
11
47.960160
21
149.827208
0
LINE
8
Image
10
47.960160
20
149.827208
11
45.880730
21
149.294831
0
LINE
8
Image
10
45.880730
20
149.294831
11
43.736537
21
148.449993
0
LINE
8
Image
10
43.736537
20
148.449993
11
41.529866
21
147.293115
0
LINE
8
Image
10
41.529866
20
147.293115
11
39.263006
21
145.824616
0
LINE
8
Image
10
39.263006
20
145.824616
11
36.305613
21
143.421723
0
LINE
8
Image
10
36.305613
20
143.421723
11
32.846626
21
140.215574
0
LINE
8
Image
10
32.846626
20
140.215574
11
29.868101
21
137.161221
0
LINE
8
Image
10
29.868101
20
137.161221
11
28.352093
21
135.213716
0
LINE
8
Image
10
28.352093
20
135.213716
11
28.011196
21
133.984514
0
LINE
8
Image
10
28.011196
20
133.984514
11
27.869408
21
132.623303
0
LINE
8
Image
10
27.869408
20
132.623303
11
27.770252
21
131.026443
0
LINE
8
Image
10
27.770252
20
131.026443
11
27.491432
21
129.158709
0
LINE
8
Image
10
27.491432
20
129.158709
11
26.506684
21
125.001760
0
LINE
8
Image
10
26.506684
20
125.001760
11
25.138938
21
120.934733
0
LINE
8
Image
10
25.138938
20
120.934733
11
24.381370
21
119.179402
0
LINE
8
Image
10
24.381370
20
119.179402
11
23.611967
21
117.739906
0
LINE
8
Image
10
23.611967
20
117.739906
11
22.735508
21
116.064215
0
LINE
8
Image
10
22.735508
20
116.064215
11
25.287735
21
116.621043
0
LINE
8
Image
10
25.287735
20
116.621043
11
25.287735
21
116.621043
0
LINE
8
Image
10
86.444960
20
128.676005
11
88.107388
21
132.922618
0
LINE
8
Image
10
88.107388
20
132.922618
11
89.347806
21
135.846313
0
LINE
8
Image
10
89.347806
20
135.846313
11
87.325201
21
137.893863
0
LINE
8
Image
10
87.325201
20
137.893863
11
85.689514
21
139.667231
0
LINE
8
Image
10
85.689514
20
139.667231
11
84.597157
21
141.055577
0
LINE
8
Image
10
84.597157
20
141.055577
11
83.755916
21
142.169738
0
LINE
8
Image
10
83.755916
20
142.169738
11
82.723447
21
140.400252
0
LINE
8
Image
10
82.723447
20
140.400252
11
81.516996
21
138.474892
0
LINE
8
Image
10
81.516996
20
138.474892
11
79.875531
21
136.330648
0
LINE
8
Image
10
79.875531
20
136.330648
11
78.460913
21
134.452810
0
LINE
8
Image
10
78.460913
20
134.452810
11
78.159697
21
133.833980
0
LINE
8
Image
10
78.159697
20
133.833980
11
78.127582
21
133.425836
0
LINE
8
Image
10
78.127582
20
133.425836
11
79.323176
21
132.221524
0
LINE
8
Image
10
79.323176
20
132.221524
11
81.796577
21
130.162401
0
LINE
8
Image
10
81.796577
20
130.162401
11
84.335743
21
128.216808
0
LINE
8
Image
10
84.335743
20
128.216808
11
85.728633
21
127.353090
0
LINE
8
Image
10
85.728633
20
127.353090
11
86.060461
21
127.741697
0
LINE
8
Image
10
86.060461
20
127.741697
11
86.444960
21
128.676005
0
LINE
8
Image
10
86.444960
20
128.676005
11
86.444960
21
128.676005
0
LINE
8
Image
10
91.316637
20
138.613423
11
92.850784
21
140.721948
0
LINE
8
Image
10
92.850784
20
140.721948
11
94.712018
21
142.861040
0
LINE
8
Image
10
94.712018
20
142.861040
11
96.808353
21
144.954627
0
LINE
8
Image
10
96.808353
20
144.954627
11
99.047806
21
146.926638
0
LINE
8
Image
10
99.047806
20
146.926638
11
101.338390
21
148.701000
0
LINE
8
Image
10
101.338390
20
148.701000
11
103.588122
21
150.201641
0
LINE
8
Image
10
103.588122
20
150.201641
11
105.705016
21
151.352489
0
LINE
8
Image
10
105.705016
20
151.352489
11
107.597088
21
152.077472
0
LINE
8
Image
10
107.597088
20
152.077472
11
109.407596
21
152.690980
0
LINE
8
Image
10
109.407596
20
152.690980
11
109.645860
21
152.884950
0
LINE
8
Image
10
109.645860
20
152.884950
11
109.486472
21
153.008407
0
LINE
8
Image
10
109.486472
20
153.008407
11
108.115759
21
153.057807
0
LINE
8
Image
10
108.115759
20
153.057807
11
105.577500
21
152.867236
0
LINE
8
Image
10
105.577500
20
152.867236
11
98.126519
21
151.878406
0
LINE
8
Image
10
98.126519
20
151.878406
11
89.389875
21
150.266359
0
LINE
8
Image
10
89.389875
20
150.266359
11
85.822923
21
149.501960
0
LINE
8
Image
10
85.822923
20
149.501960
11
85.188424
21
146.723871
0
LINE
8
Image
10
85.188424
20
146.723871
11
84.730286
21
144.128344
0
LINE
8
Image
10
84.730286
20
144.128344
11
84.850691
21
143.372006
0
LINE
8
Image
10
84.850691
20
143.372006
11
85.206071
21
142.499575
0
LINE
8
Image
10
85.206071
20
142.499575
11
86.122049
21
141.109104
0
LINE
8
Image
10
86.122049
20
141.109104
11
87.640671
21
139.233616
0
LINE
8
Image
10
87.640671
20
139.233616
11
89.149598
21
137.585733
0
LINE
8
Image
10
89.149598
20
137.585733
11
90.036489
21
136.878078
0
LINE
8
Image
10
90.036489
20
136.878078
11
91.316637
21
138.613423
0
LINE
8
Image
10
91.316637
20
138.613423
11
91.316637
21
138.613423
0
LINE
8
Image
10
155.192442
20
157.339165
11
157.171128
21
157.339165
0
LINE
8
Image
10
157.171128
20
157.339165
11
158.870090
21
161.577584
0
LINE
8
Image
10
158.870090
20
161.577584
11
160.315640
21
165.697817
0
LINE
8
Image
10
160.315640
20
165.697817
11
160.676414
21
167.429711
0
LINE
8
Image
10
160.676414
20
167.429711
11
160.922429
21
169.426878
0
LINE
8
Image
10
160.922429
20
169.426878
11
161.109144
21
172.695708
0
LINE
8
Image
10
161.109144
20
172.695708
11
161.057349
21
176.077637
0
LINE
8
Image
10
161.057349
20
176.077637
11
160.775532
21
179.401982
0
LINE
8
Image
10
160.775532
20
179.401982
11
160.272187
21
182.498059
0
LINE
8
Image
10
160.272187
20
182.498059
11
159.593532
21
184.836478
0
LINE
8
Image
10
159.593532
20
184.836478
11
158.595379
21
187.370788
0
LINE
8
Image
10
158.595379
20
187.370788
11
157.567416
21
189.442440
0
LINE
8
Image
10
157.567416
20
189.442440
11
157.132784
21
190.098971
0
LINE
8
Image
10
157.132784
20
190.098971
11
156.799334
21
190.392882
0
LINE
8
Image
10
156.799334
20
190.392882
11
156.640404
21
190.209538
0
LINE
8
Image
10
156.640404
20
190.209538
11
156.508030
21
189.577129
0
LINE
8
Image
10
156.508030
20
189.577129
11
156.343672
21
187.114225
0
LINE
8
Image
10
156.343672
20
187.114225
11
156.144235
21
183.979624
0
LINE
8
Image
10
156.144235
20
183.979624
11
155.729135
21
180.849775
0
LINE
8
Image
10
155.729135
20
180.849775
11
155.119534
21
177.851247
0
LINE
8
Image
10
155.119534
20
177.851247
11
154.336595
21
175.110610
0
LINE
8
Image
10
154.336595
20
175.110610
11
153.216569
21
172.112288
0
LINE
8
Image
10
153.216569
20
172.112288
11
152.003696
21
169.566543
0
LINE
8
Image
10
152.003696
20
169.566543
11
150.658374
21
167.434615
0
LINE
8
Image
10
150.658374
20
167.434615
11
149.140999
21
165.677742
0
LINE
8
Image
10
149.140999
20
165.677742
11
147.411971
21
164.257163
0
LINE
8
Image
10
147.411971
20
164.257163
11
145.431687
21
163.134116
0
LINE
8
Image
10
145.431687
20
163.134116
11
143.160544
21
162.269841
0
LINE
8
Image
10
143.160544
20
162.269841
11
140.558941
21
161.625577
0
LINE
8
Image
10
140.558941
20
161.625577
11
137.451956
21
161.014043
0
LINE
8
Image
10
137.451956
20
161.014043
11
138.664085
21
160.308361
0
LINE
8
Image
10
138.664085
20
160.308361
11
141.709001
21
158.723124
0
LINE
8
Image
10
141.709001
20
158.723124
11
144.490054
21
157.707946
0
LINE
8
Image
10
144.490054
20
157.707946
11
147.210290
21
157.206863
0
LINE
8
Image
10
147.210290
20
157.206863
11
150.072756
21
157.163911
0
LINE
8
Image
10
150.072756
20
157.163911
11
155.192442
21
157.339165
0
LINE
8
Image
10
155.192442
20
157.339165
11
155.192442
21
157.339165
0
LINE
8
Image
10
134.960730
20
164.917809
11
136.055615
21
166.061097
0
LINE
8
Image
10
136.055615
20
166.061097
11
136.777177
21
167.558747
0
LINE
8
Image
10
136.777177
20
167.558747
11
137.139827
21
169.455877
0
LINE
8
Image
10
137.139827
20
169.455877
11
137.157975
21
171.797608
0
LINE
8
Image
10
137.157975
20
171.797608
11
136.972305
21
173.865344
0
LINE
8
Image
10
136.972305
20
173.865344
11
136.755849
21
174.864606
0
LINE
8
Image
10
136.755849
20
174.864606
11
136.303596
21
174.766940
0
LINE
8
Image
10
136.303596
20
174.766940
11
135.551012
21
174.197378
0
LINE
8
Image
10
135.551012
20
174.197378
11
134.144975
21
173.105932
0
LINE
8
Image
10
134.144975
20
173.105932
11
132.553356
21
172.305303
0
LINE
8
Image
10
132.553356
20
172.305303
11
130.741694
21
171.782087
0
LINE
8
Image
10
130.741694
20
171.782087
11
128.675531
21
171.522878
0
LINE
8
Image
10
128.675531
20
171.522878
11
126.744628
21
171.327794
0
LINE
8
Image
10
126.744628
20
171.327794
11
125.941508
21
171.088038
0
LINE
8
Image
10
125.941508
20
171.088038
11
127.052261
21
169.815710
0
LINE
8
Image
10
127.052261
20
169.815710
11
129.528338
21
167.412654
0
LINE
8
Image
10
129.528338
20
167.412654
11
132.085466
21
165.085765
0
LINE
8
Image
10
132.085466
20
165.085765
11
133.439370
21
164.041937
0
LINE
8
Image
10
133.439370
20
164.041937
11
134.040144
21
164.299224
0
LINE
8
Image
10
134.040144
20
164.299224
11
134.960730
21
164.917809
0
LINE
8
Image
10
134.960730
20
164.917809
11
134.960730
21
164.917809
0
LINE
8
Image
10
111.199210
20
179.759794
11
113.622101
21
180.539440
0
LINE
8
Image
10
113.622101
20
180.539440
11
115.725751
21
181.631688
0
LINE
8
Image
10
115.725751
20
181.631688
11
117.869195
21
183.267129
0
LINE
8
Image
10
117.869195
20
183.267129
11
120.411469
21
185.676351
0
LINE
8
Image
10
120.411469
20
185.676351
11
123.845262
21
188.842425
0
LINE
8
Image
10
123.845262
20
188.842425
11
125.278793
21
189.856748
0
LINE
8
Image
10
125.278793
20
189.856748
11
126.823450
21
190.728323
0
LINE
8
Image
10
126.823450
20
190.728323
11
130.057212
21
192.214904
0
LINE
8
Image
10
130.057212
20
192.214904
11
133.268357
21
193.293134
0
LINE
8
Image
10
133.268357
20
193.293134
11
136.784822
21
194.052591
0
LINE
8
Image
10
136.784822
20
194.052591
11
140.934546
21
194.582853
0
LINE
8
Image
10
140.934546
20
194.582853
11
142.898358
21
194.858565
0
LINE
8
Image
10
142.898358
20
194.858565
11
144.846519
21
195.296040
0
LINE
8
Image
10
144.846519
20
195.296040
11
146.754089
21
195.884278
0
LINE
8
Image
10
146.754089
20
195.884278
11
148.596129
21
196.612283
0
LINE
8
Image
10
148.596129
20
196.612283
11
150.347702
21
197.469055
0
LINE
8
Image
10
150.347702
20
197.469055
11
151.983868
21
198.443598
0
LINE
8
Image
10
151.983868
20
198.443598
11
153.479687
21
199.524913
0
LINE
8
Image
10
153.479687
20
199.524913
11
154.810223
21
200.702001
0
LINE
8
Image
10
154.810223
20
200.702001
11
156.432015
21
202.580746
0
LINE
8
Image
10
156.432015
20
202.580746
11
157.893383
21
204.816941
0
LINE
8
Image
10
157.893383
20
204.816941
11
159.103522
21
207.251817
0
LINE
8
Image
10
159.103522
20
207.251817
11
159.971628
21
209.726605
0
LINE
8
Image
10
159.971628
20
209.726605
11
160.426048
21
212.433297
0
LINE
8
Image
10
160.426048
20
212.433297
11
160.715173
21
216.107731
0
LINE
8
Image
10
160.715173
20
216.107731
11
160.792368
21
219.810695
0
LINE
8
Image
10
160.792368
20
219.810695
11
160.610996
21
222.602978
0
LINE
8
Image
10
160.610996
20
222.602978
11
160.298269
21
224.543253
0
LINE
8
Image
10
160.298269
20
224.543253
11
159.331409
21
222.670857
0
LINE
8
Image
10
159.331409
20
222.670857
11
157.846281
21
219.953255
0
LINE
8
Image
10
157.846281
20
219.953255
11
156.330562
21
217.496522
0
LINE
8
Image
10
156.330562
20
217.496522
11
154.778290
21
215.293900
0
LINE
8
Image
10
154.778290
20
215.293900
11
153.183504
21
213.338633
0
LINE
8
Image
10
153.183504
20
213.338633
11
151.540243
21
211.623964
0
LINE
8
Image
10
151.540243
20
211.623964
11
149.842545
21
210.143136
0
LINE
8
Image
10
149.842545
20
210.143136
11
148.084448
21
208.889392
0
LINE
8
Image
10
148.084448
20
208.889392
11
146.259990
21
207.855976
0
LINE
8
Image
10
146.259990
20
207.855976
11
143.599193
21
206.708910
0
LINE
8
Image
10
143.599193
20
206.708910
11
140.747894
21
206.002068
0
LINE
8
Image
10
140.747894
20
206.002068
11
136.890914
21
205.600792
0
LINE
8
Image
10
136.890914
20
205.600792
11
131.213070
21
205.370426
0
LINE
8
Image
10
131.213070
20
205.370426
11
122.902709
21
205.140498
0
LINE
8
Image
10
122.902709
20
205.140498
11
120.221218
21
203.814344
0
LINE
8
Image
10
120.221218
20
203.814344
11
118.083954
21
202.535710
0
LINE
8
Image
10
118.083954
20
202.535710
11
116.171674
21
200.950734
0
LINE
8
Image
10
116.171674
20
200.950734
11
114.566047
21
199.138288
0
LINE
8
Image
10
114.566047
20
199.138288
11
113.348738
21
197.177240
0
LINE
8
Image
10
113.348738
20
197.177240
11
112.668260
21
196.000226
0
LINE
8
Image
10
112.668260
20
196.000226
11
111.863517
21
194.966391
0
LINE
8
Image
10
111.863517
20
194.966391
11
110.931897
21
194.074153
0
LINE
8
Image
10
110.931897
20
194.074153
11
109.870791
21
193.321929
0
LINE
8
Image
10
109.870791
20
193.321929
11
108.677586
21
192.708137
0
LINE
8
Image
10
108.677586
20
192.708137
11
107.349670
21
192.231195
0
LINE
8
Image
10
107.349670
20
192.231195
11
105.884434
21
191.889520
0
LINE
8
Image
10
105.884434
20
191.889520
11
104.279264
21
191.681531
0
LINE
8
Image
10
104.279264
20
191.681531
11
102.389185
21
191.459056
0
LINE
8
Image
10
102.389185
20
191.459056
11
101.607505
21
191.242222
0
LINE
8
Image
10
101.607505
20
191.242222
11
103.328054
21
186.090522
0
LINE
8
Image
10
103.328054
20
186.090522
11
104.315117
21
183.321335
0
LINE
8
Image
10
104.315117
20
183.321335
11
105.016237
21
181.703537
0
LINE
8
Image
10
105.016237
20
181.703537
11
105.687155
21
180.759641
0
LINE
8
Image
10
105.687155
20
180.759641
11
106.583613
21
180.012158
0
LINE
8
Image
10
106.583613
20
180.012158
11
107.805970
21
179.255171
0
LINE
8
Image
10
107.805970
20
179.255171
11
108.578569
21
179.035302
0
LINE
8
Image
10
108.578569
20
179.035302
11
111.199210
21
179.759794
0
LINE
8
Image
10
111.199210
20
179.759794
11
111.199210
21
179.759794
0
LINE
8
Image
10
125.358759
20
242.093927
11
124.835834
21
245.611188
0
LINE
8
Image
10
124.835834
20
245.611188
11
124.121012
21
248.420443
0
LINE
8
Image
10
124.121012
20
248.420443
11
123.284033
21
250.310501
0
LINE
8
Image
10
123.284033
20
250.310501
11
122.841528
21
250.844834
0
LINE
8
Image
10
122.841528
20
250.844834
11
122.394635
21
251.070172
0
LINE
8
Image
10
122.394635
20
251.070172
11
121.412631
21
250.330728
0
LINE
8
Image
10
121.412631
20
250.330728
11
119.767906
21
248.453322
0
LINE
8
Image
10
119.767906
20
248.453322
11
117.660646
21
245.613771
0
LINE
8
Image
10
117.660646
20
245.613771
11
117.586113
21
245.370159
0
LINE
8
Image
10
117.586113
20
245.370159
11
117.657126
21
245.240851
0
LINE
8
Image
10
117.657126
20
245.240851
11
118.165062
21
245.180729
0
LINE
8
Image
10
118.165062
20
245.180729
11
119.274987
21
244.937224
0
LINE
8
Image
10
119.274987
20
244.937224
11
120.622984
21
244.267275
0
LINE
8
Image
10
120.622984
20
244.267275
11
122.058138
21
243.261736
0
LINE
8
Image
10
122.058138
20
243.261736
11
123.429536
21
242.011459
0
LINE
8
Image
10
123.429536
20
242.011459
11
125.307527
21
240.278038
0
LINE
8
Image
10
125.307527
20
240.278038
11
125.424861
21
240.796530
0
LINE
8
Image
10
125.424861
20
240.796530
11
125.358759
21
242.093927
0
LINE
8
Image
10
125.358759
20
242.093927
11
125.358759
21
242.093927
0
LINE
8
Image
10
132.003586
20
254.267647
11
130.965841
21
256.368478
0
LINE
8
Image
10
130.965841
20
256.368478
11
129.662053
21
258.076730
0
LINE
8
Image
10
129.662053
20
258.076730
11
128.251607
21
259.224679
0
LINE
8
Image
10
128.251607
20
259.224679
11
127.556197
21
259.536126
0
LINE
8
Image
10
127.556197
20
259.536126
11
126.893893
21
259.644601
0
LINE
8
Image
10
126.893893
20
259.644601
11
126.510417
21
259.346031
0
LINE
8
Image
10
126.510417
20
259.346031
11
125.949885
21
258.431091
0
LINE
8
Image
10
125.949885
20
258.431091
11
124.236419
21
254.636706
0
LINE
8
Image
10
124.236419
20
254.636706
11
124.768310
21
254.436295
0
LINE
8
Image
10
124.768310
20
254.436295
11
126.212245
21
254.352938
0
LINE
8
Image
10
126.212245
20
254.352938
11
127.818464
21
254.265929
0
LINE
8
Image
10
127.818464
20
254.265929
11
129.236088
21
254.001352
0
LINE
8
Image
10
129.236088
20
254.001352
11
130.485054
21
253.553883
0
LINE
8
Image
10
130.485054
20
253.553883
11
131.585299
21
252.918197
0
LINE
8
Image
10
131.585299
20
252.918197
11
132.570585
21
252.397768
0
LINE
8
Image
10
132.570585
20
252.397768
11
132.003586
21
254.267647
0
LINE
8
Image
10
132.003586
20
254.267647
11
132.003586
21
254.267647
0
LINE
8
Image
10
151.270642
20
266.611952
11
150.713631
21
269.865350
0
LINE
8
Image
10
150.713631
20
269.865350
11
149.888946
21
273.202772
0
LINE
8
Image
10
149.888946
20
273.202772
11
148.875352
21
276.346517
0
LINE
8
Image
10
148.875352
20
276.346517
11
147.751614
21
279.018886
0
LINE
8
Image
10
147.751614
20
279.018886
11
146.713698
21
280.878761
0
LINE
8
Image
10
146.713698
20
280.878761
11
145.500328
21
282.609384
0
LINE
8
Image
10
145.500328
20
282.609384
11
144.131894
21
284.193385
0
LINE
8
Image
10
144.131894
20
284.193385
11
142.628787
21
285.613389
0
LINE
8
Image
10
142.628787
20
285.613389
11
141.011395
21
286.852026
0
LINE
8
Image
10
141.011395
20
286.852026
11
139.300110
21
287.891921
0
LINE
8
Image
10
139.300110
20
287.891921
11
137.515322
21
288.715704
0
LINE
8
Image
10
137.515322
20
288.715704
11
135.677422
21
289.306002
0
LINE
8
Image
10
135.677422
20
289.306002
11
134.044164
21
289.717261
0
LINE
8
Image
10
134.044164
20
289.717261
11
132.626100
21
288.106255
0
LINE
8
Image
10
132.626100
20
288.106255
11
131.431589
21
286.907224
0
LINE
8
Image
10
131.431589
20
286.907224
11
130.551002
21
286.286714
0
LINE
8
Image
10
130.551002
20
286.286714
11
129.868079
21
285.694018
0
LINE
8
Image
10
129.868079
20
285.694018
11
129.195833
21
284.442247
0
LINE
8
Image
10
129.195833
20
284.442247
11
128.566400
21
282.675736
0
LINE
8
Image
10
128.566400
20
282.675736
11
128.011914
21
280.538822
0
LINE
8
Image
10
128.011914
20
280.538822
11
127.564513
21
278.175843
0
LINE
8
Image
10
127.564513
20
278.175843
11
127.256332
21
275.731135
0
LINE
8
Image
10
127.256332
20
275.731135
11
127.119507
21
273.349035
0
LINE
8
Image
10
127.119507
20
273.349035
11
127.186175
21
271.173880
0
LINE
8
Image
10
127.186175
20
271.173880
11
127.359169
21
269.376162
0
LINE
8
Image
10
127.359169
20
269.376162
11
127.514458
21
268.889938
0
LINE
8
Image
10
127.514458
20
268.889938
11
127.802513
21
268.650263
0
LINE
8
Image
10
127.802513
20
268.650263
11
128.288511
21
268.635734
0
LINE
8
Image
10
128.288511
20
268.635734
11
129.037630
21
268.824944
0
LINE
8
Image
10
129.037630
20
268.824944
11
131.585944
21
269.728962
0
LINE
8
Image
10
131.585944
20
269.728962
11
133.997616
21
270.387135
0
LINE
8
Image
10
133.997616
20
270.387135
11
136.478655
21
270.676335
0
LINE
8
Image
10
136.478655
20
270.676335
11
138.980186
21
270.608224
0
LINE
8
Image
10
138.980186
20
270.608224
11
141.453333
21
270.194460
0
LINE
8
Image
10
141.453333
20
270.194460
11
143.849220
21
269.446703
0
LINE
8
Image
10
143.849220
20
269.446703
11
146.118971
21
268.376612
0
LINE
8
Image
10
146.118971
20
268.376612
11
148.213710
21
266.995847
0
LINE
8
Image
10
148.213710
20
266.995847
11
150.084561
21
265.316067
0
LINE
8
Image
10
150.084561
20
265.316067
11
151.347196
21
264.230705
0
LINE
8
Image
10
151.347196
20
264.230705
11
151.418139
21
264.930197
0
LINE
8
Image
10
151.418139
20
264.930197
11
151.270642
21
266.611952
0
LINE
8
Image
10
151.270642
20
266.611952
11
151.270642
21
266.611952
0
LINE
8
Image
10
3.738198
20
70.114964
11
2.535638
21
76.815585
0
LINE
8
Image
10
2.535638
20
76.815585
11
1.236299
21
85.901750
0
LINE
8
Image
10
1.236299
20
85.901750
11
0.692473
21
91.309130
0
LINE
8
Image
10
0.692473
20
91.309130
11
0.327025
21
96.636677
0
LINE
8
Image
10
0.327025
20
96.636677
11
0.139735
21
101.883071
0
LINE
8
Image
10
0.139735
20
101.883071
11
0.130387
21
107.046995
0
LINE
8
Image
10
0.130387
20
107.046995
11
0.298764
21
112.127131
0
LINE
8
Image
10
0.298764
20
112.127131
11
0.644646
21
117.122161
0
LINE
8
Image
10
0.644646
20
117.122161
11
1.167817
21
122.030767
0
LINE
8
Image
10
1.167817
20
122.030767
11
1.868059
21
126.851631
0
LINE
8
Image
10
1.868059
20
126.851631
11
2.745155
21
131.583434
0
LINE
8
Image
10
2.745155
20
131.583434
11
3.798886
21
136.224860
0
LINE
8
Image
10
3.798886
20
136.224860
11
5.029035
21
140.774589
0
LINE
8
Image
10
5.029035
20
140.774589
11
6.435385
21
145.231303
0
LINE
8
Image
10
6.435385
20
145.231303
11
8.017718
21
149.593686
0
LINE
8
Image
10
8.017718
20
149.593686
11
9.775816
21
153.860418
0
LINE
8
Image
10
9.775816
20
153.860418
11
11.709461
21
158.030182
0
LINE
8
Image
10
11.709461
20
158.030182
11
13.818437
21
162.101659
0
LINE
8
Image
10
13.818437
20
162.101659
11
17.784685
21
168.818240
0
LINE
8
Image
10
17.784685
20
168.818240
11
22.158922
21
175.131821
0
LINE
8
Image
10
22.158922
20
175.131821
11
27.119163
21
181.280060
0
LINE
8
Image
10
27.119163
20
181.280060
11
32.843423
21
187.500611
0
LINE
8
Image
10
32.843423
20
187.500611
11
37.993828
21
192.793290
0
LINE
8
Image
10
37.993828
20
192.793290
11
37.499148
21
193.982861
0
LINE
8
Image
10
37.499148
20
193.982861
11
37.199360
21
195.118025
0
LINE
8
Image
10
37.199360
20
195.118025
11
37.260013
21
196.186914
0
LINE
8
Image
10
37.260013
20
196.186914
11
37.674840
21
197.162577
0
LINE
8
Image
10
37.674840
20
197.162577
11
38.437573
21
198.018061
0
LINE
8
Image
10
38.437573
20
198.018061
11
39.257670
21
198.572133
0
LINE
8
Image
10
39.257670
20
198.572133
11
40.398925
21
199.040230
0
LINE
8
Image
10
40.398925
20
199.040230
11
44.626334
21
200.038980
0
LINE
8
Image
10
44.626334
20
200.038980
11
46.305662
21
200.462780
0
LINE
8
Image
10
46.305662
20
200.462780
11
47.765867
21
201.010090
0
LINE
8
Image
10
47.765867
20
201.010090
11
48.948017
21
201.654334
0
LINE
8
Image
10
48.948017
20
201.654334
11
49.793177
21
202.368935
0
LINE
8
Image
10
49.793177
20
202.368935
11
50.743104
21
204.178626
0
LINE
8
Image
10
50.743104
20
204.178626
11
52.211470
21
207.609941
0
LINE
8
Image
10
52.211470
20
207.609941
11
54.368266
21
212.618051
0
LINE
8
Image
10
54.368266
20
212.618051
11
56.973356
21
218.218767
0
LINE
8
Image
10
56.973356
20
218.218767
11
58.939798
21
222.066947
0
LINE
8
Image
10
58.939798
20
222.066947
11
60.459386
21
224.496476
0
LINE
8
Image
10
60.459386
20
224.496476
11
61.112311
21
225.259807
0
LINE
8
Image
10
61.112311
20
225.259807
11
61.726364
21
225.765147
0
LINE
8
Image
10
61.726364
20
225.765147
11
62.325826
21
226.044721
0
LINE
8
Image
10
62.325826
20
226.044721
11
62.934977
21
226.130751
0
LINE
8
Image
10
62.934977
20
226.130751
11
65.377351
21
226.693080
0
LINE
8
Image
10
65.377351
20
226.693080
11
66.275400
21
227.030390
0
LINE
8
Image
10
66.275400
20
227.030390
11
66.771573
21
227.348485
0
LINE
8
Image
10
66.771573
20
227.348485
11
66.983221
21
227.769984
0
LINE
8
Image
10
66.983221
20
227.769984
11
67.027692
21
228.417502
0
LINE
8
Image
10
67.027692
20
228.417502
11
67.173135
21
229.866150
0
LINE
8
Image
10
67.173135
20
229.866150
11
67.574202
21
231.675496
0
LINE
8
Image
10
67.574202
20
231.675496
11
68.931638
21
235.824821
0
LINE
8
Image
10
68.931638
20
235.824821
11
70.676857
21
239.762558
0
LINE
8
Image
10
70.676857
20
239.762558
11
71.562654
21
241.307419
0
LINE
8
Image
10
71.562654
20
241.307419
11
72.386718
21
242.385788
0
LINE
8
Image
10
72.386718
20
242.385788
11
73.214562
21
243.197151
0
LINE
8
Image
10
73.214562
20
243.197151
11
73.829685
21
243.610937
0
LINE
8
Image
10
73.829685
20
243.610937
11
74.466599
21
243.726250
0
LINE
8
Image
10
74.466599
20
243.726250
11
75.359816
21
243.642192
0
LINE
8
Image
10
75.359816
20
243.642192
11
77.490063
21
243.103630
0
LINE
8
Image
10
77.490063
20
243.103630
11
79.271523
21
242.123104
0
LINE
8
Image
10
79.271523
20
242.123104
11
80.695865
21
240.706846
0
LINE
8
Image
10
80.695865
20
240.706846
11
81.754758
21
238.861082
0
LINE
8
Image
10
81.754758
20
238.861082
11
82.415453
21
237.303929
0
LINE
8
Image
10
82.415453
20
237.303929
11
83.412262
21
239.213859
0
LINE
8
Image
10
83.412262
20
239.213859
11
84.782120
21
241.616691
0
LINE
8
Image
10
84.782120
20
241.616691
11
86.405524
21
244.070546
0
LINE
8
Image
10
86.405524
20
244.070546
11
88.265055
21
246.555501
0
LINE
8
Image
10
88.265055
20
246.555501
11
90.343290
21
249.051632
0
LINE
8
Image
10
90.343290
20
249.051632
11
92.622808
21
251.539017
0
LINE
8
Image
10
92.622808
20
251.539017
11
95.086188
21
253.997733
0
LINE
8
Image
10
95.086188
20
253.997733
11
97.716009
21
256.407856
0
LINE
8
Image
10
97.716009
20
256.407856
11
100.494849
21
258.749464
0
LINE
8
Image
10
100.494849
20
258.749464
11
103.004617
21
260.777262
0
LINE
8
Image
10
103.004617
20
260.777262
11
101.234851
21
262.368435
0
LINE
8
Image
10
101.234851
20
262.368435
11
99.374468
21
264.358890
0
LINE
8
Image
10
99.374468
20
264.358890
11
98.120001
21
266.452700
0
LINE
8
Image
10
98.120001
20
266.452700
11
97.720577
21
267.543694
0
LINE
8
Image
10
97.720577
20
267.543694
11
97.473339
21
268.666923
0
LINE
8
Image
10
97.473339
20
268.666923
11
97.378525
21
269.824521
0
LINE
8
Image
10
97.378525
20
269.824521
11
97.436370
21
271.018620
0
LINE
8
Image
10
97.436370
20
271.018620
11
98.010982
21
273.524848
0
LINE
8
Image
10
98.010982
20
273.524848
11
99.199062
21
276.202668
0
LINE
8
Image
10
99.199062
20
276.202668
11
101.002498
21
279.069138
0
LINE
8
Image
10
101.002498
20
279.069138
11
103.423180
21
282.141318
0
LINE
8
Image
10
103.423180
20
282.141318
11
104.767657
21
283.646661
0
LINE
8
Image
10
104.767657
20
283.646661
11
105.841905
21
284.622473
0
LINE
8
Image
10
105.841905
20
284.622473
11
106.985609
21
285.325937
0
LINE
8
Image
10
106.985609
20
285.325937
11
108.538453
21
286.014240
0
LINE
8
Image
10
108.538453
20
286.014240
11
111.686134
21
287.441039
0
LINE
8
Image
10
111.686134
20
287.441039
11
114.339791
21
289.000351
0
LINE
8
Image
10
114.339791
20
289.000351
11
116.842099
21
290.923636
0
LINE
8
Image
10
116.842099
20
290.923636
11
119.535731
21
293.442354
0
LINE
8
Image
10
119.535731
20
293.442354
11
122.159494
21
295.890480
0
LINE
8
Image
10
122.159494
20
295.890480
11
123.623236
21
296.932814
0
LINE
8
Image
10
123.623236
20
296.932814
11
123.856134
21
296.902239
0
LINE
8
Image
10
123.856134
20
296.902239
11
123.722266
21
296.490733
0
LINE
8
Image
10
123.722266
20
296.490733
11
122.251887
21
294.485616
0
LINE
8
Image
10
122.251887
20
294.485616
11
119.550797
21
291.584132
0
LINE
8
Image
10
119.550797
20
291.584132
11
116.534729
21
289.098401
0
LINE
8
Image
10
116.534729
20
289.098401
11
113.022220
21
286.898177
0
LINE
8
Image
10
113.022220
20
286.898177
11
108.831806
21
284.853211
0
LINE
8
Image
10
108.831806
20
284.853211
11
107.458860
21
284.188123
0
LINE
8
Image
10
107.458860
20
284.188123
11
106.352760
21
283.445607
0
LINE
8
Image
10
106.352760
20
283.445607
11
105.237849
21
282.404262
0
LINE
8
Image
10
105.237849
20
282.404262
11
103.838469
21
280.842687
0
LINE
8
Image
10
103.838469
20
280.842687
11
102.409503
21
279.070465
0
LINE
8
Image
10
102.409503
20
279.070465
11
101.192757
21
277.322216
0
LINE
8
Image
10
101.192757
20
277.322216
11
100.194988
21
275.614557
0
LINE
8
Image
10
100.194988
20
275.614557
11
99.422948
21
273.964108
0
LINE
8
Image
10
99.422948
20
273.964108
11
98.883392
21
272.387487
0
LINE
8
Image
10
98.883392
20
272.387487
11
98.583075
21
270.901311
0
LINE
8
Image
10
98.583075
20
270.901311
11
98.528750
21
269.522199
0
LINE
8
Image
10
98.528750
20
269.522199
11
98.727173
21
268.266771
0
LINE
8
Image
10
98.727173
20
268.266771
11
99.382768
21
266.604333
0
LINE
8
Image
10
99.382768
20
266.604333
11
100.392721
21
264.988795
0
LINE
8
Image
10
100.392721
20
264.988795
11
101.688915
21
263.511508
0
LINE
8
Image
10
101.688915
20
263.511508
11
103.203234
21
262.263827
0
LINE
8
Image
10
103.203234
20
262.263827
11
104.492524
21
261.241317
0
LINE
8
Image
10
104.492524
20
261.241317
11
104.822631
21
260.868329
0
LINE
8
Image
10
104.822631
20
260.868329
11
104.870121
21
260.657782
0
LINE
8
Image
10
104.870121
20
260.657782
11
103.238006
21
259.373012
0
LINE
8
Image
10
103.238006
20
259.373012
11
102.496015
21
258.766060
0
LINE
8
Image
10
102.496015
20
258.766060
11
102.056916
21
258.188643
0
LINE
8
Image
10
102.056916
20
258.188643
11
101.811488
21
257.427123
0
LINE
8
Image
10
101.811488
20
257.427123
11
101.650508
21
256.267860
0
LINE
8
Image
10
101.650508
20
256.267860
11
101.438154
21
248.973085
0
LINE
8
Image
10
101.438154
20
248.973085
11
101.354249
21
244.898674
0
LINE
8
Image
10
101.354249
20
244.898674
11
101.221115
21
244.030406
0
LINE
8
Image
10
101.221115
20
244.030406
11
101.013167
21
243.769618
0
LINE
8
Image
10
101.013167
20
243.769618
11
100.768074
21
243.875574
0
LINE
8
Image
10
100.768074
20
243.875574
11
100.569115
21
244.203891
0
LINE
8
Image
10
100.569115
20
244.203891
11
100.303673
21
245.590318
0
LINE
8
Image
10
100.303673
20
245.590318
11
100.204981
21
248.054312
0
LINE
8
Image
10
100.204981
20
248.054312
11
100.261180
21
251.721287
0
LINE
8
Image
10
100.261180
20
251.721287
11
100.424197
21
257.139140
0
LINE
8
Image
10
100.424197
20
257.139140
11
99.336343
21
256.236735
0
LINE
8
Image
10
99.336343
20
256.236735
11
96.220019
21
253.400506
0
LINE
8
Image
10
96.220019
20
253.400506
11
94.191548
21
251.466682
0
LINE
8
Image
10
94.191548
20
251.466682
11
94.193665
21
248.588289
0
LINE
8
Image
10
94.193665
20
248.588289
11
94.427439
21
244.536673
0
LINE
8
Image
10
94.427439
20
244.536673
11
95.089686
21
240.824286
0
LINE
8
Image
10
95.089686
20
240.824286
11
95.179656
21
240.021502
0
LINE
8
Image
10
95.179656
20
240.021502
11
95.014322
21
239.915938
0
LINE
8
Image
10
95.014322
20
239.915938
11
94.679603
21
239.945047
0
LINE
8
Image
10
94.679603
20
239.945047
11
94.369624
21
240.125543
0
LINE
8
Image
10
94.369624
20
240.125543
11
94.087049
21
240.533986
0
LINE
8
Image
10
94.087049
20
240.533986
11
93.618411
21
241.969352
0
LINE
8
Image
10
93.618411
20
241.969352
11
93.302295
21
244.120408
0
LINE
8
Image
10
93.302295
20
244.120408
11
93.167308
21
246.856421
0
LINE
8
Image
10
93.167308
20
246.856421
11
93.060687
21
248.911900
0
LINE
8
Image
10
93.060687
20
248.911900
11
92.852107
21
249.766834
0
LINE
8
Image
10
92.852107
20
249.766834
11
91.476903
21
248.584984
0
LINE
8
Image
10
91.476903
20
248.584984
11
89.688721
21
246.572613
0
LINE
8
Image
10
89.688721
20
246.572613
11
89.548876
21
245.995893
0
LINE
8
Image
10
89.548876
20
245.995893
11
89.621017
21
244.757061
0
LINE
8
Image
10
89.621017
20
244.757061
11
90.501504
21
239.409595
0
LINE
8
Image
10
90.501504
20
239.409595
11
91.288339
21
234.927756
0
LINE
8
Image
10
91.288339
20
234.927756
11
91.654455
21
232.159302
0
LINE
8
Image
10
91.654455
20
232.159302
11
91.628334
21
230.754615
0
LINE
8
Image
10
91.628334
20
230.754615
11
91.477087
21
230.454429
0
LINE
8
Image
10
91.477087
20
230.454429
11
91.238463
21
230.364079
0
LINE
8
Image
10
91.238463
20
230.364079
11
91.013585
21
230.481859
0
LINE
8
Image
10
91.013585
20
230.481859
11
90.818071
21
230.832500
0
LINE
8
Image
10
90.818071
20
230.832500
11
90.521409
21
232.216160
0
LINE
8
Image
10
90.521409
20
232.216160
11
89.366815
21
239.163078
0
LINE
8
Image
10
89.366815
20
239.163078
11
88.315242
21
244.449419
0
LINE
8
Image
10
88.315242
20
244.449419
11
88.020106
21
244.331042
0
LINE
8
Image
10
88.020106
20
244.331042
11
87.483624
21
243.692675
0
LINE
8
Image
10
87.483624
20
243.692675
11
85.951543
21
241.306485
0
LINE
8
Image
10
85.951543
20
241.306485
11
84.248846
21
238.191865
0
LINE
8
Image
10
84.248846
20
238.191865
11
82.905379
21
235.249831
0
LINE
8
Image
10
82.905379
20
235.249831
11
82.046276
21
232.600722
0
LINE
8
Image
10
82.046276
20
232.600722
11
81.444984
21
230.021618
0
LINE
8
Image
10
81.444984
20
230.021618
11
81.027287
21
227.492366
0
LINE
8
Image
10
81.027287
20
227.492366
11
83.967238
21
224.537061
0
LINE
8
Image
10
83.967238
20
224.537061
11
86.907189
21
221.581759
0
LINE
8
Image
10
86.907189
20
221.581759
11
86.243361
21
220.109649
0
LINE
8
Image
10
86.243361
20
220.109649
11
85.509970
21
218.780098
0
LINE
8
Image
10
85.509970
20
218.780098
11
84.571310
21
217.564231
0
LINE
8
Image
10
84.571310
20
217.564231
11
83.450938
21
216.477163
0
LINE
8
Image
10
83.450938
20
216.477163
11
82.172412
21
215.534012
0
LINE
8
Image
10
82.172412
20
215.534012
11
80.759289
21
214.749895
0
LINE
8
Image
10
80.759289
20
214.749895
11
79.235127
21
214.139930
0
LINE
8
Image
10
79.235127
20
214.139930
11
77.623483
21
213.719234
0
LINE
8
Image
10
77.623483
20
213.719234
11
75.947915
21
213.502924
0
LINE
8
Image
10
75.947915
20
213.502924
11
74.529160
21
213.373665
0
LINE
8
Image
10
74.529160
20
213.373665
11
73.499401
21
213.147152
0
LINE
8
Image
10
73.499401
20
213.147152
11
72.599588
21
212.738049
0
LINE
8
Image
10
72.599588
20
212.738049
11
71.570673
21
212.061023
0
LINE
8
Image
10
71.570673
20
212.061023
11
70.642928
21
211.343034
0
LINE
8
Image
10
70.642928
20
211.343034
11
70.001893
21
210.671548
0
LINE
8
Image
10
70.001893
20
210.671548
11
69.541789
21
209.908785
0
LINE
8
Image
10
69.541789
20
209.908785
11
69.156837
21
208.916965
0
LINE
8
Image
10
69.156837
20
208.916965
11
68.428216
21
207.216696
0
LINE
8
Image
10
68.428216
20
207.216696
11
67.435363
21
205.730844
0
LINE
8
Image
10
67.435363
20
205.730844
11
66.159536
21
204.436439
0
LINE
8
Image
10
66.159536
20
204.436439
11
64.581993
21
203.310512
0
LINE
8
Image
10
64.581993
20
203.310512
11
62.890999
21
202.352974
0
LINE
8
Image
10
62.890999
20
202.352974
11
61.680249
21
201.824382
0
LINE
8
Image
10
61.680249
20
201.824382
11
60.908991
21
201.711547
0
LINE
8
Image
10
60.908991
20
201.711547
11
60.536471
21
202.001281
0
LINE
8
Image
10
60.536471
20
202.001281
11
60.557924
21
202.279412
0
LINE
8
Image
10
60.557924
20
202.279412
11
60.837122
21
202.588190
0
LINE
8
Image
10
60.837122
20
202.588190
11
62.229197
21
203.345691
0
LINE
8
Image
10
62.229197
20
203.345691
11
63.891949
21
204.250027
0
LINE
8
Image
10
63.891949
20
204.250027
11
65.421328
21
205.392730
0
LINE
8
Image
10
65.421328
20
205.392730
11
66.672408
21
206.648767
0
LINE
8
Image
10
66.672408
20
206.648767
11
67.500259
21
207.893108
0
LINE
8
Image
10
67.500259
20
207.893108
11
67.759979
21
208.633097
0
LINE
8
Image
10
67.759979
20
208.633097
11
67.894304
21
209.603070
0
LINE
8
Image
10
67.894304
20
209.603070
11
67.836875
21
212.991980
0
LINE
8
Image
10
67.836875
20
212.991980
11
67.736117
21
215.299504
0
LINE
8
Image
10
67.736117
20
215.299504
11
67.799319
21
216.728126
0
LINE
8
Image
10
67.799319
20
216.728126
11
68.109948
21
217.846540
0
LINE
8
Image
10
68.109948
20
217.846540
11
68.751475
21
219.223444
0
LINE
8
Image
10
68.751475
20
219.223444
11
70.113533
21
221.355340
0
LINE
8
Image
10
70.113533
20
221.355340
11
72.023713
21
223.462124
0
LINE
8
Image
10
72.023713
20
223.462124
11
74.298557
21
225.367897
0
LINE
8
Image
10
74.298557
20
225.367897
11
76.754605
21
226.896763
0
LINE
8
Image
10
76.754605
20
226.896763
11
78.015027
21
227.587084
0
LINE
8
Image
10
78.015027
20
227.587084
11
78.789561
21
228.180157
0
LINE
8
Image
10
78.789561
20
228.180157
11
79.292647
21
228.895612
0
LINE
8
Image
10
79.292647
20
228.895612
11
79.738725
21
229.953078
0
LINE
8
Image
10
79.738725
20
229.953078
11
80.503822
21
232.327388
0
LINE
8
Image
10
80.503822
20
232.327388
11
80.929805
21
234.469540
0
LINE
8
Image
10
80.929805
20
234.469540
11
81.017941
21
236.374842
0
LINE
8
Image
10
81.017941
20
236.374842
11
80.769497
21
238.038599
0
LINE
8
Image
10
80.769497
20
238.038599
11
80.185743
21
239.456119
0
LINE
8
Image
10
80.185743
20
239.456119
11
79.267944
21
240.622708
0
LINE
8
Image
10
79.267944
20
240.622708
11
78.017368
21
241.533674
0
LINE
8
Image
10
78.017368
20
241.533674
11
76.435282
21
242.184324
0
LINE
8
Image
10
76.435282
20
242.184324
11
74.761145
21
242.545642
0
LINE
8
Image
10
74.761145
20
242.545642
11
74.266660
21
242.423295
0
LINE
8
Image
10
74.266660
20
242.423295
11
73.734506
21
242.089611
0
LINE
8
Image
10
73.734506
20
242.089611
11
72.963749
21
241.255308
0
LINE
8
Image
10
72.963749
20
241.255308
11
72.096960
21
239.859649
0
LINE
8
Image
10
72.096960
20
239.859649
11
70.317907
21
235.997796
0
LINE
8
Image
10
70.317907
20
235.997796
11
68.882581
21
231.731115
0
LINE
8
Image
10
68.882581
20
231.731115
11
68.445451
21
229.829422
0
LINE
8
Image
10
68.445451
20
229.829422
11
68.276217
21
228.286671
0
LINE
8
Image
10
68.276217
20
228.286671
11
68.055657
21
227.255268
0
LINE
8
Image
10
68.055657
20
227.255268
11
67.355298
21
226.446085
0
LINE
8
Image
10
67.355298
20
226.446085
11
66.076945
21
225.786217
0
LINE
8
Image
10
66.076945
20
225.786217
11
64.122399
21
225.202758
0
LINE
8
Image
10
64.122399
20
225.202758
11
62.793969
21
224.841906
0
LINE
8
Image
10
62.793969
20
224.841906
11
61.948140
21
224.460891
0
LINE
8
Image
10
61.948140
20
224.460891
11
61.333364
21
223.896973
0
LINE
8
Image
10
61.333364
20
223.896973
11
60.698089
21
222.987412
0
LINE
8
Image
10
60.698089
20
222.987412
11
59.342875
21
220.541658
0
LINE
8
Image
10
59.342875
20
220.541658
11
57.517628
21
216.792118
0
LINE
8
Image
10
57.517628
20
216.792118
11
53.457416
21
207.518839
0
LINE
8
Image
10
53.457416
20
207.518839
11
51.733475
21
203.680523
0
LINE
8
Image
10
51.733475
20
203.680523
11
50.484415
21
201.557388
0
LINE
8
Image
10
50.484415
20
201.557388
11
49.222354
21
200.584154
0
LINE
8
Image
10
49.222354
20
200.584154
11
47.526445
21
199.714024
0
LINE
8
Image
10
47.526445
20
199.714024
11
45.572874
21
199.022394
0
LINE
8
Image
10
45.572874
20
199.022394
11
43.537829
21
198.584663
0
LINE
8
Image
10
43.537829
20
198.584663
11
41.217431
21
198.105242
0
LINE
8
Image
10
41.217431
20
198.105242
11
39.638994
21
197.406837
0
LINE
8
Image
10
39.638994
20
197.406837
11
39.108073
21
196.962176
0
LINE
8
Image
10
39.108073
20
196.962176
11
38.738717
21
196.446761
0
LINE
8
Image
10
38.738717
20
196.446761
11
38.522952
21
195.855257
0
LINE
8
Image
10
38.522952
20
195.855257
11
38.452803
21
195.182326
0
LINE
8
Image
10
38.452803
20
195.182326
11
38.549934
21
194.461709
0
LINE
8
Image
10
38.549934
20
194.461709
11
38.934847
21
193.705928
0
LINE
8
Image
10
38.934847
20
193.705928
11
41.129134
21
191.268257
0
LINE
8
Image
10
41.129134
20
191.268257
11
43.805465
21
188.559962
0
LINE
8
Image
10
43.805465
20
188.559962
11
43.886896
21
181.504415
0
LINE
8
Image
10
43.886896
20
181.504415
11
44.106831
21
175.015050
0
LINE
8
Image
10
44.106831
20
175.015050
11
44.402643
21
173.028096
0
LINE
8
Image
10
44.402643
20
173.028096
11
44.914726
21
170.929185
0
LINE
8
Image
10
44.914726
20
170.929185
11
45.861127
21
166.809946
0
LINE
8
Image
10
45.861127
20
166.809946
11
45.592610
21
166.069742
0
LINE
8
Image
10
45.592610
20
166.069742
11
44.833595
21
164.733028
0
LINE
8
Image
10
44.833595
20
164.733028
11
42.123293
21
160.667812
0
LINE
8
Image
10
42.123293
20
160.667812
11
38.288656
21
155.409790
0
LINE
8
Image
10
38.288656
20
155.409790
11
33.888121
21
149.754452
0
LINE
8
Image
10
33.888121
20
149.754452
11
31.333199
21
146.579456
0
LINE
8
Image
10
31.333199
20
146.579456
11
31.484133
21
143.830634
0
LINE
8
Image
10
31.484133
20
143.830634
11
31.509498
21
141.586423
0
LINE
8
Image
10
31.509498
20
141.586423
11
31.361051
21
141.229667
0
LINE
8
Image
10
31.361051
20
141.229667
11
31.075191
21
141.189432
0
LINE
8
Image
10
31.075191
20
141.189432
11
30.818036
21
141.337503
0
LINE
8
Image
10
30.818036
20
141.337503
11
30.598418
21
141.672291
0
LINE
8
Image
10
30.598418
20
141.672291
11
30.282159
21
142.879921
0
LINE
8
Image
10
30.282159
20
142.879921
11
30.131626
21
144.852843
0
LINE
8
Image
10
30.131626
20
144.852843
11
30.437388
21
146.514275
0
LINE
8
Image
10
30.437388
20
146.514275
11
31.337500
21
148.253551
0
LINE
8
Image
10
31.337500
20
148.253551
11
32.970021
21
150.460007
0
LINE
8
Image
10
32.970021
20
150.460007
11
39.435227
21
158.905490
0
LINE
8
Image
10
39.435227
20
158.905490
11
41.522882
21
161.845674
0
LINE
8
Image
10
41.522882
20
161.845674
11
42.152710
21
162.983605
0
LINE
8
Image
10
42.152710
20
162.983605
11
41.125345
21
162.202824
0
LINE
8
Image
10
41.125345
20
162.202824
11
39.128738
21
160.284164
0
LINE
8
Image
10
39.128738
20
160.284164
11
34.763359
21
155.575278
0
LINE
8
Image
10
34.763359
20
155.575278
11
32.407027
21
152.564429
0
LINE
8
Image
10
32.407027
20
152.564429
11
30.119048
21
149.276605
0
LINE
8
Image
10
30.119048
20
149.276605
11
27.901081
21
145.716385
0
LINE
8
Image
10
27.901081
20
145.716385
11
25.754787
21
141.888350
0
LINE
8
Image
10
25.754787
20
141.888350
11
23.681824
21
137.797080
0
LINE
8
Image
10
23.681824
20
137.797080
11
21.683852
21
133.447155
0
LINE
8
Image
10
21.683852
20
133.447155
11
19.762532
21
128.843155
0
LINE
8
Image
10
19.762532
20
128.843155
11
17.919522
21
123.989662
0
LINE
8
Image
10
17.919522
20
123.989662
11
16.156483
21
118.891254
0
LINE
8
Image
10
16.156483
20
118.891254
11
14.475074
21
113.552512
0
LINE
8
Image
10
14.475074
20
113.552512
11
11.363783
21
102.172347
0
LINE
8
Image
10
11.363783
20
102.172347
11
8.598928
21
89.885809
0
LINE
8
Image
10
8.598928
20
89.885809
11
6.193784
21
76.729539
0
LINE
8
Image
10
6.193784
20
76.729539
11
5.098070
21
70.291353
0
LINE
8
Image
10
5.098070
20
70.291353
11
4.837352
21
69.743291
0
LINE
8
Image
10
4.837352
20
69.743291
11
4.442887
21
69.520708
0
LINE
8
Image
10
4.442887
20
69.520708
11
4.036064
21
69.639350
0
LINE
8
Image
10
4.036064
20
69.639350
11
3.738273
21
70.114964
0
LINE
8
Image
10
3.738273
20
70.114964
11
3.738198
21
70.114964
0
LINE
8
Image
10
6.895538
20
87.044627
11
8.347510
21
94.105433
0
LINE
8
Image
10
8.347510
20
94.105433
11
9.900642
21
100.879741
0
LINE
8
Image
10
9.900642
20
100.879741
11
11.553681
21
107.364769
0
LINE
8
Image
10
11.553681
20
107.364769
11
13.305376
21
113.557734
0
LINE
8
Image
10
13.305376
20
113.557734
11
15.154475
21
119.455855
0
LINE
8
Image
10
15.154475
20
119.455855
11
17.099724
21
125.056349
0
LINE
8
Image
10
17.099724
20
125.056349
11
19.139873
21
130.356435
0
LINE
8
Image
10
19.139873
20
130.356435
11
21.273669
21
135.353330
0
LINE
8
Image
10
21.273669
20
135.353330
11
23.499861
21
140.044253
0
LINE
8
Image
10
23.499861
20
140.044253
11
25.817195
21
144.426421
0
LINE
8
Image
10
25.817195
20
144.426421
11
28.224420
21
148.497052
0
LINE
8
Image
10
28.224420
20
148.497052
11
30.720284
21
152.253363
0
LINE
8
Image
10
30.720284
20
152.253363
11
33.303535
21
155.692574
0
LINE
8
Image
10
33.303535
20
155.692574
11
35.972920
21
158.811902
0
LINE
8
Image
10
35.972920
20
158.811902
11
38.727188
21
161.608565
0
LINE
8
Image
10
38.727188
20
161.608565
11
41.565087
21
164.079780
0
LINE
8
Image
10
41.565087
20
164.079780
11
44.511481
21
166.654728
0
LINE
8
Image
10
44.511481
20
166.654728
11
44.438152
21
167.870201
0
LINE
8
Image
10
44.438152
20
167.870201
11
43.927737
21
170.224778
0
LINE
8
Image
10
43.927737
20
170.224778
11
43.223579
21
173.618103
0
LINE
8
Image
10
43.223579
20
173.618103
11
42.724299
21
177.428387
0
LINE
8
Image
10
42.724299
20
177.428387
11
42.466798
21
181.281943
0
LINE
8
Image
10
42.466798
20
181.281943
11
42.487974
21
184.805085
0
LINE
8
Image
10
42.487974
20
184.805085
11
42.669806
21
188.207186
0
LINE
8
Image
10
42.669806
20
188.207186
11
40.733870
21
189.939657
0
LINE
8
Image
10
40.733870
20
189.939657
11
38.797935
21
191.672130
0
LINE
8
Image
10
38.797935
20
191.672130
11
36.420474
21
189.410491
0
LINE
8
Image
10
36.420474
20
189.410491
11
30.496382
21
183.320267
0
LINE
8
Image
10
30.496382
20
183.320267
11
25.190229
21
177.271087
0
LINE
8
Image
10
25.190229
20
177.271087
11
22.269980
21
173.315993
0
LINE
8
Image
10
22.269980
20
173.315993
11
19.088347
21
168.540443
0
LINE
8
Image
10
19.088347
20
168.540443
11
16.065903
21
163.602884
0
LINE
8
Image
10
16.065903
20
163.602884
11
13.623218
21
159.161761
0
LINE
8
Image
10
13.623218
20
159.161761
11
11.489194
21
154.744741
0
LINE
8
Image
10
11.489194
20
154.744741
11
9.597594
21
150.381295
0
LINE
8
Image
10
9.597594
20
150.381295
11
7.928786
21
146.006832
0
LINE
8
Image
10
7.928786
20
146.006832
11
6.463140
21
141.556764
0
LINE
8
Image
10
6.463140
20
141.556764
11
5.181023
21
136.966501
0
LINE
8
Image
10
5.181023
20
136.966501
11
4.062804
21
132.171455
0
LINE
8
Image
10
4.062804
20
132.171455
11
3.088850
21
127.107036
0
LINE
8
Image
10
3.088850
20
127.107036
11
2.239532
21
121.708654
0
LINE
8
Image
10
2.239532
20
121.708654
11
1.929023
21
118.983187
0
LINE
8
Image
10
1.929023
20
118.983187
11
1.735283
21
115.684171
0
LINE
8
Image
10
1.735283
20
115.684171
11
1.600344
21
104.775339
0
LINE
8
Image
10
1.600344
20
104.775339
11
1.637297
21
96.934967
0
LINE
8
Image
10
1.637297
20
96.934967
11
1.843604
21
91.320695
0
LINE
8
Image
10
1.843604
20
91.320695
11
2.333079
21
86.171946
0
LINE
8
Image
10
2.333079
20
86.171946
11
3.219534
21
79.728148
0
LINE
8
Image
10
3.219534
20
79.728148
11
3.791397
21
76.012139
0
LINE
8
Image
10
3.791397
20
76.012139
11
4.172404
21
74.358047
0
LINE
8
Image
10
4.172404
20
74.358047
11
4.328403
21
74.223342
0
LINE
8
Image
10
4.328403
20
74.223342
11
4.481168
21
74.507062
0
LINE
8
Image
10
4.481168
20
74.507062
11
4.836299
21
76.200373
0
LINE
8
Image
10
4.836299
20
76.200373
11
6.895538
21
87.044627
0
LINE
8
Image
10
6.895538
20
87.044627
11
6.895538
21
87.044627
0
LINE
8
Image
10
71.244675
20
213.263407
11
73.106117
21
214.230279
0
LINE
8
Image
10
73.106117
20
214.230279
11
73.921001
21
214.430344
0
LINE
8
Image
10
73.921001
20
214.430344
11
74.796611
21
214.489099
0
LINE
8
Image
10
74.796611
20
214.489099
11
76.354415
21
214.588961
0
LINE
8
Image
10
76.354415
20
214.588961
11
77.867677
21
214.881008
0
LINE
8
Image
10
77.867677
20
214.881008
11
79.315872
21
215.353930
0
LINE
8
Image
10
79.315872
20
215.353930
11
80.678476
21
215.996417
0
LINE
8
Image
10
80.678476
20
215.996417
11
81.934966
21
216.797159
0
LINE
8
Image
10
81.934966
20
216.797159
11
83.064816
21
217.744848
0
LINE
8
Image
10
83.064816
20
217.744848
11
84.047503
21
218.828172
0
LINE
8
Image
10
84.047503
20
218.828172
11
84.862502
21
220.035822
0
LINE
8
Image
10
84.862502
20
220.035822
11
85.512993
21
221.172830
0
LINE
8
Image
10
85.512993
20
221.172830
11
82.718756
21
224.092763
0
LINE
8
Image
10
82.718756
20
224.092763
11
79.861177
21
227.124606
0
LINE
8
Image
10
79.861177
20
227.124606
11
78.083370
21
226.367735
0
LINE
8
Image
10
78.083370
20
226.367735
11
75.151913
21
224.564397
0
LINE
8
Image
10
75.151913
20
224.564397
11
72.567248
21
222.372796
0
LINE
8
Image
10
72.567248
20
222.372796
11
70.552249
21
220.013444
0
LINE
8
Image
10
70.552249
20
220.013444
11
69.828022
21
218.839773
0
LINE
8
Image
10
69.828022
20
218.839773
11
69.329789
21
217.706857
0
LINE
8
Image
10
69.329789
20
217.706857
11
68.987492
21
216.134115
0
LINE
8
Image
10
68.987492
20
216.134115
11
68.808072
21
214.254365
0
LINE
8
Image
10
68.808072
20
214.254365
11
68.821105
21
212.681318
0
LINE
8
Image
10
68.821105
20
212.681318
11
68.909032
21
212.201593
0
LINE
8
Image
10
68.909032
20
212.201593
11
69.056163
21
212.028686
0
LINE
8
Image
10
69.056163
20
212.028686
11
71.244675
21
213.263407
0
LINE
8
Image
10
71.244675
20
213.263407
11
71.244675
21
213.263407
0
LINE
8
Image
10
105.656810
20
269.777640
11
104.989299
21
270.019380
0
LINE
8
Image
10
104.989299
20
270.019380
11
104.443152
21
270.389682
0
LINE
8
Image
10
104.443152
20
270.389682
11
104.011285
21
270.894891
0
LINE
8
Image
10
104.011285
20
270.894891
11
103.686612
21
271.541349
0
LINE
8
Image
10
103.686612
20
271.541349
11
103.594600
21
272.088784
0
LINE
8
Image
10
103.594600
20
272.088784
11
103.647306
21
272.779830
0
LINE
8
Image
10
103.647306
20
272.779830
11
104.086246
21
274.337824
0
LINE
8
Image
10
104.086246
20
274.337824
11
104.802170
21
275.705471
0
LINE
8
Image
10
104.802170
20
275.705471
11
105.201107
21
276.158583
0
LINE
8
Image
10
105.201107
20
276.158583
11
105.593816
21
276.372911
0
LINE
8
Image
10
105.593816
20
276.372911
11
109.948584
21
277.404755
0
LINE
8
Image
10
109.948584
20
277.404755
11
113.111272
21
278.587149
0
LINE
8
Image
10
113.111272
20
278.587149
11
114.766247
21
279.596307
0
LINE
8
Image
10
114.766247
20
279.596307
11
116.544806
21
281.002132
0
LINE
8
Image
10
116.544806
20
281.002132
11
118.205697
21
282.594335
0
LINE
8
Image
10
118.205697
20
282.594335
11
119.507670
21
284.162626
0
LINE
8
Image
10
119.507670
20
284.162626
11
120.184235
21
284.912850
0
LINE
8
Image
10
120.184235
20
284.912850
11
120.435347
21
284.954143
0
LINE
8
Image
10
120.435347
20
284.954143
11
120.677219
21
284.799503
0
LINE
8
Image
10
120.677219
20
284.799503
11
120.796309
21
284.138329
0
LINE
8
Image
10
120.796309
20
284.138329
11
120.566764
21
282.891282
0
LINE
8
Image
10
120.566764
20
282.891282
11
119.336560
21
279.316288
0
LINE
8
Image
10
119.336560
20
279.316288
11
117.536185
21
275.427955
0
LINE
8
Image
10
117.536185
20
275.427955
11
116.593927
21
273.789235
0
LINE
8
Image
10
116.593927
20
273.789235
11
115.715219
21
272.579717
0
LINE
8
Image
10
115.715219
20
272.579717
11
114.807301
21
271.690000
0
LINE
8
Image
10
114.807301
20
271.690000
11
113.752725
21
271.063066
0
LINE
8
Image
10
113.752725
20
271.063066
11
112.248893
21
270.565972
0
LINE
8
Image
10
112.248893
20
270.565972
11
109.993207
21
270.065771
0
LINE
8
Image
10
109.993207
20
270.065771
11
107.222899
21
269.601240
0
LINE
8
Image
10
107.222899
20
269.601240
11
106.445403
21
269.619694
0
LINE
8
Image
10
106.445403
20
269.619694
11
105.656810
21
269.777640
0
LINE
8
Image
10
105.656810
20
269.777640
11
105.656810
21
269.777640
0
LINE
8
Image
10
111.052359
20
271.516820
11
113.008703
21
272.127698
0
LINE
8
Image
10
113.008703
20
272.127698
11
114.390410
21
272.777242
0
LINE
8
Image
10
114.390410
20
272.777242
11
115.294139
21
273.866777
0
LINE
8
Image
10
115.294139
20
273.866777
11
116.465340
21
275.826637
0
LINE
8
Image
10
116.465340
20
275.826637
11
117.592504
21
278.085088
0
LINE
8
Image
10
117.592504
20
278.085088
11
118.364118
21
280.070399
0
LINE
8
Image
10
118.364118
20
280.070399
11
118.614313
21
280.917055
0
LINE
8
Image
10
118.614313
20
280.917055
11
117.481318
21
280.070399
0
LINE
8
Image
10
117.481318
20
280.070399
11
115.642854
21
278.763904
0
LINE
8
Image
10
115.642854
20
278.763904
11
114.032426
21
277.791399
0
LINE
8
Image
10
114.032426
20
277.791399
11
112.442533
21
277.041188
0
LINE
8
Image
10
112.442533
20
277.041188
11
110.665676
21
276.401577
0
LINE
8
Image
10
110.665676
20
276.401577
11
108.475591
21
275.778667
0
LINE
8
Image
10
108.475591
20
275.778667
11
107.074909
21
275.519581
0
LINE
8
Image
10
107.074909
20
275.519581
11
106.323920
21
275.360807
0
LINE
8
Image
10
106.323920
20
275.360807
11
105.695868
21
274.979075
0
LINE
8
Image
10
105.695868
20
274.979075
11
105.267657
21
274.279101
0
LINE
8
Image
10
105.267657
20
274.279101
11
104.952856
21
273.284752
0
LINE
8
Image
10
104.952856
20
273.284752
11
104.810950
21
272.259120
0
LINE
8
Image
10
104.810950
20
272.259120
11
104.901423
21
271.465298
0
LINE
8
Image
10
104.901423
20
271.465298
11
105.120442
21
271.228851
0
LINE
8
Image
10
105.120442
20
271.228851
11
105.551016
21
271.062257
0
LINE
8
Image
10
105.551016
20
271.062257
11
106.937919
21
270.937713
0
LINE
8
Image
10
106.937919
20
270.937713
11
108.844308
21
271.089842
0
LINE
8
Image
10
108.844308
20
271.089842
11
111.052359
21
271.516820
0
LINE
8
Image
10
111.052359
20
271.516820
11
111.052359
21
271.516820
 0 
ENDSEC
 0 
EOF