999
"DXF R12 Output" (www.mydxf.blogspot.com)
 0 
SECTION
 2 
HEADER
 9 
$ACADVER
 1 
AC1009
 9 
$EXTMIN
 10 
 0 
 20 
 0 
 9 
$EXTMAX
 10 
 8.5 
 20 
 11 
 0 
ENDSEC
 0 
SECTION
 2 
ENTITIES
0
LINE
8
Image
10
254.661138
20
4.464955
11
243.722427
21
10.302555
0
LINE
8
Image
10
243.722427
20
10.302555
11
229.637753
21
18.043591
0
LINE
8
Image
10
229.637753
20
18.043591
11
216.622769
21
25.726639
0
LINE
8
Image
10
216.622769
20
25.726639
11
204.116530
21
33.695725
0
LINE
8
Image
10
204.116530
20
33.695725
11
191.558092
21
42.294873
0
LINE
8
Image
10
191.558092
20
42.294873
11
183.863275
21
47.853548
0
LINE
8
Image
10
183.863275
20
47.853548
11
176.301462
21
53.555415
0
LINE
8
Image
10
176.301462
20
53.555415
11
168.874772
21
59.398377
0
LINE
8
Image
10
168.874772
20
59.398377
11
161.585324
21
65.380334
0
LINE
8
Image
10
161.585324
20
65.380334
11
154.435238
21
71.499187
0
LINE
8
Image
10
154.435238
20
71.499187
11
147.426633
21
77.752839
0
LINE
8
Image
10
147.426633
20
77.752839
11
140.561628
21
84.139188
0
LINE
8
Image
10
140.561628
20
84.139188
11
133.842343
21
90.656138
0
LINE
8
Image
10
133.842343
20
90.656138
11
127.270896
21
97.301588
0
LINE
8
Image
10
127.270896
20
97.301588
11
120.849407
21
104.073440
0
LINE
8
Image
10
120.849407
20
104.073440
11
114.579996
21
110.969595
0
LINE
8
Image
10
114.579996
20
110.969595
11
108.464781
21
117.987955
0
LINE
8
Image
10
108.464781
20
117.987955
11
102.505882
21
125.126419
0
LINE
8
Image
10
102.505882
20
125.126419
11
96.705418
21
132.382890
0
LINE
8
Image
10
96.705418
20
132.382890
11
91.065508
21
139.755269
0
LINE
8
Image
10
91.065508
20
139.755269
11
85.588272
21
147.241455
0
LINE
8
Image
10
85.588272
20
147.241455
11
77.432832
21
159.203084
0
LINE
8
Image
10
77.432832
20
159.203084
11
69.531079
21
171.478740
0
LINE
8
Image
10
69.531079
20
171.478740
11
62.506929
21
183.350148
0
LINE
8
Image
10
62.506929
20
183.350148
11
55.878608
21
195.410494
0
LINE
8
Image
10
55.878608
20
195.410494
11
49.645639
21
207.661343
0
LINE
8
Image
10
49.645639
20
207.661343
11
43.807545
21
220.104258
0
LINE
8
Image
10
43.807545
20
220.104258
11
38.363849
21
232.740800
0
LINE
8
Image
10
38.363849
20
232.740800
11
33.314074
21
245.572534
0
LINE
8
Image
10
33.314074
20
245.572534
11
28.657742
21
258.601023
0
LINE
8
Image
10
28.657742
20
258.601023
11
24.394378
21
271.827829
0
LINE
8
Image
10
24.394378
20
271.827829
11
20.523503
21
285.254516
0
LINE
8
Image
10
20.523503
20
285.254516
11
17.044640
21
298.882647
0
LINE
8
Image
10
17.044640
20
298.882647
11
13.957314
21
312.713784
0
LINE
8
Image
10
13.957314
20
312.713784
11
11.261046
21
326.749491
0
LINE
8
Image
10
11.261046
20
326.749491
11
8.955359
21
340.991332
0
LINE
8
Image
10
8.955359
20
340.991332
11
7.039778
21
355.440868
0
LINE
8
Image
10
7.039778
20
355.440868
11
5.513823
21
370.099663
0
LINE
8
Image
10
5.513823
20
370.099663
11
4.377020
21
384.969281
0
LINE
8
Image
10
4.377020
20
384.969281
11
3.729832
21
398.920098
0
LINE
8
Image
10
3.729832
20
398.920098
11
3.380652
21
414.458788
0
LINE
8
Image
10
3.380652
20
414.458788
11
3.352517
21
429.705571
0
LINE
8
Image
10
3.352517
20
429.705571
11
3.668467
21
442.780666
0
LINE
8
Image
10
3.668467
20
442.780666
11
5.708362
21
481.475930
0
LINE
8
Image
10
5.708362
20
481.475930
11
5.862944
21
483.129574
0
LINE
8
Image
10
5.862944
20
483.129574
11
21.688831
21
483.129574
0
LINE
8
Image
10
21.688831
20
483.129574
11
33.796529
21
483.208331
0
LINE
8
Image
10
33.796529
20
483.208331
11
40.254729
21
483.406751
0
LINE
8
Image
10
40.254729
20
483.406751
11
44.012142
21
483.924243
0
LINE
8
Image
10
44.012142
20
483.924243
11
47.701195
21
484.707276
0
LINE
8
Image
10
47.701195
20
484.707276
11
51.310592
21
485.751204
0
LINE
8
Image
10
51.310592
20
485.751204
11
54.829036
21
487.051382
0
LINE
8
Image
10
54.829036
20
487.051382
11
58.245233
21
488.603164
0
LINE
8
Image
10
58.245233
20
488.603164
11
61.547887
21
490.401905
0
LINE
8
Image
10
61.547887
20
490.401905
11
64.725701
21
492.442959
0
LINE
8
Image
10
64.725701
20
492.442959
11
67.767379
21
494.721680
0
LINE
8
Image
10
67.767379
20
494.721680
11
70.053670
21
496.750694
0
LINE
8
Image
10
70.053670
20
496.750694
11
72.522297
21
499.241755
0
LINE
8
Image
10
72.522297
20
499.241755
11
74.857470
21
501.859052
0
LINE
8
Image
10
74.857470
20
501.859052
11
76.743400
21
504.266776
0
LINE
8
Image
10
76.743400
20
504.266776
11
87.574168
21
521.575783
0
LINE
8
Image
10
87.574168
20
521.575783
11
97.428266
21
537.567526
0
LINE
8
Image
10
97.428266
20
537.567526
11
98.185714
21
538.692004
0
LINE
8
Image
10
98.185714
20
538.692004
11
100.083351
21
538.692004
0
LINE
8
Image
10
100.083351
20
538.692004
11
101.980988
21
538.692004
0
LINE
8
Image
10
101.980988
20
538.692004
11
116.011766
21
524.713307
0
LINE
8
Image
10
116.011766
20
524.713307
11
126.581634
21
514.295451
0
LINE
8
Image
10
126.581634
20
514.295451
11
132.291500
21
508.877924
0
LINE
8
Image
10
132.291500
20
508.877924
11
136.585765
21
505.548281
0
LINE
8
Image
10
136.585765
20
505.548281
11
140.970975
21
502.580157
0
LINE
8
Image
10
140.970975
20
502.580157
11
145.468548
21
499.963967
0
LINE
8
Image
10
145.468548
20
499.963967
11
150.099901
21
497.690126
0
LINE
8
Image
10
150.099901
20
497.690126
11
154.886450
21
495.749049
0
LINE
8
Image
10
154.886450
20
495.749049
11
159.849614
21
494.131151
0
LINE
8
Image
10
159.849614
20
494.131151
11
165.010809
21
492.826846
0
LINE
8
Image
10
165.010809
20
492.826846
11
170.391452
21
491.826550
0
LINE
8
Image
10
170.391452
20
491.826550
11
175.087123
21
491.369680
0
LINE
8
Image
10
175.087123
20
491.369680
11
180.832060
21
491.188198
0
LINE
8
Image
10
180.832060
20
491.188198
11
186.582207
21
491.289395
0
LINE
8
Image
10
186.582207
20
491.289395
11
191.293509
21
491.680563
0
LINE
8
Image
10
191.293509
20
491.680563
11
196.263281
21
492.524635
0
LINE
8
Image
10
196.263281
20
492.524635
11
201.067912
21
493.643739
0
LINE
8
Image
10
201.067912
20
493.643739
11
205.722399
21
495.044044
0
LINE
8
Image
10
205.722399
20
495.044044
11
210.241741
21
496.731721
0
LINE
8
Image
10
210.241741
20
496.731721
11
214.640934
21
498.712938
0
LINE
8
Image
10
214.640934
20
498.712938
11
218.934978
21
500.993867
0
LINE
8
Image
10
218.934978
20
500.993867
11
223.138869
21
503.580675
0
LINE
8
Image
10
223.138869
20
503.580675
11
227.267605
21
506.479534
0
LINE
8
Image
10
227.267605
20
506.479534
11
229.596422
21
508.340292
0
LINE
8
Image
10
229.596422
20
508.340292
11
232.603923
21
511.062756
0
LINE
8
Image
10
232.603923
20
511.062756
11
244.013939
21
522.257537
0
LINE
8
Image
10
244.013939
20
522.257537
11
257.179211
21
535.363014
0
LINE
8
Image
10
257.179211
20
535.363014
11
270.207664
21
522.392440
0
LINE
8
Image
10
270.207664
20
522.392440
11
280.108492
21
512.682733
0
LINE
8
Image
10
280.108492
20
512.682733
11
285.617348
21
507.552117
0
LINE
8
Image
10
285.617348
20
507.552117
11
289.042816
21
505.006194
0
LINE
8
Image
10
289.042816
20
505.006194
11
292.565978
21
502.668744
0
LINE
8
Image
10
292.565978
20
502.668744
11
296.180550
21
500.541253
0
LINE
8
Image
10
296.180550
20
500.541253
11
299.880247
21
498.625206
0
LINE
8
Image
10
299.880247
20
498.625206
11
303.658783
21
496.922087
0
LINE
8
Image
10
303.658783
20
496.922087
11
307.509872
21
495.433381
0
LINE
8
Image
10
307.509872
20
495.433381
11
311.427229
21
494.160574
0
LINE
8
Image
10
311.427229
20
494.160574
11
315.404569
21
493.105150
0
LINE
8
Image
10
315.404569
20
493.105150
11
319.435606
21
492.268595
0
LINE
8
Image
10
319.435606
20
492.268595
11
323.514056
21
491.652392
0
LINE
8
Image
10
323.514056
20
491.652392
11
327.633632
21
491.258028
0
LINE
8
Image
10
327.633632
20
491.258028
11
331.788050
21
491.086986
0
LINE
8
Image
10
331.788050
20
491.086986
11
335.971023
21
491.140753
0
LINE
8
Image
10
335.971023
20
491.140753
11
340.176267
21
491.420812
0
LINE
8
Image
10
340.176267
20
491.420812
11
344.397496
21
491.928649
0
LINE
8
Image
10
344.397496
20
491.928649
11
348.628425
21
492.665749
0
LINE
8
Image
10
348.628425
20
492.665749
11
353.244882
21
493.765897
0
LINE
8
Image
10
353.244882
20
493.765897
11
357.840162
21
495.197006
0
LINE
8
Image
10
357.840162
20
495.197006
11
362.381214
21
496.942642
0
LINE
8
Image
10
362.381214
20
496.942642
11
366.834983
21
498.986370
0
LINE
8
Image
10
366.834983
20
498.986370
11
371.168418
21
501.311756
0
LINE
8
Image
10
371.168418
20
501.311756
11
375.348465
21
503.902364
0
LINE
8
Image
10
375.348465
20
503.902364
11
379.342071
21
506.741762
0
LINE
8
Image
10
379.342071
20
506.741762
11
383.116184
21
509.813513
0
LINE
8
Image
10
383.116184
20
509.813513
11
398.747218
21
525.129566
0
LINE
8
Image
10
398.747218
20
525.129566
11
412.393854
21
538.717024
0
LINE
8
Image
10
412.393854
20
538.717024
11
414.343063
21
538.638368
0
LINE
8
Image
10
414.343063
20
538.638368
11
416.292246
21
538.559712
0
LINE
8
Image
10
416.292246
20
538.559712
11
426.022207
21
522.684732
0
LINE
8
Image
10
426.022207
20
522.684732
11
437.413828
21
504.443581
0
LINE
8
Image
10
437.413828
20
504.443581
11
439.258273
21
502.099037
0
LINE
8
Image
10
439.258273
20
502.099037
11
441.686562
21
499.383270
0
LINE
8
Image
10
441.686562
20
499.383270
11
444.263734
21
496.760216
0
LINE
8
Image
10
444.263734
20
496.760216
11
446.554827
21
494.693806
0
LINE
8
Image
10
446.554827
20
494.693806
11
448.949436
21
492.871929
0
LINE
8
Image
10
448.949436
20
492.871929
11
451.512397
21
491.167486
0
LINE
8
Image
10
451.512397
20
491.167486
11
454.213053
21
489.594973
0
LINE
8
Image
10
454.213053
20
489.594973
11
457.020748
21
488.168885
0
LINE
8
Image
10
457.020748
20
488.168885
11
459.904825
21
486.903716
0
LINE
8
Image
10
459.904825
20
486.903716
11
462.834627
21
485.813963
0
LINE
8
Image
10
462.834627
20
485.813963
11
465.779499
21
484.914120
0
LINE
8
Image
10
465.779499
20
484.914120
11
468.708785
21
484.218682
0
LINE
8
Image
10
468.708785
20
484.218682
11
472.155879
21
483.646246
0
LINE
8
Image
10
472.155879
20
483.646246
11
476.358114
21
483.316561
0
LINE
8
Image
10
476.358114
20
483.316561
11
482.721861
21
483.165660
0
LINE
8
Image
10
482.721861
20
483.165660
11
492.653493
21
483.129574
0
LINE
8
Image
10
492.653493
20
483.129574
11
508.472355
21
483.129574
0
LINE
8
Image
10
508.472355
20
483.129574
11
508.639413
21
480.814473
0
LINE
8
Image
10
508.639413
20
480.814473
11
509.452741
21
466.328553
0
LINE
8
Image
10
509.452741
20
466.328553
11
510.438233
21
447.940035
0
LINE
8
Image
10
510.438233
20
447.940035
11
510.698024
21
437.037117
0
LINE
8
Image
10
510.698024
20
437.037117
11
510.784576
21
420.684071
0
LINE
8
Image
10
510.784576
20
420.684071
11
510.697957
21
404.366055
0
LINE
8
Image
10
510.697957
20
404.366055
11
510.438233
21
393.568228
0
LINE
8
Image
10
510.438233
20
393.568228
11
509.554295
21
379.656438
0
LINE
8
Image
10
509.554295
20
379.656438
11
508.516415
21
367.142558
0
LINE
8
Image
10
508.516415
20
367.142558
11
507.262922
21
355.373039
0
LINE
8
Image
10
507.262922
20
355.373039
11
505.732148
21
343.694333
0
LINE
8
Image
10
505.732148
20
343.694333
11
504.158744
21
333.411471
0
LINE
8
Image
10
504.158744
20
333.411471
11
502.386765
21
323.238578
0
LINE
8
Image
10
502.386765
20
323.238578
11
500.415974
21
313.174925
0
LINE
8
Image
10
500.415974
20
313.174925
11
498.246135
21
303.219781
0
LINE
8
Image
10
498.246135
20
303.219781
11
495.877012
21
293.372416
0
LINE
8
Image
10
495.877012
20
293.372416
11
493.308367
21
283.632099
0
LINE
8
Image
10
493.308367
20
283.632099
11
490.539965
21
273.998101
0
LINE
8
Image
10
490.539965
20
273.998101
11
487.571568
21
264.469692
0
LINE
8
Image
10
487.571568
20
264.469692
11
484.402941
21
255.046141
0
LINE
8
Image
10
484.402941
20
255.046141
11
481.033847
21
245.726718
0
LINE
8
Image
10
481.033847
20
245.726718
11
477.464049
21
236.510693
0
LINE
8
Image
10
477.464049
20
236.510693
11
473.693311
21
227.397336
0
LINE
8
Image
10
473.693311
20
227.397336
11
469.721396
21
218.385916
0
LINE
8
Image
10
469.721396
20
218.385916
11
465.548068
21
209.475705
0
LINE
8
Image
10
465.548068
20
209.475705
11
461.173091
21
200.665970
0
LINE
8
Image
10
461.173091
20
200.665970
11
456.596228
21
191.955982
0
LINE
8
Image
10
456.596228
20
191.955982
11
448.986199
21
178.471754
0
LINE
8
Image
10
448.986199
20
178.471754
11
440.878398
21
165.268978
0
LINE
8
Image
10
440.878398
20
165.268978
11
432.283570
21
152.358424
0
LINE
8
Image
10
432.283570
20
152.358424
11
423.212459
21
139.750867
0
LINE
8
Image
10
423.212459
20
139.750867
11
413.675807
21
127.457077
0
LINE
8
Image
10
413.675807
20
127.457077
11
403.684360
21
115.487828
0
LINE
8
Image
10
403.684360
20
115.487828
11
393.248861
21
103.853892
0
LINE
8
Image
10
393.248861
20
103.853892
11
382.380055
21
92.566040
0
LINE
8
Image
10
382.380055
20
92.566040
11
371.088684
21
81.635045
0
LINE
8
Image
10
371.088684
20
81.635045
11
359.385493
21
71.071680
0
LINE
8
Image
10
359.385493
20
71.071680
11
347.281225
21
60.886717
0
LINE
8
Image
10
347.281225
20
60.886717
11
334.786626
21
51.090928
0
LINE
8
Image
10
334.786626
20
51.090928
11
321.912437
21
41.695084
0
LINE
8
Image
10
321.912437
20
41.695084
11
308.669405
21
32.709960
0
LINE
8
Image
10
308.669405
20
32.709960
11
295.068271
21
24.146326
0
LINE
8
Image
10
295.068271
20
24.146326
11
281.119781
21
16.014955
0
LINE
8
Image
10
281.119781
20
16.014955
11
267.410123
21
8.589681
0
LINE
8
Image
10
267.410123
20
8.589681
11
257.128191
21
3.180192
0
LINE
8
Image
10
257.128191
20
3.180192
11
254.661481
21
4.464955
0
LINE
8
Image
10
254.661481
20
4.464955
11
254.661138
21
4.464955
0
LINE
8
Image
10
263.982016
20
23.589199
11
273.661635
21
28.874298
0
LINE
8
Image
10
273.661635
20
28.874298
11
283.179242
21
34.364258
0
LINE
8
Image
10
283.179242
20
34.364258
11
292.531515
21
40.056400
0
LINE
8
Image
10
292.531515
20
40.056400
11
301.715133
21
45.948049
0
LINE
8
Image
10
301.715133
20
45.948049
11
310.726774
21
52.036528
0
LINE
8
Image
10
310.726774
20
52.036528
11
319.563117
21
58.319159
0
LINE
8
Image
10
319.563117
20
58.319159
11
328.220839
21
64.793266
0
LINE
8
Image
10
328.220839
20
64.793266
11
336.696620
21
71.456173
0
LINE
8
Image
10
336.696620
20
71.456173
11
344.987137
21
78.305202
0
LINE
8
Image
10
344.987137
20
78.305202
11
353.089070
21
85.337676
0
LINE
8
Image
10
353.089070
20
85.337676
11
360.999096
21
92.550919
0
LINE
8
Image
10
360.999096
20
92.550919
11
368.713894
21
99.942254
0
LINE
8
Image
10
368.713894
20
99.942254
11
376.230142
21
107.509005
0
LINE
8
Image
10
376.230142
20
107.509005
11
383.544519
21
115.248493
0
LINE
8
Image
10
383.544519
20
115.248493
11
390.653703
21
123.158043
0
LINE
8
Image
10
390.653703
20
123.158043
11
397.554372
21
131.234978
0
LINE
8
Image
10
397.554372
20
131.234978
11
407.445330
21
143.577646
0
LINE
8
Image
10
407.445330
20
143.577646
11
416.828018
21
156.240933
0
LINE
8
Image
10
416.828018
20
156.240933
11
421.328296
21
162.692039
0
LINE
8
Image
10
421.328296
20
162.692039
11
425.700951
21
169.222376
0
LINE
8
Image
10
425.700951
20
169.222376
11
429.945796
21
175.831636
0
LINE
8
Image
10
429.945796
20
175.831636
11
434.062646
21
182.519511
0
LINE
8
Image
10
434.062646
20
182.519511
11
438.051315
21
189.285693
0
LINE
8
Image
10
438.051315
20
189.285693
11
441.911619
21
196.129874
0
LINE
8
Image
10
441.911619
20
196.129874
11
449.246386
21
210.051002
0
LINE
8
Image
10
449.246386
20
210.051002
11
456.065462
21
224.280430
0
LINE
8
Image
10
456.065462
20
224.280430
11
462.367365
21
238.815696
0
LINE
8
Image
10
462.367365
20
238.815696
11
465.665727
21
247.091634
0
LINE
8
Image
10
465.665727
20
247.091634
11
468.800304
21
255.486292
0
LINE
8
Image
10
468.800304
20
255.486292
11
471.770037
21
263.994984
0
LINE
8
Image
10
471.770037
20
263.994984
11
474.573868
21
272.613022
0
LINE
8
Image
10
474.573868
20
272.613022
11
477.210738
21
281.335720
0
LINE
8
Image
10
477.210738
20
281.335720
11
479.679590
21
290.158391
0
LINE
8
Image
10
479.679590
20
290.158391
11
481.979364
21
299.076350
0
LINE
8
Image
10
481.979364
20
299.076350
11
484.109003
21
308.084909
0
LINE
8
Image
10
484.109003
20
308.084909
11
486.067449
21
317.179383
0
LINE
8
Image
10
486.067449
20
317.179383
11
487.853642
21
326.355083
0
LINE
8
Image
10
487.853642
20
326.355083
11
489.466526
21
335.607325
0
LINE
8
Image
10
489.466526
20
335.607325
11
490.905040
21
344.931421
0
LINE
8
Image
10
490.905040
20
344.931421
11
492.168128
21
354.322684
0
LINE
8
Image
10
492.168128
20
354.322684
11
493.254730
21
363.776429
0
LINE
8
Image
10
493.254730
20
363.776429
11
494.163789
21
373.287969
0
LINE
8
Image
10
494.163789
20
373.287969
11
494.894247
21
382.852617
0
LINE
8
Image
10
494.894247
20
382.852617
11
495.713478
21
397.748216
0
LINE
8
Image
10
495.713478
20
397.748216
11
496.013777
21
415.001899
0
LINE
8
Image
10
496.013777
20
415.001899
11
496.057244
21
426.433191
0
LINE
8
Image
10
496.057244
20
426.433191
11
495.929778
21
436.376264
0
LINE
8
Image
10
495.929778
20
436.376264
11
495.596284
21
446.347154
0
LINE
8
Image
10
495.596284
20
446.347154
11
495.021670
21
457.861897
0
LINE
8
Image
10
495.021670
20
457.861897
11
494.507797
21
467.693376
0
LINE
8
Image
10
494.507797
20
467.693376
11
494.505151
21
468.264446
0
LINE
8
Image
10
494.505151
20
468.264446
11
483.326519
21
468.385882
0
LINE
8
Image
10
483.326519
20
468.385882
11
476.489969
21
468.487160
0
LINE
8
Image
10
476.489969
20
468.487160
11
472.140178
21
468.678334
0
LINE
8
Image
10
472.140178
20
468.678334
11
468.829350
21
469.069450
0
LINE
8
Image
10
468.829350
20
469.069450
11
465.109688
21
469.770559
0
LINE
8
Image
10
465.109688
20
469.770559
11
459.741323
21
471.127137
0
LINE
8
Image
10
459.741323
20
471.127137
11
454.462091
21
472.990458
0
LINE
8
Image
10
454.462091
20
472.990458
11
449.318968
21
475.331446
0
LINE
8
Image
10
449.318968
20
475.331446
11
444.358927
21
478.121025
0
LINE
8
Image
10
444.358927
20
478.121025
11
439.628941
21
481.330119
0
LINE
8
Image
10
439.628941
20
481.330119
11
435.175985
21
484.929651
0
LINE
8
Image
10
435.175985
20
484.929651
11
431.047032
21
488.890546
0
LINE
8
Image
10
431.047032
20
488.890546
11
427.289057
21
493.183728
0
LINE
8
Image
10
427.289057
20
493.183728
11
425.710091
21
495.274115
0
LINE
8
Image
10
425.710091
20
495.274115
11
423.812615
21
498.071610
0
LINE
8
Image
10
423.812615
20
498.071610
11
417.386085
21
508.355729
0
LINE
8
Image
10
417.386085
20
508.355729
11
411.890114
21
517.310029
0
LINE
8
Image
10
411.890114
20
517.310029
11
402.993246
21
508.466524
0
LINE
8
Image
10
402.993246
20
508.466524
11
393.298370
21
499.048662
0
LINE
8
Image
10
393.298370
20
499.048662
11
390.264759
21
496.438031
0
LINE
8
Image
10
390.264759
20
496.438031
11
387.055190
21
493.966028
0
LINE
8
Image
10
387.055190
20
493.966028
11
382.231508
21
490.609023
0
LINE
8
Image
10
382.231508
20
490.609023
11
377.225951
21
487.598648
0
LINE
8
Image
10
377.225951
20
487.598648
11
372.034785
21
484.933438
0
LINE
8
Image
10
372.034785
20
484.933438
11
366.654276
21
482.611927
0
LINE
8
Image
10
366.654276
20
482.611927
11
361.080692
21
480.632650
0
LINE
8
Image
10
361.080692
20
480.632650
11
355.310299
21
478.994140
0
LINE
8
Image
10
355.310299
20
478.994140
11
349.339363
21
477.694933
0
LINE
8
Image
10
349.339363
20
477.694933
11
343.164151
21
476.733563
0
LINE
8
Image
10
343.164151
20
476.733563
11
338.629126
21
476.441356
0
LINE
8
Image
10
338.629126
20
476.441356
11
332.512853
21
476.373471
0
LINE
8
Image
10
332.512853
20
476.373471
11
326.364424
21
476.519977
0
LINE
8
Image
10
326.364424
20
476.519977
11
321.732928
21
476.870945
0
LINE
8
Image
10
321.732928
20
476.870945
11
316.375750
21
477.728978
0
LINE
8
Image
10
316.375750
20
477.728978
11
311.186127
21
478.846561
0
LINE
8
Image
10
311.186127
20
478.846561
11
306.151538
21
480.228330
0
LINE
8
Image
10
306.151538
20
480.228330
11
301.259462
21
481.878922
0
LINE
8
Image
10
301.259462
20
481.878922
11
296.497381
21
483.802971
0
LINE
8
Image
10
296.497381
20
483.802971
11
291.852773
21
486.005114
0
LINE
8
Image
10
291.852773
20
486.005114
11
287.313118
21
488.489986
0
LINE
8
Image
10
287.313118
20
488.489986
11
282.865897
21
491.262223
0
LINE
8
Image
10
282.865897
20
491.262223
11
278.676769
21
494.193875
0
LINE
8
Image
10
278.676769
20
494.193875
11
274.660923
21
497.399739
0
LINE
8
Image
10
274.660923
20
497.399739
11
270.226212
21
501.383615
0
LINE
8
Image
10
270.226212
20
501.383615
11
264.780485
21
506.649301
0
LINE
8
Image
10
264.780485
20
506.649301
11
257.172771
21
514.165340
0
LINE
8
Image
10
257.172771
20
514.165340
11
249.963837
21
507.042792
0
LINE
8
Image
10
249.963837
20
507.042792
11
244.118380
21
501.380328
0
LINE
8
Image
10
244.118380
20
501.380328
11
240.187593
21
497.768192
0
LINE
8
Image
10
240.187593
20
497.768192
11
234.936444
21
493.655103
0
LINE
8
Image
10
234.936444
20
493.655103
11
229.520481
21
489.985903
0
LINE
8
Image
10
229.520481
20
489.985903
11
223.922271
21
486.752940
0
LINE
8
Image
10
223.922271
20
486.752940
11
218.124387
21
483.948557
0
LINE
8
Image
10
218.124387
20
483.948557
11
212.109396
21
481.565101
0
LINE
8
Image
10
212.109396
20
481.565101
11
205.859869
21
479.594915
0
LINE
8
Image
10
205.859869
20
479.594915
11
199.358376
21
478.030346
0
LINE
8
Image
10
199.358376
20
478.030346
11
192.587487
21
476.863738
0
LINE
8
Image
10
192.587487
20
476.863738
11
187.774379
21
476.495542
0
LINE
8
Image
10
187.774379
20
476.495542
11
181.367160
21
476.372825
0
LINE
8
Image
10
181.367160
20
476.372825
11
174.921878
21
476.495584
0
LINE
8
Image
10
174.921878
20
476.495584
11
169.994578
21
476.863812
0
LINE
8
Image
10
169.994578
20
476.863812
11
163.406617
21
477.972428
0
LINE
8
Image
10
163.406617
20
477.972428
11
157.013773
21
479.499035
0
LINE
8
Image
10
157.013773
20
479.499035
11
150.818629
21
481.442508
0
LINE
8
Image
10
150.818629
20
481.442508
11
144.823767
21
483.801722
0
LINE
8
Image
10
144.823767
20
483.801722
11
139.031771
21
486.575551
0
LINE
8
Image
10
139.031771
20
486.575551
11
133.445224
21
489.762873
0
LINE
8
Image
10
133.445224
20
489.762873
11
128.066707
21
493.362560
0
LINE
8
Image
10
128.066707
20
493.362560
11
122.898804
21
497.373490
0
LINE
8
Image
10
122.898804
20
497.373490
11
118.562632
21
501.414329
0
LINE
8
Image
10
118.562632
20
501.414329
11
111.481245
21
508.344249
0
LINE
8
Image
10
111.481245
20
508.344249
11
102.444934
21
517.331550
0
LINE
8
Image
10
102.444934
20
517.331550
11
101.797979
21
516.303979
0
LINE
8
Image
10
101.797979
20
516.303979
11
96.704997
21
508.000376
0
LINE
8
Image
10
96.704997
20
508.000376
11
91.862032
21
500.200404
0
LINE
8
Image
10
91.862032
20
500.200404
11
88.352925
21
494.972285
0
LINE
8
Image
10
88.352925
20
494.972285
11
85.350164
21
491.168233
0
LINE
8
Image
10
85.350164
20
491.168233
11
82.026239
21
487.640465
0
LINE
8
Image
10
82.026239
20
487.640465
11
78.491970
21
484.349806
0
LINE
8
Image
10
78.491970
20
484.349806
11
74.728568
21
481.331398
0
LINE
8
Image
10
74.728568
20
481.331398
11
70.760087
21
478.598207
0
LINE
8
Image
10
70.760087
20
478.598207
11
66.610576
21
476.163200
0
LINE
8
Image
10
66.610576
20
476.163200
11
62.304088
21
474.039343
0
LINE
8
Image
10
62.304088
20
474.039343
11
57.864674
21
472.239605
0
LINE
8
Image
10
57.864674
20
472.239605
11
53.316385
21
470.776950
0
LINE
8
Image
10
53.316385
20
470.776950
11
48.683272
21
469.664347
0
LINE
8
Image
10
48.683272
20
469.664347
11
44.789691
21
468.991240
0
LINE
8
Image
10
44.789691
20
468.991240
11
40.806112
21
468.578016
0
LINE
8
Image
10
40.806112
20
468.578016
11
35.956437
21
468.370103
0
LINE
8
Image
10
35.956437
20
468.370103
11
29.464569
21
468.312926
0
LINE
8
Image
10
29.464569
20
468.312926
11
19.899902
21
468.312926
0
LINE
8
Image
10
19.899902
20
468.312926
11
19.733409
21
465.997825
0
LINE
8
Image
10
19.733409
20
465.997825
11
18.515732
21
441.986917
0
LINE
8
Image
10
18.515732
20
441.986917
11
18.315511
21
432.856151
0
LINE
8
Image
10
18.315511
20
432.856151
11
18.248330
21
420.712322
0
LINE
8
Image
10
18.248330
20
420.712322
11
18.314334
21
408.556325
0
LINE
8
Image
10
18.314334
20
408.556325
11
18.513669
21
399.389054
0
LINE
8
Image
10
18.513669
20
399.389054
11
19.374873
21
383.427054
0
LINE
8
Image
10
19.374873
20
383.427054
11
20.675691
21
367.730059
0
LINE
8
Image
10
20.675691
20
367.730059
11
22.417240
21
352.294323
0
LINE
8
Image
10
22.417240
20
352.294323
11
24.600633
21
337.116100
0
LINE
8
Image
10
24.600633
20
337.116100
11
27.226986
21
322.191644
0
LINE
8
Image
10
27.226986
20
322.191644
11
30.297412
21
307.517207
0
LINE
8
Image
10
30.297412
20
307.517207
11
33.813028
21
293.089044
0
LINE
8
Image
10
33.813028
20
293.089044
11
37.774947
21
278.903409
0
LINE
8
Image
10
37.774947
20
278.903409
11
42.184284
21
264.956555
0
LINE
8
Image
10
42.184284
20
264.956555
11
47.042155
21
251.244735
0
LINE
8
Image
10
47.042155
20
251.244735
11
52.349674
21
237.764205
0
LINE
8
Image
10
52.349674
20
237.764205
11
58.107956
21
224.511216
0
LINE
8
Image
10
58.107956
20
224.511216
11
64.318115
21
211.482023
0
LINE
8
Image
10
64.318115
20
211.482023
11
70.981266
21
198.672879
0
LINE
8
Image
10
70.981266
20
198.672879
11
78.098525
21
186.080039
0
LINE
8
Image
10
78.098525
20
186.080039
11
85.671005
21
173.699755
0
LINE
8
Image
10
85.671005
20
173.699755
11
90.335614
21
166.530355
0
LINE
8
Image
10
90.335614
20
166.530355
11
95.162408
21
159.447200
0
LINE
8
Image
10
95.162408
20
159.447200
11
100.149056
21
152.452876
0
LINE
8
Image
10
100.149056
20
152.452876
11
105.293225
21
145.549969
0
LINE
8
Image
10
105.293225
20
145.549969
11
110.592585
21
138.741065
0
LINE
8
Image
10
110.592585
20
138.741065
11
116.044803
21
132.028751
0
LINE
8
Image
10
116.044803
20
132.028751
11
121.647548
21
125.415611
0
LINE
8
Image
10
121.647548
20
125.415611
11
127.398488
21
118.904233
0
LINE
8
Image
10
127.398488
20
118.904233
11
133.295291
21
112.497201
0
LINE
8
Image
10
133.295291
20
112.497201
11
139.335626
21
106.197102
0
LINE
8
Image
10
139.335626
20
106.197102
11
145.517162
21
100.006523
0
LINE
8
Image
10
145.517162
20
100.006523
11
151.837565
21
93.928048
0
LINE
8
Image
10
151.837565
20
93.928048
11
158.294506
21
87.964264
0
LINE
8
Image
10
158.294506
20
87.964264
11
164.885652
21
82.117757
0
LINE
8
Image
10
164.885652
20
82.117757
11
171.608671
21
76.391112
0
LINE
8
Image
10
171.608671
20
76.391112
11
178.461232
21
70.786917
0
LINE
8
Image
10
178.461232
20
70.786917
11
185.490884
21
65.262440
0
LINE
8
Image
10
185.490884
20
65.262440
11
192.578728
21
59.908600
0
LINE
8
Image
10
192.578728
20
59.908600
11
199.734056
21
54.719066
0
LINE
8
Image
10
199.734056
20
54.719066
11
206.966162
21
49.687507
0
LINE
8
Image
10
206.966162
20
49.687507
11
214.284337
21
44.807595
0
LINE
8
Image
10
214.284337
20
44.807595
11
221.697876
21
40.072998
0
LINE
8
Image
10
221.697876
20
40.072998
11
229.216070
21
35.477386
0
LINE
8
Image
10
229.216070
20
35.477386
11
236.848212
21
31.014430
0
LINE
8
Image
10
236.848212
20
31.014430
11
249.642714
21
23.938048
0
LINE
8
Image
10
249.642714
20
23.938048
11
254.795306
21
21.214784
0
LINE
8
Image
10
254.795306
20
21.214784
11
257.102856
21
20.118875
0
LINE
8
Image
10
257.102856
20
20.118875
11
263.982014
21
23.589199
0
LINE
8
Image
10
263.982014
20
23.589199
11
263.982016
21
23.589199
0
LINE
8
Image
10
254.396555
20
40.148232
11
242.154879
21
47.061106
0
LINE
8
Image
10
242.154879
20
47.061106
11
230.226168
21
54.273643
0
LINE
8
Image
10
230.226168
20
54.273643
11
218.613325
21
61.783157
0
LINE
8
Image
10
218.613325
20
61.783157
11
207.319252
21
69.586961
0
LINE
8
Image
10
207.319252
20
69.586961
11
196.346851
21
77.682367
0
LINE
8
Image
10
196.346851
20
77.682367
11
185.699024
21
86.066689
0
LINE
8
Image
10
185.699024
20
86.066689
11
175.378675
21
94.737240
0
LINE
8
Image
10
175.378675
20
94.737240
11
165.388704
21
103.691332
0
LINE
8
Image
10
165.388704
20
103.691332
11
155.732015
21
112.926278
0
LINE
8
Image
10
155.732015
20
112.926278
11
146.411509
21
122.439392
0
LINE
8
Image
10
146.411509
20
122.439392
11
137.430090
21
132.227986
0
LINE
8
Image
10
137.430090
20
132.227986
11
128.790658
21
142.289374
0
LINE
8
Image
10
128.790658
20
142.289374
11
120.496118
21
152.620867
0
LINE
8
Image
10
120.496118
20
152.620867
11
112.549370
21
163.219780
0
LINE
8
Image
10
112.549370
20
163.219780
11
104.953317
21
174.083426
0
LINE
8
Image
10
104.953317
20
174.083426
11
97.710862
21
185.209116
0
LINE
8
Image
10
97.710862
20
185.209116
11
91.653828
21
195.191429
0
LINE
8
Image
10
91.653828
20
195.191429
11
85.895006
21
205.361505
0
LINE
8
Image
10
85.895006
20
205.361505
11
80.435474
21
215.716123
0
LINE
8
Image
10
80.435474
20
215.716123
11
75.276313
21
226.252064
0
LINE
8
Image
10
75.276313
20
226.252064
11
70.418602
21
236.966109
0
LINE
8
Image
10
70.418602
20
236.966109
11
65.863421
21
247.855038
0
LINE
8
Image
10
65.863421
20
247.855038
11
61.611851
21
258.915633
0
LINE
8
Image
10
61.611851
20
258.915633
11
57.664970
21
270.144674
0
LINE
8
Image
10
57.664970
20
270.144674
11
54.023859
21
281.538940
0
LINE
8
Image
10
54.023859
20
281.538940
11
50.689597
21
293.095214
0
LINE
8
Image
10
50.689597
20
293.095214
11
47.663264
21
304.810276
0
LINE
8
Image
10
47.663264
20
304.810276
11
44.945940
21
316.680906
0
LINE
8
Image
10
44.945940
20
316.680906
11
42.538705
21
328.703885
0
LINE
8
Image
10
42.538705
20
328.703885
11
40.442638
21
340.875994
0
LINE
8
Image
10
40.442638
20
340.875994
11
38.658819
21
353.194012
0
LINE
8
Image
10
38.658819
20
353.194012
11
37.188329
21
365.654722
0
LINE
8
Image
10
37.188329
20
365.654722
11
35.571933
21
384.548602
0
LINE
8
Image
10
35.571933
20
384.548602
11
35.055950
21
392.551027
0
LINE
8
Image
10
35.055950
20
392.551027
11
34.996065
21
395.976487
0
LINE
8
Image
10
34.996065
20
395.976487
11
70.799355
21
362.819419
0
LINE
8
Image
10
70.799355
20
362.819419
11
279.086408
21
168.547637
0
LINE
8
Image
10
279.086408
20
168.547637
11
348.720394
21
103.415054
0
LINE
8
Image
10
348.720394
20
103.415054
11
346.444125
21
101.143021
0
LINE
8
Image
10
346.444125
20
101.143021
11
340.798263
21
96.151808
0
LINE
8
Image
10
340.798263
20
96.151808
11
333.557223
21
89.978652
0
LINE
8
Image
10
333.557223
20
89.978652
11
326.495422
21
84.160794
0
LINE
8
Image
10
326.495422
20
84.160794
11
318.720416
21
78.077979
0
LINE
8
Image
10
318.720416
20
78.077979
11
310.598623
21
72.038454
0
LINE
8
Image
10
310.598623
20
72.038454
11
302.223527
21
66.103907
0
LINE
8
Image
10
302.223527
20
66.103907
11
293.688615
21
60.336027
0
LINE
8
Image
10
293.688615
20
60.336027
11
285.087371
21
54.796501
0
LINE
8
Image
10
285.087371
20
54.796501
11
276.513282
21
49.547017
0
LINE
8
Image
10
276.513282
20
49.547017
11
268.059832
21
44.649263
0
LINE
8
Image
10
268.059832
20
44.649263
11
259.820506
21
40.164927
0
LINE
8
Image
10
259.820506
20
40.164927
11
257.042385
21
38.705064
0
LINE
8
Image
10
257.042385
20
38.705064
11
254.396555
21
40.148232
0
LINE
8
Image
10
350.963476
20
149.289725
11
333.901236
21
165.143492
0
LINE
8
Image
10
333.901236
20
165.143492
11
316.918311
21
181.139856
0
LINE
8
Image
10
316.918311
20
181.139856
11
315.961252
21
182.518065
0
LINE
8
Image
10
315.961252
20
182.518065
11
315.467980
21
184.026423
0
LINE
8
Image
10
315.467980
20
184.026423
11
315.464858
21
185.506237
0
LINE
8
Image
10
315.464858
20
185.506237
11
315.655341
21
186.185847
0
LINE
8
Image
10
315.655341
20
186.185847
11
315.978248
21
186.798810
0
LINE
8
Image
10
315.978248
20
186.798810
11
316.439700
21
187.417349
0
LINE
8
Image
10
316.439700
20
187.417349
11
316.936174
21
187.841343
0
LINE
8
Image
10
316.936174
20
187.841343
11
318.954807
21
188.690896
0
LINE
8
Image
10
318.954807
20
188.690896
11
320.358599
21
189.323079
0
LINE
8
Image
10
320.358599
20
189.323079
11
321.294762
21
190.085033
0
LINE
8
Image
10
321.294762
20
190.085033
11
321.853949
21
191.083480
0
LINE
8
Image
10
321.853949
20
191.083480
11
322.126813
21
192.425141
0
LINE
8
Image
10
322.126813
20
192.425141
11
322.194017
21
225.558023
0
LINE
8
Image
10
322.194017
20
225.558023
11
322.119052
21
245.287922
0
LINE
8
Image
10
322.119052
20
245.287922
11
321.929897
21
255.285452
0
LINE
8
Image
10
321.929897
20
255.285452
11
321.729571
21
257.945579
0
LINE
8
Image
10
321.729571
20
257.945579
11
321.425187
21
259.745817
0
LINE
8
Image
10
321.425187
20
259.745817
11
320.403557
21
262.864226
0
LINE
8
Image
10
320.403557
20
262.864226
11
317.945872
21
268.685052
0
LINE
8
Image
10
317.945872
20
268.685052
11
316.602793
21
271.810439
0
LINE
8
Image
10
316.602793
20
271.810439
11
316.339769
21
272.833639
0
LINE
8
Image
10
316.339769
20
272.833639
11
316.233861
21
273.844421
0
LINE
8
Image
10
316.233861
20
273.844421
11
316.281347
21
275.255419
0
LINE
8
Image
10
316.281347
20
275.255419
11
316.596482
21
276.382375
0
LINE
8
Image
10
316.596482
20
276.382375
11
317.196648
21
277.263420
0
LINE
8
Image
10
317.196648
20
277.263420
11
318.099224
21
277.936684
0
LINE
8
Image
10
318.099224
20
277.936684
11
319.077576
21
278.324788
0
LINE
8
Image
10
319.077576
20
278.324788
11
320.238113
21
277.936684
0
LINE
8
Image
10
320.238113
20
277.936684
11
322.251361
21
276.331827
0
LINE
8
Image
10
322.251361
20
276.331827
11
326.501797
21
272.552052
0
LINE
8
Image
10
326.501797
20
272.552052
11
338.671740
21
261.316649
0
LINE
8
Image
10
338.671740
20
261.316649
11
350.662945
21
249.928283
0
LINE
8
Image
10
350.662945
20
249.928283
11
354.689960
21
245.957303
0
LINE
8
Image
10
354.689960
20
245.957303
11
356.390417
21
244.084760
0
LINE
8
Image
10
356.390417
20
244.084760
11
356.846360
21
242.648844
0
LINE
8
Image
10
356.846360
20
242.648844
11
356.871082
21
241.220282
0
LINE
8
Image
10
356.871082
20
241.220282
11
356.481064
21
239.922099
0
LINE
8
Image
10
356.481064
20
239.922099
11
355.692791
21
238.877317
0
LINE
8
Image
10
355.692791
20
238.877317
11
354.996905
21
238.476057
0
LINE
8
Image
10
354.996905
20
238.476057
11
354.012054
21
238.126113
0
LINE
8
Image
10
354.012054
20
238.126113
11
352.883094
21
237.743377
0
LINE
8
Image
10
352.883094
20
237.743377
11
351.929908
21
237.245091
0
LINE
8
Image
10
351.929908
20
237.245091
11
351.189372
21
236.654949
0
LINE
8
Image
10
351.189372
20
236.654949
11
350.698364
21
235.996643
0
LINE
8
Image
10
350.698364
20
235.996643
11
350.508114
21
232.884479
0
LINE
8
Image
10
350.508114
20
232.884479
11
350.371482
21
225.350726
0
LINE
8
Image
10
350.371482
20
225.350726
11
350.259867
21
202.799748
0
LINE
8
Image
10
350.259867
20
202.799748
11
350.365119
21
179.906292
0
LINE
8
Image
10
350.365119
20
179.906292
11
350.499571
21
171.944442
0
LINE
8
Image
10
350.499571
20
171.944442
11
350.688839
21
168.232942
0
LINE
8
Image
10
350.688839
20
168.232942
11
351.203137
21
166.102418
0
LINE
8
Image
10
351.203137
20
166.102418
11
351.968944
21
163.731396
0
LINE
8
Image
10
351.968944
20
163.731396
11
354.413638
21
157.824775
0
LINE
8
Image
10
354.413638
20
157.824775
11
355.885976
21
154.314338
0
LINE
8
Image
10
355.885976
20
154.314338
11
356.147417
21
153.295595
0
LINE
8
Image
10
356.147417
20
153.295595
11
356.214205
21
152.400824
0
LINE
8
Image
10
356.214205
20
152.400824
11
356.092154
21
151.161549
0
LINE
8
Image
10
356.092154
20
151.161549
11
355.749011
21
150.124694
0
LINE
8
Image
10
355.749011
20
150.124694
11
355.218993
21
149.310533
0
LINE
8
Image
10
355.218993
20
149.310533
11
354.536319
21
148.739339
0
LINE
8
Image
10
354.536319
20
148.739339
11
353.735204
21
148.431388
0
LINE
8
Image
10
353.735204
20
148.431388
11
352.849867
21
148.406952
0
LINE
8
Image
10
352.849867
20
148.406952
11
351.914526
21
148.686306
0
LINE
8
Image
10
351.914526
20
148.686306
11
350.963396
21
149.289725
0
LINE
8
Image
10
350.963396
20
149.289725
11
350.963476
21
149.289725
0
LINE
8
Image
10
375.707860
20
166.126252
11
373.605871
21
167.106330
0
LINE
8
Image
10
373.605871
20
167.106330
11
371.906243
21
168.477004
0
LINE
8
Image
10
371.906243
20
168.477004
11
370.635405
21
170.148858
0
LINE
8
Image
10
370.635405
20
170.148858
11
369.819784
21
172.032476
0
LINE
8
Image
10
369.819784
20
172.032476
11
369.485807
21
174.038441
0
LINE
8
Image
10
369.485807
20
174.038441
11
369.659902
21
176.077338
0
LINE
8
Image
10
369.659902
20
176.077338
11
370.368496
21
178.059751
0
LINE
8
Image
10
370.368496
20
178.059751
11
371.638018
21
179.896263
0
LINE
8
Image
10
371.638018
20
179.896263
11
372.980939
21
181.145973
0
LINE
8
Image
10
372.980939
20
181.145973
11
374.437227
21
182.015467
0
LINE
8
Image
10
374.437227
20
182.015467
11
376.048534
21
182.523448
0
LINE
8
Image
10
376.048534
20
182.523448
11
377.856512
21
182.688619
0
LINE
8
Image
10
377.856512
20
182.688619
11
379.840369
21
182.533014
0
LINE
8
Image
10
379.840369
20
182.533014
11
381.684525
21
181.766045
0
LINE
8
Image
10
381.684525
20
181.766045
11
383.005373
21
180.947996
0
LINE
8
Image
10
383.005373
20
180.947996
11
384.093996
21
179.980039
0
LINE
8
Image
10
384.093996
20
179.980039
11
384.956317
21
178.889503
0
LINE
8
Image
10
384.956317
20
178.889503
11
385.598256
21
177.703718
0
LINE
8
Image
10
385.598256
20
177.703718
11
386.025735
21
176.450013
0
LINE
8
Image
10
386.025735
20
176.450013
11
386.244676
21
175.155718
0
LINE
8
Image
10
386.244676
20
175.155718
11
386.260998
21
173.848163
0
LINE
8
Image
10
386.260998
20
173.848163
11
386.080625
21
172.554677
0
LINE
8
Image
10
386.080625
20
172.554677
11
385.709476
21
171.302589
0
LINE
8
Image
10
385.709476
20
171.302589
11
385.153474
21
170.119230
0
LINE
8
Image
10
385.153474
20
170.119230
11
384.418539
21
169.031928
0
LINE
8
Image
10
384.418539
20
169.031928
11
383.510592
21
168.068014
0
LINE
8
Image
10
383.510592
20
168.068014
11
382.435556
21
167.254817
0
LINE
8
Image
10
382.435556
20
167.254817
11
381.199350
21
166.619666
0
LINE
8
Image
10
381.199350
20
166.619666
11
379.807898
21
166.189892
0
LINE
8
Image
10
379.807898
20
166.189892
11
378.267118
21
165.992823
0
LINE
8
Image
10
378.267118
20
165.992823
11
376.732487
21
165.997288
0
LINE
8
Image
10
376.732487
20
165.997288
11
375.707860
21
166.126252
0
LINE
8
Image
10
375.707860
20
166.126252
11
375.707860
21
166.126252
0
LINE
8
Image
10
419.356753
20
233.581318
11
295.664200
21
348.983900
0
LINE
8
Image
10
295.664200
20
348.983900
11
188.287293
21
449.142826
0
LINE
8
Image
10
188.287293
20
449.142826
11
177.354801
21
459.383467
0
LINE
8
Image
10
177.354801
20
459.383467
11
176.610645
21
460.116681
0
LINE
8
Image
10
176.610645
20
460.116681
11
176.741444
21
460.048052
0
LINE
8
Image
10
176.741444
20
460.048052
11
178.924254
21
460.044162
0
LINE
8
Image
10
178.924254
20
460.044162
11
182.019332
21
460.012085
0
LINE
8
Image
10
182.019332
20
460.012085
11
186.280944
21
460.154408
0
LINE
8
Image
10
186.280944
20
460.154408
11
190.727288
21
460.424620
0
LINE
8
Image
10
190.727288
20
460.424620
11
194.376560
21
460.776208
0
LINE
8
Image
10
194.376560
20
460.776208
11
201.914384
21
462.001318
0
LINE
8
Image
10
201.914384
20
462.001318
11
209.258354
21
463.706998
0
LINE
8
Image
10
209.258354
20
463.706998
11
216.399603
21
465.889491
0
LINE
8
Image
10
216.399603
20
465.889491
11
223.329267
21
468.545040
0
LINE
8
Image
10
223.329267
20
468.545040
11
230.038478
21
471.669887
0
LINE
8
Image
10
230.038478
20
471.669887
11
236.518372
21
475.260275
0
LINE
8
Image
10
236.518372
20
475.260275
11
242.760083
21
479.312446
0
LINE
8
Image
10
242.760083
20
479.312446
11
248.754745
21
483.822644
0
LINE
8
Image
10
248.754745
20
483.822644
11
254.511836
21
488.853544
0
LINE
8
Image
10
254.511836
20
488.853544
11
257.179494
21
491.390048
0
LINE
8
Image
10
257.179494
20
491.390048
11
259.359896
21
489.287974
0
LINE
8
Image
10
259.359896
20
489.287974
11
265.036060
21
484.230675
0
LINE
8
Image
10
265.036060
20
484.230675
11
271.131600
21
479.584207
0
LINE
8
Image
10
271.131600
20
479.584207
11
277.598012
21
475.373144
0
LINE
8
Image
10
277.598012
20
475.373144
11
284.386790
21
471.622060
0
LINE
8
Image
10
284.386790
20
471.622060
11
291.449427
21
468.355531
0
LINE
8
Image
10
291.449427
20
468.355531
11
298.737418
21
465.598131
0
LINE
8
Image
10
298.737418
20
465.598131
11
306.202257
21
463.374434
0
LINE
8
Image
10
306.202257
20
463.374434
11
313.795438
21
461.709016
0
LINE
8
Image
10
313.795438
20
461.709016
11
317.881149
21
461.053343
0
LINE
8
Image
10
317.881149
20
461.053343
11
321.981809
21
460.556290
0
LINE
8
Image
10
321.981809
20
460.556290
11
326.092292
21
460.217205
0
LINE
8
Image
10
326.092292
20
460.217205
11
330.207469
21
460.035436
0
LINE
8
Image
10
330.207469
20
460.035436
11
334.322211
21
460.010331
0
LINE
8
Image
10
334.322211
20
460.010331
11
338.431392
21
460.141236
0
LINE
8
Image
10
338.431392
20
460.141236
11
342.529882
21
460.427501
0
LINE
8
Image
10
342.529882
20
460.427501
11
346.612554
21
460.868472
0
LINE
8
Image
10
346.612554
20
460.868472
11
350.674280
21
461.463498
0
LINE
8
Image
10
350.674280
20
461.463498
11
354.709931
21
462.211925
0
LINE
8
Image
10
354.709931
20
462.211925
11
358.714380
21
463.113103
0
LINE
8
Image
10
358.714380
20
463.113103
11
362.682498
21
464.166377
0
LINE
8
Image
10
362.682498
20
464.166377
11
366.609158
21
465.371097
0
LINE
8
Image
10
366.609158
20
465.371097
11
370.489232
21
466.726610
0
LINE
8
Image
10
370.489232
20
466.726610
11
374.317591
21
468.232263
0
LINE
8
Image
10
374.317591
20
468.232263
11
378.089107
21
469.887404
0
LINE
8
Image
10
378.089107
20
469.887404
11
381.911785
21
471.742260
0
LINE
8
Image
10
381.911785
20
471.742260
11
385.604266
21
473.715759
0
LINE
8
Image
10
385.604266
20
473.715759
11
389.192194
21
475.825192
0
LINE
8
Image
10
389.192194
20
475.825192
11
392.701216
21
478.087849
0
LINE
8
Image
10
392.701216
20
478.087849
11
396.156975
21
480.521022
0
LINE
8
Image
10
396.156975
20
480.521022
11
399.585119
21
483.142001
0
LINE
8
Image
10
399.585119
20
483.142001
11
403.011290
21
485.968077
0
LINE
8
Image
10
403.011290
20
485.968077
11
406.461136
21
489.016540
0
LINE
8
Image
10
406.461136
20
489.016540
11
408.854527
21
491.067059
0
LINE
8
Image
10
408.854527
20
491.067059
11
409.849306
21
489.677998
0
LINE
8
Image
10
409.849306
20
489.677998
11
411.869670
21
486.681945
0
LINE
8
Image
10
411.869670
20
486.681945
11
414.427287
21
483.381149
0
LINE
8
Image
10
414.427287
20
483.381149
11
417.369009
21
479.962736
0
LINE
8
Image
10
417.369009
20
479.962736
11
420.541687
21
476.613831
0
LINE
8
Image
10
420.541687
20
476.613831
11
425.187848
21
472.200928
0
LINE
8
Image
10
425.187848
20
472.200928
11
429.713067
21
468.468859
0
LINE
8
Image
10
429.713067
20
468.468859
11
434.427803
21
465.181784
0
LINE
8
Image
10
434.427803
20
465.181784
11
439.642516
21
462.103861
0
LINE
8
Image
10
439.642516
20
462.103861
11
443.943337
21
459.929707
0
LINE
8
Image
10
443.943337
20
459.929707
11
448.471077
21
457.984535
0
LINE
8
Image
10
448.471077
20
457.984535
11
453.156060
21
456.287117
0
LINE
8
Image
10
453.156060
20
456.287117
11
457.928611
21
454.856225
0
LINE
8
Image
10
457.928611
20
454.856225
11
462.719056
21
453.710631
0
LINE
8
Image
10
462.719056
20
453.710631
11
467.457717
21
452.869108
0
LINE
8
Image
10
467.457717
20
452.869108
11
472.074921
21
452.350428
0
LINE
8
Image
10
472.074921
20
452.350428
11
476.500992
21
452.173363
0
LINE
8
Image
10
476.500992
20
452.173363
11
479.077766
21
452.173363
0
LINE
8
Image
10
479.077766
20
452.173363
11
479.248581
21
448.611867
0
LINE
8
Image
10
479.248581
20
448.611867
11
479.773696
21
433.133162
0
LINE
8
Image
10
479.773696
20
433.133162
11
479.887754
21
417.458583
0
LINE
8
Image
10
479.887754
20
417.458583
11
479.593021
21
401.979165
0
LINE
8
Image
10
479.593021
20
401.979165
11
478.891764
21
387.085945
0
LINE
8
Image
10
478.891764
20
387.085945
11
478.165458
21
377.057582
0
LINE
8
Image
10
478.165458
20
377.057582
11
477.244595
21
367.109823
0
LINE
8
Image
10
477.244595
20
367.109823
11
476.129819
21
357.245448
0
LINE
8
Image
10
476.129819
20
357.245448
11
474.821776
21
347.467237
0
LINE
8
Image
10
474.821776
20
347.467237
11
473.321109
21
337.777968
0
LINE
8
Image
10
473.321109
20
337.777968
11
471.628464
21
328.180421
0
LINE
8
Image
10
471.628464
20
328.180421
11
469.744485
21
318.677376
0
LINE
8
Image
10
469.744485
20
318.677376
11
467.669817
21
309.271612
0
LINE
8
Image
10
467.669817
20
309.271612
11
465.405103
21
299.965908
0
LINE
8
Image
10
465.405103
20
299.965908
11
462.950989
21
290.763044
0
LINE
8
Image
10
462.950989
20
290.763044
11
460.308120
21
281.665798
0
LINE
8
Image
10
460.308120
20
281.665798
11
457.477139
21
272.676951
0
LINE
8
Image
10
457.477139
20
272.676951
11
454.458692
21
263.799281
0
LINE
8
Image
10
454.458692
20
263.799281
11
451.253422
21
255.035569
0
LINE
8
Image
10
451.253422
20
255.035569
11
447.861975
21
246.388593
0
LINE
8
Image
10
447.861975
20
246.388593
11
444.284995
21
237.861133
0
LINE
8
Image
10
444.284995
20
237.861133
11
438.552878
21
225.194295
0
LINE
8
Image
10
438.552878
20
225.194295
11
436.334562
21
220.614349
0
LINE
8
Image
10
436.334562
20
220.614349
11
435.315156
21
218.830816
0
LINE
8
Image
10
435.315156
20
218.830816
11
419.356753
21
233.581318
0
LINE
8
Image
10
419.356753
20
233.581318
11
419.356753
21
233.581318
0
LINE
8
Image
10
272.201800
20
222.697458
11
264.853510
21
229.540342
0
LINE
8
Image
10
264.853510
20
229.540342
11
247.252814
21
245.905382
0
LINE
8
Image
10
247.252814
20
245.905382
11
234.751267
21
257.595718
0
LINE
8
Image
10
234.751267
20
257.595718
11
234.144185
21
258.477364
0
LINE
8
Image
10
234.144185
20
258.477364
11
233.882395
21
259.464719
0
LINE
8
Image
10
233.882395
20
259.464719
11
233.970735
21
260.501345
0
LINE
8
Image
10
233.970735
20
260.501345
11
234.414040
21
261.530808
0
LINE
8
Image
10
234.414040
20
261.530808
11
235.001984
21
262.250422
0
LINE
8
Image
10
235.001984
20
262.250422
11
235.813468
21
262.733830
0
LINE
8
Image
10
235.813468
20
262.733830
11
237.013563
21
263.046348
0
LINE
8
Image
10
237.013563
20
263.046348
11
238.767340
21
263.253296
0
LINE
8
Image
10
238.767340
20
263.253296
11
240.861842
21
263.583237
0
LINE
8
Image
10
240.861842
20
263.583237
11
241.484661
21
263.939155
0
LINE
8
Image
10
241.484661
20
263.939155
11
241.861708
21
264.524875
0
LINE
8
Image
10
241.861708
20
264.524875
11
242.020873
21
265.417272
0
LINE
8
Image
10
242.020873
20
265.417272
11
241.990044
21
266.693223
0
LINE
8
Image
10
241.990044
20
266.693223
11
241.469958
21
270.703292
0
LINE
8
Image
10
241.469958
20
270.703292
11
241.167405
21
272.721504
0
LINE
8
Image
10
241.167405
20
272.721504
11
226.949275
21
285.982952
0
LINE
8
Image
10
226.949275
20
285.982952
11
212.513129
21
299.244389
0
LINE
8
Image
10
212.513129
20
299.244389
11
211.944766
21
298.378438
0
LINE
8
Image
10
211.944766
20
298.378438
11
211.084334
21
296.372948
0
LINE
8
Image
10
211.084334
20
296.372948
11
210.279093
21
294.116462
0
LINE
8
Image
10
210.279093
20
294.116462
11
209.876306
21
292.497522
0
LINE
8
Image
10
209.876306
20
292.497522
11
209.956589
21
291.017343
0
LINE
8
Image
10
209.956589
20
291.017343
11
210.596530
21
289.081954
0
LINE
8
Image
10
210.596530
20
289.081954
11
211.068818
21
287.662057
0
LINE
8
Image
10
211.068818
20
287.662057
11
211.339753
21
286.315851
0
LINE
8
Image
10
211.339753
20
286.315851
11
211.416464
21
285.078976
0
LINE
8
Image
10
211.416464
20
285.078976
11
211.306080
21
283.987069
0
LINE
8
Image
10
211.306080
20
283.987069
11
211.015731
21
283.075771
0
LINE
8
Image
10
211.015731
20
283.075771
11
210.552545
21
282.380719
0
LINE
8
Image
10
210.552545
20
282.380719
11
209.923654
21
281.937553
0
LINE
8
Image
10
209.923654
20
281.937553
11
209.136185
21
281.781911
0
LINE
8
Image
10
209.136185
20
281.781911
11
208.149493
21
282.429201
0
LINE
8
Image
10
208.149493
20
282.429201
11
206.406815
21
283.985451
0
LINE
8
Image
10
206.406815
20
283.985451
11
198.304958
21
291.558668
0
LINE
8
Image
10
198.304958
20
291.558668
11
192.021112
21
297.454223
0
LINE
8
Image
10
192.021112
20
297.454223
11
191.700122
21
298.061256
0
LINE
8
Image
10
191.700122
20
298.061256
11
191.575155
21
298.853537
0
LINE
8
Image
10
191.575155
20
298.853537
11
191.649858
21
299.711336
0
LINE
8
Image
10
191.649858
20
299.711336
11
191.927878
21
300.514922
0
LINE
8
Image
10
191.927878
20
300.514922
11
192.494859
21
301.397632
0
LINE
8
Image
10
192.494859
20
301.397632
11
193.259710
21
301.943746
0
LINE
8
Image
10
193.259710
20
301.943746
11
194.514952
21
302.281210
0
LINE
8
Image
10
194.514952
20
302.281210
11
196.553104
21
302.537971
0
LINE
8
Image
10
196.553104
20
302.537971
11
199.083720
21
302.893810
0
LINE
8
Image
10
199.083720
20
302.893810
11
200.402281
21
303.308424
0
LINE
8
Image
10
200.402281
20
303.308424
11
201.149601
21
304.153388
0
LINE
8
Image
10
201.149601
20
304.153388
11
201.991401
21
305.559194
0
LINE
8
Image
10
201.991401
20
305.559194
11
211.742213
21
326.682321
0
LINE
8
Image
10
211.742213
20
326.682321
11
220.723632
21
346.604746
0
LINE
8
Image
10
220.723632
20
346.604746
11
221.130175
21
348.371278
0
LINE
8
Image
10
221.130175
20
348.371278
11
221.125237
21
351.234948
0
LINE
8
Image
10
221.125237
20
351.234948
11
220.797138
21
354.716193
0
LINE
8
Image
10
220.797138
20
354.716193
11
219.774549
21
359.227911
0
LINE
8
Image
10
219.774549
20
359.227911
11
218.941489
21
362.779587
0
LINE
8
Image
10
218.941489
20
362.779587
11
218.574308
21
365.227098
0
LINE
8
Image
10
218.574308
20
365.227098
11
218.650873
21
366.882911
0
LINE
8
Image
10
218.650873
20
366.882911
11
219.149056
21
368.059496
0
LINE
8
Image
10
219.149056
20
368.059496
11
219.767501
21
368.776549
0
LINE
8
Image
10
219.767501
20
368.776549
11
220.465596
21
369.187567
0
LINE
8
Image
10
220.465596
20
369.187567
11
221.273645
21
369.303146
0
LINE
8
Image
10
221.273645
20
369.303146
11
222.221952
21
369.133880
0
LINE
8
Image
10
222.221952
20
369.133880
11
222.640827
21
368.968523
0
LINE
8
Image
10
222.640827
20
368.968523
11
223.350720
21
368.475928
0
LINE
8
Image
10
223.350720
20
368.475928
11
227.214847
21
365.076296
0
LINE
8
Image
10
227.214847
20
365.076296
11
255.719470
21
338.590138
0
LINE
8
Image
10
255.719470
20
338.590138
11
261.901256
21
332.688750
0
LINE
8
Image
10
261.901256
20
332.688750
11
264.668037
21
329.763186
0
LINE
8
Image
10
264.668037
20
329.763186
11
265.006850
21
328.726607
0
LINE
8
Image
10
265.006850
20
328.726607
11
265.138479
21
327.478747
0
LINE
8
Image
10
265.138479
20
327.478747
11
265.058197
21
326.247924
0
LINE
8
Image
10
265.058197
20
326.247924
11
264.761276
21
325.262452
0
LINE
8
Image
10
264.761276
20
325.262452
11
263.908200
21
324.122391
0
LINE
8
Image
10
263.908200
20
324.122391
11
262.564544
21
323.230841
0
LINE
8
Image
10
262.564544
20
323.230841
11
261.935161
21
322.818371
0
LINE
8
Image
10
261.935161
20
322.818371
11
261.584452
21
322.415063
0
LINE
8
Image
10
261.584452
20
322.415063
11
262.904555
21
309.988858
0
LINE
8
Image
10
262.904555
20
309.988858
11
266.039323
21
282.924392
0
LINE
8
Image
10
266.039323
20
282.924392
11
269.319603
21
255.420123
0
LINE
8
Image
10
269.319603
20
255.420123
11
271.076237
21
241.674515
0
LINE
8
Image
10
271.076237
20
241.674515
11
271.667944
21
239.267099
0
LINE
8
Image
10
271.667944
20
239.267099
11
272.518833
21
236.484289
0
LINE
8
Image
10
272.518833
20
236.484289
11
274.808419
21
230.367322
0
LINE
8
Image
10
274.808419
20
230.367322
11
275.859576
21
227.628154
0
LINE
8
Image
10
275.859576
20
227.628154
11
276.367844
21
225.630747
0
LINE
8
Image
10
276.367844
20
225.630747
11
276.372578
21
224.104773
0
LINE
8
Image
10
276.372578
20
224.104773
11
275.913132
21
222.779902
0
LINE
8
Image
10
275.913132
20
222.779902
11
275.253692
21
221.797323
0
LINE
8
Image
10
275.253692
20
221.797323
11
274.902218
21
221.595295
0
LINE
8
Image
10
274.902218
20
221.595295
11
274.444829
21
221.506834
0
LINE
8
Image
10
274.444829
20
221.506834
11
273.957657
21
221.515556
0
LINE
8
Image
10
273.957657
20
221.515556
11
273.489803
21
221.680606
0
LINE
8
Image
10
273.489803
20
221.680606
11
272.201800
21
222.697458
0
LINE
8
Image
10
272.201800
20
222.697458
11
272.201800
21
222.697458
0
LINE
8
Image
10
237.313592
20
306.388130
11
235.012446
21
325.814600
0
LINE
8
Image
10
235.012446
20
325.814600
11
233.743115
21
335.671441
0
LINE
8
Image
10
233.743115
20
335.671441
11
233.332955
21
338.104699
0
LINE
8
Image
10
233.332955
20
338.104699
11
232.985838
21
339.457688
0
LINE
8
Image
10
232.985838
20
339.457688
11
232.636793
21
340.167788
0
LINE
8
Image
10
232.636793
20
340.167788
11
232.220851
21
340.672377
0
LINE
8
Image
10
232.220851
20
340.672377
11
231.626586
21
341.363248
0
LINE
8
Image
10
231.626586
20
341.363248
11
224.093885
21
324.900955
0
LINE
8
Image
10
224.093885
20
324.900955
11
216.561186
21
308.218864
0
LINE
8
Image
10
216.561186
20
308.218864
11
228.049065
21
297.301281
0
LINE
8
Image
10
228.049065
20
297.301281
11
239.600039
21
286.624566
0
LINE
8
Image
10
239.600039
20
286.624566
11
237.313592
21
306.388130
0
LINE
8
Image
10
237.313592
20
306.388130
11
237.313592
21
306.388130
0
LINE
8
Image
10
292.761090
20
243.505932
11
290.995391
21
244.269907
0
LINE
8
Image
10
290.995391
20
244.269907
11
289.516945
21
245.296980
0
LINE
8
Image
10
289.516945
20
245.296980
11
288.314386
21
246.597014
0
LINE
8
Image
10
288.314386
20
246.597014
11
287.376349
21
248.179870
0
LINE
8
Image
10
287.376349
20
248.179870
11
286.831857
21
249.741158
0
LINE
8
Image
10
286.831857
20
249.741158
11
286.698091
21
251.619449
0
LINE
8
Image
10
286.698091
20
251.619449
11
286.822550
21
253.288032
0
LINE
8
Image
10
286.822550
20
253.288032
11
287.222418
21
254.726348
0
LINE
8
Image
10
287.222418
20
254.726348
11
287.947550
21
256.057141
0
LINE
8
Image
10
287.947550
20
256.057141
11
289.047799
21
257.403154
0
LINE
8
Image
10
289.047799
20
257.403154
11
290.320451
21
258.545948
0
LINE
8
Image
10
290.320451
20
258.545948
11
291.693143
21
259.328108
0
LINE
8
Image
10
291.693143
20
259.328108
11
293.240227
21
259.781090
0
LINE
8
Image
10
293.240227
20
259.781090
11
295.036054
21
259.936351
0
LINE
8
Image
10
295.036054
20
259.936351
11
297.014304
21
259.797746
0
LINE
8
Image
10
297.014304
20
259.797746
11
298.862559
21
259.027773
0
LINE
8
Image
10
298.862559
20
259.027773
11
300.170160
21
258.218920
0
LINE
8
Image
10
300.170160
20
258.218920
11
301.249888
21
257.261780
0
LINE
8
Image
10
301.249888
20
257.261780
11
302.107332
21
256.183093
0
LINE
8
Image
10
302.107332
20
256.183093
11
302.748080
21
255.009603
0
LINE
8
Image
10
302.748080
20
255.009603
11
303.177720
21
253.768052
0
LINE
8
Image
10
303.177720
20
253.768052
11
303.401842
21
252.485183
0
LINE
8
Image
10
303.401842
20
252.485183
11
303.426034
21
251.187738
0
LINE
8
Image
10
303.426034
20
251.187738
11
303.255883
21
249.902461
0
LINE
8
Image
10
303.255883
20
249.902461
11
302.896980
21
248.656093
0
LINE
8
Image
10
302.896980
20
248.656093
11
302.354912
21
247.475377
0
LINE
8
Image
10
302.354912
20
247.475377
11
301.635268
21
246.387055
0
LINE
8
Image
10
301.635268
20
246.387055
11
300.743636
21
245.417871
0
LINE
8
Image
10
300.743636
20
245.417871
11
299.685605
21
244.594567
0
LINE
8
Image
10
299.685605
20
244.594567
11
298.466764
21
243.943885
0
LINE
8
Image
10
298.466764
20
243.943885
11
297.092700
21
243.492567
0
LINE
8
Image
10
297.092700
20
243.492567
11
295.569003
21
243.267357
0
LINE
8
Image
10
295.569003
20
243.267357
11
294.008926
21
243.281661
0
LINE
8
Image
10
294.008926
20
243.281661
11
292.761090
21
243.505932
0
LINE
8
Image
10
292.761090
20
243.505932
11
292.761090
21
243.505932
0
LINE
8
Image
10
185.893320
20
342.746065
11
184.110422
21
343.756606
0
LINE
8
Image
10
184.110422
20
343.756606
11
182.681304
21
345.092687
0
LINE
8
Image
10
182.681304
20
345.092687
11
181.624501
21
346.681145
0
LINE
8
Image
10
181.624501
20
346.681145
11
180.958549
21
348.448816
0
LINE
8
Image
10
180.958549
20
348.448816
11
180.701983
21
350.322539
0
LINE
8
Image
10
180.701983
20
350.322539
11
180.873337
21
352.229151
0
LINE
8
Image
10
180.873337
20
352.229151
11
181.491149
21
354.095488
0
LINE
8
Image
10
181.491149
20
354.095488
11
182.573951
21
355.848387
0
LINE
8
Image
10
182.573951
20
355.848387
11
183.652106
21
356.909429
0
LINE
8
Image
10
183.652106
20
356.909429
11
185.041628
21
357.830702
0
LINE
8
Image
10
185.041628
20
357.830702
11
186.590913
21
358.528675
0
LINE
8
Image
10
186.590913
20
358.528675
11
188.148358
21
358.919817
0
LINE
8
Image
10
188.148358
20
358.919817
11
189.433774
21
358.931208
0
LINE
8
Image
10
189.433774
20
358.931208
11
190.909967
21
358.685658
0
LINE
8
Image
10
190.909967
20
358.685658
11
192.374465
21
358.231352
0
LINE
8
Image
10
192.374465
20
358.231352
11
193.624797
21
357.616476
0
LINE
8
Image
10
193.624797
20
357.616476
11
195.059745
21
356.457280
0
LINE
8
Image
10
195.059745
20
356.457280
11
196.164581
21
355.041645
0
LINE
8
Image
10
196.164581
20
355.041645
11
196.929964
21
353.438282
0
LINE
8
Image
10
196.929964
20
353.438282
11
197.346556
21
351.715904
0
LINE
8
Image
10
197.346556
20
351.715904
11
197.405017
21
349.943223
0
LINE
8
Image
10
197.405017
20
349.943223
11
197.096008
21
348.188952
0
LINE
8
Image
10
197.096008
20
348.188952
11
196.410189
21
346.521803
0
LINE
8
Image
10
196.410189
20
346.521803
11
195.338221
21
345.010488
0
LINE
8
Image
10
195.338221
20
345.010488
11
194.054656
21
343.793883
0
LINE
8
Image
10
194.054656
20
343.793883
11
192.691062
21
342.940123
0
LINE
8
Image
10
192.691062
20
342.940123
11
191.176850
21
342.415397
0
LINE
8
Image
10
191.176850
20
342.415397
11
189.441428
21
342.185890
0
LINE
8
Image
10
189.441428
20
342.185890
11
187.535216
21
342.227839
0
LINE
8
Image
10
187.535216
20
342.227839
11
185.893320
21
342.746065
0
LINE
8
Image
10
185.893320
20
342.746065
11
185.893320
21
342.746065
0
LINE
8
Image
10
135.954705
20
348.229066
11
132.878472
21
348.730144
0
LINE
8
Image
10
132.878472
20
348.730144
11
129.853793
21
349.514755
0
LINE
8
Image
10
129.853793
20
349.514755
11
126.908216
21
350.568691
0
LINE
8
Image
10
126.908216
20
350.568691
11
124.069292
21
351.877743
0
LINE
8
Image
10
124.069292
20
351.877743
11
121.364570
21
353.427704
0
LINE
8
Image
10
121.364570
20
353.427704
11
118.821601
21
355.204364
0
LINE
8
Image
10
118.821601
20
355.204364
11
116.467934
21
357.193516
0
LINE
8
Image
10
116.467934
20
357.193516
11
114.331119
21
359.380951
0
LINE
8
Image
10
114.331119
20
359.380951
11
112.724369
21
361.318616
0
LINE
8
Image
10
112.724369
20
361.318616
11
111.249339
21
363.353722
0
LINE
8
Image
10
111.249339
20
363.353722
11
109.901772
21
365.494730
0
LINE
8
Image
10
109.901772
20
365.494730
11
108.677413
21
367.750106
0
LINE
8
Image
10
108.677413
20
367.750106
11
107.572008
21
370.128310
0
LINE
8
Image
10
107.572008
20
370.128310
11
106.581300
21
372.637806
0
LINE
8
Image
10
106.581300
20
372.637806
11
104.926958
21
378.084527
0
LINE
8
Image
10
104.926958
20
378.084527
11
104.063583
21
382.031400
0
LINE
8
Image
10
104.063583
20
382.031400
11
103.492407
21
385.958814
0
LINE
8
Image
10
103.492407
20
385.958814
11
103.179032
21
390.183812
0
LINE
8
Image
10
103.179032
20
390.183812
11
103.089059
21
395.023435
0
LINE
8
Image
10
103.089059
20
395.023435
11
103.282157
21
400.683453
0
LINE
8
Image
10
103.282157
20
400.683453
11
103.838959
21
406.002247
0
LINE
8
Image
10
103.838959
20
406.002247
11
104.759904
21
410.981150
0
LINE
8
Image
10
104.759904
20
410.981150
11
106.045430
21
415.621498
0
LINE
8
Image
10
106.045430
20
415.621498
11
107.695975
21
419.924625
0
LINE
8
Image
10
107.695975
20
419.924625
11
109.711977
21
423.891864
0
LINE
8
Image
10
109.711977
20
423.891864
11
112.093873
21
427.524549
0
LINE
8
Image
10
112.093873
20
427.524549
11
114.842103
21
430.824015
0
LINE
8
Image
10
114.842103
20
430.824015
11
116.643855
21
432.626808
0
LINE
8
Image
10
116.643855
20
432.626808
11
118.513078
21
434.250633
0
LINE
8
Image
10
118.513078
20
434.250633
11
120.465515
21
435.704577
0
LINE
8
Image
10
120.465515
20
435.704577
11
122.516908
21
436.997727
0
LINE
8
Image
10
122.516908
20
436.997727
11
124.683002
21
438.139174
0
LINE
8
Image
10
124.683002
20
438.139174
11
126.979539
21
439.138003
0
LINE
8
Image
10
126.979539
20
439.138003
11
129.422263
21
440.003303
0
LINE
8
Image
10
129.422263
20
440.003303
11
132.026917
21
440.744163
0
LINE
8
Image
10
132.026917
20
440.744163
11
133.704693
21
441.132096
0
LINE
8
Image
10
133.704693
20
441.132096
11
135.277799
21
441.343068
0
LINE
8
Image
10
135.277799
20
441.343068
11
140.758156
21
441.447430
0
LINE
8
Image
10
140.758156
20
441.447430
11
146.092679
21
441.347736
0
LINE
8
Image
10
146.092679
20
441.347736
11
147.656636
21
441.175223
0
LINE
8
Image
10
147.656636
20
441.175223
11
149.117113
21
440.877828
0
LINE
8
Image
10
149.117113
20
440.877828
11
151.442562
21
440.250504
0
LINE
8
Image
10
151.442562
20
440.250504
11
153.672840
21
439.491006
0
LINE
8
Image
10
153.672840
20
439.491006
11
155.808330
21
438.598950
0
LINE
8
Image
10
155.808330
20
438.598950
11
157.849416
21
437.573950
0
LINE
8
Image
10
157.849416
20
437.573950
11
159.796481
21
436.415622
0
LINE
8
Image
10
159.796481
20
436.415622
11
161.649908
21
435.123580
0
LINE
8
Image
10
161.649908
20
435.123580
11
163.410080
21
433.697440
0
LINE
8
Image
10
163.410080
20
433.697440
11
165.077382
21
432.136816
0
LINE
8
Image
10
165.077382
20
432.136816
11
166.652196
21
430.441324
0
LINE
8
Image
10
166.652196
20
430.441324
11
168.134905
21
428.610578
0
LINE
8
Image
10
168.134905
20
428.610578
11
169.525893
21
426.644194
0
LINE
8
Image
10
169.525893
20
426.644194
11
170.825543
21
424.541787
0
LINE
8
Image
10
170.825543
20
424.541787
11
173.152364
21
419.927362
0
LINE
8
Image
10
173.152364
20
419.927362
11
175.118434
21
414.764224
0
LINE
8
Image
10
175.118434
20
414.764224
11
176.255827
21
410.894150
0
LINE
8
Image
10
176.255827
20
410.894150
11
177.206046
21
406.942599
0
LINE
8
Image
10
177.206046
20
406.942599
11
177.816184
21
403.622183
0
LINE
8
Image
10
177.816184
20
403.622183
11
177.933335
21
401.645516
0
LINE
8
Image
10
177.933335
20
401.645516
11
177.647275
21
400.618197
0
LINE
8
Image
10
177.647275
20
400.618197
11
177.163551
21
399.734367
0
LINE
8
Image
10
177.163551
20
399.734367
11
176.488223
21
399.002469
0
LINE
8
Image
10
176.488223
20
399.002469
11
175.627346
21
398.430949
0
LINE
8
Image
10
175.627346
20
398.430949
11
174.376566
21
398.026826
0
LINE
8
Image
10
174.376566
20
398.026826
11
172.756043
21
397.853759
0
LINE
8
Image
10
172.756043
20
397.853759
11
170.888610
21
397.892219
0
LINE
8
Image
10
170.888610
20
397.892219
11
168.897102
21
398.122681
0
LINE
8
Image
10
168.897102
20
398.122681
11
166.904352
21
398.525616
0
LINE
8
Image
10
166.904352
20
398.525616
11
165.033194
21
399.081497
0
LINE
8
Image
10
165.033194
20
399.081497
11
163.406462
21
399.770797
0
LINE
8
Image
10
163.406462
20
399.770797
11
162.146990
21
400.573987
0
LINE
8
Image
10
162.146990
20
400.573987
11
161.261683
21
401.497112
0
LINE
8
Image
10
161.261683
20
401.497112
11
160.569880
21
402.731926
0
LINE
8
Image
10
160.569880
20
402.731926
11
159.986746
21
404.476691
0
LINE
8
Image
10
159.986746
20
404.476691
11
159.427445
21
406.929670
0
LINE
8
Image
10
159.427445
20
406.929670
11
158.456393
21
411.011628
0
LINE
8
Image
10
158.456393
20
411.011628
11
157.299121
21
414.487563
0
LINE
8
Image
10
157.299121
20
414.487563
11
155.953169
21
417.360444
0
LINE
8
Image
10
155.953169
20
417.360444
11
154.416080
21
419.633241
0
LINE
8
Image
10
154.416080
20
419.633241
11
152.685396
21
421.308927
0
LINE
8
Image
10
152.685396
20
421.308927
11
151.746687
21
421.923780
0
LINE
8
Image
10
151.746687
20
421.923780
11
150.758657
21
422.390469
0
LINE
8
Image
10
150.758657
20
422.390469
11
149.720999
21
422.709366
0
LINE
8
Image
10
149.720999
20
422.709366
11
148.633406
21
422.880840
0
LINE
8
Image
10
148.633406
20
422.880840
11
146.307184
21
422.783010
0
LINE
8
Image
10
146.307184
20
422.783010
11
144.738182
21
422.405997
0
LINE
8
Image
10
144.738182
20
422.405997
11
143.294932
21
421.801930
0
LINE
8
Image
10
143.294932
20
421.801930
11
141.979754
21
420.973217
0
LINE
8
Image
10
141.979754
20
420.973217
11
140.794969
21
419.922266
0
LINE
8
Image
10
140.794969
20
419.922266
11
139.742897
21
418.651484
0
LINE
8
Image
10
139.742897
20
418.651484
11
138.825858
21
417.163282
0
LINE
8
Image
10
138.825858
20
417.163282
11
138.046173
21
415.460066
0
LINE
8
Image
10
138.046173
20
415.460066
11
137.406162
21
413.544245
0
LINE
8
Image
10
137.406162
20
413.544245
11
137.145420
21
412.255193
0
LINE
8
Image
10
137.145420
20
412.255193
11
136.999573
21
410.084130
0
LINE
8
Image
10
136.999573
20
410.084130
11
136.922631
21
399.256763
0
LINE
8
Image
10
136.922631
20
399.256763
11
136.965468
21
391.143611
0
LINE
8
Image
10
136.965468
20
391.143611
11
137.137915
21
385.530407
0
LINE
8
Image
10
137.137915
20
385.530407
11
137.508262
21
381.161923
0
LINE
8
Image
10
137.508262
20
381.161923
11
138.144796
21
376.782930
0
LINE
8
Image
10
138.144796
20
376.782930
11
138.717055
21
373.774354
0
LINE
8
Image
10
138.717055
20
373.774354
11
139.379778
21
371.180536
0
LINE
8
Image
10
139.379778
20
371.180536
11
140.157118
21
368.920063
0
LINE
8
Image
10
140.157118
20
368.920063
11
141.073227
21
366.911520
0
LINE
8
Image
10
141.073227
20
366.911520
11
142.124803
21
365.153121
0
LINE
8
Image
10
142.124803
20
365.153121
11
143.288320
21
363.711128
0
LINE
8
Image
10
143.288320
20
363.711128
11
144.573864
21
362.574924
0
LINE
8
Image
10
144.573864
20
362.574924
11
145.991518
21
361.733893
0
LINE
8
Image
10
145.991518
20
361.733893
11
146.893861
21
361.352710
0
LINE
8
Image
10
146.893861
20
361.352710
11
147.752492
21
361.138901
0
LINE
8
Image
10
147.752492
20
361.138901
11
150.553291
21
361.024519
0
LINE
8
Image
10
150.553291
20
361.024519
11
153.416552
21
361.147345
0
LINE
8
Image
10
153.416552
20
361.147345
11
154.306842
21
361.405048
0
LINE
8
Image
10
154.306842
20
361.405048
11
155.351895
21
361.886208
0
LINE
8
Image
10
155.351895
20
361.886208
11
156.990344
21
362.933879
0
LINE
8
Image
10
156.990344
20
362.933879
11
158.267097
21
364.324659
0
LINE
8
Image
10
158.267097
20
364.324659
11
159.244900
21
366.147999
0
LINE
8
Image
10
159.244900
20
366.147999
11
159.986498
21
368.493348
0
LINE
8
Image
10
159.986498
20
368.493348
11
160.324194
21
370.945890
0
LINE
8
Image
10
160.324194
20
370.945890
11
160.391720
21
375.179710
0
LINE
8
Image
10
160.391720
20
375.179710
11
160.444941
21
378.876426
0
LINE
8
Image
10
160.444941
20
378.876426
11
160.618843
21
380.890747
0
LINE
8
Image
10
160.618843
20
380.890747
11
160.907481
21
381.542087
0
LINE
8
Image
10
160.907481
20
381.542087
11
161.341421
21
382.137003
0
LINE
8
Image
10
161.341421
20
382.137003
11
162.650291
21
383.160458
0
LINE
8
Image
10
162.650291
20
383.160458
11
164.555617
21
383.966899
0
LINE
8
Image
10
164.555617
20
383.966899
11
167.067565
21
384.562114
0
LINE
8
Image
10
167.067565
20
384.562114
11
169.358163
21
384.863461
0
LINE
8
Image
10
169.358163
20
384.863461
11
171.334099
21
384.912474
0
LINE
8
Image
10
171.334099
20
384.912474
11
172.998222
21
384.707757
0
LINE
8
Image
10
172.998222
20
384.707757
11
174.353385
21
384.247918
0
LINE
8
Image
10
174.353385
20
384.247918
11
175.402437
21
383.531559
0
LINE
8
Image
10
175.402437
20
383.531559
11
176.148230
21
382.557288
0
LINE
8
Image
10
176.148230
20
382.557288
11
176.593616
21
381.323708
0
LINE
8
Image
10
176.593616
20
381.323708
11
176.741444
21
379.829425
0
LINE
8
Image
10
176.741444
20
379.829425
11
176.435440
21
378.194125
0
LINE
8
Image
10
176.435440
20
378.194125
11
175.699725
21
375.726116
0
LINE
8
Image
10
175.699725
20
375.726116
11
173.951330
21
371.097781
0
LINE
8
Image
10
173.951330
20
371.097781
11
172.004221
21
366.906301
0
LINE
8
Image
10
172.004221
20
366.906301
11
169.856219
21
363.148915
0
LINE
8
Image
10
169.856219
20
363.148915
11
167.505144
21
359.822857
0
LINE
8
Image
10
167.505144
20
359.822857
11
164.948818
21
356.925364
0
LINE
8
Image
10
164.948818
20
356.925364
11
162.185061
21
354.453673
0
LINE
8
Image
10
162.185061
20
354.453673
11
159.211692
21
352.405020
0
LINE
8
Image
10
159.211692
20
352.405020
11
156.026534
21
350.776640
0
LINE
8
Image
10
156.026534
20
350.776640
11
153.874196
21
349.956656
0
LINE
8
Image
10
153.874196
20
349.956656
11
151.549325
21
349.271002
0
LINE
8
Image
10
151.549325
20
349.271002
11
149.087239
21
348.724163
0
LINE
8
Image
10
149.087239
20
348.724163
11
146.523255
21
348.320620
0
LINE
8
Image
10
146.523255
20
348.320620
11
143.892692
21
348.064856
0
LINE
8
Image
10
143.892692
20
348.064856
11
141.230867
21
347.961354
0
LINE
8
Image
10
141.230867
20
347.961354
11
138.573099
21
348.014596
0
LINE
8
Image
10
138.573099
20
348.014596
11
135.954705
21
348.229066
0
LINE
8
Image
10
135.954705
20
348.229066
11
135.954705
21
348.229066
0
LINE
8
Image
10
89.145778
20
433.469483
11
87.842660
21
433.948661
0
LINE
8
Image
10
87.842660
20
433.948661
11
86.611513
21
434.611974
0
LINE
8
Image
10
86.611513
20
434.611974
11
85.526857
21
435.412325
0
LINE
8
Image
10
85.526857
20
435.412325
11
84.663208
21
436.302616
0
LINE
8
Image
10
84.663208
20
436.302616
11
83.627143
21
437.973123
0
LINE
8
Image
10
83.627143
20
437.973123
11
83.020257
21
439.766619
0
LINE
8
Image
10
83.020257
20
439.766619
11
82.826987
21
441.612955
0
LINE
8
Image
10
82.826987
20
441.612955
11
83.031773
21
443.441979
0
LINE
8
Image
10
83.031773
20
443.441979
11
83.619052
21
445.183541
0
LINE
8
Image
10
83.619052
20
445.183541
11
84.573263
21
446.767490
0
LINE
8
Image
10
84.573263
20
446.767490
11
85.878845
21
448.123676
0
LINE
8
Image
10
85.878845
20
448.123676
11
87.520236
21
449.181948
0
LINE
8
Image
10
87.520236
20
449.181948
11
89.163111
21
449.791848
0
LINE
8
Image
10
89.163111
20
449.791848
11
91.281135
21
449.920695
0
LINE
8
Image
10
91.281135
20
449.920695
11
93.364752
21
449.791180
0
LINE
8
Image
10
93.364752
20
449.791180
11
94.863629
21
449.216772
0
LINE
8
Image
10
94.863629
20
449.216772
11
96.341414
21
448.252757
0
LINE
8
Image
10
96.341414
20
448.252757
11
97.558039
21
447.072042
0
LINE
8
Image
10
97.558039
20
447.072042
11
98.500288
21
445.715003
0
LINE
8
Image
10
98.500288
20
445.715003
11
99.154949
21
444.222017
0
LINE
8
Image
10
99.154949
20
444.222017
11
99.508806
21
442.633459
0
LINE
8
Image
10
99.508806
20
442.633459
11
99.548646
21
440.989706
0
LINE
8
Image
10
99.548646
20
440.989706
11
99.261255
21
439.331132
0
LINE
8
Image
10
99.261255
20
439.331132
11
98.633418
21
437.698114
0
LINE
8
Image
10
98.633418
20
437.698114
11
97.913243
21
436.590363
0
LINE
8
Image
10
97.913243
20
436.590363
11
96.916157
21
435.507928
0
LINE
8
Image
10
96.916157
20
435.507928
11
95.767696
21
434.569077
0
LINE
8
Image
10
95.767696
20
434.569077
11
94.593397
21
433.892077
0
LINE
8
Image
10
94.593397
20
433.892077
11
93.322021
21
433.484938
0
LINE
8
Image
10
93.322021
20
433.484938
11
91.876788
21
433.269987
0
LINE
8
Image
10
91.876788
20
433.269987
11
90.427954
21
433.260433
0
LINE
8
Image
10
90.427954
20
433.260433
11
89.145778
21
433.469483
0
LINE
8
Image
10
89.145778
20
433.469483
11
89.145778
21
433.469483
 0 
ENDSEC
 0 
EOF