999
"DXF R12 Output" (www.mydxf.blogspot.com)
 0 
SECTION
 2 
HEADER
 9 
$ACADVER
 1 
AC1009
 9 
$EXTMIN
 10 
 0 
 20 
 0 
 9 
$EXTMAX
 10 
 8.5 
 20 
 11 
 0 
ENDSEC
 0 
SECTION
 2 
ENTITIES
0
LINE
8
Image
10
157.039567
20
0.728980
11
154.690197
21
3.514211
0
LINE
8
Image
10
154.690197
20
3.514211
11
151.397156
21
6.858810
0
LINE
8
Image
10
151.397156
20
6.858810
11
147.649599
21
10.291886
0
LINE
8
Image
10
147.649599
20
10.291886
11
143.936684
21
13.342552
0
LINE
8
Image
10
143.936684
20
13.342552
11
138.686372
21
17.076210
0
LINE
8
Image
10
138.686372
20
17.076210
11
133.073422
21
20.520920
0
LINE
8
Image
10
133.073422
20
20.520920
11
127.096007
21
23.677446
0
LINE
8
Image
10
127.096007
20
23.677446
11
120.752300
21
26.546550
0
LINE
8
Image
10
120.752300
20
26.546550
11
114.040474
21
29.128995
0
LINE
8
Image
10
114.040474
20
29.128995
11
106.958702
21
31.425544
0
LINE
8
Image
10
106.958702
20
31.425544
11
99.505156
21
33.436961
0
LINE
8
Image
10
99.505156
20
33.436961
11
91.678009
21
35.164008
0
LINE
8
Image
10
91.678009
20
35.164008
11
86.632426
21
36.029307
0
LINE
8
Image
10
86.632426
20
36.029307
11
82.285313
21
36.380058
0
LINE
8
Image
10
82.285313
20
36.380058
11
74.457138
21
36.850160
0
LINE
8
Image
10
74.457138
20
36.850160
11
67.249240
21
37.603862
0
LINE
8
Image
10
67.249240
20
37.603862
11
60.550839
21
38.669809
0
LINE
8
Image
10
60.550839
20
38.669809
11
54.251153
21
40.076643
0
LINE
8
Image
10
54.251153
20
40.076643
11
48.239399
21
41.853008
0
LINE
8
Image
10
48.239399
20
41.853008
11
42.404797
21
44.027548
0
LINE
8
Image
10
42.404797
20
44.027548
11
36.636564
21
46.628906
0
LINE
8
Image
10
36.636564
20
46.628906
11
30.823919
21
49.685725
0
LINE
8
Image
10
30.823919
20
49.685725
11
26.539345
21
52.317129
0
LINE
8
Image
10
26.539345
20
52.317129
11
22.394422
21
55.319786
0
LINE
8
Image
10
22.394422
20
55.319786
11
18.407745
21
58.674440
0
LINE
8
Image
10
18.407745
20
58.674440
11
14.597906
21
62.361837
0
LINE
8
Image
10
14.597906
20
62.361837
11
10.983498
21
66.362724
0
LINE
8
Image
10
10.983498
20
66.362724
11
7.583113
21
70.657844
0
LINE
8
Image
10
7.583113
20
70.657844
11
4.415346
21
75.227944
0
LINE
8
Image
10
4.415346
20
75.227944
11
1.498788
21
80.053768
0
LINE
8
Image
10
1.498788
20
80.053768
11
0.000000
21
82.716452
0
LINE
8
Image
10
0.000000
20
82.716452
11
0.000000
21
229.344721
0
LINE
8
Image
10
0.000000
20
229.344721
11
0.000000
21
375.973000
0
LINE
8
Image
10
0.000000
20
375.973000
11
158.749800
21
375.973000
0
LINE
8
Image
10
158.749800
20
375.973000
11
317.499600
21
375.973000
0
LINE
8
Image
10
317.499600
20
375.973000
11
317.499600
21
229.397182
0
LINE
8
Image
10
317.499600
20
229.397182
11
317.499600
21
82.821360
0
LINE
8
Image
10
317.499600
20
82.821360
11
316.674921
21
80.238527
0
LINE
8
Image
10
316.674921
20
80.238527
11
315.424829
21
76.778918
0
LINE
8
Image
10
315.424829
20
76.778918
11
313.908492
21
73.374708
0
LINE
8
Image
10
313.908492
20
73.374708
11
312.146019
21
70.055996
0
LINE
8
Image
10
312.146019
20
70.055996
11
310.157521
21
66.852879
0
LINE
8
Image
10
310.157521
20
66.852879
11
307.963107
21
63.795456
0
LINE
8
Image
10
307.963107
20
63.795456
11
305.582887
21
60.913826
0
LINE
8
Image
10
305.582887
20
60.913826
11
303.036970
21
58.238085
0
LINE
8
Image
10
303.036970
20
58.238085
11
300.345467
21
55.798334
0
LINE
8
Image
10
300.345467
20
55.798334
11
295.963131
21
52.481375
0
LINE
8
Image
10
295.963131
20
52.481375
11
290.943130
21
49.282981
0
LINE
8
Image
10
290.943130
20
49.282981
11
285.648079
21
46.416358
0
LINE
8
Image
10
285.648079
20
46.416358
11
280.440597
21
44.094716
0
LINE
8
Image
10
280.440597
20
44.094716
11
276.578618
21
42.693869
0
LINE
8
Image
10
276.578618
20
42.693869
11
272.506275
21
41.434836
0
LINE
8
Image
10
272.506275
20
41.434836
11
268.252387
21
40.323287
0
LINE
8
Image
10
268.252387
20
40.323287
11
263.845773
21
39.364888
0
LINE
8
Image
10
263.845773
20
39.364888
11
259.315251
21
38.565311
0
LINE
8
Image
10
259.315251
20
38.565311
11
254.689643
21
37.930222
0
LINE
8
Image
10
254.689643
20
37.930222
11
249.997766
21
37.465292
0
LINE
8
Image
10
249.997766
20
37.465292
11
245.268441
21
37.176188
0
LINE
8
Image
10
245.268441
20
37.176188
11
239.284289
21
36.797717
0
LINE
8
Image
10
239.284289
20
36.797717
11
233.366297
21
36.170128
0
LINE
8
Image
10
233.366297
20
36.170128
11
227.521173
21
35.296168
0
LINE
8
Image
10
227.521173
20
35.296168
11
221.755623
21
34.178583
0
LINE
8
Image
10
221.755623
20
34.178583
11
216.076356
21
32.820120
0
LINE
8
Image
10
216.076356
20
32.820120
11
210.490078
21
31.223523
0
LINE
8
Image
10
210.490078
20
31.223523
11
205.003497
21
29.391541
0
LINE
8
Image
10
205.003497
20
29.391541
11
199.623320
21
27.326917
0
LINE
8
Image
10
199.623320
20
27.326917
11
194.356255
21
25.032400
0
LINE
8
Image
10
194.356255
20
25.032400
11
189.209009
21
22.510735
0
LINE
8
Image
10
189.209009
20
22.510735
11
184.188289
21
19.764667
0
LINE
8
Image
10
184.188289
20
19.764667
11
179.300802
21
16.796944
0
LINE
8
Image
10
179.300802
20
16.796944
11
174.553257
21
13.610312
0
LINE
8
Image
10
174.553257
20
13.610312
11
169.952360
21
10.207516
0
LINE
8
Image
10
169.952360
20
10.207516
11
165.504819
21
6.591302
0
LINE
8
Image
10
165.504819
20
6.591302
11
161.217341
21
2.764417
0
LINE
8
Image
10
161.217341
20
2.764417
11
159.026307
21
0.814874
0
LINE
8
Image
10
159.026307
20
0.814874
11
157.910053
21
0.008865
0
LINE
8
Image
10
157.910053
20
0.008865
11
157.509612
21
0.223806
0
LINE
8
Image
10
157.509612
20
0.223806
11
157.039567
21
0.728980
0
LINE
8
Image
10
157.039567
20
0.728980
11
157.039567
21
0.728980
0
LINE
8
Image
10
161.924796
20
13.799195
11
166.116573
21
17.219667
0
LINE
8
Image
10
166.116573
20
17.219667
11
170.762235
21
20.678949
0
LINE
8
Image
10
170.762235
20
20.678949
11
175.303810
21
23.778682
0
LINE
8
Image
10
175.303810
20
23.778682
11
179.183323
21
26.120508
0
LINE
8
Image
10
179.183323
20
26.120508
11
180.445606
21
26.807551
0
LINE
8
Image
10
180.445606
20
26.807551
11
180.445606
21
166.994480
0
LINE
8
Image
10
180.445606
20
166.994480
11
180.445606
21
307.181420
0
LINE
8
Image
10
180.445606
20
307.181420
11
158.749800
21
307.181420
0
LINE
8
Image
10
158.749800
20
307.181420
11
137.053994
21
307.181420
0
LINE
8
Image
10
137.053994
20
307.181420
11
137.053994
21
167.247168
0
LINE
8
Image
10
137.053994
20
167.247168
11
137.053994
21
27.312904
0
LINE
8
Image
10
137.053994
20
27.312904
11
138.972221
21
26.183849
0
LINE
8
Image
10
138.972221
20
26.183849
11
144.341998
21
22.740275
0
LINE
8
Image
10
144.341998
20
22.740275
11
149.872763
21
18.823865
0
LINE
8
Image
10
149.872763
20
18.823865
11
154.818609
21
14.835461
0
LINE
8
Image
10
154.818609
20
14.835461
11
158.186884
21
11.819956
0
LINE
8
Image
10
158.186884
20
11.819956
11
158.848341
21
11.387019
0
LINE
8
Image
10
158.848341
20
11.387019
11
161.924796
21
13.799195
0
LINE
8
Image
10
161.924796
20
13.799195
11
161.924796
21
13.799195
0
LINE
8
Image
10
92.339467
20
175.154503
11
92.339467
21
307.181420
0
LINE
8
Image
10
92.339467
20
307.181420
11
70.246517
21
307.181420
0
LINE
8
Image
10
70.246517
20
307.181420
11
48.153566
21
307.181420
0
LINE
8
Image
10
48.153566
20
307.181420
11
48.219982
21
178.536218
0
LINE
8
Image
10
48.219982
20
178.536218
11
48.286398
21
49.891015
0
LINE
8
Image
10
48.286398
20
49.891015
11
49.609313
21
49.397145
0
LINE
8
Image
10
49.609313
20
49.397145
11
54.864559
21
47.737612
0
LINE
8
Image
10
54.864559
20
47.737612
11
61.100799
21
46.432730
0
LINE
8
Image
10
61.100799
20
46.432730
11
69.164985
21
45.340534
0
LINE
8
Image
10
69.164985
20
45.340534
11
79.904066
21
44.319056
0
LINE
8
Image
10
79.904066
20
44.319056
11
89.693637
21
43.419474
0
LINE
8
Image
10
89.693637
20
43.419474
11
91.876447
21
43.161135
0
LINE
8
Image
10
91.876447
20
43.161135
11
92.022785
21
43.672973
0
LINE
8
Image
10
92.022785
20
43.672973
11
92.134587
21
46.112470
0
LINE
8
Image
10
92.134587
20
46.112470
11
92.273106
21
62.054739
0
LINE
8
Image
10
92.273106
20
62.054739
11
92.339467
21
175.154503
0
LINE
8
Image
10
92.339467
20
175.154503
11
92.339467
21
175.154503
0
LINE
8
Image
10
229.455966
20
43.774782
11
238.584080
21
44.577104
0
LINE
8
Image
10
238.584080
20
44.577104
11
251.120218
21
45.432097
0
LINE
8
Image
10
251.120218
20
45.432097
11
256.116344
21
45.926054
0
LINE
8
Image
10
256.116344
20
45.926054
11
259.649610
21
46.459240
0
LINE
8
Image
10
259.649610
20
46.459240
11
263.113764
21
47.136720
0
LINE
8
Image
10
263.113764
20
47.136720
11
266.204442
21
47.891967
0
LINE
8
Image
10
266.204442
20
47.891967
11
268.617282
21
48.658455
0
LINE
8
Image
10
268.617282
20
48.658455
11
269.262865
21
48.903909
0
LINE
8
Image
10
269.262865
20
48.903909
11
269.455243
21
124.687492
0
LINE
8
Image
10
269.455243
20
124.687492
11
269.534618
21
193.882733
0
LINE
8
Image
10
269.534618
20
193.882733
11
269.455322
21
253.826250
0
LINE
8
Image
10
269.455322
20
253.826250
11
269.262997
21
307.181420
0
LINE
8
Image
10
269.262997
20
307.181420
11
247.211570
21
307.181420
0
LINE
8
Image
10
247.211570
20
307.181420
11
225.160133
21
307.181420
0
LINE
8
Image
10
225.160133
20
307.181420
11
225.160133
21
175.125820
0
LINE
8
Image
10
225.160133
20
175.125820
11
225.160133
21
43.070224
0
LINE
8
Image
10
225.160133
20
43.070224
11
225.755445
21
43.219185
0
LINE
8
Image
10
225.755445
20
43.219185
11
229.455966
21
43.774782
0
LINE
8
Image
10
229.455966
20
43.774782
11
229.455966
21
43.774782
0
LINE
8
Image
10
309.562110
20
341.445149
11
309.562110
21
368.300554
0
LINE
8
Image
10
309.562110
20
368.300554
11
158.683654
21
368.234178
0
LINE
8
Image
10
158.683654
20
368.234178
11
7.805199
21
368.167801
0
LINE
8
Image
10
7.805199
20
368.167801
11
7.737793
21
341.378773
0
LINE
8
Image
10
7.737793
20
341.378773
11
7.670388
21
314.589744
0
LINE
8
Image
10
7.670388
20
314.589744
11
158.616249
21
314.589744
0
LINE
8
Image
10
158.616249
20
314.589744
11
309.562110
21
314.589744
0
LINE
8
Image
10
309.562110
20
314.589744
11
309.562110
21
341.445149
0
LINE
8
Image
10
29.104130
20
340.800291
11
29.104130
21
360.660847
0
LINE
8
Image
10
29.104130
20
360.660847
11
41.208802
21
360.557790
0
LINE
8
Image
10
41.208802
20
360.557790
11
51.501497
21
360.392232
0
LINE
8
Image
10
51.501497
20
360.392232
11
53.663867
21
360.236865
0
LINE
8
Image
10
53.663867
20
360.236865
11
54.900973
21
359.988897
0
LINE
8
Image
10
54.900973
20
359.988897
11
57.463814
21
358.983449
0
LINE
8
Image
10
57.463814
20
358.983449
11
59.635460
21
357.598292
0
LINE
8
Image
10
59.635460
20
357.598292
11
61.379252
21
355.862643
0
LINE
8
Image
10
61.379252
20
355.862643
11
62.658530
21
353.805724
0
LINE
8
Image
10
62.658530
20
353.805724
11
63.043786
21
352.893695
0
LINE
8
Image
10
63.043786
20
352.893695
11
63.257043
21
352.012982
0
LINE
8
Image
10
63.257043
20
352.012982
11
63.367629
21
348.985534
0
LINE
8
Image
10
63.367629
20
348.985534
11
63.249391
21
345.895717
0
LINE
8
Image
10
63.249391
20
345.895717
11
62.999126
21
344.972209
0
LINE
8
Image
10
62.999126
20
344.972209
11
62.530350
21
343.910935
0
LINE
8
Image
10
62.530350
20
343.910935
11
61.600950
21
342.261948
0
LINE
8
Image
10
61.600950
20
342.261948
11
60.492262
21
340.882351
0
LINE
8
Image
10
60.492262
20
340.882351
11
59.173111
21
339.739754
0
LINE
8
Image
10
59.173111
20
339.739754
11
57.612319
21
338.801769
0
LINE
8
Image
10
57.612319
20
338.801769
11
55.363731
21
337.873048
0
LINE
8
Image
10
55.363731
20
337.873048
11
55.109217
21
337.750128
0
LINE
8
Image
10
55.109217
20
337.750128
11
55.097941
21
337.410028
0
LINE
8
Image
10
55.097941
20
337.410028
11
60.304980
21
329.009518
0
LINE
8
Image
10
60.304980
20
329.009518
11
65.385619
21
321.072027
0
LINE
8
Image
10
65.385619
20
321.072027
11
60.938389
21
320.999190
0
LINE
8
Image
10
60.938389
20
320.999190
11
57.157097
21
321.014467
0
LINE
8
Image
10
57.157097
20
321.014467
11
56.462149
21
321.146440
0
LINE
8
Image
10
56.462149
20
321.146440
11
56.144404
21
321.396065
0
LINE
8
Image
10
56.144404
20
321.396065
11
51.512860
21
328.943303
0
LINE
8
Image
10
51.512860
20
328.943303
11
47.228065
21
336.020829
0
LINE
8
Image
10
47.228065
20
336.020829
11
42.267134
21
336.020898
0
LINE
8
Image
10
42.267134
20
336.020898
11
37.306203
21
336.020967
0
LINE
8
Image
10
37.306203
20
336.020967
11
37.306203
21
328.480351
0
LINE
8
Image
10
37.306203
20
328.480351
11
37.306203
21
320.939736
0
LINE
8
Image
10
37.306203
20
320.939736
11
33.205167
21
320.939736
0
LINE
8
Image
10
33.205167
20
320.939736
11
29.104130
21
320.939736
0
LINE
8
Image
10
29.104130
20
320.939736
11
29.104130
21
340.800291
0
LINE
8
Image
10
51.892473
20
342.967713
11
53.444431
21
343.922762
0
LINE
8
Image
10
53.444431
20
343.922762
11
54.521717
21
345.158914
0
LINE
8
Image
10
54.521717
20
345.158914
11
55.147468
21
346.714093
0
LINE
8
Image
10
55.147468
20
346.714093
11
55.344824
21
348.626220
0
LINE
8
Image
10
55.344824
20
348.626220
11
55.220364
21
349.951690
0
LINE
8
Image
10
55.220364
20
349.951690
11
54.869296
21
351.135433
0
LINE
8
Image
10
54.869296
20
351.135433
11
54.307049
21
352.140472
0
LINE
8
Image
10
54.307049
20
352.140472
11
53.549051
21
352.929825
0
LINE
8
Image
10
53.549051
20
352.929825
11
52.368840
21
353.622046
0
LINE
8
Image
10
52.368840
20
353.622046
11
50.673105
21
354.031682
0
LINE
8
Image
10
50.673105
20
354.031682
11
47.963197
21
354.227232
0
LINE
8
Image
10
47.963197
20
354.227232
11
43.740465
21
354.277194
0
LINE
8
Image
10
43.740465
20
354.277194
11
37.306203
21
354.277194
0
LINE
8
Image
10
37.306203
20
354.277194
11
37.306203
21
348.304315
0
LINE
8
Image
10
37.306203
20
348.304315
11
37.306203
21
342.331436
0
LINE
8
Image
10
37.306203
20
342.331436
11
44.119215
21
342.428580
0
LINE
8
Image
10
44.119215
20
342.428580
11
49.829406
21
342.590702
0
LINE
8
Image
10
49.829406
20
342.590702
11
51.137347
21
342.739898
0
LINE
8
Image
10
51.137347
20
342.739898
11
51.892473
21
342.967713
0
LINE
8
Image
10
51.892473
20
342.967713
11
51.892473
21
342.967713
0
LINE
8
Image
10
177.535193
20
340.783461
11
177.535193
21
360.627186
0
LINE
8
Image
10
177.535193
20
360.627186
11
181.636230
21
360.627186
0
LINE
8
Image
10
181.636230
20
360.627186
11
185.737266
21
360.627186
0
LINE
8
Image
10
185.737266
20
360.627186
11
185.737266
21
340.783461
0
LINE
8
Image
10
185.737266
20
340.783461
11
185.737266
21
320.939736
0
LINE
8
Image
10
185.737266
20
320.939736
11
181.636230
21
320.939736
0
LINE
8
Image
10
181.636230
20
320.939736
11
177.535193
21
320.939736
0
LINE
8
Image
10
177.535193
20
320.939736
11
177.535193
21
340.783461
0
LINE
8
Image
10
206.110157
20
340.783461
11
206.110157
21
360.627186
0
LINE
8
Image
10
206.110157
20
360.627186
11
210.819015
21
360.627186
0
LINE
8
Image
10
210.819015
20
360.627186
11
215.527870
21
360.627186
0
LINE
8
Image
10
215.527870
20
360.627186
11
224.227732
21
345.284552
0
LINE
8
Image
10
224.227732
20
345.284552
11
233.009027
21
330.023349
0
LINE
8
Image
10
233.009027
20
330.023349
11
232.834508
21
334.716517
0
LINE
8
Image
10
232.834508
20
334.716517
11
232.573508
21
349.977720
0
LINE
8
Image
10
232.573508
20
349.977720
11
232.568457
21
360.627186
0
LINE
8
Image
10
232.568457
20
360.627186
11
236.272619
21
360.627186
0
LINE
8
Image
10
236.272619
20
360.627186
11
239.976781
21
360.627186
0
LINE
8
Image
10
239.976781
20
360.627186
11
239.976781
21
340.783461
0
LINE
8
Image
10
239.976781
20
340.783461
11
239.976781
21
320.939736
0
LINE
8
Image
10
239.976781
20
320.939736
11
235.148141
21
320.942805
0
LINE
8
Image
10
235.148141
20
320.942805
11
230.319502
21
320.945874
0
LINE
8
Image
10
230.319502
20
320.945874
11
221.759106
21
336.157772
0
LINE
8
Image
10
221.759106
20
336.157772
11
212.916758
21
351.543926
0
LINE
8
Image
10
212.916758
20
351.543926
11
212.761655
21
351.550032
0
LINE
8
Image
10
212.761655
20
351.550032
11
212.866347
21
351.211758
0
LINE
8
Image
10
212.866347
20
351.211758
11
213.058968
21
346.482275
0
LINE
8
Image
10
213.058968
20
346.482275
11
213.196931
21
335.822540
0
LINE
8
Image
10
213.196931
20
335.822540
11
213.295969
21
320.939736
0
LINE
8
Image
10
213.295969
20
320.939736
11
209.703064
21
320.939736
0
LINE
8
Image
10
209.703064
20
320.939736
11
206.110157
21
320.939736
0
LINE
8
Image
10
206.110157
20
320.939736
11
206.110157
21
340.783461
0
LINE
8
Image
10
78.138387
20
322.857963
11
85.346001
21
342.705268
0
LINE
8
Image
10
85.346001
20
342.705268
11
91.942593
21
360.898928
0
LINE
8
Image
10
91.942593
20
360.898928
11
96.811293
21
360.829203
0
LINE
8
Image
10
96.811293
20
360.829203
11
101.679996
21
360.759478
0
LINE
8
Image
10
101.679996
20
360.759478
11
108.772511
21
341.180336
0
LINE
8
Image
10
108.772511
20
341.180336
11
115.876191
21
321.402756
0
LINE
8
Image
10
115.876191
20
321.402756
11
114.725859
21
321.262610
0
LINE
8
Image
10
114.725859
20
321.262610
11
111.944493
21
321.204319
0
LINE
8
Image
10
111.944493
20
321.204319
11
108.001630
21
321.204319
0
LINE
8
Image
10
108.001630
20
321.204319
11
107.693637
21
322.064214
0
LINE
8
Image
10
107.693637
20
322.064214
11
106.106210
21
326.628270
0
LINE
8
Image
10
106.106210
20
326.628270
11
104.638708
21
330.799403
0
LINE
8
Image
10
104.638708
20
330.799403
11
104.337983
21
331.053455
0
LINE
8
Image
10
104.337983
20
331.053455
11
103.311023
21
331.184811
0
LINE
8
Image
10
103.311023
20
331.184811
11
96.758336
21
331.196277
0
LINE
8
Image
10
96.758336
20
331.196277
11
89.066033
21
331.126182
0
LINE
8
Image
10
89.066033
20
331.126182
11
87.359258
21
326.165250
0
LINE
8
Image
10
87.359258
20
326.165250
11
85.652481
21
321.204319
0
LINE
8
Image
10
85.652481
20
321.204319
11
81.589923
21
321.204319
0
LINE
8
Image
10
81.589923
20
321.204319
11
77.527367
21
321.204319
0
LINE
8
Image
10
77.527367
20
321.204319
11
78.138387
21
322.857963
0
LINE
8
Image
10
102.548556
20
337.777158
11
96.939555
21
354.524013
0
LINE
8
Image
10
96.939555
20
354.524013
11
95.974936
21
352.056194
0
LINE
8
Image
10
95.974936
20
352.056194
11
93.943253
21
346.305872
0
LINE
8
Image
10
93.943253
20
346.305872
11
91.016552
21
337.457084
0
LINE
8
Image
10
91.016552
20
337.457084
11
96.865686
21
337.343882
0
LINE
8
Image
10
96.865686
20
337.343882
11
101.754558
21
337.413047
0
LINE
8
Image
10
101.754558
20
337.413047
11
102.470839
21
337.543552
0
LINE
8
Image
10
102.470839
20
337.543552
11
102.548556
21
337.777158
0
LINE
8
Image
10
102.548556
20
337.777158
11
102.548556
21
337.777158
0
LINE
8
Image
10
141.424191
20
321.488023
11
138.942530
21
321.892588
0
LINE
8
Image
10
138.942530
20
321.892588
11
136.637555
21
322.540984
0
LINE
8
Image
10
136.637555
20
322.540984
11
134.515491
21
323.429010
0
LINE
8
Image
10
134.515491
20
323.429010
11
132.582564
21
324.552461
0
LINE
8
Image
10
132.582564
20
324.552461
11
130.845000
21
325.907135
0
LINE
8
Image
10
130.845000
20
325.907135
11
129.309024
21
327.488829
0
LINE
8
Image
10
129.309024
20
327.488829
11
127.980862
21
329.293339
0
LINE
8
Image
10
127.980862
20
329.293339
11
126.866739
21
331.316462
0
LINE
8
Image
10
126.866739
20
331.316462
11
126.112866
21
333.095921
0
LINE
8
Image
10
126.112866
20
333.095921
11
125.557381
21
334.871061
0
LINE
8
Image
10
125.557381
20
334.871061
11
125.154069
21
336.821450
0
LINE
8
Image
10
125.154069
20
336.821450
11
124.856718
21
339.126658
0
LINE
8
Image
10
124.856718
20
339.126658
11
124.732636
21
341.685861
0
LINE
8
Image
10
124.732636
20
341.685861
11
124.842215
21
344.406426
0
LINE
8
Image
10
124.842215
20
344.406426
11
125.169116
21
347.086182
0
LINE
8
Image
10
125.169116
20
347.086182
11
125.696999
21
349.522959
0
LINE
8
Image
10
125.696999
20
349.522959
11
126.219950
21
351.132702
0
LINE
8
Image
10
126.219950
20
351.132702
11
126.866515
21
352.640735
0
LINE
8
Image
10
126.866515
20
352.640735
11
127.633228
21
354.045034
0
LINE
8
Image
10
127.633228
20
354.045034
11
128.516623
21
355.343573
0
LINE
8
Image
10
128.516623
20
355.343573
11
129.513232
21
356.534329
0
LINE
8
Image
10
129.513232
20
356.534329
11
130.619590
21
357.615276
0
LINE
8
Image
10
130.619590
20
357.615276
11
131.832230
21
358.584389
0
LINE
8
Image
10
131.832230
20
358.584389
11
133.147684
21
359.439645
0
LINE
8
Image
10
133.147684
20
359.439645
11
136.073173
21
360.800485
0
LINE
8
Image
10
136.073173
20
360.800485
11
139.368324
21
361.681597
0
LINE
8
Image
10
139.368324
20
361.681597
11
143.005404
21
362.066784
0
LINE
8
Image
10
143.005404
20
362.066784
11
146.956682
21
361.939849
0
LINE
8
Image
10
146.956682
20
361.939849
11
149.046105
21
361.656575
0
LINE
8
Image
10
149.046105
20
361.656575
11
151.000795
21
361.216487
0
LINE
8
Image
10
151.000795
20
361.216487
11
152.817106
21
360.621460
0
LINE
8
Image
10
152.817106
20
360.621460
11
154.491395
21
359.873368
0
LINE
8
Image
10
154.491395
20
359.873368
11
156.020017
21
358.974085
0
LINE
8
Image
10
156.020017
20
358.974085
11
157.399329
21
357.925485
0
LINE
8
Image
10
157.399329
20
357.925485
11
158.625685
21
356.729444
0
LINE
8
Image
10
158.625685
20
356.729444
11
159.695441
21
355.387835
0
LINE
8
Image
10
159.695441
20
355.387835
11
160.875055
21
353.236903
0
LINE
8
Image
10
160.875055
20
353.236903
11
161.660213
21
351.414620
0
LINE
8
Image
10
161.660213
20
351.414620
11
160.746988
21
350.993002
0
LINE
8
Image
10
160.746988
20
350.993002
11
158.551363
21
350.325365
0
LINE
8
Image
10
158.551363
20
350.325365
11
155.031057
21
349.364861
0
LINE
8
Image
10
155.031057
20
349.364861
11
154.605287
21
349.537058
0
LINE
8
Image
10
154.605287
20
349.537058
11
154.149749
21
350.312133
0
LINE
8
Image
10
154.149749
20
350.312133
11
153.386704
21
351.652535
0
LINE
8
Image
10
153.386704
20
351.652535
11
152.370135
21
352.824690
0
LINE
8
Image
10
152.370135
20
352.824690
11
151.129265
21
353.815291
0
LINE
8
Image
10
151.129265
20
353.815291
11
149.693320
21
354.611030
0
LINE
8
Image
10
149.693320
20
354.611030
11
148.091523
21
355.198598
0
LINE
8
Image
10
148.091523
20
355.198598
11
146.353098
21
355.564689
0
LINE
8
Image
10
146.353098
20
355.564689
11
144.507270
21
355.695993
0
LINE
8
Image
10
144.507270
20
355.695993
11
142.583263
21
355.579204
0
LINE
8
Image
10
142.583263
20
355.579204
11
140.901819
21
355.253127
0
LINE
8
Image
10
140.901819
20
355.253127
11
139.367425
21
354.718096
0
LINE
8
Image
10
139.367425
20
354.718096
11
137.984841
21
353.978424
0
LINE
8
Image
10
137.984841
20
353.978424
11
136.758825
21
353.038426
0
LINE
8
Image
10
136.758825
20
353.038426
11
135.694137
21
351.902414
0
LINE
8
Image
10
135.694137
20
351.902414
11
134.795537
21
350.574703
0
LINE
8
Image
10
134.795537
20
350.574703
11
134.067784
21
349.059605
0
LINE
8
Image
10
134.067784
20
349.059605
11
133.515638
21
347.361434
0
LINE
8
Image
10
133.515638
20
347.361434
11
133.157458
21
345.468334
0
LINE
8
Image
10
133.157458
20
345.468334
11
132.951465
21
343.278067
0
LINE
8
Image
10
132.951465
20
343.278067
11
132.911726
21
341.043958
0
LINE
8
Image
10
132.911726
20
341.043958
11
133.052314
21
339.019333
0
LINE
8
Image
10
133.052314
20
339.019333
11
133.634664
21
336.043642
0
LINE
8
Image
10
133.634664
20
336.043642
11
134.559146
21
333.538024
0
LINE
8
Image
10
134.559146
20
333.538024
11
135.828095
21
331.497637
0
LINE
8
Image
10
135.828095
20
331.497637
11
137.443846
21
329.917643
0
LINE
8
Image
10
137.443846
20
329.917643
11
138.651294
21
329.115622
0
LINE
8
Image
10
138.651294
20
329.115622
11
139.901995
21
328.526856
0
LINE
8
Image
10
139.901995
20
328.526856
11
141.302410
21
328.111003
0
LINE
8
Image
10
141.302410
20
328.111003
11
142.959000
21
327.827720
0
LINE
8
Image
10
142.959000
20
327.827720
11
144.808212
21
327.715673
0
LINE
8
Image
10
144.808212
20
327.715673
11
146.564761
21
327.853726
0
LINE
8
Image
10
146.564761
20
327.853726
11
148.214827
21
328.234961
0
LINE
8
Image
10
148.214827
20
328.234961
11
149.744588
21
328.852460
0
LINE
8
Image
10
149.744588
20
328.852460
11
151.140224
21
329.699306
0
LINE
8
Image
10
151.140224
20
329.699306
11
152.387916
21
330.768580
0
LINE
8
Image
10
152.387916
20
330.768580
11
153.473841
21
332.053365
0
LINE
8
Image
10
153.473841
20
332.053365
11
154.384181
21
333.546743
0
LINE
8
Image
10
154.384181
20
333.546743
11
155.189997
21
335.151092
0
LINE
8
Image
10
155.189997
20
335.151092
11
158.629576
21
333.913944
0
LINE
8
Image
10
158.629576
20
333.913944
11
161.233217
21
332.833345
0
LINE
8
Image
10
161.233217
20
332.833345
11
161.839644
21
332.476256
0
LINE
8
Image
10
161.839644
20
332.476256
11
162.023152
21
332.221015
0
LINE
8
Image
10
162.023152
20
332.221015
11
161.617813
21
331.128043
0
LINE
8
Image
10
161.617813
20
331.128043
11
160.678889
21
329.554845
0
LINE
8
Image
10
160.678889
20
329.554845
11
159.433799
21
327.843443
0
LINE
8
Image
10
159.433799
20
327.843443
11
158.109964
21
326.335859
0
LINE
8
Image
10
158.109964
20
326.335859
11
156.576765
21
324.998489
0
LINE
8
Image
10
156.576765
20
324.998489
11
154.849441
21
323.859553
0
LINE
8
Image
10
154.849441
20
323.859553
11
152.946123
21
322.924318
0
LINE
8
Image
10
152.946123
20
322.924318
11
150.884941
21
322.198051
0
LINE
8
Image
10
150.884941
20
322.198051
11
148.684026
21
321.686021
0
LINE
8
Image
10
148.684026
20
321.686021
11
146.361509
21
321.393495
0
LINE
8
Image
10
146.361509
20
321.393495
11
143.935520
21
321.325739
0
LINE
8
Image
10
143.935520
20
321.325739
11
141.424191
21
321.488023
0
LINE
8
Image
10
141.424191
20
321.488023
11
141.424191
21
321.488023
0
LINE
8
Image
10
269.482363
20
321.487230
11
267.004157
21
321.895402
0
LINE
8
Image
10
267.004157
20
321.895402
11
264.683237
21
322.552629
0
LINE
8
Image
10
264.683237
20
322.552629
11
262.534074
21
323.449303
0
LINE
8
Image
10
262.534074
20
323.449303
11
260.571139
21
324.575816
0
LINE
8
Image
10
260.571139
20
324.575816
11
258.808901
21
325.922562
0
LINE
8
Image
10
258.808901
20
325.922562
11
257.261833
21
327.479932
0
LINE
8
Image
10
257.261833
20
327.479932
11
255.944403
21
329.238319
0
LINE
8
Image
10
255.944403
20
329.238319
11
254.871084
21
331.188115
0
LINE
8
Image
10
254.871084
20
331.188115
11
253.861913
21
333.900804
0
LINE
8
Image
10
253.861913
20
333.900804
11
253.189294
21
336.878868
0
LINE
8
Image
10
253.189294
20
336.878868
11
252.848273
21
340.015364
0
LINE
8
Image
10
252.848273
20
340.015364
11
252.833892
21
343.203343
0
LINE
8
Image
10
252.833892
20
343.203343
11
253.141195
21
346.335861
0
LINE
8
Image
10
253.141195
20
346.335861
11
253.765226
21
349.305970
0
LINE
8
Image
10
253.765226
20
349.305970
11
254.701028
21
352.006725
0
LINE
8
Image
10
254.701028
20
352.006725
11
255.943645
21
354.331180
0
LINE
8
Image
10
255.943645
20
354.331180
11
256.823376
21
355.507576
0
LINE
8
Image
10
256.823376
20
355.507576
11
257.854562
21
356.626116
0
LINE
8
Image
10
257.854562
20
356.626116
11
260.284114
21
358.629403
0
LINE
8
Image
10
260.284114
20
358.629403
11
263.057937
21
360.220590
0
LINE
8
Image
10
263.057937
20
360.220590
11
266.001668
21
361.279225
0
LINE
8
Image
10
266.001668
20
361.279225
11
269.314759
21
361.848825
0
LINE
8
Image
10
269.314759
20
361.848825
11
273.003450
21
362.039352
0
LINE
8
Image
10
273.003450
20
362.039352
11
276.685181
21
361.850706
0
LINE
8
Image
10
276.685181
20
361.850706
11
279.977391
21
361.282792
0
LINE
8
Image
10
279.977391
20
361.282792
11
282.015193
21
360.618410
0
LINE
8
Image
10
282.015193
20
360.618410
11
283.956035
21
359.706101
0
LINE
8
Image
10
283.956035
20
359.706101
11
285.715352
21
358.592179
0
LINE
8
Image
10
285.715352
20
358.592179
11
287.208577
21
357.322954
0
LINE
8
Image
10
287.208577
20
357.322954
11
288.417724
21
355.896661
0
LINE
8
Image
10
288.417724
20
355.896661
11
289.548840
21
354.231589
0
LINE
8
Image
10
289.548840
20
354.231589
11
290.321738
21
352.785561
0
LINE
8
Image
10
290.321738
20
352.785561
11
290.486295
21
352.287758
0
LINE
8
Image
10
290.486295
20
352.287758
11
290.456228
21
352.016400
0
LINE
8
Image
10
290.456228
20
352.016400
11
286.978046
21
350.839857
0
LINE
8
Image
10
286.978046
20
350.839857
11
283.350957
21
349.780636
0
LINE
8
Image
10
283.350957
20
349.780636
11
282.640075
21
350.771452
0
LINE
8
Image
10
282.640075
20
350.771452
11
281.774122
21
352.029184
0
LINE
8
Image
10
281.774122
20
352.029184
11
280.705756
21
353.114268
0
LINE
8
Image
10
280.705756
20
353.114268
11
279.452924
21
354.019255
0
LINE
8
Image
10
279.452924
20
354.019255
11
278.033573
21
354.736695
0
LINE
8
Image
10
278.033573
20
354.736695
11
276.465649
21
355.259141
0
LINE
8
Image
10
276.465649
20
355.259141
11
274.767100
21
355.579143
0
LINE
8
Image
10
274.767100
20
355.579143
11
272.955872
21
355.689252
0
LINE
8
Image
10
272.955872
20
355.689252
11
271.049911
21
355.582020
0
LINE
8
Image
10
271.049911
20
355.582020
11
269.226909
21
355.244446
0
LINE
8
Image
10
269.226909
20
355.244446
11
267.563363
21
354.662909
0
LINE
8
Image
10
267.563363
20
354.662909
11
266.067263
21
353.844935
0
LINE
8
Image
10
266.067263
20
353.844935
11
264.746601
21
352.798053
0
LINE
8
Image
10
264.746601
20
352.798053
11
263.609369
21
351.529789
0
LINE
8
Image
10
263.609369
20
351.529789
11
262.663556
21
350.047670
0
LINE
8
Image
10
262.663556
20
350.047670
11
261.917155
21
348.359224
0
LINE
8
Image
10
261.917155
20
348.359224
11
261.378156
21
346.471978
0
LINE
8
Image
10
261.378156
20
346.471978
11
261.107778
21
344.291933
0
LINE
8
Image
10
261.107778
20
344.291933
11
261.042471
21
341.574894
0
LINE
8
Image
10
261.042471
20
341.574894
11
261.175113
21
338.892078
0
LINE
8
Image
10
261.175113
20
338.892078
11
261.498581
21
336.814699
0
LINE
8
Image
10
261.498581
20
336.814699
11
262.309049
21
334.463735
0
LINE
8
Image
10
262.309049
20
334.463735
11
263.409456
21
332.446021
0
LINE
8
Image
10
263.409456
20
332.446021
11
264.786729
21
330.770043
0
LINE
8
Image
10
264.786729
20
330.770043
11
266.427793
21
329.444286
0
LINE
8
Image
10
266.427793
20
329.444286
11
268.319573
21
328.477235
0
LINE
8
Image
10
268.319573
20
328.477235
11
270.448994
21
327.877377
0
LINE
8
Image
10
270.448994
20
327.877377
11
272.802982
21
327.653197
0
LINE
8
Image
10
272.802982
20
327.653197
11
275.368461
21
327.813180
0
LINE
8
Image
10
275.368461
20
327.813180
11
277.517831
21
328.199276
0
LINE
8
Image
10
277.517831
20
328.199276
11
279.596974
21
328.756811
0
LINE
8
Image
10
279.596974
20
328.756811
11
281.446088
21
329.435495
0
LINE
8
Image
10
281.446088
20
329.435495
11
282.905373
21
330.185037
0
LINE
8
Image
10
282.905373
20
330.185037
11
284.162142
21
330.982218
0
LINE
8
Image
10
284.162142
20
330.982218
11
284.162142
21
333.898477
0
LINE
8
Image
10
284.162142
20
333.898477
11
284.162142
21
336.814716
0
LINE
8
Image
10
284.162142
20
336.814716
11
279.267357
21
336.814716
0
LINE
8
Image
10
279.267357
20
336.814716
11
274.372571
21
336.814716
0
LINE
8
Image
10
274.372571
20
336.814716
11
274.372571
21
339.857420
0
LINE
8
Image
10
274.372571
20
339.857420
11
274.372571
21
342.900125
0
LINE
8
Image
10
274.372571
20
342.900125
11
282.971519
21
342.900125
0
LINE
8
Image
10
282.971519
20
342.900125
11
291.570466
21
342.900125
0
LINE
8
Image
10
291.570466
20
342.900125
11
291.570466
21
335.512417
0
LINE
8
Image
10
291.570466
20
335.512417
11
291.570466
21
328.124712
0
LINE
8
Image
10
291.570466
20
328.124712
11
290.445988
21
327.155672
0
LINE
8
Image
10
290.445988
20
327.155672
11
289.072042
21
326.109643
0
LINE
8
Image
10
289.072042
20
326.109643
11
287.407745
21
325.060305
0
LINE
8
Image
10
287.407745
20
325.060305
11
285.608318
21
324.097816
0
LINE
8
Image
10
285.608318
20
324.097816
11
283.828979
21
323.312334
0
LINE
8
Image
10
283.828979
20
323.312334
11
280.540677
21
322.318372
0
LINE
8
Image
10
280.540677
20
322.318372
11
276.804350
21
321.651179
0
LINE
8
Image
10
276.804350
20
321.651179
11
272.993684
21
321.358291
0
LINE
8
Image
10
272.993684
20
321.358291
11
269.482363
21
321.487248
0
LINE
8
Image
10
269.482363
20
321.487248
11
269.482363
21
321.487230
 0 
ENDSEC
 0 
EOF