999
"DXF R12 Output" (www.mydxf.blogspot.com)
 0 
SECTION
 2 
HEADER
 9 
$ACADVER
 1 
AC1009
 9 
$EXTMIN
 10 
 0 
 20 
 0 
 9 
$EXTMAX
 10 
 8.5 
 20 
 11 
 0 
ENDSEC
 0 
SECTION
 2 
ENTITIES
0
LINE
8
Image
10
5.292692
20
3.953987
11
6.038641
21
5.290500
0
LINE
8
Image
10
6.038641
20
5.290500
11
8.776772
21
9.279037
0
LINE
8
Image
10
8.776772
20
9.279037
11
22.139718
21
27.930697
0
LINE
8
Image
10
22.139718
20
27.930697
11
24.717277
21
31.502567
0
LINE
8
Image
10
24.717277
20
31.502567
11
21.756020
21
34.545272
0
LINE
8
Image
10
21.756020
20
34.545272
11
17.725107
21
38.998674
0
LINE
8
Image
10
17.725107
20
38.998674
11
14.118654
21
43.641891
0
LINE
8
Image
10
14.118654
20
43.641891
11
10.932528
21
48.483230
0
LINE
8
Image
10
10.932528
20
48.483230
11
8.162598
21
53.530998
0
LINE
8
Image
10
8.162598
20
53.530998
11
5.804732
21
58.793504
0
LINE
8
Image
10
5.804732
20
58.793504
11
3.854799
21
64.279053
0
LINE
8
Image
10
3.854799
20
64.279053
11
2.308667
21
69.995953
0
LINE
8
Image
10
2.308667
20
69.995953
11
1.162205
21
75.952511
0
LINE
8
Image
10
1.162205
20
75.952511
11
0.690869
21
80.813668
0
LINE
8
Image
10
0.690869
20
80.813668
11
0.533974
21
86.670727
0
LINE
8
Image
10
0.533974
20
86.670727
11
0.691459
21
92.526484
0
LINE
8
Image
10
0.691459
20
92.526484
11
1.163263
21
97.383734
0
LINE
8
Image
10
1.163263
20
97.383734
11
2.093063
21
102.354268
0
LINE
8
Image
10
2.093063
20
102.354268
11
3.305744
21
107.170145
0
LINE
8
Image
10
3.305744
20
107.170145
11
4.803087
21
111.835474
0
LINE
8
Image
10
4.803087
20
111.835474
11
6.586872
21
116.354361
0
LINE
8
Image
10
6.586872
20
116.354361
11
8.658880
21
120.730915
0
LINE
8
Image
10
8.658880
20
120.730915
11
11.020893
21
124.969244
0
LINE
8
Image
10
11.020893
20
124.969244
11
13.674689
21
129.073457
0
LINE
8
Image
10
13.674689
20
129.073457
11
16.622051
21
133.047660
0
LINE
8
Image
10
16.622051
20
133.047660
11
19.209031
21
136.036917
0
LINE
8
Image
10
19.209031
20
136.036917
11
22.483597
21
139.440303
0
LINE
8
Image
10
22.483597
20
139.440303
11
25.855016
21
142.668376
0
LINE
8
Image
10
25.855016
20
142.668376
11
28.732552
21
145.131694
0
LINE
8
Image
10
28.732552
20
145.131694
11
31.988730
21
147.525435
0
LINE
8
Image
10
31.988730
20
147.525435
11
35.329466
21
149.731442
0
LINE
8
Image
10
35.329466
20
149.731442
11
38.749069
21
151.748274
0
LINE
8
Image
10
38.749069
20
151.748274
11
42.241852
21
153.574488
0
LINE
8
Image
10
42.241852
20
153.574488
11
45.802127
21
155.208645
0
LINE
8
Image
10
45.802127
20
155.208645
11
49.424204
21
156.649302
0
LINE
8
Image
10
49.424204
20
156.649302
11
53.102395
21
157.895018
0
LINE
8
Image
10
53.102395
20
157.895018
11
56.831012
21
158.944352
0
LINE
8
Image
10
56.831012
20
158.944352
11
60.604366
21
159.795863
0
LINE
8
Image
10
60.604366
20
159.795863
11
64.416769
21
160.448108
0
LINE
8
Image
10
64.416769
20
160.448108
11
68.262532
21
160.899647
0
LINE
8
Image
10
68.262532
20
160.899647
11
72.135966
21
161.149039
0
LINE
8
Image
10
72.135966
20
161.149039
11
76.031384
21
161.194841
0
LINE
8
Image
10
76.031384
20
161.194841
11
79.943095
21
161.035613
0
LINE
8
Image
10
79.943095
20
161.035613
11
83.865413
21
160.669913
0
LINE
8
Image
10
83.865413
20
160.669913
11
87.792648
21
160.096301
0
LINE
8
Image
10
87.792648
20
160.096301
11
91.123899
21
159.437271
0
LINE
8
Image
10
91.123899
20
159.437271
11
94.464574
21
158.612115
0
LINE
8
Image
10
94.464574
20
158.612115
11
97.788494
21
157.630486
0
LINE
8
Image
10
97.788494
20
157.630486
11
101.069483
21
156.502036
0
LINE
8
Image
10
101.069483
20
156.502036
11
104.281362
21
155.236416
0
LINE
8
Image
10
104.281362
20
155.236416
11
107.397954
21
153.843280
0
LINE
8
Image
10
107.397954
20
153.843280
11
110.393082
21
152.332279
0
LINE
8
Image
10
110.393082
20
152.332279
11
113.240566
21
150.713067
0
LINE
8
Image
10
113.240566
20
150.713067
11
115.750237
21
149.374294
0
LINE
8
Image
10
115.750237
20
149.374294
11
118.491613
21
151.177766
0
LINE
8
Image
10
118.491613
20
151.177766
11
131.126173
21
160.349789
0
LINE
8
Image
10
131.126173
20
160.349789
11
142.698330
21
168.762354
0
LINE
8
Image
10
142.698330
20
168.762354
11
143.582582
21
169.341640
0
LINE
8
Image
10
143.582582
20
169.341640
11
144.273778
21
169.618989
0
LINE
8
Image
10
144.273778
20
169.618989
11
144.723790
21
169.584173
0
LINE
8
Image
10
144.723790
20
169.584173
11
144.884489
21
169.226963
0
LINE
8
Image
10
144.884489
20
169.226963
11
140.073447
21
162.273355
0
LINE
8
Image
10
140.073447
20
162.273355
11
131.171316
21
149.903460
0
LINE
8
Image
10
131.171316
20
149.903460
11
126.216074
21
143.028090
0
LINE
8
Image
10
126.216074
20
143.028090
11
125.351914
21
141.841256
0
LINE
8
Image
10
125.351914
20
141.841256
11
128.438137
21
138.662468
0
LINE
8
Image
10
128.438137
20
138.662468
11
130.941211
21
135.993738
0
LINE
8
Image
10
130.941211
20
135.993738
11
133.110673
21
133.467061
0
LINE
8
Image
10
133.110673
20
133.467061
11
135.102393
21
130.891312
0
LINE
8
Image
10
135.102393
20
130.891312
11
137.072242
21
128.075362
0
LINE
8
Image
10
137.072242
20
128.075362
11
139.281036
21
124.576467
0
LINE
8
Image
10
139.281036
20
124.576467
11
141.280256
21
120.986459
0
LINE
8
Image
10
141.280256
20
120.986459
11
143.068716
21
117.313130
0
LINE
8
Image
10
143.068716
20
117.313130
11
144.645230
21
113.564269
0
LINE
8
Image
10
144.645230
20
113.564269
11
146.008610
21
109.747668
0
LINE
8
Image
10
146.008610
20
109.747668
11
147.157671
21
105.871116
0
LINE
8
Image
10
147.157671
20
105.871116
11
148.091225
21
101.942405
0
LINE
8
Image
10
148.091225
20
101.942405
11
148.808086
21
97.969325
0
LINE
8
Image
10
148.808086
20
97.969325
11
149.307068
21
93.959667
0
LINE
8
Image
10
149.307068
20
93.959667
11
149.586984
21
89.921220
0
LINE
8
Image
10
149.586984
20
89.921220
11
149.646648
21
85.861776
0
LINE
8
Image
10
149.646648
20
85.861776
11
149.484872
21
81.789124
0
LINE
8
Image
10
149.484872
20
81.789124
11
149.100470
21
77.711057
0
LINE
8
Image
10
149.100470
20
77.711057
11
148.492257
21
73.635363
0
LINE
8
Image
10
148.492257
20
73.635363
11
147.659044
21
69.569834
0
LINE
8
Image
10
147.659044
20
69.569834
11
146.599646
21
65.522261
0
LINE
8
Image
10
146.599646
20
65.522261
11
145.106831
21
60.967969
0
LINE
8
Image
10
145.106831
20
60.967969
11
143.308987
21
56.519614
0
LINE
8
Image
10
143.308987
20
56.519614
11
141.214125
21
52.190283
0
LINE
8
Image
10
141.214125
20
52.190283
11
138.830255
21
47.993066
0
LINE
8
Image
10
138.830255
20
47.993066
11
136.165390
21
43.941053
0
LINE
8
Image
10
136.165390
20
43.941053
11
133.227538
21
40.047332
0
LINE
8
Image
10
133.227538
20
40.047332
11
130.024713
21
36.324993
0
LINE
8
Image
10
130.024713
20
36.324993
11
126.564924
21
32.787126
0
LINE
8
Image
10
126.564924
20
32.787126
11
123.074969
21
29.661399
0
LINE
8
Image
10
123.074969
20
29.661399
11
119.337090
21
26.735699
0
LINE
8
Image
10
119.337090
20
26.735699
11
115.386720
21
24.029750
0
LINE
8
Image
10
115.386720
20
24.029750
11
111.259293
21
21.563276
0
LINE
8
Image
10
111.259293
20
21.563276
11
106.990242
21
19.355998
0
LINE
8
Image
10
106.990242
20
19.355998
11
102.615000
21
17.427642
0
LINE
8
Image
10
102.615000
20
17.427642
11
98.169001
21
15.797929
0
LINE
8
Image
10
98.169001
20
15.797929
11
93.687679
21
14.486584
0
LINE
8
Image
10
93.687679
20
14.486584
11
88.138958
21
13.296046
0
LINE
8
Image
10
88.138958
20
13.296046
11
82.511226
21
12.530107
0
LINE
8
Image
10
82.511226
20
12.530107
11
76.840551
21
12.186938
0
LINE
8
Image
10
76.840551
20
12.186938
11
71.163002
21
12.264707
0
LINE
8
Image
10
71.163002
20
12.264707
11
65.514648
21
12.761586
0
LINE
8
Image
10
65.514648
20
12.761586
11
59.931558
21
13.675743
0
LINE
8
Image
10
59.931558
20
13.675743
11
54.449800
21
15.005350
0
LINE
8
Image
10
54.449800
20
15.005350
11
49.105443
21
16.748575
0
LINE
8
Image
10
49.105443
20
16.748575
11
46.190324
21
17.942619
0
LINE
8
Image
10
46.190324
20
17.942619
11
42.808773
21
19.498960
0
LINE
8
Image
10
42.808773
20
19.498960
11
39.494780
21
21.160928
0
LINE
8
Image
10
39.494780
20
21.160928
11
36.782331
21
22.671853
0
LINE
8
Image
10
36.782331
20
22.671853
11
34.381082
21
24.122964
0
LINE
8
Image
10
34.381082
20
24.122964
11
32.504199
21
22.785690
0
LINE
8
Image
10
32.504199
20
22.785690
11
15.181508
21
10.252901
0
LINE
8
Image
10
15.181508
20
10.252901
11
5.714363
21
3.589061
0
LINE
8
Image
10
5.714363
20
3.589061
11
5.474261
21
3.696258
0
LINE
8
Image
10
5.474261
20
3.696258
11
5.292607
21
3.953987
0
LINE
8
Image
10
5.292607
20
3.953987
11
5.292692
21
3.953987
0
LINE
8
Image
10
21.456604
20
16.260708
11
51.222192
21
37.853406
0
LINE
8
Image
10
51.222192
20
37.853406
11
67.097172
21
49.367082
0
LINE
8
Image
10
67.097172
20
49.367082
11
85.353399
21
62.600248
0
LINE
8
Image
10
85.353399
20
62.600248
11
116.405535
21
85.090478
0
LINE
8
Image
10
116.405535
20
85.090478
11
117.692080
21
86.006665
0
LINE
8
Image
10
117.692080
20
86.006665
11
101.059721
21
86.138957
0
LINE
8
Image
10
101.059721
20
86.138957
11
87.282888
21
86.316685
0
LINE
8
Image
10
87.282888
20
86.316685
11
84.988995
21
86.455263
0
LINE
8
Image
10
84.988995
20
86.455263
11
84.562490
21
86.550638
0
LINE
8
Image
10
84.562490
20
86.550638
11
84.453161
21
86.668604
0
LINE
8
Image
10
84.453161
20
86.668604
11
85.312901
21
88.114914
0
LINE
8
Image
10
85.312901
20
88.114914
11
87.343714
21
91.034224
0
LINE
8
Image
10
87.343714
20
91.034224
11
92.093135
21
97.648317
0
LINE
8
Image
10
92.093135
20
97.648317
11
98.088699
21
105.982682
0
LINE
8
Image
10
98.088699
20
105.982682
11
140.540529
21
164.984690
0
LINE
8
Image
10
140.540529
20
164.984690
11
141.577286
21
166.439897
0
LINE
8
Image
10
141.577286
20
166.439897
11
140.254371
21
165.493743
0
LINE
8
Image
10
140.254371
20
165.493743
11
128.215845
21
156.777300
0
LINE
8
Image
10
128.215845
20
156.777300
11
107.975245
21
142.102428
0
LINE
8
Image
10
107.975245
20
142.102428
11
74.505496
21
117.822078
0
LINE
8
Image
10
74.505496
20
117.822078
11
66.303423
21
111.875183
0
LINE
8
Image
10
66.303423
20
111.875183
11
52.148232
21
101.621465
0
LINE
8
Image
10
52.148232
20
101.621465
11
36.054313
21
89.966922
0
LINE
8
Image
10
36.054313
20
89.966922
11
32.395794
21
87.329580
0
LINE
8
Image
10
32.395794
20
87.329580
11
49.018880
21
87.197289
0
LINE
8
Image
10
49.018880
20
87.197289
11
62.868632
21
87.018878
0
LINE
8
Image
10
62.868632
20
87.018878
11
65.110156
21
86.877370
0
LINE
8
Image
10
65.110156
20
86.877370
11
65.514449
21
86.778715
0
LINE
8
Image
10
65.514449
20
86.778715
11
65.614190
21
86.655812
0
LINE
8
Image
10
65.614190
20
86.655812
11
59.907831
21
78.406115
0
LINE
8
Image
10
59.907831
20
78.406115
11
44.070045
21
56.373369
0
LINE
8
Image
10
44.070045
20
56.373369
11
26.085137
21
31.370276
0
LINE
8
Image
10
26.085137
20
31.370276
11
9.443957
21
8.222264
0
LINE
8
Image
10
9.443957
20
8.222264
11
8.492037
21
6.902349
0
LINE
8
Image
10
8.492037
20
6.902349
11
9.418078
21
7.552641
0
LINE
8
Image
10
9.418078
20
7.552641
11
21.456604
21
16.260708
0
LINE
8
Image
10
21.456604
20
16.260708
11
21.456604
21
16.260708
0
LINE
8
Image
10
82.760483
20
13.504415
11
88.060348
21
14.260332
0
LINE
8
Image
10
88.060348
20
14.260332
11
93.267485
21
15.389754
0
LINE
8
Image
10
93.267485
20
15.389754
11
98.364720
21
16.885560
0
LINE
8
Image
10
98.364720
20
16.885560
11
103.334879
21
18.740626
0
LINE
8
Image
10
103.334879
20
18.740626
11
108.160788
21
20.947831
0
LINE
8
Image
10
108.160788
20
20.947831
11
112.825272
21
23.500055
0
LINE
8
Image
10
112.825272
20
23.500055
11
117.311158
21
26.390173
0
LINE
8
Image
10
117.311158
20
26.390173
11
121.601270
21
29.611066
0
LINE
8
Image
10
121.601270
20
29.611066
11
124.173963
21
31.892749
0
LINE
8
Image
10
124.173963
20
31.892749
11
127.308020
21
34.943448
0
LINE
8
Image
10
127.308020
20
34.943448
11
130.327191
21
38.082859
0
LINE
8
Image
10
130.327191
20
38.082859
11
132.555226
21
40.630681
0
LINE
8
Image
10
132.555226
20
40.630681
11
135.024418
21
43.920538
0
LINE
8
Image
10
135.024418
20
43.920538
11
137.295407
21
47.313288
0
LINE
8
Image
10
137.295407
20
47.313288
11
139.366351
21
50.801315
0
LINE
8
Image
10
139.366351
20
50.801315
11
141.235408
21
54.377006
0
LINE
8
Image
10
141.235408
20
54.377006
11
142.900737
21
58.032748
0
LINE
8
Image
10
142.900737
20
58.032748
11
144.360494
21
61.760927
0
LINE
8
Image
10
144.360494
20
61.760927
11
145.612838
21
65.553930
0
LINE
8
Image
10
145.612838
20
65.553930
11
146.655927
21
69.404142
0
LINE
8
Image
10
146.655927
20
69.404142
11
147.487919
21
73.303951
0
LINE
8
Image
10
147.487919
20
73.303951
11
148.106972
21
77.245743
0
LINE
8
Image
10
148.106972
20
77.245743
11
148.511243
21
81.221904
0
LINE
8
Image
10
148.511243
20
81.221904
11
148.698891
21
85.224820
0
LINE
8
Image
10
148.698891
20
85.224820
11
148.668073
21
89.246879
0
LINE
8
Image
10
148.668073
20
89.246879
11
148.416947
21
93.280466
0
LINE
8
Image
10
148.416947
20
93.280466
11
147.943672
21
97.317967
0
LINE
8
Image
10
147.943672
20
97.317967
11
147.246406
21
101.351770
0
LINE
8
Image
10
147.246406
20
101.351770
11
146.271996
21
105.538786
0
LINE
8
Image
10
146.271996
20
105.538786
11
145.046349
21
109.665488
0
LINE
8
Image
10
145.046349
20
109.665488
11
143.575680
21
113.718549
0
LINE
8
Image
10
143.575680
20
113.718549
11
141.866203
21
117.684640
0
LINE
8
Image
10
141.866203
20
117.684640
11
139.924132
21
121.550435
0
LINE
8
Image
10
139.924132
20
121.550435
11
137.755681
21
125.302604
0
LINE
8
Image
10
137.755681
20
125.302604
11
135.367064
21
128.927821
0
LINE
8
Image
10
135.367064
20
128.927821
11
132.764495
21
132.412756
0
LINE
8
Image
10
132.764495
20
132.412756
11
128.193815
21
137.564024
0
LINE
8
Image
10
128.193815
20
137.564024
11
125.921346
21
139.918594
0
LINE
8
Image
10
125.921346
20
139.918594
11
124.806839
21
140.899925
0
LINE
8
Image
10
124.806839
20
140.899925
11
123.560396
21
139.378570
0
LINE
8
Image
10
123.560396
20
139.378570
11
88.995543
21
91.298325
0
LINE
8
Image
10
88.995543
20
91.298325
11
86.138062
21
87.329580
0
LINE
8
Image
10
86.138062
20
87.329580
11
103.048353
21
87.261500
0
LINE
8
Image
10
103.048353
20
87.261500
11
116.943589
21
87.137082
0
LINE
8
Image
10
116.943589
20
87.137082
11
119.417336
21
87.011482
0
LINE
8
Image
10
119.417336
20
87.011482
11
120.104968
21
86.812098
0
LINE
8
Image
10
120.104968
20
86.812098
11
119.916352
21
86.457950
0
LINE
8
Image
10
119.916352
20
86.457950
11
119.181342
21
85.774983
0
LINE
8
Image
10
119.181342
20
85.774983
11
115.965350
21
83.332834
0
LINE
8
Image
10
115.965350
20
83.332834
11
110.356492
21
79.254020
0
LINE
8
Image
10
110.356492
20
79.254020
11
90.909642
21
65.163354
0
LINE
8
Image
10
90.909642
20
65.163354
11
82.532439
21
59.089666
0
LINE
8
Image
10
82.532439
20
59.089666
11
48.708653
21
34.555342
0
LINE
8
Image
10
48.708653
20
34.555342
11
35.950837
21
25.311928
0
LINE
8
Image
10
35.950837
20
25.311928
11
35.355525
21
24.747488
0
LINE
8
Image
10
35.355525
20
24.747488
11
37.889512
21
23.124375
0
LINE
8
Image
10
37.889512
20
23.124375
11
42.623244
21
20.581917
0
LINE
8
Image
10
42.623244
20
20.581917
11
45.526774
21
19.233861
0
LINE
8
Image
10
45.526774
20
19.233861
11
48.557944
21
17.997973
0
LINE
8
Image
10
48.557944
20
17.997973
11
54.884147
21
15.896652
0
LINE
8
Image
10
54.884147
20
15.896652
11
61.363745
21
14.345862
0
LINE
8
Image
10
61.363745
20
14.345862
11
64.586659
21
13.798137
0
LINE
8
Image
10
64.586659
20
13.798137
11
67.758629
21
13.413509
0
LINE
8
Image
10
67.758629
20
13.413509
11
71.174006
21
13.214231
0
LINE
8
Image
10
71.174006
20
13.214231
11
75.234884
21
13.165513
0
LINE
8
Image
10
75.234884
20
13.165513
11
79.308099
21
13.263520
0
LINE
8
Image
10
79.308099
20
13.263520
11
82.760483
21
13.504415
0
LINE
8
Image
10
82.760483
20
13.504415
11
82.760483
21
13.504415
0
LINE
8
Image
10
28.915506
20
37.323393
11
55.660635
21
74.497305
0
LINE
8
Image
10
55.660635
20
74.497305
11
63.954143
21
86.006665
0
LINE
8
Image
10
63.954143
20
86.006665
11
47.004847
21
86.074756
0
LINE
8
Image
10
47.004847
20
86.074756
11
32.455235
21
86.201499
0
LINE
8
Image
10
32.455235
20
86.201499
11
30.425768
21
86.353855
0
LINE
8
Image
10
30.425768
20
86.353855
11
30.119393
21
86.471862
0
LINE
8
Image
10
30.119393
20
86.471862
11
30.055552
21
86.625215
0
LINE
8
Image
10
30.055552
20
86.625215
11
30.416574
21
87.225722
0
LINE
8
Image
10
30.416574
20
87.225722
11
31.312321
21
88.001208
0
LINE
8
Image
10
31.312321
20
88.001208
11
57.043018
21
106.645751
0
LINE
8
Image
10
57.043018
20
106.645751
11
84.956524
21
126.881421
0
LINE
8
Image
10
84.956524
20
126.881421
11
110.723520
21
145.564796
0
LINE
8
Image
10
110.723520
20
145.564796
11
114.716304
21
148.588758
0
LINE
8
Image
10
114.716304
20
148.588758
11
113.932412
21
149.187487
0
LINE
8
Image
10
113.932412
20
149.187487
11
111.934273
21
150.358664
0
LINE
8
Image
10
111.934273
20
150.358664
11
106.520039
21
153.173801
0
LINE
8
Image
10
106.520039
20
153.173801
11
103.292428
21
154.618240
0
LINE
8
Image
10
103.292428
20
154.618240
11
100.000609
21
155.898853
0
LINE
8
Image
10
100.000609
20
155.898853
11
96.652064
21
157.015204
0
LINE
8
Image
10
96.652064
20
157.015204
11
93.254269
21
157.966860
0
LINE
8
Image
10
93.254269
20
157.966860
11
89.814705
21
158.753384
0
LINE
8
Image
10
89.814705
20
158.753384
11
86.340850
21
159.374343
0
LINE
8
Image
10
86.340850
20
159.374343
11
82.840184
21
159.829300
0
LINE
8
Image
10
82.840184
20
159.829300
11
79.320185
21
160.117820
0
LINE
8
Image
10
79.320185
20
160.117820
11
75.788332
21
160.239470
0
LINE
8
Image
10
75.788332
20
160.239470
11
72.252105
21
160.193813
0
LINE
8
Image
10
72.252105
20
160.193813
11
68.718983
21
159.980415
0
LINE
8
Image
10
68.718983
20
159.980415
11
65.196443
21
159.598840
0
LINE
8
Image
10
65.196443
20
159.598840
11
61.691967
21
159.048655
0
LINE
8
Image
10
61.691967
20
159.048655
11
58.213031
21
158.329423
0
LINE
8
Image
10
58.213031
20
158.329423
11
54.767117
21
157.440709
0
LINE
8
Image
10
54.767117
20
157.440709
11
51.361701
21
156.382079
0
LINE
8
Image
10
51.361701
20
156.382079
11
45.514830
21
154.102828
0
LINE
8
Image
10
45.514830
20
154.102828
11
39.780682
21
151.269143
0
LINE
8
Image
10
39.780682
20
151.269143
11
34.245923
21
147.928507
0
LINE
8
Image
10
34.245923
20
147.928507
11
28.997220
21
144.128407
0
LINE
8
Image
10
28.997220
20
144.128407
11
26.246292
21
141.744649
0
LINE
8
Image
10
26.246292
20
141.744649
11
23.013409
21
138.644932
0
LINE
8
Image
10
23.013409
20
138.644932
11
19.903372
21
135.431242
0
LINE
8
Image
10
19.903372
20
135.431242
11
17.520980
21
132.705565
0
LINE
8
Image
10
17.520980
20
132.705565
11
15.455491
21
129.990259
0
LINE
8
Image
10
15.455491
20
129.990259
11
13.527046
21
127.203707
0
LINE
8
Image
10
13.527046
20
127.203707
11
11.736705
21
124.349235
0
LINE
8
Image
10
11.736705
20
124.349235
11
10.085531
21
121.430169
0
LINE
8
Image
10
10.085531
20
121.430169
11
8.574586
21
118.449833
0
LINE
8
Image
10
8.574586
20
118.449833
11
7.204932
21
115.411555
0
LINE
8
Image
10
7.204932
20
115.411555
11
5.977631
21
112.318658
0
LINE
8
Image
10
5.977631
20
112.318658
11
4.893743
21
109.174469
0
LINE
8
Image
10
4.893743
20
109.174469
11
3.954333
21
105.982312
0
LINE
8
Image
10
3.954333
20
105.982312
11
3.160460
21
102.745515
0
LINE
8
Image
10
3.160460
20
102.745515
11
2.513188
21
99.467401
0
LINE
8
Image
10
2.513188
20
99.467401
11
2.013577
21
96.151297
0
LINE
8
Image
10
2.013577
20
96.151297
11
1.662691
21
92.800528
0
LINE
8
Image
10
1.662691
20
92.800528
11
1.461590
21
89.418420
0
LINE
8
Image
10
1.461590
20
89.418420
11
1.411337
21
86.008297
0
LINE
8
Image
10
1.411337
20
86.008297
11
1.512994
21
82.573487
0
LINE
8
Image
10
1.512994
20
82.573487
11
2.034739
21
76.904843
0
LINE
8
Image
10
2.034739
20
76.904843
11
3.004187
21
71.292225
0
LINE
8
Image
10
3.004187
20
71.292225
11
4.408508
21
65.769251
0
LINE
8
Image
10
4.408508
20
65.769251
11
6.234870
21
60.369542
0
LINE
8
Image
10
6.234870
20
60.369542
11
8.470441
21
55.126717
0
LINE
8
Image
10
8.470441
20
55.126717
11
11.102389
21
50.074396
0
LINE
8
Image
10
11.102389
20
50.074396
11
14.117883
21
45.246198
0
LINE
8
Image
10
14.117883
20
45.246198
11
17.504092
21
40.675745
0
LINE
8
Image
10
17.504092
20
40.675745
11
22.085300
21
35.562143
0
LINE
8
Image
10
22.085300
20
35.562143
11
24.260377
21
33.353042
0
LINE
8
Image
10
24.260377
20
33.353042
11
25.301760
21
32.485604
0
LINE
8
Image
10
25.301760
20
32.485604
11
28.915506
21
37.323393
0
LINE
8
Image
10
28.915506
20
37.323393
11
28.915506
21
37.323393
 0 
ENDSEC
 0 
EOF