999
"DXF R12 Output" (www.mydxf.blogspot.com)
 0 
SECTION
 2 
HEADER
 9 
$ACADVER
 1 
AC1009
 9 
$EXTMIN
 10 
 0 
 20 
 0 
 9 
$EXTMAX
 10 
 8.5 
 20 
 11 
 0 
ENDSEC
 0 
SECTION
 2 
ENTITIES
0
LINE
8
Image
10
98.739161
20
5.921896
11
94.167058
21
9.525276
0
LINE
8
Image
10
94.167058
20
9.525276
11
87.061079
21
15.204716
0
LINE
8
Image
10
87.061079
20
15.204716
11
80.209675
21
20.979066
0
LINE
8
Image
10
80.209675
20
20.979066
11
73.646182
21
26.816080
0
LINE
8
Image
10
73.646182
20
26.816080
11
67.403939
21
32.683510
0
LINE
8
Image
10
67.403939
20
32.683510
11
61.516282
21
38.549110
0
LINE
8
Image
10
61.516282
20
38.549110
11
56.016551
21
44.380633
0
LINE
8
Image
10
56.016551
20
44.380633
11
50.938081
21
50.145832
0
LINE
8
Image
10
50.938081
20
50.145832
11
46.314212
21
55.812461
0
LINE
8
Image
10
46.314212
20
55.812461
11
42.943049
21
60.255489
0
LINE
8
Image
10
42.943049
20
60.255489
11
39.718791
21
64.777124
0
LINE
8
Image
10
39.718791
20
64.777124
11
36.641285
21
69.377708
0
LINE
8
Image
10
36.641285
20
69.377708
11
33.710376
21
74.057582
0
LINE
8
Image
10
33.710376
20
74.057582
11
30.925911
21
78.817088
0
LINE
8
Image
10
30.925911
20
78.817088
11
28.287734
21
83.656568
0
LINE
8
Image
10
28.287734
20
83.656568
11
25.795693
21
88.576364
0
LINE
8
Image
10
25.795693
20
88.576364
11
23.449632
21
93.576817
0
LINE
8
Image
10
23.449632
20
93.576817
11
21.249398
21
98.658269
0
LINE
8
Image
10
21.249398
20
98.658269
11
19.194837
21
103.821062
0
LINE
8
Image
10
19.194837
20
103.821062
11
17.285794
21
109.065537
0
LINE
8
Image
10
17.285794
20
109.065537
11
15.522115
21
114.392037
0
LINE
8
Image
10
15.522115
20
114.392037
11
13.903647
21
119.800903
0
LINE
8
Image
10
13.903647
20
119.800903
11
12.430235
21
125.292477
0
LINE
8
Image
10
12.430235
20
125.292477
11
11.101725
21
130.867101
0
LINE
8
Image
10
11.101725
20
130.867101
11
9.917963
21
136.525116
0
LINE
8
Image
10
9.917963
20
136.525116
11
8.903438
21
142.178010
0
LINE
8
Image
10
8.903438
20
142.178010
11
7.997198
21
148.145644
0
LINE
8
Image
10
7.997198
20
148.145644
11
6.542420
21
160.676001
0
LINE
8
Image
10
6.542420
20
160.676001
11
5.619329
21
173.417919
0
LINE
8
Image
10
5.619329
20
173.417919
11
5.377696
21
179.650006
0
LINE
8
Image
10
5.377696
20
179.650006
11
5.293623
21
185.673133
0
LINE
8
Image
10
5.293623
20
185.673133
11
5.388374
21
189.458257
0
LINE
8
Image
10
5.388374
20
189.458257
11
5.573804
21
189.982220
0
LINE
8
Image
10
5.573804
20
189.982220
11
5.909020
21
189.999798
0
LINE
8
Image
10
5.909020
20
189.999798
11
11.112486
21
189.094980
0
LINE
8
Image
10
11.112486
20
189.094980
11
17.415677
21
188.296078
0
LINE
8
Image
10
17.415677
20
188.296078
11
23.601630
21
187.867754
0
LINE
8
Image
10
23.601630
20
187.867754
11
29.667821
21
187.809085
0
LINE
8
Image
10
29.667821
20
187.809085
11
35.611727
21
188.119151
0
LINE
8
Image
10
35.611727
20
188.119151
11
41.430822
21
188.797029
0
LINE
8
Image
10
41.430822
20
188.797029
11
47.122582
21
189.841797
0
LINE
8
Image
10
47.122582
20
189.841797
11
52.684483
21
191.252535
0
LINE
8
Image
10
52.684483
20
191.252535
11
58.114001
21
193.028320
0
LINE
8
Image
10
58.114001
20
193.028320
11
63.408612
21
195.168231
0
LINE
8
Image
10
63.408612
20
195.168231
11
68.565791
21
197.671345
0
LINE
8
Image
10
68.565791
20
197.671345
11
73.583013
21
200.536742
0
LINE
8
Image
10
73.583013
20
200.536742
11
78.457755
21
203.763500
0
LINE
8
Image
10
78.457755
20
203.763500
11
83.187493
21
207.350696
0
LINE
8
Image
10
83.187493
20
207.350696
11
87.769701
21
211.297410
0
LINE
8
Image
10
87.769701
20
211.297410
11
92.201857
21
215.602720
0
LINE
8
Image
10
92.201857
20
215.602720
11
96.481434
21
220.265703
0
LINE
8
Image
10
96.481434
20
220.265703
11
99.283359
21
223.387836
0
LINE
8
Image
10
99.283359
20
223.387836
11
100.585612
21
224.633562
0
LINE
8
Image
10
100.585612
20
224.633562
11
104.678766
21
220.133344
0
LINE
8
Image
10
104.678766
20
220.133344
11
107.710512
21
216.784020
0
LINE
8
Image
10
107.710512
20
216.784020
11
110.773530
21
213.631332
0
LINE
8
Image
10
110.773530
20
213.631332
11
113.872942
21
210.672339
0
LINE
8
Image
10
113.872942
20
210.672339
11
117.013872
21
207.904101
0
LINE
8
Image
10
117.013872
20
207.904101
11
120.201442
21
205.323679
0
LINE
8
Image
10
120.201442
20
205.323679
11
123.440775
21
202.928131
0
LINE
8
Image
10
123.440775
20
202.928131
11
126.736995
21
200.714519
0
LINE
8
Image
10
126.736995
20
200.714519
11
130.095224
21
198.679902
0
LINE
8
Image
10
130.095224
20
198.679902
11
133.520585
21
196.821339
0
LINE
8
Image
10
133.520585
20
196.821339
11
137.018201
21
195.135891
0
LINE
8
Image
10
137.018201
20
195.135891
11
140.593194
21
193.620618
0
LINE
8
Image
10
140.593194
20
193.620618
11
144.250689
21
192.272579
0
LINE
8
Image
10
144.250689
20
192.272579
11
147.995807
21
191.088834
0
LINE
8
Image
10
147.995807
20
191.088834
11
151.833671
21
190.066444
0
LINE
8
Image
10
151.833671
20
190.066444
11
155.769405
21
189.202468
0
LINE
8
Image
10
155.769405
20
189.202468
11
159.808132
21
188.493966
0
LINE
8
Image
10
159.808132
20
188.493966
11
164.912173
21
188.003064
0
LINE
8
Image
10
164.912173
20
188.003064
11
172.860892
21
187.880115
0
LINE
8
Image
10
172.860892
20
187.880115
11
178.276414
21
187.914360
0
LINE
8
Image
10
178.276414
20
187.914360
11
182.304492
21
188.111904
0
LINE
8
Image
10
182.304492
20
188.111904
11
186.981241
21
188.643240
0
LINE
8
Image
10
186.981241
20
188.643240
11
194.342773
21
189.678862
0
LINE
8
Image
10
194.342773
20
189.678862
11
195.892734
21
189.900982
0
LINE
8
Image
10
195.892734
20
189.900982
11
195.650839
21
181.116498
0
LINE
8
Image
10
195.650839
20
181.116498
11
195.242595
21
170.975988
0
LINE
8
Image
10
195.242595
20
170.975988
11
194.585088
21
161.419598
0
LINE
8
Image
10
194.585088
20
161.419598
11
193.664992
21
152.363099
0
LINE
8
Image
10
193.664992
20
152.363099
11
192.468985
21
143.722268
0
LINE
8
Image
10
192.468985
20
143.722268
11
190.983745
21
135.412877
0
LINE
8
Image
10
190.983745
20
135.412877
11
189.195947
21
127.350700
0
LINE
8
Image
10
189.195947
20
127.350700
11
187.092269
21
119.451512
0
LINE
8
Image
10
187.092269
20
119.451512
11
184.659387
21
111.631086
0
LINE
8
Image
10
184.659387
20
111.631086
11
182.080015
21
104.363746
0
LINE
8
Image
10
182.080015
20
104.363746
11
179.240192
21
97.275061
0
LINE
8
Image
10
179.240192
20
97.275061
11
176.129142
21
90.350941
0
LINE
8
Image
10
176.129142
20
90.350941
11
172.736089
21
83.577295
0
LINE
8
Image
10
172.736089
20
83.577295
11
169.050256
21
76.940029
0
LINE
8
Image
10
169.050256
20
76.940029
11
165.060868
21
70.425053
0
LINE
8
Image
10
165.060868
20
70.425053
11
160.757149
21
64.018276
0
LINE
8
Image
10
160.757149
20
64.018276
11
156.128323
21
57.705604
0
LINE
8
Image
10
156.128323
20
57.705604
11
151.163612
21
51.472948
0
LINE
8
Image
10
151.163612
20
51.472948
11
145.852243
21
45.306214
0
LINE
8
Image
10
145.852243
20
45.306214
11
140.183438
21
39.191312
0
LINE
8
Image
10
140.183438
20
39.191312
11
134.146422
21
33.114150
0
LINE
8
Image
10
134.146422
20
33.114150
11
127.730417
21
27.060635
0
LINE
8
Image
10
127.730417
20
27.060635
11
120.924650
21
21.016677
0
LINE
8
Image
10
120.924650
20
21.016677
11
113.718343
21
14.968184
0
LINE
8
Image
10
113.718343
20
14.968184
11
106.100720
21
8.901064
0
LINE
8
Image
10
106.100720
20
8.901064
11
100.456281
21
4.598981
0
LINE
8
Image
10
100.456281
20
4.598981
11
98.739161
21
5.921896
0
LINE
8
Image
10
98.739161
20
5.921896
11
98.739161
21
5.921896
0
LINE
8
Image
10
101.721802
20
7.478258
11
107.949864
21
12.302281
0
LINE
8
Image
10
107.949864
20
12.302281
11
114.847435
21
17.888963
0
LINE
8
Image
10
114.847435
20
17.888963
11
121.386373
21
23.449384
0
LINE
8
Image
10
121.386373
20
23.449384
11
127.576881
21
28.996614
0
LINE
8
Image
10
127.576881
20
28.996614
11
133.429163
21
34.543721
0
LINE
8
Image
10
133.429163
20
34.543721
11
138.953420
21
40.103774
0
LINE
8
Image
10
138.953420
20
40.103774
11
144.159857
21
45.689840
0
LINE
8
Image
10
144.159857
20
45.689840
11
149.058674
21
51.314989
0
LINE
8
Image
10
149.058674
20
51.314989
11
153.660076
21
56.992290
0
LINE
8
Image
10
153.660076
20
56.992290
11
157.974265
21
62.734810
0
LINE
8
Image
10
157.974265
20
62.734810
11
162.011443
21
68.555618
0
LINE
8
Image
10
162.011443
20
68.555618
11
165.781814
21
74.467783
0
LINE
8
Image
10
165.781814
20
74.467783
11
169.295581
21
80.484373
0
LINE
8
Image
10
169.295581
20
80.484373
11
172.562945
21
86.618457
0
LINE
8
Image
10
172.562945
20
86.618457
11
175.594111
21
92.883104
0
LINE
8
Image
10
175.594111
20
92.883104
11
178.399279
21
99.291381
0
LINE
8
Image
10
178.399279
20
99.291381
11
180.988655
21
105.856359
0
LINE
8
Image
10
180.988655
20
105.856359
11
183.959568
21
114.479226
0
LINE
8
Image
10
183.959568
20
114.479226
11
186.566721
21
123.458367
0
LINE
8
Image
10
186.566721
20
123.458367
11
188.800355
21
132.737041
0
LINE
8
Image
10
188.800355
20
132.737041
11
190.650709
21
142.258509
0
LINE
8
Image
10
190.650709
20
142.258509
11
192.108023
21
151.966029
0
LINE
8
Image
10
192.108023
20
151.966029
11
193.162536
21
161.802862
0
LINE
8
Image
10
193.162536
20
161.802862
11
193.804489
21
171.712268
0
LINE
8
Image
10
193.804489
20
171.712268
11
194.024122
21
181.637507
0
LINE
8
Image
10
194.024122
20
181.637507
11
194.027535
21
188.120783
0
LINE
8
Image
10
194.027535
20
188.120783
11
192.528233
21
187.879560
0
LINE
8
Image
10
192.528233
20
187.879560
11
187.462895
21
187.117935
0
LINE
8
Image
10
187.462895
20
187.117935
11
183.318056
21
186.690538
0
LINE
8
Image
10
183.318056
20
186.690538
11
178.773277
21
186.504092
0
LINE
8
Image
10
178.773277
20
186.504092
11
172.508116
21
186.465319
0
LINE
8
Image
10
172.508116
20
186.465319
11
163.110344
21
186.602543
0
LINE
8
Image
10
163.110344
20
186.602543
11
160.357649
21
186.841641
0
LINE
8
Image
10
160.357649
20
186.841641
11
157.691468
21
187.259285
0
LINE
8
Image
10
157.691468
20
187.259285
11
152.269443
21
188.365717
0
LINE
8
Image
10
152.269443
20
188.365717
11
147.140468
21
189.702519
0
LINE
8
Image
10
147.140468
20
189.702519
11
142.252235
21
191.292447
0
LINE
8
Image
10
142.252235
20
191.292447
11
137.552441
21
193.158257
0
LINE
8
Image
10
137.552441
20
193.158257
11
132.988777
21
195.322706
0
LINE
8
Image
10
132.988777
20
195.322706
11
128.508939
21
197.808551
0
LINE
8
Image
10
128.508939
20
197.808551
11
124.060621
21
200.638549
0
LINE
8
Image
10
124.060621
20
200.638549
11
119.591516
21
203.835456
0
LINE
8
Image
10
119.591516
20
203.835456
11
115.779940
21
207.033620
0
LINE
8
Image
10
115.779940
20
207.033620
11
110.923174
21
211.527773
0
LINE
8
Image
10
110.923174
20
211.527773
11
106.092013
21
216.294337
0
LINE
8
Image
10
106.092013
20
216.294337
11
102.357257
21
220.309733
0
LINE
8
Image
10
102.357257
20
220.309733
11
100.541540
21
222.426397
0
LINE
8
Image
10
100.541540
20
222.426397
11
98.718592
21
220.309733
0
LINE
8
Image
10
98.718592
20
220.309733
11
95.817919
21
217.170321
0
LINE
8
Image
10
95.817919
20
217.170321
11
92.011959
21
213.337184
0
LINE
8
Image
10
92.011959
20
213.337184
11
88.134502
21
209.628722
0
LINE
8
Image
10
88.134502
20
209.628722
11
85.019336
21
206.863335
0
LINE
8
Image
10
85.019336
20
206.863335
11
80.045873
21
203.016451
0
LINE
8
Image
10
80.045873
20
203.016451
11
74.976153
21
199.588343
0
LINE
8
Image
10
74.976153
20
199.588343
11
69.783385
21
196.566998
0
LINE
8
Image
10
69.783385
20
196.566998
11
64.440778
21
193.940402
0
LINE
8
Image
10
64.440778
20
193.940402
11
58.921542
21
191.696544
0
LINE
8
Image
10
58.921542
20
191.696544
11
53.198885
21
189.823409
0
LINE
8
Image
10
53.198885
20
189.823409
11
47.246017
21
188.308985
0
LINE
8
Image
10
47.246017
20
188.308985
11
41.036146
21
187.141259
0
LINE
8
Image
10
41.036146
20
187.141259
11
37.487059
21
186.715388
0
LINE
8
Image
10
37.487059
20
186.715388
11
33.437505
21
186.456245
0
LINE
8
Image
10
33.437505
20
186.456245
11
29.042231
21
186.359227
0
LINE
8
Image
10
29.042231
20
186.359227
11
24.455986
21
186.419731
0
LINE
8
Image
10
24.455986
20
186.419731
11
19.833520
21
186.633155
0
LINE
8
Image
10
19.833520
20
186.633155
11
15.329581
21
186.994893
0
LINE
8
Image
10
15.329581
20
186.994893
11
11.098917
21
187.500345
0
LINE
8
Image
10
11.098917
20
187.500345
11
7.296278
21
188.144905
0
LINE
8
Image
10
7.296278
20
188.144905
11
7.168438
21
187.583795
0
LINE
8
Image
10
7.168438
20
187.583795
11
7.085047
21
185.998182
0
LINE
8
Image
10
7.085047
20
185.998182
11
7.045255
21
180.703813
0
LINE
8
Image
10
7.045255
20
180.703813
11
7.164192
21
174.162533
0
LINE
8
Image
10
7.164192
20
174.162533
11
7.429149
21
168.275076
0
LINE
8
Image
10
7.429149
20
168.275076
11
8.390743
21
157.205056
0
LINE
8
Image
10
8.390743
20
157.205056
11
9.750112
21
146.583397
0
LINE
8
Image
10
9.750112
20
146.583397
11
11.516784
21
136.371638
0
LINE
8
Image
10
11.516784
20
136.371638
11
13.700287
21
126.531321
0
LINE
8
Image
10
13.700287
20
126.531321
11
16.310150
21
117.023984
0
LINE
8
Image
10
16.310150
20
117.023984
11
19.355901
21
107.811168
0
LINE
8
Image
10
19.355901
20
107.811168
11
22.847068
21
98.854413
0
LINE
8
Image
10
22.847068
20
98.854413
11
26.793180
21
90.115260
0
LINE
8
Image
10
26.793180
20
90.115260
11
29.216725
21
85.277355
0
LINE
8
Image
10
29.216725
20
85.277355
11
31.769465
21
80.530393
0
LINE
8
Image
10
31.769465
20
80.530393
11
34.458132
21
75.866129
0
LINE
8
Image
10
34.458132
20
75.866129
11
37.289458
21
71.276315
0
LINE
8
Image
10
37.289458
20
71.276315
11
40.270173
21
66.752707
0
LINE
8
Image
10
40.270173
20
66.752707
11
43.407009
21
62.287058
0
LINE
8
Image
10
43.407009
20
62.287058
11
46.706698
21
57.871122
0
LINE
8
Image
10
46.706698
20
57.871122
11
50.175971
21
53.496654
0
LINE
8
Image
10
50.175971
20
53.496654
11
53.821559
21
49.155407
0
LINE
8
Image
10
53.821559
20
49.155407
11
57.650194
21
44.839134
0
LINE
8
Image
10
57.650194
20
44.839134
11
65.883531
21
36.248532
0
LINE
8
Image
10
65.883531
20
36.248532
11
74.929832
21
27.658878
0
LINE
8
Image
10
74.929832
20
27.658878
11
84.842950
21
19.004205
0
LINE
8
Image
10
84.842950
20
19.004205
11
93.950490
21
11.676755
0
LINE
8
Image
10
93.950490
20
11.676755
11
100.440252
21
6.703056
0
LINE
8
Image
10
100.440252
20
6.703056
11
101.721802
21
7.478258
0
LINE
8
Image
10
101.721802
20
7.478258
11
101.721802
21
7.478258
0
LINE
8
Image
10
95.249880
20
23.163519
11
85.619398
21
31.702112
0
LINE
8
Image
10
85.619398
20
31.702112
11
76.689796
21
40.216884
0
LINE
8
Image
10
76.689796
20
40.216884
11
68.448157
21
48.723050
0
LINE
8
Image
10
68.448157
20
48.723050
11
60.881562
21
57.235830
0
LINE
8
Image
10
60.881562
20
57.235830
11
53.977093
21
65.770441
0
LINE
8
Image
10
53.977093
20
65.770441
11
47.721834
21
74.342101
0
LINE
8
Image
10
47.721834
20
74.342101
11
42.102865
21
82.966028
0
LINE
8
Image
10
42.102865
20
82.966028
11
37.107268
21
91.657440
0
LINE
8
Image
10
37.107268
20
91.657440
11
34.155025
21
97.494089
0
LINE
8
Image
10
34.155025
20
97.494089
11
31.147159
21
103.937937
0
LINE
8
Image
10
31.147159
20
103.937937
11
28.809882
21
109.374820
0
LINE
8
Image
10
28.809882
20
109.374820
11
28.119656
21
111.211222
0
LINE
8
Image
10
28.119656
20
111.211222
11
27.869408
21
112.190571
0
LINE
8
Image
10
27.869408
20
112.190571
11
28.223441
21
112.332930
0
LINE
8
Image
10
28.223441
20
112.332930
11
29.228669
21
112.441943
0
LINE
8
Image
10
29.228669
20
112.441943
11
32.851488
21
112.536256
0
LINE
8
Image
10
32.851488
20
112.536256
11
36.824379
21
112.446624
0
LINE
8
Image
10
36.824379
20
112.446624
11
37.443516
21
112.301067
0
LINE
8
Image
10
37.443516
20
112.301067
11
37.437108
21
112.058554
0
LINE
8
Image
10
37.437108
20
112.058554
11
37.314728
21
111.779461
0
LINE
8
Image
10
37.314728
20
111.779461
11
37.444682
21
111.473925
0
LINE
8
Image
10
37.444682
20
111.473925
11
38.626250
21
110.578602
0
LINE
8
Image
10
38.626250
20
110.578602
11
39.478867
21
109.940865
0
LINE
8
Image
10
39.478867
20
109.940865
11
40.286038
21
109.097934
0
LINE
8
Image
10
40.286038
20
109.097934
11
42.144151
21
106.338331
0
LINE
8
Image
10
42.144151
20
106.338331
11
43.939827
21
103.494202
0
LINE
8
Image
10
43.939827
20
103.494202
11
45.863341
21
100.757696
0
LINE
8
Image
10
45.863341
20
100.757696
11
47.893707
21
98.151897
0
LINE
8
Image
10
47.893707
20
98.151897
11
50.009939
21
95.699890
0
LINE
8
Image
10
50.009939
20
95.699890
11
52.191051
21
93.424759
0
LINE
8
Image
10
52.191051
20
93.424759
11
54.416059
21
91.349590
0
LINE
8
Image
10
54.416059
20
91.349590
11
56.663976
21
89.497466
0
LINE
8
Image
10
56.663976
20
89.497466
11
58.913816
21
87.891472
0
LINE
8
Image
10
58.913816
20
87.891472
11
62.265198
21
85.688040
0
LINE
8
Image
10
62.265198
20
85.688040
11
62.703038
21
86.754784
0
LINE
8
Image
10
62.703038
20
86.754784
11
63.628436
21
90.878768
0
LINE
8
Image
10
63.628436
20
90.878768
11
64.027851
21
93.267295
0
LINE
8
Image
10
64.027851
20
93.267295
11
64.110713
21
94.386122
0
LINE
8
Image
10
64.110713
20
94.386122
11
62.441588
21
95.435815
0
LINE
8
Image
10
62.441588
20
95.435815
11
60.399961
21
96.868605
0
LINE
8
Image
10
60.399961
20
96.868605
11
58.423369
21
98.569143
0
LINE
8
Image
10
58.423369
20
98.569143
11
56.557713
21
100.477462
0
LINE
8
Image
10
56.557713
20
100.477462
11
54.848892
21
102.533597
0
LINE
8
Image
10
54.848892
20
102.533597
11
53.342806
21
104.677579
0
LINE
8
Image
10
53.342806
20
104.677579
11
52.085357
21
106.849444
0
LINE
8
Image
10
52.085357
20
106.849444
11
51.122444
21
108.989225
0
LINE
8
Image
10
51.122444
20
108.989225
11
50.499968
21
111.036955
0
LINE
8
Image
10
50.499968
20
111.036955
11
50.169379
21
112.536256
0
LINE
8
Image
10
50.169379
20
112.536256
11
58.287899
21
112.536256
0
LINE
8
Image
10
58.287899
20
112.536256
11
66.406417
21
112.536256
0
LINE
8
Image
10
66.406417
20
112.536256
11
66.172867
21
108.743901
0
LINE
8
Image
10
66.172867
20
108.743901
11
65.277924
21
97.434953
0
LINE
8
Image
10
65.277924
20
97.434953
11
64.094746
21
88.337692
0
LINE
8
Image
10
64.094746
20
88.337692
11
63.374603
21
84.495228
0
LINE
8
Image
10
63.374603
20
84.495228
11
62.557844
21
81.057825
0
LINE
8
Image
10
62.557844
20
81.057825
11
61.636282
21
77.976197
0
LINE
8
Image
10
61.636282
20
77.976197
11
60.601731
21
75.201058
0
LINE
8
Image
10
60.601731
20
75.201058
11
59.529386
21
72.614423
0
LINE
8
Image
10
59.529386
20
72.614423
11
61.058938
21
71.055923
0
LINE
8
Image
10
61.058938
20
71.055923
11
62.588490
21
69.497424
0
LINE
8
Image
10
62.588490
20
69.497424
11
65.810076
21
69.497424
0
LINE
8
Image
10
65.810076
20
69.497424
11
67.597175
21
69.464826
0
LINE
8
Image
10
67.597175
20
69.464826
11
68.858090
21
69.320470
0
LINE
8
Image
10
68.858090
20
69.320470
11
69.940870
21
68.994512
0
LINE
8
Image
10
69.940870
20
68.994512
11
71.193565
21
68.417107
0
LINE
8
Image
10
71.193565
20
68.417107
11
73.347890
21
67.026465
0
LINE
8
Image
10
73.347890
20
67.026465
11
75.486956
21
65.010646
0
LINE
8
Image
10
75.486956
20
65.010646
11
77.025492
21
63.409889
0
LINE
8
Image
10
77.025492
20
63.409889
11
77.731363
21
62.827770
0
LINE
8
Image
10
77.731363
20
62.827770
11
79.169737
21
65.376816
0
LINE
8
Image
10
79.169737
20
65.376816
11
80.495195
21
67.782590
0
LINE
8
Image
10
80.495195
20
67.782590
11
79.513737
21
69.198831
0
LINE
8
Image
10
79.513737
20
69.198831
11
78.323893
21
70.554070
0
LINE
8
Image
10
78.323893
20
70.554070
11
76.668601
21
71.920209
0
LINE
8
Image
10
76.668601
20
71.920209
11
74.679054
21
73.201938
0
LINE
8
Image
10
74.679054
20
73.201938
11
72.486447
21
74.303949
0
LINE
8
Image
10
72.486447
20
74.303949
11
70.873542
21
75.113412
0
LINE
8
Image
10
70.873542
20
75.113412
11
70.202688
21
75.662456
0
LINE
8
Image
10
70.202688
20
75.662456
11
70.887879
21
78.422036
0
LINE
8
Image
10
70.887879
20
78.422036
11
72.093560
21
83.262369
0
LINE
8
Image
10
72.093560
20
83.262369
11
73.195786
21
89.026962
0
LINE
8
Image
10
73.195786
20
89.026962
11
74.217665
21
95.852781
0
LINE
8
Image
10
74.217665
20
95.852781
11
75.182305
21
103.876794
0
LINE
8
Image
10
75.182305
20
103.876794
11
75.972471
21
111.135038
0
LINE
8
Image
10
75.972471
20
111.135038
11
77.761880
21
111.702135
0
LINE
8
Image
10
77.761880
20
111.702135
11
79.984212
21
112.154228
0
LINE
8
Image
10
79.984212
20
112.154228
11
82.814479
21
112.444825
0
LINE
8
Image
10
82.814479
20
112.444825
11
86.077668
21
112.620415
0
LINE
8
Image
10
86.077668
20
112.620415
11
86.064254
21
111.255421
0
LINE
8
Image
10
86.064254
20
111.255421
11
85.567055
21
100.189052
0
LINE
8
Image
10
85.567055
20
100.189052
11
85.236694
21
90.331692
0
LINE
8
Image
10
85.236694
20
90.331692
11
86.683977
21
90.087648
0
LINE
8
Image
10
86.683977
20
90.087648
11
89.648537
21
89.832666
0
LINE
8
Image
10
89.648537
20
89.832666
11
92.667740
21
89.669063
0
LINE
8
Image
10
92.667740
20
89.669063
11
94.278956
21
89.699156
0
LINE
8
Image
10
94.278956
20
89.699156
11
94.563077
21
90.169459
0
LINE
8
Image
10
94.563077
20
90.169459
11
94.759863
21
91.657708
0
LINE
8
Image
10
94.759863
20
91.657708
11
95.047307
21
99.721330
0
LINE
8
Image
10
95.047307
20
99.721330
11
95.427614
21
110.772372
0
LINE
8
Image
10
95.427614
20
110.772372
11
95.589343
21
112.271673
0
LINE
8
Image
10
95.589343
20
112.271673
11
96.522820
21
112.458535
0
LINE
8
Image
10
96.522820
20
112.458535
11
98.748429
21
112.536256
0
LINE
8
Image
10
98.748429
20
112.536256
11
101.894191
21
112.536256
0
LINE
8
Image
10
101.894191
20
112.536256
11
102.274106
21
110.764778
0
LINE
8
Image
10
102.274106
20
110.764778
11
102.823749
21
108.890113
0
LINE
8
Image
10
102.823749
20
108.890113
11
103.630652
21
107.137634
0
LINE
8
Image
10
103.630652
20
107.137634
11
104.666065
21
105.559320
0
LINE
8
Image
10
104.666065
20
105.559320
11
105.901238
21
104.207149
0
LINE
8
Image
10
105.901238
20
104.207149
11
107.290545
21
103.119838
0
LINE
8
Image
10
107.290545
20
103.119838
11
108.979918
21
102.081557
0
LINE
8
Image
10
108.979918
20
102.081557
11
110.722491
21
101.228363
0
LINE
8
Image
10
110.722491
20
101.228363
11
112.271393
21
100.696315
0
LINE
8
Image
10
112.271393
20
100.696315
11
113.069891
21
100.644422
0
LINE
8
Image
10
113.069891
20
100.644422
11
113.207484
21
100.848659
0
LINE
8
Image
10
113.207484
20
100.848659
11
113.241532
21
101.246561
0
LINE
8
Image
10
113.241532
20
101.246561
11
112.982033
21
102.002420
0
LINE
8
Image
10
112.982033
20
102.002420
11
112.358132
21
102.722667
0
LINE
8
Image
10
112.358132
20
102.722667
11
111.586098
21
103.458648
0
LINE
8
Image
10
111.586098
20
103.458648
11
110.813251
21
104.426834
0
LINE
8
Image
10
110.813251
20
104.426834
11
109.393030
21
106.804171
0
LINE
8
Image
10
109.393030
20
106.804171
11
108.353293
21
109.343377
0
LINE
8
Image
10
108.353293
20
109.343377
11
108.056051
21
110.513900
0
LINE
8
Image
10
108.056051
20
110.513900
11
107.949864
21
111.533154
0
LINE
8
Image
10
107.949864
20
111.533154
11
107.986677
21
112.109132
0
LINE
8
Image
10
107.986677
20
112.109132
11
108.229187
21
112.407366
0
LINE
8
Image
10
108.229187
20
112.407366
11
108.875502
21
112.519270
0
LINE
8
Image
10
108.875502
20
112.519270
11
110.123728
21
112.536256
0
LINE
8
Image
10
110.123728
20
112.536256
11
111.918345
21
112.351728
0
LINE
8
Image
10
111.918345
20
112.351728
11
113.538376
21
111.801663
0
LINE
8
Image
10
113.538376
20
111.801663
11
114.972772
21
110.891344
0
LINE
8
Image
10
114.972772
20
110.891344
11
116.210487
21
109.626052
0
LINE
8
Image
10
116.210487
20
109.626052
11
117.114252
21
108.479318
0
LINE
8
Image
10
117.114252
20
108.479318
11
117.118168
21
110.507789
0
LINE
8
Image
10
117.118168
20
110.507789
11
117.122083
21
112.536256
0
LINE
8
Image
10
117.122083
20
112.536256
11
145.344268
21
112.536256
0
LINE
8
Image
10
145.344268
20
112.536256
11
165.276574
21
112.458535
0
LINE
8
Image
10
165.276574
20
112.458535
11
173.567768
21
112.271673
0
LINE
8
Image
10
173.567768
20
112.271673
11
172.857617
21
110.125151
0
LINE
8
Image
10
172.857617
20
110.125151
11
171.054132
21
105.841729
0
LINE
8
Image
10
171.054132
20
105.841729
11
168.658181
21
100.562000
0
LINE
8
Image
10
168.658181
20
100.562000
11
166.170633
21
95.426558
0
LINE
8
Image
10
166.170633
20
95.426558
11
163.709286
21
90.731418
0
LINE
8
Image
10
163.709286
20
90.731418
11
161.094037
21
86.085880
0
LINE
8
Image
10
161.094037
20
86.085880
11
158.320274
21
81.484426
0
LINE
8
Image
10
158.320274
20
81.484426
11
155.383382
21
76.921539
0
LINE
8
Image
10
155.383382
20
76.921539
11
152.278748
21
72.391704
0
LINE
8
Image
10
152.278748
20
72.391704
11
149.001757
21
67.889402
0
LINE
8
Image
10
149.001757
20
67.889402
11
145.547796
21
63.409118
0
LINE
8
Image
10
145.547796
20
63.409118
11
141.912251
21
58.945334
0
LINE
8
Image
10
141.912251
20
58.945334
11
134.077952
21
50.045200
0
LINE
8
Image
10
134.077952
20
50.045200
11
125.461949
21
41.144865
0
LINE
8
Image
10
125.461949
20
41.144865
11
116.027331
21
32.200195
0
LINE
8
Image
10
116.027331
20
32.200195
11
105.737185
21
23.167056
0
LINE
8
Image
10
105.737185
20
23.167056
11
102.178622
21
20.264366
0
LINE
8
Image
10
102.178622
20
20.264366
11
100.445525
21
19.066583
0
LINE
8
Image
10
100.445525
20
19.066583
11
98.740629
21
20.276790
0
LINE
8
Image
10
98.740629
20
20.276790
11
95.249880
21
23.163519
0
LINE
8
Image
10
95.249880
20
23.163519
11
95.249880
21
23.163519
0
LINE
8
Image
10
89.661154
20
50.620752
11
89.309161
21
51.236288
0
LINE
8
Image
10
89.309161
20
51.236288
11
88.219513
21
52.472833
0
LINE
8
Image
10
88.219513
20
52.472833
11
86.771958
21
54.306146
0
LINE
8
Image
10
86.771958
20
54.306146
11
85.559461
21
56.356467
0
LINE
8
Image
10
85.559461
20
56.356467
11
84.714175
21
57.910844
0
LINE
8
Image
10
84.714175
20
57.910844
11
84.149485
21
58.551781
0
LINE
8
Image
10
84.149485
20
58.551781
11
83.493141
21
58.174533
0
LINE
8
Image
10
83.493141
20
58.174533
11
82.427489
21
57.280957
0
LINE
8
Image
10
82.427489
20
57.280957
11
81.070361
21
56.019682
0
LINE
8
Image
10
81.070361
20
56.019682
11
82.251100
21
54.759116
0
LINE
8
Image
10
82.251100
20
54.759116
11
84.158692
21
52.871917
0
LINE
8
Image
10
84.158692
20
52.871917
11
85.834538
21
51.536385
0
LINE
8
Image
10
85.834538
20
51.536385
11
87.300018
21
50.737997
0
LINE
8
Image
10
87.300018
20
50.737997
11
88.576509
21
50.462232
0
LINE
8
Image
10
88.576509
20
50.462232
11
89.661154
21
50.620752
0
LINE
8
Image
10
89.661154
20
50.620752
11
89.661154
21
50.620752
0
LINE
8
Image
10
118.300200
20
53.975220
11
119.350751
21
54.098892
0
LINE
8
Image
10
119.350751
20
54.098892
11
119.368866
21
54.268753
0
LINE
8
Image
10
119.368866
20
54.268753
11
119.024985
21
54.524205
0
LINE
8
Image
10
119.024985
20
54.524205
11
117.179569
21
55.332604
0
LINE
8
Image
10
117.179569
20
55.332604
11
113.671167
21
56.605537
0
LINE
8
Image
10
113.671167
20
56.605537
11
108.428873
21
58.636245
0
LINE
8
Image
10
108.428873
20
58.636245
11
106.355650
21
59.631422
0
LINE
8
Image
10
106.355650
20
59.631422
11
104.582536
21
60.654810
0
LINE
8
Image
10
104.582536
20
60.654810
11
103.060647
21
61.737654
0
LINE
8
Image
10
103.060647
20
61.737654
11
101.741102
21
62.911202
0
LINE
8
Image
10
101.741102
20
62.911202
11
100.575020
21
64.206698
0
LINE
8
Image
10
100.575020
20
64.206698
11
99.513519
21
65.655390
0
LINE
8
Image
10
99.513519
20
65.655390
11
98.302370
21
67.838525
0
LINE
8
Image
10
98.302370
20
67.838525
11
97.277341
21
70.447706
0
LINE
8
Image
10
97.277341
20
70.447706
11
96.471830
21
73.381802
0
LINE
8
Image
10
96.471830
20
73.381802
11
95.919233
21
76.539681
0
LINE
8
Image
10
95.919233
20
76.539681
11
95.510351
21
79.727964
0
LINE
8
Image
10
95.510351
20
79.727964
11
92.998869
21
79.730081
0
LINE
8
Image
10
92.998869
20
79.730081
11
87.646595
21
79.953387
0
LINE
8
Image
10
87.646595
20
79.953387
11
84.805807
21
80.174581
0
LINE
8
Image
10
84.805807
20
80.174581
11
84.379329
21
77.860006
0
LINE
8
Image
10
84.379329
20
77.860006
11
83.296505
21
73.290698
0
LINE
8
Image
10
83.296505
20
73.290698
11
81.810581
21
68.884697
0
LINE
8
Image
10
81.810581
20
68.884697
11
80.059670
21
64.995939
0
LINE
8
Image
10
80.059670
20
64.995939
11
79.128007
21
63.356132
0
LINE
8
Image
10
79.128007
20
63.356132
11
78.181890
21
61.978361
0
LINE
8
Image
10
78.181890
20
61.978361
11
76.875702
21
60.280122
0
LINE
8
Image
10
76.875702
20
60.280122
11
78.501281
21
58.002078
0
LINE
8
Image
10
78.501281
20
58.002078
11
80.126861
21
55.724032
0
LINE
8
Image
10
80.126861
20
55.724032
11
82.120787
21
57.501191
0
LINE
8
Image
10
82.120787
20
57.501191
11
83.694917
21
58.812345
0
LINE
8
Image
10
83.694917
20
58.812345
11
85.130048
21
59.766709
0
LINE
8
Image
10
85.130048
20
59.766709
11
86.514702
21
60.369360
0
LINE
8
Image
10
86.514702
20
60.369360
11
87.937400
21
60.625375
0
LINE
8
Image
10
87.937400
20
60.625375
11
89.486662
21
60.539834
0
LINE
8
Image
10
89.486662
20
60.539834
11
91.251010
21
60.117813
0
LINE
8
Image
10
91.251010
20
60.117813
11
93.318964
21
59.364390
0
LINE
8
Image
10
93.318964
20
59.364390
11
95.779046
21
58.284642
0
LINE
8
Image
10
95.779046
20
58.284642
11
99.691566
21
56.581254
0
LINE
8
Image
10
99.691566
20
56.581254
11
102.658204
21
55.462251
0
LINE
8
Image
10
102.658204
20
55.462251
11
105.756569
21
54.694857
0
LINE
8
Image
10
105.756569
20
54.694857
11
109.203878
21
54.130685
0
LINE
8
Image
10
109.203878
20
54.130685
11
112.543607
21
53.828042
0
LINE
8
Image
10
112.543607
20
53.828042
11
115.319231
21
53.845233
0
LINE
8
Image
10
115.319231
20
53.845233
11
118.300200
21
53.975220
0
LINE
8
Image
10
118.300200
20
53.975220
11
118.300200
21
53.975220
0
LINE
8
Image
10
103.716536
20
81.301220
11
107.168406
21
81.962232
0
LINE
8
Image
10
107.168406
20
81.962232
11
110.635062
21
82.806420
0
LINE
8
Image
10
110.635062
20
82.806420
11
120.147783
21
85.727175
0
LINE
8
Image
10
120.147783
20
85.727175
11
126.245261
21
87.619740
0
LINE
8
Image
10
126.245261
20
87.619740
11
130.952469
21
88.810096
0
LINE
8
Image
10
130.952469
20
88.810096
11
134.894614
21
89.429027
0
LINE
8
Image
10
134.894614
20
89.429027
11
138.696906
21
89.607314
0
LINE
8
Image
10
138.696906
20
89.607314
11
142.698430
21
89.608901
0
LINE
8
Image
10
142.698430
20
89.608901
11
142.761687
21
90.844057
0
LINE
8
Image
10
142.761687
20
90.844057
11
142.922383
21
91.854650
0
LINE
8
Image
10
142.922383
20
91.854650
11
143.288084
21
93.002179
0
LINE
8
Image
10
143.288084
20
93.002179
11
144.503819
21
95.486343
0
LINE
8
Image
10
144.503819
20
95.486343
11
146.147528
21
97.853154
0
LINE
8
Image
10
146.147528
20
97.853154
11
147.048197
21
98.853991
0
LINE
8
Image
10
147.048197
20
98.853991
11
147.957848
21
99.659216
0
LINE
8
Image
10
147.957848
20
99.659216
11
148.905931
21
100.290935
0
LINE
8
Image
10
148.905931
20
100.290935
11
149.844999
21
100.731252
0
LINE
8
Image
10
149.844999
20
100.731252
11
150.778197
21
100.980035
0
LINE
8
Image
10
150.778197
20
100.980035
11
151.708671
21
101.037154
0
LINE
8
Image
10
151.708671
20
101.037154
11
152.639565
21
100.902478
0
LINE
8
Image
10
152.639565
20
100.902478
11
153.574025
21
100.575876
0
LINE
8
Image
10
153.574025
20
100.575876
11
154.515197
21
100.057216
0
LINE
8
Image
10
154.515197
20
100.057216
11
155.466224
21
99.346368
0
LINE
8
Image
10
155.466224
20
99.346368
11
156.765648
21
98.574370
0
LINE
8
Image
10
156.765648
20
98.574370
11
158.432359
21
98.178837
0
LINE
8
Image
10
158.432359
20
98.178837
11
159.999895
21
98.098608
0
LINE
8
Image
10
159.999895
20
98.098608
11
160.124806
21
98.326844
0
LINE
8
Image
10
160.124806
20
98.326844
11
160.000195
21
98.810405
0
LINE
8
Image
10
160.000195
20
98.810405
11
159.565805
21
100.945494
0
LINE
8
Image
10
159.565805
20
100.945494
11
159.590261
21
101.872277
0
LINE
8
Image
10
159.590261
20
101.872277
11
159.780074
21
102.717794
0
LINE
8
Image
10
159.780074
20
102.717794
11
160.138437
21
103.491475
0
LINE
8
Image
10
160.138437
20
103.491475
11
160.668543
21
104.202750
0
LINE
8
Image
10
160.668543
20
104.202750
11
162.256752
21
105.475804
0
LINE
8
Image
10
162.256752
20
105.475804
11
163.268054
21
106.165068
0
LINE
8
Image
10
163.268054
20
106.165068
11
163.688684
21
106.590661
0
LINE
8
Image
10
163.688684
20
106.590661
11
162.781935
21
106.830800
0
LINE
8
Image
10
162.781935
20
106.830800
11
160.601881
21
107.074179
0
LINE
8
Image
10
160.601881
20
107.074179
11
157.631835
21
107.366273
0
LINE
8
Image
10
157.631835
20
107.366273
11
155.385955
21
107.743112
0
LINE
8
Image
10
155.385955
20
107.743112
11
153.539145
21
108.277042
0
LINE
8
Image
10
153.539145
20
108.277042
11
151.766306
21
109.040406
0
LINE
8
Image
10
151.766306
20
109.040406
11
149.545309
21
110.126927
0
LINE
8
Image
10
149.545309
20
110.126927
11
148.062144
21
108.767563
0
LINE
8
Image
10
148.062144
20
108.767563
11
144.562126
21
105.831228
0
LINE
8
Image
10
144.562126
20
105.831228
11
140.640543
21
103.030132
0
LINE
8
Image
10
140.640543
20
103.030132
11
136.373785
21
100.402088
0
LINE
8
Image
10
136.373785
20
100.402088
11
131.838240
21
97.984910
0
LINE
8
Image
10
131.838240
20
97.984910
11
127.110297
21
95.816414
0
LINE
8
Image
10
127.110297
20
95.816414
11
122.266345
21
93.934414
0
LINE
8
Image
10
122.266345
20
93.934414
11
117.382773
21
92.376724
0
LINE
8
Image
10
117.382773
20
92.376724
11
112.535968
21
91.181159
0
LINE
8
Image
10
112.535968
20
91.181159
11
108.336534
21
90.417243
0
LINE
8
Image
10
108.336534
20
90.417243
11
104.038794
21
89.852855
0
LINE
8
Image
10
104.038794
20
89.852855
11
99.674738
21
89.488455
0
LINE
8
Image
10
99.674738
20
89.488455
11
95.276360
21
89.324506
0
LINE
8
Image
10
95.276360
20
89.324506
11
90.875652
21
89.361469
0
LINE
8
Image
10
90.875652
20
89.361469
11
86.504607
21
89.599806
0
LINE
8
Image
10
86.504607
20
89.599806
11
82.195217
21
90.039978
0
LINE
8
Image
10
82.195217
20
90.039978
11
77.979473
21
90.682447
0
LINE
8
Image
10
77.979473
20
90.682447
11
74.226848
21
91.267715
0
LINE
8
Image
10
74.226848
20
91.267715
11
73.938011
21
89.798204
0
LINE
8
Image
10
73.938011
20
89.798204
11
73.577229
21
86.850753
0
LINE
8
Image
10
73.577229
20
86.850753
11
73.305727
21
83.923366
0
LINE
8
Image
10
73.305727
20
83.923366
11
73.284729
21
82.514047
0
LINE
8
Image
10
73.284729
20
82.514047
11
77.828059
21
81.608192
0
LINE
8
Image
10
77.828059
20
81.608192
11
84.490170
21
80.649930
0
LINE
8
Image
10
84.490170
20
80.649930
11
88.423107
21
80.533905
0
LINE
8
Image
10
88.423107
20
80.533905
11
94.123014
21
80.643905
0
LINE
8
Image
10
94.123014
20
80.643905
11
99.813092
21
80.919743
0
LINE
8
Image
10
99.813092
20
80.919743
11
103.716536
21
81.301228
0
LINE
8
Image
10
103.716536
20
81.301228
11
103.716536
21
81.301220
0
LINE
8
Image
10
24.754258
20
121.091664
11
23.159073
21
126.669590
0
LINE
8
Image
10
23.159073
20
126.669590
11
21.735737
21
132.444191
0
LINE
8
Image
10
21.735737
20
132.444191
11
20.488682
21
138.387519
0
LINE
8
Image
10
20.488682
20
138.387519
11
19.422340
21
144.471625
0
LINE
8
Image
10
19.422340
20
144.471625
11
18.541143
21
150.668561
0
LINE
8
Image
10
18.541143
20
150.668561
11
17.849523
21
156.950376
0
LINE
8
Image
10
17.849523
20
156.950376
11
17.351912
21
163.289124
0
LINE
8
Image
10
17.351912
20
163.289124
11
17.052743
21
169.656855
0
LINE
8
Image
10
17.052743
20
169.656855
11
16.823759
21
177.009511
0
LINE
8
Image
10
16.823759
20
177.009511
11
17.848673
21
176.884435
0
LINE
8
Image
10
17.848673
20
176.884435
11
21.962010
21
176.877935
0
LINE
8
Image
10
21.962010
20
176.877935
11
29.486151
21
177.137942
0
LINE
8
Image
10
29.486151
20
177.137942
11
37.613176
21
177.544816
0
LINE
8
Image
10
37.613176
20
177.544816
11
43.535167
21
177.978912
0
LINE
8
Image
10
43.535167
20
177.978912
11
49.259983
21
178.700534
0
LINE
8
Image
10
49.259983
20
178.700534
11
54.641728
21
179.629658
0
LINE
8
Image
10
54.641728
20
179.629658
11
59.699007
21
180.772239
0
LINE
8
Image
10
59.699007
20
180.772239
11
64.450423
21
182.134230
0
LINE
8
Image
10
64.450423
20
182.134230
11
68.914579
21
183.721585
0
LINE
8
Image
10
68.914579
20
183.721585
11
73.110080
21
185.540259
0
LINE
8
Image
10
73.110080
20
185.540259
11
77.055529
21
187.596204
0
LINE
8
Image
10
77.055529
20
187.596204
11
80.769530
21
189.895375
0
LINE
8
Image
10
80.769530
20
189.895375
11
84.044818
21
192.208773
0
LINE
8
Image
10
84.044818
20
192.208773
11
87.079706
21
194.648528
0
LINE
8
Image
10
87.079706
20
194.648528
11
90.389944
21
197.657528
0
LINE
8
Image
10
90.389944
20
197.657528
11
94.491281
21
201.678664
0
LINE
8
Image
10
94.491281
20
201.678664
11
100.611842
21
207.807128
0
LINE
8
Image
10
100.611842
20
207.807128
11
105.255742
21
203.298722
0
LINE
8
Image
10
105.255742
20
203.298722
11
109.025951
21
199.747500
0
LINE
8
Image
10
109.025951
20
199.747500
11
112.705989
21
196.517643
0
LINE
8
Image
10
112.705989
20
196.517643
11
116.335363
21
193.594581
0
LINE
8
Image
10
116.335363
20
193.594581
11
119.953580
21
190.963746
0
LINE
8
Image
10
119.953580
20
190.963746
11
123.600147
21
188.610568
0
LINE
8
Image
10
123.600147
20
188.610568
11
127.314570
21
186.520477
0
LINE
8
Image
10
127.314570
20
186.520477
11
131.136357
21
184.678904
0
LINE
8
Image
10
131.136357
20
184.678904
11
135.105015
21
183.071280
0
LINE
8
Image
10
135.105015
20
183.071280
11
139.260050
21
181.683035
0
LINE
8
Image
10
139.260050
20
181.683035
11
143.640968
21
180.499599
0
LINE
8
Image
10
143.640968
20
180.499599
11
148.287278
21
179.506404
0
LINE
8
Image
10
148.287278
20
179.506404
11
153.238486
21
178.688880
0
LINE
8
Image
10
153.238486
20
178.688880
11
158.534098
21
178.032458
0
LINE
8
Image
10
158.534098
20
178.032458
11
164.213621
21
177.522568
0
LINE
8
Image
10
164.213621
20
177.522568
11
176.882430
21
176.884107
0
LINE
8
Image
10
176.882430
20
176.884107
11
184.255350
21
176.660344
0
LINE
8
Image
10
184.255350
20
176.660344
11
184.010103
21
169.767740
0
LINE
8
Image
10
184.010103
20
169.767740
11
183.704977
21
163.294725
0
LINE
8
Image
10
183.704977
20
163.294725
11
183.256960
21
157.104353
0
LINE
8
Image
10
183.256960
20
157.104353
11
182.659462
21
151.151740
0
LINE
8
Image
10
182.659462
20
151.151740
11
181.905892
21
145.392003
0
LINE
8
Image
10
181.905892
20
145.392003
11
180.989660
21
139.780260
0
LINE
8
Image
10
180.989660
20
139.780260
11
179.904174
21
134.271627
0
LINE
8
Image
10
179.904174
20
134.271627
11
178.642844
21
128.821221
0
LINE
8
Image
10
178.642844
20
128.821221
11
177.199080
21
123.384159
0
LINE
8
Image
10
177.199080
20
123.384159
11
175.531011
21
117.475140
0
LINE
8
Image
10
175.531011
20
117.475140
11
146.326543
21
117.475140
0
LINE
8
Image
10
146.326543
20
117.475140
11
117.122076
21
117.475140
0
LINE
8
Image
10
117.122076
20
117.475140
11
117.122076
21
119.062638
0
LINE
8
Image
10
117.122076
20
119.062638
11
117.122076
21
120.650136
0
LINE
8
Image
10
117.122076
20
120.650136
11
115.446381
21
120.647067
0
LINE
8
Image
10
115.446381
20
120.647067
11
111.951801
21
120.425471
0
LINE
8
Image
10
111.951801
20
120.425471
11
110.937560
21
120.270905
0
LINE
8
Image
10
110.937560
20
120.270905
11
110.314379
21
120.033858
0
LINE
8
Image
10
110.314379
20
120.033858
11
109.901203
21
119.596509
0
LINE
8
Image
10
109.901203
20
119.596509
11
109.516976
21
118.841039
0
LINE
8
Image
10
109.516976
20
118.841039
11
109.022661
21
117.949343
0
LINE
8
Image
10
109.022661
20
117.949343
11
108.608416
21
117.511626
0
LINE
8
Image
10
108.608416
20
117.511626
11
108.468883
21
117.484163
0
LINE
8
Image
10
108.468883
20
117.484163
11
108.394444
21
117.595578
0
LINE
8
Image
10
108.394444
20
117.595578
11
108.500945
21
118.268886
0
LINE
8
Image
10
108.500945
20
118.268886
11
109.135145
21
119.852189
0
LINE
8
Image
10
109.135145
20
119.852189
11
110.053819
21
121.489902
0
LINE
8
Image
10
110.053819
20
121.489902
11
111.198647
21
123.090502
0
LINE
8
Image
10
111.198647
20
123.090502
11
112.511309
21
124.562467
0
LINE
8
Image
10
112.511309
20
124.562467
11
114.521230
21
126.572387
0
LINE
8
Image
10
114.521230
20
126.572387
11
113.007064
21
129.585715
0
LINE
8
Image
10
113.007064
20
129.585715
11
112.113578
21
131.314467
0
LINE
8
Image
10
112.113578
20
131.314467
11
111.490950
21
132.236791
0
LINE
8
Image
10
111.490950
20
132.236791
11
110.865550
21
132.644236
0
LINE
8
Image
10
110.865550
20
132.644236
11
109.963751
21
132.828352
0
LINE
8
Image
10
109.963751
20
132.828352
11
107.952855
21
132.835740
0
LINE
8
Image
10
107.952855
20
132.835740
11
105.193467
21
132.498335
0
LINE
8
Image
10
105.193467
20
132.498335
11
102.591936
21
132.119072
0
LINE
8
Image
10
102.591936
20
132.119072
11
100.459270
21
131.964647
0
LINE
8
Image
10
100.459270
20
131.964647
11
98.750133
21
132.034056
0
LINE
8
Image
10
98.750133
20
132.034056
11
97.419185
21
132.326295
0
LINE
8
Image
10
97.419185
20
132.326295
11
96.973811
21
132.478947
0
LINE
8
Image
10
96.973811
20
132.478947
11
96.652215
21
132.693398
0
LINE
8
Image
10
96.652215
20
132.693398
11
96.448895
21
133.136811
0
LINE
8
Image
10
96.448895
20
133.136811
11
96.358345
21
133.976348
0
LINE
8
Image
10
96.358345
20
133.976348
11
96.493540
21
137.512446
0
LINE
8
Image
10
96.493540
20
137.512446
11
97.013768
21
144.638993
0
LINE
8
Image
10
97.013768
20
144.638993
11
97.714870
21
154.879138
0
LINE
8
Image
10
97.714870
20
154.879138
11
97.719315
21
155.770685
0
LINE
8
Image
10
97.719315
20
155.770685
11
94.164606
21
155.507192
0
LINE
8
Image
10
94.164606
20
155.507192
11
91.055698
21
155.153200
0
LINE
8
Image
10
91.055698
20
155.153200
11
88.572808
21
154.672123
0
LINE
8
Image
10
88.572808
20
154.672123
11
86.535717
21
154.100544
0
LINE
8
Image
10
86.535717
20
154.100544
11
86.306811
21
148.223241
0
LINE
8
Image
10
86.306811
20
148.223241
11
86.057719
21
131.586230
0
LINE
8
Image
10
86.057719
20
131.586230
11
86.037531
21
120.826523
0
LINE
8
Image
10
86.037531
20
120.826523
11
87.645095
21
120.841207
0
LINE
8
Image
10
87.645095
20
120.841207
11
92.157646
21
120.901177
0
LINE
8
Image
10
92.157646
20
120.901177
11
94.527790
21
121.042176
0
LINE
8
Image
10
94.527790
20
121.042176
11
95.481463
21
121.365648
0
LINE
8
Image
10
95.481463
20
121.365648
11
95.744600
21
121.973035
0
LINE
8
Image
10
95.744600
20
121.973035
11
96.013803
21
124.596881
0
LINE
8
Image
10
96.013803
20
124.596881
11
96.139961
21
125.730857
0
LINE
8
Image
10
96.139961
20
125.730857
11
96.324711
21
126.086322
0
LINE
8
Image
10
96.324711
20
126.086322
11
96.656595
21
126.331784
0
LINE
8
Image
10
96.656595
20
126.331784
11
97.959821
21
126.585739
0
LINE
8
Image
10
97.959821
20
126.585739
11
100.445758
21
126.678797
0
LINE
8
Image
10
100.445758
20
126.678797
11
102.753132
21
126.655774
0
LINE
8
Image
10
102.753132
20
126.655774
11
103.442524
21
126.522111
0
LINE
8
Image
10
103.442524
20
126.522111
11
103.863651
21
126.260115
0
LINE
8
Image
10
103.863651
20
126.260115
11
104.047465
21
125.834614
0
LINE
8
Image
10
104.047465
20
125.834614
11
104.024913
21
125.210433
0
LINE
8
Image
10
104.024913
20
125.210433
11
103.484515
21
123.225338
0
LINE
8
Image
10
103.484515
20
123.225338
11
102.418743
21
119.001585
0
LINE
8
Image
10
102.418743
20
119.001585
11
102.180799
21
117.915032
0
LINE
8
Image
10
102.180799
20
117.915032
11
101.911534
21
117.518454
0
LINE
8
Image
10
101.911534
20
117.518454
11
101.691155
21
117.826378
0
LINE
8
Image
10
101.691155
20
117.826378
11
101.599872
21
118.853326
0
LINE
8
Image
10
101.599872
20
118.853326
11
101.599872
21
120.231513
0
LINE
8
Image
10
101.599872
20
120.231513
11
98.223417
21
120.484655
0
LINE
8
Image
10
98.223417
20
120.484655
11
93.569999
21
120.562299
0
LINE
8
Image
10
93.569999
20
120.562299
11
87.901520
21
120.285704
0
LINE
8
Image
10
87.901520
20
120.285704
11
82.351132
21
119.738116
0
LINE
8
Image
10
82.351132
20
119.738116
11
78.051985
21
119.002781
0
LINE
8
Image
10
78.051985
20
119.002781
11
77.258236
21
118.809763
0
LINE
8
Image
10
77.258236
20
118.809763
11
77.258236
21
124.437565
0
LINE
8
Image
10
77.258236
20
124.437565
11
77.026025
21
133.860569
0
LINE
8
Image
10
77.026025
20
133.860569
11
76.793813
21
137.655772
0
LINE
8
Image
10
76.793813
20
137.655772
11
75.350333
21
137.435477
0
LINE
8
Image
10
75.350333
20
137.435477
11
73.709926
21
136.981991
0
LINE
8
Image
10
73.709926
20
136.981991
11
71.786887
21
136.150535
0
LINE
8
Image
10
71.786887
20
136.150535
11
69.894837
21
135.096137
0
LINE
8
Image
10
69.894837
20
135.096137
11
68.347395
21
133.973824
0
LINE
8
Image
10
68.347395
20
133.973824
11
67.021268
21
132.820954
0
LINE
8
Image
10
67.021268
20
132.820954
11
66.792150
21
125.148047
0
LINE
8
Image
10
66.792150
20
125.148047
11
66.563032
21
117.475140
0
LINE
8
Image
10
66.563032
20
117.475140
11
58.675543
21
117.475140
0
LINE
8
Image
10
58.675543
20
117.475140
11
50.788051
21
117.475140
0
LINE
8
Image
10
50.788051
20
117.475140
11
51.718222
21
119.327221
0
LINE
8
Image
10
51.718222
20
119.327221
11
52.784443
21
121.241565
0
LINE
8
Image
10
52.784443
20
121.241565
11
54.034581
21
123.118599
0
LINE
8
Image
10
54.034581
20
123.118599
11
55.453037
21
124.947900
0
LINE
8
Image
10
55.453037
20
124.947900
11
57.024214
21
126.719042
0
LINE
8
Image
10
57.024214
20
126.719042
11
60.562334
21
130.045147
0
LINE
8
Image
10
60.562334
20
130.045147
11
64.524155
21
133.013514
0
LINE
8
Image
10
64.524155
20
133.013514
11
68.784891
21
135.540740
0
LINE
8
Image
10
68.784891
20
135.540740
11
73.219756
21
137.543425
0
LINE
8
Image
10
73.219756
20
137.543425
11
75.463492
21
138.322001
0
LINE
8
Image
10
75.463492
20
138.322001
11
77.703965
21
138.938166
0
LINE
8
Image
10
77.703965
20
138.938166
11
79.925577
21
139.381495
0
LINE
8
Image
10
79.925577
20
139.381495
11
82.112731
21
139.641562
0
LINE
8
Image
10
82.112731
20
139.641562
11
85.195726
21
139.876502
0
LINE
8
Image
10
85.195726
20
139.876502
11
85.227526
21
143.525180
0
LINE
8
Image
10
85.227526
20
143.525180
11
85.150454
21
146.342182
0
LINE
8
Image
10
85.150454
20
146.342182
11
85.024133
21
147.050969
0
LINE
8
Image
10
85.024133
20
147.050969
11
84.834811
21
147.336763
0
LINE
8
Image
10
84.834811
20
147.336763
11
83.346719
21
147.294629
0
LINE
8
Image
10
83.346719
20
147.294629
11
80.573713
21
146.816059
0
LINE
8
Image
10
80.573713
20
146.816059
11
77.273337
21
146.055598
0
LINE
8
Image
10
77.273337
20
146.055598
11
74.203136
21
145.167794
0
LINE
8
Image
10
74.203136
20
145.167794
11
69.830545
21
143.469670
0
LINE
8
Image
10
69.830545
20
143.469670
11
65.564505
21
141.327670
0
LINE
8
Image
10
65.564505
20
141.327670
11
61.419890
21
138.753886
0
LINE
8
Image
10
61.419890
20
138.753886
11
57.411576
21
135.760413
0
LINE
8
Image
10
57.411576
20
135.760413
11
53.554438
21
132.359344
0
LINE
8
Image
10
53.554438
20
132.359344
11
49.863352
21
128.562772
0
LINE
8
Image
10
49.863352
20
128.562772
11
46.353193
21
124.382791
0
LINE
8
Image
10
46.353193
20
124.382791
11
43.038836
21
119.831495
0
LINE
8
Image
10
43.038836
20
119.831495
11
41.451338
21
117.491933
0
LINE
8
Image
10
41.451338
20
117.491933
11
33.658019
21
117.483546
0
LINE
8
Image
10
33.658019
20
117.483546
11
25.864701
21
117.475140
0
LINE
8
Image
10
25.864701
20
117.475140
11
24.754258
21
121.091664
0
LINE
8
Image
10
151.093691
20
122.084433
11
151.830790
21
122.409645
0
LINE
8
Image
10
151.830790
20
122.409645
11
152.393185
21
122.900816
0
LINE
8
Image
10
152.393185
20
122.900816
11
152.775128
21
123.516479
0
LINE
8
Image
10
152.775128
20
123.516479
11
152.970869
21
124.215170
0
LINE
8
Image
10
152.970869
20
124.215170
11
152.974657
21
124.955423
0
LINE
8
Image
10
152.974657
20
124.955423
11
152.780744
21
125.695773
0
LINE
8
Image
10
152.780744
20
125.695773
11
152.383379
21
126.394755
0
LINE
8
Image
10
152.383379
20
126.394755
11
151.776813
21
127.010904
0
LINE
8
Image
10
151.776813
20
127.010904
11
150.818921
21
127.542749
0
LINE
8
Image
10
150.818921
20
127.542749
11
149.816584
21
127.659166
0
LINE
8
Image
10
149.816584
20
127.659166
11
148.757603
21
127.359067
0
LINE
8
Image
10
148.757603
20
127.359067
11
147.629781
21
126.641364
0
LINE
8
Image
10
147.629781
20
126.641364
11
146.711841
21
126.000565
0
LINE
8
Image
10
146.711841
20
126.000565
11
145.917578
21
125.791234
0
LINE
8
Image
10
145.917578
20
125.791234
11
144.956110
21
126.015914
0
LINE
8
Image
10
144.956110
20
126.015914
11
143.536555
21
126.677146
0
LINE
8
Image
10
143.536555
20
126.677146
11
142.063332
21
127.729600
0
LINE
8
Image
10
142.063332
20
127.729600
11
140.842957
21
129.182328
0
LINE
8
Image
10
140.842957
20
129.182328
11
140.011183
21
130.830223
0
LINE
8
Image
10
140.011183
20
130.830223
11
139.703758
21
132.468178
0
LINE
8
Image
10
139.703758
20
132.468178
11
139.807193
21
133.410641
0
LINE
8
Image
10
139.807193
20
133.410641
11
140.104085
21
134.368337
0
LINE
8
Image
10
140.104085
20
134.368337
11
140.574318
21
135.315600
0
LINE
8
Image
10
140.574318
20
135.315600
11
141.197773
21
136.226765
0
LINE
8
Image
10
141.197773
20
136.226765
11
142.823880
21
137.838141
0
LINE
8
Image
10
142.823880
20
137.838141
11
143.786297
21
138.487020
0
LINE
8
Image
10
143.786297
20
138.487020
11
144.821466
21
138.997141
0
LINE
8
Image
10
144.821466
20
138.997141
11
146.755372
21
139.932609
0
LINE
8
Image
10
146.755372
20
139.932609
11
145.285433
21
142.030080
0
LINE
8
Image
10
145.285433
20
142.030080
11
143.815497
21
143.976998
0
LINE
8
Image
10
143.815497
20
143.976998
11
141.669465
21
143.751944
0
LINE
8
Image
10
141.669465
20
143.751944
11
138.367012
21
143.696433
0
LINE
8
Image
10
138.367012
20
143.696433
11
134.577028
21
144.082843
0
LINE
8
Image
10
134.577028
20
144.082843
11
130.819721
21
144.832846
0
LINE
8
Image
10
130.819721
20
144.832846
11
127.615297
21
145.868113
0
LINE
8
Image
10
127.615297
20
145.868113
11
127.270636
21
145.916264
0
LINE
8
Image
10
127.270636
20
145.916264
11
126.947924
21
145.703624
0
LINE
8
Image
10
126.947924
20
145.703624
11
126.132542
21
144.236496
0
LINE
8
Image
10
126.132542
20
144.236496
11
125.458506
21
142.486780
0
LINE
8
Image
10
125.458506
20
142.486780
11
125.050517
21
140.934834
0
LINE
8
Image
10
125.050517
20
140.934834
11
124.950378
21
140.110763
0
LINE
8
Image
10
124.950378
20
140.110763
11
125.062089
21
139.620184
0
LINE
8
Image
10
125.062089
20
139.620184
11
125.513946
21
139.272196
0
LINE
8
Image
10
125.513946
20
139.272196
11
126.434246
21
138.875899
0
LINE
8
Image
10
126.434246
20
138.875899
11
127.792275
21
138.233274
0
LINE
8
Image
10
127.792275
20
138.233274
11
129.036489
21
137.445254
0
LINE
8
Image
10
129.036489
20
137.445254
11
130.175029
21
136.502070
0
LINE
8
Image
10
130.175029
20
136.502070
11
131.216036
21
135.393954
0
LINE
8
Image
10
131.216036
20
135.393954
11
132.167651
21
134.111136
0
LINE
8
Image
10
132.167651
20
134.111136
11
133.038016
21
132.643849
0
LINE
8
Image
10
133.038016
20
132.643849
11
134.567559
21
129.116792
0
LINE
8
Image
10
134.567559
20
129.116792
11
135.117813
21
127.765862
0
LINE
8
Image
10
135.117813
20
127.765862
11
135.752115
21
126.583979
0
LINE
8
Image
10
135.752115
20
126.583979
11
136.485731
21
125.557417
0
LINE
8
Image
10
136.485731
20
125.557417
11
137.333926
21
124.672449
0
LINE
8
Image
10
137.333926
20
124.672449
11
138.311967
21
123.915351
0
LINE
8
Image
10
138.311967
20
123.915351
11
139.435119
21
123.272394
0
LINE
8
Image
10
139.435119
20
123.272394
11
142.177818
21
122.274001
0
LINE
8
Image
10
142.177818
20
122.274001
11
144.268874
21
121.911499
0
LINE
8
Image
10
144.268874
20
121.911499
11
146.783336
21
121.752022
0
LINE
8
Image
10
146.783336
20
121.752022
11
149.224007
21
121.806143
0
LINE
8
Image
10
149.224007
20
121.806143
11
151.093691
21
122.084433
0
LINE
8
Image
10
151.093691
20
122.084433
11
151.093691
21
122.084433
0
LINE
8
Image
10
128.004541
20
127.970267
11
126.818647
21
129.436629
0
LINE
8
Image
10
126.818647
20
129.436629
11
125.847527
21
131.012934
0
LINE
8
Image
10
125.847527
20
131.012934
11
125.094526
21
132.684917
0
LINE
8
Image
10
125.094526
20
132.684917
11
124.562990
21
134.438317
0
LINE
8
Image
10
124.562990
20
134.438317
11
124.256264
21
136.258872
0
LINE
8
Image
10
124.256264
20
136.258872
11
124.177693
21
138.132317
0
LINE
8
Image
10
124.177693
20
138.132317
11
124.330622
21
140.044391
0
LINE
8
Image
10
124.330622
20
140.044391
11
124.718396
21
141.980831
0
LINE
8
Image
10
124.718396
20
141.980831
11
125.406196
21
144.007598
0
LINE
8
Image
10
125.406196
20
144.007598
11
126.384579
21
145.984413
0
LINE
8
Image
10
126.384579
20
145.984413
11
127.619666
21
147.874474
0
LINE
8
Image
10
127.619666
20
147.874474
11
129.077582
21
149.640982
0
LINE
8
Image
10
129.077582
20
149.640982
11
130.724447
21
151.247137
0
LINE
8
Image
10
130.724447
20
151.247137
11
132.526387
21
152.656138
0
LINE
8
Image
10
132.526387
20
152.656138
11
134.449522
21
153.831185
0
LINE
8
Image
10
134.449522
20
153.831185
11
136.459976
21
154.735478
0
LINE
8
Image
10
136.459976
20
154.735478
11
138.223162
21
155.425142
0
LINE
8
Image
10
138.223162
20
155.425142
11
137.955519
21
156.308555
0
LINE
8
Image
10
137.955519
20
156.308555
11
137.044112
21
158.048032
0
LINE
8
Image
10
137.044112
20
158.048032
11
135.998359
21
159.748273
0
LINE
8
Image
10
135.998359
20
159.748273
11
135.327675
21
160.513976
0
LINE
8
Image
10
135.327675
20
160.513976
11
132.421696
21
159.594637
0
LINE
8
Image
10
132.421696
20
159.594637
11
130.022691
21
158.882555
0
LINE
8
Image
10
130.022691
20
158.882555
11
128.966658
21
158.805828
0
LINE
8
Image
10
128.966658
20
158.805828
11
127.705396
21
158.869018
0
LINE
8
Image
10
127.705396
20
158.869018
11
125.488934
21
159.213789
0
LINE
8
Image
10
125.488934
20
159.213789
11
123.380027
21
159.770677
0
LINE
8
Image
10
123.380027
20
159.770677
11
121.347712
21
160.478619
0
LINE
8
Image
10
121.347712
20
160.478619
11
120.339233
21
158.467828
0
LINE
8
Image
10
120.339233
20
158.467828
11
119.400537
21
156.519995
0
LINE
8
Image
10
119.400537
20
156.519995
11
119.050211
21
155.426292
0
LINE
8
Image
10
119.050211
20
155.426292
11
119.087782
21
155.105862
0
LINE
8
Image
10
119.087782
20
155.105862
11
119.262958
21
154.886311
0
LINE
8
Image
10
119.262958
20
154.886311
11
120.013478
21
154.599643
0
LINE
8
Image
10
120.013478
20
154.599643
11
120.576557
21
154.388704
0
LINE
8
Image
10
120.576557
20
154.388704
11
120.978532
21
154.071277
0
LINE
8
Image
10
120.978532
20
154.071277
11
121.219371
21
153.623597
0
LINE
8
Image
10
121.219371
20
153.623597
11
121.299042
21
153.021896
0
LINE
8
Image
10
121.299042
20
153.021896
11
120.974753
21
151.261365
0
LINE
8
Image
10
120.974753
20
151.261365
11
120.005408
21
148.599549
0
LINE
8
Image
10
120.005408
20
148.599549
11
118.948365
21
145.791243
0
LINE
8
Image
10
118.948365
20
145.791243
11
118.279393
21
143.421060
0
LINE
8
Image
10
118.279393
20
143.421060
11
117.928983
21
141.174173
0
LINE
8
Image
10
117.928983
20
141.174173
11
117.827626
21
138.735755
0
LINE
8
Image
10
117.827626
20
138.735755
11
117.993245
21
136.192593
0
LINE
8
Image
10
117.993245
20
136.192593
11
118.477161
21
133.907255
0
LINE
8
Image
10
118.477161
20
133.907255
11
119.259958
21
131.904635
0
LINE
8
Image
10
119.259958
20
131.904635
11
120.322221
21
130.209627
0
LINE
8
Image
10
120.322221
20
130.209627
11
121.644536
21
128.847123
0
LINE
8
Image
10
121.644536
20
128.847123
11
123.207488
21
127.842017
0
LINE
8
Image
10
123.207488
20
127.842017
11
124.991662
21
127.219204
0
LINE
8
Image
10
124.991662
20
127.219204
11
126.977644
21
127.003576
0
LINE
8
Image
10
126.977644
20
127.003576
11
128.895731
21
127.000128
0
LINE
8
Image
10
128.895731
20
127.000128
11
128.004541
21
127.970267
0
LINE
8
Image
10
117.687955
20
143.139691
11
118.585884
21
146.369913
0
LINE
8
Image
10
118.585884
20
146.369913
11
119.177118
21
148.315673
0
LINE
8
Image
10
119.177118
20
148.315673
11
119.012614
21
148.510269
0
LINE
8
Image
10
119.012614
20
148.510269
11
118.533184
21
148.519544
0
LINE
8
Image
10
118.533184
20
148.519544
11
118.033416
21
148.365204
0
LINE
8
Image
10
118.033416
20
148.365204
11
117.827628
21
147.990378
0
LINE
8
Image
10
117.827628
20
147.990378
11
117.725602
21
147.570889
0
LINE
8
Image
10
117.725602
20
147.570889
11
117.416336
21
147.511829
0
LINE
8
Image
10
117.416336
20
147.511829
11
116.895044
21
147.814604
0
LINE
8
Image
10
116.895044
20
147.814604
11
116.156946
21
148.480616
0
LINE
8
Image
10
116.156946
20
148.480616
11
115.494128
21
149.055474
0
LINE
8
Image
10
115.494128
20
149.055474
11
114.681909
21
149.392126
0
LINE
8
Image
10
114.681909
20
149.392126
11
110.926343
21
149.763606
0
LINE
8
Image
10
110.926343
20
149.763606
11
107.397515
21
149.862151
0
LINE
8
Image
10
107.397515
20
149.862151
11
103.390858
21
149.814874
0
LINE
8
Image
10
103.390858
20
149.814874
11
100.043820
21
149.653977
0
LINE
8
Image
10
100.043820
20
149.653977
11
98.493845
21
149.411660
0
LINE
8
Image
10
98.493845
20
149.411660
11
98.156142
21
146.065487
0
LINE
8
Image
10
98.156142
20
146.065487
11
97.974236
21
142.875108
0
LINE
8
Image
10
97.974236
20
142.875108
11
104.284963
21
142.848110
0
LINE
8
Image
10
104.284963
20
142.848110
11
111.553415
21
142.565647
0
LINE
8
Image
10
111.553415
20
142.565647
11
114.681460
21
142.260460
0
LINE
8
Image
10
114.681460
20
142.260460
11
117.194283
21
141.867081
0
LINE
8
Image
10
117.194283
20
141.867081
11
117.441845
21
142.220160
0
LINE
8
Image
10
117.441845
20
142.220160
11
117.687955
21
143.139691
0
LINE
8
Image
10
117.687955
20
143.139691
11
117.687955
21
143.139691
0
LINE
8
Image
10
72.319352
20
145.559959
11
74.767396
21
146.391329
0
LINE
8
Image
10
74.767396
20
146.391329
11
76.442307
21
146.743954
0
LINE
8
Image
10
76.442307
20
146.743954
11
77.079579
21
146.774635
0
LINE
8
Image
10
77.079579
20
146.774635
11
77.387817
21
146.928375
0
LINE
8
Image
10
77.387817
20
146.928375
11
77.446063
21
147.323560
0
LINE
8
Image
10
77.446063
20
147.323560
11
77.333356
21
148.078575
0
LINE
8
Image
10
77.333356
20
148.078575
11
77.090953
21
150.634301
0
LINE
8
Image
10
77.090953
20
150.634301
11
77.135930
21
151.365082
0
LINE
8
Image
10
77.135930
20
151.365082
11
77.481540
21
151.861464
0
LINE
8
Image
10
77.481540
20
151.861464
11
78.423330
21
152.349420
0
LINE
8
Image
10
78.423330
20
152.349420
11
80.256842
21
153.054926
0
LINE
8
Image
10
80.256842
20
153.054926
11
83.538295
21
154.171055
0
LINE
8
Image
10
83.538295
20
154.171055
11
86.914850
21
155.110157
0
LINE
8
Image
10
86.914850
20
155.110157
11
90.262208
21
155.841355
0
LINE
8
Image
10
90.262208
20
155.841355
11
93.456071
21
156.333773
0
LINE
8
Image
10
93.456071
20
156.333773
11
96.858798
21
156.524040
0
LINE
8
Image
10
96.858798
20
156.524040
11
101.446199
21
156.530833
0
LINE
8
Image
10
101.446199
20
156.530833
11
106.114078
21
156.372260
0
LINE
8
Image
10
106.114078
20
156.372260
11
109.758241
21
156.066428
0
LINE
8
Image
10
109.758241
20
156.066428
11
111.390229
21
155.845961
0
LINE
8
Image
10
111.390229
20
155.845961
11
111.575405
21
158.091774
0
LINE
8
Image
10
111.575405
20
158.091774
11
112.000312
21
161.082686
0
LINE
8
Image
10
112.000312
20
161.082686
11
112.049091
21
161.697057
0
LINE
8
Image
10
112.049091
20
161.697057
11
111.696235
21
162.036460
0
LINE
8
Image
10
111.696235
20
162.036460
11
109.814078
21
162.395148
0
LINE
8
Image
10
109.814078
20
162.395148
11
106.505572
21
162.740920
0
LINE
8
Image
10
106.505572
20
162.740920
11
102.606849
21
163.003232
0
LINE
8
Image
10
102.606849
20
163.003232
11
98.954042
21
163.111538
0
LINE
8
Image
10
98.954042
20
163.111538
11
95.061075
21
162.987428
0
LINE
8
Image
10
95.061075
20
162.987428
11
91.415568
21
162.537447
0
LINE
8
Image
10
91.415568
20
162.537447
11
87.520984
21
161.675180
0
LINE
8
Image
10
87.520984
20
161.675180
11
82.880786
21
160.314210
0
LINE
8
Image
10
82.880786
20
160.314210
11
78.741187
21
159.116903
0
LINE
8
Image
10
78.741187
20
159.116903
11
75.632778
21
158.546806
0
LINE
8
Image
10
75.632778
20
158.546806
11
73.039455
21
158.552866
0
LINE
8
Image
10
73.039455
20
158.552866
11
70.445115
21
159.084029
0
LINE
8
Image
10
70.445115
20
159.084029
11
67.688933
21
159.857722
0
LINE
8
Image
10
67.688933
20
159.857722
11
63.915535
21
156.217103
0
LINE
8
Image
10
63.915535
20
156.217103
11
60.142139
21
152.576486
0
LINE
8
Image
10
60.142139
20
152.576486
11
61.951014
21
152.363375
0
LINE
8
Image
10
61.951014
20
152.363375
11
63.128259
21
152.144322
0
LINE
8
Image
10
63.128259
20
152.144322
11
64.120696
21
151.779125
0
LINE
8
Image
10
64.120696
20
151.779125
11
64.936907
21
151.255962
0
LINE
8
Image
10
64.936907
20
151.255962
11
65.585474
21
150.563017
0
LINE
8
Image
10
65.585474
20
150.563017
11
66.074977
21
149.688468
0
LINE
8
Image
10
66.074977
20
149.688468
11
66.413997
21
148.620497
0
LINE
8
Image
10
66.413997
20
148.620497
11
66.611116
21
147.347284
0
LINE
8
Image
10
66.611116
20
147.347284
11
66.674916
21
145.857011
0
LINE
8
Image
10
66.674916
20
145.857011
11
66.674916
21
143.218418
0
LINE
8
Image
10
66.674916
20
143.218418
11
67.997831
21
143.803043
0
LINE
8
Image
10
67.997831
20
143.803043
11
72.319352
21
145.559959
0
LINE
8
Image
10
72.319352
20
145.559959
11
72.319352
21
145.559959
0
LINE
8
Image
10
118.188911
20
153.458428
11
118.880059
21
156.183071
0
LINE
8
Image
10
118.880059
20
156.183071
11
120.006154
21
158.814890
0
LINE
8
Image
10
120.006154
20
158.814890
11
121.526870
21
161.310165
0
LINE
8
Image
10
121.526870
20
161.310165
11
123.401883
21
163.625178
0
LINE
8
Image
10
123.401883
20
163.625178
11
125.590869
21
165.716210
0
LINE
8
Image
10
125.590869
20
165.716210
11
128.053503
21
167.539543
0
LINE
8
Image
10
128.053503
20
167.539543
11
130.749460
21
169.051457
0
LINE
8
Image
10
130.749460
20
169.051457
11
133.638415
21
170.208236
0
LINE
8
Image
10
133.638415
20
170.208236
11
135.514494
21
170.817163
0
LINE
8
Image
10
135.514494
20
170.817163
11
130.639806
21
173.703682
0
LINE
8
Image
10
130.639806
20
173.703682
11
123.907277
21
177.861571
0
LINE
8
Image
10
123.907277
20
177.861571
11
118.462802
21
181.730765
0
LINE
8
Image
10
118.462802
20
181.730765
11
115.746588
21
183.784593
0
LINE
8
Image
10
115.746588
20
183.784593
11
109.910879
21
181.869017
0
LINE
8
Image
10
109.910879
20
181.869017
11
105.423527
21
180.475583
0
LINE
8
Image
10
105.423527
20
180.475583
11
101.359896
21
179.381943
0
LINE
8
Image
10
101.359896
20
179.381943
11
97.708588
21
178.586791
0
LINE
8
Image
10
97.708588
20
178.586791
11
94.458204
21
178.088822
0
LINE
8
Image
10
94.458204
20
178.088822
11
91.597345
21
177.886730
0
LINE
8
Image
10
91.597345
20
177.886730
11
89.114611
21
177.979209
0
LINE
8
Image
10
89.114611
20
177.979209
11
86.998605
21
178.364953
0
LINE
8
Image
10
86.998605
20
178.364953
11
85.237927
21
179.042657
0
LINE
8
Image
10
85.237927
20
179.042657
11
84.629247
21
179.306429
0
LINE
8
Image
10
84.629247
20
179.306429
11
84.101921
21
179.262746
0
LINE
8
Image
10
84.101921
20
179.262746
11
83.394369
21
178.805498
0
LINE
8
Image
10
83.394369
20
178.805498
11
82.245009
21
177.828573
0
LINE
8
Image
10
82.245009
20
177.828573
11
78.556664
21
174.352029
0
LINE
8
Image
10
78.556664
20
174.352029
11
76.856488
21
172.610837
0
LINE
8
Image
10
76.856488
20
172.610837
11
79.051648
21
172.411789
0
LINE
8
Image
10
79.051648
20
172.411789
11
80.902706
21
172.083669
0
LINE
8
Image
10
80.902706
20
172.083669
11
82.162935
21
171.533937
0
LINE
8
Image
10
82.162935
20
171.533937
11
83.272617
21
170.272570
0
LINE
8
Image
10
83.272617
20
170.272570
11
84.569321
21
168.211775
0
LINE
8
Image
10
84.569321
20
168.211775
11
85.736045
21
165.912609
0
LINE
8
Image
10
85.736045
20
165.912609
11
86.455784
21
163.936126
0
LINE
8
Image
10
86.455784
20
163.936126
11
86.706779
21
162.994534
0
LINE
8
Image
10
86.706779
20
162.994534
11
86.948581
21
162.497478
0
LINE
8
Image
10
86.948581
20
162.497478
11
87.279297
21
162.331310
0
LINE
8
Image
10
87.279297
20
162.331310
11
87.797032
21
162.382379
0
LINE
8
Image
10
87.797032
20
162.382379
11
93.058122
21
163.187513
0
LINE
8
Image
10
93.058122
20
163.187513
11
96.363549
21
163.774395
0
LINE
8
Image
10
96.363549
20
163.774395
11
97.065542
21
164.020869
0
LINE
8
Image
10
97.065542
20
164.020869
11
97.223264
21
164.259069
0
LINE
8
Image
10
97.223264
20
164.259069
11
96.652453
21
167.631867
0
LINE
8
Image
10
96.652453
20
167.631867
11
96.191475
21
170.918342
0
LINE
8
Image
10
96.191475
20
170.918342
11
96.460231
21
171.199431
0
LINE
8
Image
10
96.460231
20
171.199431
11
97.190154
21
171.376248
0
LINE
8
Image
10
97.190154
20
171.376248
11
101.091250
21
171.938810
0
LINE
8
Image
10
101.091250
20
171.938810
11
105.145219
21
172.844632
0
LINE
8
Image
10
105.145219
20
172.844632
11
108.981119
21
173.996952
0
LINE
8
Image
10
108.981119
20
173.996952
11
112.228007
21
175.299006
0
LINE
8
Image
10
112.228007
20
175.299006
11
114.213097
21
176.242639
0
LINE
8
Image
10
114.213097
20
176.242639
11
117.115218
21
174.059853
0
LINE
8
Image
10
117.115218
20
174.059853
11
119.565969
21
172.337376
0
LINE
8
Image
10
119.565969
20
172.337376
11
121.382886
21
171.261292
0
LINE
8
Image
10
121.382886
20
171.261292
11
122.748430
21
170.645515
0
LINE
8
Image
10
122.748430
20
170.645515
11
120.199837
21
168.902791
0
LINE
8
Image
10
120.199837
20
168.902791
11
116.744465
21
166.235838
0
LINE
8
Image
10
116.744465
20
166.235838
11
115.373600
21
164.915087
0
LINE
8
Image
10
115.373600
20
164.915087
11
114.236018
21
163.596889
0
LINE
8
Image
10
114.236018
20
163.596889
11
113.328272
21
162.276797
0
LINE
8
Image
10
113.328272
20
162.276797
11
112.646914
21
160.950363
0
LINE
8
Image
10
112.646914
20
160.950363
11
112.188494
21
159.613139
0
LINE
8
Image
10
112.188494
20
159.613139
11
111.949565
21
158.260678
0
LINE
8
Image
10
111.949565
20
158.260678
11
111.899307
21
156.272815
0
LINE
8
Image
10
111.899307
20
156.272815
11
112.272730
21
154.606061
0
LINE
8
Image
10
112.272730
20
154.606061
11
113.205710
21
152.910740
0
LINE
8
Image
10
113.205710
20
152.910740
11
114.834121
21
150.837175
0
LINE
8
Image
10
114.834121
20
150.837175
11
117.298462
21
147.936597
0
LINE
8
Image
10
117.298462
20
147.936597
11
117.552258
21
149.550987
0
LINE
8
Image
10
117.552258
20
149.550987
11
118.188911
21
153.458428
0
LINE
8
Image
10
118.188911
20
153.458428
11
118.188911
21
153.458428
 0 
ENDSEC
 0 
EOF