999
"DXF R12 Output" (www.mydxf.blogspot.com)
 0 
SECTION
 2 
HEADER
 9 
$ACADVER
 1 
AC1009
 9 
$EXTMIN
 10 
 0 
 20 
 0 
 9 
$EXTMAX
 10 
 8.5 
 20 
 11 
 0 
ENDSEC
 0 
SECTION
 2 
ENTITIES
0
LINE
8
Image
10
82.203171
20
25.173406
11
78.042644
21
25.875578
0
LINE
8
Image
10
78.042644
20
25.875578
11
74.032758
21
26.728540
0
LINE
8
Image
10
74.032758
20
26.728540
11
70.143928
21
27.742308
0
LINE
8
Image
10
70.143928
20
27.742308
11
66.346570
21
28.926896
0
LINE
8
Image
10
66.346570
20
28.926896
11
62.611100
21
30.292319
0
LINE
8
Image
10
62.611100
20
30.292319
11
58.907934
21
31.848591
0
LINE
8
Image
10
58.907934
20
31.848591
11
55.207489
21
33.605728
0
LINE
8
Image
10
55.207489
20
33.605728
11
51.480179
21
35.573743
0
LINE
8
Image
10
51.480179
20
35.573743
11
48.041452
21
37.625649
0
LINE
8
Image
10
48.041452
20
37.625649
11
44.717228
21
39.904573
0
LINE
8
Image
10
44.717228
20
39.904573
11
41.516136
21
42.397957
0
LINE
8
Image
10
41.516136
20
42.397957
11
38.446805
21
45.093245
0
LINE
8
Image
10
38.446805
20
45.093245
11
35.517864
21
47.977879
0
LINE
8
Image
10
35.517864
20
47.977879
11
32.737943
21
51.039300
0
LINE
8
Image
10
32.737943
20
51.039300
11
30.115670
21
54.264950
0
LINE
8
Image
10
30.115670
20
54.264950
11
27.659674
21
57.642273
0
LINE
8
Image
10
27.659674
20
57.642273
11
25.378586
21
61.158711
0
LINE
8
Image
10
25.378586
20
61.158711
11
23.281033
21
64.801705
0
LINE
8
Image
10
23.281033
20
64.801705
11
21.375645
21
68.558698
0
LINE
8
Image
10
21.375645
20
68.558698
11
19.671051
21
72.417131
0
LINE
8
Image
10
19.671051
20
72.417131
11
18.175880
21
76.364449
0
LINE
8
Image
10
18.175880
20
76.364449
11
16.898762
21
80.388092
0
LINE
8
Image
10
16.898762
20
80.388092
11
15.848325
21
84.475502
0
LINE
8
Image
10
15.848325
20
84.475502
11
15.033199
21
88.614123
0
LINE
8
Image
10
15.033199
20
88.614123
11
14.446185
21
92.129862
0
LINE
8
Image
10
14.446185
20
92.129862
11
13.231820
21
92.378227
0
LINE
8
Image
10
13.231820
20
92.378227
11
12.266830
21
92.736335
0
LINE
8
Image
10
12.266830
20
92.736335
11
11.483530
21
93.336413
0
LINE
8
Image
10
11.483530
20
93.336413
11
10.957860
21
94.099383
0
LINE
8
Image
10
10.957860
20
94.099383
11
10.765761
21
94.946166
0
LINE
8
Image
10
10.765761
20
94.946166
11
11.035568
21
95.876172
0
LINE
8
Image
10
11.035568
20
95.876172
11
11.700711
21
97.163853
0
LINE
8
Image
10
11.700711
20
97.163853
11
12.544773
21
98.441366
0
LINE
8
Image
10
12.544773
20
98.441366
11
13.351338
21
99.340868
0
LINE
8
Image
10
13.351338
20
99.340868
11
13.634836
21
99.698688
0
LINE
8
Image
10
13.634836
20
99.698688
11
13.816182
21
100.272778
0
LINE
8
Image
10
13.816182
20
100.272778
11
13.940757
21
102.427671
0
LINE
8
Image
10
13.940757
20
102.427671
11
13.940757
21
105.030305
0
LINE
8
Image
10
13.940757
20
105.030305
11
9.619233
21
105.031628
0
LINE
8
Image
10
9.619233
20
105.031628
11
5.869756
21
105.158634
0
LINE
8
Image
10
5.869756
20
105.158634
11
4.899792
21
105.371191
0
LINE
8
Image
10
4.899792
20
105.371191
11
4.151186
21
105.731998
0
LINE
8
Image
10
4.151186
20
105.731998
11
3.577320
21
106.132214
0
LINE
8
Image
10
3.577320
20
106.132214
11
3.227058
21
106.530712
0
LINE
8
Image
10
3.227058
20
106.530712
11
3.052229
21
107.007826
0
LINE
8
Image
10
3.052229
20
107.007826
11
3.004658
21
107.643888
0
LINE
8
Image
10
3.004658
20
107.643888
11
3.145007
21
108.602692
0
LINE
8
Image
10
3.145007
20
108.602692
11
3.562075
21
109.482235
0
LINE
8
Image
10
3.562075
20
109.482235
11
4.249891
21
110.278847
0
LINE
8
Image
10
4.249891
20
110.278847
11
5.202486
21
110.988861
0
LINE
8
Image
10
5.202486
20
110.988861
11
6.413891
21
111.608607
0
LINE
8
Image
10
6.413891
20
111.608607
11
7.878134
21
112.134418
0
LINE
8
Image
10
7.878134
20
112.134418
11
11.541259
21
112.889558
0
LINE
8
Image
10
11.541259
20
112.889558
11
14.785526
21
113.320577
0
LINE
8
Image
10
14.785526
20
113.320577
11
15.564482
21
116.669986
0
LINE
8
Image
10
15.564482
20
116.669986
11
16.062314
21
118.837410
0
LINE
8
Image
10
16.062314
20
118.837410
11
16.123676
21
119.558766
0
LINE
8
Image
10
16.123676
20
119.558766
11
16.007253
21
120.188618
0
LINE
8
Image
10
16.007253
20
120.188618
11
15.673482
21
120.839515
0
LINE
8
Image
10
15.673482
20
120.839515
11
15.082802
21
121.624007
0
LINE
8
Image
10
15.082802
20
121.624007
11
12.972463
21
124.043978
0
LINE
8
Image
10
12.972463
20
124.043978
11
11.024119
21
126.604171
0
LINE
8
Image
10
11.024119
20
126.604171
11
10.361846
21
127.767506
0
LINE
8
Image
10
10.361846
20
127.767506
11
9.911822
21
128.840106
0
LINE
8
Image
10
9.911822
20
128.840106
11
9.677284
21
129.812301
0
LINE
8
Image
10
9.677284
20
129.812301
11
9.661471
21
130.674420
0
LINE
8
Image
10
9.661471
20
130.674420
11
9.867620
21
131.416794
0
LINE
8
Image
10
9.867620
20
131.416794
11
10.298968
21
132.029751
0
LINE
8
Image
10
10.298968
20
132.029751
11
11.160288
21
132.405851
0
LINE
8
Image
10
11.160288
20
132.405851
11
12.592257
21
132.399974
0
LINE
8
Image
10
12.592257
20
132.399974
11
14.570901
21
132.014867
0
LINE
8
Image
10
14.570901
20
132.014867
11
17.072245
21
131.253280
0
LINE
8
Image
10
17.072245
20
131.253280
11
19.229442
21
130.622834
0
LINE
8
Image
10
19.229442
20
130.622834
11
19.718040
21
130.632280
0
LINE
8
Image
10
19.718040
20
130.632280
11
19.977256
21
130.834540
0
LINE
8
Image
10
19.977256
20
130.834540
11
20.285347
21
131.584331
0
LINE
8
Image
10
20.285347
20
131.584331
11
20.881288
21
133.066699
0
LINE
8
Image
10
20.881288
20
133.066699
11
22.331995
21
135.943108
0
LINE
8
Image
10
22.331995
20
135.943108
11
25.890027
21
142.248320
0
LINE
8
Image
10
25.890027
20
142.248320
11
28.543968
21
146.175183
0
LINE
8
Image
10
28.543968
20
146.175183
11
31.496993
21
149.966256
0
LINE
8
Image
10
31.496993
20
149.966256
11
34.725199
21
153.599245
0
LINE
8
Image
10
34.725199
20
153.599245
11
38.204684
21
157.051858
0
LINE
8
Image
10
38.204684
20
157.051858
11
41.911546
21
160.301801
0
LINE
8
Image
10
41.911546
20
160.301801
11
45.821882
21
163.326782
0
LINE
8
Image
10
45.821882
20
163.326782
11
49.911792
21
166.104508
0
LINE
8
Image
10
49.911792
20
166.104508
11
54.157373
21
168.612685
0
LINE
8
Image
10
54.157373
20
168.612685
11
57.877920
21
170.499405
0
LINE
8
Image
10
57.877920
20
170.499405
11
61.773640
21
172.179240
0
LINE
8
Image
10
61.773640
20
172.179240
11
65.827050
21
173.647500
0
LINE
8
Image
10
65.827050
20
173.647500
11
70.020669
21
174.899495
0
LINE
8
Image
10
70.020669
20
174.899495
11
74.337016
21
175.930535
0
LINE
8
Image
10
74.337016
20
175.930535
11
78.758609
21
176.735930
0
LINE
8
Image
10
78.758609
20
176.735930
11
83.267966
21
177.310990
0
LINE
8
Image
10
83.267966
20
177.310990
11
87.847607
21
177.651026
0
LINE
8
Image
10
87.847607
20
177.651026
11
92.786491
21
177.887801
0
LINE
8
Image
10
92.786491
20
177.887801
11
91.375379
21
178.647173
0
LINE
8
Image
10
91.375379
20
178.647173
11
90.087855
21
179.503434
0
LINE
8
Image
10
90.087855
20
179.503434
11
88.874309
21
180.602250
0
LINE
8
Image
10
88.874309
20
180.602250
11
87.794257
21
181.844957
0
LINE
8
Image
10
87.794257
20
181.844957
11
86.907216
21
183.132890
0
LINE
8
Image
10
86.907216
20
183.132890
11
86.272701
21
184.367382
0
LINE
8
Image
10
86.272701
20
184.367382
11
85.950229
21
185.449770
0
LINE
8
Image
10
85.950229
20
185.449770
11
85.999315
21
186.281388
0
LINE
8
Image
10
85.999315
20
186.281388
11
86.181791
21
186.572325
0
LINE
8
Image
10
86.181791
20
186.572325
11
86.479475
21
186.763570
0
LINE
8
Image
10
86.479475
20
186.763570
11
87.363161
21
186.746742
0
LINE
8
Image
10
87.363161
20
186.746742
11
88.684332
21
186.397976
0
LINE
8
Image
10
88.684332
20
186.397976
11
90.010719
21
186.029464
0
LINE
8
Image
10
90.010719
20
186.029464
11
91.318988
21
185.846260
0
LINE
8
Image
10
91.318988
20
185.846260
11
92.427898
21
185.860997
0
LINE
8
Image
10
92.427898
20
185.860997
11
93.156206
21
186.086305
0
LINE
8
Image
10
93.156206
20
186.086305
11
94.465635
21
187.972794
0
LINE
8
Image
10
94.465635
20
187.972794
11
95.943644
21
189.992601
0
LINE
8
Image
10
95.943644
20
189.992601
11
97.720970
21
191.537558
0
LINE
8
Image
10
97.720970
20
191.537558
11
99.674917
21
192.524408
0
LINE
8
Image
10
99.674917
20
192.524408
11
100.679780
21
192.782527
0
LINE
8
Image
10
100.679780
20
192.782527
11
101.682787
21
192.869900
0
LINE
8
Image
10
101.682787
20
192.869900
11
103.276307
21
192.735610
0
LINE
8
Image
10
103.276307
20
192.735610
11
104.800932
21
192.276697
0
LINE
8
Image
10
104.800932
20
192.276697
11
106.476375
21
191.401565
0
LINE
8
Image
10
106.476375
20
191.401565
11
108.522345
21
190.018623
0
LINE
8
Image
10
108.522345
20
190.018623
11
111.313957
21
188.096657
0
LINE
8
Image
10
111.313957
20
188.096657
11
113.761233
21
186.626454
0
LINE
8
Image
10
113.761233
20
186.626454
11
115.922512
21
185.576106
0
LINE
8
Image
10
115.922512
20
185.576106
11
117.856132
21
184.913707
0
LINE
8
Image
10
117.856132
20
184.913707
11
120.151233
21
184.133786
0
LINE
8
Image
10
120.151233
20
184.133786
11
122.353879
21
183.018205
0
LINE
8
Image
10
122.353879
20
183.018205
11
124.443888
21
181.578974
0
LINE
8
Image
10
124.443888
20
181.578974
11
126.401078
21
179.828104
0
LINE
8
Image
10
126.401078
20
179.828104
11
128.305455
21
177.722418
0
LINE
8
Image
10
128.305455
20
177.722418
11
129.708367
21
175.598287
0
LINE
8
Image
10
129.708367
20
175.598287
11
130.894803
21
172.928031
0
LINE
8
Image
10
130.894803
20
172.928031
11
132.149752
21
169.183967
0
LINE
8
Image
10
132.149752
20
169.183967
11
133.692792
21
164.215675
0
LINE
8
Image
10
133.692792
20
164.215675
11
136.345798
21
162.227818
0
LINE
8
Image
10
136.345798
20
162.227818
11
139.450114
21
159.632170
0
LINE
8
Image
10
139.450114
20
159.632170
11
143.188189
21
156.183023
0
LINE
8
Image
10
143.188189
20
156.183023
11
147.977291
21
151.213179
0
LINE
8
Image
10
147.977291
20
151.213179
11
150.060503
21
148.762593
0
LINE
8
Image
10
150.060503
20
148.762593
11
151.976739
21
146.279555
0
LINE
8
Image
10
151.976739
20
146.279555
11
153.756435
21
143.722561
0
LINE
8
Image
10
153.756435
20
143.722561
11
155.430028
21
141.050103
0
LINE
8
Image
10
155.430028
20
141.050103
11
158.580655
21
135.192772
0
LINE
8
Image
10
158.580655
20
135.192772
11
160.243169
21
131.609266
0
LINE
8
Image
10
160.243169
20
131.609266
11
161.697013
21
128.054880
0
LINE
8
Image
10
161.697013
20
128.054880
11
162.951120
21
124.496244
0
LINE
8
Image
10
162.951120
20
124.496244
11
164.014427
21
120.899984
0
LINE
8
Image
10
164.014427
20
120.899984
11
164.895868
21
117.232730
0
LINE
8
Image
10
164.895868
20
117.232730
11
165.604378
21
113.461109
0
LINE
8
Image
10
165.604378
20
113.461109
11
166.148892
21
109.551751
0
LINE
8
Image
10
166.148892
20
109.551751
11
166.538346
21
105.471283
0
LINE
8
Image
10
166.538346
20
105.471283
11
166.911101
21
102.208091
0
LINE
8
Image
10
166.911101
20
102.208091
11
169.952400
21
103.414116
0
LINE
8
Image
10
169.952400
20
103.414116
11
175.572415
21
105.636079
0
LINE
8
Image
10
175.572415
20
105.636079
11
181.443424
21
107.798237
0
LINE
8
Image
10
181.443424
20
107.798237
11
186.444930
21
109.502160
0
LINE
8
Image
10
186.444930
20
109.502160
11
189.456438
21
110.349418
0
LINE
8
Image
10
189.456438
20
110.349418
11
190.812470
21
110.515540
0
LINE
8
Image
10
190.812470
20
110.515540
11
192.022979
21
110.520933
0
LINE
8
Image
10
192.022979
20
110.520933
11
193.077090
21
110.370689
0
LINE
8
Image
10
193.077090
20
110.370689
11
193.963929
21
110.069901
0
LINE
8
Image
10
193.963929
20
110.069901
11
194.672622
21
109.623658
0
LINE
8
Image
10
194.672622
20
109.623658
11
195.192294
21
109.037052
0
LINE
8
Image
10
195.192294
20
109.037052
11
195.512072
21
108.315174
0
LINE
8
Image
10
195.512072
20
108.315174
11
195.621081
21
107.463117
0
LINE
8
Image
10
195.621081
20
107.463117
11
195.321140
21
106.462406
0
LINE
8
Image
10
195.321140
20
106.462406
11
194.407476
21
105.380955
0
LINE
8
Image
10
194.407476
20
105.380955
11
192.859332
21
104.199687
0
LINE
8
Image
10
192.859332
20
104.199687
11
190.655951
21
102.899520
0
LINE
8
Image
10
190.655951
20
102.899520
11
188.681298
21
101.697111
0
LINE
8
Image
10
188.681298
20
101.697111
11
187.859981
21
100.919429
0
LINE
8
Image
10
187.859981
20
100.919429
11
187.963311
21
100.583802
0
LINE
8
Image
10
187.963311
20
100.583802
11
188.211741
21
100.444206
0
LINE
8
Image
10
188.211741
20
100.444206
11
189.000179
21
100.009729
0
LINE
8
Image
10
189.000179
20
100.009729
11
190.257853
21
98.892841
0
LINE
8
Image
10
190.257853
20
98.892841
11
191.698384
21
97.373358
0
LINE
8
Image
10
191.698384
20
97.373358
11
193.035394
21
95.731096
0
LINE
8
Image
10
193.035394
20
95.731096
11
194.244803
21
93.806916
0
LINE
8
Image
10
194.244803
20
93.806916
11
194.491250
21
93.049359
0
LINE
8
Image
10
194.491250
20
93.049359
11
194.562749
21
92.283956
0
LINE
8
Image
10
194.562749
20
92.283956
11
194.519856
21
91.595451
0
LINE
8
Image
10
194.519856
20
91.595451
11
194.363370
21
91.066216
0
LINE
8
Image
10
194.363370
20
91.066216
11
194.051582
21
90.683842
0
LINE
8
Image
10
194.051582
20
90.683842
11
193.542784
21
90.435919
0
LINE
8
Image
10
193.542784
20
90.435919
11
191.767321
21
90.293783
0
LINE
8
Image
10
191.767321
20
90.293783
11
188.703310
21
90.540528
0
LINE
8
Image
10
188.703310
20
90.540528
11
185.644253
21
90.769755
0
LINE
8
Image
10
185.644253
20
90.769755
11
184.283023
21
90.658366
0
LINE
8
Image
10
184.283023
20
90.658366
11
184.280173
21
90.419406
0
LINE
8
Image
10
184.280173
20
90.419406
11
184.540781
21
90.013330
0
LINE
8
Image
10
184.540781
20
90.013330
11
185.741216
21
88.838548
0
LINE
8
Image
10
185.741216
20
88.838548
11
186.907484
21
87.728353
0
LINE
8
Image
10
186.907484
20
87.728353
11
187.820464
21
86.597388
0
LINE
8
Image
10
187.820464
20
86.597388
11
188.471639
21
85.481666
0
LINE
8
Image
10
188.471639
20
85.481666
11
188.852491
21
84.417202
0
LINE
8
Image
10
188.852491
20
84.417202
11
188.954502
21
83.440010
0
LINE
8
Image
10
188.954502
20
83.440010
11
188.769156
21
82.586104
0
LINE
8
Image
10
188.769156
20
82.586104
11
188.287935
21
81.891498
0
LINE
8
Image
10
188.287935
20
81.891498
11
187.502320
21
81.392206
0
LINE
8
Image
10
187.502320
20
81.392206
11
186.603773
21
81.151281
0
LINE
8
Image
10
186.603773
20
81.151281
11
185.575426
21
81.219283
0
LINE
8
Image
10
185.575426
20
81.219283
11
184.174050
21
81.645708
0
LINE
8
Image
10
184.174050
20
81.645708
11
182.156413
21
82.480050
0
LINE
8
Image
10
182.156413
20
82.480050
11
180.214649
21
83.208083
0
LINE
8
Image
10
180.214649
20
83.208083
11
178.849215
21
83.510894
0
LINE
8
Image
10
178.849215
20
83.510894
11
177.051442
21
83.097554
0
LINE
8
Image
10
177.051442
20
83.097554
11
174.070219
21
82.103781
0
LINE
8
Image
10
174.070219
20
82.103781
11
170.460971
21
80.951566
0
LINE
8
Image
10
170.460971
20
80.951566
11
167.153266
21
80.157299
0
LINE
8
Image
10
167.153266
20
80.157299
11
164.849652
21
79.648657
0
LINE
8
Image
10
164.849652
20
79.648657
11
163.654497
21
79.183165
0
LINE
8
Image
10
163.654497
20
79.183165
11
163.185131
21
78.306156
0
LINE
8
Image
10
163.185131
20
78.306156
11
162.626499
21
76.808123
0
LINE
8
Image
10
162.626499
20
76.808123
11
161.466638
21
73.634722
0
LINE
8
Image
10
161.466638
20
73.634722
11
159.913830
21
69.995126
0
LINE
8
Image
10
159.913830
20
69.995126
11
158.180146
21
66.358833
0
LINE
8
Image
10
158.180146
20
66.358833
11
156.477656
21
63.195341
0
LINE
8
Image
10
156.477656
20
63.195341
11
154.222221
21
59.548494
0
LINE
8
Image
10
154.222221
20
59.548494
11
151.806628
21
56.063303
0
LINE
8
Image
10
151.806628
20
56.063303
11
149.235194
21
52.742809
0
LINE
8
Image
10
149.235194
20
52.742809
11
146.512234
21
49.590050
0
LINE
8
Image
10
146.512234
20
49.590050
11
143.642065
21
46.608067
0
LINE
8
Image
10
143.642065
20
46.608067
11
140.629001
21
43.799898
0
LINE
8
Image
10
140.629001
20
43.799898
11
137.477360
21
41.168584
0
LINE
8
Image
10
137.477360
20
41.168584
11
134.191455
21
38.717163
0
LINE
8
Image
10
134.191455
20
38.717163
11
130.775604
21
36.448676
0
LINE
8
Image
10
130.775604
20
36.448676
11
127.234122
21
34.366161
0
LINE
8
Image
10
127.234122
20
34.366161
11
123.571325
21
32.472658
0
LINE
8
Image
10
123.571325
20
32.472658
11
119.791527
21
30.771207
0
LINE
8
Image
10
119.791527
20
30.771207
11
115.899046
21
29.264847
0
LINE
8
Image
10
115.899046
20
29.264847
11
111.898197
21
27.956618
0
LINE
8
Image
10
111.898197
20
27.956618
11
107.793296
21
26.849558
0
LINE
8
Image
10
107.793296
20
26.849558
11
103.588658
21
25.946708
0
LINE
8
Image
10
103.588658
20
25.946708
11
101.386314
21
25.600872
0
LINE
8
Image
10
101.386314
20
25.600872
11
98.891203
21
25.366003
0
LINE
8
Image
10
98.891203
20
25.366003
11
91.551769
21
25.129274
0
LINE
8
Image
10
91.551769
20
25.129274
11
82.203171
21
25.173412
0
LINE
8
Image
10
82.203171
20
25.173412
11
82.203171
21
25.173406
0
LINE
8
Image
10
100.723981
20
27.597473
11
105.650819
21
28.529701
0
LINE
8
Image
10
105.650819
20
28.529701
11
110.452885
21
29.753335
0
LINE
8
Image
10
110.452885
20
29.753335
11
115.120056
21
31.260467
0
LINE
8
Image
10
115.120056
20
31.260467
11
119.642206
21
33.043188
0
LINE
8
Image
10
119.642206
20
33.043188
11
124.009214
21
35.093591
0
LINE
8
Image
10
124.009214
20
35.093591
11
128.210956
21
37.403767
0
LINE
8
Image
10
128.210956
20
37.403767
11
132.237309
21
39.965808
0
LINE
8
Image
10
132.237309
20
39.965808
11
136.078148
21
42.771805
0
LINE
8
Image
10
136.078148
20
42.771805
11
139.723352
21
45.813850
0
LINE
8
Image
10
139.723352
20
45.813850
11
143.162795
21
49.084035
0
LINE
8
Image
10
143.162795
20
49.084035
11
146.386356
21
52.574452
0
LINE
8
Image
10
146.386356
20
52.574452
11
149.383909
21
56.277191
0
LINE
8
Image
10
149.383909
20
56.277191
11
152.145334
21
60.184345
0
LINE
8
Image
10
152.145334
20
60.184345
11
154.660504
21
64.288006
0
LINE
8
Image
10
154.660504
20
64.288006
11
156.919298
21
68.580265
0
LINE
8
Image
10
156.919298
20
68.580265
11
158.911593
21
73.053214
0
LINE
8
Image
10
158.911593
20
73.053214
11
159.828064
21
75.455967
0
LINE
8
Image
10
159.828064
20
75.455967
11
160.087614
21
76.455341
0
LINE
8
Image
10
160.087614
20
76.455341
11
158.009330
21
75.012626
0
LINE
8
Image
10
158.009330
20
75.012626
11
156.356553
21
73.933323
0
LINE
8
Image
10
156.356553
20
73.933323
11
154.898890
21
73.403444
0
LINE
8
Image
10
154.898890
20
73.403444
11
153.617627
21
73.419479
0
LINE
8
Image
10
153.617627
20
73.419479
11
152.494052
21
73.977916
0
LINE
8
Image
10
152.494052
20
73.977916
11
151.785054
21
74.807409
0
LINE
8
Image
10
151.785054
20
74.807409
11
151.540066
21
75.823897
0
LINE
8
Image
10
151.540066
20
75.823897
11
151.758885
21
77.044897
0
LINE
8
Image
10
151.758885
20
77.044897
11
152.441305
21
78.487926
0
LINE
8
Image
10
152.441305
20
78.487926
11
153.001078
21
79.674291
0
LINE
8
Image
10
153.001078
20
79.674291
11
153.058665
21
80.328384
0
LINE
8
Image
10
153.058665
20
80.328384
11
151.421049
21
81.031032
0
LINE
8
Image
10
151.421049
20
81.031032
11
149.884825
21
81.869700
0
LINE
8
Image
10
149.884825
20
81.869700
11
148.069664
21
83.285620
0
LINE
8
Image
10
148.069664
20
83.285620
11
144.817747
21
86.077224
0
LINE
8
Image
10
144.817747
20
86.077224
11
142.469675
21
87.859768
0
LINE
8
Image
10
142.469675
20
87.859768
11
142.229329
21
87.784457
0
LINE
8
Image
10
142.229329
20
87.784457
11
141.920073
21
87.315046
0
LINE
8
Image
10
141.920073
20
87.315046
11
141.092293
21
85.188998
0
LINE
8
Image
10
141.092293
20
85.188998
11
139.495171
21
80.824619
0
LINE
8
Image
10
139.495171
20
80.824619
11
138.933875
21
79.672975
0
LINE
8
Image
10
138.933875
20
79.672975
11
138.560392
21
79.277561
0
LINE
8
Image
10
138.560392
20
79.277561
11
135.990220
21
81.153840
0
LINE
8
Image
10
135.990220
20
81.153840
11
121.064061
21
92.187069
0
LINE
8
Image
10
121.064061
20
92.187069
11
68.268465
21
130.584472
0
LINE
8
Image
10
68.268465
20
130.584472
11
55.424683
21
139.979807
0
LINE
8
Image
10
55.424683
20
139.979807
11
55.324648
21
140.393779
0
LINE
8
Image
10
55.324648
20
140.393779
11
55.796335
21
141.054929
0
LINE
8
Image
10
55.796335
20
141.054929
11
58.876705
21
143.555738
0
LINE
8
Image
10
58.876705
20
143.555738
11
62.146340
21
145.816254
0
LINE
8
Image
10
62.146340
20
145.816254
11
65.506506
21
147.805329
0
LINE
8
Image
10
65.506506
20
147.805329
11
68.955886
21
149.522480
0
LINE
8
Image
10
68.955886
20
149.522480
11
72.493161
21
150.967228
0
LINE
8
Image
10
72.493161
20
150.967228
11
76.117012
21
152.139089
0
LINE
8
Image
10
76.117012
20
152.139089
11
79.826120
21
153.037581
0
LINE
8
Image
10
79.826120
20
153.037581
11
83.619165
21
153.662223
0
LINE
8
Image
10
83.619165
20
153.662223
11
87.494831
21
154.012532
0
LINE
8
Image
10
87.494831
20
154.012532
11
91.728159
21
154.242743
0
LINE
8
Image
10
91.728159
20
154.242743
11
92.666105
21
156.092951
0
LINE
8
Image
10
92.666105
20
156.092951
11
93.273858
21
157.537634
0
LINE
8
Image
10
93.273858
20
157.537634
11
93.755788
21
159.384678
0
LINE
8
Image
10
93.755788
20
159.384678
11
94.669213
21
165.884395
0
LINE
8
Image
10
94.669213
20
165.884395
11
95.183591
21
169.007577
0
LINE
8
Image
10
95.183591
20
169.007577
11
95.912986
21
172.057998
0
LINE
8
Image
10
95.912986
20
172.057998
11
96.451689
21
174.276894
0
LINE
8
Image
10
96.451689
20
174.276894
11
96.492280
21
175.366153
0
LINE
8
Image
10
96.492280
20
175.366153
11
94.172138
21
175.530957
0
LINE
8
Image
10
94.172138
20
175.530957
11
89.019726
21
175.492507
0
LINE
8
Image
10
89.019726
20
175.492507
11
82.065948
21
175.078953
0
LINE
8
Image
10
82.065948
20
175.078953
11
78.865595
21
174.687948
0
LINE
8
Image
10
78.865595
20
174.687948
11
75.774877
21
174.159423
0
LINE
8
Image
10
75.774877
20
174.159423
11
72.737750
21
173.482352
0
LINE
8
Image
10
72.737750
20
173.482352
11
69.698171
21
172.645709
0
LINE
8
Image
10
69.698171
20
172.645709
11
63.387491
21
170.449605
0
LINE
8
Image
10
63.387491
20
170.449605
11
59.644908
21
168.877408
0
LINE
8
Image
10
59.644908
20
168.877408
11
56.037202
21
167.133935
0
LINE
8
Image
10
56.037202
20
167.133935
11
52.561206
21
165.217086
0
LINE
8
Image
10
52.561206
20
165.217086
11
49.213759
21
163.124761
0
LINE
8
Image
10
49.213759
20
163.124761
11
45.991695
21
160.854857
0
LINE
8
Image
10
45.991695
20
160.854857
11
42.891850
21
158.405275
0
LINE
8
Image
10
42.891850
20
158.405275
11
39.911062
21
155.773914
0
LINE
8
Image
10
39.911062
20
155.773914
11
37.046166
21
152.958672
0
LINE
8
Image
10
37.046166
20
152.958672
11
33.038052
21
148.496426
0
LINE
8
Image
10
33.038052
20
148.496426
11
29.530917
21
143.900768
0
LINE
8
Image
10
29.530917
20
143.900768
11
26.414646
21
139.014053
0
LINE
8
Image
10
26.414646
20
139.014053
11
23.579124
21
133.678635
0
LINE
8
Image
10
23.579124
20
133.678635
11
22.119972
21
130.407747
0
LINE
8
Image
10
22.119972
20
130.407747
11
21.937728
21
129.623013
0
LINE
8
Image
10
21.937728
20
129.623013
11
22.050451
21
129.200595
0
LINE
8
Image
10
22.050451
20
129.200595
11
25.168141
21
127.038004
0
LINE
8
Image
10
25.168141
20
127.038004
11
30.760364
21
123.308355
0
LINE
8
Image
10
30.760364
20
123.308355
11
33.645269
21
121.246830
0
LINE
8
Image
10
33.645269
20
121.246830
11
36.823040
21
121.760796
0
LINE
8
Image
10
36.823040
20
121.760796
11
39.361144
21
122.275718
0
LINE
8
Image
10
39.361144
20
122.275718
11
41.000996
21
122.791979
0
LINE
8
Image
10
41.000996
20
122.791979
11
41.359101
21
123.010535
0
LINE
8
Image
10
41.359101
20
123.010535
11
41.748901
21
123.076611
0
LINE
8
Image
10
41.748901
20
123.076611
11
42.467643
21
122.790498
0
LINE
8
Image
10
42.467643
20
122.790498
11
43.812577
21
121.952484
0
LINE
8
Image
10
43.812577
20
121.952484
11
49.570019
21
117.821921
0
LINE
8
Image
10
49.570019
20
117.821921
11
61.399218
21
109.087244
0
LINE
8
Image
10
61.399218
20
109.087244
11
107.267698
21
75.220620
0
LINE
8
Image
10
107.267698
20
75.220620
11
122.314082
21
63.983872
0
LINE
8
Image
10
122.314082
20
63.983872
11
124.609798
21
62.037583
0
LINE
8
Image
10
124.609798
20
62.037583
11
124.971904
21
61.573341
0
LINE
8
Image
10
124.971904
20
61.573341
11
125.008697
21
61.292513
0
LINE
8
Image
10
125.008697
20
61.292513
11
123.897205
21
60.191751
0
LINE
8
Image
10
123.897205
20
60.191751
11
121.425882
21
58.398660
0
LINE
8
Image
10
121.425882
20
58.398660
11
118.290755
21
56.385748
0
LINE
8
Image
10
118.290755
20
56.385748
11
115.187849
21
54.625519
0
LINE
8
Image
10
115.187849
20
54.625519
11
111.572029
21
52.920314
0
LINE
8
Image
10
111.572029
20
52.920314
11
107.805488
21
51.452326
0
LINE
8
Image
10
107.805488
20
51.452326
11
104.018024
21
50.267142
0
LINE
8
Image
10
104.018024
20
50.267142
11
100.339436
21
49.410352
0
LINE
8
Image
10
100.339436
20
49.410352
11
95.771814
21
48.889001
0
LINE
8
Image
10
95.771814
20
48.889001
11
90.271112
21
48.747295
0
LINE
8
Image
10
90.271112
20
48.747295
11
84.820356
21
48.977308
0
LINE
8
Image
10
84.820356
20
48.977308
11
80.402575
21
49.571113
0
LINE
8
Image
10
80.402575
20
49.571113
11
76.429499
21
50.559338
0
LINE
8
Image
10
76.429499
20
50.559338
11
72.664627
21
51.763959
0
LINE
8
Image
10
72.664627
20
51.763959
11
69.089652
21
53.194827
0
LINE
8
Image
10
69.089652
20
53.194827
11
65.686268
21
54.861790
0
LINE
8
Image
10
65.686268
20
54.861790
11
62.436169
21
56.774700
0
LINE
8
Image
10
62.436169
20
56.774700
11
59.321048
21
58.943404
0
LINE
8
Image
10
59.321048
20
58.943404
11
56.322598
21
61.377754
0
LINE
8
Image
10
56.322598
20
61.377754
11
53.422514
21
64.087599
0
LINE
8
Image
10
53.422514
20
64.087599
11
50.537186
21
67.160584
0
LINE
8
Image
10
50.537186
20
67.160584
11
47.972604
21
70.309034
0
LINE
8
Image
10
47.972604
20
70.309034
11
45.715652
21
73.557777
0
LINE
8
Image
10
45.715652
20
73.557777
11
43.753214
21
76.931645
0
LINE
8
Image
10
43.753214
20
76.931645
11
42.072175
21
80.455467
0
LINE
8
Image
10
42.072175
20
80.455467
11
40.659420
21
84.154072
0
LINE
8
Image
10
40.659420
20
84.154072
11
39.501833
21
88.052292
0
LINE
8
Image
10
39.501833
20
88.052292
11
38.586298
21
92.174955
0
LINE
8
Image
10
38.586298
20
92.174955
11
37.837983
21
96.149540
0
LINE
8
Image
10
37.837983
20
96.149540
11
36.560883
21
96.381150
0
LINE
8
Image
10
36.560883
20
96.381150
11
32.363237
21
97.514883
0
LINE
8
Image
10
32.363237
20
97.514883
11
29.845295
21
98.148632
0
LINE
8
Image
10
29.845295
20
98.148632
11
27.841093
21
98.214481
0
LINE
8
Image
10
27.841093
20
98.214481
11
25.931532
21
97.660117
0
LINE
8
Image
10
25.931532
20
97.660117
11
23.697512
21
96.433228
0
LINE
8
Image
10
23.697512
20
96.433228
11
18.759417
21
93.715929
0
LINE
8
Image
10
18.759417
20
93.715929
11
17.257480
21
93.019417
0
LINE
8
Image
10
17.257480
20
93.019417
11
16.857208
21
92.670746
0
LINE
8
Image
10
16.857208
20
92.670746
11
16.667845
21
92.160622
0
LINE
8
Image
10
16.667845
20
92.160622
11
16.853181
21
90.172484
0
LINE
8
Image
10
16.853181
20
90.172484
11
17.676153
21
86.087943
0
LINE
8
Image
10
17.676153
20
86.087943
11
19.082599
21
80.421430
0
LINE
8
Image
10
19.082599
20
80.421430
11
21.001088
21
74.789309
0
LINE
8
Image
10
21.001088
20
74.789309
11
23.392589
21
69.259261
0
LINE
8
Image
10
23.392589
20
69.259261
11
26.218067
21
63.898969
0
LINE
8
Image
10
26.218067
20
63.898969
11
29.438489
21
58.776113
0
LINE
8
Image
10
29.438489
20
58.776113
11
33.014819
21
53.958376
0
LINE
8
Image
10
33.014819
20
53.958376
11
36.908026
21
49.513440
0
LINE
8
Image
10
36.908026
20
49.513440
11
41.079075
21
45.508986
0
LINE
8
Image
10
41.079075
20
45.508986
11
45.388765
21
42.092339
0
LINE
8
Image
10
45.388765
20
42.092339
11
50.221185
21
38.897383
0
LINE
8
Image
10
50.221185
20
38.897383
11
55.465156
21
35.971940
0
LINE
8
Image
10
55.465156
20
35.971940
11
61.009500
21
33.363833
0
LINE
8
Image
10
61.009500
20
33.363833
11
66.743040
21
31.120883
0
LINE
8
Image
10
66.743040
20
31.120883
11
72.554597
21
29.290912
0
LINE
8
Image
10
72.554597
20
29.290912
11
78.332995
21
27.921741
0
LINE
8
Image
10
78.332995
20
27.921741
11
83.967055
21
27.061193
0
LINE
8
Image
10
83.967055
20
27.061193
11
87.638505
21
26.869398
0
LINE
8
Image
10
87.638505
20
26.869398
11
92.183887
21
26.911768
0
LINE
8
Image
10
92.183887
20
26.911768
11
96.810084
21
27.162920
0
LINE
8
Image
10
96.810084
20
27.162920
11
100.723981
21
27.597473
0
LINE
8
Image
10
100.723981
20
27.597473
11
100.723981
21
27.597473
0
LINE
8
Image
10
94.367453
20
50.714331
11
99.174566
21
51.371586
0
LINE
8
Image
10
99.174566
20
51.371586
11
104.032877
21
52.454484
0
LINE
8
Image
10
104.032877
20
52.454484
11
108.581822
21
53.867367
0
LINE
8
Image
10
108.581822
20
53.867367
11
112.460837
21
55.514573
0
LINE
8
Image
10
112.460837
20
55.514573
11
114.143540
21
56.366025
0
LINE
8
Image
10
114.143540
20
56.366025
11
111.366609
21
59.090552
0
LINE
8
Image
10
111.366609
20
59.090552
11
109.305181
21
61.273660
0
LINE
8
Image
10
109.305181
20
61.273660
11
107.835922
21
63.222606
0
LINE
8
Image
10
107.835922
20
63.222606
11
106.892469
21
65.041013
0
LINE
8
Image
10
106.892469
20
65.041013
11
106.408459
21
66.832505
0
LINE
8
Image
10
106.408459
20
66.832505
11
106.102067
21
68.055003
0
LINE
8
Image
10
106.102067
20
68.055003
11
105.912037
21
68.350764
0
LINE
8
Image
10
105.912037
20
68.350764
11
105.704269
21
68.420823
0
LINE
8
Image
10
105.704269
20
68.420823
11
103.343244
21
68.094296
0
LINE
8
Image
10
103.343244
20
68.094296
11
99.973245
21
67.845556
0
LINE
8
Image
10
99.973245
20
67.845556
11
96.283411
21
67.711929
0
LINE
8
Image
10
96.283411
20
67.711929
11
92.962877
21
67.730741
0
LINE
8
Image
10
92.962877
20
67.730741
11
89.216694
21
68.036324
0
LINE
8
Image
10
89.216694
20
68.036324
11
85.180038
21
68.622143
0
LINE
8
Image
10
85.180038
20
68.622143
11
81.562304
21
69.365053
0
LINE
8
Image
10
81.562304
20
69.365053
11
79.072889
21
70.141909
0
LINE
8
Image
10
79.072889
20
70.141909
11
78.752049
21
70.328789
0
LINE
8
Image
10
78.752049
20
70.328789
11
79.176687
21
70.339370
0
LINE
8
Image
10
79.176687
20
70.339370
11
83.437889
21
69.717285
0
LINE
8
Image
10
83.437889
20
69.717285
11
87.357638
21
69.386507
0
LINE
8
Image
10
87.357638
20
69.386507
11
92.322275
21
69.346174
0
LINE
8
Image
10
92.322275
20
69.346174
11
97.430825
21
69.579064
0
LINE
8
Image
10
97.430825
20
69.579064
11
101.782313
21
70.067956
0
LINE
8
Image
10
101.782313
20
70.067956
11
107.047941
21
71.066895
0
LINE
8
Image
10
107.047941
20
71.066895
11
108.039859
21
71.425938
0
LINE
8
Image
10
108.039859
20
71.425938
11
108.308691
21
71.789169
0
LINE
8
Image
10
108.308691
20
71.789169
11
108.269999
21
71.960668
0
LINE
8
Image
10
108.269999
20
71.960668
11
107.925090
21
72.321902
0
LINE
8
Image
10
107.925090
20
72.321902
11
104.943633
21
74.646692
0
LINE
8
Image
10
104.943633
20
74.646692
11
80.203227
21
92.937404
0
LINE
8
Image
10
80.203227
20
92.937404
11
60.564417
21
107.415812
0
LINE
8
Image
10
60.564417
20
107.415812
11
59.411261
21
106.226056
0
LINE
8
Image
10
59.411261
20
106.226056
11
58.258105
21
105.036301
0
LINE
8
Image
10
58.258105
20
105.036301
11
59.070689
21
102.734550
0
LINE
8
Image
10
59.070689
20
102.734550
11
59.634265
21
100.647574
0
LINE
8
Image
10
59.634265
20
100.647574
11
59.817787
21
98.716930
0
LINE
8
Image
10
59.817787
20
98.716930
11
59.640141
21
96.980548
0
LINE
8
Image
10
59.640141
20
96.980548
11
59.120211
21
95.476361
0
LINE
8
Image
10
59.120211
20
95.476361
11
58.276881
21
94.242300
0
LINE
8
Image
10
58.276881
20
94.242300
11
57.129037
21
93.316297
0
LINE
8
Image
10
57.129037
20
93.316297
11
55.695562
21
92.736284
0
LINE
8
Image
10
55.695562
20
92.736284
11
53.995342
21
92.540191
0
LINE
8
Image
10
53.995342
20
92.540191
11
52.125469
21
92.755514
0
LINE
8
Image
10
52.125469
20
92.755514
11
49.949998
21
93.334919
0
LINE
8
Image
10
49.949998
20
93.334919
11
47.704152
21
94.201480
0
LINE
8
Image
10
47.704152
20
94.201480
11
45.623153
21
95.278271
0
LINE
8
Image
10
45.623153
20
95.278271
11
44.553846
21
95.881669
0
LINE
8
Image
10
44.553846
20
95.881669
11
43.734116
21
96.203726
0
LINE
8
Image
10
43.734116
20
96.203726
11
42.943916
21
96.301876
0
LINE
8
Image
10
42.943916
20
96.301876
11
41.963202
21
96.233553
0
LINE
8
Image
10
41.963202
20
96.233553
11
40.222667
21
96.033020
0
LINE
8
Image
10
40.222667
20
96.033020
11
40.332911
21
94.316371
0
LINE
8
Image
10
40.332911
20
94.316371
11
40.562991
21
92.469223
0
LINE
8
Image
10
40.562991
20
92.469223
11
41.018692
21
90.304702
0
LINE
8
Image
10
41.018692
20
90.304702
11
42.476652
21
85.401509
0
LINE
8
Image
10
42.476652
20
85.401509
11
44.446183
21
80.362724
0
LINE
8
Image
10
44.446183
20
80.362724
11
46.666676
21
75.944283
0
LINE
8
Image
10
46.666676
20
75.944283
11
48.319306
21
73.311051
0
LINE
8
Image
10
48.319306
20
73.311051
11
50.119064
21
70.796966
0
LINE
8
Image
10
50.119064
20
70.796966
11
52.058537
21
68.406708
0
LINE
8
Image
10
52.058537
20
68.406708
11
54.130312
21
66.144956
0
LINE
8
Image
10
54.130312
20
66.144956
11
56.326975
21
64.016388
0
LINE
8
Image
10
56.326975
20
64.016388
11
58.641116
21
62.025684
0
LINE
8
Image
10
58.641116
20
62.025684
11
61.065319
21
60.177523
0
LINE
8
Image
10
61.065319
20
60.177523
11
63.592173
21
58.476582
0
LINE
8
Image
10
63.592173
20
58.476582
11
66.214265
21
56.927543
0
LINE
8
Image
10
66.214265
20
56.927543
11
68.924182
21
55.535082
0
LINE
8
Image
10
68.924182
20
55.535082
11
71.714511
21
54.303880
0
LINE
8
Image
10
71.714511
20
54.303880
11
74.577839
21
53.238615
0
LINE
8
Image
10
74.577839
20
53.238615
11
77.506753
21
52.343966
0
LINE
8
Image
10
77.506753
20
52.343966
11
80.493841
21
51.624612
0
LINE
8
Image
10
80.493841
20
51.624612
11
83.531689
21
51.085232
0
LINE
8
Image
10
83.531689
20
51.085232
11
86.612885
21
50.730505
0
LINE
8
Image
10
86.612885
20
50.730505
11
90.140661
21
50.402200
0
LINE
8
Image
10
90.140661
20
50.402200
11
94.367453
21
50.714331
0
LINE
8
Image
10
94.367453
20
50.714331
11
94.367453
21
50.714331
0
LINE
8
Image
10
119.874951
20
59.743877
11
121.224490
21
60.686568
0
LINE
8
Image
10
121.224490
20
60.686568
11
121.865502
21
61.254020
0
LINE
8
Image
10
121.865502
20
61.254020
11
121.952210
21
61.650521
0
LINE
8
Image
10
121.952210
20
61.650521
11
121.638835
21
62.080359
0
LINE
8
Image
10
121.638835
20
62.080359
11
116.278066
21
66.315875
0
LINE
8
Image
10
116.278066
20
66.315875
11
113.581467
21
68.304940
0
LINE
8
Image
10
113.581467
20
68.304940
11
112.022833
21
69.322685
0
LINE
8
Image
10
112.022833
20
69.322685
11
111.094288
21
69.642169
0
LINE
8
Image
10
111.094288
20
69.642169
11
110.287958
21
69.536451
0
LINE
8
Image
10
110.287958
20
69.536451
11
109.469252
21
69.202560
0
LINE
8
Image
10
109.469252
20
69.202560
11
108.928336
21
68.686137
0
LINE
8
Image
10
108.928336
20
68.686137
11
108.663105
21
68.000508
0
LINE
8
Image
10
108.663105
20
68.000508
11
108.671457
21
67.158996
0
LINE
8
Image
10
108.671457
20
67.158996
11
108.951288
21
66.174926
0
LINE
8
Image
10
108.951288
20
66.174926
11
109.500494
21
65.061624
0
LINE
8
Image
10
109.500494
20
65.061624
11
110.316972
21
63.832414
0
LINE
8
Image
10
110.316972
20
63.832414
11
111.398619
21
62.500620
0
LINE
8
Image
10
111.398619
20
62.500620
11
112.922060
21
60.935799
0
LINE
8
Image
10
112.922060
20
60.935799
11
114.543735
21
59.524475
0
LINE
8
Image
10
114.543735
20
59.524475
11
115.967003
21
58.503594
0
LINE
8
Image
10
115.967003
20
58.503594
11
116.895222
21
58.110106
0
LINE
8
Image
10
116.895222
20
58.110106
11
118.012111
21
58.589660
0
LINE
8
Image
10
118.012111
20
58.589660
11
119.874951
21
59.743877
0
LINE
8
Image
10
119.874951
20
59.743877
11
119.874951
21
59.743877
0
LINE
8
Image
10
155.388461
20
75.044233
11
157.958453
21
76.922063
0
LINE
8
Image
10
157.958453
20
76.922063
11
160.445871
21
78.698296
0
LINE
8
Image
10
160.445871
20
78.698296
11
163.868831
21
80.882398
0
LINE
8
Image
10
163.868831
20
80.882398
11
167.015549
21
82.730604
0
LINE
8
Image
10
167.015549
20
82.730604
11
168.674240
21
83.499152
0
LINE
8
Image
10
168.674240
20
83.499152
11
168.646855
21
83.284462
0
LINE
8
Image
10
168.646855
20
83.284462
11
168.142668
21
82.784775
0
LINE
8
Image
10
168.142668
20
82.784775
11
167.603269
21
82.232057
0
LINE
8
Image
10
167.603269
20
82.232057
11
167.491218
21
81.889865
0
LINE
8
Image
10
167.491218
20
81.889865
11
168.245532
21
81.941717
0
LINE
8
Image
10
168.245532
20
81.941717
11
170.066961
21
82.453437
0
LINE
8
Image
10
170.066961
20
82.453437
11
176.521726
21
84.733839
0
LINE
8
Image
10
176.521726
20
84.733839
11
179.884725
21
85.859994
0
LINE
8
Image
10
179.884725
20
85.859994
11
181.813386
21
86.249108
0
LINE
8
Image
10
181.813386
20
86.249108
11
182.744711
21
86.125739
0
LINE
8
Image
10
182.744711
20
86.125739
11
181.774572
21
85.643631
0
LINE
8
Image
10
181.774572
20
85.643631
11
180.804433
21
84.938862
0
LINE
8
Image
10
180.804433
20
84.938862
11
181.375031
21
84.484419
0
LINE
8
Image
10
181.375031
20
84.484419
11
182.722901
21
83.783081
0
LINE
8
Image
10
182.722901
20
83.783081
11
184.302161
21
83.094125
0
LINE
8
Image
10
184.302161
20
83.094125
11
185.566927
21
82.676828
0
LINE
8
Image
10
185.566927
20
82.676828
11
186.468457
21
82.574804
0
LINE
8
Image
10
186.468457
20
82.574804
11
187.079590
21
82.700767
0
LINE
8
Image
10
187.079590
20
82.700767
11
187.402664
21
83.040554
0
LINE
8
Image
10
187.402664
20
83.040554
11
187.440016
21
83.580003
0
LINE
8
Image
10
187.440016
20
83.580003
11
187.193983
21
84.304951
0
LINE
8
Image
10
187.193983
20
84.304951
11
186.666903
21
85.201235
0
LINE
8
Image
10
186.666903
20
85.201235
11
184.778952
21
87.451162
0
LINE
8
Image
10
184.778952
20
87.451162
11
182.444912
21
89.868810
0
LINE
8
Image
10
182.444912
20
89.868810
11
180.654534
21
89.632167
0
LINE
8
Image
10
180.654534
20
89.632167
11
179.208889
21
89.522832
0
LINE
8
Image
10
179.208889
20
89.522832
11
179.136606
21
89.676612
0
LINE
8
Image
10
179.136606
20
89.676612
11
179.369724
21
90.006764
0
LINE
8
Image
10
179.369724
20
90.006764
11
180.223581
21
90.732573
0
LINE
8
Image
10
180.223581
20
90.732573
11
181.458509
21
91.396299
0
LINE
8
Image
10
181.458509
20
91.396299
11
182.897623
21
91.919432
0
LINE
8
Image
10
182.897623
20
91.919432
11
184.364038
21
92.223461
0
LINE
8
Image
10
184.364038
20
92.223461
11
186.530540
21
92.235943
0
LINE
8
Image
10
186.530540
20
92.235943
11
189.285477
21
91.975481
0
LINE
8
Image
10
189.285477
20
91.975481
11
191.589394
21
91.716476
0
LINE
8
Image
10
191.589394
20
91.716476
11
192.671526
21
91.732612
0
LINE
8
Image
10
192.671526
20
91.732612
11
192.785460
21
92.187203
0
LINE
8
Image
10
192.785460
20
92.187203
11
192.587372
21
92.923949
0
LINE
8
Image
10
192.587372
20
92.923949
11
191.466424
21
94.932380
0
LINE
8
Image
10
191.466424
20
94.932380
11
189.731268
21
97.134861
0
LINE
8
Image
10
189.731268
20
97.134861
11
187.804495
21
98.908347
0
LINE
8
Image
10
187.804495
20
98.908347
11
186.272483
21
100.008520
0
LINE
8
Image
10
186.272483
20
100.008520
11
184.531024
21
99.168027
0
LINE
8
Image
10
184.531024
20
99.168027
11
182.486104
21
98.327537
0
LINE
8
Image
10
182.486104
20
98.327537
11
182.392957
21
98.373706
0
LINE
8
Image
10
182.392957
20
98.373706
11
182.426545
21
98.505768
0
LINE
8
Image
10
182.426545
20
98.505768
11
182.825899
21
98.988902
0
LINE
8
Image
10
182.825899
20
98.988902
11
184.617146
21
100.560504
0
LINE
8
Image
10
184.617146
20
100.560504
11
187.091435
21
102.423605
0
LINE
8
Image
10
187.091435
20
102.423605
11
189.480359
21
103.959464
0
LINE
8
Image
10
189.480359
20
103.959464
11
191.989895
21
105.483034
0
LINE
8
Image
10
191.989895
20
105.483034
11
193.518784
21
106.633096
0
LINE
8
Image
10
193.518784
20
106.633096
11
194.349334
21
107.517176
0
LINE
8
Image
10
194.349334
20
107.517176
11
193.575701
21
108.290809
0
LINE
8
Image
10
193.575701
20
108.290809
11
192.688619
21
108.825426
0
LINE
8
Image
10
192.688619
20
108.825426
11
191.421983
21
108.993784
0
LINE
8
Image
10
191.421983
20
108.993784
11
189.715081
21
108.795267
0
LINE
8
Image
10
189.715081
20
108.795267
11
187.507205
21
108.229259
0
LINE
8
Image
10
187.507205
20
108.229259
11
177.594018
21
104.692249
0
LINE
8
Image
10
177.594018
20
104.692249
11
167.018720
21
100.501327
0
LINE
8
Image
10
167.018720
20
100.501327
11
160.895659
21
97.968322
0
LINE
8
Image
10
160.895659
20
97.968322
11
159.270053
21
97.446542
0
LINE
8
Image
10
159.270053
20
97.446542
11
158.485542
21
97.378726
0
LINE
8
Image
10
158.485542
20
97.378726
11
158.416187
21
97.485851
0
LINE
8
Image
10
158.416187
20
97.485851
11
158.549098
21
97.655926
0
LINE
8
Image
10
158.549098
20
97.655926
11
159.313100
21
98.091388
0
LINE
8
Image
10
159.313100
20
98.091388
11
160.264273
21
98.557398
0
LINE
8
Image
10
160.264273
20
98.557398
11
160.894136
21
99.028041
0
LINE
8
Image
10
160.894136
20
99.028041
11
161.185024
21
99.552447
0
LINE
8
Image
10
161.185024
20
99.552447
11
161.119270
21
100.179742
0
LINE
8
Image
10
161.119270
20
100.179742
11
160.679207
21
100.959057
0
LINE
8
Image
10
160.679207
20
100.959057
11
159.847170
21
101.939517
0
LINE
8
Image
10
159.847170
20
101.939517
11
156.936504
21
104.700391
0
LINE
8
Image
10
156.936504
20
104.700391
11
154.452592
21
107.065485
0
LINE
8
Image
10
154.452592
20
107.065485
11
152.177554
21
109.630250
0
LINE
8
Image
10
152.177554
20
109.630250
11
149.569397
21
113.060028
0
LINE
8
Image
10
149.569397
20
113.060028
11
146.086127
21
118.020164
0
LINE
8
Image
10
146.086127
20
118.020164
11
143.909346
21
121.005038
0
LINE
8
Image
10
143.909346
20
121.005038
11
141.985160
21
123.265915
0
LINE
8
Image
10
141.985160
20
123.265915
11
140.256864
21
124.862685
0
LINE
8
Image
10
140.256864
20
124.862685
11
138.667752
21
125.855242
0
LINE
8
Image
10
138.667752
20
125.855242
11
137.346531
21
126.306647
0
LINE
8
Image
10
137.346531
20
126.306647
11
136.864317
21
126.241654
0
LINE
8
Image
10
136.864317
20
126.241654
11
136.304039
21
125.994468
0
LINE
8
Image
10
136.304039
20
125.994468
11
135.515983
21
125.458692
0
LINE
8
Image
10
135.515983
20
125.458692
11
134.987373
21
124.876978
0
LINE
8
Image
10
134.987373
20
124.876978
11
134.677521
21
124.510044
0
LINE
8
Image
10
134.677521
20
124.510044
11
134.415414
21
124.490657
0
LINE
8
Image
10
134.415414
20
124.490657
11
135.351738
21
125.879243
0
LINE
8
Image
10
135.351738
20
125.879243
11
137.923226
21
128.897435
0
LINE
8
Image
10
137.923226
20
128.897435
11
140.379411
21
131.792127
0
LINE
8
Image
10
140.379411
20
131.792127
11
142.060453
21
134.176782
0
LINE
8
Image
10
142.060453
20
134.176782
11
143.142853
21
136.342001
0
LINE
8
Image
10
143.142853
20
136.342001
11
143.803112
21
138.578387
0
LINE
8
Image
10
143.803112
20
138.578387
11
144.023371
21
140.003706
0
LINE
8
Image
10
144.023371
20
140.003706
11
144.047088
21
141.387365
0
LINE
8
Image
10
144.047088
20
141.387365
11
143.858405
21
142.772753
0
LINE
8
Image
10
143.858405
20
142.772753
11
143.441465
21
144.203255
0
LINE
8
Image
10
143.441465
20
144.203255
11
142.780410
21
145.722257
0
LINE
8
Image
10
142.780410
20
145.722257
11
141.859385
21
147.373147
0
LINE
8
Image
10
141.859385
20
147.373147
11
139.173994
21
151.244137
0
LINE
8
Image
10
139.173994
20
151.244137
11
136.420783
21
155.359442
0
LINE
8
Image
10
136.420783
20
155.359442
11
133.966668
21
160.071941
0
LINE
8
Image
10
133.966668
20
160.071941
11
131.732519
21
165.553700
0
LINE
8
Image
10
131.732519
20
165.553700
11
129.639201
21
171.976787
0
LINE
8
Image
10
129.639201
20
171.976787
11
128.676158
21
174.426068
0
LINE
8
Image
10
128.676158
20
174.426068
11
127.301213
21
176.645803
0
LINE
8
Image
10
127.301213
20
176.645803
11
125.782425
21
178.478393
0
LINE
8
Image
10
125.782425
20
178.478393
11
124.168309
21
180.059261
0
LINE
8
Image
10
124.168309
20
180.059261
11
122.453643
21
181.391090
0
LINE
8
Image
10
122.453643
20
181.391090
11
120.633203
21
182.476563
0
LINE
8
Image
10
120.633203
20
182.476563
11
118.701766
21
183.318365
0
LINE
8
Image
10
118.701766
20
183.318365
11
116.654109
21
183.919176
0
LINE
8
Image
10
116.654109
20
183.919176
11
114.485009
21
184.281682
0
LINE
8
Image
10
114.485009
20
184.281682
11
112.189243
21
184.408564
0
LINE
8
Image
10
112.189243
20
184.408564
11
110.992306
21
184.493061
0
LINE
8
Image
10
110.992306
20
184.493061
11
110.816169
21
184.592845
0
LINE
8
Image
10
110.816169
20
184.592845
11
110.922531
21
184.730746
0
LINE
8
Image
10
110.922531
20
184.730746
11
111.402112
21
184.903737
0
LINE
8
Image
10
111.402112
20
184.903737
11
111.856985
21
184.877683
0
LINE
8
Image
10
111.856985
20
184.877683
11
112.429904
21
184.802481
0
LINE
8
Image
10
112.429904
20
184.802481
11
112.312988
21
185.230951
0
LINE
8
Image
10
112.312988
20
185.230951
11
110.576630
21
187.079292
0
LINE
8
Image
10
110.576630
20
187.079292
11
107.781878
21
189.383484
0
LINE
8
Image
10
107.781878
20
189.383484
11
106.341967
21
190.381768
0
LINE
8
Image
10
106.341967
20
190.381768
11
105.062695
21
191.104306
0
LINE
8
Image
10
105.062695
20
191.104306
11
103.736298
21
191.554504
0
LINE
8
Image
10
103.736298
20
191.554504
11
102.257303
21
191.780103
0
LINE
8
Image
10
102.257303
20
191.780103
11
100.815435
21
191.767283
0
LINE
8
Image
10
100.815435
20
191.767283
11
99.600418
21
191.502224
0
LINE
8
Image
10
99.600418
20
191.502224
11
98.658091
21
190.962916
0
LINE
8
Image
10
98.658091
20
190.962916
11
97.707200
21
190.064312
0
LINE
8
Image
10
97.707200
20
190.064312
11
96.756201
21
188.815959
0
LINE
8
Image
10
96.756201
20
188.815959
11
95.813548
21
187.227400
0
LINE
8
Image
10
95.813548
20
187.227400
11
94.805706
21
185.625945
0
LINE
8
Image
10
94.805706
20
185.625945
11
93.761134
21
184.662095
0
LINE
8
Image
10
93.761134
20
184.662095
11
92.529026
21
184.244330
0
LINE
8
Image
10
92.529026
20
184.244330
11
90.958574
21
184.281133
0
LINE
8
Image
10
90.958574
20
184.281133
11
88.662766
21
184.807817
0
LINE
8
Image
10
88.662766
20
184.807817
11
88.061406
21
184.969937
0
LINE
8
Image
10
88.061406
20
184.969937
11
87.893101
21
184.664698
0
LINE
8
Image
10
87.893101
20
184.664698
11
88.151498
21
183.963098
0
LINE
8
Image
10
88.151498
20
183.963098
11
88.830244
21
182.936129
0
LINE
8
Image
10
88.830244
20
182.936129
11
90.128997
21
181.527648
0
LINE
8
Image
10
90.128997
20
181.527648
11
91.740145
21
180.296409
0
LINE
8
Image
10
91.740145
20
180.296409
11
93.640564
21
179.257365
0
LINE
8
Image
10
93.640564
20
179.257365
11
95.807126
21
178.425465
0
LINE
8
Image
10
95.807126
20
178.425465
11
98.263478
21
177.650229
0
LINE
8
Image
10
98.263478
20
177.650229
11
99.632689
21
178.734665
0
LINE
8
Image
10
99.632689
20
178.734665
11
101.181929
21
179.763919
0
LINE
8
Image
10
101.181929
20
179.763919
11
101.154975
21
179.483613
0
LINE
8
Image
10
101.154975
20
179.483613
11
100.605839
21
178.672573
0
LINE
8
Image
10
100.605839
20
178.672573
11
99.773589
21
177.415497
0
LINE
8
Image
10
99.773589
20
177.415497
11
99.015607
21
175.966660
0
LINE
8
Image
10
99.015607
20
175.966660
11
97.732012
21
172.525921
0
LINE
8
Image
10
97.732012
20
172.525921
11
96.774176
21
168.414786
0
LINE
8
Image
10
96.774176
20
168.414786
11
96.161223
21
163.697691
0
LINE
8
Image
10
96.161223
20
163.697691
11
95.628048
21
159.431168
0
LINE
8
Image
10
95.628048
20
159.431168
11
95.235525
21
157.723883
0
LINE
8
Image
10
95.235525
20
157.723883
11
94.712675
21
156.185989
0
LINE
8
Image
10
94.712675
20
156.185989
11
94.024723
21
154.731540
0
LINE
8
Image
10
94.024723
20
154.731540
11
93.136893
21
153.274592
0
LINE
8
Image
10
93.136893
20
153.274592
11
90.622493
21
150.009415
0
LINE
8
Image
10
90.622493
20
150.009415
11
88.587427
21
147.373675
0
LINE
8
Image
10
88.587427
20
147.373675
11
87.309113
21
145.123410
0
LINE
8
Image
10
87.309113
20
145.123410
11
86.645958
21
142.934901
0
LINE
8
Image
10
86.645958
20
142.934901
11
86.456371
21
140.484427
0
LINE
8
Image
10
86.456371
20
140.484427
11
86.639186
21
137.805829
0
LINE
8
Image
10
86.639186
20
137.805829
11
86.931790
21
136.750304
0
LINE
8
Image
10
86.931790
20
136.750304
11
87.415487
21
135.593475
0
LINE
8
Image
10
87.415487
20
135.593475
11
88.528613
21
133.389261
0
LINE
8
Image
10
88.528613
20
133.389261
11
89.781105
21
131.235958
0
LINE
8
Image
10
89.781105
20
131.235958
11
91.058219
21
129.318231
0
LINE
8
Image
10
91.058219
20
129.318231
11
92.245212
21
127.820744
0
LINE
8
Image
10
92.245212
20
127.820744
11
93.060724
21
126.767490
0
LINE
8
Image
10
93.060724
20
126.767490
11
92.991682
21
126.686413
0
LINE
8
Image
10
92.991682
20
126.686413
11
92.658191
21
126.866702
0
LINE
8
Image
10
92.658191
20
126.866702
11
91.358106
21
127.904375
0
LINE
8
Image
10
91.358106
20
127.904375
11
89.480965
21
129.666507
0
LINE
8
Image
10
89.480965
20
129.666507
11
88.285219
21
130.973363
0
LINE
8
Image
10
88.285219
20
130.973363
11
87.242297
21
132.351020
0
LINE
8
Image
10
87.242297
20
132.351020
11
86.358586
21
133.784452
0
LINE
8
Image
10
86.358586
20
133.784452
11
85.640474
21
135.258634
0
LINE
8
Image
10
85.640474
20
135.258634
11
85.094347
21
136.758540
0
LINE
8
Image
10
85.094347
20
136.758540
11
84.726593
21
138.269144
0
LINE
8
Image
10
84.726593
20
138.269144
11
84.543599
21
139.775422
0
LINE
8
Image
10
84.543599
20
139.775422
11
84.551752
21
141.262346
0
LINE
8
Image
10
84.551752
20
141.262346
11
84.597645
21
142.212460
0
LINE
8
Image
10
84.597645
20
142.212460
11
84.508742
21
142.741357
0
LINE
8
Image
10
84.508742
20
142.741357
11
84.206975
21
143.008012
0
LINE
8
Image
10
84.206975
20
143.008012
11
83.614279
21
143.171400
0
LINE
8
Image
10
83.614279
20
143.171400
11
81.339015
21
143.446161
0
LINE
8
Image
10
81.339015
20
143.446161
11
78.664621
21
143.430535
0
LINE
8
Image
10
78.664621
20
143.430535
11
75.895238
21
143.141540
0
LINE
8
Image
10
75.895238
20
143.141540
11
73.335007
21
142.596194
0
LINE
8
Image
10
73.335007
20
142.596194
11
70.642371
21
141.669396
0
LINE
8
Image
10
70.642371
20
141.669396
11
67.619624
21
140.392854
0
LINE
8
Image
10
67.619624
20
140.392854
11
64.877065
21
139.044438
0
LINE
8
Image
10
64.877065
20
139.044438
11
63.024996
21
137.902020
0
LINE
8
Image
10
63.024996
20
137.902020
11
62.191242
21
137.246045
0
LINE
8
Image
10
62.191242
20
137.246045
11
74.313869
21
128.430407
0
LINE
8
Image
10
74.313869
20
128.430407
11
107.160311
21
104.555863
0
LINE
8
Image
10
107.160311
20
104.555863
11
127.884124
21
89.496960
0
LINE
8
Image
10
127.884124
20
89.496960
11
129.769889
21
91.001834
0
LINE
8
Image
10
129.769889
20
91.001834
11
132.282195
21
92.868171
0
LINE
8
Image
10
132.282195
20
92.868171
11
132.545947
21
93.082109
0
LINE
8
Image
10
132.545947
20
93.082109
11
132.491349
21
93.298389
0
LINE
8
Image
10
132.491349
20
93.298389
11
131.192033
21
93.977094
0
LINE
8
Image
10
131.192033
20
93.977094
11
128.593389
21
95.109575
0
LINE
8
Image
10
128.593389
20
95.109575
11
128.294040
21
95.285871
0
LINE
8
Image
10
128.294040
20
95.285871
11
128.387878
21
95.370088
0
LINE
8
Image
10
128.387878
20
95.370088
11
129.522826
21
95.293776
0
LINE
8
Image
10
129.522826
20
95.293776
11
133.955775
21
94.382609
0
LINE
8
Image
10
133.955775
20
94.382609
11
136.477418
21
93.429510
0
LINE
8
Image
10
136.477418
20
93.429510
11
139.505702
21
91.811350
0
LINE
8
Image
10
139.505702
20
91.811350
11
142.784046
21
89.680650
0
LINE
8
Image
10
142.784046
20
89.680650
11
146.055867
21
87.189929
0
LINE
8
Image
10
146.055867
20
87.189929
11
150.141534
21
83.979814
0
LINE
8
Image
10
150.141534
20
83.979814
11
152.823638
21
82.144003
0
LINE
8
Image
10
152.823638
20
82.144003
11
153.734274
21
81.786056
0
LINE
8
Image
10
153.734274
20
81.786056
11
154.369326
21
81.903555
0
LINE
8
Image
10
154.369326
20
81.903555
11
154.864223
21
82.593241
0
LINE
8
Image
10
154.864223
20
82.593241
11
155.354393
21
83.951859
0
LINE
8
Image
10
155.354393
20
83.951859
11
156.003144
21
85.744250
0
LINE
8
Image
10
156.003144
20
85.744250
11
156.209484
21
85.713005
0
LINE
8
Image
10
156.209484
20
85.713005
11
156.469846
21
85.213578
0
LINE
8
Image
10
156.469846
20
85.213578
11
156.743259
21
84.098346
0
LINE
8
Image
10
156.743259
20
84.098346
11
156.562808
21
82.790084
0
LINE
8
Image
10
156.562808
20
82.790084
11
155.892379
21
81.164258
0
LINE
8
Image
10
155.892379
20
81.164258
11
154.695857
21
79.096332
0
LINE
8
Image
10
154.695857
20
79.096332
11
153.452269
21
76.998320
0
LINE
8
Image
10
153.452269
20
76.998320
11
152.935025
21
75.869946
0
LINE
8
Image
10
152.935025
20
75.869946
11
153.116250
21
75.445226
0
LINE
8
Image
10
153.116250
20
75.445226
11
153.560337
21
75.080223
0
LINE
8
Image
10
153.560337
20
75.080223
11
154.117905
21
74.861928
0
LINE
8
Image
10
154.117905
20
74.861928
11
154.639569
21
74.877331
0
LINE
8
Image
10
154.639569
20
74.877331
11
155.388461
21
75.044233
0
LINE
8
Image
10
155.388461
20
75.044233
11
155.388461
21
75.044233
0
LINE
8
Image
10
111.448411
20
125.632502
11
110.522556
21
126.818656
0
LINE
8
Image
10
110.522556
20
126.818656
11
110.248969
21
127.973128
0
LINE
8
Image
10
110.248969
20
127.973128
11
110.248969
21
129.114314
0
LINE
8
Image
10
110.248969
20
129.114314
11
110.960308
21
128.209993
0
LINE
8
Image
10
110.960308
20
128.209993
11
111.798943
21
127.360002
0
LINE
8
Image
10
111.798943
20
127.360002
11
112.840028
21
126.600120
0
LINE
8
Image
10
112.840028
20
126.600120
11
113.886411
21
126.053719
0
LINE
8
Image
10
113.886411
20
126.053719
11
114.740942
21
125.844169
0
LINE
8
Image
10
114.740942
20
125.844169
11
115.502005
21
126.051425
0
LINE
8
Image
10
115.502005
20
126.051425
11
116.342445
21
126.549722
0
LINE
8
Image
10
116.342445
20
126.549722
11
117.434636
21
127.217227
0
LINE
8
Image
10
117.434636
20
127.217227
11
117.505599
21
127.017839
0
LINE
8
Image
10
117.505599
20
127.017839
11
117.275637
21
126.461528
0
LINE
8
Image
10
117.275637
20
126.461528
11
116.688231
21
125.600132
0
LINE
8
Image
10
116.688231
20
125.600132
11
115.934606
21
124.968262
0
LINE
8
Image
10
115.934606
20
124.968262
11
115.034098
21
124.577868
0
LINE
8
Image
10
115.034098
20
124.577868
11
114.006047
21
124.440902
0
LINE
8
Image
10
114.006047
20
124.440902
11
113.284914
21
124.490332
0
LINE
8
Image
10
113.284914
20
124.490332
11
112.679891
21
124.676698
0
LINE
8
Image
10
112.679891
20
124.676698
11
111.448411
21
125.632502
0
LINE
8
Image
10
111.448411
20
125.632502
11
111.448411
21
125.632502
0
LINE
8
Image
10
113.767671
20
134.265621
11
113.206186
21
134.938592
0
LINE
8
Image
10
113.206186
20
134.938592
11
112.792320
21
135.675657
0
LINE
8
Image
10
112.792320
20
135.675657
11
112.526961
21
136.459043
0
LINE
8
Image
10
112.526961
20
136.459043
11
112.410996
21
137.270974
0
LINE
8
Image
10
112.410996
20
137.270974
11
112.445314
21
138.093674
0
LINE
8
Image
10
112.445314
20
138.093674
11
112.630802
21
138.909368
0
LINE
8
Image
10
112.630802
20
138.909368
11
112.968347
21
139.700282
0
LINE
8
Image
10
112.968347
20
139.700282
11
113.458839
21
140.448640
0
LINE
8
Image
10
113.458839
20
140.448640
11
114.131585
21
141.044379
0
LINE
8
Image
10
114.131585
20
141.044379
11
114.903987
21
141.317548
0
LINE
8
Image
10
114.903987
20
141.317548
11
115.717681
21
141.298614
0
LINE
8
Image
10
115.717681
20
141.298614
11
116.514306
21
141.018042
0
LINE
8
Image
10
116.514306
20
141.018042
11
117.235498
21
140.506298
0
LINE
8
Image
10
117.235498
20
140.506298
11
117.822893
21
139.793849
0
LINE
8
Image
10
117.822893
20
139.793849
11
118.218130
21
138.911161
0
LINE
8
Image
10
118.218130
20
138.911161
11
118.362845
21
137.888699
0
LINE
8
Image
10
118.362845
20
137.888699
11
118.278878
21
136.684328
0
LINE
8
Image
10
118.278878
20
136.684328
11
118.022513
21
135.642617
0
LINE
8
Image
10
118.022513
20
135.642617
11
117.587059
21
134.744806
0
LINE
8
Image
10
117.587059
20
134.744806
11
116.965823
21
133.972135
0
LINE
8
Image
10
116.965823
20
133.972135
11
116.214955
21
133.430991
0
LINE
8
Image
10
116.214955
20
133.430991
11
115.442024
21
133.298571
0
LINE
8
Image
10
115.442024
20
133.298571
11
114.631455
21
133.576304
0
LINE
8
Image
10
114.631455
20
133.576304
11
113.767671
21
134.265621
0
LINE
8
Image
10
113.767671
20
134.265621
11
113.767671
21
134.265621
0
LINE
8
Image
10
113.584318
20
149.640602
11
113.039269
21
150.270127
0
LINE
8
Image
10
113.039269
20
150.270127
11
112.761820
21
150.779234
0
LINE
8
Image
10
112.761820
20
150.779234
11
112.767338
21
151.119908
0
LINE
8
Image
10
112.767338
20
151.119908
11
113.071185
21
151.244137
0
LINE
8
Image
10
113.071185
20
151.244137
11
113.320336
21
151.157142
0
LINE
8
Image
10
113.320336
20
151.157142
11
113.423965
21
150.947984
0
LINE
8
Image
10
113.423965
20
150.947984
11
113.661812
21
150.630457
0
LINE
8
Image
10
113.661812
20
150.630457
11
114.233660
21
150.282912
0
LINE
8
Image
10
114.233660
20
150.282912
11
115.062393
21
150.160044
0
LINE
8
Image
10
115.062393
20
150.160044
11
115.951839
21
150.378278
0
LINE
8
Image
10
115.951839
20
150.378278
11
116.661715
21
150.836048
0
LINE
8
Image
10
116.661715
20
150.836048
11
116.951737
21
151.431792
0
LINE
8
Image
10
116.951737
20
151.431792
11
117.055365
21
151.797558
0
LINE
8
Image
10
117.055365
20
151.797558
11
117.304513
21
151.949690
0
LINE
8
Image
10
117.304513
20
151.949690
11
117.607347
21
151.735893
0
LINE
8
Image
10
117.607347
20
151.735893
11
117.628724
21
151.192441
0
LINE
8
Image
10
117.628724
20
151.192441
11
117.393401
21
150.466245
0
LINE
8
Image
10
117.393401
20
150.466245
11
116.926133
21
149.704213
0
LINE
8
Image
10
116.926133
20
149.704213
11
116.173521
21
149.038132
0
LINE
8
Image
10
116.173521
20
149.038132
11
115.334636
21
148.804912
0
LINE
8
Image
10
115.334636
20
148.804912
11
114.456046
21
149.005439
0
LINE
8
Image
10
114.456046
20
149.005439
11
113.584318
21
149.640602
0
LINE
8
Image
10
113.584318
20
149.640602
11
113.584318
21
149.640602
0
LINE
8
Image
10
107.552034
20
162.737882
11
107.238158
21
163.263878
0
LINE
8
Image
10
107.238158
20
163.263878
11
107.132587
21
163.661111
0
LINE
8
Image
10
107.132587
20
163.661111
11
107.543912
21
164.644395
0
LINE
8
Image
10
107.543912
20
164.644395
11
108.096961
21
165.811899
0
LINE
8
Image
10
108.096961
20
165.811899
11
107.979263
21
166.011715
0
LINE
8
Image
10
107.979263
20
166.011715
11
107.603149
21
166.060785
0
LINE
8
Image
10
107.603149
20
166.060785
11
107.235907
21
166.187471
0
LINE
8
Image
10
107.235907
20
166.187471
11
107.091338
21
166.510327
0
LINE
8
Image
10
107.091338
20
166.510327
11
107.176217
21
166.943550
0
LINE
8
Image
10
107.176217
20
166.943550
11
107.497316
21
167.401337
0
LINE
8
Image
10
107.497316
20
167.401337
11
108.050457
21
167.752857
0
LINE
8
Image
10
108.050457
20
167.752857
11
108.654554
21
167.774709
0
LINE
8
Image
10
108.654554
20
167.774709
11
109.281953
21
167.473174
0
LINE
8
Image
10
109.281953
20
167.473174
11
109.905000
21
166.854534
0
LINE
8
Image
10
109.905000
20
166.854534
11
110.477907
21
165.775167
0
LINE
8
Image
10
110.477907
20
165.775167
11
110.503127
21
164.385284
0
LINE
8
Image
10
110.503127
20
164.385284
11
110.083590
21
162.792533
0
LINE
8
Image
10
110.083590
20
162.792533
11
109.748471
21
162.265821
0
LINE
8
Image
10
109.748471
20
162.265821
11
109.354208
21
161.932516
0
LINE
8
Image
10
109.354208
20
161.932516
11
108.919117
21
161.802845
0
LINE
8
Image
10
108.919117
20
161.802845
11
108.461515
21
161.887032
0
LINE
8
Image
10
108.461515
20
161.887032
11
107.999719
21
162.195303
0
LINE
8
Image
10
107.999719
20
162.195303
11
107.552045
21
162.737882
0
LINE
8
Image
10
107.552045
20
162.737882
11
107.552034
21
162.737882
0
LINE
8
Image
10
120.343694
20
163.049764
11
119.940084
21
163.843711
0
LINE
8
Image
10
119.940084
20
163.843711
11
119.798458
21
164.572818
0
LINE
8
Image
10
119.798458
20
164.572818
11
119.919308
21
165.204958
0
LINE
8
Image
10
119.919308
20
165.204958
11
120.303123
21
165.708006
0
LINE
8
Image
10
120.303123
20
165.708006
11
120.711114
21
166.147430
0
LINE
8
Image
10
120.711114
20
166.147430
11
120.809945
21
166.483058
0
LINE
8
Image
10
120.809945
20
166.483058
11
120.611996
21
166.651876
0
LINE
8
Image
10
120.611996
20
166.651876
11
120.129649
21
166.590874
0
LINE
8
Image
10
120.129649
20
166.590874
11
119.600789
21
166.548101
0
LINE
8
Image
10
119.600789
20
166.548101
11
119.726734
21
167.184463
0
LINE
8
Image
10
119.726734
20
167.184463
11
120.222841
21
167.857375
0
LINE
8
Image
10
120.222841
20
167.857375
11
120.951064
21
168.128657
0
LINE
8
Image
10
120.951064
20
168.128657
11
121.727698
21
167.982976
0
LINE
8
Image
10
121.727698
20
167.982976
11
122.369037
21
167.404999
0
LINE
8
Image
10
122.369037
20
167.404999
11
122.858078
21
166.225890
0
LINE
8
Image
10
122.858078
20
166.225890
11
123.026285
21
164.883686
0
LINE
8
Image
10
123.026285
20
164.883686
11
122.872258
21
163.634538
0
LINE
8
Image
10
122.872258
20
163.634538
11
122.394596
21
162.734598
0
LINE
8
Image
10
122.394596
20
162.734598
11
121.836251
21
162.312028
0
LINE
8
Image
10
121.836251
20
162.312028
11
121.322309
21
162.221550
0
LINE
8
Image
10
121.322309
20
162.221550
11
120.831786
21
162.466388
0
LINE
8
Image
10
120.831786
20
162.466388
11
120.343702
21
163.049764
0
LINE
8
Image
10
120.343702
20
163.049764
11
120.343694
21
163.049764
0
LINE
8
Image
10
122.780990
20
170.630593
11
121.098869
21
172.984218
0
LINE
8
Image
10
121.098869
20
172.984218
11
120.239240
21
174.064537
0
LINE
8
Image
10
120.239240
20
174.064537
11
120.368476
21
174.140121
0
LINE
8
Image
10
120.368476
20
174.140121
11
120.840882
21
174.025138
0
LINE
8
Image
10
120.840882
20
174.025138
11
121.888697
21
173.669109
0
LINE
8
Image
10
121.888697
20
173.669109
11
122.675101
21
173.259589
0
LINE
8
Image
10
122.675101
20
173.259589
11
123.238060
21
172.771316
0
LINE
8
Image
10
123.238060
20
172.771316
11
123.615540
21
172.179031
0
LINE
8
Image
10
123.615540
20
172.179031
11
123.987674
21
170.868601
0
LINE
8
Image
10
123.987674
20
170.868601
11
123.879649
21
170.001207
0
LINE
8
Image
10
123.879649
20
170.001207
11
123.689161
21
169.814513
0
LINE
8
Image
10
123.689161
20
169.814513
11
123.430933
21
169.835616
0
LINE
8
Image
10
123.430933
20
169.835616
11
123.122398
21
170.096861
0
LINE
8
Image
10
123.122398
20
170.096861
11
122.780990
21
170.630593
0
LINE
8
Image
10
122.780990
20
170.630593
11
122.780990
21
170.630593
0
LINE
8
Image
10
105.310085
20
171.668677
11
105.411619
21
172.104663
0
LINE
8
Image
10
105.411619
20
172.104663
11
105.691383
21
172.575496
0
LINE
8
Image
10
105.691383
20
172.575496
11
106.636583
21
173.507070
0
LINE
8
Image
10
106.636583
20
173.507070
11
107.847643
21
174.234138
0
LINE
8
Image
10
107.847643
20
174.234138
11
109.026521
21
174.527441
0
LINE
8
Image
10
109.026521
20
174.527441
11
110.248969
21
174.365923
0
LINE
8
Image
10
110.248969
20
174.365923
11
108.713294
21
173.304440
0
LINE
8
Image
10
108.713294
20
173.304440
11
107.441999
21
172.462510
0
LINE
8
Image
10
107.441999
20
172.462510
11
106.541954
21
171.702073
0
LINE
8
Image
10
106.541954
20
171.702073
11
106.012340
21
171.203194
0
LINE
8
Image
10
106.012340
20
171.203194
11
105.626345
21
171.031222
0
LINE
8
Image
10
105.626345
20
171.031222
11
105.390186
21
171.186327
0
LINE
8
Image
10
105.390186
20
171.186327
11
105.310085
21
171.668677
0
LINE
8
Image
10
105.310085
20
171.668677
11
105.310085
21
171.668677
0
LINE
8
Image
10
138.915108
20
85.186580
11
140.041517
21
88.706682
0
LINE
8
Image
10
140.041517
20
88.706682
11
140.085442
21
89.164767
0
LINE
8
Image
10
140.085442
20
89.164767
11
139.802913
21
89.577319
0
LINE
8
Image
10
139.802913
20
89.577319
11
137.662995
21
90.786559
0
LINE
8
Image
10
137.662995
20
90.786559
11
135.377830
21
91.759594
0
LINE
8
Image
10
135.377830
20
91.759594
11
134.643798
21
91.888820
0
LINE
8
Image
10
134.643798
20
91.888820
11
134.025691
21
91.824494
0
LINE
8
Image
10
134.025691
20
91.824494
11
132.899424
21
91.182865
0
LINE
8
Image
10
132.899424
20
91.182865
11
131.571631
21
90.012530
0
LINE
8
Image
10
131.571631
20
90.012530
11
130.522423
21
88.795662
0
LINE
8
Image
10
130.522423
20
88.795662
11
130.252324
21
88.320457
0
LINE
8
Image
10
130.252324
20
88.320457
11
130.231912
21
88.014433
0
LINE
8
Image
10
130.231912
20
88.014433
11
133.982501
21
85.064660
0
LINE
8
Image
10
133.982501
20
85.064660
11
137.773572
21
82.452557
0
LINE
8
Image
10
137.773572
20
82.452557
11
138.212570
21
83.255676
0
LINE
8
Image
10
138.212570
20
83.255676
11
138.915108
21
85.186580
0
LINE
8
Image
10
138.915108
20
85.186580
11
138.915108
21
85.186580
0
LINE
8
Image
10
17.799465
20
95.169217
11
22.988395
21
98.006058
0
LINE
8
Image
10
22.988395
20
98.006058
11
25.527667
21
99.374531
0
LINE
8
Image
10
25.527667
20
99.374531
11
26.607523
21
99.763426
0
LINE
8
Image
10
26.607523
20
99.763426
11
27.661912
21
99.966047
0
LINE
8
Image
10
27.661912
20
99.966047
11
28.766623
21
99.990361
0
LINE
8
Image
10
28.766623
20
99.990361
11
29.997447
21
99.844334
0
LINE
8
Image
10
29.997447
20
99.844334
11
33.140590
21
99.073118
0
LINE
8
Image
10
33.140590
20
99.073118
11
36.663603
21
98.234042
0
LINE
8
Image
10
36.663603
20
98.234042
11
39.479324
21
97.989445
0
LINE
8
Image
10
39.479324
20
97.989445
11
41.986555
21
98.004129
0
LINE
8
Image
10
41.986555
20
98.004129
11
40.604852
21
99.224174
0
LINE
8
Image
10
40.604852
20
99.224174
11
39.681112
21
100.137916
0
LINE
8
Image
10
39.681112
20
100.137916
11
39.400465
21
100.621532
0
LINE
8
Image
10
39.400465
20
100.621532
11
40.373180
21
100.237404
0
LINE
8
Image
10
40.373180
20
100.237404
11
42.462846
21
99.064869
0
LINE
8
Image
10
42.462846
20
99.064869
11
45.651018
21
97.291747
0
LINE
8
Image
10
45.651018
20
97.291747
11
48.494417
21
96.024428
0
LINE
8
Image
10
48.494417
20
96.024428
11
51.078045
21
95.230629
0
LINE
8
Image
10
51.078045
20
95.230629
11
53.486906
21
94.878068
0
LINE
8
Image
10
53.486906
20
94.878068
11
55.861499
21
94.867500
0
LINE
8
Image
10
55.861499
20
94.867500
11
56.434579
21
95.086964
0
LINE
8
Image
10
56.434579
20
95.086964
11
56.912610
21
95.514694
0
LINE
8
Image
10
56.912610
20
95.514694
11
57.593146
21
96.619093
0
LINE
8
Image
10
57.593146
20
96.619093
11
57.893657
21
98.086481
0
LINE
8
Image
10
57.893657
20
98.086481
11
57.816639
21
99.954098
0
LINE
8
Image
10
57.816639
20
99.954098
11
57.364587
21
102.259179
0
LINE
8
Image
10
57.364587
20
102.259179
11
56.597766
21
104.833096
0
LINE
8
Image
10
56.597766
20
104.833096
11
55.796541
21
106.882386
0
LINE
8
Image
10
55.796541
20
106.882386
11
55.303984
21
108.001590
0
LINE
8
Image
10
55.303984
20
108.001590
11
55.220603
21
108.492950
0
LINE
8
Image
10
55.220603
20
108.492950
11
55.530619
21
108.333368
0
LINE
8
Image
10
55.530619
20
108.333368
11
56.218255
21
107.499746
0
LINE
8
Image
10
56.218255
20
107.499746
11
56.814439
21
106.777171
0
LINE
8
Image
10
56.814439
20
106.777171
11
57.300506
21
106.506942
0
LINE
8
Image
10
57.300506
20
106.506942
11
57.839352
21
106.672407
0
LINE
8
Image
10
57.839352
20
106.672407
11
58.593876
21
107.256917
0
LINE
8
Image
10
58.593876
20
107.256917
11
59.541954
21
108.072417
0
LINE
8
Image
10
59.541954
20
108.072417
11
58.172578
21
109.155485
0
LINE
8
Image
10
58.172578
20
109.155485
11
50.453211
21
114.925537
0
LINE
8
Image
10
50.453211
20
114.925537
11
44.103219
21
119.612527
0
LINE
8
Image
10
44.103219
20
119.612527
11
39.586797
21
120.122802
0
LINE
8
Image
10
39.586797
20
120.122802
11
36.342417
21
120.428529
0
LINE
8
Image
10
36.342417
20
120.428529
11
34.884308
21
120.447014
0
LINE
8
Image
10
34.884308
20
120.447014
11
34.928541
21
120.047542
0
LINE
8
Image
10
34.928541
20
120.047542
11
35.296169
21
119.348397
0
LINE
8
Image
10
35.296169
20
119.348397
11
35.660813
21
118.703906
0
LINE
8
Image
10
35.660813
20
118.703906
11
35.697866
21
118.435845
0
LINE
8
Image
10
35.697866
20
118.435845
11
32.217714
21
120.498124
0
LINE
8
Image
10
32.217714
20
120.498124
11
24.589117
21
125.193697
0
LINE
8
Image
10
24.589117
20
125.193697
11
18.844218
21
128.513360
0
LINE
8
Image
10
18.844218
20
128.513360
11
14.932428
21
130.484831
0
LINE
8
Image
10
14.932428
20
130.484831
11
13.648140
21
130.973657
0
LINE
8
Image
10
13.648140
20
130.973657
11
12.803159
21
131.135829
0
LINE
8
Image
10
12.803159
20
131.135829
11
12.197595
21
131.109152
0
LINE
8
Image
10
12.197595
20
131.109152
11
11.899904
21
130.947176
0
LINE
8
Image
10
11.899904
20
130.947176
11
11.833135
21
130.526984
0
LINE
8
Image
10
11.833135
20
130.526984
11
11.920335
21
129.725660
0
LINE
8
Image
10
11.920335
20
129.725660
11
12.209523
21
128.623854
0
LINE
8
Image
10
12.209523
20
128.623854
11
12.952805
21
127.282970
0
LINE
8
Image
10
12.952805
20
127.282970
11
16.848255
21
122.308755
0
LINE
8
Image
10
16.848255
20
122.308755
11
18.812400
21
119.688653
0
LINE
8
Image
10
18.812400
20
119.688653
11
20.271026
21
117.198162
0
LINE
8
Image
10
20.271026
20
117.198162
11
21.215315
21
114.855019
0
LINE
8
Image
10
21.215315
20
114.855019
11
21.636450
21
112.676958
0
LINE
8
Image
10
21.636450
20
112.676958
11
21.648871
21
111.094476
0
LINE
8
Image
10
21.648871
20
111.094476
11
21.430563
21
110.266612
0
LINE
8
Image
10
21.430563
20
110.266612
11
21.251151
21
110.157624
0
LINE
8
Image
10
21.251151
20
110.157624
11
21.033574
21
110.263646
0
LINE
8
Image
10
21.033574
20
110.263646
11
20.509951
21
111.155857
0
LINE
8
Image
10
20.509951
20
111.155857
11
20.193649
21
111.845377
0
LINE
8
Image
10
20.193649
20
111.845377
11
19.915345
21
112.185038
0
LINE
8
Image
10
19.915345
20
112.185038
11
19.569299
21
112.242012
0
LINE
8
Image
10
19.569299
20
112.242012
11
19.049770
21
112.083474
0
LINE
8
Image
10
19.049770
20
112.083474
11
17.236363
21
111.733278
0
LINE
8
Image
10
17.236363
20
111.733278
11
14.176191
21
111.385472
0
LINE
8
Image
10
14.176191
20
111.385472
11
11.120648
21
111.032113
0
LINE
8
Image
10
11.120648
20
111.032113
11
8.752848
21
110.555259
0
LINE
8
Image
10
8.752848
20
110.555259
11
6.965294
21
109.926306
0
LINE
8
Image
10
6.965294
20
109.926306
11
5.650488
21
109.116647
0
LINE
8
Image
10
5.650488
20
109.116647
11
4.865071
21
108.294654
0
LINE
8
Image
10
4.865071
20
108.294654
11
4.827327
21
107.970740
0
LINE
8
Image
10
4.827327
20
107.970740
11
4.985006
21
107.611667
0
LINE
8
Image
10
4.985006
20
107.611667
11
5.366661
21
107.267851
0
LINE
8
Image
10
5.366661
20
107.267851
11
6.251817
21
107.074442
0
LINE
8
Image
10
6.251817
20
107.074442
11
11.158609
21
106.969791
0
LINE
8
Image
10
11.158609
20
106.969791
11
16.190280
21
106.848950
0
LINE
8
Image
10
16.190280
20
106.848950
11
17.406460
21
106.635630
0
LINE
8
Image
10
17.406460
20
106.635630
11
18.326162
21
106.264236
0
LINE
8
Image
10
18.326162
20
106.264236
11
19.279386
21
105.707812
0
LINE
8
Image
10
19.279386
20
105.707812
11
19.921407
21
105.144301
0
LINE
8
Image
10
19.921407
20
105.144301
11
20.245565
21
104.545233
0
LINE
8
Image
10
20.245565
20
104.545233
11
20.245198
21
103.882137
0
LINE
8
Image
10
20.245198
20
103.882137
11
19.913647
21
103.126542
0
LINE
8
Image
10
19.913647
20
103.126542
11
19.244250
21
102.249979
0
LINE
8
Image
10
19.244250
20
102.249979
11
16.865275
21
100.020064
0
LINE
8
Image
10
16.865275
20
100.020064
11
14.830780
21
98.186121
0
LINE
8
Image
10
14.830780
20
98.186121
11
13.449001
21
96.671086
0
LINE
8
Image
10
13.449001
20
96.671086
11
12.723869
21
95.480007
0
LINE
8
Image
10
12.723869
20
95.480007
11
12.608772
21
95.007527
0
LINE
8
Image
10
12.608772
20
95.007527
11
12.659310
21
94.617930
0
LINE
8
Image
10
12.659310
20
94.617930
11
12.874472
21
94.343903
0
LINE
8
Image
10
12.874472
20
94.343903
11
13.255185
21
94.172518
0
LINE
8
Image
10
13.255185
20
94.172518
11
14.426364
21
94.128355
0
LINE
8
Image
10
14.426364
20
94.128355
11
15.999055
21
94.466801
0
LINE
8
Image
10
15.999055
20
94.466801
11
17.799465
21
95.169217
0
LINE
8
Image
10
17.799465
20
95.169217
11
17.799465
21
95.169217
0
LINE
8
Image
10
164.233071
20
100.984416
11
164.432545
21
101.432765
0
LINE
8
Image
10
164.432545
20
101.432765
11
164.532052
21
102.237593
0
LINE
8
Image
10
164.532052
20
102.237593
11
164.450775
21
105.305937
0
LINE
8
Image
10
164.450775
20
105.305937
11
163.928775
21
110.664199
0
LINE
8
Image
10
163.928775
20
110.664199
11
163.023449
21
115.962024
0
LINE
8
Image
10
163.023449
20
115.962024
11
161.740845
21
121.182705
0
LINE
8
Image
10
161.740845
20
121.182705
11
160.087013
21
126.309537
0
LINE
8
Image
10
160.087013
20
126.309537
11
158.068003
21
131.325814
0
LINE
8
Image
10
158.068003
20
131.325814
11
155.689863
21
136.214830
0
LINE
8
Image
10
155.689863
20
136.214830
11
152.958643
21
140.959880
0
LINE
8
Image
10
152.958643
20
140.959880
11
149.880393
21
145.544257
0
LINE
8
Image
10
149.880393
20
145.544257
11
146.166711
21
150.052942
0
LINE
8
Image
10
146.166711
20
150.052942
11
141.567596
21
154.923913
0
LINE
8
Image
10
141.567596
20
154.923913
11
137.655211
21
158.581803
0
LINE
8
Image
10
137.655211
20
158.581803
11
136.447841
21
159.463540
0
LINE
8
Image
10
136.447841
20
159.463540
11
136.117339
21
159.581454
0
LINE
8
Image
10
136.117339
20
159.581454
11
136.001713
21
159.451245
0
LINE
8
Image
10
136.001713
20
159.451245
11
136.533559
21
158.303320
0
LINE
8
Image
10
136.533559
20
158.303320
11
137.845036
21
156.141149
0
LINE
8
Image
10
137.845036
20
156.141149
11
141.102521
21
151.448175
0
LINE
8
Image
10
141.102521
20
151.448175
11
143.153778
21
148.486005
0
LINE
8
Image
10
143.153778
20
148.486005
11
144.619284
21
145.577237
0
LINE
8
Image
10
144.619284
20
145.577237
11
145.499035
21
142.733239
0
LINE
8
Image
10
145.499035
20
142.733239
11
145.793026
21
139.965378
0
LINE
8
Image
10
145.793026
20
139.965378
11
145.501253
21
137.285021
0
LINE
8
Image
10
145.501253
20
137.285021
11
144.623712
21
134.703537
0
LINE
8
Image
10
144.623712
20
134.703537
11
143.160397
21
132.232291
0
LINE
8
Image
10
143.160397
20
132.232291
11
141.111306
21
129.882652
0
LINE
8
Image
10
141.111306
20
129.882652
11
138.817225
21
127.644344
0
LINE
8
Image
10
138.817225
20
127.644344
11
140.143498
21
127.020907
0
LINE
8
Image
10
140.143498
20
127.020907
11
141.117470
21
126.451639
0
LINE
8
Image
10
141.117470
20
126.451639
11
142.177441
21
125.627160
0
LINE
8
Image
10
142.177441
20
125.627160
11
144.483738
21
123.294741
0
LINE
8
Image
10
144.483738
20
123.294741
11
146.919114
21
120.188003
0
LINE
8
Image
10
146.919114
20
120.188003
11
149.340292
21
116.471297
0
LINE
8
Image
10
149.340292
20
116.471297
11
151.786623
21
112.548541
0
LINE
8
Image
10
151.786623
20
112.548541
11
153.897703
21
109.566886
0
LINE
8
Image
10
153.897703
20
109.566886
11
155.761448
21
107.412736
0
LINE
8
Image
10
155.761448
20
107.412736
11
157.465773
21
105.972498
0
LINE
8
Image
10
157.465773
20
105.972498
11
159.138814
21
104.682511
0
LINE
8
Image
10
159.138814
20
104.682511
11
160.756399
21
103.191823
0
LINE
8
Image
10
160.756399
20
103.191823
11
161.977233
21
101.841982
0
LINE
8
Image
10
161.977233
20
101.841982
11
162.460021
21
100.974536
0
LINE
8
Image
10
162.460021
20
100.974536
11
162.656059
21
100.587028
0
LINE
8
Image
10
162.656059
20
100.587028
11
163.130544
21
100.460138
0
LINE
8
Image
10
163.130544
20
100.460138
11
163.713032
21
100.592913
0
LINE
8
Image
10
163.713032
20
100.592913
11
164.233079
21
100.984405
0
LINE
8
Image
10
164.233079
20
100.984405
11
164.233071
21
100.984416
0
LINE
8
Image
10
17.742685
20
102.893755
11
18.807483
21
104.162753
0
LINE
8
Image
10
18.807483
20
104.162753
11
18.863872
21
104.540231
0
LINE
8
Image
10
18.863872
20
104.540231
11
18.570960
21
104.677529
0
LINE
8
Image
10
18.570960
20
104.677529
11
17.159849
21
104.898014
0
LINE
8
Image
10
17.159849
20
104.898014
11
16.057421
21
105.118499
0
LINE
8
Image
10
16.057421
20
105.118499
11
16.057421
21
103.486905
0
LINE
8
Image
10
16.057421
20
103.486905
11
16.137954
21
102.334590
0
LINE
8
Image
10
16.137954
20
102.334590
11
16.331577
21
101.855309
0
LINE
8
Image
10
16.331577
20
101.855309
11
17.742685
21
102.893755
0
LINE
8
Image
10
17.742685
20
102.893755
11
17.742685
21
102.893755
0
LINE
8
Image
10
19.027175
20
113.711093
11
19.439497
21
114.007219
0
LINE
8
Image
10
19.439497
20
114.007219
11
19.547473
21
114.510243
0
LINE
8
Image
10
19.547473
20
114.510243
11
19.346009
21
115.290031
0
LINE
8
Image
10
19.346009
20
115.290031
11
18.830016
21
116.416449
0
LINE
8
Image
10
18.830016
20
116.416449
11
18.304043
21
117.300923
0
LINE
8
Image
10
18.304043
20
117.300923
11
18.105171
21
117.459247
0
LINE
8
Image
10
18.105171
20
117.459247
11
17.934181
21
117.414448
0
LINE
8
Image
10
17.934181
20
117.414448
11
17.631265
21
116.673928
0
LINE
8
Image
10
17.631265
20
116.673928
11
17.306131
21
114.996266
0
LINE
8
Image
10
17.306131
20
114.996266
11
17.209718
21
113.740544
0
LINE
8
Image
10
17.209718
20
113.740544
11
17.389618
21
113.541451
0
LINE
8
Image
10
17.389618
20
113.541451
11
17.761444
21
113.496961
0
LINE
8
Image
10
17.761444
20
113.496961
11
19.027175
21
113.711093
0
LINE
8
Image
10
19.027175
20
113.711093
11
19.027175
21
113.711093
0
LINE
8
Image
10
63.037201
20
139.910570
11
66.987138
21
142.113354
0
LINE
8
Image
10
66.987138
20
142.113354
11
70.667018
21
143.743042
0
LINE
8
Image
10
70.667018
20
143.743042
11
74.176955
21
144.837567
0
LINE
8
Image
10
74.176955
20
144.837567
11
77.617063
21
145.434862
0
LINE
8
Image
10
77.617063
20
145.434862
11
79.318438
21
145.486554
0
LINE
8
Image
10
79.318438
20
145.486554
11
81.280705
21
145.362094
0
LINE
8
Image
10
81.280705
20
145.362094
11
83.136464
21
145.098797
0
LINE
8
Image
10
83.136464
20
145.098797
11
84.518317
21
144.733974
0
LINE
8
Image
10
84.518317
20
144.733974
11
84.821519
21
144.728908
0
LINE
8
Image
10
84.821519
20
144.728908
11
85.138136
21
144.978126
0
LINE
8
Image
10
85.138136
20
144.978126
11
85.929425
21
146.376545
0
LINE
8
Image
10
85.929425
20
146.376545
11
86.977115
21
148.234038
0
LINE
8
Image
10
86.977115
20
148.234038
11
88.288580
21
150.088102
0
LINE
8
Image
10
88.288580
20
150.088102
11
89.787881
21
152.156898
0
LINE
8
Image
10
89.787881
20
152.156898
11
89.004323
21
152.252854
0
LINE
8
Image
10
89.004323
20
152.252854
11
86.987365
21
152.095238
0
LINE
8
Image
10
86.987365
20
152.095238
11
81.255545
21
151.235511
0
LINE
8
Image
10
81.255545
20
151.235511
11
78.315533
21
150.564357
0
LINE
8
Image
10
78.315533
20
150.564357
11
75.284132
21
149.663419
0
LINE
8
Image
10
75.284132
20
149.663419
11
72.229793
21
148.563677
0
LINE
8
Image
10
72.229793
20
148.563677
11
69.220966
21
147.296111
0
LINE
8
Image
10
69.220966
20
147.296111
11
66.326102
21
145.891702
0
LINE
8
Image
10
66.326102
20
145.891702
11
63.613649
21
144.381428
0
LINE
8
Image
10
63.613649
20
144.381428
11
61.152058
21
142.796271
0
LINE
8
Image
10
61.152058
20
142.796271
11
59.009780
21
141.167210
0
LINE
8
Image
10
59.009780
20
141.167210
11
58.041361
21
140.356483
0
LINE
8
Image
10
58.041361
20
140.356483
11
59.186169
21
139.454231
0
LINE
8
Image
10
59.186169
20
139.454231
11
60.559503
21
138.548063
0
LINE
8
Image
10
60.559503
20
138.548063
11
63.037201
21
139.910570
0
LINE
8
Image
10
63.037201
20
139.910570
11
63.037201
21
139.910570
 0 
ENDSEC
 0 
EOF