999
"DXF R12 Output" (www.mydxf.blogspot.com)
 0 
SECTION
 2 
HEADER
 9 
$ACADVER
 1 
AC1009
 9 
$EXTMIN
 10 
 0 
 20 
 0 
 9 
$EXTMAX
 10 
 8.5 
 20 
 11 
 0 
ENDSEC
 0 
SECTION
 2 
ENTITIES
0
LINE
8
Image
10
12.824334
20
8.996217
11
13.465200
21
12.981673
0
LINE
8
Image
10
13.465200
20
12.981673
11
13.849536
21
15.065916
0
LINE
8
Image
10
13.849536
20
15.065916
11
13.802188
21
15.699604
0
LINE
8
Image
10
13.802188
20
15.699604
11
13.608211
21
16.370198
0
LINE
8
Image
10
13.608211
20
16.370198
11
13.410503
21
17.035135
0
LINE
8
Image
10
13.410503
20
17.035135
11
13.374646
21
17.602156
0
LINE
8
Image
10
13.374646
20
17.602156
11
13.867532
21
19.351138
0
LINE
8
Image
10
13.867532
20
19.351138
11
14.360748
21
21.098294
0
LINE
8
Image
10
14.360748
20
21.098294
11
14.322097
21
21.657646
0
LINE
8
Image
10
14.322097
20
21.657646
11
14.119200
21
22.312605
0
LINE
8
Image
10
14.119200
20
22.312605
11
13.829134
21
23.414909
0
LINE
8
Image
10
13.829134
20
23.414909
11
13.649606
21
24.737666
0
LINE
8
Image
10
13.649606
20
24.737666
11
13.607959
21
27.769594
0
LINE
8
Image
10
13.607959
20
27.769594
11
13.965847
21
30.858494
0
LINE
8
Image
10
13.965847
20
30.858494
11
14.694860
21
33.454473
0
LINE
8
Image
10
14.694860
20
33.454473
11
15.262671
21
34.463261
0
LINE
8
Image
10
15.262671
20
34.463261
11
16.130069
21
35.529071
0
LINE
8
Image
10
16.130069
20
35.529071
11
17.251096
21
36.602463
0
LINE
8
Image
10
17.251096
20
36.602463
11
18.579797
21
37.633996
0
LINE
8
Image
10
18.579797
20
37.633996
11
19.804047
21
38.642417
0
LINE
8
Image
10
19.804047
20
38.642417
11
20.287580
21
39.459727
0
LINE
8
Image
10
20.287580
20
39.459727
11
20.542955
21
40.159605
0
LINE
8
Image
10
20.542955
20
40.159605
11
21.051769
21
40.670692
0
LINE
8
Image
10
21.051769
20
40.670692
11
21.918295
21
41.061353
0
LINE
8
Image
10
21.918295
20
41.061353
11
23.246805
21
41.399956
0
LINE
8
Image
10
23.246805
20
41.399956
11
25.258839
21
41.804509
0
LINE
8
Image
10
25.258839
20
41.804509
11
25.894076
21
42.730549
0
LINE
8
Image
10
25.894076
20
42.730549
11
26.502886
21
43.478667
0
LINE
8
Image
10
26.502886
20
43.478667
11
27.311773
21
43.656590
0
LINE
8
Image
10
27.311773
20
43.656590
11
28.048786
21
43.787995
0
LINE
8
Image
10
28.048786
20
43.787995
11
28.513562
21
44.185756
0
LINE
8
Image
10
28.513562
20
44.185756
11
29.020504
21
44.598602
0
LINE
8
Image
10
29.020504
20
44.598602
11
29.977325
21
44.714922
0
LINE
8
Image
10
29.977325
20
44.714922
11
30.607400
21
44.752861
0
LINE
8
Image
10
30.607400
20
44.752861
11
31.101576
21
44.909799
0
LINE
8
Image
10
31.101576
20
44.909799
11
32.191734
21
45.839400
0
LINE
8
Image
10
32.191734
20
45.839400
11
33.272849
21
46.963877
0
LINE
8
Image
10
33.272849
20
46.963877
11
33.441304
21
49.926662
0
LINE
8
Image
10
33.441304
20
49.926662
11
33.768726
21
53.684267
0
LINE
8
Image
10
33.768726
20
53.684267
11
33.788997
21
54.359291
0
LINE
8
Image
10
33.788997
20
54.359291
11
33.301845
21
54.596020
0
LINE
8
Image
10
33.301845
20
54.596020
11
29.501005
21
55.262830
0
LINE
8
Image
10
29.501005
20
55.262830
11
23.569747
21
56.594185
0
LINE
8
Image
10
23.569747
20
56.594185
11
21.320118
21
57.262011
0
LINE
8
Image
10
21.320118
20
57.262011
11
20.502592
21
57.675298
0
LINE
8
Image
10
20.502592
20
57.675298
11
22.515298
21
58.060735
0
LINE
8
Image
10
22.515298
20
58.060735
11
24.404865
21
58.246927
0
LINE
8
Image
10
24.404865
20
58.246927
11
18.618570
21
60.193729
0
LINE
8
Image
10
18.618570
20
60.193729
11
12.339363
21
62.379348
0
LINE
8
Image
10
12.339363
20
62.379348
11
11.157213
21
62.886742
0
LINE
8
Image
10
11.157213
20
62.886742
11
10.927436
21
63.138876
0
LINE
8
Image
10
10.927436
20
63.138876
11
14.689571
21
63.637821
0
LINE
8
Image
10
14.689571
20
63.637821
11
18.421280
21
64.106340
0
LINE
8
Image
10
18.421280
20
64.106340
11
16.998679
21
65.285107
0
LINE
8
Image
10
16.998679
20
65.285107
11
15.343231
21
66.639673
0
LINE
8
Image
10
15.343231
20
66.639673
11
13.330133
21
68.618884
0
LINE
8
Image
10
13.330133
20
68.618884
11
8.456071
21
74.215926
0
LINE
8
Image
10
8.456071
20
74.215926
11
4.378926
21
79.360824
0
LINE
8
Image
10
4.378926
20
79.360824
11
3.521396
21
80.574977
0
LINE
8
Image
10
3.521396
20
80.574977
11
3.336646
21
81.036249
0
LINE
8
Image
10
3.336646
20
81.036249
11
7.342095
21
79.882329
0
LINE
8
Image
10
7.342095
20
79.882329
11
11.275161
21
78.656026
0
LINE
8
Image
10
11.275161
20
78.656026
11
8.197016
21
83.613912
0
LINE
8
Image
10
8.197016
20
83.613912
11
6.048382
21
87.092800
0
LINE
8
Image
10
6.048382
20
87.092800
11
5.301056
21
88.590835
0
LINE
8
Image
10
5.301056
20
88.590835
11
6.497705
21
88.366026
0
LINE
8
Image
10
6.497705
20
88.366026
11
7.562931
21
88.172947
0
LINE
8
Image
10
7.562931
20
88.172947
11
6.859044
21
90.050891
0
LINE
8
Image
10
6.859044
20
90.050891
11
6.410989
21
91.130498
0
LINE
8
Image
10
6.410989
20
91.130498
11
6.090163
21
92.320010
0
LINE
8
Image
10
6.090163
20
92.320010
11
5.524765
21
96.506538
0
LINE
8
Image
10
5.524765
20
96.506538
11
4.487795
21
105.543624
0
LINE
8
Image
10
4.487795
20
105.543624
11
4.093099
21
110.014889
0
LINE
8
Image
10
4.093099
20
110.014889
11
4.803128
21
109.517486
0
LINE
8
Image
10
4.803128
20
109.517486
11
6.326216
21
108.137601
0
LINE
8
Image
10
6.326216
20
108.137601
11
8.458112
21
106.228699
0
LINE
8
Image
10
8.458112
20
106.228699
11
10.455903
21
104.723849
0
LINE
8
Image
10
10.455903
20
104.723849
11
12.427209
21
103.550434
0
LINE
8
Image
10
12.427209
20
103.550434
11
14.479647
21
102.635835
0
LINE
8
Image
10
14.479647
20
102.635835
11
14.835843
21
102.515413
0
LINE
8
Image
10
14.835843
20
102.515413
11
14.928722
21
102.559787
0
LINE
8
Image
10
14.928722
20
102.559787
11
14.252508
21
103.378348
0
LINE
8
Image
10
14.252508
20
103.378348
11
11.970841
21
105.833595
0
LINE
8
Image
10
11.970841
20
105.833595
11
10.588493
21
107.521055
0
LINE
8
Image
10
10.588493
20
107.521055
11
10.876294
21
107.638508
0
LINE
8
Image
10
10.876294
20
107.638508
11
11.575506
21
107.594753
0
LINE
8
Image
10
11.575506
20
107.594753
11
17.325044
21
106.892414
0
LINE
8
Image
10
17.325044
20
106.892414
11
23.894006
21
106.067549
0
LINE
8
Image
10
23.894006
20
106.067549
11
25.798097
21
105.878946
0
LINE
8
Image
10
25.798097
20
105.878946
11
23.669768
21
109.143652
0
LINE
8
Image
10
23.669768
20
109.143652
11
22.061381
21
111.592611
0
LINE
8
Image
10
22.061381
20
111.592611
11
21.788439
21
112.183246
0
LINE
8
Image
10
21.788439
20
112.183246
11
21.841099
21
112.402220
0
LINE
8
Image
10
21.841099
20
112.402220
11
23.589109
21
112.032336
0
LINE
8
Image
10
23.589109
20
112.032336
11
26.943363
21
110.816266
0
LINE
8
Image
10
26.943363
20
110.816266
11
31.147881
21
109.052077
0
LINE
8
Image
10
31.147881
20
109.052077
11
35.446685
21
107.037836
0
LINE
8
Image
10
35.446685
20
107.037836
11
38.994415
21
105.164145
0
LINE
8
Image
10
38.994415
20
105.164145
11
41.425473
21
103.534510
0
LINE
8
Image
10
41.425473
20
103.534510
11
43.231101
21
101.753462
0
LINE
8
Image
10
43.231101
20
101.753462
11
44.902540
21
99.425534
0
LINE
8
Image
10
44.902540
20
99.425534
11
46.198573
21
97.631522
0
LINE
8
Image
10
46.198573
20
97.631522
11
46.256532
21
98.250488
0
LINE
8
Image
10
46.256532
20
98.250488
11
46.121232
21
99.809214
0
LINE
8
Image
10
46.121232
20
99.809214
11
45.475399
21
103.956910
0
LINE
8
Image
10
45.475399
20
103.956910
11
45.111605
21
106.583452
0
LINE
8
Image
10
45.111605
20
106.583452
11
45.525392
21
106.426365
0
LINE
8
Image
10
45.525392
20
106.426365
11
46.399478
21
105.594173
0
LINE
8
Image
10
46.399478
20
105.594173
11
49.510065
21
101.924056
0
LINE
8
Image
10
49.510065
20
101.924056
11
52.497925
21
98.003089
0
LINE
8
Image
10
52.497925
20
98.003089
11
54.751161
21
94.543579
0
LINE
8
Image
10
54.751161
20
94.543579
11
56.463693
21
91.213526
0
LINE
8
Image
10
56.463693
20
91.213526
11
57.829443
21
87.680931
0
LINE
8
Image
10
57.829443
20
87.680931
11
59.328373
21
81.925655
0
LINE
8
Image
10
59.328373
20
81.925655
11
60.600776
21
75.538841
0
LINE
8
Image
10
60.600776
20
75.538841
11
60.970540
21
73.679794
0
LINE
8
Image
10
60.970540
20
73.679794
11
61.414916
21
72.182506
0
LINE
8
Image
10
61.414916
20
72.182506
11
61.769843
21
71.059661
0
LINE
8
Image
10
61.769843
20
71.059661
11
61.883300
21
69.934855
0
LINE
8
Image
10
61.883300
20
69.934855
11
61.754076
21
68.620975
0
LINE
8
Image
10
61.754076
20
68.620975
11
61.380962
21
66.930906
0
LINE
8
Image
10
61.380962
20
66.930906
11
59.913016
21
60.404802
0
LINE
8
Image
10
59.913016
20
60.404802
11
59.143434
21
57.100701
0
LINE
8
Image
10
59.143434
20
57.100701
11
58.608225
21
55.398117
0
LINE
8
Image
10
58.608225
20
55.398117
11
56.984563
21
53.186788
0
LINE
8
Image
10
56.984563
20
53.186788
11
55.029047
21
50.869815
0
LINE
8
Image
10
55.029047
20
50.869815
11
53.227685
21
48.990099
0
LINE
8
Image
10
53.227685
20
48.990099
11
52.066482
21
48.090543
0
LINE
8
Image
10
52.066482
20
48.090543
11
51.895667
21
47.854594
0
LINE
8
Image
10
51.895667
20
47.854594
11
52.166544
21
47.455702
0
LINE
8
Image
10
52.166544
20
47.455702
11
53.826022
21
46.371653
0
LINE
8
Image
10
53.826022
20
46.371653
11
55.161110
21
45.858277
0
LINE
8
Image
10
55.161110
20
45.858277
11
56.488471
21
45.640145
0
LINE
8
Image
10
56.488471
20
45.640145
11
57.832833
21
45.422111
0
LINE
8
Image
10
57.832833
20
45.422111
11
59.207315
21
44.965691
0
LINE
8
Image
10
59.207315
20
44.965691
11
60.505352
21
44.503880
0
LINE
8
Image
10
60.505352
20
44.503880
11
61.438477
21
44.654777
0
LINE
8
Image
10
61.438477
20
44.654777
11
61.947358
21
44.797344
0
LINE
8
Image
10
61.947358
20
44.797344
11
62.452144
21
44.747218
0
LINE
8
Image
10
62.452144
20
44.747218
11
64.275873
21
43.828103
0
LINE
8
Image
10
64.275873
20
43.828103
11
67.407610
21
42.245445
0
LINE
8
Image
10
67.407610
20
42.245445
11
68.749369
21
41.630619
0
LINE
8
Image
10
68.749369
20
41.630619
11
69.865480
21
40.913804
0
LINE
8
Image
10
69.865480
20
40.913804
11
70.785578
21
40.072320
0
LINE
8
Image
10
70.785578
20
40.072320
11
71.539298
21
39.083487
0
LINE
8
Image
10
71.539298
20
39.083487
11
72.427806
21
37.496467
0
LINE
8
Image
10
72.427806
20
37.496467
11
73.056641
21
35.933665
0
LINE
8
Image
10
73.056641
20
35.933665
11
73.430498
21
34.380487
0
LINE
8
Image
10
73.430498
20
34.380487
11
73.554074
21
32.822345
0
LINE
8
Image
10
73.554074
20
32.822345
11
73.591678
21
31.780287
0
LINE
8
Image
10
73.591678
20
31.780287
11
73.753271
21
30.894291
0
LINE
8
Image
10
73.753271
20
30.894291
11
74.741120
21
28.532796
0
LINE
8
Image
10
74.741120
20
28.532796
11
75.928167
21
26.061820
0
LINE
8
Image
10
75.928167
20
26.061820
11
75.565405
21
23.945156
0
LINE
8
Image
10
75.565405
20
23.945156
11
75.028849
21
17.859747
0
LINE
8
Image
10
75.028849
20
17.859747
11
74.869295
21
15.288372
0
LINE
8
Image
10
74.869295
20
15.288372
11
74.605881
21
13.207828
0
LINE
8
Image
10
74.605881
20
13.207828
11
74.175295
21
11.249672
0
LINE
8
Image
10
74.175295
20
11.249672
11
73.514225
21
9.045461
0
LINE
8
Image
10
73.514225
20
9.045461
11
73.021988
21
7.682867
0
LINE
8
Image
10
73.021988
20
7.682867
11
72.903706
21
7.477854
0
LINE
8
Image
10
72.903706
20
7.477854
11
72.869635
21
7.561616
0
LINE
8
Image
10
72.869635
20
7.561616
11
73.560281
21
10.353200
0
LINE
8
Image
10
73.560281
20
10.353200
11
74.281598
21
13.433320
0
LINE
8
Image
10
74.281598
20
13.433320
11
74.632004
21
17.727456
0
LINE
8
Image
10
74.632004
20
17.727456
11
75.142945
21
23.627451
0
LINE
8
Image
10
75.142945
20
23.627451
11
75.355590
21
25.534095
0
LINE
8
Image
10
75.355590
20
25.534095
11
75.261005
21
26.409304
0
LINE
8
Image
10
75.261005
20
26.409304
11
75.005241
21
27.305922
0
LINE
8
Image
10
75.005241
20
27.305922
11
73.928452
21
29.383842
0
LINE
8
Image
10
73.928452
20
29.383842
11
71.961771
21
32.208764
0
LINE
8
Image
10
71.961771
20
32.208764
11
70.605291
21
34.188349
0
LINE
8
Image
10
70.605291
20
34.188349
11
69.945358
21
35.418872
0
LINE
8
Image
10
69.945358
20
35.418872
11
69.391751
21
36.900007
0
LINE
8
Image
10
69.391751
20
36.900007
11
68.437727
21
38.691171
0
LINE
8
Image
10
68.437727
20
38.691171
11
67.290016
21
40.443791
0
LINE
8
Image
10
67.290016
20
40.443791
11
66.155349
21
41.809293
0
LINE
8
Image
10
66.155349
20
41.809293
11
64.850570
21
42.965785
0
LINE
8
Image
10
64.850570
20
42.965785
11
63.593148
21
43.824606
0
LINE
8
Image
10
63.593148
20
43.824606
11
62.516708
21
44.308858
0
LINE
8
Image
10
62.516708
20
44.308858
11
61.754876
21
44.341643
0
LINE
8
Image
10
61.754876
20
44.341643
11
61.445576
21
44.115206
0
LINE
8
Image
10
61.445576
20
44.115206
11
61.978568
21
43.760029
0
LINE
8
Image
10
61.978568
20
43.760029
11
62.605965
21
43.392825
0
LINE
8
Image
10
62.605965
20
43.392825
11
62.653710
21
43.279955
0
LINE
8
Image
10
62.653710
20
43.279955
11
61.243421
21
43.803442
0
LINE
8
Image
10
61.243421
20
43.803442
11
59.678987
21
44.408580
0
LINE
8
Image
10
59.678987
20
44.408580
11
59.626891
21
44.270585
0
LINE
8
Image
10
59.626891
20
44.270585
11
59.948076
21
43.842282
0
LINE
8
Image
10
59.948076
20
43.842282
11
60.191553
21
43.520732
0
LINE
8
Image
10
60.191553
20
43.520732
11
59.777385
21
43.908428
0
LINE
8
Image
10
59.777385
20
43.908428
11
58.705360
21
44.759217
0
LINE
8
Image
10
58.705360
20
44.759217
11
57.589039
21
45.342009
0
LINE
8
Image
10
57.589039
20
45.342009
11
56.711589
21
45.545175
0
LINE
8
Image
10
56.711589
20
45.545175
11
56.450931
21
45.469515
0
LINE
8
Image
10
56.450931
20
45.469515
11
56.356179
21
45.257090
0
LINE
8
Image
10
56.356179
20
45.257090
11
57.134906
21
44.448776
0
LINE
8
Image
10
57.134906
20
44.448776
11
59.007166
21
42.858666
0
LINE
8
Image
10
59.007166
20
42.858666
11
61.013923
21
41.136906
0
LINE
8
Image
10
61.013923
20
41.136906
11
62.116016
21
40.012076
0
LINE
8
Image
10
62.116016
20
40.012076
11
62.449614
21
39.066693
0
LINE
8
Image
10
62.449614
20
39.066693
11
62.572506
21
37.814010
0
LINE
8
Image
10
62.572506
20
37.814010
11
62.480081
21
36.623748
0
LINE
8
Image
10
62.480081
20
36.623748
11
62.167729
21
35.865629
0
LINE
8
Image
10
62.167729
20
35.865629
11
61.256164
21
35.451157
0
LINE
8
Image
10
61.256164
20
35.451157
11
59.464278
21
35.158913
0
LINE
8
Image
10
59.464278
20
35.158913
11
56.758858
21
34.985456
0
LINE
8
Image
10
56.758858
20
34.985456
11
53.106690
21
34.927349
0
LINE
8
Image
10
53.106690
20
34.927349
11
48.526094
21
35.017861
0
LINE
8
Image
10
48.526094
20
35.017861
11
47.314867
21
35.175371
0
LINE
8
Image
10
47.314867
20
35.175371
11
46.328589
21
35.445569
0
LINE
8
Image
10
46.328589
20
35.445569
11
43.606951
21
36.514648
0
LINE
8
Image
10
43.606951
20
36.514648
11
39.953621
21
38.129232
0
LINE
8
Image
10
39.953621
20
38.129232
11
33.453192
21
41.344862
0
LINE
8
Image
10
33.453192
20
41.344862
11
30.381586
21
43.185974
0
LINE
8
Image
10
30.381586
20
43.185974
11
30.229705
21
43.535326
0
LINE
8
Image
10
30.229705
20
43.535326
11
30.544718
21
43.905020
0
LINE
8
Image
10
30.544718
20
43.905020
11
30.840679
21
44.380958
0
LINE
8
Image
10
30.840679
20
44.380958
11
29.979069
21
44.450339
0
LINE
8
Image
10
29.979069
20
44.450339
11
29.387562
21
44.422638
0
LINE
8
Image
10
29.387562
20
44.422638
11
29.008734
21
44.288050
0
LINE
8
Image
10
29.008734
20
44.288050
11
28.441455
21
43.389308
0
LINE
8
Image
10
28.441455
20
43.389308
11
28.070544
21
42.222259
0
LINE
8
Image
10
28.070544
20
42.222259
11
31.277312
21
40.363188
0
LINE
8
Image
10
31.277312
20
40.363188
11
34.557860
21
38.316747
0
LINE
8
Image
10
34.557860
20
38.316747
11
34.344030
21
38.316755
0
LINE
8
Image
10
34.344030
20
38.316755
11
33.575302
21
38.728758
0
LINE
8
Image
10
33.575302
20
38.728758
11
30.096316
21
40.681965
0
LINE
8
Image
10
30.096316
20
40.681965
11
28.169704
21
41.843067
0
LINE
8
Image
10
28.169704
20
41.843067
11
27.854552
21
42.233892
0
LINE
8
Image
10
27.854552
20
42.233892
11
27.781215
21
42.660887
0
LINE
8
Image
10
27.781215
20
42.660887
11
27.627790
21
43.260551
0
LINE
8
Image
10
27.627790
20
43.260551
11
27.228126
21
43.401653
0
LINE
8
Image
10
27.228126
20
43.401653
11
26.673136
21
43.099528
0
LINE
8
Image
10
26.673136
20
43.099528
11
26.053734
21
42.369510
0
LINE
8
Image
10
26.053734
20
42.369510
11
25.649389
21
41.815832
0
LINE
8
Image
10
25.649389
20
41.815832
11
25.261386
21
41.488653
0
LINE
8
Image
10
25.261386
20
41.488653
11
23.982793
21
41.203109
0
LINE
8
Image
10
23.982793
20
41.203109
11
21.612991
21
40.651610
0
LINE
8
Image
10
21.612991
20
40.651610
11
20.833307
21
40.184221
0
LINE
8
Image
10
20.833307
20
40.184221
11
20.637474
21
39.538567
0
LINE
8
Image
10
20.637474
20
39.538567
11
20.661610
21
39.134227
0
LINE
8
Image
10
20.661610
20
39.134227
11
20.828615
21
38.945411
0
LINE
8
Image
10
20.828615
20
38.945411
11
22.158826
21
39.021400
0
LINE
8
Image
10
22.158826
20
39.021400
11
23.343358
21
39.244032
0
LINE
8
Image
10
23.343358
20
39.244032
11
24.054909
21
39.514906
0
LINE
8
Image
10
24.054909
20
39.514906
11
24.181890
21
39.672540
0
LINE
8
Image
10
24.181890
20
39.672540
11
24.092450
21
39.792183
0
LINE
8
Image
10
24.092450
20
39.792183
11
23.128868
21
39.986461
0
LINE
8
Image
10
23.128868
20
39.986461
11
22.457866
21
40.108407
0
LINE
8
Image
10
22.457866
20
40.108407
11
23.732921
21
40.093205
0
LINE
8
Image
10
23.732921
20
40.093205
11
24.847810
21
40.024926
0
LINE
8
Image
10
24.847810
20
40.024926
11
25.725650
21
39.823698
0
LINE
8
Image
10
25.725650
20
39.823698
11
28.143876
21
38.538081
0
LINE
8
Image
10
28.143876
20
38.538081
11
30.761927
21
36.670044
0
LINE
8
Image
10
30.761927
20
36.670044
11
31.798970
21
35.652684
0
LINE
8
Image
10
31.798970
20
35.652684
11
32.671972
21
34.554903
0
LINE
8
Image
10
32.671972
20
34.554903
11
33.393891
21
33.358057
0
LINE
8
Image
10
33.393891
20
33.358057
11
33.977687
21
32.043499
0
LINE
8
Image
10
33.977687
20
32.043499
11
34.436319
21
30.592586
0
LINE
8
Image
10
34.436319
20
30.592586
11
34.782748
21
28.986672
0
LINE
8
Image
10
34.782748
20
28.986672
11
35.072219
21
26.505287
0
LINE
8
Image
10
35.072219
20
26.505287
11
35.185131
21
23.800188
0
LINE
8
Image
10
35.185131
20
23.800188
11
35.115866
21
21.513612
0
LINE
8
Image
10
35.115866
20
21.513612
11
34.858810
21
20.287799
0
LINE
8
Image
10
34.858810
20
20.287799
11
34.652105
21
20.058390
0
LINE
8
Image
10
34.652105
20
20.058390
11
34.427221
21
20.008279
0
LINE
8
Image
10
34.427221
20
20.008279
11
33.535895
21
20.511351
0
LINE
8
Image
10
33.535895
20
20.511351
11
32.543709
21
21.341136
0
LINE
8
Image
10
32.543709
20
21.341136
11
33.139021
21
21.063276
0
LINE
8
Image
10
33.139021
20
21.063276
11
34.136313
21
20.477272
0
LINE
8
Image
10
34.136313
20
20.477272
11
34.456142
21
20.478382
0
LINE
8
Image
10
34.456142
20
20.478382
11
34.675570
21
20.714953
0
LINE
8
Image
10
34.675570
20
20.714953
11
34.869665
21
22.012629
0
LINE
8
Image
10
34.869665
20
22.012629
11
34.831471
21
24.606614
0
LINE
8
Image
10
34.831471
20
24.606614
11
34.495358
21
28.496458
0
LINE
8
Image
10
34.495358
20
28.496458
11
33.749277
21
31.620181
0
LINE
8
Image
10
33.749277
20
31.620181
11
33.202631
21
32.951999
0
LINE
8
Image
10
33.202631
20
32.951999
11
32.529652
21
34.160988
0
LINE
8
Image
10
32.529652
20
34.160988
11
31.722393
21
35.270048
0
LINE
8
Image
10
31.722393
20
35.270048
11
30.772908
21
36.302080
0
LINE
8
Image
10
30.772908
20
36.302080
11
29.364724
21
37.497426
0
LINE
8
Image
10
29.364724
20
37.497426
11
27.945563
21
38.250242
0
LINE
8
Image
10
27.945563
20
38.250242
11
26.296334
21
38.642272
0
LINE
8
Image
10
26.296334
20
38.642272
11
24.197945
21
38.755261
0
LINE
8
Image
10
24.197945
20
38.755261
11
21.685901
21
38.626288
0
LINE
8
Image
10
21.685901
20
38.626288
11
20.835581
21
38.371827
0
LINE
8
Image
10
20.835581
20
38.371827
11
19.832325
21
37.908625
0
LINE
8
Image
10
19.832325
20
37.908625
11
18.357280
21
37.025107
0
LINE
8
Image
10
18.357280
20
37.025107
11
17.003930
21
35.930366
0
LINE
8
Image
10
17.003930
20
35.930366
11
15.883482
21
34.727678
0
LINE
8
Image
10
15.883482
20
34.727678
11
15.107145
21
33.520323
0
LINE
8
Image
10
15.107145
20
33.520323
11
14.550478
21
31.889653
0
LINE
8
Image
10
14.550478
20
31.889653
11
14.113757
21
29.737115
0
LINE
8
Image
10
14.113757
20
29.737115
11
13.860707
21
27.470930
0
LINE
8
Image
10
13.860707
20
27.470930
11
13.855052
21
25.499322
0
LINE
8
Image
10
13.855052
20
25.499322
11
14.100164
21
23.926068
0
LINE
8
Image
10
14.100164
20
23.926068
11
14.571052
21
22.138947
0
LINE
8
Image
10
14.571052
20
22.138947
11
15.221630
21
20.287484
0
LINE
8
Image
10
15.221630
20
20.287484
11
16.005812
21
18.521205
0
LINE
8
Image
10
16.005812
20
18.521205
11
16.773977
21
16.669124
0
LINE
8
Image
10
16.773977
20
16.669124
11
16.758324
21
16.584530
0
LINE
8
Image
10
16.758324
20
16.584530
11
16.587239
21
16.843170
0
LINE
8
Image
10
16.587239
20
16.843170
11
15.894240
21
18.190476
0
LINE
8
Image
10
15.894240
20
18.190476
11
14.699945
21
20.373286
0
LINE
8
Image
10
14.699945
20
20.373286
11
14.435308
21
20.058391
0
LINE
8
Image
10
14.435308
20
20.058391
11
14.124793
21
19.304876
0
LINE
8
Image
10
14.124793
20
19.304876
11
13.759288
21
17.628999
0
LINE
8
Image
10
13.759288
20
17.628999
11
13.990176
21
16.461608
0
LINE
8
Image
10
13.990176
20
16.461608
11
14.543930
21
14.817043
0
LINE
8
Image
10
14.543930
20
14.817043
11
15.157787
21
12.887229
0
LINE
8
Image
10
15.157787
20
12.887229
11
15.287764
21
11.112881
0
LINE
8
Image
10
15.287764
20
11.112881
11
15.242316
21
9.795890
0
LINE
8
Image
10
15.242316
20
9.795890
11
15.163858
21
10.848298
0
LINE
8
Image
10
15.163858
20
10.848298
11
14.798170
21
13.326459
0
LINE
8
Image
10
14.798170
20
13.326459
11
14.530312
21
14.208465
0
LINE
8
Image
10
14.530312
20
14.208465
11
14.277552
21
14.552460
0
LINE
8
Image
10
14.277552
20
14.552460
11
14.005278
21
13.833538
0
LINE
8
Image
10
14.005278
20
13.833538
11
13.639574
21
12.105067
0
LINE
8
Image
10
13.639574
20
12.105067
11
12.960337
21
8.467051
0
LINE
8
Image
10
12.960337
20
8.467051
11
12.767162
21
7.714015
0
LINE
8
Image
10
12.767162
20
7.714015
11
12.824334
21
8.996217
0
LINE
8
Image
10
12.824334
20
8.996217
11
12.824334
21
8.996217
0
LINE
8
Image
10
72.639903
20
36.106188
11
71.717802
21
38.161894
0
LINE
8
Image
10
71.717802
20
38.161894
11
70.587417
21
39.760046
0
LINE
8
Image
10
70.587417
20
39.760046
11
69.170110
21
40.987871
0
LINE
8
Image
10
69.170110
20
40.987871
11
67.387242
21
41.932596
0
LINE
8
Image
10
67.387242
20
41.932596
11
66.550629
21
42.226990
0
LINE
8
Image
10
66.550629
20
42.226990
11
66.673104
21
41.807893
0
LINE
8
Image
10
66.673104
20
41.807893
11
69.333372
21
38.910061
0
LINE
8
Image
10
69.333372
20
38.910061
11
71.006210
21
37.164106
0
LINE
8
Image
10
71.006210
20
37.164106
11
71.701993
21
36.270430
0
LINE
8
Image
10
71.701993
20
36.270430
11
71.662196
21
36.030816
0
LINE
8
Image
10
71.662196
20
36.030816
11
71.531133
21
36.043735
0
LINE
8
Image
10
71.531133
20
36.043735
11
70.925164
21
36.882347
0
LINE
8
Image
10
70.925164
20
36.882347
11
70.361486
21
37.597351
0
LINE
8
Image
10
70.361486
20
37.597351
11
69.699758
21
38.218568
0
LINE
8
Image
10
69.699758
20
38.218568
11
69.202320
21
38.534015
0
LINE
8
Image
10
69.202320
20
38.534015
11
69.097191
21
38.510830
0
LINE
8
Image
10
69.097191
20
38.510830
11
69.131511
21
38.331709
0
LINE
8
Image
10
69.131511
20
38.331709
11
70.084314
21
36.057256
0
LINE
8
Image
10
70.084314
20
36.057256
11
70.980668
21
34.263906
0
LINE
8
Image
10
70.980668
20
34.263906
11
72.018543
21
32.635486
0
LINE
8
Image
10
72.018543
20
32.635486
11
73.157199
21
31.124513
0
LINE
8
Image
10
73.157199
20
31.124513
11
73.238231
21
32.684415
0
LINE
8
Image
10
73.238231
20
32.684415
11
73.152240
21
34.310646
0
LINE
8
Image
10
73.152240
20
34.310646
11
72.639903
21
36.106188
0
LINE
8
Image
10
72.639903
20
36.106188
11
72.639903
21
36.106188
0
LINE
8
Image
10
57.449574
20
35.652954
11
56.596726
21
36.703363
0
LINE
8
Image
10
56.596726
20
36.703363
11
55.159018
21
38.044200
0
LINE
8
Image
10
55.159018
20
38.044200
11
53.555102
21
39.315877
0
LINE
8
Image
10
53.555102
20
39.315877
11
52.203631
21
40.158803
0
LINE
8
Image
10
52.203631
20
40.158803
11
51.283972
21
40.544271
0
LINE
8
Image
10
51.283972
20
40.544271
11
50.373564
21
40.773046
0
LINE
8
Image
10
50.373564
20
40.773046
11
47.360357
21
40.963156
0
LINE
8
Image
10
47.360357
20
40.963156
11
44.927735
21
40.943262
0
LINE
8
Image
10
44.927735
20
40.943262
11
42.784876
21
40.748999
0
LINE
8
Image
10
42.784876
20
40.748999
11
40.908536
21
40.377093
0
LINE
8
Image
10
40.908536
20
40.377093
11
39.275468
21
39.824269
0
LINE
8
Image
10
39.275468
20
39.824269
11
38.232244
21
39.381775
0
LINE
8
Image
10
38.232244
20
39.381775
11
39.555159
21
38.702033
0
LINE
8
Image
10
39.555159
20
38.702033
11
44.158153
21
36.621832
0
LINE
8
Image
10
44.158153
20
36.621832
11
46.251403
21
35.830762
0
LINE
8
Image
10
46.251403
20
35.830762
11
47.624940
21
35.440486
0
LINE
8
Image
10
47.624940
20
35.440486
11
53.256637
21
35.225285
0
LINE
8
Image
10
53.256637
20
35.225285
11
56.997758
21
35.264331
0
LINE
8
Image
10
56.997758
20
35.264331
11
57.476444
21
35.398793
0
LINE
8
Image
10
57.476444
20
35.398793
11
57.449574
21
35.652954
0
LINE
8
Image
10
57.449574
20
35.652954
11
57.449574
21
35.652954
0
LINE
8
Image
10
61.846276
20
36.042203
11
62.085456
21
36.671688
0
LINE
8
Image
10
62.085456
20
36.671688
11
62.177005
21
37.879497
0
LINE
8
Image
10
62.177005
20
37.879497
11
62.150285
21
38.787190
0
LINE
8
Image
10
62.150285
20
38.787190
11
62.001021
21
39.414839
0
LINE
8
Image
10
62.001021
20
39.414839
11
61.625556
21
40.002524
0
LINE
8
Image
10
61.625556
20
40.002524
11
60.920236
21
40.790323
0
LINE
8
Image
10
60.920236
20
40.790323
11
59.663467
21
42.134714
0
LINE
8
Image
10
59.663467
20
42.134714
11
57.811386
21
41.981264
0
LINE
8
Image
10
57.811386
20
41.981264
11
55.089153
21
41.556925
0
LINE
8
Image
10
55.089153
20
41.556925
11
54.147013
21
41.224843
0
LINE
8
Image
10
54.147013
20
41.224843
11
53.457945
21
40.805732
0
LINE
8
Image
10
53.457945
20
40.805732
11
53.159335
21
40.524261
0
LINE
8
Image
10
53.159335
20
40.524261
11
53.154221
21
40.263270
0
LINE
8
Image
10
53.154221
20
40.263270
11
54.357186
21
39.213683
0
LINE
8
Image
10
54.357186
20
39.213683
11
55.742251
21
38.000513
0
LINE
8
Image
10
55.742251
20
38.000513
11
57.024098
21
36.678446
0
LINE
8
Image
10
57.024098
20
36.678446
11
58.232440
21
35.278829
0
LINE
8
Image
10
58.232440
20
35.278829
11
59.873993
21
35.525089
0
LINE
8
Image
10
59.873993
20
35.525089
11
61.846276
21
36.042203
0
LINE
8
Image
10
61.846276
20
36.042203
11
61.846276
21
36.042203
0
LINE
8
Image
10
26.722883
20
39.032936
11
26.480546
21
39.271426
0
LINE
8
Image
10
26.480546
20
39.271426
11
25.901122
21
39.465929
0
LINE
8
Image
10
25.901122
20
39.465929
11
25.205995
21
39.565386
0
LINE
8
Image
10
25.205995
20
39.565386
11
24.616546
21
39.518737
0
LINE
8
Image
10
24.616546
20
39.518737
11
24.255809
21
39.324475
0
LINE
8
Image
10
24.255809
20
39.324475
11
25.135385
21
39.146929
0
LINE
8
Image
10
25.135385
20
39.146929
11
26.524446
21
38.933834
0
LINE
8
Image
10
26.524446
20
38.933834
11
26.722883
21
39.032936
0
LINE
8
Image
10
26.722883
20
39.032936
11
26.722883
21
39.032936
0
LINE
8
Image
10
41.669526
20
40.892523
11
44.251507
21
41.271432
0
LINE
8
Image
10
44.251507
20
41.271432
11
44.994502
21
41.364783
0
LINE
8
Image
10
44.994502
20
41.364783
11
45.243693
21
41.635295
0
LINE
8
Image
10
45.243693
20
41.635295
11
44.843849
21
42.543711
0
LINE
8
Image
10
44.843849
20
42.543711
11
42.671131
21
45.773254
0
LINE
8
Image
10
42.671131
20
45.773254
11
41.993096
21
46.830966
0
LINE
8
Image
10
41.993096
20
46.830966
11
42.016833
21
46.880758
0
LINE
8
Image
10
42.016833
20
46.880758
11
42.284012
21
46.607714
0
LINE
8
Image
10
42.284012
20
46.607714
11
44.349003
21
43.829593
0
LINE
8
Image
10
44.349003
20
43.829593
11
45.952881
21
41.649823
0
LINE
8
Image
10
45.952881
20
41.649823
11
46.637642
21
41.454431
0
LINE
8
Image
10
46.637642
20
41.454431
11
47.834163
21
41.312412
0
LINE
8
Image
10
47.834163
20
41.312412
11
48.971079
21
41.269137
0
LINE
8
Image
10
48.971079
20
41.269137
11
49.477021
21
41.369976
0
LINE
8
Image
10
49.477021
20
41.369976
11
47.070168
21
44.095822
0
LINE
8
Image
10
47.070168
20
44.095822
11
43.149663
21
48.640913
0
LINE
8
Image
10
43.149663
20
48.640913
11
41.778342
21
50.413051
0
LINE
8
Image
10
41.778342
20
50.413051
11
41.324388
21
51.202547
0
LINE
8
Image
10
41.324388
20
51.202547
11
42.443587
21
49.967252
0
LINE
8
Image
10
42.443587
20
49.967252
11
46.378513
21
45.305972
0
LINE
8
Image
10
46.378513
20
45.305972
11
49.835174
21
41.697512
0
LINE
8
Image
10
49.835174
20
41.697512
11
51.676420
21
40.752929
0
LINE
8
Image
10
51.676420
20
40.752929
11
52.598890
21
40.566123
0
LINE
8
Image
10
52.598890
20
40.566123
11
53.196838
21
40.892637
0
LINE
8
Image
10
53.196838
20
40.892637
11
53.522193
21
41.320014
0
LINE
8
Image
10
53.522193
20
41.320014
11
53.446999
21
41.670731
0
LINE
8
Image
10
53.446999
20
41.670731
11
52.887506
21
42.678377
0
LINE
8
Image
10
52.887506
20
42.678377
11
52.280419
21
44.223738
0
LINE
8
Image
10
52.280419
20
44.223738
11
51.793294
21
45.824979
0
LINE
8
Image
10
51.793294
20
45.824979
11
51.593685
21
47.000268
0
LINE
8
Image
10
51.593685
20
47.000268
11
51.494755
21
47.954901
0
LINE
8
Image
10
51.494755
20
47.954901
11
51.321489
21
48.115721
0
LINE
8
Image
10
51.321489
20
48.115721
11
51.021598
21
48.154501
0
LINE
8
Image
10
51.021598
20
48.154501
11
49.822321
21
48.422898
0
LINE
8
Image
10
49.822321
20
48.422898
11
47.723680
21
49.092219
0
LINE
8
Image
10
47.723680
20
49.092219
11
43.216739
21
50.818426
0
LINE
8
Image
10
43.216739
20
50.818426
11
41.955733
21
51.432915
0
LINE
8
Image
10
41.955733
20
51.432915
11
41.003404
21
52.062168
0
LINE
8
Image
10
41.003404
20
52.062168
11
40.127030
21
52.891848
0
LINE
8
Image
10
40.127030
20
52.891848
11
39.093892
21
54.107618
0
LINE
8
Image
10
39.093892
20
54.107618
11
38.477756
21
54.920330
0
LINE
8
Image
10
38.477756
20
54.920330
11
39.591779
21
53.786399
0
LINE
8
Image
10
39.591779
20
53.786399
11
41.249569
21
52.304804
0
LINE
8
Image
10
41.249569
20
52.304804
11
43.135334
21
51.233557
0
LINE
8
Image
10
43.135334
20
51.233557
11
47.423015
21
49.522101
0
LINE
8
Image
10
47.423015
20
49.522101
11
50.859848
21
48.548399
0
LINE
8
Image
10
50.859848
20
48.548399
11
51.553250
21
48.472521
0
LINE
8
Image
10
51.553250
20
48.472521
11
52.051873
21
48.542790
0
LINE
8
Image
10
52.051873
20
48.542790
11
53.183189
21
49.378412
0
LINE
8
Image
10
53.183189
20
49.378412
11
55.654820
21
52.064775
0
LINE
8
Image
10
55.654820
20
52.064775
11
58.023089
21
55.165950
0
LINE
8
Image
10
58.023089
20
55.165950
11
58.745985
21
56.891963
0
LINE
8
Image
10
58.745985
20
56.891963
11
59.537207
21
60.193027
0
LINE
8
Image
10
59.537207
20
60.193027
11
61.002616
21
66.723259
0
LINE
8
Image
10
61.002616
20
66.723259
11
61.454913
21
68.700680
0
LINE
8
Image
10
61.454913
20
68.700680
11
61.607232
21
70.058674
0
LINE
8
Image
10
61.607232
20
70.058674
11
61.460273
21
71.111697
0
LINE
8
Image
10
61.460273
20
71.111697
11
61.014734
21
72.174203
0
LINE
8
Image
10
61.014734
20
72.174203
11
59.038091
21
75.312423
0
LINE
8
Image
10
59.038091
20
75.312423
11
56.415998
21
78.615109
0
LINE
8
Image
10
56.415998
20
78.615109
11
53.894066
21
81.225218
0
LINE
8
Image
10
53.894066
20
81.225218
11
52.903664
21
82.002730
0
LINE
8
Image
10
52.903664
20
82.002730
11
52.217908
21
82.285708
0
LINE
8
Image
10
52.217908
20
82.285708
11
51.941381
21
82.097300
0
LINE
8
Image
10
51.941381
20
82.097300
11
51.919932
21
81.279297
0
LINE
8
Image
10
51.919932
20
81.279297
11
52.784309
21
76.237820
0
LINE
8
Image
10
52.784309
20
76.237820
11
53.710349
21
70.965876
0
LINE
8
Image
10
53.710349
20
70.965876
11
53.452506
21
71.072875
0
LINE
8
Image
10
53.452506
20
71.072875
11
52.750459
21
71.674647
0
LINE
8
Image
10
52.750459
20
71.674647
11
50.442640
21
73.968425
0
LINE
8
Image
10
50.442640
20
73.968425
11
47.245494
21
77.117485
0
LINE
8
Image
10
47.245494
20
77.117485
11
44.489289
21
79.435587
0
LINE
8
Image
10
44.489289
20
79.435587
11
42.325165
21
80.809327
0
LINE
8
Image
10
42.325165
20
80.809327
11
41.512365
21
81.106622
0
LINE
8
Image
10
41.512365
20
81.106622
11
40.904262
21
81.125300
0
LINE
8
Image
10
40.904262
20
81.125300
11
39.885928
21
80.536101
0
LINE
8
Image
10
39.885928
20
80.536101
11
38.585046
21
79.393356
0
LINE
8
Image
10
38.585046
20
79.393356
11
37.379200
21
78.068721
0
LINE
8
Image
10
37.379200
20
78.068721
11
36.645976
21
76.933855
0
LINE
8
Image
10
36.645976
20
76.933855
11
36.259606
21
75.145229
0
LINE
8
Image
10
36.259606
20
75.145229
11
36.047246
21
71.754659
0
LINE
8
Image
10
36.047246
20
71.754659
11
35.906379
21
67.705894
0
LINE
8
Image
10
35.906379
20
67.705894
11
36.790486
21
66.793728
0
LINE
8
Image
10
36.790486
20
66.793728
11
37.351262
21
66.149510
0
LINE
8
Image
10
37.351262
20
66.149510
11
37.458000
21
65.881562
0
LINE
8
Image
10
37.458000
20
65.881562
11
37.394896
21
65.773284
0
LINE
8
Image
10
37.394896
20
65.773284
11
37.547325
21
65.512956
0
LINE
8
Image
10
37.547325
20
65.512956
11
37.649786
21
65.289870
0
LINE
8
Image
10
37.649786
20
65.289870
11
37.571406
21
65.029645
0
LINE
8
Image
10
37.571406
20
65.029645
11
36.754963
21
64.204259
0
LINE
8
Image
10
36.754963
20
64.204259
11
35.730170
21
63.462365
0
LINE
8
Image
10
35.730170
20
63.462365
11
35.413136
21
63.464263
0
LINE
8
Image
10
35.413136
20
63.464263
11
35.053522
21
63.659380
0
LINE
8
Image
10
35.053522
20
63.659380
11
33.726649
21
65.098902
0
LINE
8
Image
10
33.726649
20
65.098902
11
32.840109
21
66.200687
0
LINE
8
Image
10
32.840109
20
66.200687
11
31.817067
21
67.220788
0
LINE
8
Image
10
31.817067
20
67.220788
11
30.867347
21
67.970923
0
LINE
8
Image
10
30.867347
20
67.970923
11
30.200771
21
68.262809
0
LINE
8
Image
10
30.200771
20
68.262809
11
29.600524
21
68.106570
0
LINE
8
Image
10
29.600524
20
68.106570
11
29.223975
21
67.561170
0
LINE
8
Image
10
29.223975
20
67.561170
11
29.029975
21
66.511583
0
LINE
8
Image
10
29.029975
20
66.511583
11
28.977382
21
64.842785
0
LINE
8
Image
10
28.977382
20
64.842785
11
29.106885
21
62.476066
0
LINE
8
Image
10
29.106885
20
62.476066
11
29.716690
21
60.798452
0
LINE
8
Image
10
29.716690
20
60.798452
11
30.587064
21
59.440632
0
LINE
8
Image
10
30.587064
20
59.440632
11
31.782295
21
58.102988
0
LINE
8
Image
10
31.782295
20
58.102988
11
33.079835
21
57.003131
0
LINE
8
Image
10
33.079835
20
57.003131
11
34.257141
21
56.358672
0
LINE
8
Image
10
34.257141
20
56.358672
11
35.082726
21
56.165064
0
LINE
8
Image
10
35.082726
20
56.165064
11
35.755385
21
56.152945
0
LINE
8
Image
10
35.755385
20
56.152945
11
36.188416
21
56.310881
0
LINE
8
Image
10
36.188416
20
56.310881
11
36.295118
21
56.627438
0
LINE
8
Image
10
36.295118
20
56.627438
11
36.294082
21
56.874242
0
LINE
8
Image
10
36.294082
20
56.874242
11
36.546471
21
56.687303
0
LINE
8
Image
10
36.546471
20
56.687303
11
36.730399
21
56.368485
0
LINE
8
Image
10
36.730399
20
56.368485
11
36.599231
21
56.102363
0
LINE
8
Image
10
36.599231
20
56.102363
11
36.168596
21
55.901918
0
LINE
8
Image
10
36.168596
20
55.901918
11
35.454122
21
55.780127
0
LINE
8
Image
10
35.454122
20
55.780127
11
34.926698
21
55.702073
0
LINE
8
Image
10
34.926698
20
55.702073
11
34.614195
21
55.505059
0
LINE
8
Image
10
34.614195
20
55.505059
11
34.222866
21
54.239910
0
LINE
8
Image
10
34.222866
20
54.239910
11
33.990796
21
52.162933
0
LINE
8
Image
10
33.990796
20
52.162933
11
33.861443
21
49.212833
0
LINE
8
Image
10
33.861443
20
49.212833
11
33.786206
21
46.826212
0
LINE
8
Image
10
33.786206
20
46.826212
11
33.735656
21
46.206044
0
LINE
8
Image
10
33.735656
20
46.206044
11
33.684239
21
46.103983
0
LINE
8
Image
10
33.684239
20
46.103983
11
33.384205
21
46.537121
0
LINE
8
Image
10
33.384205
20
46.537121
11
31.798159
21
44.974748
0
LINE
8
Image
10
31.798159
20
44.974748
11
30.391154
21
43.442254
0
LINE
8
Image
10
30.391154
20
43.442254
11
32.988783
21
41.987164
0
LINE
8
Image
10
32.988783
20
41.987164
11
35.721560
21
40.468867
0
LINE
8
Image
10
35.721560
20
40.468867
11
37.197997
21
39.772285
0
LINE
8
Image
10
37.197997
20
39.772285
11
38.042486
21
39.687105
0
LINE
8
Image
10
38.042486
20
39.687105
11
38.879414
21
40.003011
0
LINE
8
Image
10
38.879414
20
40.003011
11
41.669526
21
40.892523
0
LINE
8
Image
10
41.669526
20
40.892523
11
41.669526
21
40.892523
0
LINE
8
Image
10
51.614574
20
43.281763
11
51.667589
21
43.556424
0
LINE
8
Image
10
51.667589
20
43.556424
11
51.774424
21
43.441616
0
LINE
8
Image
10
51.774424
20
43.441616
11
51.753549
21
42.934498
0
LINE
8
Image
10
51.753549
20
42.934498
11
51.646788
21
42.970569
0
LINE
8
Image
10
51.646788
20
42.970569
11
51.614584
21
43.281763
0
LINE
8
Image
10
51.614584
20
43.281763
11
51.614574
21
43.281763
0
LINE
8
Image
10
51.380682
20
44.582630
11
51.423437
21
45.005725
0
LINE
8
Image
10
51.423437
20
45.005725
11
51.512455
21
44.908324
0
LINE
8
Image
10
51.512455
20
44.908324
11
51.502639
21
44.114575
0
LINE
8
Image
10
51.502639
20
44.114575
11
51.412453
21
44.117718
0
LINE
8
Image
10
51.412453
20
44.117718
11
51.380669
21
44.582630
0
LINE
8
Image
10
51.380669
20
44.582630
11
51.380682
21
44.582630
0
LINE
8
Image
10
51.664866
20
53.100348
11
52.458615
21
53.090532
0
LINE
8
Image
10
52.458615
20
53.090532
11
52.455472
21
53.000346
0
LINE
8
Image
10
52.455472
20
53.000346
11
51.990560
21
52.968562
0
LINE
8
Image
10
51.990560
20
52.968562
11
51.567465
21
53.011317
0
LINE
8
Image
10
51.567465
20
53.011317
11
51.664866
21
53.100335
0
LINE
8
Image
10
51.664866
20
53.100335
11
51.664866
21
53.100348
0
LINE
8
Image
10
52.916600
20
54.180114
11
51.266130
21
54.596583
0
LINE
8
Image
10
51.266130
20
54.596583
11
50.225788
21
55.220370
0
LINE
8
Image
10
50.225788
20
55.220370
11
50.122428
21
55.466017
0
LINE
8
Image
10
50.122428
20
55.466017
11
50.799936
21
55.150586
0
LINE
8
Image
10
50.799936
20
55.150586
11
51.881419
21
54.759160
0
LINE
8
Image
10
51.881419
20
54.759160
11
53.181183
21
54.511793
0
LINE
8
Image
10
53.181183
20
54.511793
11
54.064707
21
54.368938
0
LINE
8
Image
10
54.064707
20
54.368938
11
54.204319
21
54.294533
0
LINE
8
Image
10
54.204319
20
54.294533
11
54.107224
21
54.228919
0
LINE
8
Image
10
54.107224
20
54.228919
11
52.916600
21
54.180114
0
LINE
8
Image
10
52.916600
20
54.180114
11
52.916600
21
54.180114
0
LINE
8
Image
10
54.173369
20
55.186786
11
53.974932
21
55.769255
0
LINE
8
Image
10
53.974932
20
55.769255
11
54.028107
21
55.949251
0
LINE
8
Image
10
54.028107
20
55.949251
11
54.215951
21
56.038437
0
LINE
8
Image
10
54.215951
20
56.038437
11
55.165556
21
55.973529
0
LINE
8
Image
10
55.165556
20
55.973529
11
56.006100
21
55.910485
0
LINE
8
Image
10
56.006100
20
55.910485
11
56.355047
21
56.009634
0
LINE
8
Image
10
56.355047
20
56.009634
11
55.562430
21
57.414906
0
LINE
8
Image
10
55.562430
20
57.414906
11
54.769813
21
58.984219
0
LINE
8
Image
10
54.769813
20
58.984219
11
54.851239
21
58.996990
0
LINE
8
Image
10
54.851239
20
58.996990
11
55.073668
21
58.751823
0
LINE
8
Image
10
55.073668
20
58.751823
11
55.805685
21
57.661304
0
LINE
8
Image
10
55.805685
20
57.661304
11
56.569790
21
56.232052
0
LINE
8
Image
10
56.569790
20
56.232052
11
56.631435
21
55.862211
0
LINE
8
Image
10
56.631435
20
55.862211
11
56.514963
21
55.620097
0
LINE
8
Image
10
56.514963
20
55.620097
11
56.022968
21
55.341156
0
LINE
8
Image
10
56.022968
20
55.341156
11
55.302166
21
55.145140
0
LINE
8
Image
10
55.302166
20
55.145140
11
54.602365
21
55.078274
0
LINE
8
Image
10
54.602365
20
55.078274
11
54.173369
21
55.186786
0
LINE
8
Image
10
54.173369
20
55.186786
11
54.173369
21
55.186786
0
LINE
8
Image
10
55.297847
20
55.562825
11
54.561282
21
55.815473
0
LINE
8
Image
10
54.561282
20
55.815473
11
54.355367
21
55.752311
0
LINE
8
Image
10
54.355367
20
55.752311
11
54.371807
21
55.562825
0
LINE
8
Image
10
54.371807
20
55.562825
11
54.657580
21
55.377153
0
LINE
8
Image
10
54.657580
20
55.377153
11
55.115025
21
55.302293
0
LINE
8
Image
10
55.115025
20
55.302293
11
55.504163
21
55.355606
0
LINE
8
Image
10
55.504163
20
55.355606
11
55.297847
21
55.562825
0
LINE
8
Image
10
55.297847
20
55.562825
11
55.297847
21
55.562825
0
LINE
8
Image
10
48.951906
20
56.158137
11
49.096531
21
56.501118
0
LINE
8
Image
10
49.096531
20
56.501118
11
49.543167
21
56.600268
0
LINE
8
Image
10
49.543167
20
56.600268
11
49.891000
21
56.546904
0
LINE
8
Image
10
49.891000
20
56.546904
11
49.741604
21
56.428305
0
LINE
8
Image
10
49.741604
20
56.428305
11
49.150343
21
55.986174
0
LINE
8
Image
10
49.150343
20
55.986174
11
49.007099
21
55.897732
0
LINE
8
Image
10
49.007099
20
55.897732
11
48.951906
21
56.158137
0
LINE
8
Image
10
48.951906
20
56.158137
11
48.951906
21
56.158137
0
LINE
8
Image
10
33.006729
20
59.140469
11
32.440188
21
59.556691
0
LINE
8
Image
10
32.440188
20
59.556691
11
32.144848
21
59.952313
0
LINE
8
Image
10
32.144848
20
59.952313
11
32.032401
21
60.540342
0
LINE
8
Image
10
32.032401
20
60.540342
11
32.014543
21
61.533786
0
LINE
8
Image
10
32.014543
20
61.533786
11
32.101826
21
62.907879
0
LINE
8
Image
10
32.101826
20
62.907879
11
32.224357
21
63.244824
0
LINE
8
Image
10
32.224357
20
63.244824
11
32.411417
21
63.404634
0
LINE
8
Image
10
32.411417
20
63.404634
11
32.673984
21
63.576576
0
LINE
8
Image
10
32.673984
20
63.576576
11
32.786567
21
63.828720
0
LINE
8
Image
10
32.786567
20
63.828720
11
32.558041
21
64.544516
0
LINE
8
Image
10
32.558041
20
64.544516
11
32.259382
21
64.730998
0
LINE
8
Image
10
32.259382
20
64.730998
11
31.777146
21
64.279933
0
LINE
8
Image
10
31.777146
20
64.279933
11
31.394070
21
63.915323
0
LINE
8
Image
10
31.394070
20
63.915323
11
31.229597
21
63.947720
0
LINE
8
Image
10
31.229597
20
63.947720
11
31.485377
21
64.426355
0
LINE
8
Image
10
31.485377
20
64.426355
11
31.712899
21
64.722465
0
LINE
8
Image
10
31.712899
20
64.722465
11
31.721164
21
65.144446
0
LINE
8
Image
10
31.721164
20
65.144446
11
31.523946
21
65.626404
0
LINE
8
Image
10
31.523946
20
65.626404
11
31.135019
21
66.102444
0
LINE
8
Image
10
31.135019
20
66.102444
11
30.700908
21
66.436660
0
LINE
8
Image
10
30.700908
20
66.436660
11
30.398055
21
66.494444
0
LINE
8
Image
10
30.398055
20
66.494444
11
30.219532
21
66.273446
0
LINE
8
Image
10
30.219532
20
66.273446
11
30.158411
21
65.771318
0
LINE
8
Image
10
30.158411
20
65.771318
11
29.871915
21
64.823230
0
LINE
8
Image
10
29.871915
20
64.823230
11
29.745657
21
64.688001
0
LINE
8
Image
10
29.745657
20
64.688001
11
29.682770
21
64.739295
0
LINE
8
Image
10
29.682770
20
64.739295
11
29.734070
21
65.461851
0
LINE
8
Image
10
29.734070
20
65.461851
11
29.909084
21
66.304292
0
LINE
8
Image
10
29.909084
20
66.304292
11
30.165943
21
66.749324
0
LINE
8
Image
10
30.165943
20
66.749324
11
30.542962
21
66.828640
0
LINE
8
Image
10
30.542962
20
66.828640
11
31.078456
21
66.573933
0
LINE
8
Image
10
31.078456
20
66.573933
11
31.860726
21
65.867989
0
LINE
8
Image
10
31.860726
20
65.867989
11
32.680720
21
64.853659
0
LINE
8
Image
10
32.680720
20
64.853659
11
33.328839
21
63.822914
0
LINE
8
Image
10
33.328839
20
63.822914
11
33.595482
21
63.067724
0
LINE
8
Image
10
33.595482
20
63.067724
11
33.408010
21
62.541031
0
LINE
8
Image
10
33.408010
20
62.541031
11
32.940584
21
62.069440
0
LINE
8
Image
10
32.940584
20
62.069440
11
32.454758
21
61.575482
0
LINE
8
Image
10
32.454758
20
61.575482
11
32.279126
21
60.974577
0
LINE
8
Image
10
32.279126
20
60.974577
11
32.367448
21
60.461830
0
LINE
8
Image
10
32.367448
20
60.461830
11
32.922200
21
60.734478
0
LINE
8
Image
10
32.922200
20
60.734478
11
33.550997
21
61.011037
0
LINE
8
Image
10
33.550997
20
61.011037
11
34.112824
21
60.608285
0
LINE
8
Image
10
34.112824
20
60.608285
11
34.478021
21
60.168022
0
LINE
8
Image
10
34.478021
20
60.168022
11
34.632539
21
59.765516
0
LINE
8
Image
10
34.632539
20
59.765516
11
34.581404
21
59.361553
0
LINE
8
Image
10
34.581404
20
59.361553
11
34.329644
21
58.916917
0
LINE
8
Image
10
34.329644
20
58.916917
11
34.122939
21
58.687508
0
LINE
8
Image
10
34.122939
20
58.687508
11
33.898055
21
58.637397
0
LINE
8
Image
10
33.898055
20
58.637397
11
33.006729
21
59.140469
0
LINE
8
Image
10
33.006729
20
59.140469
11
33.006729
21
59.140469
0
LINE
8
Image
10
34.263499
20
59.266987
11
34.257819
21
59.453849
0
LINE
8
Image
10
34.257819
20
59.453849
11
34.014531
21
59.531570
0
LINE
8
Image
10
34.014531
20
59.531570
11
33.723210
21
59.453849
0
LINE
8
Image
10
33.723210
20
59.453849
11
33.602041
21
59.266987
0
LINE
8
Image
10
33.602041
20
59.266987
11
33.851008
21
59.002404
0
LINE
8
Image
10
33.851008
20
59.002404
11
34.263499
21
59.266987
0
LINE
8
Image
10
34.263499
20
59.266987
11
34.263499
21
59.266987
0
LINE
8
Image
10
33.826619
20
60.505812
11
33.491931
21
60.719242
0
LINE
8
Image
10
33.491931
20
60.719242
11
33.041178
21
60.428924
0
LINE
8
Image
10
33.041178
20
60.428924
11
32.721620
21
60.038530
0
LINE
8
Image
10
32.721620
20
60.038530
11
32.711712
21
59.779584
0
LINE
8
Image
10
32.711712
20
59.779584
11
32.975525
21
59.699992
0
LINE
8
Image
10
32.975525
20
59.699992
11
33.477131
21
59.847657
0
LINE
8
Image
10
33.477131
20
59.847657
11
33.931722
21
60.157334
0
LINE
8
Image
10
33.931722
20
60.157334
11
33.826619
21
60.505812
0
LINE
8
Image
10
33.826619
20
60.505812
11
33.826619
21
60.505812
0
LINE
8
Image
10
33.337458
20
62.889118
11
33.195485
21
63.154014
0
LINE
8
Image
10
33.195485
20
63.154014
11
32.875152
21
63.179535
0
LINE
8
Image
10
32.875152
20
63.179535
11
32.534833
21
63.002099
0
LINE
8
Image
10
32.534833
20
63.002099
11
32.332905
21
62.658123
0
LINE
8
Image
10
32.332905
20
62.658123
11
32.386970
21
62.347068
0
LINE
8
Image
10
32.386970
20
62.347068
11
32.792885
21
62.361290
0
LINE
8
Image
10
32.792885
20
62.361290
11
33.177490
21
62.575084
0
LINE
8
Image
10
33.177490
20
62.575084
11
33.337458
21
62.889118
0
LINE
8
Image
10
33.337458
20
62.889118
11
33.337458
21
62.889118
0
LINE
8
Image
10
45.045256
20
59.198301
11
43.873662
21
59.345875
0
LINE
8
Image
10
43.873662
20
59.345875
11
43.391612
21
59.570173
0
LINE
8
Image
10
43.391612
20
59.570173
11
43.759758
21
59.705546
0
LINE
8
Image
10
43.759758
20
59.705546
11
44.704064
21
59.689561
0
LINE
8
Image
10
44.704064
20
59.689561
11
47.360357
21
59.274985
0
LINE
8
Image
10
47.360357
20
59.274985
11
48.040580
21
59.091204
0
LINE
8
Image
10
48.040580
20
59.091204
11
47.492649
21
59.080467
0
LINE
8
Image
10
47.492649
20
59.080467
11
45.045256
21
59.198301
0
LINE
8
Image
10
45.045256
20
59.198301
11
45.045256
21
59.198301
0
LINE
8
Image
10
48.947855
20
59.287651
11
48.642852
21
59.440464
0
LINE
8
Image
10
48.642852
20
59.440464
11
49.317223
21
59.374331
0
LINE
8
Image
10
49.317223
20
59.374331
11
50.149753
21
59.350046
0
LINE
8
Image
10
50.149753
20
59.350046
11
50.569942
21
59.578478
0
LINE
8
Image
10
50.569942
20
59.578478
11
50.744936
21
59.753424
0
LINE
8
Image
10
50.744936
20
59.753424
11
50.795885
21
59.465424
0
LINE
8
Image
10
50.795885
20
59.465424
11
50.668975
21
59.166748
0
LINE
8
Image
10
50.668975
20
59.166748
11
50.300123
21
59.035776
0
LINE
8
Image
10
50.300123
20
59.035776
11
48.947855
21
59.287651
0
LINE
8
Image
10
48.947855
20
59.287651
11
48.947855
21
59.287651
0
LINE
8
Image
10
52.455228
20
59.994408
11
52.552607
21
60.144255
0
LINE
8
Image
10
52.552607
20
60.144255
11
52.505758
21
60.347917
0
LINE
8
Image
10
52.505758
20
60.347917
11
52.458227
21
60.523194
0
LINE
8
Image
10
52.458227
20
60.523194
11
52.581440
21
60.576968
0
LINE
8
Image
10
52.581440
20
60.576968
11
53.181183
21
60.325322
0
LINE
8
Image
10
53.181183
20
60.325322
11
53.376963
21
60.140746
0
LINE
8
Image
10
53.376963
20
60.140746
11
53.268969
21
60.064789
0
LINE
8
Image
10
53.268969
20
60.064789
11
52.607511
21
59.971812
0
LINE
8
Image
10
52.607511
20
59.971812
11
52.417425
21
59.941767
0
LINE
8
Image
10
52.417425
20
59.941767
11
52.455228
21
59.994408
0
LINE
8
Image
10
52.455228
20
59.994408
11
52.455228
21
59.994408
0
LINE
8
Image
10
56.620762
20
60.206712
11
58.208260
21
60.558144
0
LINE
8
Image
10
58.208260
20
60.558144
11
58.295374
21
60.517798
0
LINE
8
Image
10
58.295374
20
60.517798
11
58.179703
21
60.431714
0
LINE
8
Image
10
58.179703
20
60.431714
11
57.535160
21
60.185151
0
LINE
8
Image
10
57.535160
20
60.185151
11
55.959305
21
59.834187
0
LINE
8
Image
10
55.959305
20
59.834187
11
55.847787
21
59.862819
0
LINE
8
Image
10
55.847787
20
59.862819
11
55.935327
21
59.942577
0
LINE
8
Image
10
55.935327
20
59.942577
11
56.620762
21
60.206712
0
LINE
8
Image
10
56.620762
20
60.206712
11
56.620762
21
60.206712
0
LINE
8
Image
10
47.492649
20
60.236477
11
45.302218
21
60.434129
0
LINE
8
Image
10
45.302218
20
60.434129
11
44.100744
21
60.661683
0
LINE
8
Image
10
44.100744
20
60.661683
11
43.457534
21
61.066873
0
LINE
8
Image
10
43.457534
20
61.066873
11
42.941895
21
61.797430
0
LINE
8
Image
10
42.941895
20
61.797430
11
42.179330
21
62.756827
0
LINE
8
Image
10
42.179330
20
62.756827
11
41.810483
21
62.927034
0
LINE
8
Image
10
41.810483
20
62.927034
11
41.341094
21
62.970675
0
LINE
8
Image
10
41.341094
20
62.970675
11
40.733793
21
63.057580
0
LINE
8
Image
10
40.733793
20
63.057580
11
40.481199
21
63.265855
0
LINE
8
Image
10
40.481199
20
63.265855
11
41.067106
21
64.595144
0
LINE
8
Image
10
41.067106
20
64.595144
11
41.829302
21
65.616979
0
LINE
8
Image
10
41.829302
20
65.616979
11
50.626954
21
62.723404
0
LINE
8
Image
10
50.626954
20
62.723404
11
51.959671
21
62.327144
0
LINE
8
Image
10
51.959671
20
62.327144
11
52.317557
21
62.346419
0
LINE
8
Image
10
52.317557
20
62.346419
11
52.589070
21
62.496858
0
LINE
8
Image
10
52.589070
20
62.496858
11
52.902823
21
62.646475
0
LINE
8
Image
10
52.902823
20
62.646475
11
52.820159
21
62.045108
0
LINE
8
Image
10
52.820159
20
62.045108
11
52.738842
21
61.521940
0
LINE
8
Image
10
52.738842
20
61.521940
11
52.904511
21
61.648234
0
LINE
8
Image
10
52.904511
20
61.648234
11
53.213163
21
62.706566
0
LINE
8
Image
10
53.213163
20
62.706566
11
53.264683
21
63.172685
0
LINE
8
Image
10
53.264683
20
63.172685
11
53.366119
21
62.786359
0
LINE
8
Image
10
53.366119
20
62.786359
11
53.363069
21
62.220904
0
LINE
8
Image
10
53.363069
20
62.220904
11
53.197225
21
61.678209
0
LINE
8
Image
10
53.197225
20
61.678209
11
52.744558
21
61.272454
0
LINE
8
Image
10
52.744558
20
61.272454
11
51.754541
21
61.246319
0
LINE
8
Image
10
51.754541
20
61.246319
11
50.707310
21
61.202716
0
LINE
8
Image
10
50.707310
20
61.202716
11
50.037072
21
60.700826
0
LINE
8
Image
10
50.037072
20
60.700826
11
49.507481
21
60.261828
0
LINE
8
Image
10
49.507481
20
60.261828
11
49.015750
21
60.105212
0
LINE
8
Image
10
49.015750
20
60.105212
11
47.492649
21
60.236477
0
LINE
8
Image
10
47.492649
20
60.236477
11
47.492649
21
60.236477
0
LINE
8
Image
10
50.270770
20
61.416652
11
49.901594
21
61.677422
0
LINE
8
Image
10
49.901594
20
61.677422
11
49.014001
21
62.001667
0
LINE
8
Image
10
49.014001
20
62.001667
11
47.891451
21
62.237623
0
LINE
8
Image
10
47.891451
20
62.237623
11
47.235339
21
62.009683
0
LINE
8
Image
10
47.235339
20
62.009683
11
46.650188
21
61.724098
0
LINE
8
Image
10
46.650188
20
61.724098
11
46.073846
21
61.679604
0
LINE
8
Image
10
46.073846
20
61.679604
11
45.514193
21
61.875154
0
LINE
8
Image
10
45.514193
20
61.875154
11
44.979110
21
62.309702
0
LINE
8
Image
10
44.979110
20
62.309702
11
44.291153
21
62.810190
0
LINE
8
Image
10
44.291153
20
62.810190
11
43.462825
21
62.971160
0
LINE
8
Image
10
43.462825
20
62.971160
11
42.567947
21
62.971160
0
LINE
8
Image
10
42.567947
20
62.971160
11
43.045924
21
62.157069
0
LINE
8
Image
10
43.045924
20
62.157069
11
43.538372
21
61.424268
0
LINE
8
Image
10
43.538372
20
61.424268
11
44.119948
21
61.007689
0
LINE
8
Image
10
44.119948
20
61.007689
11
45.088419
21
60.784418
0
LINE
8
Image
10
45.088419
20
60.784418
11
46.741548
21
60.631539
0
LINE
8
Image
10
46.741548
20
60.631539
11
48.922037
21
60.549028
0
LINE
8
Image
10
48.922037
20
60.549028
11
49.466380
21
60.635813
0
LINE
8
Image
10
49.466380
20
60.635813
11
49.807750
21
60.817732
0
LINE
8
Image
10
49.807750
20
60.817732
11
50.270770
21
61.416663
0
LINE
8
Image
10
50.270770
20
61.416663
11
50.270770
21
61.416652
0
LINE
8
Image
10
52.122851
20
61.617376
11
51.659831
21
61.998058
0
LINE
8
Image
10
51.659831
20
61.998058
11
46.967962
21
63.616414
0
LINE
8
Image
10
46.967962
20
63.616414
11
42.146117
21
65.087813
0
LINE
8
Image
10
42.146117
20
65.087813
11
41.602046
21
64.890505
0
LINE
8
Image
10
41.602046
20
64.890505
11
41.152316
21
64.312744
0
LINE
8
Image
10
41.152316
20
64.312744
11
40.751513
21
63.537677
0
LINE
8
Image
10
40.751513
20
63.537677
11
42.270000
21
63.389330
0
LINE
8
Image
10
42.270000
20
63.389330
11
46.716214
21
62.829655
0
LINE
8
Image
10
46.716214
20
62.829655
11
49.741604
21
62.088455
0
LINE
8
Image
10
49.741604
20
62.088455
11
51.804905
21
61.451536
0
LINE
8
Image
10
51.804905
20
61.451536
11
52.078035
21
61.454688
0
LINE
8
Image
10
52.078035
20
61.454688
11
52.122851
21
61.617376
0
LINE
8
Image
10
52.122851
20
61.617376
11
52.122851
21
61.617376
0
LINE
8
Image
10
46.963483
20
62.309691
11
46.696387
21
62.521989
0
LINE
8
Image
10
46.696387
20
62.521989
11
46.054222
21
62.660865
0
LINE
8
Image
10
46.054222
20
62.660865
11
45.353285
21
62.662450
0
LINE
8
Image
10
45.353285
20
62.662450
11
45.501905
21
62.317370
0
LINE
8
Image
10
45.501905
20
62.317370
11
45.889009
21
62.061431
0
LINE
8
Image
10
45.889009
20
62.061431
11
46.373790
21
61.974250
0
LINE
8
Image
10
46.373790
20
61.974250
11
46.788022
21
62.056711
0
LINE
8
Image
10
46.788022
20
62.056711
11
46.963483
21
62.309697
0
LINE
8
Image
10
46.963483
20
62.309697
11
46.963483
21
62.309691
0
LINE
8
Image
10
54.782685
20
61.537588
11
54.921408
21
62.326098
0
LINE
8
Image
10
54.921408
20
62.326098
11
54.785596
21
63.058940
0
LINE
8
Image
10
54.785596
20
63.058940
11
54.663665
21
63.560965
0
LINE
8
Image
10
54.663665
20
63.560965
11
54.755830
21
63.764898
0
LINE
8
Image
10
54.755830
20
63.764898
11
54.952741
21
63.628886
0
LINE
8
Image
10
54.952741
20
63.628886
11
55.091062
21
63.301878
0
LINE
8
Image
10
55.091062
20
63.301878
11
55.171284
21
63.177493
0
LINE
8
Image
10
55.171284
20
63.177493
11
55.327116
21
63.237018
0
LINE
8
Image
10
55.327116
20
63.237018
11
55.890431
21
63.945173
0
LINE
8
Image
10
55.890431
20
63.945173
11
58.197391
21
67.979507
0
LINE
8
Image
10
58.197391
20
67.979507
11
59.948740
21
70.827341
0
LINE
8
Image
10
59.948740
20
70.827341
11
60.306560
21
70.793655
0
LINE
8
Image
10
60.306560
20
70.793655
11
60.682242
21
70.519538
0
LINE
8
Image
10
60.682242
20
70.519538
11
61.010056
21
70.072382
0
LINE
8
Image
10
61.010056
20
70.072382
11
61.224271
21
69.519578
0
LINE
8
Image
10
61.224271
20
69.519578
11
61.271007
21
68.967848
0
LINE
8
Image
10
61.271007
20
68.967848
11
61.057568
21
68.790168
0
LINE
8
Image
10
61.057568
20
68.790168
11
60.543615
21
68.476733
0
LINE
8
Image
10
60.543615
20
68.476733
11
59.983042
21
67.624361
0
LINE
8
Image
10
59.983042
20
67.624361
11
59.440562
21
66.357388
0
LINE
8
Image
10
59.440562
20
66.357388
11
58.980887
21
64.800150
0
LINE
8
Image
10
58.980887
20
64.800150
11
58.485736
21
63.106894
0
LINE
8
Image
10
58.485736
20
63.106894
11
58.034712
21
62.131810
0
LINE
8
Image
10
58.034712
20
62.131810
11
57.437158
21
61.680063
0
LINE
8
Image
10
57.437158
20
61.680063
11
56.676791
21
61.355864
0
LINE
8
Image
10
56.676791
20
61.355864
11
55.960297
21
61.223158
0
LINE
8
Image
10
55.960297
20
61.223158
11
55.494361
21
61.345887
0
LINE
8
Image
10
55.494361
20
61.345887
11
55.195147
21
61.457953
0
LINE
8
Image
10
55.195147
20
61.457953
11
54.860899
21
61.176006
0
LINE
8
Image
10
54.860899
20
61.176006
11
54.622939
21
60.950279
0
LINE
8
Image
10
54.622939
20
60.950279
11
54.782685
21
61.537588
0
LINE
8
Image
10
54.782685
20
61.537588
11
54.782685
21
61.537588
0
LINE
8
Image
10
57.016618
20
61.833326
11
57.655478
21
62.291908
0
LINE
8
Image
10
57.655478
20
62.291908
11
58.142362
21
63.054366
0
LINE
8
Image
10
58.142362
20
63.054366
11
58.536020
21
64.251436
0
LINE
8
Image
10
58.536020
20
64.251436
11
58.895199
21
66.013853
0
LINE
8
Image
10
58.895199
20
66.013853
11
59.207660
21
66.980998
0
LINE
8
Image
10
59.207660
20
66.980998
11
59.701654
21
67.820090
0
LINE
8
Image
10
59.701654
20
67.820090
11
60.086659
21
68.405122
0
LINE
8
Image
10
60.086659
20
68.405122
11
60.285161
21
68.995313
0
LINE
8
Image
10
60.285161
20
68.995313
11
60.291367
21
69.558024
0
LINE
8
Image
10
60.291367
20
69.558024
11
60.099481
21
70.060619
0
LINE
8
Image
10
60.099481
20
70.060619
11
59.950072
21
70.115239
0
LINE
8
Image
10
59.950072
20
70.115239
11
59.721983
21
69.918741
0
LINE
8
Image
10
59.721983
20
69.918741
11
59.000959
21
68.737704
0
LINE
8
Image
10
59.000959
20
68.737704
11
55.740846
21
63.205376
0
LINE
8
Image
10
55.740846
20
63.205376
11
55.424225
21
62.609241
0
LINE
8
Image
10
55.424225
20
62.609241
11
55.886179
21
62.543919
0
LINE
8
Image
10
55.886179
20
62.543919
11
56.366982
21
62.719423
0
LINE
8
Image
10
56.366982
20
62.719423
11
56.515043
21
63.292477
0
LINE
8
Image
10
56.515043
20
63.292477
11
56.816412
21
64.149068
0
LINE
8
Image
10
56.816412
20
64.149068
11
57.524940
21
65.210704
0
LINE
8
Image
10
57.524940
20
65.210704
11
58.616430
21
66.371606
0
LINE
8
Image
10
58.616430
20
66.371606
11
57.833920
21
65.118510
0
LINE
8
Image
10
57.833920
20
65.118510
11
57.163989
21
64.086640
0
LINE
8
Image
10
57.163989
20
64.086640
11
56.885345
21
63.420361
0
LINE
8
Image
10
56.885345
20
63.420361
11
56.662606
21
62.514184
0
LINE
8
Image
10
56.662606
20
62.514184
11
56.403560
21
62.264852
0
LINE
8
Image
10
56.403560
20
62.264852
11
56.063288
21
62.177400
0
LINE
8
Image
10
56.063288
20
62.177400
11
55.709558
21
62.060818
0
LINE
8
Image
10
55.709558
20
62.060818
11
55.562430
21
61.780525
0
LINE
8
Image
10
55.562430
20
61.780525
11
55.626566
21
61.495467
0
LINE
8
Image
10
55.626566
20
61.495467
11
55.854642
21
61.407953
0
LINE
8
Image
10
55.854642
20
61.407953
11
57.016618
21
61.833326
0
LINE
8
Image
10
57.016618
20
61.833326
11
57.016618
21
61.833326
0
LINE
8
Image
10
55.827013
20
62.939920
11
56.091596
21
63.368023
0
LINE
8
Image
10
56.091596
20
63.368023
11
56.278458
21
63.405789
0
LINE
8
Image
10
56.278458
20
63.405789
11
56.356179
21
63.266961
0
LINE
8
Image
10
56.356179
20
63.266961
11
56.091596
21
62.838857
0
LINE
8
Image
10
56.091596
20
62.838857
11
55.904734
21
62.801092
0
LINE
8
Image
10
55.904734
20
62.801092
11
55.827013
21
62.939920
0
LINE
8
Image
10
55.827013
20
62.939920
11
55.827013
21
62.939920
0
LINE
8
Image
10
54.107224
20
61.805791
11
54.165514
21
62.255101
0
LINE
8
Image
10
54.165514
20
62.255101
11
54.305661
21
62.441983
0
LINE
8
Image
10
54.305661
20
62.441983
11
54.445807
21
62.291128
0
LINE
8
Image
10
54.445807
20
62.291128
11
54.504098
21
61.928433
0
LINE
8
Image
10
54.504098
20
61.928433
11
54.305661
21
61.292240
0
LINE
8
Image
10
54.305661
20
61.292240
11
54.165514
21
61.392506
0
LINE
8
Image
10
54.165514
20
61.392506
11
54.107224
21
61.805791
0
LINE
8
Image
10
54.107224
20
61.805791
11
54.107224
21
61.805791
0
LINE
8
Image
10
39.860442
20
63.621949
11
39.872464
21
64.181114
0
LINE
8
Image
10
39.872464
20
64.181114
11
40.139032
21
64.906137
0
LINE
8
Image
10
40.139032
20
64.906137
11
40.493570
21
65.400989
0
LINE
8
Image
10
40.493570
20
65.400989
11
40.677653
21
65.348404
0
LINE
8
Image
10
40.677653
20
65.348404
11
40.656925
21
64.861787
0
LINE
8
Image
10
40.656925
20
64.861787
11
40.397030
21
64.054545
0
LINE
8
Image
10
40.397030
20
64.054545
11
40.070670
21
63.452883
0
LINE
8
Image
10
40.070670
20
63.452883
11
39.959716
21
63.448070
0
LINE
8
Image
10
39.959716
20
63.448070
11
39.860442
21
63.621949
0
LINE
8
Image
10
39.860442
20
63.621949
11
39.860442
21
63.621949
0
LINE
8
Image
10
51.149479
20
65.732882
11
49.011303
21
67.481001
0
LINE
8
Image
10
49.011303
20
67.481001
11
48.246217
21
68.222324
0
LINE
8
Image
10
48.246217
20
68.222324
11
48.067355
21
68.527392
0
LINE
8
Image
10
48.067355
20
68.527392
11
49.080329
21
67.733453
0
LINE
8
Image
10
49.080329
20
67.733453
11
49.738948
21
67.192220
0
LINE
8
Image
10
49.738948
20
67.192220
11
50.254308
21
67.005849
0
LINE
8
Image
10
50.254308
20
67.005849
11
50.526796
21
66.955548
0
LINE
8
Image
10
50.526796
20
66.955548
11
50.601499
21
66.741457
0
LINE
8
Image
10
50.601499
20
66.741457
11
50.651935
21
66.505437
0
LINE
8
Image
10
50.651935
20
66.505437
11
50.866082
21
66.402415
0
LINE
8
Image
10
50.866082
20
66.402415
11
51.239300
21
66.204680
0
LINE
8
Image
10
51.239300
20
66.204680
11
51.672181
21
65.740957
0
LINE
8
Image
10
51.672181
20
65.740957
11
52.026976
21
65.157494
0
LINE
8
Image
10
52.026976
20
65.157494
11
51.149479
21
65.732888
0
LINE
8
Image
10
51.149479
20
65.732888
11
51.149479
21
65.732882
0
LINE
8
Image
10
39.350332
20
67.640684
11
39.002971
21
69.982598
0
LINE
8
Image
10
39.002971
20
69.982598
11
38.926070
21
70.302413
0
LINE
8
Image
10
38.926070
20
70.302413
11
39.013025
21
70.328244
0
LINE
8
Image
10
39.013025
20
70.328244
11
39.312054
21
69.607795
0
LINE
8
Image
10
39.312054
20
69.607795
11
39.595954
21
68.312516
0
LINE
8
Image
10
39.595954
20
68.312516
11
39.767309
21
67.000350
0
LINE
8
Image
10
39.767309
20
67.000350
11
39.728704
21
66.229243
0
LINE
8
Image
10
39.728704
20
66.229243
11
39.621328
21
66.169818
0
LINE
8
Image
10
39.621328
20
66.169818
11
39.521999
21
66.387028
0
LINE
8
Image
10
39.521999
20
66.387028
11
39.350340
21
67.640684
0
LINE
8
Image
10
39.350340
20
67.640684
11
39.350332
21
67.640684
0
LINE
8
Image
10
55.789326
20
42.058284
11
57.838098
21
42.372307
0
LINE
8
Image
10
57.838098
20
42.372307
11
59.002009
21
42.497230
0
LINE
8
Image
10
59.002009
20
42.497230
11
56.951491
21
44.062399
0
LINE
8
Image
10
56.951491
20
44.062399
11
53.552866
21
46.229187
0
LINE
8
Image
10
53.552866
20
46.229187
11
52.334579
21
46.809989
0
LINE
8
Image
10
52.334579
20
46.809989
11
51.983928
21
46.899706
0
LINE
8
Image
10
51.983928
20
46.899706
11
51.858268
21
46.827048
0
LINE
8
Image
10
51.858268
20
46.827048
11
52.435917
21
44.846410
0
LINE
8
Image
10
52.435917
20
44.846410
11
53.341033
21
42.544963
0
LINE
8
Image
10
53.341033
20
42.544963
11
53.690095
21
42.070053
0
LINE
8
Image
10
53.690095
20
42.070053
11
54.164247
21
41.840626
0
LINE
8
Image
10
54.164247
20
41.840626
11
54.838865
21
41.841697
0
LINE
8
Image
10
54.838865
20
41.841697
11
55.789326
21
42.058284
0
LINE
8
Image
10
55.789326
20
42.058284
11
55.789326
21
42.058284
0
LINE
8
Image
10
34.131207
20
55.514105
11
33.851283
21
56.017156
0
LINE
8
Image
10
33.851283
20
56.017156
11
33.139021
21
56.555122
0
LINE
8
Image
10
33.139021
20
56.555122
11
32.199616
21
57.178047
0
LINE
8
Image
10
32.199616
20
57.178047
11
31.350994
21
57.927698
0
LINE
8
Image
10
31.350994
20
57.927698
11
29.959104
21
59.750553
0
LINE
8
Image
10
29.959104
20
59.750553
11
29.029372
21
61.910429
0
LINE
8
Image
10
29.029372
20
61.910429
11
28.627820
21
64.294064
0
LINE
8
Image
10
28.627820
20
64.294064
11
28.643457
21
66.049472
0
LINE
8
Image
10
28.643457
20
66.049472
11
28.875552
21
67.336969
0
LINE
8
Image
10
28.875552
20
67.336969
11
29.321856
21
68.149590
0
LINE
8
Image
10
29.321856
20
68.149590
11
29.980119
21
68.480373
0
LINE
8
Image
10
29.980119
20
68.480373
11
30.759930
21
68.363075
0
LINE
8
Image
10
30.759930
20
68.363075
11
31.641634
21
67.849928
0
LINE
8
Image
10
31.641634
20
67.849928
11
32.615162
21
66.948607
0
LINE
8
Image
10
32.615162
20
66.948607
11
33.670444
21
65.666792
0
LINE
8
Image
10
33.670444
20
65.666792
11
35.043111
21
63.980792
0
LINE
8
Image
10
35.043111
20
63.980792
11
35.503992
21
63.936484
0
LINE
8
Image
10
35.503992
20
63.936484
11
35.630060
21
64.076596
0
LINE
8
Image
10
35.630060
20
64.076596
11
35.596968
21
64.276985
0
LINE
8
Image
10
35.596968
20
64.276985
11
35.623830
21
64.501174
0
LINE
8
Image
10
35.623830
20
64.501174
11
35.866122
21
64.815184
0
LINE
8
Image
10
35.866122
20
64.815184
11
36.777037
21
65.487108
0
LINE
8
Image
10
36.777037
20
65.487108
11
36.881078
21
65.445210
0
LINE
8
Image
10
36.881078
20
65.445210
11
36.573906
21
65.042284
0
LINE
8
Image
10
36.573906
20
65.042284
11
36.189109
21
64.524232
0
LINE
8
Image
10
36.189109
20
64.524232
11
36.213092
21
64.414872
0
LINE
8
Image
10
36.213092
20
64.414872
11
36.374368
21
64.382257
0
LINE
8
Image
10
36.374368
20
64.382257
11
36.770465
21
64.507414
0
LINE
8
Image
10
36.770465
20
64.507414
11
37.160418
21
64.808321
0
LINE
8
Image
10
37.160418
20
64.808321
11
37.335629
21
65.071635
0
LINE
8
Image
10
37.335629
20
65.071635
11
37.324861
21
65.360922
0
LINE
8
Image
10
37.324861
20
65.360922
11
36.607923
21
66.417866
0
LINE
8
Image
10
36.607923
20
66.417866
11
35.669850
21
67.601351
0
LINE
8
Image
10
35.669850
20
67.601351
11
35.760424
21
71.988109
0
LINE
8
Image
10
35.760424
20
71.988109
11
35.941997
21
75.979656
0
LINE
8
Image
10
35.941997
20
75.979656
11
36.190466
21
76.852905
0
LINE
8
Image
10
36.190466
20
76.852905
11
36.653040
21
77.671751
0
LINE
8
Image
10
36.653040
20
77.671751
11
37.669792
21
78.960858
0
LINE
8
Image
10
37.669792
20
78.960858
11
38.991075
21
80.197143
0
LINE
8
Image
10
38.991075
20
80.197143
11
40.306531
21
81.125785
0
LINE
8
Image
10
40.306531
20
81.125785
11
41.305804
21
81.491959
0
LINE
8
Image
10
41.305804
20
81.491959
11
42.525116
21
81.069235
0
LINE
8
Image
10
42.525116
20
81.069235
11
44.343658
21
79.905655
0
LINE
8
Image
10
44.343658
20
79.905655
11
46.544801
21
78.158102
0
LINE
8
Image
10
46.544801
20
78.158102
11
48.911919
21
75.983463
0
LINE
8
Image
10
48.911919
20
75.983463
11
52.481959
21
72.231554
0
LINE
8
Image
10
52.481959
20
72.231554
11
53.079964
21
71.524433
0
LINE
8
Image
10
53.079964
20
71.524433
11
53.177233
21
71.966971
0
LINE
8
Image
10
53.177233
20
71.966971
11
52.391749
21
76.597173
0
LINE
8
Image
10
52.391749
20
76.597173
11
51.632788
21
81.358458
0
LINE
8
Image
10
51.632788
20
81.358458
11
51.659802
21
82.463021
0
LINE
8
Image
10
51.659802
20
82.463021
11
51.772651
21
82.728442
0
LINE
8
Image
10
51.772651
20
82.728442
11
51.950861
21
82.814874
0
LINE
8
Image
10
51.950861
20
82.814874
11
52.433070
21
82.672682
0
LINE
8
Image
10
52.433070
20
82.672682
11
53.089389
21
82.267117
0
LINE
8
Image
10
53.089389
20
82.267117
11
54.795009
21
80.791950
0
LINE
8
Image
10
54.795009
20
80.791950
11
56.809024
21
78.641528
0
LINE
8
Image
10
56.809024
20
78.641528
11
58.872739
21
76.068007
0
LINE
8
Image
10
58.872739
20
76.068007
11
60.017162
21
74.530367
0
LINE
8
Image
10
60.017162
20
74.530367
11
60.318212
21
74.232773
0
LINE
8
Image
10
60.318212
20
74.232773
11
60.451015
21
74.322090
0
LINE
8
Image
10
60.451015
20
74.322090
11
60.249454
21
75.879740
0
LINE
8
Image
10
60.249454
20
75.879740
11
59.487630
21
79.639878
0
LINE
8
Image
10
59.487630
20
79.639878
11
57.994548
21
85.862100
0
LINE
8
Image
10
57.994548
20
85.862100
11
57.141947
21
88.510091
0
LINE
8
Image
10
57.141947
20
88.510091
11
56.172119
21
90.955357
0
LINE
8
Image
10
56.172119
20
90.955357
11
55.050175
21
93.277415
0
LINE
8
Image
10
55.050175
20
93.277415
11
53.741225
21
95.555782
0
LINE
8
Image
10
53.741225
20
95.555782
11
50.422749
21
100.299507
0
LINE
8
Image
10
50.422749
20
100.299507
11
47.144367
21
104.332612
0
LINE
8
Image
10
47.144367
20
104.332612
11
46.028826
21
105.538629
0
LINE
8
Image
10
46.028826
20
105.538629
11
45.561754
21
105.861735
0
LINE
8
Image
10
45.561754
20
105.861735
11
45.883960
21
103.481094
0
LINE
8
Image
10
45.883960
20
103.481094
11
46.465192
21
99.185807
0
LINE
8
Image
10
46.465192
20
99.185807
11
46.519702
21
97.684315
0
LINE
8
Image
10
46.519702
20
97.684315
11
46.378884
21
97.102356
0
LINE
8
Image
10
46.378884
20
97.102356
11
45.825055
21
97.655050
0
LINE
8
Image
10
45.825055
20
97.655050
11
44.863958
21
98.983866
0
LINE
8
Image
10
44.863958
20
98.983866
11
43.132847
21
101.330804
0
LINE
8
Image
10
43.132847
20
101.330804
11
41.316443
21
103.181058
0
LINE
8
Image
10
41.316443
20
103.181058
11
39.152848
21
104.760303
0
LINE
8
Image
10
39.152848
20
104.760303
11
36.380163
21
106.294212
0
LINE
8
Image
10
36.380163
20
106.294212
11
29.003196
21
109.610672
0
LINE
8
Image
10
29.003196
20
109.610672
11
25.273577
21
111.098761
0
LINE
8
Image
10
25.273577
20
111.098761
11
22.509258
21
112.060722
0
LINE
8
Image
10
22.509258
20
112.060722
11
22.171665
21
112.137163
0
LINE
8
Image
10
22.171665
20
112.137163
11
22.092914
21
112.038331
0
LINE
8
Image
10
22.092914
20
112.038331
11
22.808526
21
110.959388
0
LINE
8
Image
10
22.808526
20
110.959388
11
25.352597
21
107.243752
0
LINE
8
Image
10
25.352597
20
107.243752
11
26.607493
21
105.100845
0
LINE
8
Image
10
26.607493
20
105.100845
11
26.017940
21
105.252482
0
LINE
8
Image
10
26.017940
20
105.252482
11
22.722089
21
105.888656
0
LINE
8
Image
10
22.722089
20
105.888656
11
15.610397
21
106.763534
0
LINE
8
Image
10
15.610397
20
106.763534
11
11.426560
21
107.297406
0
LINE
8
Image
10
11.426560
20
107.297406
11
11.294286
21
107.298539
0
LINE
8
Image
10
11.294286
20
107.298539
11
11.306377
21
107.166632
0
LINE
8
Image
10
11.306377
20
107.166632
11
11.725087
21
106.551729
0
LINE
8
Image
10
11.725087
20
106.551729
11
13.870661
21
104.253740
0
LINE
8
Image
10
13.870661
20
104.253740
11
15.253040
21
102.778344
0
LINE
8
Image
10
15.253040
20
102.778344
11
15.529908
21
102.352458
0
LINE
8
Image
10
15.529908
20
102.352458
11
15.525793
21
102.130488
0
LINE
8
Image
10
15.525793
20
102.130488
11
14.660307
21
102.286426
0
LINE
8
Image
10
14.660307
20
102.286426
11
12.627965
21
103.222408
0
LINE
8
Image
10
12.627965
20
103.222408
11
10.764832
21
104.211797
0
LINE
8
Image
10
10.764832
20
104.211797
11
9.246905
21
105.167422
0
LINE
8
Image
10
9.246905
20
105.167422
11
7.831810
21
106.258410
0
LINE
8
Image
10
7.831810
20
106.258410
11
6.277173
21
107.653885
0
LINE
8
Image
10
6.277173
20
107.653885
11
4.415190
21
109.405465
0
LINE
8
Image
10
4.415190
20
109.405465
11
4.577846
21
107.950259
0
LINE
8
Image
10
4.577846
20
107.950259
11
5.525903
21
99.273210
0
LINE
8
Image
10
5.525903
20
99.273210
11
6.315595
21
92.901091
0
LINE
8
Image
10
6.315595
20
92.901091
11
6.660623
21
91.453741
0
LINE
8
Image
10
6.660623
20
91.453741
11
7.124397
21
90.313828
0
LINE
8
Image
10
7.124397
20
90.313828
11
7.737163
21
88.920183
0
LINE
8
Image
10
7.737163
20
88.920183
11
7.911469
21
88.166179
0
LINE
8
Image
10
7.911469
20
88.166179
11
7.829080
21
87.979547
0
LINE
8
Image
10
7.829080
20
87.979547
11
7.630930
21
87.893431
0
LINE
8
Image
10
7.630930
20
87.893431
11
6.879158
21
87.943554
0
LINE
8
Image
10
6.879158
20
87.943554
11
5.820826
21
87.983773
0
LINE
8
Image
10
5.820826
20
87.983773
11
8.428849
21
83.813463
0
LINE
8
Image
10
8.428849
20
83.813463
11
11.168959
21
79.461953
0
LINE
8
Image
10
11.168959
20
79.461953
11
11.552765
21
78.678296
0
LINE
8
Image
10
11.552765
20
78.678296
11
11.530591
21
78.382291
0
LINE
8
Image
10
11.530591
20
78.382291
11
10.317537
21
78.632986
0
LINE
8
Image
10
10.317537
20
78.632986
11
7.617205
21
79.451884
0
LINE
8
Image
10
7.617205
20
79.451884
11
3.805100
21
80.620666
0
LINE
8
Image
10
3.805100
20
80.620666
11
6.631014
21
76.973018
0
LINE
8
Image
10
6.631014
20
76.973018
11
11.691869
21
70.841612
0
LINE
8
Image
10
11.691869
20
70.841612
11
14.278548
21
68.057220
0
LINE
8
Image
10
14.278548
20
68.057220
11
16.758875
21
65.824796
0
LINE
8
Image
10
16.758875
20
65.824796
11
19.176517
21
63.917708
0
LINE
8
Image
10
19.176517
20
63.917708
11
18.253352
21
63.727182
0
LINE
8
Image
10
18.253352
20
63.727182
11
14.744802
21
63.351707
0
LINE
8
Image
10
14.744802
20
63.351707
11
12.052218
21
62.993303
0
LINE
8
Image
10
12.052218
20
62.993303
11
12.783768
21
62.590364
0
LINE
8
Image
10
12.783768
20
62.590364
11
14.905764
21
61.778231
0
LINE
8
Image
10
14.905764
20
61.778231
11
21.761952
21
59.489067
0
LINE
8
Image
10
21.761952
20
59.489067
11
25.399968
21
58.168859
0
LINE
8
Image
10
25.399968
20
58.168859
11
23.403699
21
57.802155
0
LINE
8
Image
10
23.403699
20
57.802155
11
21.500079
21
57.522438
0
LINE
8
Image
10
21.500079
20
57.522438
11
24.676070
21
56.613895
0
LINE
8
Image
10
24.676070
20
56.613895
11
29.501005
21
55.547966
0
LINE
8
Image
10
29.501005
20
55.547966
11
33.169577
21
55.059042
0
LINE
8
Image
10
33.169577
20
55.059042
11
33.915289
21
55.169113
0
LINE
8
Image
10
33.915289
20
55.169113
11
34.131207
21
55.514105
0
LINE
8
Image
10
34.131207
20
55.514105
11
34.131207
21
55.514105
0
LINE
8
Image
10
36.512454
20
64.658543
11
36.975474
21
65.121563
0
LINE
8
Image
10
36.975474
20
65.121563
11
37.306204
21
65.352397
0
LINE
8
Image
10
37.306204
20
65.352397
11
37.075370
21
65.021667
0
LINE
8
Image
10
37.075370
20
65.021667
11
36.664296
21
64.593171
0
LINE
8
Image
10
36.664296
20
64.593171
11
36.551804
21
64.561435
0
LINE
8
Image
10
36.551804
20
64.561435
11
36.512454
21
64.658543
0
LINE
8
Image
10
36.512454
20
64.658543
11
36.512454
21
64.658543
0
LINE
8
Image
10
20.374890
20
8.753682
11
20.466976
21
10.292217
0
LINE
8
Image
10
20.466976
20
10.292217
11
20.715740
21
11.913948
0
LINE
8
Image
10
20.715740
20
11.913948
11
21.087330
21
13.446728
0
LINE
8
Image
10
21.087330
20
13.446728
11
21.547890
21
14.718409
0
LINE
8
Image
10
21.547890
20
14.718409
11
21.999488
21
15.853488
0
LINE
8
Image
10
21.999488
20
15.853488
11
21.926503
21
15.982971
0
LINE
8
Image
10
21.926503
20
15.982971
11
21.666295
21
15.944320
0
LINE
8
Image
10
21.666295
20
15.944320
11
21.295946
21
15.974372
0
LINE
8
Image
10
21.295946
20
15.974372
11
21.177281
21
16.358318
0
LINE
8
Image
10
21.177281
20
16.358318
11
21.697644
21
18.394255
0
LINE
8
Image
10
21.697644
20
18.394255
11
22.787630
21
20.917323
0
LINE
8
Image
10
22.787630
20
20.917323
11
24.367964
21
23.945605
0
LINE
8
Image
10
24.367964
20
23.945605
11
25.938248
21
26.579765
0
LINE
8
Image
10
25.938248
20
26.579765
11
26.998086
21
27.920466
0
LINE
8
Image
10
26.998086
20
27.920466
11
26.876941
21
27.556929
0
LINE
8
Image
10
26.876941
20
27.556929
11
26.208835
21
26.449993
0
LINE
8
Image
10
26.208835
20
26.449993
11
23.654975
21
21.861106
0
LINE
8
Image
10
23.654975
20
21.861106
11
22.538551
21
19.507929
0
LINE
8
Image
10
22.538551
20
19.507929
11
21.869042
21
17.793602
0
LINE
8
Image
10
21.869042
20
17.793602
11
21.591734
21
16.627245
0
LINE
8
Image
10
21.591734
20
16.627245
11
21.662649
21
16.444647
0
LINE
8
Image
10
21.662649
20
16.444647
11
21.873694
21
16.404541
0
LINE
8
Image
10
21.873694
20
16.404541
11
23.076392
21
16.815528
0
LINE
8
Image
10
23.076392
20
16.815528
11
25.137791
21
17.852203
0
LINE
8
Image
10
25.137791
20
17.852203
11
27.514474
21
19.220138
0
LINE
8
Image
10
27.514474
20
19.220138
11
29.663029
21
20.624904
0
LINE
8
Image
10
29.663029
20
20.624904
11
31.065047
21
21.659880
0
LINE
8
Image
10
31.065047
20
21.659880
11
31.947411
21
22.459443
0
LINE
8
Image
10
31.947411
20
22.459443
11
32.589655
21
23.329763
0
LINE
8
Image
10
32.589655
20
23.329763
11
33.271311
21
24.577007
0
LINE
8
Image
10
33.271311
20
24.577007
11
34.360595
21
26.412438
0
LINE
8
Image
10
34.360595
20
26.412438
11
33.644569
21
24.534658
0
LINE
8
Image
10
33.644569
20
24.534658
11
32.775794
21
23.039926
0
LINE
8
Image
10
32.775794
20
23.039926
11
31.709547
21
21.802386
0
LINE
8
Image
10
31.709547
20
21.802386
11
30.525744
21
20.717950
0
LINE
8
Image
10
30.525744
20
20.717950
11
31.171493
21
19.222702
0
LINE
8
Image
10
31.171493
20
19.222702
11
31.996281
21
17.727456
0
LINE
8
Image
10
31.996281
20
17.727456
11
33.032298
21
18.611632
0
LINE
8
Image
10
33.032298
20
18.611632
11
33.889274
21
19.495807
0
LINE
8
Image
10
33.889274
20
19.495807
11
32.953717
21
20.132984
0
LINE
8
Image
10
32.953717
20
20.132984
11
32.016349
21
20.982062
0
LINE
8
Image
10
32.016349
20
20.982062
11
32.274980
21
20.933460
0
LINE
8
Image
10
32.274980
20
20.933460
11
32.899411
21
20.519042
0
LINE
8
Image
10
32.899411
20
20.519042
11
34.090034
21
19.844120
0
LINE
8
Image
10
34.090034
20
19.844120
11
34.363102
21
19.753844
0
LINE
8
Image
10
34.363102
20
19.753844
11
34.312989
21
19.478901
0
LINE
8
Image
10
34.312989
20
19.478901
11
33.228986
21
18.350303
0
LINE
8
Image
10
33.228986
20
18.350303
11
32.062186
21
17.330582
0
LINE
8
Image
10
32.062186
20
17.330582
11
32.353317
21
15.676938
0
LINE
8
Image
10
32.353317
20
15.676938
11
32.617128
21
14.509052
0
LINE
8
Image
10
32.617128
20
14.509052
11
32.842571
21
14.023294
0
LINE
8
Image
10
32.842571
20
14.023294
11
34.389125
21
15.200182
0
LINE
8
Image
10
34.389125
20
15.200182
11
36.432660
21
17.261126
0
LINE
8
Image
10
36.432660
20
17.261126
11
37.542230
21
18.823062
0
LINE
8
Image
10
37.542230
20
18.823062
11
38.295857
21
20.533255
0
LINE
8
Image
10
38.295857
20
20.533255
11
38.777547
21
22.652086
0
LINE
8
Image
10
38.777547
20
22.652086
11
39.071304
21
25.439937
0
LINE
8
Image
10
39.071304
20
25.439937
11
39.256259
21
27.093744
0
LINE
8
Image
10
39.256259
20
27.093744
11
39.467525
21
27.781610
0
LINE
8
Image
10
39.467525
20
27.781610
11
39.594029
21
27.606737
0
LINE
8
Image
10
39.594029
20
27.606737
11
39.575189
21
27.186298
0
LINE
8
Image
10
39.575189
20
27.186298
11
39.285757
21
24.606614
0
LINE
8
Image
10
39.285757
20
24.606614
11
38.823196
21
21.275423
0
LINE
8
Image
10
38.823196
20
21.275423
11
38.485910
21
20.016990
0
LINE
8
Image
10
38.485910
20
20.016990
11
38.072511
21
19.004879
0
LINE
8
Image
10
38.072511
20
19.004879
11
37.312275
21
17.868551
0
LINE
8
Image
10
37.312275
20
17.868551
11
36.138786
21
16.490646
0
LINE
8
Image
10
36.138786
20
16.490646
11
34.817901
21
15.159861
0
LINE
8
Image
10
34.817901
20
15.159861
11
33.615476
21
14.164896
0
LINE
8
Image
10
33.615476
20
14.164896
11
33.005253
21
13.712092
0
LINE
8
Image
10
33.005253
20
13.712092
11
32.683327
21
13.305665
0
LINE
8
Image
10
32.683327
20
13.305665
11
32.553739
21
12.738755
0
LINE
8
Image
10
32.553739
20
12.738755
11
32.520528
21
11.804501
0
LINE
8
Image
10
32.520528
20
11.804501
11
32.291299
21
8.863926
0
LINE
8
Image
10
32.291299
20
8.863926
11
32.194218
21
8.487334
0
LINE
8
Image
10
32.194218
20
8.487334
11
32.124232
21
8.827068
0
LINE
8
Image
10
32.124232
20
8.827068
11
32.049893
21
11.849020
0
LINE
8
Image
10
32.049893
20
11.849020
11
31.905533
21
15.848646
0
LINE
8
Image
10
31.905533
20
15.848646
11
31.658435
21
16.990562
0
LINE
8
Image
10
31.658435
20
16.990562
11
31.201561
21
18.265157
0
LINE
8
Image
10
31.201561
20
18.265157
11
30.557747
21
19.754024
0
LINE
8
Image
10
30.557747
20
19.754024
11
30.151482
21
20.373286
0
LINE
8
Image
10
30.151482
20
20.373286
11
28.120193
21
19.216172
0
LINE
8
Image
10
28.120193
20
19.216172
11
24.452536
21
17.118719
0
LINE
8
Image
10
24.452536
20
17.118719
11
23.392210
21
16.557559
0
LINE
8
Image
10
23.392210
20
16.557559
11
22.741987
21
16.076442
0
LINE
8
Image
10
22.741987
20
16.076442
11
22.293616
21
15.469026
0
LINE
8
Image
10
22.293616
20
15.469026
11
21.838851
21
14.528970
0
LINE
8
Image
10
21.838851
20
14.528970
11
21.220104
21
12.699143
0
LINE
8
Image
10
21.220104
20
12.699143
11
20.911731
21
10.408299
0
LINE
8
Image
10
20.911731
20
10.408299
11
20.568463
21
7.858446
0
LINE
8
Image
10
20.568463
20
7.858446
11
20.491521
21
7.714543
0
LINE
8
Image
10
20.491521
20
7.714543
11
20.429741
21
7.803852
0
LINE
8
Image
10
20.429741
20
7.803852
11
20.374890
21
8.753682
0
LINE
8
Image
10
20.374890
20
8.753682
11
20.374890
21
8.753682
0
LINE
8
Image
10
45.772859
20
13.831024
11
49.092659
21
15.143023
0
LINE
8
Image
10
49.092659
20
15.143023
11
55.033264
21
17.165437
0
LINE
8
Image
10
55.033264
20
17.165437
11
59.829474
21
18.495726
0
LINE
8
Image
10
59.829474
20
18.495726
11
61.653968
21
18.781234
0
LINE
8
Image
10
61.653968
20
18.781234
11
63.585364
21
18.913677
0
LINE
8
Image
10
63.585364
20
18.913677
11
66.278042
21
19.017076
0
LINE
8
Image
10
66.278042
20
19.017076
11
63.896795
21
18.769024
0
LINE
8
Image
10
63.896795
20
18.769024
11
61.278447
21
18.445789
0
LINE
8
Image
10
61.278447
20
18.445789
11
58.969693
21
17.990343
0
LINE
8
Image
10
58.969693
20
17.990343
11
52.519726
21
16.014218
0
LINE
8
Image
10
52.519726
20
16.014218
11
46.235879
21
13.886999
0
LINE
8
Image
10
46.235879
20
13.886999
11
45.772859
21
13.831024
0
LINE
8
Image
10
45.772859
20
13.831024
11
45.772859
21
13.831024
0
LINE
8
Image
10
17.628174
20
19.112813
11
17.006034
21
22.544700
0
LINE
8
Image
10
17.006034
20
22.544700
11
16.676898
21
25.466509
0
LINE
8
Image
10
16.676898
20
25.466509
11
16.737346
21
25.793517
0
LINE
8
Image
10
16.737346
20
25.793517
11
16.894148
21
25.929529
0
LINE
8
Image
10
16.894148
20
25.929529
11
17.097877
21
25.249468
0
LINE
8
Image
10
17.097877
20
25.249468
11
17.271147
21
23.614428
0
LINE
8
Image
10
17.271147
20
23.614428
11
17.864926
21
19.362452
0
LINE
8
Image
10
17.864926
20
19.362452
11
18.189777
21
17.308230
0
LINE
8
Image
10
18.189777
20
17.308230
11
17.628174
21
19.112813
0
LINE
8
Image
10
17.628174
20
19.112813
11
17.628174
21
19.112813
0
LINE
8
Image
10
53.974932
20
17.946221
11
55.309792
21
18.558531
0
LINE
8
Image
10
55.309792
20
18.558531
11
57.269571
21
19.202767
0
LINE
8
Image
10
57.269571
20
19.202767
11
59.334894
21
19.728025
0
LINE
8
Image
10
59.334894
20
19.728025
11
60.986382
21
19.983399
0
LINE
8
Image
10
60.986382
20
19.983399
11
62.838463
21
20.085557
0
LINE
8
Image
10
62.838463
20
20.085557
11
61.002479
21
19.828250
0
LINE
8
Image
10
61.002479
20
19.828250
11
59.040456
21
19.409554
0
LINE
8
Image
10
59.040456
20
19.409554
11
56.901442
21
18.764230
0
LINE
8
Image
10
56.901442
20
18.764230
11
54.200975
21
17.852793
0
LINE
8
Image
10
54.200975
20
17.852793
11
53.806652
21
17.781726
0
LINE
8
Image
10
53.806652
20
17.781726
11
53.974932
21
17.946221
0
LINE
8
Image
10
53.974932
20
17.946221
11
53.974932
21
17.946221
0
LINE
8
Image
10
57.337324
20
28.501511
11
54.858740
21
29.282780
0
LINE
8
Image
10
54.858740
20
29.282780
11
57.525015
21
28.743625
0
LINE
8
Image
10
57.525015
20
28.743625
11
60.258051
21
27.936677
0
LINE
8
Image
10
60.258051
20
27.936677
11
60.298495
21
27.824976
0
LINE
8
Image
10
60.298495
20
27.824976
11
59.950795
21
27.857590
0
LINE
8
Image
10
59.950795
20
27.857590
11
57.337324
21
28.501511
0
LINE
8
Image
10
57.337324
20
28.501511
11
57.337324
21
28.501511
0
LINE
8
Image
10
59.398884
20
28.751952
11
57.459673
21
29.141249
0
LINE
8
Image
10
57.459673
20
29.141249
11
56.154543
21
29.520251
0
LINE
8
Image
10
56.154543
20
29.520251
11
58.887503
21
29.126382
0
LINE
8
Image
10
58.887503
20
29.126382
11
60.510396
21
28.775462
0
LINE
8
Image
10
60.510396
20
28.775462
11
60.822627
21
28.669755
0
LINE
8
Image
10
60.822627
20
28.669755
11
60.721799
21
28.632173
0
LINE
8
Image
10
60.721799
20
28.632173
11
59.398884
21
28.751952
0
LINE
8
Image
10
59.398884
20
28.751952
11
59.398884
21
28.751952
0
LINE
8
Image
10
18.362894
20
30.791752
11
19.859726
21
33.556553
0
LINE
8
Image
10
19.859726
20
33.556553
11
20.613832
21
34.714859
0
LINE
8
Image
10
20.613832
20
34.714859
11
21.046058
21
35.189934
0
LINE
8
Image
10
21.046058
20
35.189934
11
20.507434
21
34.065456
0
LINE
8
Image
10
20.507434
20
34.065456
11
18.901613
21
31.155043
0
LINE
8
Image
10
18.901613
20
31.155043
11
17.890491
21
29.424832
0
LINE
8
Image
10
17.890491
20
29.424832
11
17.921160
21
29.707601
0
LINE
8
Image
10
17.921160
20
29.707601
11
18.362894
21
30.791752
0
LINE
8
Image
10
18.362894
20
30.791752
11
18.362894
21
30.791752
0
LINE
8
Image
10
51.369779
20
31.488733
11
48.940877
21
32.065101
0
LINE
8
Image
10
48.940877
20
32.065101
11
45.821433
21
33.036890
0
LINE
8
Image
10
45.821433
20
33.036890
11
43.331071
21
33.958668
0
LINE
8
Image
10
43.331071
20
33.958668
11
42.734178
21
34.261605
0
LINE
8
Image
10
42.734178
20
34.261605
11
42.669970
21
34.349225
0
LINE
8
Image
10
42.669970
20
34.349225
11
42.789413
21
34.385001
0
LINE
8
Image
10
42.789413
20
34.385001
11
45.038369
21
33.633194
0
LINE
8
Image
10
45.038369
20
33.633194
11
47.680959
21
32.667560
0
LINE
8
Image
10
47.680959
20
32.667560
11
49.917594
21
32.076635
0
LINE
8
Image
10
49.917594
20
32.076635
11
52.130145
21
31.784638
0
LINE
8
Image
10
52.130145
20
31.784638
11
54.700487
21
31.715787
0
LINE
8
Image
10
54.700487
20
31.715787
11
57.094897
21
31.779186
0
LINE
8
Image
10
57.094897
20
31.779186
11
58.854494
21
31.969735
0
LINE
8
Image
10
58.854494
20
31.969735
11
60.272817
21
32.339163
0
LINE
8
Image
10
60.272817
20
32.339163
11
61.643407
21
32.939198
0
LINE
8
Image
10
61.643407
20
32.939198
11
63.129788
21
33.924526
0
LINE
8
Image
10
63.129788
20
33.924526
11
64.117668
21
35.322226
0
LINE
8
Image
10
64.117668
20
35.322226
11
64.416979
21
35.775403
0
LINE
8
Image
10
64.416979
20
35.775403
11
64.547658
21
35.750329
0
LINE
8
Image
10
64.547658
20
35.750329
11
64.365463
21
35.097771
0
LINE
8
Image
10
64.365463
20
35.097771
11
63.863170
21
34.319247
0
LINE
8
Image
10
63.863170
20
34.319247
11
63.154311
21
33.558994
0
LINE
8
Image
10
63.154311
20
33.558994
11
62.352416
21
32.961251
0
LINE
8
Image
10
62.352416
20
32.961251
11
59.836459
21
31.911962
0
LINE
8
Image
10
59.836459
20
31.911962
11
58.086733
21
31.585479
0
LINE
8
Image
10
58.086733
20
31.585479
11
55.782787
21
31.390638
0
LINE
8
Image
10
55.782787
20
31.390638
11
53.389007
21
31.350651
0
LINE
8
Image
10
53.389007
20
31.350651
11
51.369779
21
31.488733
0
LINE
8
Image
10
51.369779
20
31.488733
11
51.369779
21
31.488733
 0 
ENDSEC
 0 
EOF