999
"DXF R12 Output" (www.mydxf.blogspot.com)
 0 
SECTION
 2 
HEADER
 9 
$ACADVER
 1 
AC1009
 9 
$EXTMIN
 10 
 0 
 20 
 0 
 9 
$EXTMAX
 10 
 8.5 
 20 
 11 
 0 
ENDSEC
 0 
SECTION
 2 
ENTITIES
0
LINE
8
Image
10
183.505638
20
47.977019
11
177.600775
21
48.685500
0
LINE
8
Image
10
177.600775
20
48.685500
11
171.815254
21
49.798405
0
LINE
8
Image
10
171.815254
20
49.798405
11
166.165640
21
51.303362
0
LINE
8
Image
10
166.165640
20
51.303362
11
160.668499
21
53.187998
0
LINE
8
Image
10
160.668499
20
53.187998
11
155.340399
21
55.439940
0
LINE
8
Image
10
155.340399
20
55.439940
11
150.197906
21
58.046816
0
LINE
8
Image
10
150.197906
20
58.046816
11
145.257585
21
60.996251
0
LINE
8
Image
10
145.257585
20
60.996251
11
140.536004
21
64.275874
0
LINE
8
Image
10
140.536004
20
64.275874
11
136.049728
21
67.873311
0
LINE
8
Image
10
136.049728
20
67.873311
11
131.815324
21
71.776190
0
LINE
8
Image
10
131.815324
20
71.776190
11
127.849359
21
75.972138
0
LINE
8
Image
10
127.849359
20
75.972138
11
124.168398
21
80.448781
0
LINE
8
Image
10
124.168398
20
80.448781
11
120.789008
21
85.193747
0
LINE
8
Image
10
120.789008
20
85.193747
11
117.727756
21
90.194664
0
LINE
8
Image
10
117.727756
20
90.194664
11
115.001208
21
95.439157
0
LINE
8
Image
10
115.001208
20
95.439157
11
112.625929
21
100.914855
0
LINE
8
Image
10
112.625929
20
100.914855
11
111.312268
21
104.502773
0
LINE
8
Image
10
111.312268
20
104.502773
11
110.181359
21
108.115401
0
LINE
8
Image
10
110.181359
20
108.115401
11
109.230860
21
111.765504
0
LINE
8
Image
10
109.230860
20
111.765504
11
108.458432
21
115.465850
0
LINE
8
Image
10
108.458432
20
115.465850
11
107.861730
21
119.229203
0
LINE
8
Image
10
107.861730
20
119.229203
11
107.438414
21
123.068330
0
LINE
8
Image
10
107.438414
20
123.068330
11
107.186142
21
126.995998
0
LINE
8
Image
10
107.186142
20
126.995998
11
107.102571
21
131.024971
0
LINE
8
Image
10
107.102571
20
131.024971
11
107.174250
21
135.537265
0
LINE
8
Image
10
107.174250
20
135.537265
11
107.422706
21
139.430104
0
LINE
8
Image
10
107.422706
20
139.430104
11
107.898066
21
143.236709
0
LINE
8
Image
10
107.898066
20
143.236709
11
108.650459
21
147.490302
0
LINE
8
Image
10
108.650459
20
147.490302
11
109.469068
21
151.200187
0
LINE
8
Image
10
109.469068
20
151.200187
11
110.468055
21
154.868242
0
LINE
8
Image
10
110.468055
20
154.868242
11
111.643216
21
158.487893
0
LINE
8
Image
10
111.643216
20
158.487893
11
112.990350
21
162.052567
0
LINE
8
Image
10
112.990350
20
162.052567
11
114.505254
21
165.555693
0
LINE
8
Image
10
114.505254
20
165.555693
11
116.183724
21
168.990696
0
LINE
8
Image
10
116.183724
20
168.990696
11
118.021559
21
172.351005
0
LINE
8
Image
10
118.021559
20
172.351005
11
120.014557
21
175.630046
0
LINE
8
Image
10
120.014557
20
175.630046
11
122.158514
21
178.821247
0
LINE
8
Image
10
122.158514
20
178.821247
11
124.449228
21
181.918035
0
LINE
8
Image
10
124.449228
20
181.918035
11
126.882496
21
184.913837
0
LINE
8
Image
10
126.882496
20
184.913837
11
129.454116
21
187.802080
0
LINE
8
Image
10
129.454116
20
187.802080
11
132.159886
21
190.576191
0
LINE
8
Image
10
132.159886
20
190.576191
11
134.995603
21
193.229599
0
LINE
8
Image
10
134.995603
20
193.229599
11
137.957064
21
195.755729
0
LINE
8
Image
10
137.957064
20
195.755729
11
141.040067
21
198.148009
0
LINE
8
Image
10
141.040067
20
198.148009
11
144.065601
21
200.278391
0
LINE
8
Image
10
144.065601
20
200.278391
11
147.184981
21
202.267602
0
LINE
8
Image
10
147.184981
20
202.267602
11
150.390730
21
204.113493
0
LINE
8
Image
10
150.390730
20
204.113493
11
153.675367
21
205.813916
0
LINE
8
Image
10
153.675367
20
205.813916
11
157.031413
21
207.366720
0
LINE
8
Image
10
157.031413
20
207.366720
11
160.451390
21
208.769758
0
LINE
8
Image
10
160.451390
20
208.769758
11
163.927819
21
210.020880
0
LINE
8
Image
10
163.927819
20
210.020880
11
167.453219
21
211.117937
0
LINE
8
Image
10
167.453219
20
211.117937
11
171.020113
21
212.058780
0
LINE
8
Image
10
171.020113
20
212.058780
11
174.621021
21
212.841260
0
LINE
8
Image
10
174.621021
20
212.841260
11
178.248464
21
213.463227
0
LINE
8
Image
10
178.248464
20
213.463227
11
181.894964
21
213.922534
0
LINE
8
Image
10
181.894964
20
213.922534
11
185.553040
21
214.217031
0
LINE
8
Image
10
185.553040
20
214.217031
11
189.215214
21
214.344568
0
LINE
8
Image
10
189.215214
20
214.344568
11
192.874006
21
214.302997
0
LINE
8
Image
10
192.874006
20
214.302997
11
196.521939
21
214.090169
0
LINE
8
Image
10
196.521939
20
214.090169
11
203.178433
21
213.294851
0
LINE
8
Image
10
203.178433
20
213.294851
11
209.644837
21
212.019601
0
LINE
8
Image
10
209.644837
20
212.019601
11
215.917152
21
210.266069
0
LINE
8
Image
10
215.917152
20
210.266069
11
221.991380
21
208.035908
0
LINE
8
Image
10
221.991380
20
208.035908
11
227.863521
21
205.330771
0
LINE
8
Image
10
227.863521
20
205.330771
11
233.529576
21
202.152308
0
LINE
8
Image
10
233.529576
20
202.152308
11
238.985548
21
198.502173
0
LINE
8
Image
10
238.985548
20
198.502173
11
244.227437
21
194.382017
0
LINE
8
Image
10
244.227437
20
194.382017
11
247.065368
21
191.781227
0
LINE
8
Image
10
247.065368
20
191.781227
11
250.300836
21
188.527508
0
LINE
8
Image
10
250.300836
20
188.527508
11
253.384009
21
185.194058
0
LINE
8
Image
10
253.384009
20
185.194058
11
255.765057
21
182.354073
0
LINE
8
Image
10
255.765057
20
182.354073
11
259.211844
21
177.581975
0
LINE
8
Image
10
259.211844
20
177.581975
11
262.268066
21
172.733369
0
LINE
8
Image
10
262.268066
20
172.733369
11
264.943693
21
167.784096
0
LINE
8
Image
10
264.943693
20
167.784096
11
267.248694
21
162.710001
0
LINE
8
Image
10
267.248694
20
162.710001
11
269.193037
21
157.486926
0
LINE
8
Image
10
269.193037
20
157.486926
11
270.786692
21
152.090714
0
LINE
8
Image
10
270.786692
20
152.090714
11
272.039629
21
146.497208
0
LINE
8
Image
10
272.039629
20
146.497208
11
272.961814
21
140.682251
0
LINE
8
Image
10
272.961814
20
140.682251
11
273.299650
21
136.346146
0
LINE
8
Image
10
273.299650
20
136.346146
11
273.412376
21
131.027677
0
LINE
8
Image
10
273.412376
20
131.027677
11
273.299821
21
125.715695
0
LINE
8
Image
10
273.299821
20
125.715695
11
272.961814
21
121.399050
0
LINE
8
Image
10
272.961814
20
121.399050
11
272.359051
21
117.404900
0
LINE
8
Image
10
272.359051
20
117.404900
11
271.590767
21
113.484123
0
LINE
8
Image
10
271.590767
20
113.484123
11
270.658153
21
109.638938
0
LINE
8
Image
10
270.658153
20
109.638938
11
269.562396
21
105.871565
0
LINE
8
Image
10
269.562396
20
105.871565
11
268.304684
21
102.184222
0
LINE
8
Image
10
268.304684
20
102.184222
11
266.886207
21
98.579128
0
LINE
8
Image
10
266.886207
20
98.579128
11
265.308151
21
95.058503
0
LINE
8
Image
10
265.308151
20
95.058503
11
263.571707
21
91.624566
0
LINE
8
Image
10
263.571707
20
91.624566
11
261.678061
21
88.279535
0
LINE
8
Image
10
261.678061
20
88.279535
11
259.628402
21
85.025629
0
LINE
8
Image
10
259.628402
20
85.025629
11
257.423920
21
81.865068
0
LINE
8
Image
10
257.423920
20
81.865068
11
255.065801
21
78.800071
0
LINE
8
Image
10
255.065801
20
78.800071
11
252.555234
21
75.832856
0
LINE
8
Image
10
252.555234
20
75.832856
11
249.893409
21
72.965643
0
LINE
8
Image
10
249.893409
20
72.965643
11
247.081512
21
70.200651
0
LINE
8
Image
10
247.081512
20
70.200651
11
244.120733
21
67.540098
0
LINE
8
Image
10
244.120733
20
67.540098
11
240.974942
21
64.978108
0
LINE
8
Image
10
240.974942
20
64.978108
11
237.694409
21
62.578862
0
LINE
8
Image
10
237.694409
20
62.578862
11
234.289645
21
60.345752
0
LINE
8
Image
10
234.289645
20
60.345752
11
230.771163
21
58.282169
0
LINE
8
Image
10
230.771163
20
58.282169
11
227.149475
21
56.391506
0
LINE
8
Image
10
227.149475
20
56.391506
11
223.435092
21
54.677154
0
LINE
8
Image
10
223.435092
20
54.677154
11
219.638525
21
53.142506
0
LINE
8
Image
10
219.638525
20
53.142506
11
215.770288
21
51.790954
0
LINE
8
Image
10
215.770288
20
51.790954
11
211.840891
21
50.625890
0
LINE
8
Image
10
211.840891
20
50.625890
11
207.860846
21
49.650705
0
LINE
8
Image
10
207.860846
20
49.650705
11
203.840665
21
48.868792
0
LINE
8
Image
10
203.840665
20
48.868792
11
199.790861
21
48.283542
0
LINE
8
Image
10
199.790861
20
48.283542
11
195.721944
21
47.898348
0
LINE
8
Image
10
195.721944
20
47.898348
11
191.644427
21
47.716601
0
LINE
8
Image
10
191.644427
20
47.716601
11
187.568821
21
47.741695
0
LINE
8
Image
10
187.568821
20
47.741695
11
183.505638
21
47.977019
0
LINE
8
Image
10
183.505638
20
47.977019
11
183.505638
21
47.977019
0
LINE
8
Image
10
194.882707
20
56.684287
11
200.360344
21
57.242940
0
LINE
8
Image
10
200.360344
20
57.242940
11
205.724680
21
58.182830
0
LINE
8
Image
10
205.724680
20
58.182830
11
210.970362
21
59.501960
0
LINE
8
Image
10
210.970362
20
59.501960
11
216.092037
21
61.198339
0
LINE
8
Image
10
216.092037
20
61.198339
11
221.084352
21
63.269970
0
LINE
8
Image
10
221.084352
20
63.269970
11
225.941955
21
65.714861
0
LINE
8
Image
10
225.941955
20
65.714861
11
230.659494
21
68.531017
0
LINE
8
Image
10
230.659494
20
68.531017
11
235.231615
21
71.716443
0
LINE
8
Image
10
235.231615
20
71.716443
11
238.184800
21
74.132248
0
LINE
8
Image
10
238.184800
20
74.132248
11
241.502691
21
77.164993
0
LINE
8
Image
10
241.502691
20
77.164993
11
244.724265
21
80.374599
0
LINE
8
Image
10
244.724265
20
80.374599
11
247.388500
21
83.320993
0
LINE
8
Image
10
247.388500
20
83.320993
11
250.805555
21
87.730425
0
LINE
8
Image
10
250.805555
20
87.730425
11
253.864823
21
92.356297
0
LINE
8
Image
10
253.864823
20
92.356297
11
256.560098
21
97.183802
0
LINE
8
Image
10
256.560098
20
97.183802
11
258.885176
21
102.198134
0
LINE
8
Image
10
258.885176
20
102.198134
11
260.833855
21
107.384485
0
LINE
8
Image
10
260.833855
20
107.384485
11
262.399929
21
112.728050
0
LINE
8
Image
10
262.399929
20
112.728050
11
263.577196
21
118.214021
0
LINE
8
Image
10
263.577196
20
118.214021
11
264.359451
21
123.827592
0
LINE
8
Image
10
264.359451
20
123.827592
11
264.547484
21
127.786886
0
LINE
8
Image
10
264.547484
20
127.786886
11
264.523798
21
132.937940
0
LINE
8
Image
10
264.523798
20
132.937940
11
264.316239
21
138.045141
0
LINE
8
Image
10
264.316239
20
138.045141
11
263.952655
21
141.872874
0
LINE
8
Image
10
263.952655
20
141.872874
11
262.970074
21
147.041494
0
LINE
8
Image
10
262.970074
20
147.041494
11
261.653419
21
152.085710
0
LINE
8
Image
10
261.653419
20
152.085710
11
260.007231
21
156.995532
0
LINE
8
Image
10
260.007231
20
156.995532
11
258.036052
21
161.760970
0
LINE
8
Image
10
258.036052
20
161.760970
11
255.744423
21
166.372033
0
LINE
8
Image
10
255.744423
20
166.372033
11
253.136886
21
170.818733
0
LINE
8
Image
10
253.136886
20
170.818733
11
250.217983
21
175.091077
0
LINE
8
Image
10
250.217983
20
175.091077
11
246.992255
21
179.179077
0
LINE
8
Image
10
246.992255
20
179.179077
11
244.666345
21
181.730564
0
LINE
8
Image
10
244.666345
20
181.730564
11
241.767358
21
184.636548
0
LINE
8
Image
10
241.767358
20
184.636548
11
238.805003
21
187.403690
0
LINE
8
Image
10
238.805003
20
187.403690
11
236.288991
21
189.538645
0
LINE
8
Image
10
236.288991
20
189.538645
11
232.101929
21
192.591398
0
LINE
8
Image
10
232.101929
20
192.591398
11
227.788843
21
195.320788
0
LINE
8
Image
10
227.788843
20
195.320788
11
223.345244
21
197.728679
0
LINE
8
Image
10
223.345244
20
197.728679
11
218.766638
21
199.816935
0
LINE
8
Image
10
218.766638
20
199.816935
11
214.048536
21
201.587419
0
LINE
8
Image
10
214.048536
20
201.587419
11
209.186445
21
203.041997
0
LINE
8
Image
10
209.186445
20
203.041997
11
204.175875
21
204.182531
0
LINE
8
Image
10
204.175875
20
204.182531
11
199.012334
21
205.010887
0
LINE
8
Image
10
199.012334
20
205.010887
11
193.473262
21
205.434207
0
LINE
8
Image
10
193.473262
20
205.434207
11
187.400713
21
205.401555
0
LINE
8
Image
10
187.400713
20
205.401555
11
181.246717
21
204.931517
0
LINE
8
Image
10
181.246717
20
204.931517
11
175.463304
21
204.042678
0
LINE
8
Image
10
175.463304
20
204.042678
11
171.775590
21
203.198285
0
LINE
8
Image
10
171.775590
20
203.198285
11
168.134897
21
202.155945
0
LINE
8
Image
10
168.134897
20
202.155945
11
164.549850
21
200.921680
0
LINE
8
Image
10
164.549850
20
200.921680
11
161.029074
21
199.501511
0
LINE
8
Image
10
161.029074
20
199.501511
11
157.581191
21
197.901462
0
LINE
8
Image
10
157.581191
20
197.901462
11
154.214826
21
196.127555
0
LINE
8
Image
10
154.214826
20
196.127555
11
150.938602
21
194.185812
0
LINE
8
Image
10
150.938602
20
194.185812
11
147.761144
21
192.082257
0
LINE
8
Image
10
147.761144
20
192.082257
11
144.691076
21
189.822910
0
LINE
8
Image
10
144.691076
20
189.822910
11
141.737022
21
187.413795
0
LINE
8
Image
10
141.737022
20
187.413795
11
138.907604
21
184.860934
0
LINE
8
Image
10
138.907604
20
184.860934
11
136.211448
21
182.170349
0
LINE
8
Image
10
136.211448
20
182.170349
11
133.657178
21
179.348064
0
LINE
8
Image
10
133.657178
20
179.348064
11
131.253416
21
176.400100
0
LINE
8
Image
10
131.253416
20
176.400100
11
129.008788
21
173.332479
0
LINE
8
Image
10
129.008788
20
173.332479
11
126.931916
21
170.151225
0
LINE
8
Image
10
126.931916
20
170.151225
11
124.329078
21
165.592696
0
LINE
8
Image
10
124.329078
20
165.592696
11
122.080567
21
160.955165
0
LINE
8
Image
10
122.080567
20
160.955165
11
120.184139
21
156.230669
0
LINE
8
Image
10
120.184139
20
156.230669
11
118.637549
21
151.411243
0
LINE
8
Image
10
118.637549
20
151.411243
11
117.438553
21
146.488924
0
LINE
8
Image
10
117.438553
20
146.488924
11
116.584906
21
141.455748
0
LINE
8
Image
10
116.584906
20
141.455748
11
116.074364
21
136.303752
0
LINE
8
Image
10
116.074364
20
136.303752
11
115.904682
21
131.024971
0
LINE
8
Image
10
115.904682
20
131.024971
11
116.020319
21
126.555027
0
LINE
8
Image
10
116.020319
20
126.555027
11
116.370232
21
122.214940
0
LINE
8
Image
10
116.370232
20
122.214940
11
116.958921
21
117.985396
0
LINE
8
Image
10
116.958921
20
117.985396
11
117.790887
21
113.847080
0
LINE
8
Image
10
117.790887
20
113.847080
11
118.870629
21
109.780677
0
LINE
8
Image
10
118.870629
20
109.780677
11
120.202647
21
105.766874
0
LINE
8
Image
10
120.202647
20
105.766874
11
121.791443
21
101.786354
0
LINE
8
Image
10
121.791443
20
101.786354
11
123.641517
21
97.819805
0
LINE
8
Image
10
123.641517
20
97.819805
11
126.706615
21
92.249772
0
LINE
8
Image
10
126.706615
20
92.249772
11
130.142338
21
87.124430
0
LINE
8
Image
10
130.142338
20
87.124430
11
134.090231
21
82.252121
0
LINE
8
Image
10
134.090231
20
82.252121
11
138.691842
21
77.441188
0
LINE
8
Image
10
138.691842
20
77.441188
11
141.154529
21
75.149994
0
LINE
8
Image
10
141.154529
20
75.149994
11
143.706600
21
72.983277
0
LINE
8
Image
10
143.706600
20
72.983277
11
146.344470
21
70.942592
0
LINE
8
Image
10
146.344470
20
70.942592
11
149.064553
21
69.029492
0
LINE
8
Image
10
149.064553
20
69.029492
11
151.863263
21
67.245531
0
LINE
8
Image
10
151.863263
20
67.245531
11
154.737015
21
65.592264
0
LINE
8
Image
10
154.737015
20
65.592264
11
157.682222
21
64.071243
0
LINE
8
Image
10
157.682222
20
64.071243
11
160.695299
21
62.684023
0
LINE
8
Image
10
160.695299
20
62.684023
11
166.910719
21
60.317199
0
LINE
8
Image
10
166.910719
20
60.317199
11
173.354587
21
58.504224
0
LINE
8
Image
10
173.354587
20
58.504224
11
179.998218
21
57.257527
0
LINE
8
Image
10
179.998218
20
57.257527
11
186.812926
21
56.589540
0
LINE
8
Image
10
186.812926
20
56.589540
11
190.599969
21
56.477297
0
LINE
8
Image
10
190.599969
20
56.477297
11
194.882707
21
56.684287
0
LINE
8
Image
10
194.882707
20
56.684287
11
194.882707
21
56.684287
0
LINE
8
Image
10
152.943611
20
83.466177
11
151.515423
21
84.808494
0
LINE
8
Image
10
151.515423
20
84.808494
11
150.961929
21
85.555499
0
LINE
8
Image
10
150.961929
20
85.555499
11
150.961929
21
131.024971
0
LINE
8
Image
10
150.961929
20
131.024971
11
150.961929
21
176.494444
0
LINE
8
Image
10
150.961929
20
176.494444
11
151.515423
21
177.241449
0
LINE
8
Image
10
151.515423
20
177.241449
11
152.943611
21
178.583766
0
LINE
8
Image
10
152.943611
20
178.583766
11
153.612847
21
178.926342
0
LINE
8
Image
10
153.612847
20
178.926342
11
154.986356
21
179.103252
0
LINE
8
Image
10
154.986356
20
179.103252
11
163.863454
21
179.179077
0
LINE
8
Image
10
163.863454
20
179.179077
11
172.674951
21
179.102673
0
LINE
8
Image
10
172.674951
20
179.102673
11
174.142258
21
178.935522
0
LINE
8
Image
10
174.142258
20
178.935522
11
174.905622
21
178.618720
0
LINE
8
Image
10
174.905622
20
178.618720
11
175.774372
21
177.930095
0
LINE
8
Image
10
175.774372
20
177.930095
11
176.462997
21
177.061345
0
LINE
8
Image
10
176.462997
20
177.061345
11
176.784054
21
176.214146
0
LINE
8
Image
10
176.784054
20
176.214146
11
176.950732
21
174.132229
0
LINE
8
Image
10
176.950732
20
174.132229
11
177.023355
21
160.159224
0
LINE
8
Image
10
177.023355
20
160.159224
11
177.023355
21
144.254121
0
LINE
8
Image
10
177.023355
20
144.254121
11
190.252505
21
144.254121
0
LINE
8
Image
10
190.252505
20
144.254121
11
203.481655
21
144.254121
0
LINE
8
Image
10
203.481655
20
144.254121
11
203.481655
21
160.159224
0
LINE
8
Image
10
203.481655
20
160.159224
11
203.554279
21
174.132229
0
LINE
8
Image
10
203.554279
20
174.132229
11
203.720958
21
176.214146
0
LINE
8
Image
10
203.720958
20
176.214146
11
204.042012
21
177.061345
0
LINE
8
Image
10
204.042012
20
177.061345
11
204.730637
21
177.930095
0
LINE
8
Image
10
204.730637
20
177.930095
11
205.599387
21
178.618720
0
LINE
8
Image
10
205.599387
20
178.618720
11
206.362751
21
178.935526
0
LINE
8
Image
10
206.362751
20
178.935526
11
207.830058
21
179.102677
0
LINE
8
Image
10
207.830058
20
179.102677
11
216.641555
21
179.179077
0
LINE
8
Image
10
216.641555
20
179.179077
11
225.518654
21
179.103255
0
LINE
8
Image
10
225.518654
20
179.103255
11
226.892162
21
178.926345
0
LINE
8
Image
10
226.892162
20
178.926345
11
227.561398
21
178.583766
0
LINE
8
Image
10
227.561398
20
178.583766
11
228.989586
21
177.241449
0
LINE
8
Image
10
228.989586
20
177.241449
11
229.543080
21
176.494444
0
LINE
8
Image
10
229.543080
20
176.494444
11
229.543080
21
131.024971
0
LINE
8
Image
10
229.543080
20
131.024971
11
229.543080
21
85.555499
0
LINE
8
Image
10
229.543080
20
85.555499
11
228.989586
21
84.808494
0
LINE
8
Image
10
228.989586
20
84.808494
11
227.561398
21
83.466177
0
LINE
8
Image
10
227.561398
20
83.466177
11
226.891405
21
83.123533
0
LINE
8
Image
10
226.891405
20
83.123533
11
225.511559
21
82.946631
0
LINE
8
Image
10
225.511559
20
82.946631
11
216.578513
21
82.870865
0
LINE
8
Image
10
216.578513
20
82.870865
11
207.633336
21
82.946761
0
LINE
8
Image
10
207.633336
20
82.946761
11
206.254994
21
83.125451
0
LINE
8
Image
10
206.254994
20
83.125451
11
205.577596
21
83.472474
0
LINE
8
Image
10
205.577596
20
83.472474
11
204.770386
21
84.159597
0
LINE
8
Image
10
204.770386
20
84.159597
11
204.083263
21
84.966807
0
LINE
8
Image
10
204.083263
20
84.966807
11
203.481655
21
85.859534
0
LINE
8
Image
10
203.481655
20
85.859534
11
203.481655
21
101.827677
0
LINE
8
Image
10
203.481655
20
101.827677
11
203.481655
21
117.795821
0
LINE
8
Image
10
203.481655
20
117.795821
11
190.252505
21
117.795821
0
LINE
8
Image
10
190.252505
20
117.795821
11
177.023355
21
117.795821
0
LINE
8
Image
10
177.023355
20
117.795821
11
177.023355
21
101.827677
0
LINE
8
Image
10
177.023355
20
101.827677
11
177.023355
21
85.859534
0
LINE
8
Image
10
177.023355
20
85.859534
11
176.421746
21
84.966807
0
LINE
8
Image
10
176.421746
20
84.966807
11
175.734623
21
84.159597
0
LINE
8
Image
10
175.734623
20
84.159597
11
174.927413
21
83.472474
0
LINE
8
Image
10
174.927413
20
83.472474
11
174.250015
21
83.125483
0
LINE
8
Image
10
174.250015
20
83.125483
11
172.871673
21
82.946790
0
LINE
8
Image
10
172.871673
20
82.946790
11
163.926496
21
82.870865
0
LINE
8
Image
10
163.926496
20
82.870865
11
154.993450
21
82.946629
0
LINE
8
Image
10
154.993450
20
82.946629
11
153.613604
21
83.123531
0
LINE
8
Image
10
153.613604
20
83.123531
11
152.943611
21
83.466177
0
LINE
8
Image
10
152.943611
20
83.466177
11
152.943611
21
83.466177
0
LINE
8
Image
10
168.292116
20
107.288730
11
168.292116
21
122.975356
0
LINE
8
Image
10
168.292116
20
122.975356
11
168.887427
21
124.153762
0
LINE
8
Image
10
168.887427
20
124.153762
11
169.571954
21
125.161510
0
LINE
8
Image
10
169.571954
20
125.161510
11
170.381760
21
125.929614
0
LINE
8
Image
10
170.381760
20
125.929614
11
171.280784
21
126.527060
0
LINE
8
Image
10
171.280784
20
126.527060
11
190.252505
21
126.527060
0
LINE
8
Image
10
190.252505
20
126.527060
11
209.224225
21
126.527060
0
LINE
8
Image
10
209.224225
20
126.527060
11
210.123249
21
125.929614
0
LINE
8
Image
10
210.123249
20
125.929614
11
210.933055
21
125.161510
0
LINE
8
Image
10
210.933055
20
125.161510
11
211.617582
21
124.153762
0
LINE
8
Image
10
211.617582
20
124.153762
11
212.212894
21
122.975356
0
LINE
8
Image
10
212.212894
20
122.975356
11
212.212894
21
107.288730
0
LINE
8
Image
10
212.212894
20
107.288730
11
212.212894
21
91.602104
0
LINE
8
Image
10
212.212894
20
91.602104
11
216.578513
21
91.602104
0
LINE
8
Image
10
216.578513
20
91.602104
11
220.944133
21
91.602104
0
LINE
8
Image
10
220.944133
20
91.602104
11
220.944133
21
131.024971
0
LINE
8
Image
10
220.944133
20
131.024971
11
220.944133
21
170.447838
0
LINE
8
Image
10
220.944133
20
170.447838
11
216.586369
21
170.447838
0
LINE
8
Image
10
216.586369
20
170.447838
11
212.228604
21
170.447838
0
LINE
8
Image
10
212.228604
20
170.447838
11
212.154603
21
154.353622
0
LINE
8
Image
10
212.154603
20
154.353622
11
212.080602
21
138.259406
0
LINE
8
Image
10
212.080602
20
138.259406
11
211.339322
21
137.287741
0
LINE
8
Image
10
211.339322
20
137.287741
11
210.880125
21
136.676725
0
LINE
8
Image
10
210.880125
20
136.676725
11
210.376570
21
136.225591
0
LINE
8
Image
10
210.376570
20
136.225591
11
209.539885
21
135.910172
0
LINE
8
Image
10
209.539885
20
135.910172
11
208.081298
21
135.706298
0
LINE
8
Image
10
208.081298
20
135.706298
11
202.143334
21
135.536511
0
LINE
8
Image
10
202.143334
20
135.536511
11
190.252505
21
135.522882
0
LINE
8
Image
10
190.252505
20
135.522882
11
178.361675
21
135.536511
0
LINE
8
Image
10
178.361675
20
135.536511
11
172.423711
21
135.706298
0
LINE
8
Image
10
172.423711
20
135.706298
11
170.965124
21
135.910172
0
LINE
8
Image
10
170.965124
20
135.910172
11
170.128439
21
136.225591
0
LINE
8
Image
10
170.128439
20
136.225591
11
169.624884
21
136.676725
0
LINE
8
Image
10
169.624884
20
136.676725
11
169.165687
21
137.287741
0
LINE
8
Image
10
169.165687
20
137.287741
11
168.424407
21
138.259406
0
LINE
8
Image
10
168.424407
20
138.259406
11
168.350406
21
154.353622
0
LINE
8
Image
10
168.350406
20
154.353622
11
168.276405
21
170.447838
0
LINE
8
Image
10
168.276405
20
170.447838
11
163.918641
21
170.447838
0
LINE
8
Image
10
163.918641
20
170.447838
11
159.560877
21
170.447838
0
LINE
8
Image
10
159.560877
20
170.447838
11
159.560877
21
131.024971
0
LINE
8
Image
10
159.560877
20
131.024971
11
159.560877
21
91.602104
0
LINE
8
Image
10
159.560877
20
91.602104
11
163.926496
21
91.602104
0
LINE
8
Image
10
163.926496
20
91.602104
11
168.292116
21
91.602104
0
LINE
8
Image
10
168.292116
20
91.602104
11
168.292116
21
107.288730
 0 
ENDSEC
 0 
EOF