999
"DXF R12 Output" (www.mydxf.blogspot.com)
 0 
SECTION
 2 
HEADER
 9 
$ACADVER
 1 
AC1009
 9 
$EXTMIN
 10 
 0 
 20 
 0 
 9 
$EXTMAX
 10 
 8.5 
 20 
 11 
 0 
ENDSEC
 0 
SECTION
 2 
ENTITIES
0
LINE
8
Image
10
14.708027
20
10.495454
11
15.952537
21
15.169754
0
LINE
8
Image
10
15.952537
20
15.169754
11
17.264062
21
18.732258
0
LINE
8
Image
10
17.264062
20
18.732258
11
18.892746
21
22.038274
0
LINE
8
Image
10
18.892746
20
22.038274
11
20.827407
21
25.075499
0
LINE
8
Image
10
20.827407
20
25.075499
11
23.056866
21
27.831631
0
LINE
8
Image
10
23.056866
20
27.831631
11
25.569942
21
30.294365
0
LINE
8
Image
10
25.569942
20
30.294365
11
28.355455
21
32.451400
0
LINE
8
Image
10
28.355455
20
32.451400
11
31.402226
21
34.290432
0
LINE
8
Image
10
31.402226
20
34.290432
11
34.699074
21
35.799158
0
LINE
8
Image
10
34.699074
20
35.799158
11
35.782889
21
36.387587
0
LINE
8
Image
10
35.782889
20
36.387587
11
35.911413
21
36.719221
0
LINE
8
Image
10
35.911413
20
36.719221
11
35.848795
21
37.177004
0
LINE
8
Image
10
35.848795
20
37.177004
11
35.649961
21
39.712212
0
LINE
8
Image
10
35.649961
20
39.712212
11
35.611162
21
43.953842
0
LINE
8
Image
10
35.611162
20
43.953842
11
35.718972
21
48.242489
0
LINE
8
Image
10
35.718972
20
48.242489
11
35.959968
21
50.918749
0
LINE
8
Image
10
35.959968
20
50.918749
11
36.716763
21
53.242774
0
LINE
8
Image
10
36.716763
20
53.242774
11
37.815161
21
55.152983
0
LINE
8
Image
10
37.815161
20
55.152983
11
39.240155
21
56.629236
0
LINE
8
Image
10
39.240155
20
56.629236
11
40.976742
21
57.651397
0
LINE
8
Image
10
40.976742
20
57.651397
11
42.266036
21
58.189963
0
LINE
8
Image
10
42.266036
20
58.189963
11
42.480727
21
61.462466
0
LINE
8
Image
10
42.480727
20
61.462466
11
43.391609
21
82.677294
0
LINE
8
Image
10
43.391609
20
82.677294
11
43.391609
21
84.510619
0
LINE
8
Image
10
43.391609
20
84.510619
11
40.964806
21
85.135779
0
LINE
8
Image
10
40.964806
20
85.135779
11
38.767820
21
85.911523
0
LINE
8
Image
10
38.767820
20
85.911523
11
37.072087
21
87.015704
0
LINE
8
Image
10
37.072087
20
87.015704
11
35.658530
21
88.450915
0
LINE
8
Image
10
35.658530
20
88.450915
11
34.727996
21
90.019397
0
LINE
8
Image
10
34.727996
20
90.019397
11
34.185365
21
91.946879
0
LINE
8
Image
10
34.185365
20
91.946879
11
33.935516
21
94.459091
0
LINE
8
Image
10
33.935516
20
94.459091
11
33.782235
21
97.724910
0
LINE
8
Image
10
33.782235
20
97.724910
11
31.542072
21
100.144493
0
LINE
8
Image
10
31.542072
20
100.144493
11
30.032463
21
101.643612
0
LINE
8
Image
10
30.032463
20
101.643612
11
28.709644
21
102.691064
0
LINE
8
Image
10
28.709644
20
102.691064
11
27.620515
21
103.255505
0
LINE
8
Image
10
27.620515
20
103.255505
11
26.811976
21
103.305593
0
LINE
8
Image
10
26.811976
20
103.305593
11
26.928059
21
102.859190
0
LINE
8
Image
10
26.928059
20
102.859190
11
27.530749
21
101.739278
0
LINE
8
Image
10
27.530749
20
101.739278
11
29.803336
21
98.154948
0
LINE
8
Image
10
29.803336
20
98.154948
11
32.630576
21
93.761360
0
LINE
8
Image
10
32.630576
20
93.761360
11
32.751512
21
93.398444
0
LINE
8
Image
10
32.751512
20
93.398444
11
32.693033
21
93.212057
0
LINE
8
Image
10
32.693033
20
93.212057
11
32.147694
21
93.133546
0
LINE
8
Image
10
32.147694
20
93.133546
11
31.536961
21
93.234891
0
LINE
8
Image
10
31.536961
20
93.234891
11
30.930362
21
93.646335
0
LINE
8
Image
10
30.930362
20
93.646335
11
29.041858
21
96.043959
0
LINE
8
Image
10
29.041858
20
96.043959
11
24.798724
21
102.291281
0
LINE
8
Image
10
24.798724
20
102.291281
11
23.440121
21
104.497944
0
LINE
8
Image
10
23.440121
20
104.497944
11
22.930526
21
105.563113
0
LINE
8
Image
10
22.930526
20
105.563113
11
24.253441
21
105.543190
0
LINE
8
Image
10
24.253441
20
105.543190
11
25.576356
21
105.394513
0
LINE
8
Image
10
25.576356
20
105.394513
11
23.328834
21
107.642497
0
LINE
8
Image
10
23.328834
20
107.642497
11
20.843320
21
110.345259
0
LINE
8
Image
10
20.843320
20
110.345259
11
18.505896
21
113.319012
0
LINE
8
Image
10
18.505896
20
113.319012
11
16.341742
21
116.517021
0
LINE
8
Image
10
16.341742
20
116.517021
11
14.376039
21
119.892549
0
LINE
8
Image
10
14.376039
20
119.892549
11
12.633967
21
123.398860
0
LINE
8
Image
10
12.633967
20
123.398860
11
11.140707
21
126.989216
0
LINE
8
Image
10
11.140707
20
126.989216
11
9.921439
21
130.616882
0
LINE
8
Image
10
9.921439
20
130.616882
11
9.001344
21
134.235121
0
LINE
8
Image
10
9.001344
20
134.235121
11
8.616030
21
137.147938
0
LINE
8
Image
10
8.616030
20
137.147938
11
8.485878
21
140.604968
0
LINE
8
Image
10
8.485878
20
140.604968
11
8.611344
21
143.946075
0
LINE
8
Image
10
8.611344
20
143.946075
11
8.992882
21
146.511123
0
LINE
8
Image
10
8.992882
20
146.511123
11
9.660338
21
148.574802
0
LINE
8
Image
10
9.660338
20
148.574802
11
10.547507
21
150.496974
0
LINE
8
Image
10
10.547507
20
150.496974
11
11.644806
21
152.259842
0
LINE
8
Image
10
11.644806
20
152.259842
11
12.942650
21
153.845610
0
LINE
8
Image
10
12.942650
20
153.845610
11
14.602004
21
155.854731
0
LINE
8
Image
10
14.602004
20
155.854731
11
16.352548
21
158.291535
0
LINE
8
Image
10
16.352548
20
158.291535
11
18.014546
21
160.495959
0
LINE
8
Image
10
18.014546
20
160.495959
11
19.821292
21
162.308749
0
LINE
8
Image
10
19.821292
20
162.308749
11
21.772434
21
163.729598
0
LINE
8
Image
10
21.772434
20
163.729598
11
23.867618
21
164.758205
0
LINE
8
Image
10
23.867618
20
164.758205
11
25.051137
21
165.148069
0
LINE
8
Image
10
25.051137
20
165.148069
11
26.301632
21
165.402067
0
LINE
8
Image
10
26.301632
20
165.402067
11
29.809683
21
165.619284
0
LINE
8
Image
10
29.809683
20
165.619284
11
33.335563
21
165.841764
0
LINE
8
Image
10
33.335563
20
165.841764
11
36.023375
21
166.426324
0
LINE
8
Image
10
36.023375
20
166.426324
11
38.700927
21
167.125595
0
LINE
8
Image
10
38.700927
20
167.125595
11
41.523335
21
167.605720
0
LINE
8
Image
10
41.523335
20
167.605720
11
44.252221
21
167.836184
0
LINE
8
Image
10
44.252221
20
167.836184
11
46.649206
21
167.786474
0
LINE
8
Image
10
46.649206
20
167.786474
11
49.579005
21
167.376523
0
LINE
8
Image
10
49.579005
20
167.376523
11
52.373980
21
166.637390
0
LINE
8
Image
10
52.373980
20
166.637390
11
55.451955
21
165.430637
0
LINE
8
Image
10
55.451955
20
165.430637
11
59.230754
21
163.617825
0
LINE
8
Image
10
59.230754
20
163.617825
11
64.042786
21
161.355878
0
LINE
8
Image
10
64.042786
20
161.355878
11
65.642581
21
160.802179
0
LINE
8
Image
10
65.642581
20
160.802179
11
67.015183
21
160.509430
0
LINE
8
Image
10
67.015183
20
160.509430
11
69.602698
21
160.032205
0
LINE
8
Image
10
69.602698
20
160.032205
11
71.738681
21
159.354174
0
LINE
8
Image
10
71.738681
20
159.354174
11
73.764716
21
158.336139
0
LINE
8
Image
10
73.764716
20
158.336139
11
76.022385
21
156.838901
0
LINE
8
Image
10
76.022385
20
156.838901
11
78.133244
21
155.575137
0
LINE
8
Image
10
78.133244
20
155.575137
11
80.630619
21
154.506361
0
LINE
8
Image
10
80.630619
20
154.506361
11
82.452238
21
153.453635
0
LINE
8
Image
10
82.452238
20
153.453635
11
84.042717
21
152.224685
0
LINE
8
Image
10
84.042717
20
152.224685
11
85.398658
21
150.825114
0
LINE
8
Image
10
85.398658
20
150.825114
11
86.516661
21
149.260526
0
LINE
8
Image
10
86.516661
20
149.260526
11
87.393329
21
147.536522
0
LINE
8
Image
10
87.393329
20
147.536522
11
88.025263
21
145.658705
0
LINE
8
Image
10
88.025263
20
145.658705
11
88.409066
21
143.632678
0
LINE
8
Image
10
88.409066
20
143.632678
11
88.541338
21
141.464044
0
LINE
8
Image
10
88.541338
20
141.464044
11
88.612371
21
140.352328
0
LINE
8
Image
10
88.612371
20
140.352328
11
88.864747
21
139.235817
0
LINE
8
Image
10
88.864747
20
139.235817
11
90.183250
21
136.108654
0
LINE
8
Image
10
90.183250
20
136.108654
11
91.820506
21
132.693541
0
LINE
8
Image
10
91.820506
20
132.693541
11
94.417647
21
132.115731
0
LINE
8
Image
10
94.417647
20
132.115731
11
96.719023
21
131.439845
0
LINE
8
Image
10
96.719023
20
131.439845
11
99.297235
21
130.296079
0
LINE
8
Image
10
99.297235
20
130.296079
11
102.566104
21
128.474569
0
LINE
8
Image
10
102.566104
20
128.474569
11
106.939453
21
125.765451
0
LINE
8
Image
10
106.939453
20
125.765451
11
111.555555
21
122.676257
0
LINE
8
Image
10
111.555555
20
122.676257
11
113.149801
21
121.440113
0
LINE
8
Image
10
113.149801
20
121.440113
11
114.337536
21
120.336523
0
LINE
8
Image
10
114.337536
20
120.336523
11
115.170778
21
119.310677
0
LINE
8
Image
10
115.170778
20
119.310677
11
115.701546
21
118.307764
0
LINE
8
Image
10
115.701546
20
118.307764
11
115.981860
21
117.272975
0
LINE
8
Image
10
115.981860
20
117.272975
11
116.063738
21
116.151497
0
LINE
8
Image
10
116.063738
20
116.151497
11
115.985687
21
115.249885
0
LINE
8
Image
10
115.985687
20
115.249885
11
115.736451
21
114.307215
0
LINE
8
Image
10
115.736451
20
114.307215
11
114.633939
21
112.159026
0
LINE
8
Image
10
114.633939
20
112.159026
11
112.575230
21
109.427582
0
LINE
8
Image
10
112.575230
20
109.427582
11
109.379350
21
105.833532
0
LINE
8
Image
10
109.379350
20
105.833532
11
103.441559
21
99.054970
0
LINE
8
Image
10
103.441559
20
99.054970
11
98.519237
21
92.865235
0
LINE
8
Image
10
98.519237
20
92.865235
11
96.402752
21
89.635040
0
LINE
8
Image
10
96.402752
20
89.635040
11
94.536351
21
86.222282
0
LINE
8
Image
10
94.536351
20
86.222282
11
93.094974
21
82.978986
0
LINE
8
Image
10
93.094974
20
82.978986
11
92.253562
21
80.257175
0
LINE
8
Image
10
92.253562
20
80.257175
11
92.000332
21
78.729516
0
LINE
8
Image
10
92.000332
20
78.729516
11
91.914863
21
77.357971
0
LINE
8
Image
10
91.914863
20
77.357971
11
92.008596
21
76.108922
0
LINE
8
Image
10
92.008596
20
76.108922
11
92.292970
21
74.948757
0
LINE
8
Image
10
92.292970
20
74.948757
11
92.779424
21
73.843858
0
LINE
8
Image
10
92.779424
20
73.843858
11
93.479399
21
72.760610
0
LINE
8
Image
10
93.479399
20
72.760610
11
95.565668
21
70.524608
0
LINE
8
Image
10
95.565668
20
70.524608
11
97.206712
21
68.818935
0
LINE
8
Image
10
97.206712
20
68.818935
11
97.590835
21
68.200606
0
LINE
8
Image
10
97.590835
20
68.200606
11
97.711571
21
67.702389
0
LINE
8
Image
10
97.711571
20
67.702389
11
97.481437
21
66.471634
0
LINE
8
Image
10
97.481437
20
66.471634
11
96.868179
21
65.120632
0
LINE
8
Image
10
96.868179
20
65.120632
11
95.956916
21
63.798616
0
LINE
8
Image
10
95.956916
20
63.798616
11
94.832765
21
62.654825
0
LINE
8
Image
10
94.832765
20
62.654825
11
93.277067
21
61.354423
0
LINE
8
Image
10
93.277067
20
61.354423
11
93.550598
21
58.524944
0
LINE
8
Image
10
93.550598
20
58.524944
11
93.981922
21
55.440144
0
LINE
8
Image
10
93.981922
20
55.440144
11
94.873282
21
55.230781
0
LINE
8
Image
10
94.873282
20
55.230781
11
96.794754
21
55.085949
0
LINE
8
Image
10
96.794754
20
55.085949
11
99.162297
21
54.893413
0
LINE
8
Image
10
99.162297
20
54.893413
11
101.126126
21
54.569359
0
LINE
8
Image
10
101.126126
20
54.569359
11
102.802460
21
54.151651
0
LINE
8
Image
10
102.802460
20
54.151651
11
105.725666
21
46.390548
0
LINE
8
Image
10
105.725666
20
46.390548
11
109.342087
21
36.865560
0
LINE
8
Image
10
109.342087
20
36.865560
11
110.785000
21
33.064688
0
LINE
8
Image
10
110.785000
20
33.064688
11
111.241183
21
31.942719
0
LINE
8
Image
10
111.241183
20
31.942719
11
111.707489
21
31.208220
0
LINE
8
Image
10
111.707489
20
31.208220
11
112.355862
21
30.663932
0
LINE
8
Image
10
112.355862
20
30.663932
11
113.358247
21
30.112595
0
LINE
8
Image
10
113.358247
20
30.112595
11
115.173208
21
29.072809
0
LINE
8
Image
10
115.173208
20
29.072809
11
116.834460
21
27.833651
0
LINE
8
Image
10
116.834460
20
27.833651
11
118.374372
21
26.351074
0
LINE
8
Image
10
118.374372
20
26.351074
11
119.825314
21
24.581032
0
LINE
8
Image
10
119.825314
20
24.581032
11
121.219657
21
22.479481
0
LINE
8
Image
10
121.219657
20
22.479481
11
122.589771
21
20.002373
0
LINE
8
Image
10
122.589771
20
20.002373
11
123.968024
21
17.105663
0
LINE
8
Image
10
123.968024
20
17.105663
11
125.386789
21
13.745306
0
LINE
8
Image
10
125.386789
20
13.745306
11
126.999835
21
9.452436
0
LINE
8
Image
10
126.999835
20
9.452436
11
126.792202
21
9.220800
0
LINE
8
Image
10
126.792202
20
9.220800
11
126.306727
21
9.183664
0
LINE
8
Image
10
126.306727
20
9.183664
11
125.749545
21
9.321184
0
LINE
8
Image
10
125.749545
20
9.321184
11
125.326792
21
9.613511
0
LINE
8
Image
10
125.326792
20
9.613511
11
123.846799
21
13.020129
0
LINE
8
Image
10
123.846799
20
13.020129
11
122.322553
21
16.725572
0
LINE
8
Image
10
122.322553
20
16.725572
11
120.761842
21
19.937845
0
LINE
8
Image
10
120.761842
20
19.937845
11
119.153318
21
22.670544
0
LINE
8
Image
10
119.153318
20
22.670544
11
117.485632
21
24.937267
0
LINE
8
Image
10
117.485632
20
24.937267
11
115.747439
21
26.751611
0
LINE
8
Image
10
115.747439
20
26.751611
11
113.927388
21
28.127173
0
LINE
8
Image
10
113.927388
20
28.127173
11
112.014133
21
29.077552
0
LINE
8
Image
10
112.014133
20
29.077552
11
109.996326
21
29.616343
0
LINE
8
Image
10
109.996326
20
29.616343
11
108.421828
21
29.762662
0
LINE
8
Image
10
108.421828
20
29.762662
11
106.838637
21
29.745982
0
LINE
8
Image
10
106.838637
20
29.745982
11
105.617118
21
29.589207
0
LINE
8
Image
10
105.617118
20
29.589207
11
105.127642
21
29.315242
0
LINE
8
Image
10
105.127642
20
29.315242
11
108.302638
21
19.579472
0
LINE
8
Image
10
108.302638
20
19.579472
11
111.477634
21
9.596324
0
LINE
8
Image
10
111.477634
20
9.596324
11
111.262420
21
9.282241
0
LINE
8
Image
10
111.262420
20
9.282241
11
110.683885
21
9.236197
0
LINE
8
Image
10
110.683885
20
9.236197
11
110.188769
21
9.524988
0
LINE
8
Image
10
110.188769
20
9.524988
11
109.622881
21
10.519865
0
LINE
8
Image
10
109.622881
20
10.519865
11
107.538440
21
16.287575
0
LINE
8
Image
10
107.538440
20
16.287575
11
104.492266
21
24.954813
0
LINE
8
Image
10
104.492266
20
24.954813
11
101.398648
21
33.269907
0
LINE
8
Image
10
101.398648
20
33.269907
11
98.914722
21
39.517149
0
LINE
8
Image
10
98.914722
20
39.517149
11
98.106749
21
41.329166
0
LINE
8
Image
10
98.106749
20
41.329166
11
97.697625
21
41.980831
0
LINE
8
Image
10
97.697625
20
41.980831
11
97.118446
21
41.281339
0
LINE
8
Image
10
97.118446
20
41.281339
11
96.178423
21
39.599584
0
LINE
8
Image
10
96.178423
20
39.599584
11
92.695683
21
31.771465
0
LINE
8
Image
10
92.695683
20
31.771465
11
91.021895
21
27.706657
0
LINE
8
Image
10
91.021895
20
27.706657
11
90.310994
21
25.713522
0
LINE
8
Image
10
90.310994
20
25.713522
11
90.270204
21
25.517586
0
LINE
8
Image
10
90.270204
20
25.517586
11
90.145843
21
25.491260
0
LINE
8
Image
10
90.145843
20
25.491260
11
89.634454
21
25.961704
0
LINE
8
Image
10
89.634454
20
25.961704
11
87.477328
21
29.094818
0
LINE
8
Image
10
87.477328
20
29.094818
11
83.784612
21
34.866440
0
LINE
8
Image
10
83.784612
20
34.866440
11
80.462910
21
40.059045
0
LINE
8
Image
10
80.462910
20
40.059045
11
77.331962
21
44.887084
0
LINE
8
Image
10
77.331962
20
44.887084
11
75.758828
21
47.264172
0
LINE
8
Image
10
75.758828
20
47.264172
11
66.189792
21
47.180138
0
LINE
8
Image
10
66.189792
20
47.180138
11
59.994872
21
47.150574
0
LINE
8
Image
10
59.994872
20
47.150574
11
56.219858
21
47.420113
0
LINE
8
Image
10
56.219858
20
47.420113
11
54.618579
21
47.768545
0
LINE
8
Image
10
54.618579
20
47.768545
11
52.876792
21
48.313553
0
LINE
8
Image
10
52.876792
20
48.313553
11
47.977716
21
50.155694
0
LINE
8
Image
10
47.977716
20
50.155694
11
44.484670
21
51.599964
0
LINE
8
Image
10
44.484670
20
51.599964
11
42.774250
21
52.514494
0
LINE
8
Image
10
42.774250
20
52.514494
11
42.462813
21
53.340474
0
LINE
8
Image
10
42.462813
20
53.340474
11
42.333277
21
54.571854
0
LINE
8
Image
10
42.333277
20
54.571854
11
42.244974
21
55.645405
0
LINE
8
Image
10
42.244974
20
55.645405
11
42.032671
21
56.091926
0
LINE
8
Image
10
42.032671
20
56.091926
11
41.220378
21
55.788937
0
LINE
8
Image
10
41.220378
20
55.788937
11
40.218714
21
55.011869
0
LINE
8
Image
10
40.218714
20
55.011869
11
39.241574
21
53.958571
0
LINE
8
Image
10
39.241574
20
53.958571
11
38.502851
21
52.826892
0
LINE
8
Image
10
38.502851
20
52.826892
11
37.888457
21
50.847327
0
LINE
8
Image
10
37.888457
20
50.847327
11
37.532494
21
48.002814
0
LINE
8
Image
10
37.532494
20
48.002814
11
37.446628
21
44.461950
0
LINE
8
Image
10
37.446628
20
44.461950
11
37.642525
21
40.393333
0
LINE
8
Image
10
37.642525
20
40.393333
11
37.923562
21
36.865560
0
LINE
8
Image
10
37.923562
20
36.865560
11
41.451335
21
36.441839
0
LINE
8
Image
10
41.451335
20
36.441839
11
44.547184
21
35.979280
0
LINE
8
Image
10
44.547184
20
35.979280
11
47.036502
21
35.462180
0
LINE
8
Image
10
47.036502
20
35.462180
11
48.894412
21
34.834163
0
LINE
8
Image
10
48.894412
20
34.834163
11
50.962338
21
33.952393
0
LINE
8
Image
10
50.962338
20
33.952393
11
52.815296
21
33.014140
0
LINE
8
Image
10
52.815296
20
33.014140
11
54.028304
21
32.216678
0
LINE
8
Image
10
54.028304
20
32.216678
11
55.332676
21
31.576254
0
LINE
8
Image
10
55.332676
20
31.576254
11
57.886064
21
30.996355
0
LINE
8
Image
10
57.886064
20
30.996355
11
61.995225
21
30.423928
0
LINE
8
Image
10
61.995225
20
30.423928
11
67.966914
21
29.805917
0
LINE
8
Image
10
67.966914
20
29.805917
11
69.788079
21
29.634729
0
LINE
8
Image
10
69.788079
20
29.634729
11
70.019809
21
31.133481
0
LINE
8
Image
10
70.019809
20
31.133481
11
71.439568
21
39.736766
0
LINE
8
Image
10
71.439568
20
39.736766
11
72.400527
21
44.576692
0
LINE
8
Image
10
72.400527
20
44.576692
11
72.891447
21
45.666108
0
LINE
8
Image
10
72.891447
20
45.666108
11
73.555754
21
46.280239
0
LINE
8
Image
10
73.555754
20
46.280239
11
74.364472
21
46.404561
0
LINE
8
Image
10
74.364472
20
46.404561
11
75.288630
21
46.024548
0
LINE
8
Image
10
75.288630
20
46.024548
11
76.101658
21
45.368047
0
LINE
8
Image
10
76.101658
20
45.368047
11
76.607991
21
44.704372
0
LINE
8
Image
10
76.607991
20
44.704372
11
76.759726
21
44.124074
0
LINE
8
Image
10
76.759726
20
44.124074
11
76.508963
21
43.717702
0
LINE
8
Image
10
76.508963
20
43.717702
11
75.995244
21
43.660758
0
LINE
8
Image
10
75.995244
20
43.660758
11
75.405875
21
44.001173
0
LINE
8
Image
10
75.405875
20
44.001173
11
74.844046
21
44.341613
0
LINE
8
Image
10
74.844046
20
44.341613
11
74.423047
21
44.225640
0
LINE
8
Image
10
74.423047
20
44.225640
11
73.981966
21
43.180874
0
LINE
8
Image
10
73.981966
20
43.180874
11
73.479931
21
40.967843
0
LINE
8
Image
10
73.479931
20
40.967843
11
72.434166
21
33.778528
0
LINE
8
Image
10
72.434166
20
33.778528
11
71.931784
21
29.979188
0
LINE
8
Image
10
71.931784
20
29.979188
11
71.570167
21
28.151924
0
LINE
8
Image
10
71.570167
20
28.151924
11
71.102081
21
27.987787
0
LINE
8
Image
10
71.102081
20
27.987787
11
69.860857
21
27.988773
0
LINE
8
Image
10
69.860857
20
27.988773
11
64.233759
21
28.528471
0
LINE
8
Image
10
64.233759
20
28.528471
11
59.142122
21
29.034438
0
LINE
8
Image
10
59.142122
20
29.034438
11
56.835680
21
29.128272
0
LINE
8
Image
10
56.835680
20
29.128272
11
56.913071
21
28.260062
0
LINE
8
Image
10
56.913071
20
28.260062
11
57.552774
21
26.453023
0
LINE
8
Image
10
57.552774
20
26.453023
11
58.480585
21
23.949163
0
LINE
8
Image
10
58.480585
20
23.949163
11
59.250667
21
21.405618
0
LINE
8
Image
10
59.250667
20
21.405618
11
59.873766
21
18.326142
0
LINE
8
Image
10
59.873766
20
18.326142
11
60.458333
21
14.499204
0
LINE
8
Image
10
60.458333
20
14.499204
11
60.838968
21
11.153855
0
LINE
8
Image
10
60.838968
20
11.153855
11
60.850275
21
9.519145
0
LINE
8
Image
10
60.850275
20
9.519145
11
60.497576
21
9.281057
0
LINE
8
Image
10
60.497576
20
9.281057
11
59.964881
21
9.180198
0
LINE
8
Image
10
59.964881
20
9.180198
11
59.478888
21
9.228306
0
LINE
8
Image
10
59.478888
20
9.228306
11
59.266296
21
9.437122
0
LINE
8
Image
10
59.266296
20
9.437122
11
58.908934
21
13.582256
0
LINE
8
Image
10
58.908934
20
13.582256
11
58.416887
21
17.726202
0
LINE
8
Image
10
58.416887
20
17.726202
11
57.742521
21
21.285045
0
LINE
8
Image
10
57.742521
20
21.285045
11
56.859309
21
24.307984
0
LINE
8
Image
10
56.859309
20
24.307984
11
55.740725
21
26.844217
0
LINE
8
Image
10
55.740725
20
26.844217
11
54.360242
21
28.942942
0
LINE
8
Image
10
54.360242
20
28.942942
11
52.691334
21
30.653356
0
LINE
8
Image
10
52.691334
20
30.653356
11
50.707475
21
32.024659
0
LINE
8
Image
10
50.707475
20
32.024659
11
48.382137
21
33.106047
0
LINE
8
Image
10
48.382137
20
33.106047
11
44.716012
21
34.280961
0
LINE
8
Image
10
44.716012
20
34.280961
11
43.062992
21
34.615387
0
LINE
8
Image
10
43.062992
20
34.615387
11
41.475791
21
34.784122
0
LINE
8
Image
10
41.475791
20
34.784122
11
39.913754
21
34.789412
0
LINE
8
Image
10
39.913754
20
34.789412
11
38.336223
21
34.633504
0
LINE
8
Image
10
38.336223
20
34.633504
11
34.972057
21
33.847081
0
LINE
8
Image
10
34.972057
20
33.847081
11
33.208047
21
33.217215
0
LINE
8
Image
10
33.208047
20
33.217215
11
31.474081
21
32.421633
0
LINE
8
Image
10
31.474081
20
32.421633
11
29.783988
21
31.470423
0
LINE
8
Image
10
29.783988
20
31.470423
11
28.151600
21
30.373672
0
LINE
8
Image
10
28.151600
20
30.373672
11
26.590747
21
29.141466
0
LINE
8
Image
10
26.590747
20
29.141466
11
25.115259
21
27.783894
0
LINE
8
Image
10
25.115259
20
27.783894
11
23.738968
21
26.311042
0
LINE
8
Image
10
23.738968
20
26.311042
11
22.475703
21
24.732998
0
LINE
8
Image
10
22.475703
20
24.732998
11
20.427702
21
21.393596
0
LINE
8
Image
10
20.427702
20
21.393596
11
18.399054
21
17.225275
0
LINE
8
Image
10
18.399054
20
17.225275
11
16.846745
21
13.265323
0
LINE
8
Image
10
16.846745
20
13.265323
11
16.392024
21
11.687639
0
LINE
8
Image
10
16.392024
20
11.687639
11
16.227757
21
10.551029
0
LINE
8
Image
10
16.227757
20
10.551029
11
16.072726
21
10.105215
0
LINE
8
Image
10
16.072726
20
10.105215
11
15.685830
21
9.656962
0
LINE
8
Image
10
15.685830
20
9.656962
11
15.184366
21
9.311120
0
LINE
8
Image
10
15.184366
20
9.311120
11
14.685630
21
9.172539
0
LINE
8
Image
10
14.685630
20
9.172539
11
14.708027
21
10.495454
0
LINE
8
Image
10
14.708027
20
10.495454
11
14.708027
21
10.495454
0
LINE
8
Image
10
93.221407
20
36.316299
11
96.660986
21
44.019284
0
LINE
8
Image
10
96.660986
20
44.019284
11
95.620876
21
46.422396
0
LINE
8
Image
10
95.620876
20
46.422396
11
94.560304
21
48.887561
0
LINE
8
Image
10
94.560304
20
48.887561
11
93.406888
21
52.080831
0
LINE
8
Image
10
93.406888
20
52.080831
11
92.374070
21
55.369384
0
LINE
8
Image
10
92.374070
20
55.369384
11
91.675295
21
58.120396
0
LINE
8
Image
10
91.675295
20
58.120396
11
91.276612
21
59.677577
0
LINE
8
Image
10
91.276612
20
59.677577
11
90.945967
21
60.325254
0
LINE
8
Image
10
90.945967
20
60.325254
11
90.746666
21
60.238632
0
LINE
8
Image
10
90.746666
20
60.238632
11
90.663770
21
60.030371
0
LINE
8
Image
10
90.663770
20
60.030371
11
90.526786
21
59.566463
0
LINE
8
Image
10
90.526786
20
59.566463
11
90.138191
21
58.952207
0
LINE
8
Image
10
90.138191
20
58.952207
11
88.740315
21
57.403172
0
LINE
8
Image
10
88.740315
20
57.403172
11
86.738439
21
55.644311
0
LINE
8
Image
10
86.738439
20
55.644311
11
84.400855
21
53.936670
0
LINE
8
Image
10
84.400855
20
53.936670
11
82.603271
21
52.820306
0
LINE
8
Image
10
82.603271
20
52.820306
11
80.995420
21
51.995554
0
LINE
8
Image
10
80.995420
20
51.995554
11
79.510613
21
51.456784
0
LINE
8
Image
10
79.510613
20
51.456784
11
78.082163
21
51.198363
0
LINE
8
Image
10
78.082163
20
51.198363
11
76.643384
21
51.214660
0
LINE
8
Image
10
76.643384
20
51.214660
11
75.127587
21
51.500043
0
LINE
8
Image
10
75.127587
20
51.500043
11
73.468084
21
52.048882
0
LINE
8
Image
10
73.468084
20
52.048882
11
71.598189
21
52.855544
0
LINE
8
Image
10
71.598189
20
52.855544
11
68.615188
21
54.001363
0
LINE
8
Image
10
68.615188
20
54.001363
11
68.135288
21
53.866925
0
LINE
8
Image
10
68.135288
20
53.866925
11
67.399440
21
53.384955
0
LINE
8
Image
10
67.399440
20
53.384955
11
65.175828
21
51.390505
0
LINE
8
Image
10
65.175828
20
51.390505
11
62.442025
21
48.698474
0
LINE
8
Image
10
62.442025
20
48.698474
11
69.592740
21
48.920922
0
LINE
8
Image
10
69.592740
20
48.920922
11
76.743455
21
49.143370
0
LINE
8
Image
10
76.743455
20
49.143370
11
77.142679
21
48.267167
0
LINE
8
Image
10
77.142679
20
48.267167
11
80.165649
21
43.362983
0
LINE
8
Image
10
80.165649
20
43.362983
11
88.386854
21
30.604394
0
LINE
8
Image
10
88.386854
20
30.604394
11
89.605438
21
28.930470
0
LINE
8
Image
10
89.605438
20
28.930470
11
93.221407
21
36.316299
0
LINE
8
Image
10
93.221407
20
36.316299
11
93.221407
21
36.316299
0
LINE
8
Image
10
109.248318
20
31.872823
11
108.328747
21
34.606334
0
LINE
8
Image
10
108.328747
20
34.606334
11
104.605569
21
44.097495
0
LINE
8
Image
10
104.605569
20
44.097495
11
101.561677
21
51.900450
0
LINE
8
Image
10
101.561677
20
51.900450
11
101.307878
21
52.382778
0
LINE
8
Image
10
101.307878
20
52.382778
11
100.931984
21
52.695629
0
LINE
8
Image
10
100.931984
20
52.695629
11
99.371406
21
53.043908
0
LINE
8
Image
10
99.371406
20
53.043908
11
96.019854
21
53.266640
0
LINE
8
Image
10
96.019854
20
53.266640
11
94.810103
21
53.156940
0
LINE
8
Image
10
94.810103
20
53.156940
11
94.650432
21
52.969714
0
LINE
8
Image
10
94.650432
20
52.969714
11
94.697343
21
52.652347
0
LINE
8
Image
10
94.697343
20
52.652347
11
96.390135
21
48.091582
0
LINE
8
Image
10
96.390135
20
48.091582
11
97.157251
21
46.345251
0
LINE
8
Image
10
97.157251
20
46.345251
11
97.602965
21
45.606187
0
LINE
8
Image
10
97.602965
20
45.606187
11
97.819156
21
45.804212
0
LINE
8
Image
10
97.819156
20
45.804212
11
98.142736
21
46.431744
0
LINE
8
Image
10
98.142736
20
46.431744
11
98.936968
21
48.584436
0
LINE
8
Image
10
98.936968
20
48.584436
11
100.226972
21
52.017348
0
LINE
8
Image
10
100.226972
20
52.017348
11
100.401363
21
52.123685
0
LINE
8
Image
10
100.401363
20
52.123685
11
100.505155
21
52.010532
0
LINE
8
Image
10
100.505155
20
52.010532
11
100.511874
21
51.225287
0
LINE
8
Image
10
100.511874
20
51.225287
11
99.798385
21
48.115762
0
LINE
8
Image
10
99.798385
20
48.115762
11
99.288073
21
45.944548
0
LINE
8
Image
10
99.288073
20
45.944548
11
99.297842
21
43.890128
0
LINE
8
Image
10
99.297842
20
43.890128
11
99.902302
21
41.400558
0
LINE
8
Image
10
99.902302
20
41.400558
11
101.176060
21
37.923892
0
LINE
8
Image
10
101.176060
20
37.923892
11
103.358447
21
32.316781
0
LINE
8
Image
10
103.358447
20
32.316781
11
103.737750
21
31.295776
0
LINE
8
Image
10
103.737750
20
31.295776
11
106.432282
21
31.523547
0
LINE
8
Image
10
106.432282
20
31.523547
11
109.248318
21
31.872823
0
LINE
8
Image
10
109.248318
20
31.872823
11
109.248318
21
31.872823
0
LINE
8
Image
10
61.116578
20
50.018428
11
62.723070
21
50.986195
0
LINE
8
Image
10
62.723070
20
50.986195
11
64.343057
21
52.463866
0
LINE
8
Image
10
64.343057
20
52.463866
11
65.951624
21
54.424905
0
LINE
8
Image
10
65.951624
20
54.424905
11
67.523857
21
56.842775
0
LINE
8
Image
10
67.523857
20
56.842775
11
69.929527
21
60.753140
0
LINE
8
Image
10
69.929527
20
60.753140
11
71.878965
21
63.461460
0
LINE
8
Image
10
71.878965
20
63.461460
11
73.481157
21
65.101161
0
LINE
8
Image
10
73.481157
20
65.101161
11
74.186095
21
65.561974
0
LINE
8
Image
10
74.186095
20
65.561974
11
74.845091
21
65.805667
0
LINE
8
Image
10
74.845091
20
65.805667
11
75.593118
21
66.134740
0
LINE
8
Image
10
75.593118
20
66.134740
11
75.847125
21
66.675786
0
LINE
8
Image
10
75.847125
20
66.675786
11
75.731162
21
67.071828
0
LINE
8
Image
10
75.731162
20
67.071828
11
75.412917
21
67.546188
0
LINE
8
Image
10
75.412917
20
67.546188
11
74.347447
21
68.585196
0
LINE
8
Image
10
74.347447
20
68.585196
11
73.006442
21
69.503481
0
LINE
8
Image
10
73.006442
20
69.503481
11
71.745631
21
70.011714
0
LINE
8
Image
10
71.745631
20
70.011714
11
70.815282
21
70.081328
0
LINE
8
Image
10
70.815282
20
70.081328
11
69.825652
21
69.958606
0
LINE
8
Image
10
69.825652
20
69.958606
11
68.790082
21
69.650624
0
LINE
8
Image
10
68.790082
20
69.650624
11
67.721910
21
69.164459
0
LINE
8
Image
10
67.721910
20
69.164459
11
65.541114
21
67.685877
0
LINE
8
Image
10
65.541114
20
67.685877
11
63.389978
21
65.579467
0
LINE
8
Image
10
63.389978
20
65.579467
11
61.998363
21
64.160160
0
LINE
8
Image
10
61.998363
20
64.160160
11
61.684151
21
64.128866
0
LINE
8
Image
10
61.684151
20
64.128866
11
61.444176
21
64.444748
0
LINE
8
Image
10
61.444176
20
64.444748
11
61.287392
21
65.223163
0
LINE
8
Image
10
61.287392
20
65.223163
11
61.629654
21
66.250791
0
LINE
8
Image
10
61.629654
20
66.250791
11
62.106855
21
67.048861
0
LINE
8
Image
10
62.106855
20
67.048861
11
62.485649
21
67.380801
0
LINE
8
Image
10
62.485649
20
67.380801
11
62.703678
21
67.497383
0
LINE
8
Image
10
62.703678
20
67.497383
11
62.794362
21
67.777676
0
LINE
8
Image
10
62.794362
20
67.777676
11
62.708826
21
67.953456
0
LINE
8
Image
10
62.708826
20
67.953456
11
62.467580
21
68.032278
0
LINE
8
Image
10
62.467580
20
68.032278
11
61.610117
21
67.922959
0
LINE
8
Image
10
61.610117
20
67.922959
11
60.406296
21
67.497535
0
LINE
8
Image
10
60.406296
20
67.497535
11
59.040442
21
66.803825
0
LINE
8
Image
10
59.040442
20
66.803825
11
57.135205
21
65.336500
0
LINE
8
Image
10
57.135205
20
65.336500
11
55.554754
21
63.432494
0
LINE
8
Image
10
55.554754
20
63.432494
11
54.332849
21
61.223414
0
LINE
8
Image
10
54.332849
20
61.223414
11
53.503251
21
58.840864
0
LINE
8
Image
10
53.503251
20
58.840864
11
53.099721
21
56.416450
0
LINE
8
Image
10
53.099721
20
56.416450
11
53.156020
21
54.081776
0
LINE
8
Image
10
53.156020
20
54.081776
11
53.705908
21
51.968449
0
LINE
8
Image
10
53.705908
20
51.968449
11
54.176498
21
51.035917
0
LINE
8
Image
10
54.176498
20
51.035917
11
54.783146
21
50.208073
0
LINE
8
Image
10
54.783146
20
50.208073
11
55.440686
21
49.508003
0
LINE
8
Image
10
55.440686
20
49.508003
11
55.988885
21
49.155533
0
LINE
8
Image
10
55.988885
20
49.155533
11
56.669891
21
49.063003
0
LINE
8
Image
10
56.669891
20
49.063003
11
57.725851
21
49.142749
0
LINE
8
Image
10
57.725851
20
49.142749
11
59.481104
21
49.478340
0
LINE
8
Image
10
59.481104
20
49.478340
11
61.116578
21
50.018428
0
LINE
8
Image
10
61.116578
20
50.018428
11
61.116578
21
50.018428
0
LINE
8
Image
10
52.363159
20
51.064849
11
52.030052
21
52.728414
0
LINE
8
Image
10
52.030052
20
52.728414
11
51.918795
21
55.262712
0
LINE
8
Image
10
51.918795
20
55.262712
11
52.029455
21
57.961042
0
LINE
8
Image
10
52.029455
20
57.961042
11
52.362100
21
60.116704
0
LINE
8
Image
10
52.362100
20
60.116704
11
52.678700
21
61.389135
0
LINE
8
Image
10
52.678700
20
61.389135
11
52.749736
21
62.284085
0
LINE
8
Image
10
52.749736
20
62.284085
11
52.545588
21
63.205813
0
LINE
8
Image
10
52.545588
20
63.205813
11
52.036634
21
64.558582
0
LINE
8
Image
10
52.036634
20
64.558582
11
50.551875
21
68.892582
0
LINE
8
Image
10
50.551875
20
68.892582
11
49.507473
21
73.268467
0
LINE
8
Image
10
49.507473
20
73.268467
11
48.889808
21
77.758889
0
LINE
8
Image
10
48.889808
20
77.758889
11
48.685259
21
82.436505
0
LINE
8
Image
10
48.685259
20
82.436505
11
48.772970
21
85.618457
0
LINE
8
Image
10
48.772970
20
85.618457
11
49.042247
21
88.734812
0
LINE
8
Image
10
49.042247
20
88.734812
11
49.497214
21
91.802412
0
LINE
8
Image
10
49.497214
20
91.802412
11
50.141997
21
94.838095
0
LINE
8
Image
10
50.141997
20
94.838095
11
50.980721
21
97.858701
0
LINE
8
Image
10
50.980721
20
97.858701
11
52.017511
21
100.881071
0
LINE
8
Image
10
52.017511
20
100.881071
11
53.256492
21
103.922044
0
LINE
8
Image
10
53.256492
20
103.922044
11
54.701789
21
106.998460
0
LINE
8
Image
10
54.701789
20
106.998460
11
56.789348
21
110.806527
0
LINE
8
Image
10
56.789348
20
110.806527
11
59.119112
21
114.323337
0
LINE
8
Image
10
59.119112
20
114.323337
11
61.790380
21
117.685473
0
LINE
8
Image
10
61.790380
20
117.685473
11
64.902448
21
121.029521
0
LINE
8
Image
10
64.902448
20
121.029521
11
67.873695
21
123.841773
0
LINE
8
Image
10
67.873695
20
123.841773
11
70.689020
21
126.128869
0
LINE
8
Image
10
70.689020
20
126.128869
11
73.485062
21
127.991865
0
LINE
8
Image
10
73.485062
20
127.991865
11
76.398458
21
129.531816
0
LINE
8
Image
10
76.398458
20
129.531816
11
78.598100
21
130.561153
0
LINE
8
Image
10
78.598100
20
130.561153
11
79.692360
21
134.513295
0
LINE
8
Image
10
79.692360
20
134.513295
11
80.418514
21
137.606714
0
LINE
8
Image
10
80.418514
20
137.606714
11
80.756010
21
140.192625
0
LINE
8
Image
10
80.756010
20
140.192625
11
80.699486
21
142.183662
0
LINE
8
Image
10
80.699486
20
142.183662
11
80.521791
21
142.928800
0
LINE
8
Image
10
80.521791
20
142.928800
11
80.243579
21
143.492456
0
LINE
8
Image
10
80.243579
20
143.492456
11
79.460007
21
144.101524
0
LINE
8
Image
10
79.460007
20
144.101524
11
78.143339
21
144.702955
0
LINE
8
Image
10
78.143339
20
144.702955
11
76.651404
21
145.161679
0
LINE
8
Image
10
76.651404
20
145.161679
11
75.342033
21
145.342627
0
LINE
8
Image
10
75.342033
20
145.342627
11
73.869296
21
145.158150
0
LINE
8
Image
10
73.869296
20
145.158150
11
72.464976
21
144.596578
0
LINE
8
Image
10
72.464976
20
144.596578
11
71.109030
21
143.633461
0
LINE
8
Image
10
71.109030
20
143.633461
11
69.781415
21
142.244354
0
LINE
8
Image
10
69.781415
20
142.244354
11
68.462087
21
140.404807
0
LINE
8
Image
10
68.462087
20
140.404807
11
67.131003
21
138.090373
0
LINE
8
Image
10
67.131003
20
138.090373
11
65.768121
21
135.276604
0
LINE
8
Image
10
65.768121
20
135.276604
11
64.353396
21
131.939053
0
LINE
8
Image
10
64.353396
20
131.939053
11
62.246313
21
127.330735
0
LINE
8
Image
10
62.246313
20
127.330735
11
61.158405
21
125.462644
0
LINE
8
Image
10
61.158405
20
125.462644
11
60.019163
21
123.848997
0
LINE
8
Image
10
60.019163
20
123.848997
11
58.807271
21
122.462594
0
LINE
8
Image
10
58.807271
20
122.462594
11
57.501413
21
121.276237
0
LINE
8
Image
10
57.501413
20
121.276237
11
56.080271
21
120.262724
0
LINE
8
Image
10
56.080271
20
120.262724
11
54.522529
21
119.394856
0
LINE
8
Image
10
54.522529
20
119.394856
11
52.162130
21
118.439251
0
LINE
8
Image
10
52.162130
20
118.439251
11
49.798723
21
117.887363
0
LINE
8
Image
10
49.798723
20
117.887363
11
47.449759
21
117.735823
0
LINE
8
Image
10
47.449759
20
117.735823
11
45.132689
21
117.981267
0
LINE
8
Image
10
45.132689
20
117.981267
11
42.864963
21
118.620327
0
LINE
8
Image
10
42.864963
20
118.620327
11
40.664034
21
119.649636
0
LINE
8
Image
10
40.664034
20
119.649636
11
38.547351
21
121.065828
0
LINE
8
Image
10
38.547351
20
121.065828
11
36.532367
21
122.865537
0
LINE
8
Image
10
36.532367
20
122.865537
11
35.209206
21
124.269802
0
LINE
8
Image
10
35.209206
20
124.269802
11
34.326348
21
125.401393
0
LINE
8
Image
10
34.326348
20
125.401393
11
33.711086
21
126.519679
0
LINE
8
Image
10
33.711086
20
126.519679
11
33.190712
21
127.884030
0
LINE
8
Image
10
33.190712
20
127.884030
11
32.544223
21
130.430070
0
LINE
8
Image
10
32.544223
20
130.430070
11
32.200362
21
133.074977
0
LINE
8
Image
10
32.200362
20
133.074977
11
32.194431
21
135.324793
0
LINE
8
Image
10
32.194431
20
135.324793
11
32.329219
21
136.147181
0
LINE
8
Image
10
32.329219
20
136.147181
11
32.561727
21
136.685561
0
LINE
8
Image
10
32.561727
20
136.685561
11
32.861353
21
136.994336
0
LINE
8
Image
10
32.861353
20
136.994336
11
33.092395
21
136.863305
0
LINE
8
Image
10
33.092395
20
136.863305
11
33.676513
21
134.697159
0
LINE
8
Image
10
33.676513
20
134.697159
11
34.272306
21
132.019188
0
LINE
8
Image
10
34.272306
20
132.019188
11
37.514448
21
135.242311
0
LINE
8
Image
10
37.514448
20
135.242311
11
40.639553
21
138.055441
0
LINE
8
Image
10
40.639553
20
138.055441
11
43.524417
21
140.027001
0
LINE
8
Image
10
43.524417
20
140.027001
11
46.071123
21
141.275537
0
LINE
8
Image
10
46.071123
20
141.275537
11
49.112988
21
142.493173
0
LINE
8
Image
10
49.112988
20
142.493173
11
52.149561
21
143.497011
0
LINE
8
Image
10
52.149561
20
143.497011
11
54.680395
21
144.104154
0
LINE
8
Image
10
54.680395
20
144.104154
11
56.188946
21
144.409614
0
LINE
8
Image
10
56.188946
20
144.409614
11
56.821324
21
144.739247
0
LINE
8
Image
10
56.821324
20
144.739247
11
56.825034
21
144.941418
0
LINE
8
Image
10
56.825034
20
144.941418
11
56.629004
21
145.183581
0
LINE
8
Image
10
56.629004
20
145.183581
11
55.663458
21
145.833148
0
LINE
8
Image
10
55.663458
20
145.833148
11
54.043390
21
146.660606
0
LINE
8
Image
10
54.043390
20
146.660606
11
52.380949
21
147.341623
0
LINE
8
Image
10
52.380949
20
147.341623
11
51.054220
21
147.902793
0
LINE
8
Image
10
51.054220
20
147.902793
11
51.032460
21
148.120519
0
LINE
8
Image
10
51.032460
20
148.120519
11
51.340683
21
148.395359
0
LINE
8
Image
10
51.340683
20
148.395359
11
51.992297
21
148.732247
0
LINE
8
Image
10
51.992297
20
148.732247
11
52.642884
21
148.872368
0
LINE
8
Image
10
52.642884
20
148.872368
11
53.816851
21
148.570954
0
LINE
8
Image
10
53.816851
20
148.570954
11
55.407734
21
147.732469
0
LINE
8
Image
10
55.407734
20
147.732469
11
57.255207
21
146.455554
0
LINE
8
Image
10
57.255207
20
146.455554
11
59.198943
21
144.838848
0
LINE
8
Image
10
59.198943
20
144.838848
11
61.179684
21
143.220731
0
LINE
8
Image
10
61.179684
20
143.220731
11
61.839224
21
142.822393
0
LINE
8
Image
10
61.839224
20
142.822393
11
62.197550
21
142.753952
0
LINE
8
Image
10
62.197550
20
142.753952
11
64.028993
21
144.108877
0
LINE
8
Image
10
64.028993
20
144.108877
11
65.895201
21
145.477188
0
LINE
8
Image
10
65.895201
20
145.477188
11
67.808993
21
146.689030
0
LINE
8
Image
10
67.808993
20
146.689030
11
69.777509
21
147.747286
0
LINE
8
Image
10
69.777509
20
147.747286
11
71.807891
21
148.654838
0
LINE
8
Image
10
71.807891
20
148.654838
11
73.907276
21
149.414568
0
LINE
8
Image
10
73.907276
20
149.414568
11
76.082807
21
150.029359
0
LINE
8
Image
10
76.082807
20
150.029359
11
78.341621
21
150.502095
0
LINE
8
Image
10
78.341621
20
150.502095
11
80.690859
21
150.835656
0
LINE
8
Image
10
80.690859
20
150.835656
11
82.186062
21
151.099686
0
LINE
8
Image
10
82.186062
20
151.099686
11
82.596446
21
151.251946
0
LINE
8
Image
10
82.596446
20
151.251946
11
82.694364
21
151.393307
0
LINE
8
Image
10
82.694364
20
151.393307
11
81.845265
21
152.045261
0
LINE
8
Image
10
81.845265
20
152.045261
11
80.213341
21
152.815720
0
LINE
8
Image
10
80.213341
20
152.815720
11
78.165784
21
153.554111
0
LINE
8
Image
10
78.165784
20
153.554111
11
76.069785
21
154.109859
0
LINE
8
Image
10
76.069785
20
154.109859
11
73.774249
21
154.716508
0
LINE
8
Image
10
73.774249
20
154.716508
11
73.276230
21
155.013876
0
LINE
8
Image
10
73.276230
20
155.013876
11
73.082182
21
155.361393
0
LINE
8
Image
10
73.082182
20
155.361393
11
73.130622
21
155.911642
0
LINE
8
Image
10
73.130622
20
155.911642
11
73.425127
21
156.310069
0
LINE
8
Image
10
73.425127
20
156.310069
11
73.525092
21
156.443092
0
LINE
8
Image
10
73.525092
20
156.443092
11
73.460930
21
156.606668
0
LINE
8
Image
10
73.460930
20
156.606668
11
72.907316
21
157.003992
0
LINE
8
Image
10
72.907316
20
157.003992
11
70.568607
21
157.928932
0
LINE
8
Image
10
70.568607
20
157.928932
11
67.482540
21
158.741119
0
LINE
8
Image
10
67.482540
20
158.741119
11
64.722651
21
159.096785
0
LINE
8
Image
10
64.722651
20
159.096785
11
63.410268
21
159.455331
0
LINE
8
Image
10
63.410268
20
159.455331
11
61.724044
21
160.357949
0
LINE
8
Image
10
61.724044
20
160.357949
11
57.570838
21
162.809602
0
LINE
8
Image
10
57.570838
20
162.809602
11
53.623853
21
164.617467
0
LINE
8
Image
10
53.623853
20
164.617467
11
49.844192
21
165.796584
0
LINE
8
Image
10
49.844192
20
165.796584
11
46.192953
21
166.361989
0
LINE
8
Image
10
46.192953
20
166.361989
11
43.636442
21
166.399903
0
LINE
8
Image
10
43.636442
20
166.399903
11
41.098631
21
166.109388
0
LINE
8
Image
10
41.098631
20
166.109388
11
38.410278
21
165.460009
0
LINE
8
Image
10
38.410278
20
165.460009
11
35.402139
21
164.421328
0
LINE
8
Image
10
35.402139
20
164.421328
11
33.253783
21
163.399730
0
LINE
8
Image
10
33.253783
20
163.399730
11
30.836010
21
161.931256
0
LINE
8
Image
10
30.836010
20
161.931256
11
28.292681
21
160.136237
0
LINE
8
Image
10
28.292681
20
160.136237
11
25.767655
21
158.135000
0
LINE
8
Image
10
25.767655
20
158.135000
11
23.404792
21
156.047874
0
LINE
8
Image
10
23.404792
20
156.047874
11
21.347953
21
153.995187
0
LINE
8
Image
10
21.347953
20
153.995187
11
19.740998
21
152.097269
0
LINE
8
Image
10
19.740998
20
152.097269
11
18.727786
21
150.474446
0
LINE
8
Image
10
18.727786
20
150.474446
11
18.125456
21
148.548136
0
LINE
8
Image
10
18.125456
20
148.548136
11
18.008809
21
146.542631
0
LINE
8
Image
10
18.008809
20
146.542631
11
18.368157
21
144.614920
0
LINE
8
Image
10
18.368157
20
144.614920
11
19.193812
21
142.921994
0
LINE
8
Image
10
19.193812
20
142.921994
11
19.750985
21
141.910245
0
LINE
8
Image
10
19.750985
20
141.910245
11
19.965604
21
141.068199
0
LINE
8
Image
10
19.965604
20
141.068199
11
19.829163
21
140.544472
0
LINE
8
Image
10
19.829163
20
140.544472
11
19.626636
21
140.448419
0
LINE
8
Image
10
19.626636
20
140.448419
11
19.333154
21
140.487677
0
LINE
8
Image
10
19.333154
20
140.487677
11
18.117437
21
141.845979
0
LINE
8
Image
10
18.117437
20
141.845979
11
16.374321
21
144.488204
0
LINE
8
Image
10
16.374321
20
144.488204
11
16.140484
21
144.786155
0
LINE
8
Image
10
16.140484
20
144.786155
11
15.894535
21
144.760313
0
LINE
8
Image
10
15.894535
20
144.760313
11
15.016830
21
143.476896
0
LINE
8
Image
10
15.016830
20
143.476896
11
14.060631
21
141.660488
0
LINE
8
Image
10
14.060631
20
141.660488
11
13.355619
21
139.919476
0
LINE
8
Image
10
13.355619
20
139.919476
11
12.903123
21
138.280630
0
LINE
8
Image
10
12.903123
20
138.280630
11
12.704472
21
136.770719
0
LINE
8
Image
10
12.704472
20
136.770719
11
12.760993
21
135.416512
0
LINE
8
Image
10
12.760993
20
135.416512
11
13.074016
21
134.244779
0
LINE
8
Image
10
13.074016
20
134.244779
11
13.644868
21
133.282288
0
LINE
8
Image
10
13.644868
20
133.282288
11
14.474877
21
132.555810
0
LINE
8
Image
10
14.474877
20
132.555810
11
14.953135
21
132.025019
0
LINE
8
Image
10
14.953135
20
132.025019
11
15.156019
21
131.351711
0
LINE
8
Image
10
15.156019
20
131.351711
11
15.062723
21
130.773486
0
LINE
8
Image
10
15.062723
20
130.773486
11
14.652444
21
130.527945
0
LINE
8
Image
10
14.652444
20
130.527945
11
13.917605
21
130.852621
0
LINE
8
Image
10
13.917605
20
130.852621
11
12.876709
21
131.633225
0
LINE
8
Image
10
12.876709
20
131.633225
11
11.943133
21
132.369312
0
LINE
8
Image
10
11.943133
20
132.369312
11
11.466318
21
132.586959
0
LINE
8
Image
10
11.466318
20
132.586959
11
11.489819
21
131.875925
0
LINE
8
Image
10
11.489819
20
131.875925
11
11.897418
21
130.310308
0
LINE
8
Image
10
11.897418
20
130.310308
11
13.545177
21
125.677927
0
LINE
8
Image
10
13.545177
20
125.677927
11
15.137964
21
122.090775
0
LINE
8
Image
10
15.137964
20
122.090775
11
16.945753
21
118.725991
0
LINE
8
Image
10
16.945753
20
118.725991
11
18.943439
21
115.613642
0
LINE
8
Image
10
18.943439
20
115.613642
11
21.105918
21
112.783795
0
LINE
8
Image
10
21.105918
20
112.783795
11
23.408086
21
110.266517
0
LINE
8
Image
10
23.408086
20
110.266517
11
25.824838
21
108.091873
0
LINE
8
Image
10
25.824838
20
108.091873
11
28.331070
21
106.289931
0
LINE
8
Image
10
28.331070
20
106.289931
11
30.901678
21
104.890757
0
LINE
8
Image
10
30.901678
20
104.890757
11
32.333041
21
104.312678
0
LINE
8
Image
10
32.333041
20
104.312678
11
33.033706
21
104.177558
0
LINE
8
Image
10
33.033706
20
104.177558
11
32.116354
21
105.877692
0
LINE
8
Image
10
32.116354
20
105.877692
11
29.657590
21
109.712033
0
LINE
8
Image
10
29.657590
20
109.712033
11
27.198476
21
113.578550
0
LINE
8
Image
10
27.198476
20
113.578550
11
26.280286
21
115.356036
0
LINE
8
Image
10
26.280286
20
115.356036
11
26.820317
21
115.340155
0
LINE
8
Image
10
26.820317
20
115.340155
11
28.597574
21
114.711203
0
LINE
8
Image
10
28.597574
20
114.711203
11
38.359992
21
110.639410
0
LINE
8
Image
10
38.359992
20
110.639410
11
43.366249
21
108.655749
0
LINE
8
Image
10
43.366249
20
108.655749
11
43.678087
21
108.535613
0
LINE
8
Image
10
43.678087
20
108.535613
11
43.955420
21
108.246773
0
LINE
8
Image
10
43.955420
20
108.246773
11
43.951715
21
108.066727
0
LINE
8
Image
10
43.951715
20
108.066727
11
43.632061
21
107.977457
0
LINE
8
Image
10
43.632061
20
107.977457
11
41.875197
21
108.055651
0
LINE
8
Image
10
41.875197
20
108.055651
11
39.889804
21
108.428191
0
LINE
8
Image
10
39.889804
20
108.428191
11
37.431905
21
109.190806
0
LINE
8
Image
10
37.431905
20
109.190806
11
34.663657
21
110.285856
0
LINE
8
Image
10
34.663657
20
110.285856
11
31.747216
21
111.655703
0
LINE
8
Image
10
31.747216
20
111.655703
11
30.505593
21
112.196822
0
LINE
8
Image
10
30.505593
20
112.196822
11
29.872963
21
112.305688
0
LINE
8
Image
10
29.872963
20
112.305688
11
29.979009
21
111.778222
0
LINE
8
Image
10
29.979009
20
111.778222
11
30.684965
21
110.566469
0
LINE
8
Image
10
30.684965
20
110.566469
11
33.937101
21
106.027549
0
LINE
8
Image
10
33.937101
20
106.027549
11
35.566317
21
103.749294
0
LINE
8
Image
10
35.566317
20
103.749294
11
36.147795
21
102.705540
0
LINE
8
Image
10
36.147795
20
102.705540
11
33.601930
21
102.622590
0
LINE
8
Image
10
33.601930
20
102.622590
11
31.220794
21
102.704278
0
LINE
8
Image
10
31.220794
20
102.704278
11
32.949370
21
100.939903
0
LINE
8
Image
10
32.949370
20
100.939903
11
34.677947
21
99.175529
0
LINE
8
Image
10
34.677947
20
99.175529
11
35.894274
21
100.103268
0
LINE
8
Image
10
35.894274
20
100.103268
11
37.306346
21
100.860906
0
LINE
8
Image
10
37.306346
20
100.860906
11
39.219030
21
101.183515
0
LINE
8
Image
10
39.219030
20
101.183515
11
40.864361
21
101.190371
0
LINE
8
Image
10
40.864361
20
101.190371
11
41.703437
21
100.974498
0
LINE
8
Image
10
41.703437
20
100.974498
11
41.786508
21
100.808652
0
LINE
8
Image
10
41.786508
20
100.808652
11
41.627070
21
100.617858
0
LINE
8
Image
10
41.627070
20
100.617858
11
40.526072
21
100.202410
0
LINE
8
Image
10
40.526072
20
100.202410
11
38.536617
21
99.646699
0
LINE
8
Image
10
38.536617
20
99.646699
11
37.243401
21
99.122442
0
LINE
8
Image
10
37.243401
20
99.122442
11
36.433913
21
98.515291
0
LINE
8
Image
10
36.433913
20
98.515291
11
35.895640
21
97.710900
0
LINE
8
Image
10
35.895640
20
97.710900
11
35.517999
21
96.656907
0
LINE
8
Image
10
35.517999
20
96.656907
11
35.340041
21
95.448681
0
LINE
8
Image
10
35.340041
20
95.448681
11
35.349744
21
94.145850
0
LINE
8
Image
10
35.349744
20
94.145850
11
35.535092
21
92.808046
0
LINE
8
Image
10
35.535092
20
92.808046
11
35.884064
21
91.494898
0
LINE
8
Image
10
35.884064
20
91.494898
11
36.384641
21
90.266037
0
LINE
8
Image
10
36.384641
20
90.266037
11
37.024806
21
89.181093
0
LINE
8
Image
10
37.024806
20
89.181093
11
37.792538
21
88.299696
0
LINE
8
Image
10
37.792538
20
88.299696
11
38.762181
21
87.590816
0
LINE
8
Image
10
38.762181
20
87.590816
11
39.941691
21
86.994693
0
LINE
8
Image
10
39.941691
20
86.994693
11
41.158505
21
86.583842
0
LINE
8
Image
10
41.158505
20
86.583842
11
42.240057
21
86.430777
0
LINE
8
Image
10
42.240057
20
86.430777
11
43.388076
21
86.687939
0
LINE
8
Image
10
43.388076
20
86.687939
11
44.566496
21
87.378579
0
LINE
8
Image
10
44.566496
20
87.378579
11
45.615792
21
88.381427
0
LINE
8
Image
10
45.615792
20
88.381427
11
46.376439
21
89.575214
0
LINE
8
Image
10
46.376439
20
89.575214
11
46.886887
21
90.549448
0
LINE
8
Image
10
46.886887
20
90.549448
11
47.196675
21
90.857182
0
LINE
8
Image
10
47.196675
20
90.857182
11
47.488690
21
89.214492
0
LINE
8
Image
10
47.488690
20
89.214492
11
47.511850
21
88.401738
0
LINE
8
Image
10
47.511850
20
88.401738
11
47.381139
21
87.767272
0
LINE
8
Image
10
47.381139
20
87.767272
11
47.038576
21
87.158826
0
LINE
8
Image
10
47.038576
20
87.158826
11
46.426181
21
86.424128
0
LINE
8
Image
10
46.426181
20
86.424128
11
45.238550
21
85.109564
0
LINE
8
Image
10
45.238550
20
85.109564
11
44.932440
21
74.569490
0
LINE
8
Image
10
44.932440
20
74.569490
11
44.626331
21
58.596683
0
LINE
8
Image
10
44.626331
20
58.596683
11
44.626331
21
53.163950
0
LINE
8
Image
10
44.626331
20
53.163950
11
48.154103
21
51.822776
0
LINE
8
Image
10
48.154103
20
51.822776
11
51.928717
21
50.533989
0
LINE
8
Image
10
51.928717
20
50.533989
11
52.442894
21
50.593674
0
LINE
8
Image
10
52.442894
20
50.593674
11
52.363159
21
51.064849
0
LINE
8
Image
10
52.363159
20
51.064849
11
52.363159
21
51.064849
0
LINE
8
Image
10
39.315248
20
92.963707
11
38.893240
21
94.393546
0
LINE
8
Image
10
38.893240
20
94.393546
11
37.999728
21
95.400223
0
LINE
8
Image
10
37.999728
20
95.400223
11
36.923248
21
96.242695
0
LINE
8
Image
10
36.923248
20
96.242695
11
38.305348
21
96.626430
0
LINE
8
Image
10
38.305348
20
96.626430
11
40.637914
21
97.012129
0
LINE
8
Image
10
40.637914
20
97.012129
11
41.516067
21
96.803482
0
LINE
8
Image
10
41.516067
20
96.803482
11
42.393001
21
96.251676
0
LINE
8
Image
10
42.393001
20
96.251676
11
43.127540
21
95.473267
0
LINE
8
Image
10
43.127540
20
95.473267
11
43.578508
21
94.584813
0
LINE
8
Image
10
43.578508
20
94.584813
11
43.640514
21
93.914109
0
LINE
8
Image
10
43.640514
20
93.914109
11
42.934238
21
93.965948
0
LINE
8
Image
10
42.934238
20
93.965948
11
41.484109
21
94.404507
0
LINE
8
Image
10
41.484109
20
94.404507
11
41.203783
21
94.452743
0
LINE
8
Image
10
41.203783
20
94.452743
11
41.032008
21
94.302174
0
LINE
8
Image
10
41.032008
20
94.302174
11
40.922169
21
93.209034
0
LINE
8
Image
10
40.922169
20
93.209034
11
40.846327
21
92.396396
0
LINE
8
Image
10
40.846327
20
92.396396
11
40.616427
21
91.822471
0
LINE
8
Image
10
40.616427
20
91.822471
11
40.228909
21
91.481984
0
LINE
8
Image
10
40.228909
20
91.481984
11
39.680211
21
91.369661
0
LINE
8
Image
10
39.680211
20
91.369661
11
39.315248
21
92.963707
0
LINE
8
Image
10
39.315248
20
92.963707
11
39.315248
21
92.963707
0
LINE
8
Image
10
79.735151
20
53.833776
11
81.599662
21
54.567497
0
LINE
8
Image
10
81.599662
20
54.567497
11
83.415149
21
55.539455
0
LINE
8
Image
10
83.415149
20
55.539455
11
84.966587
21
56.747673
0
LINE
8
Image
10
84.966587
20
56.747673
11
86.820414
21
58.480565
0
LINE
8
Image
10
86.820414
20
58.480565
11
88.568831
21
60.332323
0
LINE
8
Image
10
88.568831
20
60.332323
11
89.804040
21
61.897141
0
LINE
8
Image
10
89.804040
20
61.897141
11
90.565342
21
62.572985
0
LINE
8
Image
10
90.565342
20
62.572985
11
91.669889
21
63.090149
0
LINE
8
Image
10
91.669889
20
63.090149
11
93.109513
21
63.769225
0
LINE
8
Image
10
93.109513
20
63.769225
11
94.369512
21
64.798493
0
LINE
8
Image
10
94.369512
20
64.798493
11
95.261778
21
65.984352
0
LINE
8
Image
10
95.261778
20
65.984352
11
95.511226
21
66.575503
0
LINE
8
Image
10
95.511226
20
66.575503
11
95.598201
21
67.133199
0
LINE
8
Image
10
95.598201
20
67.133199
11
95.518479
21
67.765028
0
LINE
8
Image
10
95.518479
20
67.765028
11
95.233988
21
68.358694
0
LINE
8
Image
10
95.233988
20
68.358694
11
93.746120
21
69.883876
0
LINE
8
Image
10
93.746120
20
69.883876
11
92.265720
21
71.410251
0
LINE
8
Image
10
92.265720
20
71.410251
11
91.162302
21
73.069305
0
LINE
8
Image
10
91.162302
20
73.069305
11
90.434753
21
74.874818
0
LINE
8
Image
10
90.434753
20
74.874818
11
90.081959
21
76.840574
0
LINE
8
Image
10
90.081959
20
76.840574
11
90.102804
21
78.980353
0
LINE
8
Image
10
90.102804
20
78.980353
11
90.496174
21
81.307939
0
LINE
8
Image
10
90.496174
20
81.307939
11
91.260956
21
83.837112
0
LINE
8
Image
10
91.260956
20
83.837112
11
92.396035
21
86.581656
0
LINE
8
Image
10
92.396035
20
86.581656
11
93.801868
21
89.624577
0
LINE
8
Image
10
93.801868
20
89.624577
11
92.233049
21
88.055756
0
LINE
8
Image
10
92.233049
20
88.055756
11
90.821279
21
86.881055
0
LINE
8
Image
10
90.821279
20
86.881055
11
89.630044
21
86.259793
0
LINE
8
Image
10
89.630044
20
86.259793
11
88.800030
21
85.976497
0
LINE
8
Image
10
88.800030
20
85.976497
11
88.256721
21
85.614351
0
LINE
8
Image
10
88.256721
20
85.614351
11
87.593025
21
83.953734
0
LINE
8
Image
10
87.593025
20
83.953734
11
86.879888
21
81.013829
0
LINE
8
Image
10
86.879888
20
81.013829
11
86.310404
21
77.731389
0
LINE
8
Image
10
86.310404
20
77.731389
11
86.077666
21
75.043167
0
LINE
8
Image
10
86.077666
20
75.043167
11
86.229883
21
72.718831
0
LINE
8
Image
10
86.229883
20
72.718831
11
86.735522
21
71.097417
0
LINE
8
Image
10
86.735522
20
71.097417
11
87.143836
21
70.507570
0
LINE
8
Image
10
87.143836
20
70.507570
11
87.668059
21
70.042171
0
LINE
8
Image
10
87.668059
20
70.042171
11
89.100974
21
69.416336
0
LINE
8
Image
10
89.100974
20
69.416336
11
90.108900
21
69.050134
0
LINE
8
Image
10
90.108900
20
69.050134
11
90.717067
21
68.607209
0
LINE
8
Image
10
90.717067
20
68.607209
11
90.909662
21
68.106202
0
LINE
8
Image
10
90.909662
20
68.106202
11
90.670874
21
67.565750
0
LINE
8
Image
10
90.670874
20
67.565750
11
89.485341
21
67.192424
0
LINE
8
Image
10
89.485341
20
67.192424
11
87.048820
21
66.906539
0
LINE
8
Image
10
87.048820
20
66.906539
11
82.334756
21
66.294808
0
LINE
8
Image
10
82.334756
20
66.294808
11
80.202898
21
65.800515
0
LINE
8
Image
10
80.202898
20
65.800515
11
78.244754
21
65.189051
0
LINE
8
Image
10
78.244754
20
65.189051
11
76.478020
21
64.466755
0
LINE
8
Image
10
76.478020
20
64.466755
11
74.920396
21
63.639963
0
LINE
8
Image
10
74.920396
20
63.639963
11
73.589578
21
62.715012
0
LINE
8
Image
10
73.589578
20
62.715012
11
72.503264
21
61.698238
0
LINE
8
Image
10
72.503264
20
61.698238
11
71.580696
21
60.487998
0
LINE
8
Image
10
71.580696
20
60.487998
11
70.597657
21
58.936186
0
LINE
8
Image
10
70.597657
20
58.936186
11
69.815888
21
57.487773
0
LINE
8
Image
10
69.815888
20
57.487773
11
69.497133
21
56.587731
0
LINE
8
Image
10
69.497133
20
56.587731
11
69.961824
21
56.458384
0
LINE
8
Image
10
69.961824
20
56.458384
11
71.087769
21
56.624152
0
LINE
8
Image
10
71.087769
20
56.624152
11
72.472775
21
56.998519
0
LINE
8
Image
10
72.472775
20
56.998519
11
73.714647
21
57.494967
0
LINE
8
Image
10
73.714647
20
57.494967
11
74.975912
21
58.368088
0
LINE
8
Image
10
74.975912
20
58.368088
11
76.139886
21
59.514093
0
LINE
8
Image
10
76.139886
20
59.514093
11
77.234574
21
60.854420
0
LINE
8
Image
10
77.234574
20
60.854420
11
77.246401
21
59.421118
0
LINE
8
Image
10
77.246401
20
59.421118
11
77.082574
21
58.353543
0
LINE
8
Image
10
77.082574
20
58.353543
11
76.573451
21
57.388046
0
LINE
8
Image
10
76.573451
20
57.388046
11
75.720255
21
56.526266
0
LINE
8
Image
10
75.720255
20
56.526266
11
74.524207
21
55.769841
0
LINE
8
Image
10
74.524207
20
55.769841
11
73.923198
21
55.364900
0
LINE
8
Image
10
73.923198
20
55.364900
11
73.800045
21
54.971672
0
LINE
8
Image
10
73.800045
20
54.971672
11
74.171264
21
54.534888
0
LINE
8
Image
10
74.171264
20
54.534888
11
75.053373
21
53.999281
0
LINE
8
Image
10
75.053373
20
53.999281
11
76.132310
21
53.510160
0
LINE
8
Image
10
76.132310
20
53.510160
11
77.099929
21
53.325628
0
LINE
8
Image
10
77.099929
20
53.325628
11
78.214714
21
53.436546
0
LINE
8
Image
10
78.214714
20
53.436546
11
79.735148
21
53.833776
0
LINE
8
Image
10
79.735148
20
53.833776
11
79.735151
21
53.833776
0
LINE
8
Image
10
54.327708
20
64.479961
11
55.420055
21
65.950087
0
LINE
8
Image
10
55.420055
20
65.950087
11
56.512405
21
67.146055
0
LINE
8
Image
10
56.512405
20
67.146055
11
55.509021
21
71.584951
0
LINE
8
Image
10
55.509021
20
71.584951
11
54.988147
21
74.076615
0
LINE
8
Image
10
54.988147
20
74.076615
11
54.684611
21
76.175003
0
LINE
8
Image
10
54.684611
20
76.175003
11
54.511953
21
81.315507
0
LINE
8
Image
10
54.511953
20
81.315507
11
54.665106
21
86.132667
0
LINE
8
Image
10
54.665106
20
86.132667
11
54.907105
21
87.755914
0
LINE
8
Image
10
54.907105
20
87.755914
11
55.309594
21
89.362116
0
LINE
8
Image
10
55.309594
20
89.362116
11
56.166510
21
91.895020
0
LINE
8
Image
10
56.166510
20
91.895020
11
57.227609
21
94.230576
0
LINE
8
Image
10
57.227609
20
94.230576
11
58.497692
21
96.374413
0
LINE
8
Image
10
58.497692
20
96.374413
11
59.981557
21
98.332155
0
LINE
8
Image
10
59.981557
20
98.332155
11
61.684005
21
100.109428
0
LINE
8
Image
10
61.684005
20
100.109428
11
63.609834
21
101.711858
0
LINE
8
Image
10
63.609834
20
101.711858
11
65.763844
21
103.145071
0
LINE
8
Image
10
65.763844
20
103.145071
11
68.150834
21
104.414693
0
LINE
8
Image
10
68.150834
20
104.414693
11
72.149480
21
106.015359
0
LINE
8
Image
10
72.149480
20
106.015359
11
76.430608
21
107.108679
0
LINE
8
Image
10
76.430608
20
107.108679
11
81.229946
21
107.739410
0
LINE
8
Image
10
81.229946
20
107.739410
11
86.783221
21
107.952308
0
LINE
8
Image
10
86.783221
20
107.952308
11
94.159863
21
108.211854
0
LINE
8
Image
10
94.159863
20
108.211854
11
97.210612
21
108.525537
0
LINE
8
Image
10
97.210612
20
108.525537
11
99.874223
21
108.969644
0
LINE
8
Image
10
99.874223
20
108.969644
11
102.179125
21
109.550037
0
LINE
8
Image
10
102.179125
20
109.550037
11
104.153751
21
110.272579
0
LINE
8
Image
10
104.153751
20
110.272579
11
105.826532
21
111.143133
0
LINE
8
Image
10
105.826532
20
111.143133
11
107.225899
21
112.167560
0
LINE
8
Image
10
107.225899
20
112.167560
11
107.975697
21
112.664310
0
LINE
8
Image
10
107.975697
20
112.664310
11
108.663384
21
112.864635
0
LINE
8
Image
10
108.663384
20
112.864635
11
109.166096
21
112.758785
0
LINE
8
Image
10
109.166096
20
112.758785
11
109.360970
21
112.337009
0
LINE
8
Image
10
109.360970
20
112.337009
11
108.845759
21
111.445279
0
LINE
8
Image
10
108.845759
20
111.445279
11
107.607062
21
110.076579
0
LINE
8
Image
10
107.607062
20
110.076579
11
106.119710
21
108.316426
0
LINE
8
Image
10
106.119710
20
108.316426
11
105.006817
21
106.483515
0
LINE
8
Image
10
105.006817
20
106.483515
11
104.084818
21
104.848076
0
LINE
8
Image
10
104.084818
20
104.848076
11
103.056563
21
103.562672
0
LINE
8
Image
10
103.056563
20
103.562672
11
102.214997
21
102.516052
0
LINE
8
Image
10
102.214997
20
102.516052
11
101.959840
21
101.446008
0
LINE
8
Image
10
101.959840
20
101.446008
11
102.051201
21
100.931095
0
LINE
8
Image
10
102.051201
20
100.931095
11
102.530034
21
101.094717
0
LINE
8
Image
10
102.530034
20
101.094717
11
105.940533
21
104.422421
0
LINE
8
Image
10
105.940533
20
104.422421
11
109.789080
21
108.499797
0
LINE
8
Image
10
109.789080
20
108.499797
11
112.255867
21
111.538987
0
LINE
8
Image
10
112.255867
20
111.538987
11
113.061266
21
112.797212
0
LINE
8
Image
10
113.061266
20
112.797212
11
113.629424
21
113.949429
0
LINE
8
Image
10
113.629424
20
113.949429
11
113.996408
21
115.046819
0
LINE
8
Image
10
113.996408
20
115.046819
11
114.198283
21
116.140562
0
LINE
8
Image
10
114.198283
20
116.140562
11
114.284774
21
117.152290
0
LINE
8
Image
10
114.284774
20
117.152290
11
114.153318
21
117.842728
0
LINE
8
Image
10
114.153318
20
117.842728
11
113.669220
21
118.508681
0
LINE
8
Image
10
113.669220
20
118.508681
11
112.697785
21
119.446955
0
LINE
8
Image
10
112.697785
20
119.446955
11
111.123998
21
120.768946
0
LINE
8
Image
10
111.123998
20
120.768946
11
109.076370
21
122.277608
0
LINE
8
Image
10
109.076370
20
122.277608
11
104.170304
21
125.481710
0
LINE
8
Image
10
104.170304
20
125.481710
11
99.201017
21
128.312800
0
LINE
8
Image
10
99.201017
20
128.312800
11
97.074363
21
129.355196
0
LINE
8
Image
10
97.074363
20
129.355196
11
95.389940
21
130.024417
0
LINE
8
Image
10
95.389940
20
130.024417
11
92.975507
21
130.472384
0
LINE
8
Image
10
92.975507
20
130.472384
11
89.596532
21
130.773870
0
LINE
8
Image
10
89.596532
20
130.773870
11
85.730691
21
130.796517
0
LINE
8
Image
10
85.730691
20
130.796517
11
84.231124
21
130.596288
0
LINE
8
Image
10
84.231124
20
130.596288
11
82.553550
21
130.218187
0
LINE
8
Image
10
82.553550
20
130.218187
11
80.394131
21
129.592514
0
LINE
8
Image
10
80.394131
20
129.592514
11
78.323334
21
128.824959
0
LINE
8
Image
10
78.323334
20
128.824959
11
76.319593
21
127.902433
0
LINE
8
Image
10
76.319593
20
127.902433
11
74.361340
21
126.811848
0
LINE
8
Image
10
74.361340
20
126.811848
11
72.427008
21
125.540116
0
LINE
8
Image
10
72.427008
20
125.540116
11
70.495030
21
124.074147
0
LINE
8
Image
10
70.495030
20
124.074147
11
66.551869
21
120.507147
0
LINE
8
Image
10
66.551869
20
120.507147
11
63.728704
21
117.479884
0
LINE
8
Image
10
63.728704
20
117.479884
11
61.152020
21
114.262299
0
LINE
8
Image
10
61.152020
20
114.262299
11
58.829044
21
110.868006
0
LINE
8
Image
10
58.829044
20
110.868006
11
56.767002
21
107.310620
0
LINE
8
Image
10
56.767002
20
107.310620
11
54.973122
21
103.603755
0
LINE
8
Image
10
54.973122
20
103.603755
11
53.454629
21
99.761027
0
LINE
8
Image
10
53.454629
20
99.761027
11
52.218751
21
95.796049
0
LINE
8
Image
10
52.218751
20
95.796049
11
51.272714
21
91.722437
0
LINE
8
Image
10
51.272714
20
91.722437
11
50.766925
21
87.392293
0
LINE
8
Image
10
50.766925
20
87.392293
11
50.594774
21
82.058601
0
LINE
8
Image
10
50.594774
20
82.058601
11
50.757240
21
76.794333
0
LINE
8
Image
10
50.757240
20
76.794333
11
51.255305
21
72.672461
0
LINE
8
Image
10
51.255305
20
72.672461
11
51.931879
21
69.927127
0
LINE
8
Image
10
51.931879
20
69.927127
11
52.765383
21
67.174761
0
LINE
8
Image
10
52.765383
20
67.174761
11
53.544287
21
65.054581
0
LINE
8
Image
10
53.544287
20
65.054581
11
54.057064
21
64.205805
0
LINE
8
Image
10
54.057064
20
64.205805
11
54.248201
21
64.286338
0
LINE
8
Image
10
54.248201
20
64.286338
11
54.327701
21
64.479961
0
LINE
8
Image
10
54.327701
20
64.479961
11
54.327708
21
64.479961
0
LINE
8
Image
10
57.108822
20
82.772809
11
58.087751
21
84.046429
0
LINE
8
Image
10
58.087751
20
84.046429
11
59.287830
21
86.300584
0
LINE
8
Image
10
59.287830
20
86.300584
11
60.064351
21
87.931983
0
LINE
8
Image
10
60.064351
20
87.931983
11
60.606239
21
88.816866
0
LINE
8
Image
10
60.606239
20
88.816866
11
61.101435
21
89.181711
0
LINE
8
Image
10
61.101435
20
89.181711
11
61.737882
21
89.252997
0
LINE
8
Image
10
61.737882
20
89.252997
11
62.550431
21
89.441272
0
LINE
8
Image
10
62.550431
20
89.441272
11
63.168526
21
90.112647
0
LINE
8
Image
10
63.168526
20
90.112647
11
63.683352
21
91.426943
0
LINE
8
Image
10
63.683352
20
91.426943
11
64.186095
21
93.543983
0
LINE
8
Image
10
64.186095
20
93.543983
11
64.595593
21
95.541918
0
LINE
8
Image
10
64.595593
20
95.541918
11
66.312578
21
95.778061
0
LINE
8
Image
10
66.312578
20
95.778061
11
67.691235
21
96.101635
0
LINE
8
Image
10
67.691235
20
96.101635
11
68.665731
21
96.791119
0
LINE
8
Image
10
68.665731
20
96.791119
11
69.468299
21
98.108813
0
LINE
8
Image
10
69.468299
20
98.108813
11
70.331167
21
100.317019
0
LINE
8
Image
10
70.331167
20
100.317019
11
70.621595
21
100.765326
0
LINE
8
Image
10
70.621595
20
100.765326
11
71.101900
21
100.527540
0
LINE
8
Image
10
71.101900
20
100.527540
11
72.094421
21
100.275885
0
LINE
8
Image
10
72.094421
20
100.275885
11
74.070419
21
100.207195
0
LINE
8
Image
10
74.070419
20
100.207195
11
80.025001
21
100.535622
0
LINE
8
Image
10
80.025001
20
100.535622
11
87.069958
21
101.346657
0
LINE
8
Image
10
87.069958
20
101.346657
11
93.309600
21
102.474135
0
LINE
8
Image
10
93.309600
20
102.474135
11
96.628737
21
103.342134
0
LINE
8
Image
10
96.628737
20
103.342134
11
99.122002
21
104.203969
0
LINE
8
Image
10
99.122002
20
104.203969
11
100.977411
21
105.137252
0
LINE
8
Image
10
100.977411
20
105.137252
11
102.382982
21
106.219596
0
LINE
8
Image
10
102.382982
20
106.219596
11
103.363922
21
107.233709
0
LINE
8
Image
10
103.363922
20
107.233709
11
103.686463
21
107.735196
0
LINE
8
Image
10
103.686463
20
107.735196
11
100.365148
21
107.392654
0
LINE
8
Image
10
100.365148
20
107.392654
11
96.050240
21
106.942402
0
LINE
8
Image
10
96.050240
20
106.942402
11
90.134604
21
106.532492
0
LINE
8
Image
10
90.134604
20
106.532492
11
84.689260
21
106.164387
0
LINE
8
Image
10
84.689260
20
106.164387
11
79.993426
21
105.676635
0
LINE
8
Image
10
79.993426
20
105.676635
11
75.964962
21
105.046334
0
LINE
8
Image
10
75.964962
20
105.046334
11
72.521729
21
104.250580
0
LINE
8
Image
10
72.521729
20
104.250580
11
69.581585
21
103.266470
0
LINE
8
Image
10
69.581585
20
103.266470
11
67.062390
21
102.071102
0
LINE
8
Image
10
67.062390
20
102.071102
11
64.882005
21
100.641572
0
LINE
8
Image
10
64.882005
20
100.641572
11
62.958289
21
98.954978
0
LINE
8
Image
10
62.958289
20
98.954978
11
61.785053
21
97.686519
0
LINE
8
Image
10
61.785053
20
97.686519
11
60.754378
21
96.346156
0
LINE
8
Image
10
60.754378
20
96.346156
11
59.837542
21
94.869131
0
LINE
8
Image
10
59.837542
20
94.869131
11
59.005821
21
93.190688
0
LINE
8
Image
10
59.005821
20
93.190688
11
57.482827
21
88.970518
0
LINE
8
Image
10
57.482827
20
88.970518
11
55.955606
21
83.167588
0
LINE
8
Image
10
55.955606
20
83.167588
11
55.861567
21
82.521609
0
LINE
8
Image
10
55.861567
20
82.521609
11
55.999403
21
82.248366
0
LINE
8
Image
10
55.999403
20
82.248366
11
56.403645
21
82.336040
0
LINE
8
Image
10
56.403645
20
82.336040
11
57.108822
21
82.772809
0
LINE
8
Image
10
57.108822
20
82.772809
11
57.108822
21
82.772809
0
LINE
8
Image
10
90.751966
20
88.453213
11
91.228601
21
89.054934
0
LINE
8
Image
10
91.228601
20
89.054934
11
91.326703
21
89.645416
0
LINE
8
Image
10
91.326703
20
89.645416
11
91.049243
21
90.205616
0
LINE
8
Image
10
91.049243
20
90.205616
11
90.399187
21
90.716493
0
LINE
8
Image
10
90.399187
20
90.716493
11
89.226786
21
91.291030
0
LINE
8
Image
10
89.226786
20
91.291030
11
88.286842
21
91.537770
0
LINE
8
Image
10
88.286842
20
91.537770
11
87.590801
21
91.455561
0
LINE
8
Image
10
87.590801
20
91.455561
11
87.150111
21
91.043253
0
LINE
8
Image
10
87.150111
20
91.043253
11
86.817291
21
90.108516
0
LINE
8
Image
10
86.817291
20
90.108516
11
86.818992
21
89.268677
0
LINE
8
Image
10
86.818992
20
89.268677
11
87.099816
21
88.563570
0
LINE
8
Image
10
87.099816
20
88.563570
11
87.604370
21
88.033030
0
LINE
8
Image
10
87.604370
20
88.033030
11
88.277257
21
87.716891
0
LINE
8
Image
10
88.277257
20
87.716891
11
89.063082
21
87.654985
0
LINE
8
Image
10
89.063082
20
87.654985
11
89.906451
21
87.887148
0
LINE
8
Image
10
89.906451
20
87.887148
11
90.751966
21
88.453213
0
LINE
8
Image
10
90.751966
20
88.453213
11
90.751966
21
88.453213
0
LINE
8
Image
10
92.833494
20
92.103611
11
93.403263
21
92.641728
0
LINE
8
Image
10
93.403263
20
92.641728
11
93.957755
21
93.526797
0
LINE
8
Image
10
93.957755
20
93.526797
11
94.377822
21
94.528188
0
LINE
8
Image
10
94.377822
20
94.528188
11
94.544322
21
95.415270
0
LINE
8
Image
10
94.544322
20
95.415270
11
94.384439
21
95.796995
0
LINE
8
Image
10
94.384439
20
95.796995
11
94.000043
21
95.955765
0
LINE
8
Image
10
94.000043
20
95.955765
11
93.102846
21
96.435428
0
LINE
8
Image
10
93.102846
20
96.435428
11
91.710066
21
97.588661
0
LINE
8
Image
10
91.710066
20
97.588661
11
89.964369
21
99.221556
0
LINE
8
Image
10
89.964369
20
99.221556
11
89.263486
21
97.676854
0
LINE
8
Image
10
89.263486
20
97.676854
11
88.766211
21
96.272176
0
LINE
8
Image
10
88.766211
20
96.272176
11
88.554856
21
95.064123
0
LINE
8
Image
10
88.554856
20
95.064123
11
88.655603
21
94.226271
0
LINE
8
Image
10
88.655603
20
94.226271
11
88.947986
21
93.475289
0
LINE
8
Image
10
88.947986
20
93.475289
11
89.398199
21
92.834571
0
LINE
8
Image
10
89.398199
20
92.834571
11
89.972436
21
92.327506
0
LINE
8
Image
10
89.972436
20
92.327506
11
90.636890
21
91.977486
0
LINE
8
Image
10
90.636890
20
91.977486
11
91.357755
21
91.807903
0
LINE
8
Image
10
91.357755
20
91.807903
11
92.101225
21
91.842147
0
LINE
8
Image
10
92.101225
20
91.842147
11
92.833494
21
92.103611
0
LINE
8
Image
10
92.833494
20
92.103611
11
92.833494
21
92.103611
0
LINE
8
Image
10
96.653141
20
94.280074
11
96.596644
21
94.539115
0
LINE
8
Image
10
96.596644
20
94.539115
11
96.415786
21
94.464228
0
LINE
8
Image
10
96.415786
20
94.464228
11
95.766867
21
93.398129
0
LINE
8
Image
10
95.766867
20
93.398129
11
95.207406
21
92.251603
0
LINE
8
Image
10
95.207406
20
92.251603
11
95.926353
21
93.133546
0
LINE
8
Image
10
95.926353
20
93.133546
11
96.653141
21
94.280074
0
LINE
8
Image
10
96.653141
20
94.280074
11
96.653141
21
94.280074
0
LINE
8
Image
10
98.938233
20
96.527683
11
99.436775
21
96.891496
0
LINE
8
Image
10
99.436775
20
96.891496
11
99.866178
21
97.518948
0
LINE
8
Image
10
99.866178
20
97.518948
11
100.446518
21
99.208456
0
LINE
8
Image
10
100.446518
20
99.208456
11
100.537143
21
100.883585
0
LINE
8
Image
10
100.537143
20
100.883585
11
100.354403
21
101.493062
0
LINE
8
Image
10
100.354403
20
101.493062
11
99.995943
21
101.831709
0
LINE
8
Image
10
99.995943
20
101.831709
11
98.687705
21
101.858372
0
LINE
8
Image
10
98.687705
20
101.858372
11
96.350496
21
101.636454
0
LINE
8
Image
10
96.350496
20
101.636454
11
93.896774
21
101.276732
0
LINE
8
Image
10
93.896774
20
101.276732
11
92.238997
21
100.889982
0
LINE
8
Image
10
92.238997
20
100.889982
11
91.574469
21
100.484025
0
LINE
8
Image
10
91.574469
20
100.484025
11
91.555708
21
100.223563
0
LINE
8
Image
10
91.555708
20
100.223563
11
91.711183
21
99.856719
0
LINE
8
Image
10
91.711183
20
99.856719
11
92.558536
21
98.948593
0
LINE
8
Image
10
92.558536
20
98.948593
11
94.075862
21
97.736721
0
LINE
8
Image
10
94.075862
20
97.736721
11
95.456433
21
96.880014
0
LINE
8
Image
10
95.456433
20
96.880014
11
96.698055
21
96.400140
0
LINE
8
Image
10
96.698055
20
96.400140
11
97.844174
21
96.286297
0
LINE
8
Image
10
97.844174
20
96.286297
11
98.938233
21
96.527683
0
LINE
8
Image
10
98.938233
20
96.527683
11
98.938233
21
96.527683
0
LINE
8
Image
10
53.943452
20
120.970567
11
56.031895
21
122.277157
0
LINE
8
Image
10
56.031895
20
122.277157
11
57.962917
21
123.934837
0
LINE
8
Image
10
57.962917
20
123.934837
11
59.602977
21
125.811442
0
LINE
8
Image
10
59.602977
20
125.811442
11
60.818535
21
127.774811
0
LINE
8
Image
10
60.818535
20
127.774811
11
61.395771
21
129.216509
0
LINE
8
Image
10
61.395771
20
129.216509
11
61.794526
21
130.789209
0
LINE
8
Image
10
61.794526
20
130.789209
11
62.015649
21
132.458951
0
LINE
8
Image
10
62.015649
20
132.458951
11
62.059988
21
134.191777
0
LINE
8
Image
10
62.059988
20
134.191777
11
61.928390
21
135.953729
0
LINE
8
Image
10
61.928390
20
135.953729
11
61.621704
21
137.710850
0
LINE
8
Image
10
61.621704
20
137.710850
11
61.140777
21
139.429180
0
LINE
8
Image
10
61.140777
20
139.429180
11
60.486457
21
141.074763
0
LINE
8
Image
10
60.486457
20
141.074763
11
59.603927
21
142.978538
0
LINE
8
Image
10
59.603927
20
142.978538
11
56.877622
21
142.761421
0
LINE
8
Image
10
56.877622
20
142.761421
11
54.340593
21
142.457764
0
LINE
8
Image
10
54.340593
20
142.457764
11
51.972556
21
141.950465
0
LINE
8
Image
10
51.972556
20
141.950465
11
49.662341
21
141.209869
0
LINE
8
Image
10
49.662341
20
141.209869
11
47.298781
21
140.206325
0
LINE
8
Image
10
47.298781
20
140.206325
11
45.139249
21
139.065662
0
LINE
8
Image
10
45.139249
20
139.065662
11
45.063955
21
138.762002
0
LINE
8
Image
10
45.063955
20
138.762002
11
45.446700
21
138.433579
0
LINE
8
Image
10
45.446700
20
138.433579
11
46.024412
21
137.741270
0
LINE
8
Image
10
46.024412
20
137.741270
11
46.223091
21
136.875650
0
LINE
8
Image
10
46.223091
20
136.875650
11
46.040754
21
136.042911
0
LINE
8
Image
10
46.040754
20
136.042911
11
45.475417
21
135.449244
0
LINE
8
Image
10
45.475417
20
135.449244
11
44.596545
21
135.182909
0
LINE
8
Image
10
44.596545
20
135.182909
11
43.791592
21
135.300642
0
LINE
8
Image
10
43.791592
20
135.300642
11
43.162114
21
135.761480
0
LINE
8
Image
10
43.162114
20
135.761480
11
42.809667
21
136.524462
0
LINE
8
Image
10
42.809667
20
136.524462
11
42.525125
21
137.298967
0
LINE
8
Image
10
42.525125
20
137.298967
11
42.309105
21
137.358808
0
LINE
8
Image
10
42.309105
20
137.358808
11
41.998583
21
137.240392
0
LINE
8
Image
10
41.998583
20
137.240392
11
40.734208
21
136.322013
0
LINE
8
Image
10
40.734208
20
136.322013
11
39.127092
21
134.830992
0
LINE
8
Image
10
39.127092
20
134.830992
11
37.481652
21
133.071550
0
LINE
8
Image
10
37.481652
20
133.071550
11
36.102305
21
131.347909
0
LINE
8
Image
10
36.102305
20
131.347909
11
34.488148
21
129.085870
0
LINE
8
Image
10
34.488148
20
129.085870
11
35.068225
21
127.566962
0
LINE
8
Image
10
35.068225
20
127.566962
11
35.865250
21
126.011888
0
LINE
8
Image
10
35.865250
20
126.011888
11
37.034336
21
124.471348
0
LINE
8
Image
10
37.034336
20
124.471348
11
38.499775
21
123.031004
0
LINE
8
Image
10
38.499775
20
123.031004
11
40.185858
21
121.776518
0
LINE
8
Image
10
40.185858
20
121.776518
11
42.121015
21
120.665983
0
LINE
8
Image
10
42.121015
20
120.665983
11
43.885317
21
120.011304
0
LINE
8
Image
10
43.885317
20
120.011304
11
45.836048
21
119.721664
0
LINE
8
Image
10
45.836048
20
119.721664
11
48.330493
21
119.706246
0
LINE
8
Image
10
48.330493
20
119.706246
11
50.181857
21
119.798819
0
LINE
8
Image
10
50.181857
20
119.798819
11
51.500342
21
119.987659
0
LINE
8
Image
10
51.500342
20
119.987659
11
52.637141
21
120.351872
0
LINE
8
Image
10
52.637141
20
120.351872
11
53.943452
21
120.970567
0
LINE
8
Image
10
53.943452
20
120.970567
11
53.943452
21
120.970567
0
LINE
8
Image
10
86.254055
20
132.187955
11
89.864288
21
132.613848
0
LINE
8
Image
10
89.864288
20
132.613848
11
90.010460
21
132.840716
0
LINE
8
Image
10
90.010460
20
132.840716
11
89.960779
21
133.301169
0
LINE
8
Image
10
89.960779
20
133.301169
11
89.224531
21
135.115706
0
LINE
8
Image
10
89.224531
20
135.115706
11
88.258415
21
137.075444
0
LINE
8
Image
10
88.258415
20
137.075444
11
87.908590
21
137.598372
0
LINE
8
Image
10
87.908590
20
137.598372
11
87.592144
21
137.833561
0
LINE
8
Image
10
87.592144
20
137.833561
11
87.267495
21
137.793682
0
LINE
8
Image
10
87.267495
20
137.793682
11
86.893060
21
137.491401
0
LINE
8
Image
10
86.893060
20
137.491401
11
85.828503
21
136.150307
0
LINE
8
Image
10
85.828503
20
136.150307
11
84.353008
21
134.386903
0
LINE
8
Image
10
84.353008
20
134.386903
11
83.040602
21
133.120525
0
LINE
8
Image
10
83.040602
20
133.120525
11
82.269159
21
132.441278
0
LINE
8
Image
10
82.269159
20
132.441278
11
81.888226
21
131.921979
0
LINE
8
Image
10
81.888226
20
131.921979
11
81.938754
21
131.659526
0
LINE
8
Image
10
81.938754
20
131.659526
11
82.461697
21
131.750813
0
LINE
8
Image
10
82.461697
20
131.750813
11
86.254055
21
132.187955
0
LINE
8
Image
10
86.254055
20
132.187955
11
86.254055
21
132.187955
0
LINE
8
Image
10
83.625915
20
135.731411
11
84.729862
21
137.119461
0
LINE
8
Image
10
84.729862
20
137.119461
11
85.601971
21
138.532905
0
LINE
8
Image
10
85.601971
20
138.532905
11
86.240467
21
139.962788
0
LINE
8
Image
10
86.240467
20
139.962788
11
86.643577
21
141.400153
0
LINE
8
Image
10
86.643577
20
141.400153
11
86.809527
21
142.836046
0
LINE
8
Image
10
86.809527
20
142.836046
11
86.736543
21
144.261508
0
LINE
8
Image
10
86.736543
20
144.261508
11
86.422852
21
145.667585
0
LINE
8
Image
10
86.422852
20
145.667585
11
85.866679
21
147.045319
0
LINE
8
Image
10
85.866679
20
147.045319
11
85.048187
21
148.435492
0
LINE
8
Image
10
85.048187
20
148.435492
11
84.367377
21
149.195038
0
LINE
8
Image
10
84.367377
20
149.195038
11
83.336518
21
149.347217
0
LINE
8
Image
10
83.336518
20
149.347217
11
81.676418
21
149.277127
0
LINE
8
Image
10
81.676418
20
149.277127
11
80.467348
21
149.125925
0
LINE
8
Image
10
80.467348
20
149.125925
11
79.829607
21
148.926377
0
LINE
8
Image
10
79.829607
20
148.926377
11
79.564627
21
148.552306
0
LINE
8
Image
10
79.564627
20
148.552306
11
79.473838
21
147.877536
0
LINE
8
Image
10
79.473838
20
147.877536
11
79.474071
21
147.264809
0
LINE
8
Image
10
79.474071
20
147.264809
11
79.608448
21
146.768178
0
LINE
8
Image
10
79.608448
20
146.768178
11
80.410163
21
145.839035
0
LINE
8
Image
10
80.410163
20
145.839035
11
81.316981
21
144.758117
0
LINE
8
Image
10
81.316981
20
144.758117
11
82.049831
21
143.377204
0
LINE
8
Image
10
82.049831
20
143.377204
11
82.358516
21
142.428352
0
LINE
8
Image
10
82.358516
20
142.428352
11
82.487075
21
141.493775
0
LINE
8
Image
10
82.487075
20
141.493775
11
82.253058
21
138.481090
0
LINE
8
Image
10
82.253058
20
138.481090
11
81.631698
21
134.617620
0
LINE
8
Image
10
81.631698
20
134.617620
11
81.561654
21
134.105699
0
LINE
8
Image
10
81.561654
20
134.105699
11
81.918997
21
134.147678
0
LINE
8
Image
10
81.918997
20
134.147678
11
82.631244
21
134.703076
0
LINE
8
Image
10
82.631244
20
134.703076
11
83.625915
21
135.731411
0
LINE
8
Image
10
83.625915
20
135.731411
11
83.625915
21
135.731411
0
LINE
8
Image
10
69.108913
20
143.673415
11
70.631886
21
145.136259
0
LINE
8
Image
10
70.631886
20
145.136259
11
72.122586
21
146.207985
0
LINE
8
Image
10
72.122586
20
146.207985
11
73.548468
21
146.869256
0
LINE
8
Image
10
73.548468
20
146.869256
11
74.876986
21
147.100733
0
LINE
8
Image
10
74.876986
20
147.100733
11
75.636695
21
147.259839
0
LINE
8
Image
10
75.636695
20
147.259839
11
75.798530
21
147.478699
0
LINE
8
Image
10
75.798530
20
147.478699
11
75.847125
21
147.814036
0
LINE
8
Image
10
75.847125
20
147.814036
11
75.702178
21
148.336911
0
LINE
8
Image
10
75.702178
20
148.336911
11
75.184819
21
148.467536
0
LINE
8
Image
10
75.184819
20
148.467536
11
74.171271
21
148.194390
0
LINE
8
Image
10
74.171271
20
148.194390
11
72.537758
21
147.505948
0
LINE
8
Image
10
72.537758
20
147.505948
11
69.945431
21
146.088120
0
LINE
8
Image
10
69.945431
20
146.088120
11
66.697133
21
144.038085
0
LINE
8
Image
10
66.697133
20
144.038085
11
63.873867
21
142.071055
0
LINE
8
Image
10
63.873867
20
142.071055
11
62.556637
21
140.902242
0
LINE
8
Image
10
62.556637
20
140.902242
11
62.534643
21
140.231052
0
LINE
8
Image
10
62.534643
20
140.231052
11
62.733643
21
139.273733
0
LINE
8
Image
10
62.733643
20
139.273733
11
63.328198
21
136.359518
0
LINE
8
Image
10
63.328198
20
136.359518
11
63.566378
21
134.606378
0
LINE
8
Image
10
63.566378
20
134.606378
11
65.349786
21
138.072082
0
LINE
8
Image
10
65.349786
20
138.072082
11
67.185444
21
141.176418
0
LINE
8
Image
10
67.185444
20
141.176418
11
69.108913
21
143.673415
0
LINE
8
Image
10
69.108913
20
143.673415
11
69.108913
21
143.673415
0
LINE
8
Image
10
10.936097
20
138.473020
11
11.174011
21
139.552194
0
LINE
8
Image
10
11.174011
20
139.552194
11
11.791296
21
141.196019
0
LINE
8
Image
10
11.791296
20
141.196019
11
13.585217
21
144.796192
0
LINE
8
Image
10
13.585217
20
144.796192
11
14.822626
21
146.851113
0
LINE
8
Image
10
14.822626
20
146.851113
11
14.245283
21
148.831876
0
LINE
8
Image
10
14.245283
20
148.831876
11
13.523732
21
151.316364
0
LINE
8
Image
10
13.523732
20
151.316364
11
13.374872
21
151.456564
0
LINE
8
Image
10
13.374872
20
151.456564
11
13.117786
21
151.311334
0
LINE
8
Image
10
13.117786
20
151.311334
11
12.391512
21
150.347816
0
LINE
8
Image
10
12.391512
20
150.347816
11
11.570063
21
148.792265
0
LINE
8
Image
10
11.570063
20
148.792265
11
10.878590
21
147.011138
0
LINE
8
Image
10
10.878590
20
147.011138
11
10.436514
21
144.533706
0
LINE
8
Image
10
10.436514
20
144.533706
11
10.214426
21
141.366528
0
LINE
8
Image
10
10.214426
20
141.366528
11
10.250603
21
138.708840
0
LINE
8
Image
10
10.250603
20
138.708840
11
10.377501
21
137.945817
0
LINE
8
Image
10
10.377501
20
137.945817
11
10.583319
21
137.759882
0
LINE
8
Image
10
10.583319
20
137.759882
11
10.832469
21
138.059302
0
LINE
8
Image
10
10.832469
20
138.059302
11
10.936097
21
138.473020
0
LINE
8
Image
10
10.936097
20
138.473020
11
10.936097
21
138.473020
0
LINE
8
Image
10
17.226938
20
150.577940
11
18.136640
21
152.275879
0
LINE
8
Image
10
18.136640
20
152.275879
11
19.754640
21
154.458490
0
LINE
8
Image
10
19.754640
20
154.458490
11
21.190419
21
156.243718
0
LINE
8
Image
10
21.190419
20
156.243718
11
21.662014
21
156.986246
0
LINE
8
Image
10
21.662014
20
156.986246
11
20.384776
21
156.528039
0
LINE
8
Image
10
20.384776
20
156.528039
11
18.272330
21
155.483696
0
LINE
8
Image
10
18.272330
20
155.483696
11
16.261880
21
154.348632
0
LINE
8
Image
10
16.261880
20
154.348632
11
15.290629
21
153.618263
0
LINE
8
Image
10
15.290629
20
153.618263
11
15.318452
21
152.655211
0
LINE
8
Image
10
15.318452
20
152.655211
11
15.657879
21
151.175813
0
LINE
8
Image
10
15.657879
20
151.175813
11
16.126704
21
149.819360
0
LINE
8
Image
10
16.126704
20
149.819360
11
16.542721
21
149.225144
0
LINE
8
Image
10
16.542721
20
149.225144
11
16.858760
21
149.622528
0
LINE
8
Image
10
16.858760
20
149.622528
11
17.226938
21
150.577940
0
LINE
8
Image
10
17.226938
20
150.577940
11
17.226938
21
150.577940
0
LINE
8
Image
10
23.456440
20
159.471430
11
27.818168
21
161.785171
0
LINE
8
Image
10
27.818168
20
161.785171
11
29.461737
21
162.814075
0
LINE
8
Image
10
29.461737
20
162.814075
11
30.346993
21
163.522438
0
LINE
8
Image
10
30.346993
20
163.522438
11
30.485730
21
163.769206
0
LINE
8
Image
10
30.485730
20
163.769206
11
30.402625
21
163.953833
0
LINE
8
Image
10
30.402625
20
163.953833
11
29.432758
21
164.245987
0
LINE
8
Image
10
29.432758
20
164.245987
11
27.943560
21
164.270393
0
LINE
8
Image
10
27.943560
20
164.270393
11
26.190243
21
163.866136
0
LINE
8
Image
10
26.190243
20
163.866136
11
24.265090
21
163.063494
0
LINE
8
Image
10
24.265090
20
163.063494
11
22.260385
21
161.892743
0
LINE
8
Image
10
22.260385
20
161.892743
11
20.636619
21
160.646211
0
LINE
8
Image
10
20.636619
20
160.646211
11
19.020764
21
159.160978
0
LINE
8
Image
10
19.020764
20
159.160978
11
17.781145
21
157.803699
0
LINE
8
Image
10
17.781145
20
157.803699
11
17.286089
21
156.941027
0
LINE
8
Image
10
17.286089
20
156.941027
11
17.609259
21
156.904572
0
LINE
8
Image
10
17.609259
20
156.904572
11
18.662073
21
157.279992
0
LINE
8
Image
10
18.662073
20
157.279992
11
23.456440
21
159.471430
0
LINE
8
Image
10
23.456440
20
159.471430
11
23.456440
21
159.471430
 0 
ENDSEC
 0 
EOF