999
"DXF R12 Output" (www.mydxf.blogspot.com)
 0 
SECTION
 2 
HEADER
 9 
$ACADVER
 1 
AC1009
 9 
$EXTMIN
 10 
 0 
 20 
 0 
 9 
$EXTMAX
 10 
 8.5 
 20 
 11 
 0 
ENDSEC
 0 
SECTION
 2 
ENTITIES
0
LINE
8
Image
10
38.366406
20
3.268707
11
38.366406
21
4.432362
0
LINE
8
Image
10
38.366406
20
4.432362
11
40.416924
21
4.721451
0
LINE
8
Image
10
40.416924
20
4.721451
11
44.517960
21
5.173245
0
LINE
8
Image
10
44.517960
20
5.173245
11
45.966139
21
5.359245
0
LINE
8
Image
10
45.966139
20
5.359245
11
46.568479
21
5.577959
0
LINE
8
Image
10
46.568479
20
5.577959
11
44.271431
21
5.759072
0
LINE
8
Image
10
44.271431
20
5.759072
11
38.432551
21
5.846288
0
LINE
8
Image
10
38.432551
20
5.846288
11
29.127617
21
5.977328
0
LINE
8
Image
10
29.127617
20
5.977328
11
28.184362
21
6.147531
0
LINE
8
Image
10
28.184362
20
6.147531
11
27.409695
21
6.470817
0
LINE
8
Image
10
27.409695
20
6.470817
11
26.813500
21
6.941465
0
LINE
8
Image
10
26.813500
20
6.941465
11
26.405656
21
7.553751
0
LINE
8
Image
10
26.405656
20
7.553751
11
25.954467
21
8.079795
0
LINE
8
Image
10
25.954467
20
8.079795
11
24.982797
21
8.201214
0
LINE
8
Image
10
24.982797
20
8.201214
11
24.061448
21
8.353746
0
LINE
8
Image
10
24.061448
20
8.353746
11
23.197756
21
8.763274
0
LINE
8
Image
10
23.197756
20
8.763274
11
22.503602
21
9.357698
0
LINE
8
Image
10
22.503602
20
9.357698
11
22.090865
21
10.064916
0
LINE
8
Image
10
22.090865
20
10.064916
11
21.746279
21
10.471433
0
LINE
8
Image
10
21.746279
20
10.471433
11
20.921782
21
10.582461
0
LINE
8
Image
10
20.921782
20
10.582461
11
20.101690
21
10.710297
0
LINE
8
Image
10
20.101690
20
10.710297
11
19.346344
21
11.056224
0
LINE
8
Image
10
19.346344
20
11.056224
11
18.745321
21
11.563869
0
LINE
8
Image
10
18.745321
20
11.563869
11
18.388201
21
12.176861
0
LINE
8
Image
10
18.388201
20
12.176861
11
18.047083
21
12.586709
0
LINE
8
Image
10
18.047083
20
12.586709
11
17.248084
21
12.703026
0
LINE
8
Image
10
17.248084
20
12.703026
11
16.357712
21
12.797355
0
LINE
8
Image
10
16.357712
20
12.797355
11
15.609378
21
13.066819
0
LINE
8
Image
10
15.609378
20
13.066819
11
15.019787
21
13.502613
0
LINE
8
Image
10
15.019787
20
13.502613
11
14.605647
21
14.095929
0
LINE
8
Image
10
14.605647
20
14.095929
11
14.383134
21
14.475041
0
LINE
8
Image
10
14.383134
20
14.475041
11
14.107247
21
14.693007
0
LINE
8
Image
10
14.107247
20
14.693007
11
13.018149
21
14.816778
0
LINE
8
Image
10
13.018149
20
14.816778
11
11.990166
21
14.941644
0
LINE
8
Image
10
11.990166
20
14.941644
11
11.058121
21
15.276464
0
LINE
8
Image
10
11.058121
20
15.276464
11
10.336928
21
15.764077
0
LINE
8
Image
10
10.336928
20
15.764077
11
9.941499
21
16.347319
0
LINE
8
Image
10
9.941499
20
16.347319
11
9.785709
21
16.608055
0
LINE
8
Image
10
9.785709
20
16.608055
11
9.462611
21
16.788456
0
LINE
8
Image
10
9.462611
20
16.788456
11
7.999649
21
17.016799
0
LINE
8
Image
10
7.999649
20
17.016799
11
6.345520
21
17.311735
0
LINE
8
Image
10
6.345520
20
17.311735
11
5.844597
21
17.651979
0
LINE
8
Image
10
5.844597
20
17.651979
11
5.286319
21
18.245136
0
LINE
8
Image
10
5.286319
20
18.245136
11
4.505360
21
18.999809
0
LINE
8
Image
10
4.505360
20
18.999809
11
3.938265
21
19.313700
0
LINE
8
Image
10
3.938265
20
19.313700
11
3.482089
21
19.468883
0
LINE
8
Image
10
3.482089
20
19.468883
11
3.059149
21
19.839782
0
LINE
8
Image
10
3.059149
20
19.839782
11
2.789939
21
20.284421
0
LINE
8
Image
10
2.789939
20
20.284421
11
2.794956
21
20.660823
0
LINE
8
Image
10
2.794956
20
20.660823
11
2.863252
21
20.847999
0
LINE
8
Image
10
2.863252
20
20.847999
11
2.712030
21
20.808663
0
LINE
8
Image
10
2.712030
20
20.808663
11
2.450893
21
20.990952
0
LINE
8
Image
10
2.450893
20
20.990952
11
2.255100
21
21.694282
0
LINE
8
Image
10
2.255100
20
21.694282
11
2.172157
21
22.637957
0
LINE
8
Image
10
2.172157
20
22.637957
11
2.249566
21
23.541280
0
LINE
8
Image
10
2.249566
20
23.541280
11
2.432040
21
24.110684
0
LINE
8
Image
10
2.432040
20
24.110684
11
2.643302
21
24.304814
0
LINE
8
Image
10
2.643302
20
24.304814
11
2.877903
21
24.123512
0
LINE
8
Image
10
2.877903
20
24.123512
11
3.130393
21
23.566622
0
LINE
8
Image
10
3.130393
20
23.566622
11
3.595684
21
22.690074
0
LINE
8
Image
10
3.595684
20
22.690074
11
3.988904
21
22.409091
0
LINE
8
Image
10
3.988904
20
22.409091
11
4.581339
21
22.212381
0
LINE
8
Image
10
4.581339
20
22.212381
11
6.640353
21
22.010026
0
LINE
8
Image
10
6.640353
20
22.010026
11
10.325717
21
21.959495
0
LINE
8
Image
10
10.325717
20
21.959495
11
16.472165
21
21.949930
0
LINE
8
Image
10
16.472165
20
21.949930
11
16.809962
21
22.100046
0
LINE
8
Image
10
16.809962
20
22.100046
11
16.935185
21
22.488696
0
LINE
8
Image
10
16.935185
20
22.488696
11
16.971078
21
22.861838
0
LINE
8
Image
10
16.971078
20
22.861838
11
17.114323
21
22.984676
0
LINE
8
Image
10
17.114323
20
22.984676
11
17.936274
21
22.476933
0
LINE
8
Image
10
17.936274
20
22.476933
11
18.433824
21
22.180815
0
LINE
8
Image
10
18.433824
20
22.180815
11
19.237005
21
22.025884
0
LINE
8
Image
10
19.237005
20
22.025884
11
23.401958
21
21.994759
0
LINE
8
Image
10
23.401958
20
21.994759
11
26.677420
21
21.984329
0
LINE
8
Image
10
26.677420
20
21.984329
11
28.609785
21
21.745639
0
LINE
8
Image
10
28.609785
20
21.745639
11
29.249338
21
21.491158
0
LINE
8
Image
10
29.249338
20
21.491158
11
29.765556
21
21.120164
0
LINE
8
Image
10
29.765556
20
21.120164
11
30.711239
21
19.949376
0
LINE
8
Image
10
30.711239
20
19.949376
11
31.547676
21
18.733659
0
LINE
8
Image
10
31.547676
20
18.733659
11
32.641938
21
19.781090
0
LINE
8
Image
10
32.641938
20
19.781090
11
34.332589
21
21.249468
0
LINE
8
Image
10
34.332589
20
21.249468
11
36.132885
21
22.524938
0
LINE
8
Image
10
36.132885
20
22.524938
11
38.037692
21
23.605538
0
LINE
8
Image
10
38.037692
20
23.605538
11
40.041877
21
24.489304
0
LINE
8
Image
10
40.041877
20
24.489304
11
42.140307
21
25.174275
0
LINE
8
Image
10
42.140307
20
25.174275
11
44.327847
21
25.658486
0
LINE
8
Image
10
44.327847
20
25.658486
11
46.599365
21
25.939975
0
LINE
8
Image
10
46.599365
20
25.939975
11
48.949726
21
26.016779
0
LINE
8
Image
10
48.949726
20
26.016779
11
51.116346
21
25.908736
0
LINE
8
Image
10
51.116346
20
25.908736
11
53.179888
21
25.632393
0
LINE
8
Image
10
53.179888
20
25.632393
11
55.143841
21
25.186403
0
LINE
8
Image
10
55.143841
20
25.186403
11
57.011698
21
24.569417
0
LINE
8
Image
10
57.011698
20
24.569417
11
58.786950
21
23.780088
0
LINE
8
Image
10
58.786950
20
23.780088
11
60.473088
21
22.817069
0
LINE
8
Image
10
60.473088
20
22.817069
11
62.073604
21
21.679011
0
LINE
8
Image
10
62.073604
20
21.679011
11
63.591990
21
20.364567
0
LINE
8
Image
10
63.591990
20
20.364567
11
65.735363
21
18.330496
0
LINE
8
Image
10
65.735363
20
18.330496
11
63.904208
21
16.061063
0
LINE
8
Image
10
63.904208
20
16.061063
11
62.546850
21
14.497895
0
LINE
8
Image
10
62.546850
20
14.497895
11
61.854825
21
13.926502
0
LINE
8
Image
10
61.854825
20
13.926502
11
61.722059
21
13.947610
0
LINE
8
Image
10
61.722059
20
13.947610
11
61.709299
21
13.808965
0
LINE
8
Image
10
61.709299
20
13.808965
11
61.332108
21
13.063229
0
LINE
8
Image
10
61.332108
20
13.063229
11
60.197399
21
11.772158
0
LINE
8
Image
10
60.197399
20
11.772158
11
58.616574
21
10.257497
0
LINE
8
Image
10
58.616574
20
10.257497
11
56.901037
21
8.840992
0
LINE
8
Image
10
56.901037
20
8.840992
11
54.682539
21
7.288937
0
LINE
8
Image
10
54.682539
20
7.288937
11
54.315017
21
7.163691
0
LINE
8
Image
10
54.315017
20
7.163691
11
54.398942
21
7.448346
0
LINE
8
Image
10
54.398942
20
7.448346
11
54.455212
21
7.621730
0
LINE
8
Image
10
54.455212
20
7.621730
11
54.277951
21
7.562355
0
LINE
8
Image
10
54.277951
20
7.562355
11
54.099782
21
7.361428
0
LINE
8
Image
10
54.099782
20
7.361428
11
54.106427
21
7.147198
0
LINE
8
Image
10
54.106427
20
7.147198
11
54.106431
21
6.954783
0
LINE
8
Image
10
54.106431
20
6.954783
11
53.912305
21
6.806304
0
LINE
8
Image
10
53.912305
20
6.806304
11
54.040311
21
6.692984
0
LINE
8
Image
10
54.040311
20
6.692984
11
54.814814
21
6.585102
0
LINE
8
Image
10
54.814814
20
6.585102
11
55.946176
21
6.584573
0
LINE
8
Image
10
55.946176
20
6.584573
11
57.062335
21
7.461602
0
LINE
8
Image
10
57.062335
20
7.461602
11
58.019048
21
7.960237
0
LINE
8
Image
10
58.019048
20
7.960237
11
58.527154
21
7.989977
0
LINE
8
Image
10
58.527154
20
7.989977
11
58.469650
21
7.659578
0
LINE
8
Image
10
58.469650
20
7.659578
11
57.895893
21
7.183715
0
LINE
8
Image
10
57.895893
20
7.183715
11
57.019507
21
6.622583
0
LINE
8
Image
10
57.019507
20
6.622583
11
62.659290
21
6.618138
0
LINE
8
Image
10
62.659290
20
6.618138
11
68.028082
21
6.772628
0
LINE
8
Image
10
68.028082
20
6.772628
11
69.113850
21
7.044898
0
LINE
8
Image
10
69.113850
20
7.044898
11
69.649295
21
7.513182
0
LINE
8
Image
10
69.649295
20
7.513182
11
69.847732
21
8.016398
0
LINE
8
Image
10
69.847732
20
8.016398
11
68.198974
21
8.153370
0
LINE
8
Image
10
68.198974
20
8.153370
11
64.229394
21
8.184850
0
LINE
8
Image
10
64.229394
20
8.184850
11
58.669142
21
8.308048
0
LINE
8
Image
10
58.669142
20
8.308048
11
59.637774
21
9.267997
0
LINE
8
Image
10
59.637774
20
9.267997
11
60.677261
21
10.053295
0
LINE
8
Image
10
60.677261
20
10.053295
11
60.723669
21
9.524129
0
LINE
8
Image
10
60.723669
20
9.524129
11
60.727533
21
9.230507
0
LINE
8
Image
10
60.727533
20
9.230507
11
61.013077
21
9.072044
0
LINE
8
Image
10
61.013077
20
9.072044
11
63.206278
21
8.994963
0
LINE
8
Image
10
63.206278
20
8.994963
11
65.474034
21
9.091504
0
LINE
8
Image
10
65.474034
20
9.091504
11
65.982598
21
9.275800
0
LINE
8
Image
10
65.982598
20
9.275800
11
66.366084
21
9.607328
0
LINE
8
Image
10
66.366084
20
9.607328
11
66.941370
21
10.401077
0
LINE
8
Image
10
66.941370
20
10.401077
11
64.511029
21
10.582461
0
LINE
8
Image
10
64.511029
20
10.582461
11
62.416028
21
10.486319
0
LINE
8
Image
10
62.416028
20
10.486319
11
61.893915
21
10.324154
0
LINE
8
Image
10
61.893915
20
10.324154
11
61.512423
21
10.048602
0
LINE
8
Image
10
61.512423
20
10.048602
11
61.031427
21
9.672038
0
LINE
8
Image
10
61.031427
20
9.672038
11
60.931589
21
9.982456
0
LINE
8
Image
10
60.931589
20
9.982456
11
61.407456
21
10.817967
0
LINE
8
Image
10
61.407456
20
10.817967
11
62.569202
21
12.169959
0
LINE
8
Image
10
62.569202
20
12.169959
11
65.728558
21
15.813769
0
LINE
8
Image
10
65.728558
20
15.813769
11
66.892143
21
17.141879
0
LINE
8
Image
10
66.892143
20
17.141879
11
67.527307
21
17.558824
0
LINE
8
Image
10
67.527307
20
17.558824
11
67.683806
21
17.511506
0
LINE
8
Image
10
67.683806
20
17.511506
11
67.645899
21
17.656513
0
LINE
8
Image
10
67.645899
20
17.656513
11
67.835608
21
18.132387
0
LINE
8
Image
10
67.835608
20
18.132387
11
68.531820
21
18.888017
0
LINE
8
Image
10
68.531820
20
18.888017
11
69.588724
21
19.842867
0
LINE
8
Image
10
69.588724
20
19.842867
11
73.917899
21
19.842867
0
LINE
8
Image
10
73.917899
20
19.842867
11
77.682926
21
19.928043
0
LINE
8
Image
10
77.682926
20
19.928043
11
78.448089
21
20.092918
0
LINE
8
Image
10
78.448089
20
20.092918
11
78.944214
21
20.391236
0
LINE
8
Image
10
78.944214
20
20.391236
11
79.603375
21
21.034903
0
LINE
8
Image
10
79.603375
20
21.034903
11
79.582377
21
21.239524
0
LINE
8
Image
10
79.582377
20
21.239524
11
79.271401
21
21.379237
0
LINE
8
Image
10
79.271401
20
21.379237
11
77.610735
21
21.503645
0
LINE
8
Image
10
77.610735
20
21.503645
11
74.283818
21
21.487532
0
LINE
8
Image
10
74.283818
20
21.487532
11
70.305374
21
21.355739
0
LINE
8
Image
10
70.305374
20
21.355739
11
68.264285
21
21.144367
0
LINE
8
Image
10
68.264285
20
21.144367
11
67.535992
21
20.609664
0
LINE
8
Image
10
67.535992
20
20.609664
11
66.713844
21
19.700501
0
LINE
8
Image
10
66.713844
20
19.700501
11
66.016613
21
18.912958
0
LINE
8
Image
10
66.016613
20
18.912958
11
65.588652
21
18.670663
0
LINE
8
Image
10
65.588652
20
18.670663
11
65.473898
21
18.911344
0
LINE
8
Image
10
65.473898
20
18.911344
11
65.592907
21
19.296124
0
LINE
8
Image
10
65.592907
20
19.296124
11
66.349944
21
20.304931
0
LINE
8
Image
10
66.349944
20
20.304931
11
67.495236
21
21.310990
0
LINE
8
Image
10
67.495236
20
21.310990
11
68.664252
21
21.928209
0
LINE
8
Image
10
68.664252
20
21.928209
11
70.759059
21
22.135997
0
LINE
8
Image
10
70.759059
20
22.135997
11
74.332641
21
22.222638
0
LINE
8
Image
10
74.332641
20
22.222638
11
78.354699
21
22.306742
0
LINE
8
Image
10
78.354699
20
22.306742
11
79.102881
21
22.475530
0
LINE
8
Image
10
79.102881
20
22.475530
11
79.544709
21
22.786768
0
LINE
8
Image
10
79.544709
20
22.786768
11
80.143627
21
23.349423
0
LINE
8
Image
10
80.143627
20
23.349423
11
80.302258
21
22.720622
0
LINE
8
Image
10
80.302258
20
22.720622
11
80.460892
21
22.091822
0
LINE
8
Image
10
80.460892
20
22.091822
11
86.643188
21
22.091822
0
LINE
8
Image
10
86.643188
20
22.091822
11
92.136931
21
22.172150
0
LINE
8
Image
10
92.136931
20
22.172150
11
93.017080
21
22.362594
0
LINE
8
Image
10
93.017080
20
22.362594
11
93.509453
21
22.733254
0
LINE
8
Image
10
93.509453
20
22.733254
11
93.992504
21
23.328160
0
LINE
8
Image
10
93.992504
20
23.328160
11
94.193419
21
23.857732
0
LINE
8
Image
10
94.193419
20
23.857732
11
94.317999
21
24.199757
0
LINE
8
Image
10
94.317999
20
24.199757
11
94.620151
21
24.340777
0
LINE
8
Image
10
94.620151
20
24.340777
11
94.835483
21
24.272736
0
LINE
8
Image
10
94.835483
20
24.272736
11
94.950190
21
24.006613
0
LINE
8
Image
10
94.950190
20
24.006613
11
94.943329
21
22.508131
0
LINE
8
Image
10
94.943329
20
22.508131
11
94.772280
21
21.220396
0
LINE
8
Image
10
94.772280
20
21.220396
11
94.445524
21
20.277135
0
LINE
8
Image
10
94.445524
20
20.277135
11
93.999029
21
19.746892
0
LINE
8
Image
10
93.999029
20
19.746892
11
93.468768
21
19.698214
0
LINE
8
Image
10
93.468768
20
19.698214
11
93.261179
21
19.719263
0
LINE
8
Image
10
93.261179
20
19.719263
11
93.269251
21
19.575253
0
LINE
8
Image
10
93.269251
20
19.575253
11
93.264247
21
19.390532
0
LINE
8
Image
10
93.264247
20
19.390532
11
93.025205
21
19.313701
0
LINE
8
Image
10
93.025205
20
19.313701
11
92.618109
21
19.080537
0
LINE
8
Image
10
92.618109
20
19.080537
11
92.209046
21
18.519952
0
LINE
8
Image
10
92.209046
20
18.519952
11
91.659764
21
17.803806
0
LINE
8
Image
10
91.659764
20
17.803806
11
90.952277
21
17.694870
0
LINE
8
Image
10
90.952277
20
17.694870
11
90.753840
21
17.506897
0
LINE
8
Image
10
90.753840
20
17.506897
11
90.306942
21
17.334367
0
LINE
8
Image
10
90.306942
20
17.334367
11
89.232487
21
17.227523
0
LINE
8
Image
10
89.232487
20
17.227523
11
88.109219
21
17.096033
0
LINE
8
Image
10
88.109219
20
17.096033
11
87.601741
21
16.854061
0
LINE
8
Image
10
87.601741
20
16.854061
11
86.762198
21
15.810520
0
LINE
8
Image
10
86.762198
20
15.810520
11
85.901240
21
15.213160
0
LINE
8
Image
10
85.901240
20
15.213160
11
84.582626
21
15.080372
0
LINE
8
Image
10
84.582626
20
15.080372
11
83.262604
21
14.946736
0
LINE
8
Image
10
83.262604
20
14.946736
11
82.922953
21
14.668439
0
LINE
8
Image
10
82.922953
20
14.668439
11
82.584424
21
14.150263
0
LINE
8
Image
10
82.584424
20
14.150263
11
82.083440
21
13.492328
0
LINE
8
Image
10
82.083440
20
13.492328
11
81.465087
21
13.041410
0
LINE
8
Image
10
81.465087
20
13.041410
11
80.699401
21
12.782134
0
LINE
8
Image
10
80.699401
20
12.782134
11
79.756421
21
12.699125
0
LINE
8
Image
10
79.756421
20
12.699125
11
79.074761
21
12.605806
0
LINE
8
Image
10
79.074761
20
12.605806
11
78.847605
21
12.325771
0
LINE
8
Image
10
78.847605
20
12.325771
11
78.608477
21
11.860877
0
LINE
8
Image
10
78.608477
20
11.860877
11
78.033554
21
11.267439
0
LINE
8
Image
10
78.033554
20
11.267439
11
77.144314
21
10.734642
0
LINE
8
Image
10
77.144314
20
10.734642
11
76.067012
21
10.582461
0
LINE
8
Image
10
76.067012
20
10.582461
11
75.115540
21
10.477184
0
LINE
8
Image
10
75.115540
20
10.477184
11
74.750256
21
10.064916
0
LINE
8
Image
10
74.750256
20
10.064916
11
74.337520
21
9.357698
0
LINE
8
Image
10
74.337520
20
9.357698
11
73.643366
21
8.763274
0
LINE
8
Image
10
73.643366
20
8.763274
11
72.779674
21
8.353746
0
LINE
8
Image
10
72.779674
20
8.353746
11
71.858325
21
8.201214
0
LINE
8
Image
10
71.858325
20
8.201214
11
70.886655
21
8.079795
0
LINE
8
Image
10
70.886655
20
8.079795
11
70.435466
21
7.553751
0
LINE
8
Image
10
70.435466
20
7.553751
11
70.180233
21
7.049487
0
LINE
8
Image
10
70.180233
20
7.049487
11
69.853725
21
6.668493
0
LINE
8
Image
10
69.853725
20
6.668493
11
69.333128
21
6.393051
0
LINE
8
Image
10
69.333128
20
6.393051
11
68.495630
21
6.205441
0
LINE
8
Image
10
68.495630
20
6.205441
11
65.378682
21
6.022840
0
LINE
8
Image
10
65.378682
20
6.022840
11
59.520380
21
5.978937
0
LINE
8
Image
10
59.520380
20
5.978937
11
52.990424
21
5.906387
0
LINE
8
Image
10
52.990424
20
5.906387
11
50.273768
21
5.769437
0
LINE
8
Image
10
50.273768
20
5.769437
11
50.396064
21
5.540656
0
LINE
8
Image
10
50.396064
20
5.540656
11
50.890257
21
5.367507
0
LINE
8
Image
10
50.890257
20
5.367507
11
53.739120
21
5.028991
0
LINE
8
Image
10
53.739120
20
5.028991
11
56.542451
21
4.755363
0
LINE
8
Image
10
56.542451
20
4.755363
11
57.941045
21
4.494788
0
LINE
8
Image
10
57.941045
20
4.494788
11
58.265964
21
4.313785
0
LINE
8
Image
10
58.265964
20
4.313785
11
58.422575
21
4.069314
0
LINE
8
Image
10
58.422575
20
4.069314
11
58.474714
21
3.300994
0
LINE
8
Image
10
58.474714
20
3.300994
11
58.474714
21
2.163827
0
LINE
8
Image
10
58.474714
20
2.163827
11
57.350236
21
2.707619
0
LINE
8
Image
10
57.350236
20
2.707619
11
55.481908
21
3.339647
0
LINE
8
Image
10
55.481908
20
3.339647
11
52.966985
21
3.825742
0
LINE
8
Image
10
52.966985
20
3.825742
11
50.179758
21
4.111424
0
LINE
8
Image
10
50.179758
20
4.111424
11
47.494519
21
4.142212
0
LINE
8
Image
10
47.494519
20
4.142212
11
45.026925
21
3.944866
0
LINE
8
Image
10
45.026925
20
3.944866
11
42.734053
21
3.603169
0
LINE
8
Image
10
42.734053
20
3.603169
11
40.790726
21
3.149927
0
LINE
8
Image
10
40.790726
20
3.149927
11
39.371768
21
2.617947
0
LINE
8
Image
10
39.371768
20
2.617947
11
38.366406
21
2.105050
0
LINE
8
Image
10
38.366406
20
2.105050
11
38.366406
21
3.268707
0
LINE
8
Image
10
41.805985
20
3.722086
11
45.245564
21
4.472446
0
LINE
8
Image
10
45.245564
20
4.472446
11
45.873497
21
4.602568
0
LINE
8
Image
10
45.873497
20
4.602568
11
45.955563
21
4.641516
0
LINE
8
Image
10
45.955563
20
4.641516
11
45.870067
21
4.664164
0
LINE
8
Image
10
45.870067
20
4.664164
11
43.658066
21
4.608418
0
LINE
8
Image
10
43.658066
20
4.608418
11
41.184680
21
4.467856
0
LINE
8
Image
10
41.184680
20
4.467856
11
39.688063
21
4.265877
0
LINE
8
Image
10
39.688063
20
4.265877
11
38.930404
21
3.947597
0
LINE
8
Image
10
38.930404
20
3.947597
11
38.673891
21
3.458133
0
LINE
8
Image
10
38.673891
20
3.458133
11
38.705865
21
2.976695
0
LINE
8
Image
10
38.705865
20
2.976695
11
39.203057
21
3.035798
0
LINE
8
Image
10
39.203057
20
3.035798
11
41.805985
21
3.722086
0
LINE
8
Image
10
41.805985
20
3.722086
11
41.805985
21
3.722086
0
LINE
8
Image
10
58.162387
20
3.495069
11
57.900430
21
3.961539
0
LINE
8
Image
10
57.900430
20
3.961539
11
57.140791
21
4.271987
0
LINE
8
Image
10
57.140791
20
4.271987
11
55.680190
21
4.473264
0
LINE
8
Image
10
55.680190
20
4.473264
11
53.315345
21
4.612225
0
LINE
8
Image
10
53.315345
20
4.612225
11
51.167379
21
4.667731
0
LINE
8
Image
10
51.167379
20
4.667731
11
51.099950
21
4.644011
0
LINE
8
Image
10
51.099950
20
4.644011
11
51.199788
21
4.603187
0
LINE
8
Image
10
51.199788
20
4.603187
11
51.860139
21
4.466101
0
LINE
8
Image
10
51.860139
20
4.466101
11
55.860603
21
3.649252
0
LINE
8
Image
10
55.860603
20
3.649252
11
57.294533
21
3.157241
0
LINE
8
Image
10
57.294533
20
3.157241
11
57.574322
21
2.912593
0
LINE
8
Image
10
57.574322
20
2.912593
11
57.878108
21
2.912995
0
LINE
8
Image
10
57.878108
20
2.912995
11
58.107071
21
3.119976
0
LINE
8
Image
10
58.107071
20
3.119976
11
58.162387
21
3.495069
0
LINE
8
Image
10
58.162387
20
3.495069
11
58.162387
21
3.495069
0
LINE
8
Image
10
49.957885
20
5.489239
11
49.875766
21
6.481425
0
LINE
8
Image
10
49.875766
20
6.481425
11
48.420560
21
6.481425
0
LINE
8
Image
10
48.420560
20
6.481425
11
46.965353
21
6.481425
0
LINE
8
Image
10
46.965353
20
6.481425
11
46.883234
21
5.489239
0
LINE
8
Image
10
46.883234
20
5.489239
11
46.801118
21
4.497052
0
LINE
8
Image
10
46.801118
20
4.497052
11
48.420560
21
4.497052
0
LINE
8
Image
10
48.420560
20
4.497052
11
50.040001
21
4.497052
0
LINE
8
Image
10
50.040001
20
4.497052
11
49.957885
21
5.489239
0
LINE
8
Image
10
39.424738
20
6.766500
11
38.437279
21
7.530219
0
LINE
8
Image
10
38.437279
20
7.530219
11
37.780791
21
7.914405
0
LINE
8
Image
10
37.780791
20
7.914405
11
36.900836
21
8.114022
0
LINE
8
Image
10
36.900836
20
8.114022
11
32.237629
21
8.201214
0
LINE
8
Image
10
32.237629
20
8.201214
11
27.025439
21
8.201214
0
LINE
8
Image
10
27.025439
20
8.201214
11
27.096006
21
7.539334
0
LINE
8
Image
10
27.096006
20
7.539334
11
27.384960
21
6.679439
0
LINE
8
Image
10
27.384960
20
6.679439
11
27.475121
21
6.649951
0
LINE
8
Image
10
27.475121
20
6.649951
11
27.385224
21
6.857117
0
LINE
8
Image
10
27.385224
20
6.857117
11
27.314361
21
7.107515
0
LINE
8
Image
10
27.314361
20
7.107515
11
27.673535
21
6.992007
0
LINE
8
Image
10
27.673535
20
6.992007
11
29.862195
21
6.735521
0
LINE
8
Image
10
29.862195
20
6.735521
11
33.862499
21
6.587260
0
LINE
8
Image
10
33.862499
20
6.587260
11
37.706120
21
6.584995
0
LINE
8
Image
10
37.706120
20
6.584995
11
39.424732
21
6.766500
0
LINE
8
Image
10
39.424732
20
6.766500
11
39.424738
21
6.766500
0
LINE
8
Image
10
54.312334
20
7.819231
11
56.225758
21
9.122513
0
LINE
8
Image
10
56.225758
20
9.122513
11
57.019507
21
9.792066
0
LINE
8
Image
10
57.019507
20
9.792066
11
55.988372
21
10.711992
0
LINE
8
Image
10
55.988372
20
10.711992
11
54.606262
21
11.732896
0
LINE
8
Image
10
54.606262
20
11.732896
11
53.060497
21
12.381807
0
LINE
8
Image
10
53.060497
20
12.381807
11
51.119789
21
12.724507
0
LINE
8
Image
10
51.119789
20
12.724507
11
48.552851
21
12.826780
0
LINE
8
Image
10
48.552851
20
12.826780
11
45.428412
21
12.721380
0
LINE
8
Image
10
45.428412
20
12.721380
11
43.471550
21
12.208304
0
LINE
8
Image
10
43.471550
20
12.208304
11
42.017127
21
11.504865
0
LINE
8
Image
10
42.017127
20
11.504865
11
40.825720
21
10.688628
0
LINE
8
Image
10
40.825720
20
10.688628
11
39.821612
21
9.792066
0
LINE
8
Image
10
39.821612
20
9.792066
11
40.615361
21
9.118240
0
LINE
8
Image
10
40.615361
20
9.118240
11
43.213124
21
7.544922
0
LINE
8
Image
10
43.213124
20
7.544922
11
44.297226
21
7.029466
0
LINE
8
Image
10
44.297226
20
7.029466
11
45.138536
21
6.779495
0
LINE
8
Image
10
45.138536
20
6.779495
11
47.777181
21
6.801729
0
LINE
8
Image
10
47.777181
20
6.801729
11
49.845873
21
6.849876
0
LINE
8
Image
10
49.845873
20
6.849876
11
50.537224
21
6.682556
0
LINE
8
Image
10
50.537224
20
6.682556
11
50.927059
21
6.587991
0
LINE
8
Image
10
50.927059
20
6.587991
11
51.891377
21
6.807696
0
LINE
8
Image
10
51.891377
20
6.807696
11
54.312334
21
7.819231
0
LINE
8
Image
10
54.312334
20
7.819231
11
54.312334
21
7.819231
0
LINE
8
Image
10
52.435154
20
8.278261
11
52.328681
21
8.615560
0
LINE
8
Image
10
52.328681
20
8.615560
11
52.667339
21
8.941962
0
LINE
8
Image
10
52.667339
20
8.941962
11
53.080304
21
9.433076
0
LINE
8
Image
10
53.080304
20
9.433076
11
53.200132
21
10.080858
0
LINE
8
Image
10
53.200132
20
10.080858
11
53.033664
21
10.699548
0
LINE
8
Image
10
53.033664
20
10.699548
11
52.587742
21
11.103382
0
LINE
8
Image
10
52.587742
20
11.103382
11
52.263859
21
11.282596
0
LINE
8
Image
10
52.263859
20
11.282596
11
52.402534
21
11.359439
0
LINE
8
Image
10
52.402534
20
11.359439
11
52.745234
21
11.296873
0
LINE
8
Image
10
52.745234
20
11.296873
11
53.031400
21
11.101246
0
LINE
8
Image
10
53.031400
20
11.101246
11
53.397670
21
10.443792
0
LINE
8
Image
10
53.397670
20
10.443792
11
53.428430
21
9.653043
0
LINE
8
Image
10
53.428430
20
9.653043
11
53.050762
21
8.994963
0
LINE
8
Image
10
53.050762
20
8.994963
11
52.674534
21
8.449634
0
LINE
8
Image
10
52.674534
20
8.449634
11
52.793406
21
8.257353
0
LINE
8
Image
10
52.793406
20
8.257353
11
53.116908
21
8.119016
0
LINE
8
Image
10
53.116908
20
8.119016
11
53.415841
21
8.014598
0
LINE
8
Image
10
53.415841
20
8.014598
11
53.149303
21
7.967323
0
LINE
8
Image
10
53.149303
20
7.967323
11
52.761891
21
8.046001
0
LINE
8
Image
10
52.761891
20
8.046001
11
52.435154
21
8.278261
0
LINE
8
Image
10
52.435154
20
8.278261
11
52.435154
21
8.278261
0
LINE
8
Image
10
44.293859
20
9.375468
11
44.341817
21
10.049574
0
LINE
8
Image
10
44.341817
20
10.049574
11
44.248972
21
10.603256
0
LINE
8
Image
10
44.248972
20
10.603256
11
44.044002
21
10.949828
0
LINE
8
Image
10
44.044002
20
10.949828
11
43.755586
21
11.002604
0
LINE
8
Image
10
43.755586
20
11.002604
11
43.499850
21
10.979750
0
LINE
8
Image
10
43.499850
20
10.979750
11
43.393483
21
11.119931
0
LINE
8
Image
10
43.393483
20
11.119931
11
43.743228
21
11.300928
0
LINE
8
Image
10
43.743228
20
11.300928
11
44.584106
21
11.376210
0
LINE
8
Image
10
44.584106
20
11.376210
11
45.533492
21
11.285076
0
LINE
8
Image
10
45.533492
20
11.285076
11
45.721473
21
11.147180
0
LINE
8
Image
10
45.721473
20
11.147180
11
45.774730
21
10.926419
0
LINE
8
Image
10
45.774730
20
10.926419
11
45.708584
21
10.636480
0
LINE
8
Image
10
45.708584
20
10.636480
11
45.457230
21
10.794128
0
LINE
8
Image
10
45.457230
20
10.794128
11
45.105457
21
11.065115
0
LINE
8
Image
10
45.105457
20
11.065115
11
44.877020
21
11.024411
0
LINE
8
Image
10
44.877020
20
11.024411
11
44.716398
21
9.921004
0
LINE
8
Image
10
44.716398
20
9.921004
11
44.637156
21
9.080126
0
LINE
8
Image
10
44.637156
20
9.080126
11
44.446639
21
8.730380
0
LINE
8
Image
10
44.446639
20
8.730380
11
44.290486
21
8.919875
0
LINE
8
Image
10
44.290486
20
8.919875
11
44.293859
21
9.375468
0
LINE
8
Image
10
44.293859
20
9.375468
11
44.293859
21
9.375468
0
LINE
8
Image
10
47.410435
20
9.473361
11
47.571800
21
10.050160
0
LINE
8
Image
10
47.571800
20
10.050160
11
48.001693
21
10.200964
0
LINE
8
Image
10
48.001693
20
10.200964
11
48.410316
21
10.322344
0
LINE
8
Image
10
48.410316
20
10.322344
11
48.630141
21
10.648607
0
LINE
8
Image
10
48.630141
20
10.648607
11
48.534073
21
10.970877
0
LINE
8
Image
10
48.534073
20
10.970877
11
48.203958
21
11.119072
0
LINE
8
Image
10
48.203958
20
11.119072
11
47.820680
21
11.068452
0
LINE
8
Image
10
47.820680
20
11.068452
11
47.565123
21
10.794276
0
LINE
8
Image
10
47.565123
20
10.794276
11
47.441620
21
10.680519
0
LINE
8
Image
10
47.441620
20
10.680519
11
47.286798
21
10.926568
0
LINE
8
Image
10
47.286798
20
10.926568
11
47.300518
21
11.285725
0
LINE
8
Image
10
47.300518
20
11.285725
11
47.867301
21
11.376210
0
LINE
8
Image
10
47.867301
20
11.376210
11
48.502875
21
11.251218
0
LINE
8
Image
10
48.502875
20
11.251218
11
48.973488
21
10.950704
0
LINE
8
Image
10
48.973488
20
10.950704
11
49.181101
21
10.544170
0
LINE
8
Image
10
49.181101
20
10.544170
11
48.886197
21
10.203149
0
LINE
8
Image
10
48.886197
20
10.203149
11
48.603876
21
9.841670
0
LINE
8
Image
10
48.603876
20
9.841670
11
49.021126
21
9.305740
0
LINE
8
Image
10
49.021126
20
9.305740
11
49.333139
21
8.899392
0
LINE
8
Image
10
49.333139
20
8.899392
11
49.275348
21
8.730380
0
LINE
8
Image
10
49.275348
20
8.730380
11
48.951468
21
8.885823
0
LINE
8
Image
10
48.951468
20
8.885823
11
48.623741
21
9.259546
0
LINE
8
Image
10
48.623741
20
9.259546
11
48.283395
21
9.633270
0
LINE
8
Image
10
48.283395
20
9.633270
11
47.929181
21
9.788712
0
LINE
8
Image
10
47.929181
20
9.788712
11
47.695316
21
9.651570
0
LINE
8
Image
10
47.695316
20
9.651570
11
47.703474
21
9.259546
0
LINE
8
Image
10
47.703474
20
9.259546
11
47.729525
21
8.885823
0
LINE
8
Image
10
47.729525
20
8.885823
11
47.597839
21
8.730380
0
LINE
8
Image
10
47.597839
20
8.730380
11
47.442132
21
8.948630
0
LINE
8
Image
10
47.442132
20
8.948630
11
47.410435
21
9.473361
0
LINE
8
Image
10
47.410435
20
9.473361
11
47.410435
21
9.473361
0
LINE
8
Image
10
51.344252
20
9.111255
11
51.136619
21
9.606545
0
LINE
8
Image
10
51.136619
20
9.606545
11
51.124857
21
10.216706
0
LINE
8
Image
10
51.124857
20
10.216706
11
51.285618
21
10.760866
0
LINE
8
Image
10
51.285618
20
10.760866
11
51.595556
21
11.058150
0
LINE
8
Image
10
51.595556
20
11.058150
11
51.848828
21
11.084973
0
LINE
8
Image
10
51.848828
20
11.084973
11
51.661701
21
10.827200
0
LINE
8
Image
10
51.661701
20
10.827200
11
51.424575
21
10.419689
0
LINE
8
Image
10
51.424575
20
10.419689
11
51.342871
21
9.925710
0
LINE
8
Image
10
51.342871
20
9.925710
11
51.417274
21
9.437646
0
LINE
8
Image
10
51.417274
20
9.437646
11
51.648472
21
9.047880
0
LINE
8
Image
10
51.648472
20
9.047880
11
51.813159
21
8.730380
0
LINE
8
Image
10
51.813159
20
8.730380
11
51.344252
21
9.111255
0
LINE
8
Image
10
51.344252
20
9.111255
11
51.344252
21
9.111255
0
LINE
8
Image
10
42.887693
20
6.902366
11
41.903944
21
7.454658
0
LINE
8
Image
10
41.903944
20
7.454658
11
40.589741
21
8.406881
0
LINE
8
Image
10
40.589741
20
8.406881
11
37.557512
21
10.975264
0
LINE
8
Image
10
37.557512
20
10.975264
11
34.966086
21
13.535808
0
LINE
8
Image
10
34.966086
20
13.535808
11
34.202888
21
14.478232
0
LINE
8
Image
10
34.202888
20
14.478232
11
33.990547
21
15.016806
0
LINE
8
Image
10
33.990547
20
15.016806
11
34.018904
21
15.225930
0
LINE
8
Image
10
34.018904
20
15.225930
11
33.895442
21
15.229319
0
LINE
8
Image
10
33.895442
20
15.229319
11
33.622803
21
15.238636
0
LINE
8
Image
10
33.622803
20
15.238636
11
33.349082
21
15.476313
0
LINE
8
Image
10
33.349082
20
15.476313
11
33.174181
21
15.814184
0
LINE
8
Image
10
33.174181
20
15.814184
11
33.198002
21
16.124084
0
LINE
8
Image
10
33.198002
20
16.124084
11
33.216040
21
16.281109
0
LINE
8
Image
10
33.216040
20
16.281109
11
33.022342
21
16.275078
0
LINE
8
Image
10
33.022342
20
16.275078
11
32.617658
21
16.392780
0
LINE
8
Image
10
32.617658
20
16.392780
11
32.188369
21
16.830936
0
LINE
8
Image
10
32.188369
20
16.830936
11
31.904006
21
17.359822
0
LINE
8
Image
10
31.904006
20
17.359822
11
31.934097
21
17.749718
0
LINE
8
Image
10
31.934097
20
17.749718
11
32.167896
21
17.684016
0
LINE
8
Image
10
32.167896
20
17.684016
11
32.625194
21
17.292148
0
LINE
8
Image
10
32.625194
20
17.292148
11
34.060405
21
15.676077
0
LINE
8
Image
10
34.060405
20
15.676077
11
37.664287
21
11.668765
0
LINE
8
Image
10
37.664287
20
11.668765
11
39.383717
21
9.976948
0
LINE
8
Image
10
39.383717
20
9.976948
11
40.471105
21
10.907713
0
LINE
8
Image
10
40.471105
20
10.907713
11
41.659275
21
11.733715
0
LINE
8
Image
10
41.659275
20
11.733715
11
43.113024
21
12.411377
0
LINE
8
Image
10
43.113024
20
12.411377
11
44.812214
21
12.933037
0
LINE
8
Image
10
44.812214
20
12.933037
11
46.736706
21
13.291035
0
LINE
8
Image
10
46.736706
20
13.291035
11
49.433493
21
13.392849
0
LINE
8
Image
10
49.433493
20
13.392849
11
52.048722
21
13.003504
0
LINE
8
Image
10
52.048722
20
13.003504
11
54.413192
21
12.164728
0
LINE
8
Image
10
54.413192
20
12.164728
11
55.448517
21
11.589844
0
LINE
8
Image
10
55.448517
20
11.589844
11
56.357703
21
10.918250
0
LINE
8
Image
10
56.357703
20
10.918250
11
57.505993
21
9.935357
0
LINE
8
Image
10
57.505993
20
9.935357
11
59.991899
21
12.574010
0
LINE
8
Image
10
59.991899
20
12.574010
11
61.826025
21
14.416203
0
LINE
8
Image
10
61.826025
20
14.416203
11
62.744882
21
15.139962
0
LINE
8
Image
10
62.744882
20
15.139962
11
62.889816
21
15.159305
0
LINE
8
Image
10
62.889816
20
15.159305
11
62.863235
21
15.307900
0
LINE
8
Image
10
62.863235
20
15.307900
11
63.068134
21
15.867113
0
LINE
8
Image
10
63.068134
20
15.867113
11
63.769609
21
16.873686
0
LINE
8
Image
10
63.769609
20
16.873686
11
64.824706
21
18.466909
0
LINE
8
Image
10
64.824706
20
18.466909
11
64.654946
21
18.834344
0
LINE
8
Image
10
64.654946
20
18.834344
11
64.187648
21
19.373083
0
LINE
8
Image
10
64.187648
20
19.373083
11
62.612318
21
20.763364
0
LINE
8
Image
10
62.612318
20
20.763364
11
60.602485
21
22.235537
0
LINE
8
Image
10
60.602485
20
22.235537
11
58.661914
21
23.387386
0
LINE
8
Image
10
58.661914
20
23.387386
11
56.418808
21
24.400149
0
LINE
8
Image
10
56.418808
20
24.400149
11
54.415713
21
25.045676
0
LINE
8
Image
10
54.415713
20
25.045676
11
52.286130
21
25.413868
0
LINE
8
Image
10
52.286130
20
25.413868
11
49.663557
21
25.594625
0
LINE
8
Image
10
49.663557
20
25.594625
11
46.549441
21
25.557932
0
LINE
8
Image
10
46.549441
20
25.557932
11
43.658713
21
25.193627
0
LINE
8
Image
10
43.658713
20
25.193627
11
40.979192
21
24.499394
0
LINE
8
Image
10
40.979192
20
24.499394
11
38.498697
21
23.472921
0
LINE
8
Image
10
38.498697
20
23.472921
11
36.414461
21
22.241921
0
LINE
8
Image
10
36.414461
20
22.241921
11
34.305218
21
20.717989
0
LINE
8
Image
10
34.305218
20
20.717989
11
32.672144
21
19.295687
0
LINE
8
Image
10
32.672144
20
19.295687
11
32.190787
21
18.745948
0
LINE
8
Image
10
32.190787
20
18.745948
11
32.016414
21
18.369577
0
LINE
8
Image
10
32.016414
20
18.369577
11
31.912296
21
17.963302
0
LINE
8
Image
10
31.912296
20
17.963302
11
31.587950
21
17.999633
0
LINE
8
Image
10
31.587950
20
17.999633
11
30.206629
21
19.442776
0
LINE
8
Image
10
30.206629
20
19.442776
11
28.951567
21
20.811362
0
LINE
8
Image
10
28.951567
20
20.811362
11
28.463319
21
21.133939
0
LINE
8
Image
10
28.463319
20
21.133939
11
27.983700
21
21.285178
0
LINE
8
Image
10
27.983700
20
21.285178
11
22.192815
21
21.492905
0
LINE
8
Image
10
22.192815
20
21.492905
11
18.908477
21
21.471118
0
LINE
8
Image
10
18.908477
20
21.471118
11
17.464019
21
21.352192
0
LINE
8
Image
10
17.464019
20
21.352192
11
18.113782
21
20.492297
0
LINE
8
Image
10
18.113782
20
20.492297
11
18.559291
21
20.124133
0
LINE
8
Image
10
18.559291
20
20.124133
11
19.214635
21
19.930523
0
LINE
8
Image
10
19.214635
20
19.930523
11
22.757124
21
19.842866
0
LINE
8
Image
10
22.757124
20
19.842866
11
26.015972
21
19.758666
0
LINE
8
Image
10
26.015972
20
19.758666
11
27.465499
21
19.467213
0
LINE
8
Image
10
27.465499
20
19.467213
11
28.212532
21
18.934211
0
LINE
8
Image
10
28.212532
20
18.934211
11
29.189678
21
17.997682
0
LINE
8
Image
10
29.189678
20
17.997682
11
31.858600
21
14.888722
0
LINE
8
Image
10
31.858600
20
14.888722
11
33.661668
21
12.834526
0
LINE
8
Image
10
33.661668
20
12.834526
11
35.767547
21
10.732463
0
LINE
8
Image
10
35.767547
20
10.732463
11
37.848434
21
8.891272
0
LINE
8
Image
10
37.848434
20
8.891272
11
39.576526
21
7.619690
0
LINE
8
Image
10
39.576526
20
7.619690
11
41.062588
21
6.866235
0
LINE
8
Image
10
41.062588
20
6.866235
11
42.335151
21
6.653068
0
LINE
8
Image
10
42.335151
20
6.653068
11
43.202502
21
6.693385
0
LINE
8
Image
10
43.202502
20
6.693385
11
42.887693
21
6.902366
0
LINE
8
Image
10
42.887693
20
6.902366
11
42.887693
21
6.902366
0
LINE
8
Image
10
57.284090
20
13.492874
11
57.191802
21
13.815499
0
LINE
8
Image
10
57.191802
20
13.815499
11
57.297495
21
14.050122
0
LINE
8
Image
10
57.297495
20
14.050122
11
57.533938
21
14.134129
0
LINE
8
Image
10
57.533938
20
14.134129
11
57.833899
21
14.004909
0
LINE
8
Image
10
57.833899
20
14.004909
11
58.052906
21
13.718886
0
LINE
8
Image
10
58.052906
20
13.718886
11
58.059310
21
13.462895
0
LINE
8
Image
10
58.059310
20
13.462895
11
57.675244
21
13.237930
0
LINE
8
Image
10
57.675244
20
13.237930
11
57.284090
21
13.492874
0
LINE
8
Image
10
57.284090
20
13.492874
11
57.284090
21
13.492874
0
LINE
8
Image
10
39.092871
20
14.311720
11
38.816262
21
14.970516
0
LINE
8
Image
10
38.816262
20
14.970516
11
38.803023
21
15.409260
0
LINE
8
Image
10
38.803023
20
15.409260
11
38.849206
21
15.560909
0
LINE
8
Image
10
38.849206
20
15.560909
11
38.715470
21
15.529459
0
LINE
8
Image
10
38.715470
20
15.529459
11
38.390298
21
15.699937
0
LINE
8
Image
10
38.390298
20
15.699937
11
38.014714
21
16.302990
0
LINE
8
Image
10
38.014714
20
16.302990
11
37.746001
21
17.017080
0
LINE
8
Image
10
37.746001
20
17.017080
11
37.741445
21
17.520671
0
LINE
8
Image
10
37.741445
20
17.520671
11
37.788827
21
17.675354
0
LINE
8
Image
10
37.788827
20
17.675354
11
37.653413
21
17.643821
0
LINE
8
Image
10
37.653413
20
17.643821
11
37.359771
21
17.726094
0
LINE
8
Image
10
37.359771
20
17.726094
11
37.026729
21
18.154393
0
LINE
8
Image
10
37.026729
20
18.154393
11
36.823797
21
18.800621
0
LINE
8
Image
10
36.823797
20
18.800621
11
37.317583
21
19.321361
0
LINE
8
Image
10
37.317583
20
19.321361
11
39.253366
21
20.408637
0
LINE
8
Image
10
39.253366
20
20.408637
11
40.170979
21
20.773609
0
LINE
8
Image
10
40.170979
20
20.773609
11
40.641087
21
20.831377
0
LINE
8
Image
10
40.641087
20
20.831377
11
40.725290
21
20.614004
0
LINE
8
Image
10
40.725290
20
20.614004
11
40.537026
21
20.354643
0
LINE
8
Image
10
40.537026
20
20.354643
11
39.188208
21
19.576140
0
LINE
8
Image
10
39.188208
20
19.576140
11
38.348779
21
19.094890
0
LINE
8
Image
10
38.348779
20
19.094890
11
37.935828
21
18.644620
0
LINE
8
Image
10
37.935828
20
18.644620
11
37.913515
21
18.147310
0
LINE
8
Image
10
37.913515
20
18.147310
11
38.246002
21
17.524938
0
LINE
8
Image
10
38.246002
20
17.524938
11
38.654764
21
16.941347
0
LINE
8
Image
10
38.654764
20
16.941347
11
40.074934
21
17.742841
0
LINE
8
Image
10
40.074934
20
17.742841
11
41.203114
21
18.281521
0
LINE
8
Image
10
41.203114
20
18.281521
11
41.516926
21
18.330156
0
LINE
8
Image
10
41.516926
20
18.330156
11
41.684440
21
18.237979
0
LINE
8
Image
10
41.684440
20
18.237979
11
41.710343
21
17.957295
0
LINE
8
Image
10
41.710343
20
17.957295
11
41.509609
21
17.711198
0
LINE
8
Image
10
41.509609
20
17.711198
11
41.175194
21
17.567411
0
LINE
8
Image
10
41.175194
20
17.567411
11
40.800056
21
17.593660
0
LINE
8
Image
10
40.800056
20
17.593660
11
40.596343
21
17.618964
0
LINE
8
Image
10
40.596343
20
17.618964
11
40.590287
21
17.502189
0
LINE
8
Image
10
40.590287
20
17.502189
11
40.410775
21
17.217291
0
LINE
8
Image
10
40.410775
20
17.217291
11
39.790024
21
16.838383
0
LINE
8
Image
10
39.790024
20
16.838383
11
39.157580
21
16.466788
0
LINE
8
Image
10
39.157580
20
16.466788
11
38.949951
21
16.199471
0
LINE
8
Image
10
38.949951
20
16.199471
11
39.420655
21
15.212664
0
LINE
8
Image
10
39.420655
20
15.212664
11
39.827687
21
14.356169
0
LINE
8
Image
10
39.827687
20
14.356169
11
41.554692
21
15.199467
0
LINE
8
Image
10
41.554692
20
15.199467
11
42.892078
21
15.817098
0
LINE
8
Image
10
42.892078
20
15.817098
11
43.256081
21
15.884882
0
LINE
8
Image
10
43.256081
20
15.884882
11
43.439763
21
15.799235
0
LINE
8
Image
10
43.439763
20
15.799235
11
43.395694
21
15.602471
0
LINE
8
Image
10
43.395694
20
15.602471
11
43.088315
21
15.313444
0
LINE
8
Image
10
43.088315
20
15.313444
11
41.728578
21
14.492917
0
LINE
8
Image
10
41.728578
20
14.492917
11
39.692567
21
13.494547
0
LINE
8
Image
10
39.692567
20
13.494547
11
39.092871
21
14.311720
0
LINE
8
Image
10
39.092871
20
14.311720
11
39.092871
21
14.311720
0
LINE
8
Image
10
55.136070
20
14.669799
11
55.152462
21
15.158174
0
LINE
8
Image
10
55.152462
20
15.158174
11
55.398349
21
15.794276
0
LINE
8
Image
10
55.398349
20
15.794276
11
56.610038
21
18.177750
0
LINE
8
Image
10
56.610038
20
18.177750
11
57.412416
21
19.819921
0
LINE
8
Image
10
57.412416
20
19.819921
11
56.472916
21
20.265743
0
LINE
8
Image
10
56.472916
20
20.265743
11
55.831593
21
20.667605
0
LINE
8
Image
10
55.831593
20
20.667605
11
55.801243
21
20.979391
0
LINE
8
Image
10
55.801243
20
20.979391
11
56.607360
21
20.858082
0
LINE
8
Image
10
56.607360
20
20.858082
11
58.056475
21
20.229476
0
LINE
8
Image
10
58.056475
20
20.229476
11
59.443216
21
19.445042
0
LINE
8
Image
10
59.443216
20
19.445042
11
60.062212
21
18.856251
0
LINE
8
Image
10
60.062212
20
18.856251
11
60.003837
21
18.610634
0
LINE
8
Image
10
60.003837
20
18.610634
11
59.828077
21
18.537419
0
LINE
8
Image
10
59.828077
20
18.537419
11
59.120595
21
18.908411
0
LINE
8
Image
10
59.120595
20
18.908411
11
58.603647
21
19.219188
0
LINE
8
Image
10
58.603647
20
19.219188
11
58.203073
21
19.262884
0
LINE
8
Image
10
58.203073
20
19.262884
11
57.891468
21
19.032307
0
LINE
8
Image
10
57.891468
20
19.032307
11
57.641428
21
18.520265
0
LINE
8
Image
10
57.641428
20
18.520265
11
57.363941
21
18.005706
0
LINE
8
Image
10
57.363941
20
18.005706
11
57.085145
21
17.899688
0
LINE
8
Image
10
57.085145
20
17.899688
11
56.937643
21
17.940147
0
LINE
8
Image
10
56.937643
20
17.940147
11
56.979486
21
17.790959
0
LINE
8
Image
10
56.979486
20
17.790959
11
57.063988
21
17.445366
0
LINE
8
Image
10
57.063988
20
17.445366
11
56.984313
21
17.089774
0
LINE
8
Image
10
56.984313
20
17.089774
11
56.795861
21
16.847675
0
LINE
8
Image
10
56.795861
20
16.847675
11
56.554029
21
16.842562
0
LINE
8
Image
10
56.554029
20
16.842562
11
56.407704
21
16.880767
0
LINE
8
Image
10
56.407704
20
16.880767
11
56.459467
21
16.717825
0
LINE
8
Image
10
56.459467
20
16.717825
11
56.410510
21
16.220323
0
LINE
8
Image
10
56.410510
20
16.220323
11
56.112913
21
15.397667
0
LINE
8
Image
10
56.112913
20
15.397667
11
55.728308
21
14.627290
0
LINE
8
Image
10
55.728308
20
14.627290
11
55.418328
21
14.286623
0
LINE
8
Image
10
55.418328
20
14.286623
11
55.136070
21
14.669799
0
LINE
8
Image
10
55.136070
20
14.669799
11
55.136070
21
14.669799
0
LINE
8
Image
10
52.745190
20
15.753241
11
52.735903
21
16.308901
0
LINE
8
Image
10
52.735903
20
16.308901
11
52.944861
21
16.374861
0
LINE
8
Image
10
52.944861
20
16.374861
11
53.178663
21
16.262463
0
LINE
8
Image
10
53.178663
20
16.262463
11
53.447650
21
15.726215
0
LINE
8
Image
10
53.447650
20
15.726215
11
53.365700
21
15.443788
0
LINE
8
Image
10
53.365700
20
15.443788
11
53.170579
21
15.356102
0
LINE
8
Image
10
53.170579
20
15.356102
11
52.938381
21
15.460229
0
LINE
8
Image
10
52.938381
20
15.460229
11
52.745203
21
15.753241
0
LINE
8
Image
10
52.745203
20
15.753241
11
52.745190
21
15.753241
0
LINE
8
Image
10
44.451815
20
15.978105
11
44.567320
21
16.308234
0
LINE
8
Image
10
44.567320
20
16.308234
11
44.835174
21
16.482847
0
LINE
8
Image
10
44.835174
20
16.482847
11
45.137384
21
16.468725
0
LINE
8
Image
10
45.137384
20
16.468725
11
45.355958
21
16.232650
0
LINE
8
Image
10
45.355958
20
16.232650
11
45.470656
21
15.700400
0
LINE
8
Image
10
45.470656
20
15.700400
11
44.980981
21
15.609538
0
LINE
8
Image
10
44.980981
20
15.609538
11
44.607257
21
15.717805
0
LINE
8
Image
10
44.607257
20
15.717805
11
44.451815
21
15.978105
0
LINE
8
Image
10
44.451815
20
15.978105
11
44.451815
21
15.978105
0
LINE
8
Image
10
46.568479
20
19.049117
11
46.568479
21
22.224113
0
LINE
8
Image
10
46.568479
20
22.224113
11
48.817434
21
22.224113
0
LINE
8
Image
10
48.817434
20
22.224113
11
50.438005
21
22.150186
0
LINE
8
Image
10
50.438005
20
22.150186
11
51.066390
21
21.959530
0
LINE
8
Image
10
51.066390
20
21.959530
11
50.537224
21
21.770542
0
LINE
8
Image
10
50.537224
20
21.770542
11
49.214309
21
21.694947
0
LINE
8
Image
10
49.214309
20
21.694947
11
47.362228
21
21.694947
0
LINE
8
Image
10
47.362228
20
21.694947
11
47.362228
21
20.636615
0
LINE
8
Image
10
47.362228
20
20.636615
11
47.362228
21
19.578283
0
LINE
8
Image
10
47.362228
20
19.578283
11
49.082017
21
19.578283
0
LINE
8
Image
10
49.082017
20
19.578283
11
50.437036
21
19.497486
0
LINE
8
Image
10
50.437036
20
19.497486
11
50.718761
21
19.380249
0
LINE
8
Image
10
50.718761
20
19.380249
11
50.801807
21
19.197349
0
LINE
8
Image
10
50.801807
20
19.197349
11
50.720448
21
19.014558
0
LINE
8
Image
10
50.720448
20
19.014558
11
50.441587
21
18.901594
0
LINE
8
Image
10
50.441587
20
18.901594
11
49.082636
21
18.842008
0
LINE
8
Image
10
49.082636
20
18.842008
11
47.362847
21
18.693777
0
LINE
8
Image
10
47.362847
20
18.693777
11
47.362318
21
17.605502
0
LINE
8
Image
10
47.362318
20
17.605502
11
47.362318
21
16.691053
0
LINE
8
Image
10
47.362318
20
16.691053
11
49.259380
21
16.613316
0
LINE
8
Image
10
49.259380
20
16.613316
11
50.695056
21
16.470284
0
LINE
8
Image
10
50.695056
20
16.470284
11
51.265801
21
16.204850
0
LINE
8
Image
10
51.265801
20
16.204850
11
51.195784
21
16.048407
0
LINE
8
Image
10
51.195784
20
16.048407
11
50.826340
21
15.946360
0
LINE
8
Image
10
50.826340
20
15.946360
11
48.971863
21
15.874121
0
LINE
8
Image
10
48.971863
20
15.874121
11
46.568479
21
15.874121
0
LINE
8
Image
10
46.568479
20
15.874121
11
46.568479
21
19.049117
0
LINE
8
Image
10
34.952033
20
8.838534
11
36.032416
21
8.900788
0
LINE
8
Image
10
36.032416
20
8.900788
11
36.525469
21
8.901704
0
LINE
8
Image
10
36.525469
20
8.901704
11
36.690714
21
9.141132
0
LINE
8
Image
10
36.690714
20
9.141132
11
36.632527
21
9.359223
0
LINE
8
Image
10
36.632527
20
9.359223
11
36.492631
21
9.378429
0
LINE
8
Image
10
36.492631
20
9.378429
11
36.132420
21
9.477164
0
LINE
8
Image
10
36.132420
20
9.477164
11
35.544541
21
9.886458
0
LINE
8
Image
10
35.544541
20
9.886458
11
35.069881
21
10.223653
0
LINE
8
Image
10
35.069881
20
10.223653
11
34.517633
21
10.412773
0
LINE
8
Image
10
34.517633
20
10.412773
11
32.347142
21
10.509020
0
LINE
8
Image
10
32.347142
20
10.509020
11
29.899752
21
10.323334
0
LINE
8
Image
10
29.899752
20
10.323334
11
30.135673
21
9.866593
0
LINE
8
Image
10
30.135673
20
9.866593
11
30.726675
21
9.400247
0
LINE
8
Image
10
30.726675
20
9.400247
11
31.497618
21
9.031663
0
LINE
8
Image
10
31.497618
20
9.031663
11
32.273363
21
8.868210
0
LINE
8
Image
10
32.273363
20
8.868210
11
33.465051
21
8.692852
0
LINE
8
Image
10
33.465051
20
8.692852
11
34.060786
21
8.610377
0
LINE
8
Image
10
34.060786
20
8.610377
11
34.952033
21
8.838534
0
LINE
8
Image
10
34.952033
20
8.838534
11
34.952033
21
8.838534
0
LINE
8
Image
10
29.714055
20
8.897459
11
29.739793
21
9.161153
0
LINE
8
Image
10
29.739793
20
9.161153
11
29.598288
21
9.587770
0
LINE
8
Image
10
29.598288
20
9.587770
11
29.082045
21
10.323820
0
LINE
8
Image
10
29.082045
20
10.323820
11
25.995731
21
10.431117
0
LINE
8
Image
10
25.995731
20
10.431117
11
24.008590
21
10.358794
0
LINE
8
Image
10
24.008590
20
10.358794
11
23.076728
21
10.224776
0
LINE
8
Image
10
23.076728
20
10.224776
11
23.250557
21
9.648329
0
LINE
8
Image
10
23.250557
20
9.648329
11
23.946635
21
9.045692
0
LINE
8
Image
10
23.946635
20
9.045692
11
25.040070
21
8.849777
0
LINE
8
Image
10
25.040070
20
8.849777
11
26.928543
21
8.745302
0
LINE
8
Image
10
26.928543
20
8.745302
11
28.767916
21
8.753965
0
LINE
8
Image
10
28.767916
20
8.753965
11
29.714055
21
8.897459
0
LINE
8
Image
10
29.714055
20
8.897459
11
29.714055
21
8.897459
0
LINE
8
Image
10
73.616206
20
9.603249
11
74.079226
21
10.384024
0
LINE
8
Image
10
74.079226
20
10.384024
11
73.152720
21
10.524170
0
LINE
8
Image
10
73.152720
20
10.524170
11
70.916909
21
10.582461
0
LINE
8
Image
10
70.916909
20
10.582461
11
67.748708
21
10.582461
0
LINE
8
Image
10
67.748708
20
10.582461
11
67.345039
21
9.801851
0
LINE
8
Image
10
67.345039
20
9.801851
11
66.940851
21
8.941957
0
LINE
8
Image
10
66.940851
20
8.941957
11
70.049701
21
8.941793
0
LINE
8
Image
10
70.049701
20
8.941793
11
72.741085
21
9.100218
0
LINE
8
Image
10
72.741085
20
9.100218
11
73.282096
21
9.285738
0
LINE
8
Image
10
73.282096
20
9.285738
11
73.616206
21
9.603249
0
LINE
8
Image
10
73.616206
20
9.603249
11
73.616206
21
9.603249
0
LINE
8
Image
10
68.727305
20
11.583956
11
69.147744
21
11.937955
0
LINE
8
Image
10
69.147744
20
11.937955
11
69.322617
21
12.311560
0
LINE
8
Image
10
69.322617
20
12.311560
11
69.210239
21
12.504923
0
LINE
8
Image
10
69.210239
20
12.504923
11
68.800117
21
12.623392
0
LINE
8
Image
10
68.800117
20
12.623392
11
66.648720
21
12.699125
0
LINE
8
Image
10
66.648720
20
12.699125
11
64.284260
21
12.603634
0
LINE
8
Image
10
64.284260
20
12.603634
11
63.804075
21
12.404954
0
LINE
8
Image
10
63.804075
20
12.404954
11
63.452538
21
12.035147
0
LINE
8
Image
10
63.452538
20
12.035147
11
63.025129
21
11.602394
0
LINE
8
Image
10
63.025129
20
11.602394
11
62.730952
21
11.494342
0
LINE
8
Image
10
62.730952
20
11.494342
11
62.590022
21
11.487601
0
LINE
8
Image
10
62.590022
20
11.487601
11
62.531059
21
11.298426
0
LINE
8
Image
10
62.531059
20
11.298426
11
62.763338
21
11.167396
0
LINE
8
Image
10
62.763338
20
11.167396
11
63.383212
21
11.094722
0
LINE
8
Image
10
63.383212
20
11.094722
11
65.320415
21
11.103000
0
LINE
8
Image
10
65.320415
20
11.103000
11
67.412001
21
11.280374
0
LINE
8
Image
10
67.412001
20
11.280374
11
68.727305
21
11.583956
0
LINE
8
Image
10
68.727305
20
11.583956
11
68.727305
21
11.583956
0
LINE
8
Image
10
26.857048
20
11.905376
11
26.446584
21
12.699125
0
LINE
8
Image
10
26.446584
20
12.699125
11
22.881508
21
12.699125
0
LINE
8
Image
10
22.881508
20
12.699125
11
20.000101
21
12.625894
0
LINE
8
Image
10
20.000101
20
12.625894
11
19.461400
21
12.509339
0
LINE
8
Image
10
19.461400
20
12.509339
11
19.316432
21
12.317254
0
LINE
8
Image
10
19.316432
20
12.317254
11
19.537560
21
11.738992
0
LINE
8
Image
10
19.537560
20
11.738992
11
20.286403
21
11.367878
0
LINE
8
Image
10
20.286403
20
11.367878
11
21.691156
21
11.170046
0
LINE
8
Image
10
21.691156
20
11.170046
11
23.880009
21
11.111627
0
LINE
8
Image
10
23.880009
20
11.111627
11
27.267511
21
11.111627
0
LINE
8
Image
10
27.267511
20
11.111627
11
26.857048
21
11.905376
0
LINE
8
Image
10
33.557890
20
11.890737
11
33.158422
21
12.337185
0
LINE
8
Image
10
33.158422
20
12.337185
11
32.672296
21
12.570598
0
LINE
8
Image
10
32.672296
20
12.570598
11
30.246097
21
12.684486
0
LINE
8
Image
10
30.246097
20
12.684486
11
28.297604
21
12.623327
0
LINE
8
Image
10
28.297604
20
12.623327
11
27.399308
21
12.455728
0
LINE
8
Image
10
27.399308
20
12.455728
11
27.498594
21
12.122163
0
LINE
8
Image
10
27.498594
20
12.122163
11
27.948540
21
11.661979
0
LINE
8
Image
10
27.948540
20
11.661979
11
28.408532
21
11.374499
0
LINE
8
Image
10
28.408532
20
11.374499
11
29.008323
21
11.207703
0
LINE
8
Image
10
29.008323
20
11.207703
11
31.410765
21
11.111627
0
LINE
8
Image
10
31.410765
20
11.111627
11
34.173326
21
11.111627
0
LINE
8
Image
10
34.173326
20
11.111627
11
33.557890
21
11.890737
0
LINE
8
Image
10
77.079063
20
11.415819
11
77.782584
21
11.940880
0
LINE
8
Image
10
77.782584
20
11.940880
11
78.049805
21
12.500688
0
LINE
8
Image
10
78.049805
20
12.500688
11
76.934604
21
12.640834
0
LINE
8
Image
10
76.934604
20
12.640834
11
74.247832
21
12.699125
0
LINE
8
Image
10
74.247832
20
12.699125
11
70.881697
21
12.614219
0
LINE
8
Image
10
70.881697
20
12.614219
11
70.325924
21
12.420189
0
LINE
8
Image
10
70.325924
20
12.420189
11
70.014504
21
12.046976
0
LINE
8
Image
10
70.014504
20
12.046976
11
69.587200
21
11.253227
0
LINE
8
Image
10
69.587200
20
11.253227
11
70.677224
21
11.114225
0
LINE
8
Image
10
70.677224
20
11.114225
11
73.118255
21
11.112981
0
LINE
8
Image
10
73.118255
20
11.112981
11
75.666723
21
11.222509
0
LINE
8
Image
10
75.666723
20
11.222509
11
77.079063
21
11.415819
0
LINE
8
Image
10
77.079063
20
11.415819
11
77.079063
21
11.415819
0
LINE
8
Image
10
31.698533
20
14.037542
11
31.123152
21
14.815789
0
LINE
8
Image
10
31.123152
20
14.815789
11
27.865622
21
14.815789
0
LINE
8
Image
10
27.865622
20
14.815789
11
25.564991
21
14.747584
0
LINE
8
Image
10
25.564991
20
14.747584
11
24.608092
21
14.583603
0
LINE
8
Image
10
24.608092
20
14.583603
11
25.002054
21
14.024458
0
LINE
8
Image
10
25.002054
20
14.024458
11
25.242177
21
13.731876
0
LINE
8
Image
10
25.242177
20
13.731876
11
25.266272
21
13.487570
0
LINE
8
Image
10
25.266272
20
13.487570
11
25.342343
21
13.383163
0
LINE
8
Image
10
25.342343
20
13.383163
11
25.707432
21
13.426935
0
LINE
8
Image
10
25.707432
20
13.426935
11
26.066837
21
13.461841
0
LINE
8
Image
10
26.066837
20
13.461841
11
26.129238
21
13.336115
0
LINE
8
Image
10
26.129238
20
13.336115
11
26.905715
21
13.186357
0
LINE
8
Image
10
26.905715
20
13.186357
11
29.127027
21
13.177647
0
LINE
8
Image
10
29.127027
20
13.177647
11
32.273916
21
13.259295
0
LINE
8
Image
10
32.273916
20
13.259295
11
31.698533
21
14.037542
0
LINE
8
Image
10
24.211218
20
14.022040
11
23.800754
21
14.815789
0
LINE
8
Image
10
23.800754
20
14.815789
11
19.441929
21
14.815789
0
LINE
8
Image
10
19.441929
20
14.815789
11
16.324237
21
14.745920
0
LINE
8
Image
10
16.324237
20
14.745920
11
15.083104
21
14.570410
0
LINE
8
Image
10
15.083104
20
14.570410
11
15.780243
21
13.776661
0
LINE
8
Image
10
15.780243
20
13.776661
11
16.271056
21
13.479694
0
LINE
8
Image
10
16.271056
20
13.479694
11
17.009001
21
13.314668
0
LINE
8
Image
10
17.009001
20
13.314668
11
20.549532
21
13.228291
0
LINE
8
Image
10
20.549532
20
13.228291
11
24.621681
21
13.228291
0
LINE
8
Image
10
24.621681
20
13.228291
11
24.211218
21
14.022040
0
LINE
8
Image
10
71.758034
20
13.958619
11
72.149481
21
14.521668
0
LINE
8
Image
10
72.149481
20
14.521668
11
72.104555
21
14.720088
0
LINE
8
Image
10
72.104555
20
14.720088
11
71.880933
21
14.870479
0
LINE
8
Image
10
71.880933
20
14.870479
11
70.842817
21
15.049300
0
LINE
8
Image
10
70.842817
20
15.049300
11
68.925557
21
15.102375
0
LINE
8
Image
10
68.925557
20
15.102375
11
66.353085
21
15.010590
0
LINE
8
Image
10
66.353085
20
15.010590
11
65.848523
21
14.790575
0
LINE
8
Image
10
65.848523
20
14.790575
11
65.450611
21
14.366738
0
LINE
8
Image
10
65.450611
20
14.366738
11
64.834220
21
13.431673
0
LINE
8
Image
10
64.834220
20
13.431673
11
65.759658
21
13.314660
0
LINE
8
Image
10
65.759658
20
13.314660
11
67.998016
21
13.305045
0
LINE
8
Image
10
67.998016
20
13.305045
11
70.757005
21
13.455179
0
LINE
8
Image
10
70.757005
20
13.455179
11
71.350618
21
13.640722
0
LINE
8
Image
10
71.350618
20
13.640722
11
71.758034
21
13.958619
0
LINE
8
Image
10
71.758034
20
13.958619
11
71.758034
21
13.958619
0
LINE
8
Image
10
81.284925
20
13.625794
11
81.869728
21
14.270208
0
LINE
8
Image
10
81.869728
20
14.270208
11
82.017585
21
14.677002
0
LINE
8
Image
10
82.017585
20
14.677002
11
81.972642
21
14.953941
0
LINE
8
Image
10
81.972642
20
14.953941
11
75.011151
21
15.067790
0
LINE
8
Image
10
75.011151
20
15.067790
11
73.952819
21
15.063546
0
LINE
8
Image
10
73.952819
20
15.063546
11
73.231845
21
14.931991
0
LINE
8
Image
10
73.231845
20
14.931991
11
72.719947
21
14.316803
0
LINE
8
Image
10
72.719947
20
14.316803
11
72.461088
21
13.709523
0
LINE
8
Image
10
72.461088
20
13.709523
11
72.455364
21
13.349742
0
LINE
8
Image
10
72.455364
20
13.349742
11
73.836560
21
13.262567
0
LINE
8
Image
10
73.836560
20
13.262567
11
76.713827
21
13.309071
0
LINE
8
Image
10
76.713827
20
13.309071
11
79.669253
21
13.444924
0
LINE
8
Image
10
79.669253
20
13.444924
11
81.284925
21
13.625795
0
LINE
8
Image
10
81.284925
20
13.625795
11
81.284925
21
13.625794
0
LINE
8
Image
10
21.550349
20
16.204850
11
21.312576
21
16.865765
0
LINE
8
Image
10
21.312576
20
16.865765
11
15.863796
21
16.942614
0
LINE
8
Image
10
15.863796
20
16.942614
11
10.399346
21
16.834801
0
LINE
8
Image
10
10.399346
20
16.834801
11
10.827728
21
16.160753
0
LINE
8
Image
10
10.827728
20
16.160753
11
11.254449
21
15.854827
0
LINE
8
Image
10
11.254449
20
15.854827
11
12.052267
21
15.689769
0
LINE
8
Image
10
12.052267
20
15.689769
11
16.556140
21
15.609538
0
LINE
8
Image
10
16.556140
20
15.609538
11
21.733338
21
15.609538
0
LINE
8
Image
10
21.733338
20
15.609538
11
21.550349
21
16.204850
0
LINE
8
Image
10
30.164335
20
15.833114
11
29.628917
21
16.541238
0
LINE
8
Image
10
29.628917
20
16.541238
11
29.275642
21
16.975328
0
LINE
8
Image
10
29.275642
20
16.975328
11
29.430480
21
17.268661
0
LINE
8
Image
10
29.430480
20
17.268661
11
29.545806
21
17.397001
0
LINE
8
Image
10
29.545806
20
17.397001
11
29.238295
21
17.306846
0
LINE
8
Image
10
29.238295
20
17.306846
11
25.335762
21
17.083450
0
LINE
8
Image
10
25.335762
20
17.083450
11
23.242606
21
17.029771
0
LINE
8
Image
10
23.242606
20
17.029771
11
22.163465
21
16.866450
0
LINE
8
Image
10
22.163465
20
16.866450
11
21.965328
21
16.728872
0
LINE
8
Image
10
21.965328
20
16.728872
11
21.974107
21
16.546121
0
LINE
8
Image
10
21.974107
20
16.546121
11
22.550300
21
16.021416
0
LINE
8
Image
10
22.550300
20
16.021416
11
22.998473
21
15.820973
0
LINE
8
Image
10
22.998473
20
15.820973
11
23.741776
21
15.694511
0
LINE
8
Image
10
23.741776
20
15.694511
11
26.651337
21
15.609538
0
LINE
8
Image
10
26.651337
20
15.609538
11
29.132392
21
15.675214
0
LINE
8
Image
10
29.132392
20
15.675214
11
30.164335
21
15.833114
0
LINE
8
Image
10
30.164335
20
15.833114
11
30.164335
21
15.833114
0
LINE
8
Image
10
74.283548
20
16.135804
11
74.890849
21
16.584946
0
LINE
8
Image
10
74.890849
20
16.584946
11
75.143443
21
16.928564
0
LINE
8
Image
10
75.143443
20
16.928564
11
74.501348
21
17.128832
0
LINE
8
Image
10
74.501348
20
17.128832
11
72.828341
21
17.219593
0
LINE
8
Image
10
72.828341
20
17.219593
11
68.481227
21
17.149113
0
LINE
8
Image
10
68.481227
20
17.149113
11
67.632979
21
16.948077
0
LINE
8
Image
10
67.632979
20
16.948077
11
67.173957
21
16.580652
0
LINE
8
Image
10
67.173957
20
16.580652
11
66.685589
21
15.807975
0
LINE
8
Image
10
66.685589
20
15.807975
11
67.670318
21
15.668120
0
LINE
8
Image
10
67.670318
20
15.668120
11
70.050220
21
15.610527
0
LINE
8
Image
10
70.050220
20
15.610527
11
72.976111
21
15.704690
0
LINE
8
Image
10
72.976111
20
15.704690
11
73.717920
21
15.863956
0
LINE
8
Image
10
73.717920
20
15.863956
11
74.283548
21
16.135804
0
LINE
8
Image
10
74.283548
20
16.135804
11
74.283548
21
16.135804
0
LINE
8
Image
10
86.255929
20
16.138704
11
86.785095
21
16.932453
0
LINE
8
Image
10
86.785095
20
16.932453
11
85.370569
21
17.127646
0
LINE
8
Image
10
85.370569
20
17.127646
11
81.391573
21
17.197036
0
LINE
8
Image
10
81.391573
20
17.197036
11
75.998051
21
17.197036
0
LINE
8
Image
10
75.998051
20
17.197036
11
75.570747
21
16.544887
0
LINE
8
Image
10
75.570747
20
16.544887
11
75.143443
21
15.751138
0
LINE
8
Image
10
75.143443
20
15.751138
11
80.435103
21
15.609538
0
LINE
8
Image
10
80.435103
20
15.609538
11
85.012389
21
15.688913
0
LINE
8
Image
10
85.012389
20
15.688913
11
85.832596
21
15.847663
0
LINE
8
Image
10
85.832596
20
15.847663
11
86.255929
21
16.138704
0
LINE
8
Image
10
86.255929
20
16.138704
11
86.255929
21
16.138704
0
LINE
8
Image
10
19.407149
20
18.098520
11
18.907440
21
18.813275
0
LINE
8
Image
10
18.907440
20
18.813275
11
18.250194
21
19.106716
0
LINE
8
Image
10
18.250194
20
19.106716
11
11.514110
21
19.192091
0
LINE
8
Image
10
11.514110
20
19.192091
11
7.514784
21
19.104678
0
LINE
8
Image
10
7.514784
20
19.104678
11
5.646336
21
18.960196
0
LINE
8
Image
10
5.646336
20
18.960196
11
5.674083
21
18.655213
0
LINE
8
Image
10
5.674083
20
18.655213
11
6.050448
21
18.232593
0
LINE
8
Image
10
6.050448
20
18.232593
11
6.554958
21
17.956798
0
LINE
8
Image
10
6.554958
20
17.956798
11
7.527014
21
17.804048
0
LINE
8
Image
10
7.527014
20
17.804048
11
12.797315
21
17.722151
0
LINE
8
Image
10
12.797315
20
17.722151
11
17.282766
21
17.645938
0
LINE
8
Image
10
17.282766
20
17.645938
11
19.316432
21
17.461619
0
LINE
8
Image
10
19.316432
20
17.461619
11
19.775172
21
17.201088
0
LINE
8
Image
10
19.775172
20
17.201088
11
19.407149
21
18.098520
0
LINE
8
Image
10
19.407149
20
18.098520
11
19.407149
21
18.098520
0
LINE
8
Image
10
28.312254
20
17.994674
11
28.059660
21
18.338292
0
LINE
8
Image
10
28.059660
20
18.338292
11
27.452359
21
18.787434
0
LINE
8
Image
10
27.452359
20
18.787434
11
26.304530
21
19.205484
0
LINE
8
Image
10
26.304530
20
19.205484
11
24.314292
21
19.312711
0
LINE
8
Image
10
24.314292
20
19.312711
11
20.797639
21
19.143948
0
LINE
8
Image
10
20.797639
20
19.143948
11
19.559160
21
18.974195
0
LINE
8
Image
10
19.559160
20
18.974195
11
20.145374
21
18.350199
0
LINE
8
Image
10
20.145374
20
18.350199
11
20.554816
21
17.999875
0
LINE
8
Image
10
20.554816
20
17.999875
11
21.179681
21
17.813468
0
LINE
8
Image
10
21.179681
20
17.813468
11
24.521921
21
17.726202
0
LINE
8
Image
10
24.521921
20
17.726202
11
27.312252
21
17.797033
0
LINE
8
Image
10
27.312252
20
17.797033
11
28.312254
21
17.994674
0
LINE
8
Image
10
28.312254
20
17.994674
11
28.312254
21
17.994674
0
LINE
8
Image
10
76.549897
20
18.030395
11
77.256778
21
18.559364
0
LINE
8
Image
10
77.256778
20
18.559364
11
77.520639
21
19.130347
0
LINE
8
Image
10
77.520639
20
19.130347
11
76.316378
21
19.266164
0
LINE
8
Image
10
76.316378
20
19.266164
11
73.415480
21
19.292862
0
LINE
8
Image
10
73.415480
20
19.292862
11
70.554116
21
19.216070
0
LINE
8
Image
10
70.554116
20
19.216070
11
69.445050
21
19.103072
0
LINE
8
Image
10
69.445050
20
19.103072
11
69.388118
21
18.896527
0
LINE
8
Image
10
69.388118
20
18.896527
11
69.056351
21
18.594826
0
LINE
8
Image
10
69.056351
20
18.594826
11
68.528868
21
17.975782
0
LINE
8
Image
10
68.528868
20
17.975782
11
69.682509
21
17.776557
0
LINE
8
Image
10
69.682509
20
17.776557
11
72.273665
21
17.725172
0
LINE
8
Image
10
72.273665
20
17.725172
11
74.997679
21
17.812746
0
LINE
8
Image
10
74.997679
20
17.812746
11
76.549897
21
18.030395
0
LINE
8
Image
10
76.549897
20
18.030395
11
76.549897
21
18.030395
0
LINE
8
Image
10
91.043725
20
18.273385
11
91.812172
21
19.067134
0
LINE
8
Image
10
91.812172
20
19.067134
11
89.954255
21
19.244665
0
LINE
8
Image
10
89.954255
20
19.244665
11
85.131451
21
19.312027
0
LINE
8
Image
10
85.131451
20
19.312027
11
78.450730
21
19.310361
0
LINE
8
Image
10
78.450730
20
19.310361
11
78.000016
21
18.518284
0
LINE
8
Image
10
78.000016
20
18.518284
11
77.549301
21
17.726202
0
LINE
8
Image
10
77.549301
20
17.726202
11
83.912289
21
17.726202
0
LINE
8
Image
10
83.912289
20
17.726202
11
89.459153
21
17.806025
0
LINE
8
Image
10
89.459153
20
17.806025
11
90.468275
21
17.969897
0
LINE
8
Image
10
90.468275
20
17.969897
11
91.043725
21
18.273385
0
LINE
8
Image
10
91.043725
20
18.273385
11
91.043725
21
18.273385
0
LINE
8
Image
10
17.354279
20
20.173595
11
17.036788
21
20.967344
0
LINE
8
Image
10
17.036788
20
20.967344
11
16.772529
21
21.218407
0
LINE
8
Image
10
16.772529
20
21.218407
11
15.899870
21
21.357713
0
LINE
8
Image
10
15.899870
20
21.357713
11
10.505242
21
21.430364
0
LINE
8
Image
10
10.505242
20
21.430364
11
4.922241
21
21.508846
0
LINE
8
Image
10
4.922241
20
21.508846
11
3.997585
21
21.680456
0
LINE
8
Image
10
3.997585
20
21.680456
11
3.524651
21
22.005651
0
LINE
8
Image
10
3.524651
20
22.005651
11
2.912286
21
22.580937
0
LINE
8
Image
10
2.912286
20
22.580937
11
2.912286
21
21.861333
0
LINE
8
Image
10
2.912286
20
21.861333
11
3.097823
21
21.161776
0
LINE
8
Image
10
3.097823
20
21.161776
11
3.561717
21
20.492297
0
LINE
8
Image
10
3.561717
20
20.492297
11
4.211148
21
19.842866
0
LINE
8
Image
10
4.211148
20
19.842866
11
10.859798
21
19.842866
0
LINE
8
Image
10
10.859798
20
19.842866
11
16.111754
21
19.910769
0
LINE
8
Image
10
16.111754
20
19.910769
11
17.125358
21
20.012274
0
LINE
8
Image
10
17.125358
20
20.012274
11
17.354279
21
20.173595
0
LINE
8
Image
10
17.354279
20
20.173595
11
17.354279
21
20.173595
0
LINE
8
Image
10
93.658006
20
20.513926
11
94.111844
21
21.147294
0
LINE
8
Image
10
94.111844
20
21.147294
11
94.444802
21
21.913504
0
LINE
8
Image
10
94.444802
20
21.913504
11
94.691679
21
22.774312
0
LINE
8
Image
10
94.691679
20
22.774312
11
93.893083
21
22.102339
0
LINE
8
Image
10
93.893083
20
22.102339
11
93.094486
21
21.430364
0
LINE
8
Image
10
93.094486
20
21.430364
11
86.807264
21
21.430364
0
LINE
8
Image
10
86.807264
20
21.430364
11
80.520042
21
21.430364
0
LINE
8
Image
10
80.520042
20
21.430364
11
80.212990
21
20.756457
0
LINE
8
Image
10
80.212990
20
20.756457
11
79.906069
21
20.028854
0
LINE
8
Image
10
79.906069
20
20.028854
11
86.512145
21
19.975158
0
LINE
8
Image
10
86.512145
20
19.975158
11
92.251739
21
20.052104
0
LINE
8
Image
10
92.251739
20
20.052104
11
93.209327
21
20.213251
0
LINE
8
Image
10
93.209327
20
20.213251
11
93.658006
21
20.513926
0
LINE
8
Image
10
93.658006
20
20.513926
11
93.658006
21
20.513926
0
LINE
8
Image
10
57.419692
20
27.449627
11
58.338235
21
29.232348
0
LINE
8
Image
10
58.338235
20
29.232348
11
58.969434
21
30.263326
0
LINE
8
Image
10
58.969434
20
30.263326
11
59.260451
21
30.607230
0
LINE
8
Image
10
59.260451
20
30.607230
11
59.009206
21
29.906972
0
LINE
8
Image
10
59.009206
20
29.906972
11
58.927247
21
29.483081
0
LINE
8
Image
10
58.927247
20
29.483081
11
59.418248
21
29.254814
0
LINE
8
Image
10
59.418248
20
29.254814
11
60.379843
21
29.268348
0
LINE
8
Image
10
60.379843
20
29.268348
11
60.541599
21
29.316375
0
LINE
8
Image
10
60.541599
20
29.316375
11
60.481742
21
29.139927
0
LINE
8
Image
10
60.481742
20
29.139927
11
60.078284
21
28.947904
0
LINE
8
Image
10
60.078284
20
28.947904
11
59.355053
21
28.933309
0
LINE
8
Image
10
59.355053
20
28.933309
11
58.509116
21
28.878172
0
LINE
8
Image
10
58.509116
20
28.878172
11
58.046811
21
28.143784
0
LINE
8
Image
10
58.046811
20
28.143784
11
57.599744
21
27.312774
0
LINE
8
Image
10
57.599744
20
27.312774
11
57.465471
21
27.248186
0
LINE
8
Image
10
57.465471
20
27.248186
11
57.419692
21
27.449627
0
LINE
8
Image
10
57.419692
20
27.449627
11
57.419692
21
27.449627
0
LINE
8
Image
10
48.473476
20
27.833273
11
48.221030
21
28.553199
0
LINE
8
Image
10
48.221030
20
28.553199
11
48.268350
21
29.551688
0
LINE
8
Image
10
48.268350
20
29.551688
11
48.536414
21
30.372815
0
LINE
8
Image
10
48.536414
20
30.372815
11
48.728530
21
30.574392
0
LINE
8
Image
10
48.728530
20
30.574392
11
48.946199
21
30.560657
0
LINE
8
Image
10
48.946199
20
30.560657
11
49.089612
21
30.555632
0
LINE
8
Image
10
49.089612
20
30.555632
11
49.064322
21
30.773766
0
LINE
8
Image
10
49.064322
20
30.773766
11
49.325915
21
31.413785
0
LINE
8
Image
10
49.325915
20
31.413785
11
50.148082
21
32.368254
0
LINE
8
Image
10
50.148082
20
32.368254
11
51.170528
21
33.273861
0
LINE
8
Image
10
51.170528
20
33.273861
11
52.032959
21
33.767288
0
LINE
8
Image
10
52.032959
20
33.767288
11
52.630038
21
33.818302
0
LINE
8
Image
10
52.630038
20
33.818302
11
52.989708
21
33.626970
0
LINE
8
Image
10
52.989708
20
33.626970
11
53.097502
21
33.212051
0
LINE
8
Image
10
53.097502
20
33.212051
11
52.938957
21
32.592306
0
LINE
8
Image
10
52.938957
20
32.592306
11
52.464154
21
31.821645
0
LINE
8
Image
10
52.464154
20
31.821645
11
51.751938
21
30.990895
0
LINE
8
Image
10
51.751938
20
30.990895
11
51.061503
21
30.368568
0
LINE
8
Image
10
51.061503
20
30.368568
11
50.652042
21
30.223173
0
LINE
8
Image
10
50.652042
20
30.223173
11
50.615698
21
30.523880
0
LINE
8
Image
10
50.615698
20
30.523880
11
50.805181
21
30.945953
0
LINE
8
Image
10
50.805181
20
30.945953
11
51.115620
21
31.321974
0
LINE
8
Image
10
51.115620
20
31.321974
11
51.442142
21
31.484518
0
LINE
8
Image
10
51.442142
20
31.484518
11
51.749577
21
31.620738
0
LINE
8
Image
10
51.749577
20
31.620738
11
52.101119
21
31.985574
0
LINE
8
Image
10
52.101119
20
31.985574
11
52.731508
21
33.138162
0
LINE
8
Image
10
52.731508
20
33.138162
11
52.757074
21
33.510547
0
LINE
8
Image
10
52.757074
20
33.510547
11
52.487614
21
33.584066
0
LINE
8
Image
10
52.487614
20
33.584066
11
51.983923
21
33.369788
0
LINE
8
Image
10
51.983923
20
33.369788
11
51.306795
21
32.878780
0
LINE
8
Image
10
51.306795
20
32.878780
11
50.485691
21
32.033014
0
LINE
8
Image
10
50.485691
20
32.033014
11
49.725761
21
30.995546
0
LINE
8
Image
10
49.725761
20
30.995546
11
49.167080
21
29.984041
0
LINE
8
Image
10
49.167080
20
29.984041
11
48.949726
21
29.216159
0
LINE
8
Image
10
48.949726
20
29.216159
11
49.063795
21
28.675311
0
LINE
8
Image
10
49.063795
20
28.675311
11
49.380010
21
28.302355
0
LINE
8
Image
10
49.380010
20
28.302355
11
49.859379
21
28.124297
0
LINE
8
Image
10
49.859379
20
28.124297
11
50.462913
21
28.168141
0
LINE
8
Image
10
50.462913
20
28.168141
11
51.417979
21
28.757203
0
LINE
8
Image
10
51.417979
20
28.757203
11
52.694281
21
29.917476
0
LINE
8
Image
10
52.694281
20
29.917476
11
54.281638
21
31.365903
0
LINE
8
Image
10
54.281638
20
31.365903
11
54.646964
21
31.405553
0
LINE
8
Image
10
54.646964
20
31.405553
11
54.874300
21
31.066619
0
LINE
8
Image
10
54.874300
20
31.066619
11
54.959600
21
30.515078
0
LINE
8
Image
10
54.959600
20
30.515078
11
54.833519
21
29.952854
0
LINE
8
Image
10
54.833519
20
29.952854
11
54.524836
21
29.450419
0
LINE
8
Image
10
54.524836
20
29.450419
11
54.062326
21
29.078243
0
LINE
8
Image
10
54.062326
20
29.078243
11
53.449383
21
28.861818
0
LINE
8
Image
10
53.449383
20
28.861818
11
53.049566
21
29.192453
0
LINE
8
Image
10
53.049566
20
29.192453
11
52.744110
21
29.475408
0
LINE
8
Image
10
52.744110
20
29.475408
11
52.520580
21
29.366212
0
LINE
8
Image
10
52.520580
20
29.366212
11
51.264859
21
28.292047
0
LINE
8
Image
10
51.264859
20
28.292047
11
50.431641
21
27.801992
0
LINE
8
Image
10
50.431641
20
27.801992
11
49.651007
21
27.555988
0
LINE
8
Image
10
49.651007
20
27.555988
11
48.979454
21
27.563320
0
LINE
8
Image
10
48.979454
20
27.563320
11
48.473476
21
27.833273
0
LINE
8
Image
10
48.473476
20
27.833273
11
48.473476
21
27.833273
0
LINE
8
Image
10
54.143056
20
29.422808
11
54.400120
21
30.342979
0
LINE
8
Image
10
54.400120
20
30.342979
11
54.407958
21
30.773604
0
LINE
8
Image
10
54.407958
20
30.773604
11
54.310315
21
30.955352
0
LINE
8
Image
10
54.310315
20
30.955352
11
53.977381
21
30.805479
0
LINE
8
Image
10
53.977381
20
30.805479
11
53.607307
21
30.442030
0
LINE
8
Image
10
53.607307
20
30.442030
11
53.306922
21
29.994262
0
LINE
8
Image
10
53.306922
20
29.994262
11
53.183054
21
29.591430
0
LINE
8
Image
10
53.183054
20
29.591430
11
53.290206
21
29.265189
0
LINE
8
Image
10
53.290206
20
29.265189
11
53.548795
21
29.117296
0
LINE
8
Image
10
53.548795
20
29.117296
11
53.864513
21
29.164314
0
LINE
8
Image
10
53.864513
20
29.164314
11
54.143056
21
29.422808
0
LINE
8
Image
10
54.143056
20
29.422808
11
54.143056
21
29.422808
0
LINE
8
Image
10
17.728934
20
28.775683
11
17.882596
21
29.076130
0
LINE
8
Image
10
17.882596
20
29.076130
11
18.252037
21
29.364609
0
LINE
8
Image
10
18.252037
20
29.364609
11
18.726393
21
29.730580
0
LINE
8
Image
10
18.726393
20
29.730580
11
19.066655
21
30.166112
0
LINE
8
Image
10
19.066655
20
30.166112
11
19.168019
21
30.490794
0
LINE
8
Image
10
19.168019
20
30.490794
11
18.925680
21
30.524216
0
LINE
8
Image
10
18.925680
20
30.524216
11
18.641064
21
30.501035
0
LINE
8
Image
10
18.641064
20
30.501035
11
18.522683
21
30.662462
0
LINE
8
Image
10
18.522683
20
30.662462
11
18.782411
21
30.960593
0
LINE
8
Image
10
18.782411
20
30.960593
11
19.548487
21
30.967382
0
LINE
8
Image
10
19.548487
20
30.967382
11
20.086649
21
31.189868
0
LINE
8
Image
10
20.086649
20
31.189868
11
20.868891
21
31.795929
0
LINE
8
Image
10
20.868891
20
31.795929
11
21.496361
21
32.343519
0
LINE
8
Image
10
21.496361
20
32.343519
11
21.166002
21
31.924430
0
LINE
8
Image
10
21.166002
20
31.924430
11
20.507056
21
31.173718
0
LINE
8
Image
10
20.507056
20
31.173718
11
21.264200
21
31.262972
0
LINE
8
Image
10
21.264200
20
31.262972
11
21.979692
21
31.563145
0
LINE
8
Image
10
21.979692
20
31.563145
11
22.587115
21
32.410559
0
LINE
8
Image
10
22.587115
20
32.410559
11
23.219031
21
33.579134
0
LINE
8
Image
10
23.219031
20
33.579134
11
23.450269
21
33.524285
0
LINE
8
Image
10
23.450269
20
33.524285
11
23.394397
21
33.115379
0
LINE
8
Image
10
23.394397
20
33.115379
11
23.028238
21
32.364096
0
LINE
8
Image
10
23.028238
20
32.364096
11
22.684807
21
31.624414
0
LINE
8
Image
10
22.684807
20
31.624414
11
22.715991
21
31.277372
0
LINE
8
Image
10
22.715991
20
31.277372
11
22.880543
21
31.090536
0
LINE
8
Image
10
22.880543
20
31.090536
11
22.836335
21
30.803923
0
LINE
8
Image
10
22.836335
20
30.803923
11
22.637992
21
30.541238
0
LINE
8
Image
10
22.637992
20
30.541238
11
22.340138
21
30.426186
0
LINE
8
Image
10
22.340138
20
30.426186
11
22.005957
21
30.275853
0
LINE
8
Image
10
22.005957
20
30.275853
11
21.706988
21
29.914414
0
LINE
8
Image
10
21.706988
20
29.914414
11
21.457115
21
29.220475
0
LINE
8
Image
10
21.457115
20
29.220475
11
21.587968
21
29.138500
0
LINE
8
Image
10
21.587968
20
29.138500
11
21.896116
21
29.207905
0
LINE
8
Image
10
21.896116
20
29.207905
11
22.176119
21
29.264439
0
LINE
8
Image
10
22.176119
20
29.264439
11
21.845547
21
28.971629
0
LINE
8
Image
10
21.845547
20
28.971629
11
21.117943
21
28.574105
0
LINE
8
Image
10
21.117943
20
28.574105
11
20.951989
21
28.732739
0
LINE
8
Image
10
20.951989
20
28.732739
11
20.909868
21
29.096346
0
LINE
8
Image
10
20.909868
20
29.096346
11
20.984428
21
29.496489
0
LINE
8
Image
10
20.984428
20
29.496489
11
21.168513
21
29.764729
0
LINE
8
Image
10
21.168513
20
29.764729
11
21.418790
21
30.007390
0
LINE
8
Image
10
21.418790
20
30.007390
11
21.386517
21
30.219288
0
LINE
8
Image
10
21.386517
20
30.219288
11
21.099202
21
30.369270
0
LINE
8
Image
10
21.099202
20
30.369270
11
20.584357
21
30.426186
0
LINE
8
Image
10
20.584357
20
30.426186
11
19.700792
21
30.205491
0
LINE
8
Image
10
19.700792
20
30.205491
11
18.732276
21
29.446449
0
LINE
8
Image
10
18.732276
20
29.446449
11
18.023666
21
28.845270
0
LINE
8
Image
10
18.023666
20
28.845270
11
17.728934
21
28.775683
0
LINE
8
Image
10
17.728934
20
28.775683
11
17.728934
21
28.775683
0
LINE
8
Image
10
28.334993
20
29.169417
11
28.300625
21
29.911335
0
LINE
8
Image
10
28.300625
20
29.911335
11
28.612802
21
30.621189
0
LINE
8
Image
10
28.612802
20
30.621189
11
29.118440
21
31.080188
0
LINE
8
Image
10
29.118440
20
31.080188
11
29.395970
21
31.147245
0
LINE
8
Image
10
29.395970
20
31.147245
11
29.664459
21
31.069541
0
LINE
8
Image
10
29.664459
20
31.069541
11
29.848594
21
31.005347
0
LINE
8
Image
10
29.848594
20
31.005347
11
29.792726
21
31.179055
0
LINE
8
Image
10
29.792726
20
31.179055
11
29.747402
21
31.394789
0
LINE
8
Image
10
29.747402
20
31.394789
11
29.903538
21
31.484518
0
LINE
8
Image
10
29.903538
20
31.484518
11
30.089328
21
31.356618
0
LINE
8
Image
10
30.089328
20
31.356618
11
30.112087
21
31.073967
0
LINE
8
Image
10
30.112087
20
31.073967
11
29.996553
21
30.788137
0
LINE
8
Image
10
29.996553
20
30.788137
11
29.767461
21
30.650703
0
LINE
8
Image
10
29.767461
20
30.650703
11
29.126027
21
30.429858
0
LINE
8
Image
10
29.126027
20
30.429858
11
28.690492
21
29.954380
0
LINE
8
Image
10
28.690492
20
29.954380
11
28.561796
21
29.407216
0
LINE
8
Image
10
28.561796
20
29.407216
11
28.840878
21
28.971315
0
LINE
8
Image
10
28.840878
20
28.971315
11
29.296059
21
28.974117
0
LINE
8
Image
10
29.296059
20
28.974117
11
29.906953
21
29.300908
0
LINE
8
Image
10
29.906953
20
29.300908
11
30.506340
21
29.833015
0
LINE
8
Image
10
30.506340
20
29.833015
11
30.926998
21
30.451769
0
LINE
8
Image
10
30.926998
20
30.451769
11
31.290754
21
30.994286
0
LINE
8
Image
10
31.290754
20
30.994286
11
31.687836
21
31.219935
0
LINE
8
Image
10
31.687836
20
31.219935
11
31.912589
21
31.099402
0
LINE
8
Image
10
31.912589
20
31.099402
11
31.533370
21
30.607571
0
LINE
8
Image
10
31.533370
20
30.607571
11
30.958084
21
29.681530
0
LINE
8
Image
10
30.958084
20
29.681530
11
31.119703
21
29.389452
0
LINE
8
Image
10
31.119703
20
29.389452
11
31.543409
21
29.421285
0
LINE
8
Image
10
31.543409
20
29.421285
11
32.137471
21
29.744986
0
LINE
8
Image
10
32.137471
20
29.744986
11
32.810163
21
30.328511
0
LINE
8
Image
10
32.810163
20
30.328511
11
34.118393
21
31.394583
0
LINE
8
Image
10
34.118393
20
31.394583
11
34.635089
21
31.600810
0
LINE
8
Image
10
34.635089
20
31.600810
11
35.008771
21
31.560366
0
LINE
8
Image
10
35.008771
20
31.560366
11
34.847704
21
31.316403
0
LINE
8
Image
10
34.847704
20
31.316403
11
34.159615
21
30.907638
0
LINE
8
Image
10
34.159615
20
30.907638
11
33.359485
21
30.381325
0
LINE
8
Image
10
33.359485
20
30.381325
11
32.929037
21
29.854746
0
LINE
8
Image
10
32.929037
20
29.854746
11
32.843475
21
29.324202
0
LINE
8
Image
10
32.843475
20
29.324202
11
33.021997
21
29.176106
0
LINE
8
Image
10
33.021997
20
29.176106
11
33.428584
21
29.405455
0
LINE
8
Image
10
33.428584
20
29.405455
11
34.027215
21
30.007248
0
LINE
8
Image
10
34.027215
20
30.007248
11
34.662564
21
30.629012
0
LINE
8
Image
10
34.662564
20
30.629012
11
34.855837
21
30.732470
0
LINE
8
Image
10
34.855837
20
30.732470
11
34.926819
21
30.668706
0
LINE
8
Image
10
34.926819
20
30.668706
11
34.663281
21
30.213076
0
LINE
8
Image
10
34.663281
20
30.213076
11
34.048848
21
29.602862
0
LINE
8
Image
10
34.048848
20
29.602862
11
33.347771
21
29.068065
0
LINE
8
Image
10
33.347771
20
29.068065
11
32.824299
21
28.838688
0
LINE
8
Image
10
32.824299
20
28.838688
11
32.627453
21
28.967316
0
LINE
8
Image
10
32.627453
20
28.967316
11
32.545580
21
29.276570
0
LINE
8
Image
10
32.545580
20
29.276570
11
32.472489
21
29.582160
0
LINE
8
Image
10
32.472489
20
29.582160
11
32.061726
21
29.276570
0
LINE
8
Image
10
32.061726
20
29.276570
11
31.621142
21
28.978299
0
LINE
8
Image
10
31.621142
20
28.978299
11
31.191569
21
28.854425
0
LINE
8
Image
10
31.191569
20
28.854425
11
30.839851
21
28.910730
0
LINE
8
Image
10
30.839851
20
28.910730
11
30.632830
21
29.152995
0
LINE
8
Image
10
30.632830
20
29.152995
11
30.403350
21
29.289213
0
LINE
8
Image
10
30.403350
20
29.289213
11
29.890452
21
29.020704
0
LINE
8
Image
10
29.890452
20
29.020704
11
29.322141
21
28.689753
0
LINE
8
Image
10
29.322141
20
28.689753
11
28.890675
21
28.602576
0
LINE
8
Image
10
28.890675
20
28.602576
11
28.570233
21
28.761641
0
LINE
8
Image
10
28.570233
20
28.761641
11
28.334993
21
29.169417
0
LINE
8
Image
10
28.334993
20
29.169417
11
28.334993
21
29.169417
0
LINE
8
Image
10
34.133078
20
28.926883
11
34.315504
21
29.439593
0
LINE
8
Image
10
34.315504
20
29.439593
11
34.827156
21
29.451017
0
LINE
8
Image
10
34.827156
20
29.451017
11
35.060254
21
29.259142
0
LINE
8
Image
10
35.060254
20
29.259142
11
34.901183
21
28.940081
0
LINE
8
Image
10
34.901183
20
28.940081
11
34.372590
21
28.587645
0
LINE
8
Image
10
34.372590
20
28.587645
11
34.198891
21
28.670499
0
LINE
8
Image
10
34.198891
20
28.670499
11
34.133078
21
28.926884
0
LINE
8
Image
10
34.133078
20
28.926884
11
34.133078
21
28.926883
0
LINE
8
Image
10
35.867279
20
29.272336
11
35.878934
21
29.982759
0
LINE
8
Image
10
35.878934
20
29.982759
11
36.417265
21
30.727542
0
LINE
8
Image
10
36.417265
20
30.727542
11
36.993967
21
31.225963
0
LINE
8
Image
10
36.993967
20
31.225963
11
37.471355
21
31.465443
0
LINE
8
Image
10
37.471355
20
31.465443
11
37.750696
21
31.420588
0
LINE
8
Image
10
37.750696
20
31.420588
11
37.733256
21
31.066004
0
LINE
8
Image
10
37.733256
20
31.066004
11
37.572657
21
30.545142
0
LINE
8
Image
10
37.572657
20
30.545142
11
37.225233
21
30.576113
0
LINE
8
Image
10
37.225233
20
30.576113
11
36.838032
21
30.513544
0
LINE
8
Image
10
36.838032
20
30.513544
11
36.394969
21
30.175897
0
LINE
8
Image
10
36.394969
20
30.175897
11
36.072791
21
29.671642
0
LINE
8
Image
10
36.072791
20
29.671642
11
36.233319
21
29.255353
0
LINE
8
Image
10
36.233319
20
29.255353
11
36.665106
21
29.033677
0
LINE
8
Image
10
36.665106
20
29.033677
11
37.218223
21
29.168040
0
LINE
8
Image
10
37.218223
20
29.168040
11
37.809560
21
29.616145
0
LINE
8
Image
10
37.809560
20
29.616145
11
38.356010
21
30.335693
0
LINE
8
Image
10
38.356010
20
30.335693
11
38.804814
21
30.960189
0
LINE
8
Image
10
38.804814
20
30.960189
11
39.151230
21
31.219935
0
LINE
8
Image
10
39.151230
20
31.219935
11
39.364545
21
31.149339
0
LINE
8
Image
10
39.364545
20
31.149339
11
39.410739
21
30.965533
0
LINE
8
Image
10
39.410739
20
30.965533
11
39.027863
21
30.426186
0
LINE
8
Image
10
39.027863
20
30.426186
11
38.733108
21
30.081742
0
LINE
8
Image
10
38.733108
20
30.081742
11
38.647797
21
29.745809
0
LINE
8
Image
10
38.647797
20
29.745809
11
38.769055
21
29.467496
0
LINE
8
Image
10
38.769055
20
29.467496
11
39.094009
21
29.295909
0
LINE
8
Image
10
39.094009
20
29.295909
11
39.412517
21
29.169837
0
LINE
8
Image
10
39.412517
20
29.169837
11
39.067307
21
28.973372
0
LINE
8
Image
10
39.067307
20
28.973372
11
38.648242
21
28.905810
0
LINE
8
Image
10
38.648242
20
28.905810
11
38.362283
21
29.109942
0
LINE
8
Image
10
38.362283
20
29.109942
11
38.056454
21
29.302545
0
LINE
8
Image
10
38.056454
20
29.302545
11
37.472255
21
29.016205
0
LINE
8
Image
10
37.472255
20
29.016205
11
36.848811
21
28.679879
0
LINE
8
Image
10
36.848811
20
28.679879
11
36.389152
21
28.607961
0
LINE
8
Image
10
36.389152
20
28.607961
11
36.069800
21
28.804198
0
LINE
8
Image
10
36.069800
20
28.804198
11
35.867279
21
29.272336
0
LINE
8
Image
10
35.867279
20
29.272336
11
35.867279
21
29.272336
0
LINE
8
Image
10
44.066259
20
28.820373
11
44.035164
21
29.176151
0
LINE
8
Image
10
44.035164
20
29.176151
11
44.196434
21
29.649630
0
LINE
8
Image
10
44.196434
20
29.649630
11
44.401671
21
30.142046
0
LINE
8
Image
10
44.401671
20
30.142046
11
44.342252
21
30.308002
0
LINE
8
Image
10
44.342252
20
30.308002
11
43.588123
21
29.658282
0
LINE
8
Image
10
43.588123
20
29.658282
11
42.945001
21
29.127969
0
LINE
8
Image
10
42.945001
20
29.127969
11
42.730904
21
29.115263
0
LINE
8
Image
10
42.730904
20
29.115263
11
42.601578
21
29.241343
0
LINE
8
Image
10
42.601578
20
29.241343
11
42.636622
21
29.821308
0
LINE
8
Image
10
42.636622
20
29.821308
11
43.128900
21
30.690769
0
LINE
8
Image
10
43.128900
20
30.690769
11
43.638459
21
31.129510
0
LINE
8
Image
10
43.638459
20
31.129510
11
43.230761
21
30.284586
0
LINE
8
Image
10
43.230761
20
30.284586
11
42.970675
21
29.790016
0
LINE
8
Image
10
42.970675
20
29.790016
11
43.056227
21
29.662547
0
LINE
8
Image
10
43.056227
20
29.662547
11
44.104526
21
30.474247
0
LINE
8
Image
10
44.104526
20
30.474247
11
44.733412
21
31.000167
0
LINE
8
Image
10
44.733412
20
31.000167
11
45.094499
21
31.137618
0
LINE
8
Image
10
45.094499
20
31.137618
11
45.140618
21
30.898390
0
LINE
8
Image
10
45.140618
20
30.898390
11
44.824604
21
30.294271
0
LINE
8
Image
10
44.824604
20
30.294271
11
44.531307
21
29.697125
0
LINE
8
Image
10
44.531307
20
29.697125
11
44.683698
21
29.388065
0
LINE
8
Image
10
44.683698
20
29.388065
11
44.854393
21
29.162942
0
LINE
8
Image
10
44.854393
20
29.162942
11
44.620185
21
28.868631
0
LINE
8
Image
10
44.620185
20
28.868631
11
44.288977
21
28.696987
0
LINE
8
Image
10
44.288977
20
28.696987
11
44.066259
21
28.820373
0
LINE
8
Image
10
44.066259
20
28.820373
11
44.066259
21
28.820373
0
LINE
8
Image
10
61.407865
20
29.169417
11
61.309320
21
29.651732
0
LINE
8
Image
10
61.309320
20
29.651732
11
61.390044
21
30.109864
0
LINE
8
Image
10
61.390044
20
30.109864
11
61.652283
21
30.549697
0
LINE
8
Image
10
61.652283
20
30.549697
11
62.098284
21
30.977113
0
LINE
8
Image
10
62.098284
20
30.977113
11
62.445277
21
31.219732
0
LINE
8
Image
10
62.445277
20
31.219732
11
62.293009
21
30.955353
0
LINE
8
Image
10
62.293009
20
30.955353
11
61.965243
21
29.830876
0
LINE
8
Image
10
61.965243
20
29.830876
11
62.040518
21
29.324666
0
LINE
8
Image
10
62.040518
20
29.324666
11
62.322761
21
29.107329
0
LINE
8
Image
10
62.322761
20
29.107329
11
62.776232
21
29.185620
0
LINE
8
Image
10
62.776232
20
29.185620
11
63.365192
21
29.566293
0
LINE
8
Image
10
63.365192
20
29.566293
11
63.541257
21
29.679567
0
LINE
8
Image
10
63.541257
20
29.679567
11
63.179634
21
29.301710
0
LINE
8
Image
10
63.179634
20
29.301710
11
62.563697
21
28.796929
0
LINE
8
Image
10
62.563697
20
28.796929
11
62.067214
21
28.606928
0
LINE
8
Image
10
62.067214
20
28.606928
11
61.683998
21
28.731245
0
LINE
8
Image
10
61.683998
20
28.731245
11
61.407865
21
29.169418
0
LINE
8
Image
10
61.407865
20
29.169418
11
61.407865
21
29.169417
0
LINE
8
Image
10
67.860261
20
29.301709
11
68.042770
21
30.029312
0
LINE
8
Image
10
68.042770
20
30.029312
11
67.338456
21
29.367854
0
LINE
8
Image
10
67.338456
20
29.367854
11
66.688038
21
28.873520
0
LINE
8
Image
10
66.688038
20
28.873520
11
66.498635
21
28.931251
0
LINE
8
Image
10
66.498635
20
28.931251
11
66.293422
21
29.172351
0
LINE
8
Image
10
66.293422
20
29.172351
11
65.954199
21
29.492856
0
LINE
8
Image
10
65.954199
20
29.492856
11
65.620889
21
29.238497
0
LINE
8
Image
10
65.620889
20
29.238497
11
65.097725
21
28.879373
0
LINE
8
Image
10
65.097725
20
28.879373
11
64.746803
21
29.074210
0
LINE
8
Image
10
64.746803
20
29.074210
11
64.666600
21
29.647544
0
LINE
8
Image
10
64.666600
20
29.647544
11
64.955592
21
30.423911
0
LINE
8
Image
10
64.955592
20
30.423911
11
64.969436
21
30.656551
0
LINE
8
Image
10
64.969436
20
30.656551
11
64.441399
21
30.585525
0
LINE
8
Image
10
64.441399
20
30.585525
11
63.909390
21
30.521163
0
LINE
8
Image
10
63.909390
20
30.521163
11
63.822373
21
30.726475
0
LINE
8
Image
10
63.822373
20
30.726475
11
64.150634
21
30.954558
0
LINE
8
Image
10
64.150634
20
30.954558
11
64.763472
21
31.107857
0
LINE
8
Image
10
64.763472
20
31.107857
11
65.352677
21
31.139062
0
LINE
8
Image
10
65.352677
20
31.139062
11
65.610041
21
31.000867
0
LINE
8
Image
10
65.610041
20
31.000867
11
65.213166
21
30.309471
0
LINE
8
Image
10
65.213166
20
30.309471
11
64.842580
21
29.618766
0
LINE
8
Image
10
64.842580
20
29.618766
11
64.862649
21
29.433164
0
LINE
8
Image
10
64.862649
20
29.433164
11
64.995624
21
29.356813
0
LINE
8
Image
10
64.995624
20
29.356813
11
65.528287
21
29.540127
0
LINE
8
Image
10
65.528287
20
29.540127
11
66.296557
21
30.185224
0
LINE
8
Image
10
66.296557
20
30.185224
11
67.719111
21
31.325376
0
LINE
8
Image
10
67.719111
20
31.325376
11
68.304067
21
31.591193
0
LINE
8
Image
10
68.304067
20
31.591193
11
68.622350
21
31.547314
0
LINE
8
Image
10
68.622350
20
31.547314
11
68.407185
21
31.259085
0
LINE
8
Image
10
68.407185
20
31.259085
11
67.716431
21
30.846745
0
LINE
8
Image
10
67.716431
20
30.846745
11
66.941941
21
30.343584
0
LINE
8
Image
10
66.941941
20
30.343584
11
66.525445
21
29.836999
0
LINE
8
Image
10
66.525445
20
29.836999
11
66.443882
21
29.315506
0
LINE
8
Image
10
66.443882
20
29.315506
11
66.629436
21
29.177780
0
LINE
8
Image
10
66.629436
20
29.177780
11
67.046289
21
29.417741
0
LINE
8
Image
10
67.046289
20
29.417741
11
67.658628
21
30.029312
0
LINE
8
Image
10
67.658628
20
30.029312
11
68.587610
21
31.087644
0
LINE
8
Image
10
68.587610
20
31.087644
11
68.404926
21
30.227749
0
LINE
8
Image
10
68.404926
20
30.227749
11
68.342773
21
29.574862
0
LINE
8
Image
10
68.342773
20
29.574862
11
68.540242
21
29.367854
0
LINE
8
Image
10
68.540242
20
29.367854
11
68.719727
21
29.282937
0
LINE
8
Image
10
68.719727
20
29.282937
11
68.528865
21
28.970980
0
LINE
8
Image
10
68.528865
20
28.970980
11
68.172840
21
28.641015
0
LINE
8
Image
10
68.172840
20
28.641015
11
67.920766
21
28.597012
0
LINE
8
Image
10
67.920766
20
28.597012
11
67.805590
21
28.822676
0
LINE
8
Image
10
67.805590
20
28.822676
11
67.860258
21
29.301709
0
LINE
8
Image
10
67.860258
20
29.301709
11
67.860261
21
29.301709
0
LINE
8
Image
10
71.174698
20
29.281682
11
71.174698
21
29.989260
0
LINE
8
Image
10
71.174698
20
29.989260
11
70.514283
21
29.368833
0
LINE
8
Image
10
70.514283
20
29.368833
11
69.745687
21
28.859693
0
LINE
8
Image
10
69.745687
20
28.859693
11
69.585331
21
29.359668
0
LINE
8
Image
10
69.585331
20
29.359668
11
69.555852
21
30.089357
0
LINE
8
Image
10
69.555852
20
30.089357
11
69.756899
21
30.427549
0
LINE
8
Image
10
69.756899
20
30.427549
11
70.210778
21
30.813263
0
LINE
8
Image
10
70.210778
20
30.813263
11
71.306976
21
31.325004
0
LINE
8
Image
10
71.306976
20
31.325004
11
71.794583
21
31.674735
0
LINE
8
Image
10
71.794583
20
31.674735
11
72.370854
21
32.428096
0
LINE
8
Image
10
72.370854
20
32.428096
11
72.866046
21
33.149845
0
LINE
8
Image
10
72.866046
20
33.149845
11
72.975334
21
33.235856
0
LINE
8
Image
10
72.975334
20
33.235856
11
72.994874
21
33.154612
0
LINE
8
Image
10
72.994874
20
33.154612
11
72.212397
21
31.396892
0
LINE
8
Image
10
72.212397
20
31.396892
11
71.768460
21
30.403513
0
LINE
8
Image
10
71.768460
20
30.403513
11
71.570783
21
29.635197
0
LINE
8
Image
10
71.570783
20
29.635197
11
71.632459
21
29.207107
0
LINE
8
Image
10
71.632459
20
29.207107
11
71.966579
21
29.234407
0
LINE
8
Image
10
71.966579
20
29.234407
11
72.154759
21
29.276717
0
LINE
8
Image
10
72.154759
20
29.276717
11
72.233030
21
29.147193
0
LINE
8
Image
10
72.233030
20
29.147193
11
71.892258
21
28.780178
0
LINE
8
Image
10
71.892258
20
28.780178
11
71.285349
21
28.574104
0
LINE
8
Image
10
71.285349
20
28.574104
11
71.174698
21
29.281682
0
LINE
8
Image
10
71.174698
20
29.281682
11
71.174698
21
29.281682
0
LINE
8
Image
10
70.826916
20
29.943140
11
71.372638
21
30.582238
0
LINE
8
Image
10
71.372638
20
30.582238
11
71.414782
21
30.913692
0
LINE
8
Image
10
71.414782
20
30.913692
11
71.026718
21
30.875334
0
LINE
8
Image
10
71.026718
20
30.875334
11
70.281817
21
30.404999
0
LINE
8
Image
10
70.281817
20
30.404999
11
69.831871
21
29.944815
0
LINE
8
Image
10
69.831871
20
29.944815
11
69.732585
21
29.611250
0
LINE
8
Image
10
69.732585
20
29.611250
11
69.902941
21
29.421082
0
LINE
8
Image
10
69.902941
20
29.421082
11
70.110236
21
29.403339
0
LINE
8
Image
10
70.110236
20
29.403339
11
70.826916
21
29.943140
0
LINE
8
Image
10
70.826916
20
29.943140
11
70.826916
21
29.943140
0
LINE
8
Image
10
79.501913
20
29.301708
11
79.684422
21
30.029311
0
LINE
8
Image
10
79.684422
20
30.029311
11
79.021018
21
29.406279
0
LINE
8
Image
10
79.021018
20
29.406279
11
78.531585
21
29.049261
0
LINE
8
Image
10
78.531585
20
29.049261
11
78.141170
21
28.966356
0
LINE
8
Image
10
78.141170
20
28.966356
11
77.882742
21
29.152324
0
LINE
8
Image
10
77.882742
20
29.152324
11
77.789273
21
29.601931
0
LINE
8
Image
10
77.789273
20
29.601931
11
77.933018
21
30.033750
0
LINE
8
Image
10
77.933018
20
30.033750
11
78.319971
21
30.532253
0
LINE
8
Image
10
78.319971
20
30.532253
11
79.557814
21
31.451454
0
LINE
8
Image
10
79.557814
20
31.451454
11
80.263171
21
31.732666
0
LINE
8
Image
10
80.263171
20
31.732666
11
80.398043
21
31.674092
0
LINE
8
Image
10
80.398043
20
31.674092
11
80.435103
21
31.484517
0
LINE
8
Image
10
80.435103
20
31.484517
11
80.345288
21
31.297656
0
LINE
8
Image
10
80.345288
20
31.297656
11
80.129348
21
31.219934
0
LINE
8
Image
10
80.129348
20
31.219934
11
79.595006
21
31.007584
0
LINE
8
Image
10
79.595006
20
31.007584
11
78.904894
21
30.509228
0
LINE
8
Image
10
78.904894
20
30.509228
11
78.308136
21
29.932912
0
LINE
8
Image
10
78.308136
20
29.932912
11
78.053856
21
29.486680
0
LINE
8
Image
10
78.053856
20
29.486680
11
78.133111
21
29.170242
0
LINE
8
Image
10
78.133111
20
29.170242
11
78.372488
21
29.154522
0
LINE
8
Image
10
78.372488
20
29.154522
11
79.341279
21
30.029311
0
LINE
8
Image
10
79.341279
20
30.029311
11
80.255620
21
30.915644
0
LINE
8
Image
10
80.255620
20
30.915644
11
80.353031
21
30.855113
0
LINE
8
Image
10
80.353031
20
30.855113
11
80.179828
21
30.443579
0
LINE
8
Image
10
80.179828
20
30.443579
11
79.928744
21
29.578500
0
LINE
8
Image
10
79.928744
20
29.578500
11
80.112015
21
29.425548
0
LINE
8
Image
10
80.112015
20
29.425548
11
80.501248
21
29.458718
0
LINE
8
Image
10
80.501248
20
29.458718
11
80.923106
21
29.519478
0
LINE
8
Image
10
80.923106
20
29.519478
11
80.435103
21
29.098585
0
LINE
8
Image
10
80.435103
20
29.098585
11
79.547558
21
28.615607
0
LINE
8
Image
10
79.547558
20
28.615607
11
79.429558
21
28.810333
0
LINE
8
Image
10
79.429558
20
28.810333
11
79.501913
21
29.301708
0
LINE
8
Image
10
79.501913
20
29.301708
11
79.501913
21
29.301708
0
LINE
8
Image
10
23.279871
20
29.241956
11
23.067945
21
29.612218
0
LINE
8
Image
10
23.067945
20
29.612218
11
23.128511
21
29.805477
0
LINE
8
Image
10
23.128511
20
29.805477
11
23.393802
21
29.785662
0
LINE
8
Image
10
23.393802
20
29.785662
11
23.796049
21
29.516701
0
LINE
8
Image
10
23.796049
20
29.516701
11
24.254663
21
29.243498
0
LINE
8
Image
10
24.254663
20
29.243498
11
24.632300
21
29.250523
0
LINE
8
Image
10
24.632300
20
29.250523
11
24.821221
21
29.318059
0
LINE
8
Image
10
24.821221
20
29.318059
11
24.765649
21
29.144151
0
LINE
8
Image
10
24.765649
20
29.144151
11
24.476254
21
28.909839
0
LINE
8
Image
10
24.476254
20
28.909839
11
24.070732
21
28.852080
0
LINE
8
Image
10
24.070732
20
28.852080
11
23.641225
21
28.964807
0
LINE
8
Image
10
23.641225
20
28.964807
11
23.279871
21
29.241956
0
LINE
8
Image
10
23.279871
20
29.241956
11
23.279871
21
29.241956
0
LINE
8
Image
10
25.842814
20
29.015076
11
25.662417
21
29.413313
0
LINE
8
Image
10
25.662417
20
29.413313
11
25.707624
21
29.934659
0
LINE
8
Image
10
25.707624
20
29.934659
11
25.950613
21
30.476481
0
LINE
8
Image
10
25.950613
20
30.476481
11
26.363563
21
30.936148
0
LINE
8
Image
10
26.363563
20
30.936148
11
27.012884
21
31.376521
0
LINE
8
Image
10
27.012884
20
31.376521
11
27.334627
21
31.465551
0
LINE
8
Image
10
27.334627
20
31.465551
11
27.275878
21
31.232264
0
LINE
8
Image
10
27.275878
20
31.232264
11
26.783721
21
30.705683
0
LINE
8
Image
10
26.783721
20
30.705683
11
26.239876
21
30.109280
0
LINE
8
Image
10
26.239876
20
30.109280
11
25.968695
21
29.596898
0
LINE
8
Image
10
25.968695
20
29.596898
11
25.990179
21
29.238305
0
LINE
8
Image
10
25.990179
20
29.238305
11
26.324331
21
29.103270
0
LINE
8
Image
10
26.324331
20
29.103270
11
26.715775
21
29.375295
0
LINE
8
Image
10
26.715775
20
29.375295
11
27.104578
21
30.029311
0
LINE
8
Image
10
27.104578
20
30.029311
11
27.638065
21
30.920236
0
LINE
8
Image
10
27.638065
20
30.920236
11
27.751850
21
30.775194
0
LINE
8
Image
10
27.751850
20
30.775194
11
27.735879
21
30.227748
0
LINE
8
Image
10
27.735879
20
30.227748
11
27.471644
21
29.510454
0
LINE
8
Image
10
27.471644
20
29.510454
11
26.965861
21
29.003780
0
LINE
8
Image
10
26.965861
20
29.003780
11
26.371820
21
28.805922
0
LINE
8
Image
10
26.371820
20
28.805922
11
25.842814
21
29.015076
0
LINE
8
Image
10
25.842814
20
29.015076
11
25.842814
21
29.015076
0
LINE
8
Image
10
40.122805
20
29.235562
11
40.054949
21
29.670099
0
LINE
8
Image
10
40.054949
20
29.670099
11
40.161197
21
30.129457
0
LINE
8
Image
10
40.161197
20
30.129457
11
40.852158
21
31.015614
0
LINE
8
Image
10
40.852158
20
31.015614
11
41.392066
21
31.378440
0
LINE
8
Image
10
41.392066
20
31.378440
11
41.772058
21
31.446053
0
LINE
8
Image
10
41.772058
20
31.446053
11
41.996702
21
31.217235
0
LINE
8
Image
10
41.996702
20
31.217235
11
42.070568
21
30.690768
0
LINE
8
Image
10
42.070568
20
30.690768
11
41.983782
21
30.130183
0
LINE
8
Image
10
41.983782
20
30.130183
11
41.775126
21
29.897019
0
LINE
8
Image
10
41.775126
20
29.897019
11
41.605641
21
30.050657
0
LINE
8
Image
10
41.605641
20
30.050657
11
41.618065
21
30.426185
0
LINE
8
Image
10
41.618065
20
30.426185
11
41.658105
21
30.828466
0
LINE
8
Image
10
41.658105
20
30.828466
11
41.508040
21
30.928762
0
LINE
8
Image
10
41.508040
20
30.928762
11
40.759268
21
30.248565
0
LINE
8
Image
10
40.759268
20
30.248565
11
40.437523
21
29.666590
0
LINE
8
Image
10
40.437523
20
29.666590
11
40.448584
21
29.258910
0
LINE
8
Image
10
40.448584
20
29.258910
11
40.745127
21
29.111001
0
LINE
8
Image
10
40.745127
20
29.111001
11
41.279832
21
29.308333
0
LINE
8
Image
10
41.279832
20
29.308333
11
42.133123
21
29.630806
0
LINE
8
Image
10
42.133123
20
29.630806
11
42.146615
21
29.513551
0
LINE
8
Image
10
42.146615
20
29.513551
11
41.709594
21
29.233932
0
LINE
8
Image
10
41.709594
20
29.233932
11
40.628543
21
28.858961
0
LINE
8
Image
10
40.628543
20
28.858961
11
40.317011
21
28.953305
0
LINE
8
Image
10
40.317011
20
28.953305
11
40.122805
21
29.235572
0
LINE
8
Image
10
40.122805
20
29.235572
11
40.122805
21
29.235562
0
LINE
8
Image
10
55.478285
20
29.403622
11
55.544945
21
30.014254
0
LINE
8
Image
10
55.544945
20
30.014254
11
56.088529
21
30.726537
0
LINE
8
Image
10
56.088529
20
30.726537
11
57.103139
21
31.484517
0
LINE
8
Image
10
57.103139
20
31.484517
11
57.344170
21
31.350078
0
LINE
8
Image
10
57.344170
20
31.350078
11
57.523994
21
31.039581
0
LINE
8
Image
10
57.523994
20
31.039581
11
57.590477
21
30.692258
0
LINE
8
Image
10
57.590477
20
30.692258
11
57.491489
21
30.447339
0
LINE
8
Image
10
57.491489
20
30.447339
11
57.224113
21
29.942067
0
LINE
8
Image
10
57.224113
20
29.942067
11
57.287159
21
29.722496
0
LINE
8
Image
10
57.287159
20
29.722496
11
57.482519
21
29.630806
0
LINE
8
Image
10
57.482519
20
29.630806
11
57.493483
21
29.513551
0
LINE
8
Image
10
57.493483
20
29.513551
11
57.055400
21
29.233932
0
LINE
8
Image
10
57.055400
20
29.233932
11
56.398855
21
28.939973
0
LINE
8
Image
10
56.398855
20
28.939973
11
55.945889
21
28.867176
0
LINE
8
Image
10
55.945889
20
28.867176
11
55.653398
21
29.020180
0
LINE
8
Image
10
55.653398
20
29.020180
11
55.478277
21
29.403622
0
LINE
8
Image
10
55.478277
20
29.403622
11
55.478285
21
29.403622
0
LINE
8
Image
10
56.708196
20
29.301708
11
57.019253
21
30.426185
0
LINE
8
Image
10
57.019253
20
30.426185
11
57.213518
21
31.352226
0
LINE
8
Image
10
57.213518
20
31.352226
11
56.521202
21
30.710794
0
LINE
8
Image
10
56.521202
20
30.710794
11
56.069949
21
30.166699
0
LINE
8
Image
10
56.069949
20
30.166699
11
55.853998
21
29.646659
0
LINE
8
Image
10
55.853998
20
29.646659
11
55.893883
21
29.256806
0
LINE
8
Image
10
55.893883
20
29.256806
11
56.210142
21
29.103270
0
LINE
8
Image
10
56.210142
20
29.103270
11
56.708196
21
29.301708
0
LINE
8
Image
10
56.708196
20
29.301708
11
56.708196
21
29.301708
0
LINE
8
Image
10
72.897659
20
29.357859
11
72.858733
21
29.864562
0
LINE
8
Image
10
72.858733
20
29.864562
11
73.023054
21
30.387950
0
LINE
8
Image
10
73.023054
20
30.387950
11
73.358277
21
30.863355
0
LINE
8
Image
10
73.358277
20
30.863355
11
73.832058
21
31.226106
0
LINE
8
Image
10
73.832058
20
31.226106
11
74.314589
21
31.388793
0
LINE
8
Image
10
74.314589
20
31.388793
11
74.650008
21
31.295811
0
LINE
8
Image
10
74.650008
20
31.295811
11
74.822892
21
30.960163
0
LINE
8
Image
10
74.822892
20
30.960163
11
74.817823
21
30.394853
0
LINE
8
Image
10
74.817823
20
30.394853
11
74.819054
21
29.849343
0
LINE
8
Image
10
74.819054
20
29.849343
11
74.990828
21
29.630806
0
LINE
8
Image
10
74.990828
20
29.630806
11
74.969426
21
29.513551
0
LINE
8
Image
10
74.969426
20
29.513551
11
74.517886
21
29.233932
0
LINE
8
Image
10
74.517886
20
29.233932
11
73.401308
21
28.864267
0
LINE
8
Image
10
73.401308
20
28.864267
11
73.091406
21
29.001738
0
LINE
8
Image
10
73.091406
20
29.001738
11
72.897659
21
29.357859
0
LINE
8
Image
10
72.897659
20
29.357859
11
72.897659
21
29.357859
0
LINE
8
Image
10
74.227589
20
29.764728
11
74.476154
21
30.756914
0
LINE
8
Image
10
74.476154
20
30.756914
11
74.550777
21
31.219934
0
LINE
8
Image
10
74.550777
20
31.219934
11
74.065780
21
30.958841
0
LINE
8
Image
10
74.065780
20
30.958841
11
73.560515
21
30.359714
0
LINE
8
Image
10
73.560515
20
30.359714
11
73.220322
21
29.698784
0
LINE
8
Image
10
73.220322
20
29.698784
11
73.230545
21
29.252282
0
LINE
8
Image
10
73.230545
20
29.252282
11
73.516566
21
29.121341
0
LINE
8
Image
10
73.516566
20
29.121341
11
73.831570
21
29.190593
0
LINE
8
Image
10
73.831570
20
29.190593
11
74.095323
21
29.418801
0
LINE
8
Image
10
74.095323
20
29.418801
11
74.227589
21
29.764728
0
LINE
8
Image
10
74.227589
20
29.764728
11
74.227589
21
29.764728
0
LINE
8
Image
10
76.201775
20
29.352238
11
76.279496
21
29.762968
0
LINE
8
Image
10
76.279496
20
29.762968
11
76.466358
21
30.029311
0
LINE
8
Image
10
76.466358
20
30.029311
11
76.722322
21
30.278401
0
LINE
8
Image
10
76.722322
20
30.278401
11
76.714304
21
30.491445
0
LINE
8
Image
10
76.714304
20
30.491445
11
76.483094
21
30.611624
0
LINE
8
Image
10
76.483094
20
30.611624
11
76.069483
21
30.582119
0
LINE
8
Image
10
76.069483
20
30.582119
11
75.641959
21
30.534482
0
LINE
8
Image
10
75.641959
20
30.534482
11
75.434474
21
30.637771
0
LINE
8
Image
10
75.434474
20
30.637771
11
75.464031
21
30.860805
0
LINE
8
Image
10
75.464031
20
30.860805
11
75.747628
21
31.172403
0
LINE
8
Image
10
75.747628
20
31.172403
11
76.097034
21
31.313415
0
LINE
8
Image
10
76.097034
20
31.313415
11
76.462598
21
31.222258
0
LINE
8
Image
10
76.462598
20
31.222258
11
77.049036
21
31.120716
0
LINE
8
Image
10
77.049036
20
31.120716
11
77.216414
21
31.173412
0
LINE
8
Image
10
77.216414
20
31.173412
11
77.238201
21
31.029054
0
LINE
8
Image
10
77.238201
20
31.029054
11
76.836922
21
30.110724
0
LINE
8
Image
10
76.836922
20
30.110724
11
76.546663
21
29.421793
0
LINE
8
Image
10
76.546663
20
29.421793
11
76.984334
21
29.441590
0
LINE
8
Image
10
76.984334
20
29.441590
11
77.386265
21
29.490435
0
LINE
8
Image
10
77.386265
20
29.490435
11
77.242832
21
29.214746
0
LINE
8
Image
10
77.242832
20
29.214746
11
76.890742
21
28.923566
0
LINE
8
Image
10
76.890742
20
28.923566
11
76.553925
21
28.855488
0
LINE
8
Image
10
76.553925
20
28.855488
11
76.301298
21
29.001413
0
LINE
8
Image
10
76.301298
20
29.001413
11
76.201775
21
29.352238
0
LINE
8
Image
10
76.201775
20
29.352238
11
76.201775
21
29.352238
0
LINE
8
Image
10
24.479280
20
30.549467
11
24.667855
21
31.601863
0
LINE
8
Image
10
24.667855
20
31.601863
11
24.844043
21
31.562051
0
LINE
8
Image
10
24.844043
20
31.562051
11
25.026393
21
31.096471
0
LINE
8
Image
10
25.026393
20
31.096471
11
25.066267
21
30.471170
0
LINE
8
Image
10
25.066267
20
30.471170
11
24.840833
21
30.016478
0
LINE
8
Image
10
24.840833
20
30.016478
11
24.542585
21
29.880416
0
LINE
8
Image
10
24.542585
20
29.880416
11
24.479280
21
30.549467
0
LINE
8
Image
10
24.479280
20
30.549467
11
24.479280
21
30.549467
0
LINE
8
Image
10
60.326795
20
30.273632
11
60.566564
21
30.682494
0
LINE
8
Image
10
60.566564
20
30.682494
11
60.062212
21
30.617520
0
LINE
8
Image
10
60.062212
20
30.617520
11
59.569281
21
30.531205
0
LINE
8
Image
10
59.569281
20
30.531205
11
59.914344
21
30.836220
0
LINE
8
Image
10
59.914344
20
30.836220
11
60.641947
21
31.219935
0
LINE
8
Image
10
60.641947
20
31.219935
11
60.832957
21
31.101358
0
LINE
8
Image
10
60.832957
20
31.101358
11
60.839827
21
30.812723
0
LINE
8
Image
10
60.839827
20
30.812723
11
60.392940
21
30.127854
0
LINE
8
Image
10
60.392940
20
30.127854
11
60.061632
21
29.898299
0
LINE
8
Image
10
60.061632
20
29.898299
11
60.326795
21
30.273632
0
LINE
8
Image
10
60.326795
20
30.273632
11
60.326795
21
30.273632
0
LINE
8
Image
10
62.790361
20
30.597184
11
63.095588
21
31.074706
0
LINE
8
Image
10
63.095588
20
31.074706
11
62.922653
21
31.303899
0
LINE
8
Image
10
62.922653
20
31.303899
11
62.782340
21
31.412655
0
LINE
8
Image
10
62.782340
20
31.412655
11
63.038770
21
31.463630
0
LINE
8
Image
10
63.038770
20
31.463630
11
63.384919
21
31.415246
0
LINE
8
Image
10
63.384919
20
31.415246
11
63.477065
21
31.235710
0
LINE
8
Image
10
63.477065
20
31.235710
11
62.906479
21
30.533339
0
LINE
8
Image
10
62.906479
20
30.533339
11
62.311167
21
30.029312
0
LINE
8
Image
10
62.311167
20
30.029312
11
62.790361
21
30.597184
0
LINE
8
Image
10
59.268463
20
31.290518
11
59.651217
21
31.991346
0
LINE
8
Image
10
59.651217
20
31.991346
11
59.954904
21
32.237311
0
LINE
8
Image
10
59.954904
20
32.237311
11
60.178123
21
32.249825
0
LINE
8
Image
10
60.178123
20
32.249825
11
59.774853
21
31.521353
0
LINE
8
Image
10
59.774853
20
31.521353
11
59.392296
21
31.145773
0
LINE
8
Image
10
59.392296
20
31.145773
11
59.268463
21
31.290518
0
LINE
8
Image
10
59.268463
20
31.290518
11
59.268463
21
31.290518
0
LINE
8
Image
10
32.016414
20
31.982455
11
32.280997
21
32.410559
0
LINE
8
Image
10
32.280997
20
32.410559
11
32.467858
21
32.448325
0
LINE
8
Image
10
32.467858
20
32.448325
11
32.545580
21
32.309497
0
LINE
8
Image
10
32.545580
20
32.309497
11
32.280997
21
31.881393
0
LINE
8
Image
10
32.280997
20
31.881393
11
32.094135
21
31.843627
0
LINE
8
Image
10
32.094135
20
31.843627
11
32.016414
21
31.982455
0
LINE
8
Image
10
32.016414
20
31.982455
11
32.016414
21
31.982455
0
LINE
8
Image
10
39.689321
20
32.130361
11
39.767042
21
32.421682
0
LINE
8
Image
10
39.767042
20
32.421682
11
39.953904
21
32.542850
0
LINE
8
Image
10
39.953904
20
32.542850
11
40.218487
21
32.293882
0
LINE
8
Image
10
40.218487
20
32.293882
11
39.953904
21
31.881393
0
LINE
8
Image
10
39.953904
20
31.881393
11
39.767042
21
31.887074
0
LINE
8
Image
10
39.767042
20
31.887074
11
39.689321
21
32.130361
0
LINE
8
Image
10
39.689321
20
32.130361
11
39.689321
21
32.130361
0
LINE
8
Image
10
41.805985
20
32.433484
11
41.924850
21
32.830994
0
LINE
8
Image
10
41.924850
20
32.830994
11
42.202614
21
33.236003
0
LINE
8
Image
10
42.202614
20
33.236003
11
42.521026
21
33.513200
0
LINE
8
Image
10
42.521026
20
33.513200
11
42.761838
21
33.527271
0
LINE
8
Image
10
42.761838
20
33.527271
11
42.736328
21
33.211673
0
LINE
8
Image
10
42.736328
20
33.211673
11
42.386596
21
32.741288
0
LINE
8
Image
10
42.386596
20
32.741288
11
41.976539
21
32.411368
0
LINE
8
Image
10
41.976539
20
32.411368
11
41.805985
21
32.433484
0
LINE
8
Image
10
41.805985
20
32.433484
11
41.805985
21
32.433484
 0 
ENDSEC
 0 
EOF