999
"DXF R12 Output" (www.mydxf.blogspot.com)
 0 
SECTION
 2 
HEADER
 9 
$ACADVER
 1 
AC1009
 9 
$EXTMIN
 10 
 0 
 20 
 0 
 9 
$EXTMAX
 10 
 8.5 
 20 
 11 
 0 
ENDSEC
 0 
SECTION
 2 
ENTITIES
0
LINE
8
Image
10
58.540978
20
3.010835
11
58.540978
21
4.552600
0
LINE
8
Image
10
58.540978
20
4.552600
11
60.225129
21
4.862916
0
LINE
8
Image
10
60.225129
20
4.862916
11
62.279962
21
5.082077
0
LINE
8
Image
10
62.279962
20
5.082077
11
64.855331
21
5.173232
0
LINE
8
Image
10
64.855331
20
5.173232
11
67.801383
21
5.173232
0
LINE
8
Image
10
67.801383
20
5.173232
11
67.801383
21
5.834690
0
LINE
8
Image
10
67.801383
20
5.834690
11
67.801383
21
6.496147
0
LINE
8
Image
10
67.801383
20
6.496147
11
56.694036
21
6.496147
0
LINE
8
Image
10
56.694036
20
6.496147
11
45.586685
21
6.496147
0
LINE
8
Image
10
45.586685
20
6.496147
11
44.181054
21
7.395319
0
LINE
8
Image
10
44.181054
20
7.395319
11
43.096199
21
8.232556
0
LINE
8
Image
10
43.096199
20
8.232556
11
42.461799
21
8.982817
0
LINE
8
Image
10
42.461799
20
8.982817
11
42.251445
21
9.350399
0
LINE
8
Image
10
42.251445
20
9.350399
11
41.967535
21
9.558119
0
LINE
8
Image
10
41.967535
20
9.558119
11
40.734431
21
9.671143
0
LINE
8
Image
10
40.734431
20
9.671143
11
39.235654
21
9.792921
0
LINE
8
Image
10
39.235654
20
9.792921
11
37.927632
21
10.173496
0
LINE
8
Image
10
37.927632
20
10.173496
11
36.756005
21
10.835727
0
LINE
8
Image
10
36.756005
20
10.835727
11
35.666415
21
11.802476
0
LINE
8
Image
10
35.666415
20
11.802476
11
34.449884
21
12.892194
0
LINE
8
Image
10
34.449884
20
12.892194
11
33.947413
21
13.070257
0
LINE
8
Image
10
33.947413
20
13.070257
11
33.321369
21
13.112199
0
LINE
8
Image
10
33.321369
20
13.112199
11
32.001413
21
13.211445
0
LINE
8
Image
10
32.001413
20
13.211445
11
30.883120
21
13.531047
0
LINE
8
Image
10
30.883120
20
13.531047
11
29.874808
21
14.109751
0
LINE
8
Image
10
29.874808
20
14.109751
11
28.884793
21
14.986304
0
LINE
8
Image
10
28.884793
20
14.986304
11
27.696917
21
16.025881
0
LINE
8
Image
10
27.696917
20
16.025881
11
27.230380
21
16.229523
0
LINE
8
Image
10
27.230380
20
16.229523
11
26.742052
21
16.287195
0
LINE
8
Image
10
26.742052
20
16.287195
11
25.561099
21
16.388815
0
LINE
8
Image
10
25.561099
20
16.388815
11
24.544424
21
16.721431
0
LINE
8
Image
10
24.544424
20
16.721431
11
23.591557
21
17.333218
0
LINE
8
Image
10
23.591557
20
17.333218
11
22.602026
21
18.272353
0
LINE
8
Image
10
22.602026
20
18.272353
11
21.373189
21
19.417834
0
LINE
8
Image
10
21.373189
20
19.417834
11
20.915480
21
19.655404
0
LINE
8
Image
10
20.915480
20
19.655404
11
20.480821
21
19.725298
0
LINE
8
Image
10
20.480821
20
19.725298
11
19.534151
21
19.854350
0
LINE
8
Image
10
19.534151
20
19.854350
11
18.591242
21
20.234029
0
LINE
8
Image
10
18.591242
20
20.234029
11
17.672986
21
20.853125
0
LINE
8
Image
10
17.672986
20
20.853125
11
16.800278
21
21.700426
0
LINE
8
Image
10
16.800278
20
21.700426
11
15.848610
21
22.600318
0
LINE
8
Image
10
15.848610
20
22.600318
11
15.105927
21
22.900294
0
LINE
8
Image
10
15.105927
20
22.900294
11
14.173850
21
23.095708
0
LINE
8
Image
10
14.173850
20
23.095708
11
13.117616
21
23.612976
0
LINE
8
Image
10
13.117616
20
23.612976
11
12.107828
21
24.348636
0
LINE
8
Image
10
12.107828
20
24.348636
11
11.315088
21
25.199228
0
LINE
8
Image
10
11.315088
20
25.199228
11
10.549924
21
26.049797
0
LINE
8
Image
10
10.549924
20
26.049797
11
9.853579
21
26.323706
0
LINE
8
Image
10
9.853579
20
26.323706
11
8.994215
21
26.496814
0
LINE
8
Image
10
8.994215
20
26.496814
11
8.141989
21
26.933859
0
LINE
8
Image
10
8.141989
20
26.933859
11
7.390587
21
27.572022
0
LINE
8
Image
10
7.390587
20
27.572022
11
6.833700
21
28.348488
0
LINE
8
Image
10
6.833700
20
28.348488
11
6.402513
21
29.633149
0
LINE
8
Image
10
6.402513
20
29.633149
11
6.176840
21
31.153673
0
LINE
8
Image
10
6.176840
20
31.153673
11
6.193214
21
32.423094
0
LINE
8
Image
10
6.193214
20
32.423094
11
6.303584
21
32.811464
0
LINE
8
Image
10
6.303584
20
32.811464
11
6.488165
21
32.954448
0
LINE
8
Image
10
6.488165
20
32.954448
11
6.873333
21
32.824592
0
LINE
8
Image
10
6.873333
20
32.824592
11
7.245626
21
32.512385
0
LINE
8
Image
10
7.245626
20
32.512385
11
8.785030
21
31.321761
0
LINE
8
Image
10
8.785030
20
31.321761
11
9.961307
21
30.573201
0
LINE
8
Image
10
9.961307
20
30.573201
11
17.557644
21
30.573201
0
LINE
8
Image
10
17.557644
20
30.573201
11
24.137403
21
30.642750
0
LINE
8
Image
10
24.137403
20
30.642750
11
24.957590
21
30.800271
0
LINE
8
Image
10
24.957590
20
30.800271
11
25.015601
21
31.102367
0
LINE
8
Image
10
25.015601
20
31.102367
11
25.060718
21
31.505515
0
LINE
8
Image
10
25.060718
20
31.505515
11
25.391359
21
31.639898
0
LINE
8
Image
10
25.391359
20
31.639898
11
25.878757
21
31.505515
0
LINE
8
Image
10
25.878757
20
31.505515
11
26.394144
21
31.102367
0
LINE
8
Image
10
26.394144
20
31.102367
11
26.820996
21
30.806904
0
LINE
8
Image
10
26.820996
20
30.806904
11
27.827485
21
30.648327
0
LINE
8
Image
10
27.827485
20
30.648327
11
34.041913
21
30.570616
0
LINE
8
Image
10
34.041913
20
30.570616
11
40.428591
21
30.484132
0
LINE
8
Image
10
40.428591
20
30.484132
11
41.646320
21
30.296210
0
LINE
8
Image
10
41.646320
20
30.296210
11
42.533707
21
29.938374
0
LINE
8
Image
10
42.533707
20
29.938374
11
44.031963
21
28.930544
0
LINE
8
Image
10
44.031963
20
28.930544
11
45.809668
21
27.319999
0
LINE
8
Image
10
45.809668
20
27.319999
11
47.762714
21
25.331282
0
LINE
8
Image
10
47.762714
20
25.331282
11
50.050253
21
27.621512
0
LINE
8
Image
10
50.050253
20
27.621512
11
51.893421
21
29.294487
0
LINE
8
Image
10
51.893421
20
29.294487
11
53.876549
21
30.763699
0
LINE
8
Image
10
53.876549
20
30.763699
11
55.997508
21
32.028271
0
LINE
8
Image
10
55.997508
20
32.028271
11
58.254164
21
33.087326
0
LINE
8
Image
10
58.254164
20
33.087326
11
60.644386
21
33.939989
0
LINE
8
Image
10
60.644386
20
33.939989
11
63.166043
21
34.585380
0
LINE
8
Image
10
63.166043
20
34.585380
11
65.817002
21
35.022625
0
LINE
8
Image
10
65.817002
20
35.022625
11
68.595132
21
35.250844
0
LINE
8
Image
10
68.595132
20
35.250844
11
72.801680
21
35.232556
0
LINE
8
Image
10
72.801680
20
35.232556
11
76.606232
21
34.763286
0
LINE
8
Image
10
76.606232
20
34.763286
11
80.208616
21
33.804508
0
LINE
8
Image
10
80.208616
20
33.804508
11
83.808655
21
32.317697
0
LINE
8
Image
10
83.808655
20
32.317697
11
86.535621
21
30.859442
0
LINE
8
Image
10
86.535621
20
30.859442
11
88.808576
21
29.312890
0
LINE
8
Image
10
88.808576
20
29.312890
11
90.700604
21
27.621221
0
LINE
8
Image
10
90.700604
20
27.621221
11
92.284786
21
25.727612
0
LINE
8
Image
10
92.284786
20
25.727612
11
92.822670
21
24.983060
0
LINE
8
Image
10
92.822670
20
24.983060
11
95.184070
21
27.286702
0
LINE
8
Image
10
95.184070
20
27.286702
11
97.263097
21
29.221044
0
LINE
8
Image
10
97.263097
20
29.221044
11
98.143510
21
29.804894
0
LINE
8
Image
10
98.143510
20
29.804894
11
99.118863
21
30.189079
0
LINE
8
Image
10
99.118863
20
30.189079
11
100.339913
21
30.415510
0
LINE
8
Image
10
100.339913
20
30.415510
11
101.957416
21
30.526098
0
LINE
8
Image
10
101.957416
20
30.526098
11
106.984805
21
30.567390
0
LINE
8
Image
10
106.984805
20
30.567390
11
113.314071
21
30.647758
0
LINE
8
Image
10
113.314071
20
30.647758
11
114.335529
21
30.806708
0
LINE
8
Image
10
114.335529
20
30.806708
11
114.764866
21
31.102367
0
LINE
8
Image
10
114.764866
20
31.102367
11
115.280253
21
31.505515
0
LINE
8
Image
10
115.280253
20
31.505515
11
115.767651
21
31.639898
0
LINE
8
Image
10
115.767651
20
31.639898
11
116.098292
21
31.505515
0
LINE
8
Image
10
116.098292
20
31.505515
11
116.143409
21
31.102367
0
LINE
8
Image
10
116.143409
20
31.102367
11
116.202492
21
30.800236
0
LINE
8
Image
10
116.202492
20
30.800236
11
117.030247
21
30.642719
0
LINE
8
Image
10
117.030247
20
30.642719
11
123.670560
21
30.573201
0
LINE
8
Image
10
123.670560
20
30.573201
11
128.379309
21
30.592729
0
LINE
8
Image
10
128.379309
20
30.592729
11
130.951525
21
30.738708
0
LINE
8
Image
10
130.951525
20
30.738708
11
132.329629
21
31.142234
0
LINE
8
Image
10
132.329629
20
31.142234
11
133.456041
21
31.934400
0
LINE
8
Image
10
133.456041
20
31.934400
11
134.712810
21
32.689865
0
LINE
8
Image
10
134.712810
20
32.689865
11
134.860643
21
32.544158
0
LINE
8
Image
10
134.860643
20
32.544158
11
134.957520
21
32.151123
0
LINE
8
Image
10
134.957520
20
32.151123
11
135.006384
21
30.887585
0
LINE
8
Image
10
135.006384
20
30.887585
11
134.875364
21
29.428285
0
LINE
8
Image
10
134.875364
20
29.428285
11
134.580423
21
28.302256
0
LINE
8
Image
10
134.580423
20
28.302256
11
134.076620
21
27.568936
0
LINE
8
Image
10
134.076620
20
27.568936
11
133.364305
21
26.941777
0
LINE
8
Image
10
133.364305
20
26.941777
11
132.562225
21
26.504263
0
LINE
8
Image
10
132.562225
20
26.504263
11
131.789123
21
26.339873
0
LINE
8
Image
10
131.789123
20
26.339873
11
131.056111
21
26.042227
0
LINE
8
Image
10
131.056111
20
26.042227
11
130.128383
21
25.119155
0
LINE
8
Image
10
130.128383
20
25.119155
11
129.243260
21
24.241793
0
LINE
8
Image
10
129.243260
20
24.241793
11
128.238081
21
23.542647
0
LINE
8
Image
10
128.238081
20
23.542647
11
127.211984
21
23.078492
0
LINE
8
Image
10
127.211984
20
23.078492
11
126.264109
21
22.906105
0
LINE
8
Image
10
126.264109
20
22.906105
11
125.509960
21
22.612288
0
LINE
8
Image
10
125.509960
20
22.612288
11
124.572886
21
21.680468
0
LINE
8
Image
10
124.572886
20
21.680468
11
123.729349
21
20.817991
0
LINE
8
Image
10
123.729349
20
20.817991
11
122.847545
21
20.207920
0
LINE
8
Image
10
122.847545
20
20.207920
11
121.916420
21
19.844317
0
LINE
8
Image
10
121.916420
20
19.844317
11
120.924919
21
19.721247
0
LINE
8
Image
10
120.924919
20
19.721247
11
120.276545
21
19.681490
0
LINE
8
Image
10
120.276545
20
19.681490
11
119.800764
21
19.500071
0
LINE
8
Image
10
119.800764
20
19.500071
11
118.723099
21
18.295243
0
LINE
8
Image
10
118.723099
20
18.295243
11
117.913451
21
17.454912
0
LINE
8
Image
10
117.913451
20
17.454912
11
116.925240
21
16.826672
0
LINE
8
Image
10
116.925240
20
16.826672
11
115.802350
21
16.431789
0
LINE
8
Image
10
115.802350
20
16.431789
11
114.588662
21
16.291530
0
LINE
8
Image
10
114.588662
20
16.291530
11
113.895840
21
16.258018
0
LINE
8
Image
10
113.895840
20
16.258018
11
113.412070
21
16.114513
0
LINE
8
Image
10
113.412070
20
16.114513
11
112.487820
21
15.191921
0
LINE
8
Image
10
112.487820
20
15.191921
11
111.598046
21
14.291484
0
LINE
8
Image
10
111.598046
20
14.291484
11
110.557340
21
13.643979
0
LINE
8
Image
10
110.557340
20
13.643979
11
109.370399
21
13.251597
0
LINE
8
Image
10
109.370399
20
13.251597
11
108.041920
21
13.116533
0
LINE
8
Image
10
108.041920
20
13.116533
11
107.208544
21
13.081975
0
LINE
8
Image
10
107.208544
20
13.081975
11
106.601001
21
12.908889
0
LINE
8
Image
10
106.601001
20
12.908889
11
105.111357
21
11.680651
0
LINE
8
Image
10
105.111357
20
11.680651
11
103.958006
21
10.707050
0
LINE
8
Image
10
103.958006
20
10.707050
11
102.853051
21
10.090700
0
LINE
8
Image
10
102.853051
20
10.090700
11
101.637771
21
9.767318
0
LINE
8
Image
10
101.637771
20
9.767318
11
100.153450
21
9.672620
0
LINE
8
Image
10
100.153450
20
9.672620
11
98.920171
21
9.546380
0
LINE
8
Image
10
98.920171
20
9.546380
11
98.617740
21
9.303073
0
LINE
8
Image
10
98.617740
20
9.303073
11
98.352920
21
8.862313
0
LINE
8
Image
10
98.352920
20
8.862313
11
97.696847
21
8.062341
0
LINE
8
Image
10
97.696847
20
8.062341
11
96.706827
21
7.274815
0
LINE
8
Image
10
96.706827
20
7.274815
11
95.478998
21
6.496147
0
LINE
8
Image
10
95.478998
20
6.496147
11
84.153729
21
6.496147
0
LINE
8
Image
10
84.153729
20
6.496147
11
72.828460
21
6.496147
0
LINE
8
Image
10
72.828460
20
6.496147
11
72.828460
21
5.875129
0
LINE
8
Image
10
72.828460
20
5.875129
11
72.893247
21
5.515904
0
LINE
8
Image
10
72.893247
20
5.515904
11
73.315416
21
5.311002
0
LINE
8
Image
10
73.315416
20
5.311002
11
76.598768
21
5.073580
0
LINE
8
Image
10
76.598768
20
5.073580
11
81.228971
21
4.738528
0
LINE
8
Image
10
81.228971
20
4.738528
11
81.724988
21
4.623943
0
LINE
8
Image
10
81.724988
20
4.623943
11
81.980392
21
4.403524
0
LINE
8
Image
10
81.980392
20
4.403524
11
82.088865
21
2.998749
0
LINE
8
Image
10
82.088865
20
2.998749
11
82.088865
21
1.413489
0
LINE
8
Image
10
82.088865
20
1.413489
11
81.096679
21
1.537973
0
LINE
8
Image
10
81.096679
20
1.537973
11
76.268039
21
2.489657
0
LINE
8
Image
10
76.268039
20
2.489657
11
73.328512
21
3.019400
0
LINE
8
Image
10
73.328512
20
3.019400
11
70.667987
21
3.295392
0
LINE
8
Image
10
70.667987
20
3.295392
11
68.425805
21
3.309391
0
LINE
8
Image
10
68.425805
20
3.309391
11
66.741305
21
3.053155
0
LINE
8
Image
10
66.741305
20
3.053155
11
62.552827
21
2.053457
0
LINE
8
Image
10
62.552827
20
2.053457
11
59.270373
21
1.469070
0
LINE
8
Image
10
59.270373
20
1.469070
11
58.855739
21
1.498126
0
LINE
8
Image
10
58.855739
20
1.498126
11
58.638417
21
1.675033
0
LINE
8
Image
10
58.638417
20
1.675033
11
58.540978
21
3.010835
0
LINE
8
Image
10
58.540978
20
3.010835
11
58.540978
21
3.010835
0
LINE
8
Image
10
81.559699
20
3.056568
11
81.458265
21
3.929343
0
LINE
8
Image
10
81.458265
20
3.929343
11
81.278155
21
4.065835
0
LINE
8
Image
10
81.278155
20
4.065835
11
80.964388
21
4.084209
0
LINE
8
Image
10
80.964388
20
4.084209
11
80.599586
21
4.033846
0
LINE
8
Image
10
80.599586
20
4.033846
11
80.832096
21
3.932515
0
LINE
8
Image
10
80.832096
20
3.932515
11
81.155178
21
3.627048
0
LINE
8
Image
10
81.155178
20
3.627048
11
81.296505
21
3.078012
0
LINE
8
Image
10
81.296505
20
3.078012
11
81.238701
21
2.516465
0
LINE
8
Image
10
81.238701
20
2.516465
11
80.964388
21
2.173464
0
LINE
8
Image
10
80.964388
20
2.173464
11
80.852716
21
2.071077
0
LINE
8
Image
10
80.852716
20
2.071077
11
81.096679
21
2.019125
0
LINE
8
Image
10
81.096679
20
2.019125
11
81.323974
21
2.056183
0
LINE
8
Image
10
81.323974
20
2.056183
11
81.465921
21
2.216822
0
LINE
8
Image
10
81.465921
20
2.216822
11
81.559699
21
3.056568
0
LINE
8
Image
10
81.559699
20
3.056568
11
81.559699
21
3.056568
0
LINE
8
Image
10
59.253498
20
3.249971
11
59.164478
21
3.347371
0
LINE
8
Image
10
59.164478
20
3.347371
11
59.121725
21
2.924277
0
LINE
8
Image
10
59.121725
20
2.924277
11
59.153507
21
2.459365
0
LINE
8
Image
10
59.153507
20
2.459365
11
59.243695
21
2.456222
0
LINE
8
Image
10
59.243695
20
2.456222
11
59.253511
21
3.249971
0
LINE
8
Image
10
59.253511
20
3.249971
11
59.253498
21
3.249971
0
LINE
8
Image
10
63.303472
20
3.590703
11
65.552428
21
4.118639
0
LINE
8
Image
10
65.552428
20
4.118639
11
63.435764
21
3.981617
0
LINE
8
Image
10
63.435764
20
3.981617
11
60.656403
21
3.645020
0
LINE
8
Image
10
60.656403
20
3.645020
11
59.952638
21
3.391936
0
LINE
8
Image
10
59.952638
20
3.391936
11
59.647261
21
3.068128
0
LINE
8
Image
10
59.647261
20
3.068128
11
59.720093
21
2.827288
0
LINE
8
Image
10
59.720093
20
2.827288
11
60.291478
21
2.887217
0
LINE
8
Image
10
60.291478
20
2.887217
11
63.303472
21
3.590703
0
LINE
8
Image
10
63.303472
20
3.590703
11
63.303472
21
3.590703
0
LINE
8
Image
10
81.030533
20
3.027885
11
80.850500
21
3.246415
0
LINE
8
Image
10
80.850500
20
3.246415
11
80.302957
21
3.433488
0
LINE
8
Image
10
80.302957
20
3.433488
11
78.060695
21
3.723728
0
LINE
8
Image
10
78.060695
20
3.723728
11
76.731113
21
3.733533
0
LINE
8
Image
10
76.731113
20
3.733533
11
78.384703
21
3.212146
0
LINE
8
Image
10
78.384703
20
3.212146
11
80.344870
21
2.826909
0
LINE
8
Image
10
80.344870
20
2.826909
11
80.856092
21
2.853488
0
LINE
8
Image
10
80.856092
20
2.853488
11
81.030533
21
3.027885
0
LINE
8
Image
10
81.030533
20
3.027885
11
81.030533
21
3.027885
0
LINE
8
Image
10
64.819313
20
3.216421
11
64.312195
21
3.237297
0
LINE
8
Image
10
64.312195
20
3.237297
11
64.197387
21
3.130460
0
LINE
8
Image
10
64.197387
20
3.130460
11
64.472048
21
3.077447
0
LINE
8
Image
10
64.472048
20
3.077447
11
64.783242
21
3.109653
0
LINE
8
Image
10
64.783242
20
3.109653
11
64.819313
21
3.216411
0
LINE
8
Image
10
64.819313
20
3.216411
11
64.819313
21
3.216421
0
LINE
8
Image
10
68.793570
20
4.181046
11
69.064195
21
4.436767
0
LINE
8
Image
10
69.064195
20
4.436767
11
70.050339
21
4.533121
0
LINE
8
Image
10
70.050339
20
4.533121
11
71.205465
21
4.665050
0
LINE
8
Image
10
71.205465
20
4.665050
11
71.383407
21
4.917545
0
LINE
8
Image
10
71.383407
20
4.917545
11
71.456164
21
5.393016
0
LINE
8
Image
10
71.456164
20
5.393016
11
71.411072
21
6.093381
0
LINE
8
Image
10
71.411072
20
6.093381
11
70.845236
21
6.231564
0
LINE
8
Image
10
70.845236
20
6.231564
11
70.396960
21
6.155784
0
LINE
8
Image
10
70.396960
20
6.155784
11
70.314922
21
5.966981
0
LINE
8
Image
10
70.314922
20
5.966981
11
70.348101
21
5.780120
0
LINE
8
Image
10
70.348101
20
5.780120
11
70.198246
21
5.702398
0
LINE
8
Image
10
70.198246
20
5.702398
11
70.000356
21
5.780120
0
LINE
8
Image
10
70.000356
20
5.780120
11
69.918047
21
5.966981
0
LINE
8
Image
10
69.918047
20
5.966981
11
69.801466
21
6.153843
0
LINE
8
Image
10
69.801466
20
6.153843
11
69.521173
21
6.231564
0
LINE
8
Image
10
69.521173
20
6.231564
11
69.240880
21
6.114982
0
LINE
8
Image
10
69.240880
20
6.114982
11
69.124298
21
5.834690
0
LINE
8
Image
10
69.124298
20
5.834690
11
69.066007
21
5.573828
0
LINE
8
Image
10
69.066007
20
5.573828
11
68.925861
21
5.503961
0
LINE
8
Image
10
68.925861
20
5.503961
11
68.132112
21
4.974795
0
LINE
8
Image
10
68.132112
20
4.974795
11
67.536800
21
4.544125
0
LINE
8
Image
10
67.536800
20
4.544125
11
66.941489
21
4.344654
0
LINE
8
Image
10
66.941489
20
4.344654
11
66.726515
21
4.269797
0
LINE
8
Image
10
66.726515
20
4.269797
11
67.272217
21
4.114900
0
LINE
8
Image
10
67.272217
20
4.114900
11
68.591393
21
3.902173
0
LINE
8
Image
10
68.591393
20
3.902173
11
68.785377
21
3.978128
0
LINE
8
Image
10
68.785377
20
3.978128
11
68.793570
21
4.181046
0
LINE
8
Image
10
68.793570
20
4.181046
11
68.793570
21
4.181046
0
LINE
8
Image
10
73.236342
20
4.132709
11
73.200418
21
4.373776
0
LINE
8
Image
10
73.200418
20
4.373776
11
72.868965
21
4.556812
0
LINE
8
Image
10
72.868965
20
4.556812
11
72.425332
21
4.897458
0
LINE
8
Image
10
72.425332
20
4.897458
11
72.247031
21
5.775209
0
LINE
8
Image
10
72.247031
20
5.775209
11
72.106213
21
6.563280
0
LINE
8
Image
10
72.106213
20
6.563280
11
71.880034
21
6.946065
0
LINE
8
Image
10
71.880034
20
6.946065
11
71.694318
21
6.657159
0
LINE
8
Image
10
71.694318
20
6.657159
11
71.712881
21
5.595406
0
LINE
8
Image
10
71.712881
20
5.595406
11
71.832697
21
4.150574
0
LINE
8
Image
10
71.832697
20
4.150574
11
70.809226
21
4.044923
0
LINE
8
Image
10
70.809226
20
4.044923
11
70.431004
21
3.994021
0
LINE
8
Image
10
70.431004
20
3.994021
11
70.401642
21
3.953428
0
LINE
8
Image
10
70.401642
20
3.953428
11
71.423784
21
3.894794
0
LINE
8
Image
10
71.423784
20
3.894794
11
72.639779
21
3.944573
0
LINE
8
Image
10
72.639779
20
3.944573
11
73.236342
21
4.132709
0
LINE
8
Image
10
73.236342
20
4.132709
11
73.236342
21
4.132709
0
LINE
8
Image
10
75.805019
20
4.025545
11
75.143562
21
4.025545
0
LINE
8
Image
10
75.143562
20
4.025545
11
75.104288
21
3.931295
0
LINE
8
Image
10
75.104288
20
3.931295
11
75.474290
21
3.892092
0
LINE
8
Image
10
75.474290
20
3.892092
11
75.844293
21
3.931295
0
LINE
8
Image
10
75.844293
20
3.931295
11
75.805019
21
4.025545
0
LINE
8
Image
10
75.805019
20
4.025545
11
75.805019
21
4.025545
0
LINE
8
Image
10
61.115151
20
4.274753
11
60.608033
21
4.295629
0
LINE
8
Image
10
60.608033
20
4.295629
11
60.493225
21
4.188792
0
LINE
8
Image
10
60.493225
20
4.188792
11
60.767886
21
4.135779
0
LINE
8
Image
10
60.767886
20
4.135779
11
61.079080
21
4.167985
0
LINE
8
Image
10
61.079080
20
4.167985
11
61.115151
21
4.274743
0
LINE
8
Image
10
61.115151
20
4.274743
11
61.115151
21
4.274753
0
LINE
8
Image
10
79.773764
20
4.290126
11
79.112307
21
4.290126
0
LINE
8
Image
10
79.112307
20
4.290126
11
79.073033
21
4.195875
0
LINE
8
Image
10
79.073033
20
4.195875
11
79.443035
21
4.156673
0
LINE
8
Image
10
79.443035
20
4.156673
11
79.813038
21
4.195875
0
LINE
8
Image
10
79.813038
20
4.195875
11
79.773764
21
4.290126
0
LINE
8
Image
10
79.773764
20
4.290126
11
79.773764
21
4.290126
0
LINE
8
Image
10
63.110070
20
4.553031
11
62.316321
21
4.562821
0
LINE
8
Image
10
62.316321
20
4.562821
11
62.218921
21
4.473801
0
LINE
8
Image
10
62.218921
20
4.473801
11
62.642015
21
4.431048
0
LINE
8
Image
10
62.642015
20
4.431048
11
63.106927
21
4.462830
0
LINE
8
Image
10
63.106927
20
4.462830
11
63.110070
21
4.553018
0
LINE
8
Image
10
63.110070
20
4.553018
11
63.110070
21
4.553031
0
LINE
8
Image
10
77.524809
20
4.561868
11
76.598768
21
4.561868
0
LINE
8
Image
10
76.598768
20
4.561868
11
76.543785
21
4.476411
0
LINE
8
Image
10
76.543785
20
4.476411
11
77.061788
21
4.440867
0
LINE
8
Image
10
77.061788
20
4.440867
11
77.579792
21
4.476411
0
LINE
8
Image
10
77.579792
20
4.476411
11
77.524809
21
4.561868
0
LINE
8
Image
10
77.524809
20
4.561868
11
77.524809
21
4.561868
0
LINE
8
Image
10
69.455027
20
6.935958
11
68.793570
21
6.935958
0
LINE
8
Image
10
68.793570
20
6.935958
11
68.754296
21
6.841708
0
LINE
8
Image
10
68.754296
20
6.841708
11
69.124298
21
6.802505
0
LINE
8
Image
10
69.124298
20
6.802505
11
69.494301
21
6.841708
0
LINE
8
Image
10
69.494301
20
6.841708
11
69.455027
21
6.935958
0
LINE
8
Image
10
69.455027
20
6.935958
11
69.455027
21
6.935958
0
LINE
8
Image
10
63.435764
20
7.277916
11
61.352935
21
7.906258
0
LINE
8
Image
10
61.352935
20
7.906258
11
60.223818
21
8.327107
0
LINE
8
Image
10
60.223818
20
8.327107
11
60.207256
21
8.245446
0
LINE
8
Image
10
60.207256
20
8.245446
11
60.540927
21
7.970250
0
LINE
8
Image
10
60.540927
20
7.970250
11
60.883541
21
7.635044
0
LINE
8
Image
10
60.883541
20
7.635044
11
60.657642
21
7.442058
0
LINE
8
Image
10
60.657642
20
7.442058
11
52.984735
21
7.220293
0
LINE
8
Image
10
52.984735
20
7.220293
11
49.412107
21
7.181381
0
LINE
8
Image
10
49.412107
20
7.181381
11
48.609869
21
7.167352
0
LINE
8
Image
10
48.609869
20
7.167352
11
48.485746
21
7.155895
0
LINE
8
Image
10
48.485746
20
7.155895
11
55.101399
21
7.120143
0
LINE
8
Image
10
55.101399
20
7.120143
11
61.424106
21
7.154697
0
LINE
8
Image
10
61.424106
20
7.154697
11
63.105552
21
7.207811
0
LINE
8
Image
10
63.105552
20
7.207811
11
63.456654
21
7.241063
0
LINE
8
Image
10
63.456654
20
7.241063
11
63.435764
21
7.277916
0
LINE
8
Image
10
63.435764
20
7.277916
11
63.435764
21
7.277916
0
LINE
8
Image
10
66.985587
20
7.100182
11
66.406266
21
7.534480
0
LINE
8
Image
10
66.406266
20
7.534480
11
66.047504
21
7.756177
0
LINE
8
Image
10
66.047504
20
7.756177
11
66.103845
21
7.459610
0
LINE
8
Image
10
66.103845
20
7.459610
11
66.342765
21
7.152888
0
LINE
8
Image
10
66.342765
20
7.152888
11
66.683166
21
7.025313
0
LINE
8
Image
10
66.683166
20
7.025313
11
66.985587
21
7.100182
0
LINE
8
Image
10
66.985587
20
7.100182
11
66.985587
21
7.100182
0
LINE
8
Image
10
74.680541
20
7.281594
11
74.797123
21
7.417853
0
LINE
8
Image
10
74.797123
20
7.417853
11
75.077416
21
7.385578
0
LINE
8
Image
10
75.077416
20
7.385578
11
75.474290
21
7.365575
0
LINE
8
Image
10
75.474290
20
7.365575
11
75.352359
21
7.559622
0
LINE
8
Image
10
75.352359
20
7.559622
11
75.050295
21
7.630296
0
LINE
8
Image
10
75.050295
20
7.630296
11
74.288160
21
7.392758
0
LINE
8
Image
10
74.288160
20
7.392758
11
73.947128
21
7.087773
0
LINE
8
Image
10
73.947128
20
7.087773
11
74.233097
21
7.025313
0
LINE
8
Image
10
74.233097
20
7.025313
11
74.549105
21
7.100596
0
LINE
8
Image
10
74.549105
20
7.100596
11
74.680541
21
7.281594
0
LINE
8
Image
10
74.680541
20
7.281594
11
74.680541
21
7.281594
0
LINE
8
Image
10
79.972201
20
7.422188
11
79.800910
21
7.702480
0
LINE
8
Image
10
79.800910
20
7.702480
11
79.851610
21
7.819062
0
LINE
8
Image
10
79.851610
20
7.819062
11
79.953906
21
7.864220
0
LINE
8
Image
10
79.953906
20
7.864220
11
79.906667
21
7.972790
0
LINE
8
Image
10
79.906667
20
7.972790
11
79.188800
21
7.824600
0
LINE
8
Image
10
79.188800
20
7.824600
11
77.512495
21
7.302988
0
LINE
8
Image
10
77.512495
20
7.302988
11
76.961586
21
7.182863
0
LINE
8
Image
10
76.961586
20
7.182863
11
76.878310
21
7.113054
0
LINE
8
Image
10
76.878310
20
7.113054
11
78.350953
21
7.054304
0
LINE
8
Image
10
78.350953
20
7.054304
11
79.909237
21
7.098593
0
LINE
8
Image
10
79.909237
20
7.098593
11
80.080261
21
7.214725
0
LINE
8
Image
10
80.080261
20
7.214725
11
79.972201
21
7.422188
0
LINE
8
Image
10
79.972201
20
7.422188
11
79.972201
21
7.422188
0
LINE
8
Image
10
83.604706
20
7.185166
11
83.097588
21
7.206042
0
LINE
8
Image
10
83.097588
20
7.206042
11
82.982780
21
7.099205
0
LINE
8
Image
10
82.982780
20
7.099205
11
83.257441
21
7.046192
0
LINE
8
Image
10
83.257441
20
7.046192
11
83.568635
21
7.078397
0
LINE
8
Image
10
83.568635
20
7.078397
11
83.604706
21
7.185156
0
LINE
8
Image
10
83.604706
20
7.185156
11
83.604706
21
7.185166
0
LINE
8
Image
10
87.314380
20
7.207709
11
86.388339
21
7.207709
0
LINE
8
Image
10
86.388339
20
7.207709
11
86.333356
21
7.122252
0
LINE
8
Image
10
86.333356
20
7.122252
11
86.851359
21
7.086707
0
LINE
8
Image
10
86.851359
20
7.086707
11
87.369363
21
7.122252
0
LINE
8
Image
10
87.369363
20
7.122252
11
87.314380
21
7.207709
0
LINE
8
Image
10
87.314380
20
7.207709
11
87.314380
21
7.207709
0
LINE
8
Image
10
94.854995
20
7.200539
11
94.193538
21
7.200539
0
LINE
8
Image
10
94.193538
20
7.200539
11
94.154264
21
7.106288
0
LINE
8
Image
10
94.154264
20
7.106288
11
94.524266
21
7.067086
0
LINE
8
Image
10
94.524266
20
7.067086
11
94.894269
21
7.106288
0
LINE
8
Image
10
94.894269
20
7.106288
11
94.854995
21
7.200539
0
LINE
8
Image
10
94.854995
20
7.200539
11
94.854995
21
7.200539
0
LINE
8
Image
10
73.926146
20
7.969097
11
74.937430
21
8.425121
0
LINE
8
Image
10
74.937430
20
8.425121
11
74.371628
21
8.915841
0
LINE
8
Image
10
74.371628
20
8.915841
11
73.464436
21
9.406560
0
LINE
8
Image
10
73.464436
20
9.406560
11
73.096216
21
9.531392
0
LINE
8
Image
10
73.096216
20
9.531392
11
72.788200
21
9.871254
0
LINE
8
Image
10
72.788200
20
9.871254
11
72.390080
21
10.988271
0
LINE
8
Image
10
72.390080
20
10.988271
11
72.344679
21
12.342020
0
LINE
8
Image
10
72.344679
20
12.342020
11
72.726599
21
13.516906
0
LINE
8
Image
10
72.726599
20
13.516906
11
73.311446
21
14.036390
0
LINE
8
Image
10
73.311446
20
14.036390
11
74.050940
21
14.202343
0
LINE
8
Image
10
74.050940
20
14.202343
11
74.792432
21
14.016786
0
LINE
8
Image
10
74.792432
20
14.016786
11
75.383271
21
13.481739
0
LINE
8
Image
10
75.383271
20
13.481739
11
75.645934
21
12.964916
0
LINE
8
Image
10
75.645934
20
12.964916
11
75.773048
21
12.317102
0
LINE
8
Image
10
75.773048
20
12.317102
11
75.681213
21
9.900241
0
LINE
8
Image
10
75.681213
20
9.900241
11
75.669700
21
8.914847
0
LINE
8
Image
10
75.669700
20
8.914847
11
75.796739
21
8.842547
0
LINE
8
Image
10
75.796739
20
8.842547
11
76.045586
21
8.965106
0
LINE
8
Image
10
76.045586
20
8.965106
11
76.307795
21
9.212142
0
LINE
8
Image
10
76.307795
20
9.212142
11
76.283930
21
9.397469
0
LINE
8
Image
10
76.283930
20
9.397469
11
75.963756
21
10.068018
0
LINE
8
Image
10
75.963756
20
10.068018
11
76.028515
21
10.495483
0
LINE
8
Image
10
76.028515
20
10.495483
11
76.466477
21
10.681731
0
LINE
8
Image
10
76.466477
20
10.681731
11
76.933943
21
10.630530
0
LINE
8
Image
10
76.933943
20
10.630530
11
77.061788
21
10.218711
0
LINE
8
Image
10
77.061788
20
10.218711
11
77.117208
21
9.816050
0
LINE
8
Image
10
77.117208
20
9.816050
11
77.376235
21
9.729465
0
LINE
8
Image
10
77.376235
20
9.729465
11
79.061726
21
10.614755
0
LINE
8
Image
10
79.061726
20
10.614755
11
80.344664
21
11.412213
0
LINE
8
Image
10
80.344664
20
11.412213
11
80.880775
21
11.926380
0
LINE
8
Image
10
80.880775
20
11.926380
11
80.768053
21
12.381629
0
LINE
8
Image
10
80.768053
20
12.381629
11
80.104493
21
13.002333
0
LINE
8
Image
10
80.104493
20
13.002333
11
78.769951
21
14.057799
0
LINE
8
Image
10
78.769951
20
14.057799
11
77.448877
21
14.901595
0
LINE
8
Image
10
77.448877
20
14.901595
11
76.044469
21
15.588073
0
LINE
8
Image
10
76.044469
20
15.588073
11
74.459924
21
16.171585
0
LINE
8
Image
10
74.459924
20
16.171585
11
72.175290
21
16.743765
0
LINE
8
Image
10
72.175290
20
16.743765
11
69.565139
21
16.749851
0
LINE
8
Image
10
69.565139
20
16.749851
11
66.795481
21
16.458657
0
LINE
8
Image
10
66.795481
20
16.458657
11
64.500771
21
15.824489
0
LINE
8
Image
10
64.500771
20
15.824489
11
62.432681
21
14.750096
0
LINE
8
Image
10
62.432681
20
14.750096
11
60.342884
21
13.138228
0
LINE
8
Image
10
60.342884
20
13.138228
11
59.317342
21
12.239691
0
LINE
8
Image
10
59.317342
20
12.239691
11
60.278932
21
11.550728
0
LINE
8
Image
10
60.278932
20
11.550728
11
64.582620
21
9.141977
0
LINE
8
Image
10
64.582620
20
9.141977
11
67.924716
21
7.422188
0
LINE
8
Image
10
67.924716
20
7.422188
11
70.419789
21
7.467633
0
LINE
8
Image
10
70.419789
20
7.467633
11
72.554603
21
7.612764
0
LINE
8
Image
10
72.554603
20
7.612764
11
73.926146
21
7.969099
0
LINE
8
Image
10
73.926146
20
7.969099
11
73.926146
21
7.969097
0
LINE
8
Image
10
64.575786
20
11.108451
11
64.584895
21
12.546517
0
LINE
8
Image
10
64.584895
20
12.546517
11
64.431190
21
12.708183
0
LINE
8
Image
10
64.431190
20
12.708183
11
64.123510
21
12.665093
0
LINE
8
Image
10
64.123510
20
12.665093
11
63.675063
21
12.675739
0
LINE
8
Image
10
63.675063
20
12.675739
11
63.568055
21
13.183848
0
LINE
8
Image
10
63.568055
20
13.183848
11
63.655630
21
13.657448
0
LINE
8
Image
10
63.655630
20
13.657448
11
63.953320
21
13.960595
0
LINE
8
Image
10
63.953320
20
13.960595
11
64.513580
21
14.121670
0
LINE
8
Image
10
64.513580
20
14.121670
11
65.388860
21
14.169055
0
LINE
8
Image
10
65.388860
20
14.169055
11
66.101308
21
14.098669
0
LINE
8
Image
10
66.101308
20
14.098669
11
66.606705
21
13.886184
0
LINE
8
Image
10
66.606705
20
13.886184
11
66.907872
21
13.529607
0
LINE
8
Image
10
66.907872
20
13.529607
11
67.007634
21
13.026947
0
LINE
8
Image
10
67.007634
20
13.026947
11
66.887147
21
12.659655
0
LINE
8
Image
10
66.887147
20
12.659655
11
66.443498
21
12.667363
0
LINE
8
Image
10
66.443498
20
12.667363
11
66.129394
21
12.714407
0
LINE
8
Image
10
66.129394
20
12.714407
11
65.977094
21
12.556706
0
LINE
8
Image
10
65.977094
20
12.556706
11
66.016157
21
11.110724
0
LINE
8
Image
10
66.016157
20
11.110724
11
66.152949
21
9.406560
0
LINE
8
Image
10
66.152949
20
9.406560
11
65.312777
21
9.406560
0
LINE
8
Image
10
65.312777
20
9.406560
11
64.472604
21
9.406560
0
LINE
8
Image
10
64.472604
20
9.406560
11
64.575786
21
11.108451
0
LINE
8
Image
10
65.348294
20
12.779994
11
65.307996
21
13.008662
0
LINE
8
Image
10
65.307996
20
13.008662
11
65.274995
21
12.897816
0
LINE
8
Image
10
65.274995
20
12.897816
11
65.244509
21
11.787807
0
LINE
8
Image
10
65.244509
20
11.787807
11
65.274995
21
10.677799
0
LINE
8
Image
10
65.274995
20
10.677799
11
65.307996
21
10.566953
0
LINE
8
Image
10
65.307996
20
10.566953
11
65.348294
21
10.795621
0
LINE
8
Image
10
65.348294
20
10.795621
11
65.348294
21
12.779994
0
LINE
8
Image
10
65.348294
20
12.779994
11
65.348294
21
12.779994
0
LINE
8
Image
10
66.478468
20
10.101091
11
66.607154
21
10.661000
0
LINE
8
Image
10
66.607154
20
10.661000
11
67.299297
21
10.631455
0
LINE
8
Image
10
67.299297
20
10.631455
11
68.120127
21
10.467290
0
LINE
8
Image
10
68.120127
20
10.467290
11
68.026901
21
12.252026
0
LINE
8
Image
10
68.026901
20
12.252026
11
67.933675
21
14.036764
0
LINE
8
Image
10
67.933675
20
14.036764
11
68.951814
21
14.120428
0
LINE
8
Image
10
68.951814
20
14.120428
11
69.842466
21
14.070628
0
LINE
8
Image
10
69.842466
20
14.070628
11
70.473166
21
13.748693
0
LINE
8
Image
10
70.473166
20
13.748693
11
70.804542
21
13.305262
0
LINE
8
Image
10
70.804542
20
13.305262
11
70.956755
21
12.787514
0
LINE
8
Image
10
70.956755
20
12.787514
11
70.920261
21
12.280022
0
LINE
8
Image
10
70.920261
20
12.280022
11
70.685513
21
11.867360
0
LINE
8
Image
10
70.685513
20
11.867360
11
70.476770
21
11.446857
0
LINE
8
Image
10
70.476770
20
11.446857
11
70.562439
21
11.023759
0
LINE
8
Image
10
70.562439
20
11.023759
11
70.875284
21
10.720598
0
LINE
8
Image
10
70.875284
20
10.720598
11
71.348071
21
10.659903
0
LINE
8
Image
10
71.348071
20
10.659903
11
71.803037
21
10.674547
0
LINE
8
Image
10
71.803037
20
10.674547
11
72.098229
21
10.528437
0
LINE
8
Image
10
72.098229
20
10.528437
11
72.216213
21
10.239912
0
LINE
8
Image
10
72.216213
20
10.239912
11
72.139555
21
9.827311
0
LINE
8
Image
10
72.139555
20
9.827311
11
71.706873
21
9.492317
0
LINE
8
Image
10
71.706873
20
9.492317
11
70.954380
21
9.391084
0
LINE
8
Image
10
70.954380
20
9.391084
11
70.178250
21
9.518531
0
LINE
8
Image
10
70.178250
20
9.518531
11
69.674658
21
9.869581
0
LINE
8
Image
10
69.674658
20
9.869581
11
69.442349
21
10.200310
0
LINE
8
Image
10
69.442349
20
10.200310
11
69.396927
21
9.869581
0
LINE
8
Image
10
69.396927
20
9.869581
11
69.159884
21
9.541470
0
LINE
8
Image
10
69.159884
20
9.541470
11
68.631587
21
9.396823
0
LINE
8
Image
10
68.631587
20
9.396823
11
68.064735
21
9.455483
0
LINE
8
Image
10
68.064735
20
9.455483
11
67.712028
21
9.737289
0
LINE
8
Image
10
67.712028
20
9.737289
11
67.601090
21
9.935726
0
LINE
8
Image
10
67.601090
20
9.935726
11
67.557689
21
9.737289
0
LINE
8
Image
10
67.557689
20
9.737289
11
67.387496
21
9.503712
0
LINE
8
Image
10
67.387496
20
9.503712
11
67.007634
21
9.406560
0
LINE
8
Image
10
67.007634
20
9.406560
11
66.595011
21
9.559523
0
LINE
8
Image
10
66.595011
20
9.559523
11
66.478468
21
10.101091
0
LINE
8
Image
10
66.478468
20
10.101091
11
66.478468
21
10.101091
0
LINE
8
Image
10
68.511289
20
10.514502
11
68.404451
21
10.629310
0
LINE
8
Image
10
68.404451
20
10.629310
11
68.351438
21
10.354649
0
LINE
8
Image
10
68.351438
20
10.354649
11
68.383644
21
10.043454
0
LINE
8
Image
10
68.383644
20
10.043454
11
68.490403
21
10.007383
0
LINE
8
Image
10
68.490403
20
10.007383
11
68.511278
21
10.514502
0
LINE
8
Image
10
68.511278
20
10.514502
11
68.511289
21
10.514502
0
LINE
8
Image
10
70.273933
20
10.344012
11
69.991160
21
10.626198
0
LINE
8
Image
10
69.991160
20
10.626198
11
70.039459
21
10.217912
0
LINE
8
Image
10
70.039459
20
10.217912
11
70.321620
21
9.947829
0
LINE
8
Image
10
70.321620
20
9.947829
11
70.273933
21
10.344012
0
LINE
8
Image
10
70.273933
20
10.344012
11
70.273933
21
10.344012
0
LINE
8
Image
10
69.124298
20
11.523224
11
69.506080
21
11.426073
0
LINE
8
Image
10
69.506080
20
11.426073
11
69.742819
21
11.192496
0
LINE
8
Image
10
69.742819
20
11.192496
11
69.845206
21
11.080824
0
LINE
8
Image
10
69.845206
20
11.080824
11
69.897159
21
11.324787
0
LINE
8
Image
10
69.897159
20
11.324787
11
69.772639
21
11.667271
0
LINE
8
Image
10
69.772639
20
11.667271
11
69.380357
21
11.787807
0
LINE
8
Image
10
69.380357
20
11.787807
11
68.927284
21
11.956624
0
LINE
8
Image
10
68.927284
20
11.956624
11
68.603377
21
12.383119
0
LINE
8
Image
10
68.603377
20
12.383119
11
68.408913
21
12.673921
0
LINE
8
Image
10
68.408913
20
12.673921
11
68.368208
21
11.920099
0
LINE
8
Image
10
68.368208
20
11.920099
11
68.410361
21
11.269803
0
LINE
8
Image
10
68.410361
20
11.269803
11
68.505777
21
11.192496
0
LINE
8
Image
10
68.505777
20
11.192496
11
68.742517
21
11.426073
0
LINE
8
Image
10
68.742517
20
11.426073
11
69.124298
21
11.523224
0
LINE
8
Image
10
69.124298
20
11.523224
11
69.124298
21
11.523224
0
LINE
8
Image
10
69.653464
20
12.713848
11
69.588697
21
12.994140
0
LINE
8
Image
10
69.588697
20
12.994140
11
69.432979
21
13.110722
0
LINE
8
Image
10
69.432979
20
13.110722
11
69.277260
21
12.994140
0
LINE
8
Image
10
69.277260
20
12.994140
11
69.212492
21
12.713848
0
LINE
8
Image
10
69.212492
20
12.713848
11
69.277260
21
12.433555
0
LINE
8
Image
10
69.277260
20
12.433555
11
69.432979
21
12.316973
0
LINE
8
Image
10
69.432979
20
12.316973
11
69.588697
21
12.433555
0
LINE
8
Image
10
69.588697
20
12.433555
11
69.653464
21
12.713848
0
LINE
8
Image
10
69.653464
20
12.713848
11
69.653464
21
12.713848
0
LINE
8
Image
10
70.363370
20
12.895749
11
70.256532
21
13.010558
0
LINE
8
Image
10
70.256532
20
13.010558
11
70.203519
21
12.735898
0
LINE
8
Image
10
70.203519
20
12.735898
11
70.235725
21
12.424702
0
LINE
8
Image
10
70.235725
20
12.424702
11
70.342484
21
12.388633
0
LINE
8
Image
10
70.342484
20
12.388633
11
70.363359
21
12.895749
0
LINE
8
Image
10
70.363359
20
12.895749
11
70.363370
21
12.895749
0
LINE
8
Image
10
57.950744
20
8.769106
11
56.556606
21
9.657599
0
LINE
8
Image
10
56.556606
20
9.657599
11
50.148771
21
9.664373
0
LINE
8
Image
10
50.148771
20
9.664373
11
44.919754
21
9.601405
0
LINE
8
Image
10
44.919754
20
9.601405
11
44.043591
21
9.486652
0
LINE
8
Image
10
44.043591
20
9.486652
11
43.887142
21
9.290144
0
LINE
8
Image
10
43.887142
20
9.290144
11
44.738734
21
8.430249
0
LINE
8
Image
10
44.738734
20
8.430249
11
45.317182
21
8.174696
0
LINE
8
Image
10
45.317182
20
8.174696
11
46.396559
21
8.011244
0
LINE
8
Image
10
46.396559
20
8.011244
11
51.661820
21
7.819065
0
LINE
8
Image
10
51.661820
20
7.819065
11
58.612202
21
7.783696
0
LINE
8
Image
10
58.612202
20
7.783696
11
58.995712
21
7.856653
0
LINE
8
Image
10
58.995712
20
7.856653
11
59.050158
21
7.990307
0
LINE
8
Image
10
59.050158
20
7.990307
11
57.950744
21
8.769108
0
LINE
8
Image
10
57.950744
20
8.769108
11
57.950744
21
8.769106
0
LINE
8
Image
10
64.819313
20
7.714332
11
64.312195
21
7.735208
0
LINE
8
Image
10
64.312195
20
7.735208
11
64.197387
21
7.628371
0
LINE
8
Image
10
64.197387
20
7.628371
11
64.472048
21
7.575358
0
LINE
8
Image
10
64.472048
20
7.575358
11
64.783242
21
7.607563
0
LINE
8
Image
10
64.783242
20
7.607563
11
64.819313
21
7.714322
0
LINE
8
Image
10
64.819313
20
7.714322
11
64.819313
21
7.714332
0
LINE
8
Image
10
95.584292
20
8.084511
11
96.401102
21
8.614032
0
LINE
8
Image
10
96.401102
20
8.614032
11
96.905976
21
9.142843
0
LINE
8
Image
10
96.905976
20
9.142843
11
96.953767
21
9.445348
0
LINE
8
Image
10
96.953767
20
9.445348
11
96.303307
21
9.602511
0
LINE
8
Image
10
96.303307
20
9.602511
11
90.655949
21
9.671143
0
LINE
8
Image
10
90.655949
20
9.671143
11
84.123186
21
9.671143
0
LINE
8
Image
10
84.123186
20
9.671143
11
83.240341
21
8.997764
0
LINE
8
Image
10
83.240341
20
8.997764
11
81.495578
21
7.949788
0
LINE
8
Image
10
81.495578
20
7.949788
11
81.245187
21
7.749308
0
LINE
8
Image
10
81.245187
20
7.749308
11
81.915062
21
7.634893
0
LINE
8
Image
10
81.915062
20
7.634893
11
87.589504
21
7.564835
0
LINE
8
Image
10
87.589504
20
7.564835
11
93.644114
21
7.636788
0
LINE
8
Image
10
93.644114
20
7.636788
11
94.835643
21
7.794641
0
LINE
8
Image
10
94.835643
20
7.794641
11
95.584292
21
8.084511
0
LINE
8
Image
10
95.584292
20
8.084511
11
95.584292
21
8.084511
0
LINE
8
Image
10
61.980557
20
8.902244
11
58.889431
21
10.809594
0
LINE
8
Image
10
58.889431
20
10.809594
11
56.034972
21
13.185716
0
LINE
8
Image
10
56.034972
20
13.185716
11
52.930033
21
16.495393
0
LINE
8
Image
10
52.930033
20
16.495393
11
49.087465
21
21.203408
0
LINE
8
Image
10
49.087465
20
21.203408
11
46.231115
21
24.729387
0
LINE
8
Image
10
46.231115
20
24.729387
11
44.068887
21
27.132347
0
LINE
8
Image
10
44.068887
20
27.132347
11
42.440809
21
28.574574
0
LINE
8
Image
10
42.440809
20
28.574574
11
41.186911
21
29.218356
0
LINE
8
Image
10
41.186911
20
29.218356
11
38.424590
21
29.435618
0
LINE
8
Image
10
38.424590
20
29.435618
11
33.235900
21
29.570664
0
LINE
8
Image
10
33.235900
20
29.570664
11
26.319339
21
29.647160
0
LINE
8
Image
10
26.319339
20
29.647160
11
26.840622
21
28.915565
0
LINE
8
Image
10
26.840622
20
28.915565
11
27.590208
21
28.083938
0
LINE
8
Image
10
27.590208
20
28.083938
11
28.656092
21
27.645738
0
LINE
8
Image
10
28.656092
20
27.645738
11
30.531459
21
27.503667
0
LINE
8
Image
10
30.531459
20
27.503667
11
33.709491
21
27.560426
0
LINE
8
Image
10
33.709491
20
27.560426
11
40.282579
21
27.528070
0
LINE
8
Image
10
40.282579
20
27.528070
11
42.004541
21
27.345408
0
LINE
8
Image
10
42.004541
20
27.345408
11
45.066864
21
24.262957
0
LINE
8
Image
10
45.066864
20
24.262957
11
47.970915
21
21.153320
0
LINE
8
Image
10
47.970915
20
21.153320
11
50.652714
21
18.005509
0
LINE
8
Image
10
50.652714
20
18.005509
11
54.025069
21
14.063380
0
LINE
8
Image
10
54.025069
20
14.063380
11
57.090185
21
11.119278
0
LINE
8
Image
10
57.090185
20
11.119278
11
58.518527
21
10.012252
0
LINE
8
Image
10
58.518527
20
10.012252
11
59.883255
21
9.143650
0
LINE
8
Image
10
59.883255
20
9.143650
11
61.188770
21
8.509778
0
LINE
8
Image
10
61.188770
20
8.509778
11
62.439469
21
8.106942
0
LINE
8
Image
10
62.439469
20
8.106942
11
63.351982
21
7.910234
0
LINE
8
Image
10
63.351982
20
7.910234
11
63.601636
21
7.939143
0
LINE
8
Image
10
63.601636
20
7.939143
11
61.980557
21
8.902244
0
LINE
8
Image
10
61.980557
20
8.902244
11
61.980557
21
8.902244
0
LINE
8
Image
10
80.104493
20
8.860932
11
82.466226
21
10.210784
0
LINE
8
Image
10
82.466226
20
10.210784
11
84.941842
21
12.252451
0
LINE
8
Image
10
84.941842
20
12.252451
11
87.911866
21
15.344675
0
LINE
8
Image
10
87.911866
20
15.344675
11
91.756826
21
19.846199
0
LINE
8
Image
10
91.756826
20
19.846199
11
95.256480
21
23.878057
0
LINE
8
Image
10
95.256480
20
23.878057
11
97.945325
21
26.424652
0
LINE
8
Image
10
97.945325
20
26.424652
11
99.117427
21
27.398205
0
LINE
8
Image
10
99.117427
20
27.398205
11
105.560584
21
27.398205
0
LINE
8
Image
10
105.560584
20
27.398205
11
109.764658
21
27.438516
0
LINE
8
Image
10
109.764658
20
27.438516
11
112.209270
21
27.629986
0
LINE
8
Image
10
112.209270
20
27.629986
11
113.514424
21
28.078420
0
LINE
8
Image
10
113.514424
20
28.078420
11
114.300123
21
28.889623
0
LINE
8
Image
10
114.300123
20
28.889623
11
114.840087
21
29.647160
0
LINE
8
Image
10
114.840087
20
29.647160
11
107.394152
21
29.506730
0
LINE
8
Image
10
107.394152
20
29.506730
11
102.613313
21
29.389893
0
LINE
8
Image
10
102.613313
20
29.389893
11
99.967261
21
29.142927
0
LINE
8
Image
10
99.967261
20
29.142927
11
99.137903
21
28.909990
0
LINE
8
Image
10
99.137903
20
28.909990
11
98.473990
21
28.571734
0
LINE
8
Image
10
98.473990
20
28.571734
11
97.151494
21
27.482215
0
LINE
8
Image
10
97.151494
20
27.482215
11
93.537385
21
23.330001
0
LINE
8
Image
10
93.537385
20
23.330001
11
88.600643
21
17.324541
0
LINE
8
Image
10
88.600643
20
17.324541
11
84.937825
21
13.363706
0
LINE
8
Image
10
84.937825
20
13.363706
11
83.356250
21
11.928712
0
LINE
8
Image
10
83.356250
20
11.928712
11
81.819690
21
10.739301
0
LINE
8
Image
10
81.819690
20
10.739301
11
78.516995
21
8.743132
0
LINE
8
Image
10
78.516995
20
8.743132
11
77.219952
21
7.997779
0
LINE
8
Image
10
77.219952
20
7.997779
11
77.214384
21
7.900573
0
LINE
8
Image
10
77.214384
20
7.900573
11
77.590954
21
7.947041
0
LINE
8
Image
10
77.590954
20
7.947041
11
80.104493
21
8.860932
0
LINE
8
Image
10
80.104493
20
8.860932
11
80.104493
21
8.860932
0
LINE
8
Image
10
81.374401
20
8.519734
11
83.039880
21
9.578066
0
LINE
8
Image
10
83.039880
20
9.578066
11
83.627087
21
9.935395
0
LINE
8
Image
10
83.627087
20
9.935395
11
84.642273
21
10.120391
0
LINE
8
Image
10
84.642273
20
10.120391
11
90.778933
21
10.200309
0
LINE
8
Image
10
90.778933
20
10.200309
11
95.119750
21
10.179365
0
LINE
8
Image
10
95.119750
20
10.179365
11
97.213377
21
10.020653
0
LINE
8
Image
10
97.213377
20
10.020653
11
97.609053
21
9.844689
0
LINE
8
Image
10
97.609053
20
9.844689
11
97.672802
21
9.580351
0
LINE
8
Image
10
97.672802
20
9.580351
11
97.111018
21
8.714639
0
LINE
8
Image
10
97.111018
20
8.714639
11
96.775253
21
8.222678
0
LINE
8
Image
10
96.775253
20
8.222678
11
96.996173
21
8.328959
0
LINE
8
Image
10
96.996173
20
8.328959
11
97.849268
21
9.440819
0
LINE
8
Image
10
97.849268
20
9.440819
11
98.101485
21
9.838611
0
LINE
8
Image
10
98.101485
20
9.838611
11
98.433541
21
10.072226
0
LINE
8
Image
10
98.433541
20
10.072226
11
99.882342
21
10.269003
0
LINE
8
Image
10
99.882342
20
10.269003
11
100.195500
21
10.309497
0
LINE
8
Image
10
100.195500
20
10.309497
11
99.825928
21
10.350317
0
LINE
8
Image
10
99.825928
20
10.350317
11
97.368534
21
10.413913
0
LINE
8
Image
10
97.368534
20
10.413913
11
94.258225
21
10.523387
0
LINE
8
Image
10
94.258225
20
10.523387
11
93.201351
21
10.746517
0
LINE
8
Image
10
93.201351
20
10.746517
11
94.325829
21
12.333886
0
LINE
8
Image
10
94.325829
20
12.333886
11
95.460817
21
13.437031
0
LINE
8
Image
10
95.460817
20
13.437031
11
95.966153
21
13.616802
0
LINE
8
Image
10
95.966153
20
13.616802
11
96.640930
21
13.670451
0
LINE
8
Image
10
96.640930
20
13.670451
11
97.345796
21
13.727763
0
LINE
8
Image
10
97.345796
20
13.727763
11
97.454368
21
13.772859
0
LINE
8
Image
10
97.454368
20
13.772859
11
97.368534
21
13.822273
0
LINE
8
Image
10
97.368534
20
13.822273
11
97.016981
21
13.983876
0
LINE
8
Image
10
97.016981
20
13.983876
11
96.935427
21
14.212811
0
LINE
8
Image
10
96.935427
20
14.212811
11
97.580494
21
14.863704
0
LINE
8
Image
10
97.580494
20
14.863704
11
98.171804
21
15.397675
0
LINE
8
Image
10
98.171804
20
15.397675
11
98.645620
21
16.060427
0
LINE
8
Image
10
98.645620
20
16.060427
11
99.035766
21
16.814885
0
LINE
8
Image
10
99.035766
20
16.814885
11
105.363348
21
16.814885
0
LINE
8
Image
10
105.363348
20
16.814885
11
110.183250
21
16.743839
0
LINE
8
Image
10
110.183250
20
16.743839
11
111.869997
21
16.525149
0
LINE
8
Image
10
111.869997
20
16.525149
11
111.826050
21
16.075317
0
LINE
8
Image
10
111.826050
20
16.075317
11
111.468932
21
15.400671
0
LINE
8
Image
10
111.468932
20
15.400671
11
111.270190
21
15.033342
0
LINE
8
Image
10
111.270190
20
15.033342
11
111.900792
21
15.682412
0
LINE
8
Image
10
111.900792
20
15.682412
11
112.965475
21
16.625383
0
LINE
8
Image
10
112.965475
20
16.625383
11
114.235700
21
16.891490
0
LINE
8
Image
10
114.235700
20
16.891490
11
114.348701
21
16.911064
0
LINE
8
Image
10
114.348701
20
16.911064
11
114.158846
21
16.931207
0
LINE
8
Image
10
114.158846
20
16.931207
11
112.971649
21
16.970896
0
LINE
8
Image
10
112.971649
20
16.970896
11
108.074837
21
17.031778
0
LINE
8
Image
10
108.074837
20
17.031778
11
101.591967
21
17.141842
0
LINE
8
Image
10
101.591967
20
17.141842
11
100.840078
21
17.305304
0
LINE
8
Image
10
100.840078
20
17.305304
11
100.875663
21
17.611261
0
LINE
8
Image
10
100.875663
20
17.611261
11
101.160273
21
18.143055
0
LINE
8
Image
10
101.160273
20
18.143055
11
100.289662
21
17.612250
0
LINE
8
Image
10
100.289662
20
17.612250
11
99.698078
21
17.330468
0
LINE
8
Image
10
99.698078
20
17.330468
11
98.875675
21
17.169960
0
LINE
8
Image
10
98.875675
20
17.169960
11
95.295968
21
17.080457
0
LINE
8
Image
10
95.295968
20
17.080457
11
92.543048
21
17.118796
0
LINE
8
Image
10
92.543048
20
17.118796
11
91.319155
21
17.361562
0
LINE
8
Image
10
91.319155
20
17.361562
11
91.201941
21
17.618668
0
LINE
8
Image
10
91.201941
20
17.618668
11
91.372601
21
17.997757
0
LINE
8
Image
10
91.372601
20
17.997757
11
92.451700
21
19.216385
0
LINE
8
Image
10
92.451700
20
19.216385
11
93.354865
21
20.248007
0
LINE
8
Image
10
93.354865
20
20.248007
11
93.730517
21
20.855321
0
LINE
8
Image
10
93.730517
20
20.855321
11
94.057584
21
21.404093
0
LINE
8
Image
10
94.057584
20
21.404093
11
94.843938
21
22.294967
0
LINE
8
Image
10
94.843938
20
22.294967
11
95.957359
21
23.429460
0
LINE
8
Image
10
95.957359
20
23.429460
11
101.193930
21
23.429460
0
LINE
8
Image
10
101.193930
20
23.429460
11
105.441262
21
23.358575
0
LINE
8
Image
10
105.441262
20
23.358575
11
106.223179
21
23.244179
0
LINE
8
Image
10
106.223179
20
23.244179
11
106.430501
21
23.054225
0
LINE
8
Image
10
106.430501
20
23.054225
11
106.351904
21
22.505237
0
LINE
8
Image
10
106.351904
20
22.505237
11
106.091961
21
22.014468
0
LINE
8
Image
10
106.091961
20
22.014468
11
104.883127
21
21.016786
0
LINE
8
Image
10
104.883127
20
21.016786
11
104.005723
21
20.387668
0
LINE
8
Image
10
104.005723
20
20.387668
11
104.032460
21
20.279101
0
LINE
8
Image
10
104.032460
20
20.279101
11
104.328183
21
20.250851
0
LINE
8
Image
10
104.328183
20
20.250851
11
105.504461
21
20.156534
0
LINE
8
Image
10
105.504461
20
20.156534
11
105.781033
21
20.125878
0
LINE
8
Image
10
105.781033
20
20.125878
11
105.702898
21
20.179547
0
LINE
8
Image
10
105.702898
20
20.179547
11
105.423100
21
20.385458
0
LINE
8
Image
10
105.423100
20
20.385458
11
105.412563
21
20.697851
0
LINE
8
Image
10
105.412563
20
20.697851
11
105.662011
21
21.089398
0
LINE
8
Image
10
105.662011
20
21.089398
11
106.162169
21
21.532772
0
LINE
8
Image
10
106.162169
20
21.532772
11
106.768495
21
22.138064
0
LINE
8
Image
10
106.768495
20
22.138064
11
107.116893
21
22.773153
0
LINE
8
Image
10
107.116893
20
22.773153
11
107.281617
21
23.429460
0
LINE
8
Image
10
107.281617
20
23.429460
11
115.719590
21
23.429460
0
LINE
8
Image
10
115.719590
20
23.429460
11
122.927821
21
23.359554
0
LINE
8
Image
10
122.927821
20
23.359554
11
123.960096
21
23.215910
0
LINE
8
Image
10
123.960096
20
23.215910
11
124.157562
21
22.949795
0
LINE
8
Image
10
124.157562
20
22.949795
11
123.980734
21
22.484591
0
LINE
8
Image
10
123.980734
20
22.484591
11
123.520656
21
21.900425
0
LINE
8
Image
10
123.520656
20
21.900425
11
122.173190
21
20.827089
0
LINE
8
Image
10
122.173190
20
20.827089
11
121.872513
21
20.605938
0
LINE
8
Image
10
121.872513
20
20.605938
11
122.031090
21
20.527093
0
LINE
8
Image
10
122.031090
20
20.527093
11
122.708688
21
20.948877
0
LINE
8
Image
10
122.708688
20
20.948877
11
123.794261
21
21.974254
0
LINE
8
Image
10
123.794261
20
21.974254
11
124.908832
21
23.019731
0
LINE
8
Image
10
124.908832
20
23.019731
11
125.656150
21
23.489845
0
LINE
8
Image
10
125.656150
20
23.489845
11
125.200909
21
23.524185
0
LINE
8
Image
10
125.200909
20
23.524185
11
123.602284
21
23.573045
0
LINE
8
Image
10
123.602284
20
23.573045
11
117.982103
21
23.688283
0
LINE
8
Image
10
117.982103
20
23.688283
11
109.822270
21
23.826335
0
LINE
8
Image
10
109.822270
20
23.826335
11
110.639924
21
24.854902
0
LINE
8
Image
10
110.639924
20
24.854902
11
111.457578
21
26.224562
0
LINE
8
Image
10
111.457578
20
26.224562
11
111.593591
21
26.501003
0
LINE
8
Image
10
111.593591
20
26.501003
11
111.920599
21
26.686655
0
LINE
8
Image
10
111.920599
20
26.686655
11
111.975582
21
26.774991
0
LINE
8
Image
10
111.975582
20
26.774991
11
111.457578
21
26.817459
0
LINE
8
Image
10
111.457578
20
26.817459
11
110.896348
21
26.786637
0
LINE
8
Image
10
110.896348
20
26.786637
11
110.847402
21
26.698765
0
LINE
8
Image
10
110.847402
20
26.698765
11
111.012309
21
26.536864
0
LINE
8
Image
10
111.012309
20
26.536864
11
111.025967
21
26.270908
0
LINE
8
Image
10
111.025967
20
26.270908
11
110.677508
21
25.539386
0
LINE
8
Image
10
110.677508
20
25.539386
11
109.957977
21
24.729306
0
LINE
8
Image
10
109.957977
20
24.729306
11
109.023325
21
24.065779
0
LINE
8
Image
10
109.023325
20
24.065779
11
106.723660
21
23.776377
0
LINE
8
Image
10
106.723660
20
23.776377
11
102.603302
21
23.665474
0
LINE
8
Image
10
102.603302
20
23.665474
11
98.663503
21
23.741682
0
LINE
8
Image
10
98.663503
20
23.741682
11
97.386703
21
23.852645
0
LINE
8
Image
10
97.386703
20
23.852645
11
96.905513
21
24.013616
0
LINE
8
Image
10
96.905513
20
24.013616
11
97.196968
21
24.548907
0
LINE
8
Image
10
97.196968
20
24.548907
11
97.897700
21
25.387121
0
LINE
8
Image
10
97.897700
20
25.387121
11
98.597678
21
26.162113
0
LINE
8
Image
10
98.597678
20
26.162113
11
97.547048
21
25.265985
0
LINE
8
Image
10
97.547048
20
25.265985
11
94.706511
21
22.435344
0
LINE
8
Image
10
94.706511
20
22.435344
11
90.938209
21
18.009965
0
LINE
8
Image
10
90.938209
20
18.009965
11
88.380432
21
15.033003
0
LINE
8
Image
10
88.380432
20
15.033003
11
85.884480
21
12.427368
0
LINE
8
Image
10
85.884480
20
12.427368
11
83.638416
21
10.377684
0
LINE
8
Image
10
83.638416
20
10.377684
11
81.830302
21
9.068577
0
LINE
8
Image
10
81.830302
20
9.068577
11
80.364766
21
8.118166
0
LINE
8
Image
10
80.364766
20
8.118166
11
80.538470
21
8.123808
0
LINE
8
Image
10
80.538470
20
8.123808
11
81.374401
21
8.519734
0
LINE
8
Image
10
81.374401
20
8.519734
11
81.374401
21
8.519734
0
LINE
8
Image
10
84.999278
20
10.804739
11
85.435181
21
11.411252
0
LINE
8
Image
10
85.435181
20
11.411252
11
86.483200
21
12.392237
0
LINE
8
Image
10
86.483200
20
12.392237
11
87.967124
21
13.639889
0
LINE
8
Image
10
87.967124
20
13.639889
11
91.121708
21
13.639889
0
LINE
8
Image
10
91.121708
20
13.639889
11
93.709100
21
13.561770
0
LINE
8
Image
10
93.709100
20
13.561770
11
94.229196
21
13.435941
0
LINE
8
Image
10
94.229196
20
13.435941
11
94.434647
21
13.227218
0
LINE
8
Image
10
94.434647
20
13.227218
11
94.340090
21
12.733908
0
LINE
8
Image
10
94.340090
20
12.733908
11
93.872538
21
12.068658
0
LINE
8
Image
10
93.872538
20
12.068658
11
93.166027
21
11.385420
0
LINE
8
Image
10
93.166027
20
11.385420
11
92.354596
21
10.838145
0
LINE
8
Image
10
92.354596
20
10.838145
11
90.793925
21
10.546979
0
LINE
8
Image
10
90.793925
20
10.546979
11
88.311246
21
10.441011
0
LINE
8
Image
10
88.311246
20
10.441011
11
86.011413
21
10.525258
0
LINE
8
Image
10
86.011413
20
10.525258
11
85.275330
21
10.640280
0
LINE
8
Image
10
85.275330
20
10.640280
11
84.999278
21
10.804739
0
LINE
8
Image
10
84.999278
20
10.804739
11
84.999278
21
10.804739
0
LINE
8
Image
10
92.324571
20
11.510056
11
93.005362
21
12.032683
0
LINE
8
Image
10
93.005362
20
12.032683
11
93.458357
21
12.567399
0
LINE
8
Image
10
93.458357
20
12.567399
11
93.572453
21
12.876718
0
LINE
8
Image
10
93.572453
20
12.876718
11
93.342373
21
13.038549
0
LINE
8
Image
10
93.342373
20
13.038549
11
90.977796
21
13.110722
0
LINE
8
Image
10
90.977796
20
13.110722
11
88.206458
21
13.110722
0
LINE
8
Image
10
88.206458
20
13.110722
11
86.983651
21
12.052390
0
LINE
8
Image
10
86.983651
20
12.052390
11
85.760844
21
10.994058
0
LINE
8
Image
10
85.760844
20
10.994058
11
88.621203
21
10.995117
0
LINE
8
Image
10
88.621203
20
10.995117
11
91.098495
21
11.093514
0
LINE
8
Image
10
91.098495
20
11.093514
11
91.784452
21
11.250436
0
LINE
8
Image
10
91.784452
20
11.250436
11
92.324571
21
11.510125
0
LINE
8
Image
10
92.324571
20
11.510125
11
92.324571
21
11.510056
0
LINE
8
Image
10
88.706293
20
14.235201
11
89.024205
21
14.799093
0
LINE
8
Image
10
89.024205
20
14.799093
11
89.784519
21
15.690407
0
LINE
8
Image
10
89.784519
20
15.690407
11
90.859892
21
16.814885
0
LINE
8
Image
10
90.859892
20
16.814885
11
94.544160
21
16.814885
0
LINE
8
Image
10
94.544160
20
16.814885
11
97.298032
21
16.743677
0
LINE
8
Image
10
97.298032
20
16.743677
11
98.228428
21
16.532908
0
LINE
8
Image
10
98.228428
20
16.532908
11
98.117984
21
16.051711
0
LINE
8
Image
10
98.117984
20
16.051711
11
97.793764
21
15.556582
0
LINE
8
Image
10
97.793764
20
15.556582
11
96.546673
21
14.574231
0
LINE
8
Image
10
96.546673
20
14.574231
11
95.834411
21
14.207517
0
LINE
8
Image
10
95.834411
20
14.207517
11
95.067871
21
14.006406
0
LINE
8
Image
10
95.067871
20
14.006406
11
92.053627
21
13.904472
0
LINE
8
Image
10
92.053627
20
13.904472
11
89.439680
21
13.977091
0
LINE
8
Image
10
89.439680
20
13.977091
11
88.876109
21
14.079186
0
LINE
8
Image
10
88.876109
20
14.079186
11
88.706293
21
14.235201
0
LINE
8
Image
10
88.706293
20
14.235201
11
88.706293
21
14.235201
0
LINE
8
Image
10
95.794799
20
14.803425
11
97.013291
21
15.729465
0
LINE
8
Image
10
97.013291
20
15.729465
11
97.516695
21
16.285719
0
LINE
8
Image
10
97.516695
20
16.285719
11
94.346811
21
16.285719
0
LINE
8
Image
10
94.346811
20
16.285719
11
91.574033
21
16.195968
0
LINE
8
Image
10
91.574033
20
16.195968
11
91.015456
21
16.017318
0
LINE
8
Image
10
91.015456
20
16.017318
11
90.641003
21
15.690407
0
LINE
8
Image
10
90.641003
20
15.690407
11
90.045913
21
14.972084
0
LINE
8
Image
10
90.045913
20
14.972084
11
89.958126
21
14.749057
0
LINE
8
Image
10
89.958126
20
14.749057
11
90.036457
21
14.598065
0
LINE
8
Image
10
90.036457
20
14.598065
11
90.770305
21
14.456024
0
LINE
8
Image
10
90.770305
20
14.456024
11
92.405126
21
14.433638
0
LINE
8
Image
10
92.405126
20
14.433638
11
94.587032
21
14.526614
0
LINE
8
Image
10
94.587032
20
14.526614
11
95.794799
21
14.803425
0
LINE
8
Image
10
95.794799
20
14.803425
11
95.794799
21
14.803425
0
LINE
8
Image
10
59.312680
20
8.720108
11
57.614938
21
9.997962
0
LINE
8
Image
10
57.614938
20
9.997962
11
55.690815
21
11.570401
0
LINE
8
Image
10
55.690815
20
11.570401
11
53.655928
21
13.580515
0
LINE
8
Image
10
53.655928
20
13.580515
11
51.288393
21
16.264910
0
LINE
8
Image
10
51.288393
20
16.264910
11
48.366325
21
19.860191
0
LINE
8
Image
10
48.366325
20
19.860191
11
45.077688
21
23.658329
0
LINE
8
Image
10
45.077688
20
23.658329
11
42.554143
21
26.117406
0
LINE
8
Image
10
42.554143
20
26.117406
11
42.132354
21
26.328149
0
LINE
8
Image
10
42.132354
20
26.328149
11
42.864436
21
25.564153
0
LINE
8
Image
10
42.864436
20
25.564153
11
43.864427
21
24.487803
0
LINE
8
Image
10
43.864427
20
24.487803
11
43.964548
21
24.155620
0
LINE
8
Image
10
43.964548
20
24.155620
11
43.729943
21
23.932080
0
LINE
8
Image
10
43.729943
20
23.932080
11
42.052129
21
23.724866
0
LINE
8
Image
10
42.052129
20
23.724866
11
38.422129
21
23.694043
0
LINE
8
Image
10
38.422129
20
23.694043
11
33.602545
21
23.778265
0
LINE
8
Image
10
33.602545
20
23.778265
11
32.554443
21
23.933334
0
LINE
8
Image
10
32.554443
20
23.933334
11
31.847972
21
24.207968
0
LINE
8
Image
10
31.847972
20
24.207968
11
31.065463
21
24.719267
0
LINE
8
Image
10
31.065463
20
24.719267
11
30.473213
21
25.322181
0
LINE
8
Image
10
30.473213
20
25.322181
11
30.138241
21
25.929249
0
LINE
8
Image
10
30.138241
20
25.929249
11
30.127569
21
26.453013
0
LINE
8
Image
10
30.127569
20
26.453013
11
30.411926
21
26.663760
0
LINE
8
Image
10
30.411926
20
26.663760
11
31.255556
21
26.798314
0
LINE
8
Image
10
31.255556
20
26.798314
11
35.746973
21
26.935566
0
LINE
8
Image
10
35.746973
20
26.935566
11
41.210792
21
27.012669
0
LINE
8
Image
10
41.210792
20
27.012669
11
34.728508
21
27.074135
0
LINE
8
Image
10
34.728508
20
27.074135
11
30.428759
21
27.160866
0
LINE
8
Image
10
30.428759
20
27.160866
11
28.004072
21
27.423793
0
LINE
8
Image
10
28.004072
20
27.423793
11
27.283725
21
27.671169
0
LINE
8
Image
10
27.283725
20
27.671169
11
26.778761
21
28.022403
0
LINE
8
Image
10
26.778761
20
28.022403
11
26.077140
21
29.116183
0
LINE
8
Image
10
26.077140
20
29.116183
11
25.419100
21
30.044035
0
LINE
8
Image
10
25.419100
20
30.044035
11
25.243045
21
29.986371
0
LINE
8
Image
10
25.243045
20
29.986371
11
25.266584
21
29.764963
0
LINE
8
Image
10
25.266584
20
29.764963
11
26.030582
21
28.540411
0
LINE
8
Image
10
26.030582
20
28.540411
11
26.619938
21
27.532200
0
LINE
8
Image
10
26.619938
20
27.532200
11
26.637475
21
27.274092
0
LINE
8
Image
10
26.637475
20
27.274092
11
26.493603
21
27.107731
0
LINE
8
Image
10
26.493603
20
27.107731
11
26.394805
21
26.944964
0
LINE
8
Image
10
26.394805
20
26.944964
11
26.683724
21
26.844448
0
LINE
8
Image
10
26.683724
20
26.844448
11
28.293162
21
26.849077
0
LINE
8
Image
10
28.293162
20
26.849077
11
29.022505
21
26.763662
0
LINE
8
Image
10
29.022505
20
26.763662
11
29.449969
21
26.292227
0
LINE
8
Image
10
29.449969
20
26.292227
11
30.424121
21
24.972312
0
LINE
8
Image
10
30.424121
20
24.972312
11
30.835925
21
24.387985
0
LINE
8
Image
10
30.835925
20
24.387985
11
30.901966
21
23.974662
0
LINE
8
Image
10
30.901966
20
23.974662
11
28.921794
21
23.757656
0
LINE
8
Image
10
28.921794
20
23.757656
11
23.037521
21
23.702331
0
LINE
8
Image
10
23.037521
20
23.702331
11
15.207217
21
23.575505
0
LINE
8
Image
10
15.207217
20
23.575505
11
15.267882
21
23.472361
0
LINE
8
Image
10
15.267882
20
23.472361
11
15.618821
21
23.429460
0
LINE
8
Image
10
15.618821
20
23.429460
11
16.064880
21
23.344967
0
LINE
8
Image
10
16.064880
20
23.344967
11
16.354239
21
23.141824
0
LINE
8
Image
10
16.354239
20
23.141824
11
16.557273
21
22.986478
0
LINE
8
Image
10
16.557273
20
22.986478
11
16.819644
21
23.141824
0
LINE
8
Image
10
16.819644
20
23.141824
11
19.074767
21
23.358723
0
LINE
8
Image
10
19.074767
20
23.358723
11
25.395278
21
23.429460
0
LINE
8
Image
10
25.395278
20
23.429460
11
33.683273
21
23.429460
0
LINE
8
Image
10
33.683273
20
23.429460
11
33.947190
21
22.735309
0
LINE
8
Image
10
33.947190
20
22.735309
11
34.330880
21
22.089869
0
LINE
8
Image
10
34.330880
20
22.089869
11
34.882766
21
21.512831
0
LINE
8
Image
10
34.882766
20
21.512831
11
35.315979
21
21.032475
0
LINE
8
Image
10
35.315979
20
21.032475
11
35.414353
21
20.619484
0
LINE
8
Image
10
35.414353
20
20.619484
11
35.406677
21
20.445484
0
LINE
8
Image
10
35.406677
20
20.445484
11
35.567220
21
20.339073
0
LINE
8
Image
10
35.567220
20
20.339073
11
36.522746
21
20.290496
0
LINE
8
Image
10
36.522746
20
20.290496
11
37.226808
21
20.349991
0
LINE
8
Image
10
37.226808
20
20.349991
11
37.302718
21
20.394588
0
LINE
8
Image
10
37.302718
20
20.394588
11
37.166387
21
20.442436
0
LINE
8
Image
10
37.166387
20
20.442436
11
36.402578
21
20.834314
0
LINE
8
Image
10
36.402578
20
20.834314
11
35.496060
21
21.584091
0
LINE
8
Image
10
35.496060
20
21.584091
11
34.764309
21
22.390247
0
LINE
8
Image
10
34.764309
20
22.390247
11
34.524801
21
22.951261
0
LINE
8
Image
10
34.524801
20
22.951261
11
34.827399
21
23.120816
0
LINE
8
Image
10
34.827399
20
23.120816
11
35.701846
21
23.239075
0
LINE
8
Image
10
35.701846
20
23.239075
11
39.761409
21
23.369203
0
LINE
8
Image
10
39.761409
20
23.369203
11
44.882923
21
23.441237
0
LINE
8
Image
10
44.882923
20
23.441237
11
46.036188
21
22.310871
0
LINE
8
Image
10
46.036188
20
22.310871
11
46.859217
21
21.353549
0
LINE
8
Image
10
46.859217
20
21.353549
11
47.069160
21
20.717484
0
LINE
8
Image
10
47.069160
20
20.717484
11
47.057768
21
20.390476
0
LINE
8
Image
10
47.057768
20
20.390476
11
47.199295
21
20.254464
0
LINE
8
Image
10
47.199295
20
20.254464
11
47.768334
21
19.892955
0
LINE
8
Image
10
47.768334
20
19.892955
11
48.550216
21
19.053417
0
LINE
8
Image
10
48.550216
20
19.053417
11
49.242279
21
18.103336
0
LINE
8
Image
10
49.242279
20
18.103336
11
49.541857
21
17.410197
0
LINE
8
Image
10
49.541857
20
17.410197
11
49.654810
21
16.980799
0
LINE
8
Image
10
49.654810
20
16.980799
11
49.942031
21
16.814885
0
LINE
8
Image
10
49.942031
20
16.814885
11
50.222324
21
16.748079
0
LINE
8
Image
10
50.222324
20
16.748079
11
50.338905
21
16.587462
0
LINE
8
Image
10
50.338905
20
16.587462
11
51.262128
21
15.462984
0
LINE
8
Image
10
51.262128
20
15.462984
11
52.047920
21
14.602794
0
LINE
8
Image
10
52.047920
20
14.602794
11
52.148459
21
14.327494
0
LINE
8
Image
10
52.148459
20
14.327494
11
52.022550
21
14.135575
0
LINE
8
Image
10
52.022550
20
14.135575
11
50.996764
21
13.942432
0
LINE
8
Image
10
50.996764
20
13.942432
11
48.781308
21
13.904472
0
LINE
8
Image
10
48.781308
20
13.904472
11
45.637949
21
14.012207
0
LINE
8
Image
10
45.637949
20
14.012207
11
44.883127
21
14.267519
0
LINE
8
Image
10
44.883127
20
14.267519
11
44.087523
21
14.764367
0
LINE
8
Image
10
44.087523
20
14.764367
11
43.268316
21
15.405741
0
LINE
8
Image
10
43.268316
20
15.405741
11
42.798515
21
15.986089
0
LINE
8
Image
10
42.798515
20
15.986089
11
42.694011
21
16.475803
0
LINE
8
Image
10
42.694011
20
16.475803
11
42.970695
21
16.845275
0
LINE
8
Image
10
42.970695
20
16.845275
11
43.028935
21
17.016483
0
LINE
8
Image
10
43.028935
20
17.016483
11
42.476486
21
17.075417
0
LINE
8
Image
10
42.476486
20
17.075417
11
41.625513
21
17.079467
0
LINE
8
Image
10
41.625513
20
17.079467
11
42.175925
21
16.146591
0
LINE
8
Image
10
42.175925
20
16.146591
11
42.711232
21
15.409299
0
LINE
8
Image
10
42.711232
20
15.409299
11
43.225332
21
14.946658
0
LINE
8
Image
10
43.225332
20
14.946658
11
43.577750
21
14.644203
0
LINE
8
Image
10
43.577750
20
14.644203
11
43.724330
21
14.292037
0
LINE
8
Image
10
43.724330
20
14.292037
11
43.508001
21
14.091724
0
LINE
8
Image
10
43.508001
20
14.091724
11
42.667895
21
13.966865
0
LINE
8
Image
10
42.667895
20
13.966865
11
37.969650
21
13.856781
0
LINE
8
Image
10
37.969650
20
13.856781
11
34.294014
21
13.793316
0
LINE
8
Image
10
34.294014
20
13.793316
11
33.478302
21
13.750831
0
LINE
8
Image
10
33.478302
20
13.750831
11
33.389593
21
13.729041
0
LINE
8
Image
10
33.389593
20
13.729041
11
33.537885
21
13.707700
0
LINE
8
Image
10
33.537885
20
13.707700
11
34.677923
21
13.491420
0
LINE
8
Image
10
34.677923
20
13.491420
11
35.456112
21
13.047812
0
LINE
8
Image
10
35.456112
20
13.047812
11
36.051423
21
12.489315
0
LINE
8
Image
10
36.051423
20
12.489315
11
36.051423
21
13.064603
0
LINE
8
Image
10
36.051423
20
13.064603
11
36.134053
21
13.394890
0
LINE
8
Image
10
36.134053
20
13.394890
11
36.677830
21
13.565933
0
LINE
8
Image
10
36.677830
20
13.565933
11
40.924161
21
13.639888
0
LINE
8
Image
10
40.924161
20
13.639888
11
44.759277
21
13.567158
0
LINE
8
Image
10
44.759277
20
13.567158
11
45.628927
21
13.465049
0
LINE
8
Image
10
45.628927
20
13.465049
11
45.951238
21
13.309160
0
LINE
8
Image
10
45.951238
20
13.309160
11
46.105577
21
13.110722
0
LINE
8
Image
10
46.105577
20
13.110722
11
46.259917
21
13.309160
0
LINE
8
Image
10
46.259917
20
13.309160
11
46.513101
21
13.461482
0
LINE
8
Image
10
46.513101
20
13.461482
11
47.143265
21
13.562174
0
LINE
8
Image
10
47.143265
20
13.562174
11
49.765641
21
13.629802
0
LINE
8
Image
10
49.765641
20
13.629802
11
53.117027
21
13.619716
0
LINE
8
Image
10
53.117027
20
13.619716
11
54.506088
21
12.323858
0
LINE
8
Image
10
54.506088
20
12.323858
11
55.487112
21
11.325950
0
LINE
8
Image
10
55.487112
20
11.325950
11
55.895148
21
10.746446
0
LINE
8
Image
10
55.895148
20
10.746446
11
54.873082
21
10.529803
0
LINE
8
Image
10
54.873082
20
10.529803
11
52.567364
21
10.461480
0
LINE
8
Image
10
52.567364
20
10.461480
11
50.118718
21
10.539219
0
LINE
8
Image
10
50.118718
20
10.539219
11
48.667868
21
10.760760
0
LINE
8
Image
10
48.667868
20
10.760760
11
47.031967
21
12.017529
0
LINE
8
Image
10
47.031967
20
12.017529
11
45.973984
21
12.978431
0
LINE
8
Image
10
45.973984
20
12.978431
11
46.801047
21
12.052390
0
LINE
8
Image
10
46.801047
20
12.052390
11
47.349365
21
11.301223
0
LINE
8
Image
10
47.349365
20
11.301223
11
47.506253
21
10.795621
0
LINE
8
Image
10
47.506253
20
10.795621
11
47.234749
21
10.639325
0
LINE
8
Image
10
47.234749
20
10.639325
11
46.504424
21
10.528159
0
LINE
8
Image
10
46.504424
20
10.528159
11
43.371554
21
10.413913
0
LINE
8
Image
10
43.371554
20
10.413913
11
41.026608
21
10.350227
0
LINE
8
Image
10
41.026608
20
10.350227
11
40.693925
21
10.309311
0
LINE
8
Image
10
40.693925
20
10.309311
11
41.023816
21
10.268699
0
LINE
8
Image
10
41.023816
20
10.268699
11
42.453207
21
10.082357
0
LINE
8
Image
10
42.453207
20
10.082357
11
42.752642
21
9.873754
0
LINE
8
Image
10
42.752642
20
9.873754
11
42.935495
21
9.525930
0
LINE
8
Image
10
42.935495
20
9.525930
11
43.277723
21
8.901487
0
LINE
8
Image
10
43.277723
20
8.901487
11
43.259921
21
9.538841
0
LINE
8
Image
10
43.259921
20
9.538841
11
43.133477
21
10.200299
0
LINE
8
Image
10
43.133477
20
10.200299
11
50.045769
21
10.200299
0
LINE
8
Image
10
50.045769
20
10.200299
11
56.958063
21
10.200299
0
LINE
8
Image
10
56.958063
20
10.200299
11
58.053802
21
9.406550
0
LINE
8
Image
10
58.053802
20
9.406550
11
59.174776
21
8.671166
0
LINE
8
Image
10
59.174776
20
8.671166
11
59.409067
21
8.574442
0
LINE
8
Image
10
59.409067
20
8.574442
11
59.312680
21
8.720097
0
LINE
8
Image
10
59.312680
20
8.720097
11
59.312680
21
8.720108
0
LINE
8
Image
10
62.774306
20
9.245961
11
62.363689
21
9.507515
0
LINE
8
Image
10
62.363689
20
9.507515
11
62.116149
21
9.545648
0
LINE
8
Image
10
62.116149
20
9.545648
11
62.114722
21
9.403531
0
LINE
8
Image
10
62.114722
20
9.403531
11
62.502781
21
9.150109
0
LINE
8
Image
10
62.502781
20
9.150109
11
62.693097
21
9.144824
0
LINE
8
Image
10
62.693097
20
9.144824
11
62.774306
21
9.245961
0
LINE
8
Image
10
62.774306
20
9.245961
11
62.774306
21
9.245961
0
LINE
8
Image
10
74.713374
20
9.741700
11
74.487482
21
9.906309
0
LINE
8
Image
10
74.487482
20
9.906309
11
74.565260
21
9.593586
0
LINE
8
Image
10
74.565260
20
9.593586
11
74.736354
21
9.302027
0
LINE
8
Image
10
74.736354
20
9.302027
11
74.894025
21
9.267268
0
LINE
8
Image
10
74.894025
20
9.267268
11
74.902056
21
9.467728
0
LINE
8
Image
10
74.902056
20
9.467728
11
74.713374
21
9.741700
0
LINE
8
Image
10
74.713374
20
9.741700
11
74.713374
21
9.741700
0
LINE
8
Image
10
73.099621
20
11.589206
11
72.979300
21
12.610862
0
LINE
8
Image
10
72.979300
20
12.610862
11
72.883552
21
11.958421
0
LINE
8
Image
10
72.883552
20
11.958421
11
72.906211
21
10.742344
0
LINE
8
Image
10
72.906211
20
10.742344
11
73.150887
21
10.200145
0
LINE
8
Image
10
73.150887
20
10.200145
11
73.099621
21
11.589206
0
LINE
8
Image
10
73.099621
20
11.589206
11
73.099621
21
11.589206
0
LINE
8
Image
10
74.344301
20
10.624745
11
73.837183
21
10.645621
0
LINE
8
Image
10
73.837183
20
10.645621
11
73.722375
21
10.538784
0
LINE
8
Image
10
73.722375
20
10.538784
11
73.997036
21
10.485771
0
LINE
8
Image
10
73.997036
20
10.485771
11
74.308230
21
10.517976
0
LINE
8
Image
10
74.308230
20
10.517976
11
74.344301
21
10.624735
0
LINE
8
Image
10
74.344301
20
10.624735
11
74.344301
21
10.624745
0
LINE
8
Image
10
104.540186
20
12.169751
11
105.416982
21
12.974107
0
LINE
8
Image
10
105.416982
20
12.974107
11
106.060124
21
13.416853
0
LINE
8
Image
10
106.060124
20
13.416853
11
106.715598
21
13.620416
0
LINE
8
Image
10
106.715598
20
13.620416
11
107.629393
21
13.707222
0
LINE
8
Image
10
107.629393
20
13.707222
11
107.830523
21
13.726599
0
LINE
8
Image
10
107.830523
20
13.726599
11
107.793717
21
13.744393
0
LINE
8
Image
10
107.793717
20
13.744393
11
107.073717
21
13.773755
0
LINE
8
Image
10
107.073717
20
13.773755
11
103.520088
21
13.797235
0
LINE
8
Image
10
103.520088
20
13.797235
11
100.472728
21
13.767571
0
LINE
8
Image
10
100.472728
20
13.767571
11
100.265937
21
13.754290
0
LINE
8
Image
10
100.265937
20
13.754290
11
100.300736
21
13.739408
0
LINE
8
Image
10
100.300736
20
13.739408
11
101.134251
21
13.706334
0
LINE
8
Image
10
101.134251
20
13.706334
11
103.964650
21
13.557438
0
LINE
8
Image
10
103.964650
20
13.557438
11
104.585867
21
13.459720
0
LINE
8
Image
10
104.585867
20
13.459720
11
104.695483
21
13.358900
0
LINE
8
Image
10
104.695483
20
13.358900
11
103.433071
21
13.185176
0
LINE
8
Image
10
103.433071
20
13.185176
11
100.283733
21
13.110722
0
LINE
8
Image
10
100.283733
20
13.110722
11
95.618632
21
13.110722
0
LINE
8
Image
10
95.618632
20
13.110722
11
95.018050
21
12.250828
0
LINE
8
Image
10
95.018050
20
12.250828
11
94.140140
21
11.196546
0
LINE
8
Image
10
94.140140
20
11.196546
11
95.093760
21
11.058071
0
LINE
8
Image
10
95.093760
20
11.058071
11
97.775949
21
10.998109
0
LINE
8
Image
10
97.775949
20
10.998109
11
101.166703
21
11.086187
0
LINE
8
Image
10
101.166703
20
11.086187
11
102.030918
21
11.240421
0
LINE
8
Image
10
102.030918
20
11.240421
11
102.688435
21
11.503886
0
LINE
8
Image
10
102.688435
20
11.503886
11
104.033205
21
12.429927
0
LINE
8
Image
10
104.033205
20
12.429927
11
104.676962
21
12.835289
0
LINE
8
Image
10
104.676962
20
12.835289
11
104.547349
21
12.519923
0
LINE
8
Image
10
104.547349
20
12.519923
11
103.816789
21
11.776957
0
LINE
8
Image
10
103.816789
20
11.776957
11
103.053221
21
11.037173
0
LINE
8
Image
10
103.053221
20
11.037173
11
102.844246
21
10.729475
0
LINE
8
Image
10
102.844246
20
10.729475
11
104.540186
21
12.169751
0
LINE
8
Image
10
104.540186
20
12.169751
11
104.540186
21
12.169751
0
LINE
8
Image
10
46.568592
20
11.279837
11
46.123004
21
11.699605
0
LINE
8
Image
10
46.123004
20
11.699605
11
45.701903
21
12.330123
0
LINE
8
Image
10
45.701903
20
12.330123
11
45.298239
21
13.110722
0
LINE
8
Image
10
45.298239
20
13.110722
11
40.930106
21
13.110722
0
LINE
8
Image
10
40.930106
20
13.110722
11
37.210387
21
13.041073
0
LINE
8
Image
10
37.210387
20
13.041073
11
36.771512
21
12.892355
0
LINE
8
Image
10
36.771512
20
12.892355
11
36.828398
21
12.612902
0
LINE
8
Image
10
36.828398
20
12.612902
11
37.349070
21
12.096724
0
LINE
8
Image
10
37.349070
20
12.096724
11
38.226767
21
11.554776
0
LINE
8
Image
10
38.226767
20
11.554776
11
38.948418
21
11.258958
0
LINE
8
Image
10
38.948418
20
11.258958
11
39.816281
21
11.090598
0
LINE
8
Image
10
39.816281
20
11.090598
11
43.195164
21
11.002313
0
LINE
8
Image
10
43.195164
20
11.002313
11
46.031589
21
11.071053
0
LINE
8
Image
10
46.031589
20
11.071053
11
46.565498
21
11.156129
0
LINE
8
Image
10
46.565498
20
11.156129
11
46.568592
21
11.279837
0
LINE
8
Image
10
46.568592
20
11.279837
11
46.568592
21
11.279837
0
LINE
8
Image
10
53.778484
20
12.052390
11
52.587861
21
13.094932
0
LINE
8
Image
10
52.587861
20
13.094932
11
49.702586
21
13.102817
0
LINE
8
Image
10
49.702586
20
13.102817
11
46.817311
21
13.110701
0
LINE
8
Image
10
46.817311
20
13.110701
11
47.321339
21
12.543652
0
LINE
8
Image
10
47.321339
20
12.543652
11
48.157888
21
11.751650
0
LINE
8
Image
10
48.157888
20
11.751650
11
49.088458
21
11.281448
0
LINE
8
Image
10
49.088458
20
11.281448
11
50.352880
21
11.057166
0
LINE
8
Image
10
50.352880
20
11.057166
11
52.190986
21
11.002922
0
LINE
8
Image
10
52.190986
20
11.002922
11
54.969108
21
11.009828
0
LINE
8
Image
10
54.969108
20
11.009828
11
53.778484
21
12.052390
0
LINE
8
Image
10
74.630369
20
11.984046
11
74.457624
21
12.759367
0
LINE
8
Image
10
74.457624
20
12.759367
11
74.085230
21
13.061777
0
LINE
8
Image
10
74.085230
20
13.061777
11
73.852759
21
13.061673
0
LINE
8
Image
10
73.852759
20
13.061673
11
73.711387
21
12.925052
0
LINE
8
Image
10
73.711387
20
12.925052
11
73.622209
21
12.071792
0
LINE
8
Image
10
73.622209
20
12.071792
11
73.721813
21
11.190974
0
LINE
8
Image
10
73.721813
20
11.190974
11
73.887584
21
11.034223
0
LINE
8
Image
10
73.887584
20
11.034223
11
74.167348
21
10.994058
0
LINE
8
Image
10
74.167348
20
10.994058
11
74.447030
21
11.029235
0
LINE
8
Image
10
74.447030
20
11.029235
11
74.600778
21
11.170363
0
LINE
8
Image
10
74.600778
20
11.170363
11
74.630369
21
11.984046
0
LINE
8
Image
10
74.630369
20
11.984046
11
74.630369
21
11.984046
0
LINE
8
Image
10
75.384935
20
12.118536
11
75.290685
21
12.157810
0
LINE
8
Image
10
75.290685
20
12.157810
11
75.251482
21
11.787807
0
LINE
8
Image
10
75.251482
20
11.787807
11
75.290685
21
11.417805
0
LINE
8
Image
10
75.290685
20
11.417805
11
75.384935
21
11.457079
0
LINE
8
Image
10
75.384935
20
11.457079
11
75.384935
21
12.118536
0
LINE
8
Image
10
75.384935
20
12.118536
11
75.384935
21
12.118536
0
LINE
8
Image
10
85.364964
20
14.599748
11
88.923849
21
18.661441
0
LINE
8
Image
10
88.923849
20
18.661441
11
92.077167
21
22.503420
0
LINE
8
Image
10
92.077167
20
22.503420
11
93.258025
21
23.958626
0
LINE
8
Image
10
93.258025
20
23.958626
11
94.235249
21
25.149250
0
LINE
8
Image
10
94.235249
20
25.149250
11
94.481680
21
25.498367
0
LINE
8
Image
10
94.481680
20
25.498367
11
93.818864
21
24.920437
0
LINE
8
Image
10
93.818864
20
24.920437
11
92.958020
21
24.250623
0
LINE
8
Image
10
92.958020
20
24.250623
11
92.431486
21
24.076157
0
LINE
8
Image
10
92.431486
20
24.076157
11
92.221986
21
24.050020
0
LINE
8
Image
10
92.221986
20
24.050020
11
92.143019
21
23.685976
0
LINE
8
Image
10
92.143019
20
23.685976
11
91.890716
21
23.060188
0
LINE
8
Image
10
91.890716
20
23.060188
11
91.201800
21
21.991591
0
LINE
8
Image
10
91.201800
20
21.991591
11
88.922093
21
19.024481
0
LINE
8
Image
10
88.922093
20
19.024481
11
86.119824
21
15.781667
0
LINE
8
Image
10
86.119824
20
15.781667
11
83.610919
21
13.260170
0
LINE
8
Image
10
83.610919
20
13.260170
11
82.235058
21
12.056603
0
LINE
8
Image
10
82.235058
20
12.056603
11
80.905357
21
13.311265
0
LINE
8
Image
10
80.905357
20
13.311265
11
79.575655
21
14.565930
0
LINE
8
Image
10
79.575655
20
14.565930
11
80.735804
21
13.328778
0
LINE
8
Image
10
80.735804
20
13.328778
11
81.571307
21
12.285588
0
LINE
8
Image
10
81.571307
20
12.285588
11
81.726130
21
11.649076
0
LINE
8
Image
10
81.726130
20
11.649076
11
81.747979
21
11.553535
0
LINE
8
Image
10
81.747979
20
11.553535
11
81.941690
21
11.629714
0
LINE
8
Image
10
81.941690
20
11.629714
11
82.748407
21
12.219149
0
LINE
8
Image
10
82.748407
20
12.219149
11
85.364964
21
14.599748
0
LINE
8
Image
10
85.364964
20
14.599748
11
85.364964
21
14.599748
0
LINE
8
Image
10
36.845172
20
11.623120
11
36.382152
21
12.086141
0
LINE
8
Image
10
36.382152
20
12.086141
11
36.051422
21
12.316974
0
LINE
8
Image
10
36.051422
20
12.316974
11
36.282256
21
11.986245
0
LINE
8
Image
10
36.282256
20
11.986245
11
36.693331
21
11.557748
0
LINE
8
Image
10
36.693331
20
11.557748
11
36.805823
21
11.526012
0
LINE
8
Image
10
36.805823
20
11.526012
11
36.845172
21
11.623120
0
LINE
8
Image
10
36.845172
20
11.623120
11
36.845172
21
11.623120
0
LINE
8
Image
10
58.673270
20
12.142616
11
58.575803
21
12.584453
0
LINE
8
Image
10
58.575803
20
12.584453
11
58.276395
21
12.658420
0
LINE
8
Image
10
58.276395
20
12.658420
11
57.383222
21
13.203615
0
LINE
8
Image
10
57.383222
20
13.203615
11
55.743378
21
14.731587
0
LINE
8
Image
10
55.743378
20
14.731587
11
53.806561
21
16.791258
0
LINE
8
Image
10
53.806561
20
16.791258
11
52.022471
21
18.931549
0
LINE
8
Image
10
52.022471
20
18.931549
11
49.361041
21
22.201307
0
LINE
8
Image
10
49.361041
20
22.201307
11
48.656532
21
23.074956
0
LINE
8
Image
10
48.656532
20
23.074956
11
48.302975
21
23.741881
0
LINE
8
Image
10
48.302975
20
23.741881
11
48.276434
21
24.277838
0
LINE
8
Image
10
48.276434
20
24.277838
11
48.552970
21
24.758584
0
LINE
8
Image
10
48.552970
20
24.758584
11
48.624151
21
24.889871
0
LINE
8
Image
10
48.624151
20
24.889871
11
48.330861
21
24.676641
0
LINE
8
Image
10
48.330861
20
24.676641
11
47.972180
21
24.459667
0
LINE
8
Image
10
47.972180
20
24.459667
11
47.537049
21
24.589600
0
LINE
8
Image
10
47.537049
20
24.589600
11
45.420448
21
26.542001
0
LINE
8
Image
10
45.420448
20
26.542001
11
43.724778
21
28.190448
0
LINE
8
Image
10
43.724778
20
28.190448
11
44.933136
21
26.875298
0
LINE
8
Image
10
44.933136
20
26.875298
11
48.046687
21
23.340035
0
LINE
8
Image
10
48.046687
20
23.340035
11
52.037317
21
18.402383
0
LINE
8
Image
10
52.037317
20
18.402383
11
55.673661
21
14.425257
0
LINE
8
Image
10
55.673661
20
14.425257
11
58.652519
21
11.523224
0
LINE
8
Image
10
58.652519
20
11.523224
11
58.673262
21
12.142616
0
LINE
8
Image
10
58.673262
20
12.142616
11
58.673270
21
12.142616
0
LINE
8
Image
10
87.328863
20
17.982738
11
90.342082
21
21.588931
0
LINE
8
Image
10
90.342082
20
21.588931
11
91.266900
21
22.820331
0
LINE
8
Image
10
91.266900
20
22.820331
11
91.836975
21
23.868292
0
LINE
8
Image
10
91.836975
20
23.868292
11
91.997390
21
24.599091
0
LINE
8
Image
10
91.997390
20
24.599091
11
91.906813
21
24.803765
0
LINE
8
Image
10
91.906813
20
24.803765
11
91.693228
21
24.879003
0
LINE
8
Image
10
91.693228
20
24.879003
11
91.031771
21
25.268781
0
LINE
8
Image
10
91.031771
20
25.268781
11
90.830062
21
25.523426
0
LINE
8
Image
10
90.830062
20
25.523426
11
91.150833
21
25.302530
0
LINE
8
Image
10
91.150833
20
25.302530
11
91.477841
21
25.132806
0
LINE
8
Image
10
91.477841
20
25.132806
11
91.613853
21
25.216748
0
LINE
8
Image
10
91.613853
20
25.216748
11
91.256255
21
25.771167
0
LINE
8
Image
10
91.256255
20
25.771167
11
90.970315
21
25.941654
0
LINE
8
Image
10
90.970315
20
25.941654
11
90.756110
21
25.923100
0
LINE
8
Image
10
90.756110
20
25.923100
11
90.593216
21
25.913758
0
LINE
8
Image
10
90.593216
20
25.913758
11
90.408845
21
26.098567
0
LINE
8
Image
10
90.408845
20
26.098567
11
90.342341
21
26.290046
0
LINE
8
Image
10
90.342341
20
26.290046
11
90.548965
21
26.211633
0
LINE
8
Image
10
90.548965
20
26.211633
11
90.773633
21
26.146234
0
LINE
8
Image
10
90.773633
20
26.146234
11
90.768733
21
26.369190
0
LINE
8
Image
10
90.768733
20
26.369190
11
90.089045
21
27.151037
0
LINE
8
Image
10
90.089045
20
27.151037
11
88.651406
21
28.400903
0
LINE
8
Image
10
88.651406
20
28.400903
11
86.954235
21
29.711660
0
LINE
8
Image
10
86.954235
20
29.711660
11
85.495951
21
30.676185
0
LINE
8
Image
10
85.495951
20
30.676185
11
84.585098
21
31.127529
0
LINE
8
Image
10
84.585098
20
31.127529
11
84.315054
21
31.139205
0
LINE
8
Image
10
84.315054
20
31.139205
11
84.399297
21
30.900713
0
LINE
8
Image
10
84.399297
20
30.900713
11
84.164950
21
30.892170
0
LINE
8
Image
10
84.164950
20
30.892170
11
82.379071
21
31.662643
0
LINE
8
Image
10
82.379071
20
31.662643
11
80.531711
21
32.406426
0
LINE
8
Image
10
80.531711
20
32.406426
11
78.425622
21
33.033851
0
LINE
8
Image
10
78.425622
20
33.033851
11
76.145923
21
33.534513
0
LINE
8
Image
10
76.145923
20
33.534513
11
73.777735
21
33.898007
0
LINE
8
Image
10
73.777735
20
33.898007
11
71.406178
21
34.113926
0
LINE
8
Image
10
71.406178
20
34.113926
11
69.116372
21
34.171866
0
LINE
8
Image
10
69.116372
20
34.171866
11
66.993438
21
34.061420
0
LINE
8
Image
10
66.993438
20
34.061420
11
65.122496
21
33.772184
0
LINE
8
Image
10
65.122496
20
33.772184
11
63.303472
21
33.377923
0
LINE
8
Image
10
63.303472
20
33.377923
11
60.776430
21
32.709008
0
LINE
8
Image
10
60.776430
20
32.709008
11
58.291511
21
31.761077
0
LINE
8
Image
10
58.291511
20
31.761077
11
55.889799
21
30.552260
0
LINE
8
Image
10
55.889799
20
30.552260
11
53.612377
21
29.100690
0
LINE
8
Image
10
53.612377
20
29.100690
11
52.200358
21
27.934235
0
LINE
8
Image
10
52.200358
20
27.934235
11
50.601899
21
26.406729
0
LINE
8
Image
10
50.601899
20
26.406729
11
49.293436
21
24.999214
0
LINE
8
Image
10
49.293436
20
24.999214
11
48.751407
21
24.192732
0
LINE
8
Image
10
48.751407
20
24.192732
11
50.405051
21
21.826556
0
LINE
8
Image
10
50.405051
20
21.826556
11
53.089500
21
18.339539
0
LINE
8
Image
10
53.089500
20
18.339539
11
55.952916
21
15.236776
0
LINE
8
Image
10
55.952916
20
15.236776
11
58.283068
21
13.110722
0
LINE
8
Image
10
58.283068
20
13.110722
11
59.619117
21
14.235201
0
LINE
8
Image
10
59.619117
20
14.235201
11
61.730479
21
15.829397
0
LINE
8
Image
10
61.730479
20
15.829397
11
64.209643
21
17.006350
0
LINE
8
Image
10
64.209643
20
17.006350
11
66.968277
21
17.733941
0
LINE
8
Image
10
66.968277
20
17.733941
11
69.918047
21
17.980049
0
LINE
8
Image
10
69.918047
20
17.980049
11
73.261650
21
17.727472
0
LINE
8
Image
10
73.261650
20
17.727472
11
76.179339
21
16.969988
0
LINE
8
Image
10
76.179339
20
16.969988
11
77.494033
21
16.396093
0
LINE
8
Image
10
77.494033
20
16.396093
11
78.720929
21
15.688997
0
LINE
8
Image
10
78.720929
20
15.688997
11
79.866255
21
14.846373
0
LINE
8
Image
10
79.866255
20
14.846373
11
80.936236
21
13.865898
0
LINE
8
Image
10
80.936236
20
13.865898
11
82.204533
21
12.578239
0
LINE
8
Image
10
82.204533
20
12.578239
11
84.013265
21
14.365833
0
LINE
8
Image
10
84.013265
20
14.365833
11
87.328863
21
17.982738
0
LINE
8
Image
10
87.328863
20
17.982738
11
87.328863
21
17.982738
0
LINE
8
Image
10
80.882176
20
20.007634
11
80.654180
21
20.344210
0
LINE
8
Image
10
80.654180
20
20.344210
11
80.677343
21
20.509016
0
LINE
8
Image
10
80.677343
20
20.509016
11
80.893401
21
20.471136
0
LINE
8
Image
10
80.893401
20
20.471136
11
81.244089
21
20.199658
0
LINE
8
Image
10
81.244089
20
20.199658
11
81.592834
21
20.043306
0
LINE
8
Image
10
81.592834
20
20.043306
11
82.024609
21
20.348120
0
LINE
8
Image
10
82.024609
20
20.348120
11
82.347292
21
20.802552
0
LINE
8
Image
10
82.347292
20
20.802552
11
81.981006
21
21.190199
0
LINE
8
Image
10
81.981006
20
21.190199
11
81.505624
21
21.422078
0
LINE
8
Image
10
81.505624
20
21.422078
11
81.142746
21
21.108299
0
LINE
8
Image
10
81.142746
20
21.108299
11
80.850898
21
20.842449
0
LINE
8
Image
10
80.850898
20
20.842449
11
80.617588
21
20.843798
0
LINE
8
Image
10
80.617588
20
20.843798
11
80.571161
21
21.116647
0
LINE
8
Image
10
80.571161
20
21.116647
11
80.779373
21
21.446779
0
LINE
8
Image
10
80.779373
20
21.446779
11
81.140067
21
21.724961
0
LINE
8
Image
10
81.140067
20
21.724961
11
81.551090
21
21.841962
0
LINE
8
Image
10
81.551090
20
21.841962
11
82.081926
21
21.677320
0
LINE
8
Image
10
82.081926
20
21.677320
11
82.527570
21
21.276981
0
LINE
8
Image
10
82.527570
20
21.276981
11
82.778833
21
20.781328
0
LINE
8
Image
10
82.778833
20
20.781328
11
82.726524
21
20.330742
0
LINE
8
Image
10
82.726524
20
20.330742
11
82.313549
21
19.887615
0
LINE
8
Image
10
82.313549
20
19.887615
11
81.822146
21
19.677933
0
LINE
8
Image
10
81.822146
20
19.677933
11
81.321845
21
19.713879
0
LINE
8
Image
10
81.321845
20
19.713879
11
80.882176
21
20.007634
0
LINE
8
Image
10
80.882176
20
20.007634
11
80.882176
21
20.007634
0
LINE
8
Image
10
58.065734
20
21.833806
11
57.093343
21
23.435095
0
LINE
8
Image
10
57.093343
20
23.435095
11
56.688897
21
24.324120
0
LINE
8
Image
10
56.688897
20
24.324120
11
57.218900
21
24.987668
0
LINE
8
Image
10
57.218900
20
24.987668
11
58.428010
21
25.937564
0
LINE
8
Image
10
58.428010
20
25.937564
11
59.744877
21
26.770541
0
LINE
8
Image
10
59.744877
20
26.770541
11
60.598154
21
27.083332
0
LINE
8
Image
10
60.598154
20
27.083332
11
60.943319
21
26.834313
0
LINE
8
Image
10
60.943319
20
26.834313
11
61.118985
21
26.337610
0
LINE
8
Image
10
61.118985
20
26.337610
11
60.983620
21
25.707157
0
LINE
8
Image
10
60.983620
20
25.707157
11
60.343855
21
25.149250
0
LINE
8
Image
10
60.343855
20
25.149250
11
59.715536
21
24.666447
0
LINE
8
Image
10
59.715536
20
24.666447
11
59.383908
21
24.248749
0
LINE
8
Image
10
59.383908
20
24.248749
11
59.414948
21
24.163884
0
LINE
8
Image
10
59.414948
20
24.163884
11
59.588428
21
24.207318
0
LINE
8
Image
10
59.588428
20
24.207318
11
60.249145
21
24.629156
0
LINE
8
Image
10
60.249145
20
24.629156
11
61.120743
21
25.166447
0
LINE
8
Image
10
61.120743
20
25.166447
11
61.673789
21
25.104424
0
LINE
8
Image
10
61.673789
20
25.104424
11
62.072676
21
24.733857
0
LINE
8
Image
10
62.072676
20
24.733857
11
62.148774
21
24.327432
0
LINE
8
Image
10
62.148774
20
24.327432
11
61.901994
21
23.884693
0
LINE
8
Image
10
61.901994
20
23.884693
11
61.332244
21
23.405188
0
LINE
8
Image
10
61.332244
20
23.405188
11
60.670967
21
22.858024
0
LINE
8
Image
10
60.670967
20
22.858024
11
60.394867
21
22.437274
0
LINE
8
Image
10
60.394867
20
22.437274
11
60.446630
21
22.181602
0
LINE
8
Image
10
60.446630
20
22.181602
11
60.638835
21
22.146512
0
LINE
8
Image
10
60.638835
20
22.146512
11
61.642232
21
22.794722
0
LINE
8
Image
10
61.642232
20
22.794722
11
62.331469
21
23.228722
0
LINE
8
Image
10
62.331469
20
23.228722
11
62.721586
21
23.305792
0
LINE
8
Image
10
62.721586
20
23.305792
11
62.761081
21
23.107103
0
LINE
8
Image
10
62.761081
20
23.107103
11
62.586743
21
22.859839
0
LINE
8
Image
10
62.586743
20
22.859839
11
61.817517
21
22.334496
0
LINE
8
Image
10
61.817517
20
22.334496
11
60.855807
21
21.959594
0
LINE
8
Image
10
60.855807
20
21.959594
11
60.143515
21
21.964960
0
LINE
8
Image
10
60.143515
20
21.964960
11
59.890947
21
22.257421
0
LINE
8
Image
10
59.890947
20
22.257421
11
59.939646
21
22.635586
0
LINE
8
Image
10
59.939646
20
22.635586
11
60.289153
21
23.098490
0
LINE
8
Image
10
60.289153
20
23.098490
11
60.939011
21
23.645165
0
LINE
8
Image
10
60.939011
20
23.645165
11
61.604807
21
24.250525
0
LINE
8
Image
10
61.604807
20
24.250525
11
61.716967
21
24.602619
0
LINE
8
Image
10
61.716967
20
24.602619
11
61.330776
21
24.625746
0
LINE
8
Image
10
61.330776
20
24.625746
11
60.501520
21
24.244206
0
LINE
8
Image
10
60.501520
20
24.244206
11
59.187312
21
23.694043
0
LINE
8
Image
10
59.187312
20
23.694043
11
58.827418
21
23.861145
0
LINE
8
Image
10
58.827418
20
23.861145
11
58.850663
21
24.282695
0
LINE
8
Image
10
58.850663
20
24.282695
11
59.210218
21
24.839064
0
LINE
8
Image
10
59.210218
20
24.839064
11
59.859255
21
25.410619
0
LINE
8
Image
10
59.859255
20
25.410619
11
60.724795
21
26.257723
0
LINE
8
Image
10
60.724795
20
26.257723
11
60.701189
21
26.511738
0
LINE
8
Image
10
60.701189
20
26.511738
11
60.353353
21
26.604456
0
LINE
8
Image
10
60.353353
20
26.604456
11
58.559495
21
25.533963
0
LINE
8
Image
10
58.559495
20
25.533963
11
56.953480
21
24.338260
0
LINE
8
Image
10
56.953480
20
24.338260
11
58.421853
21
22.133765
0
LINE
8
Image
10
58.421853
20
22.133765
11
59.890227
21
20.002130
0
LINE
8
Image
10
59.890227
20
20.002130
11
61.718954
21
21.237941
0
LINE
8
Image
10
61.718954
20
21.237941
11
63.111390
21
22.291928
0
LINE
8
Image
10
63.111390
20
22.291928
11
63.313998
21
22.597477
0
LINE
8
Image
10
63.313998
20
22.597477
11
63.255580
21
22.825708
0
LINE
8
Image
10
63.255580
20
22.825708
11
63.103449
21
23.128439
0
LINE
8
Image
10
63.103449
20
23.128439
11
63.147863
21
23.362046
0
LINE
8
Image
10
63.147863
20
23.362046
11
63.339438
21
23.375185
0
LINE
8
Image
10
63.339438
20
23.375185
11
63.562378
21
23.168877
0
LINE
8
Image
10
63.562378
20
23.168877
11
63.828588
21
22.460498
0
LINE
8
Image
10
63.828588
20
22.460498
11
63.308452
21
21.854223
0
LINE
8
Image
10
63.308452
20
21.854223
11
62.113037
21
20.933876
0
LINE
8
Image
10
62.113037
20
20.933876
11
60.802387
21
20.093040
0
LINE
8
Image
10
60.802387
20
20.093040
11
59.936548
21
19.725298
0
LINE
8
Image
10
59.936548
20
19.725298
11
59.219460
21
20.258145
0
LINE
8
Image
10
59.219460
20
20.258145
11
58.065734
21
21.833806
0
LINE
8
Image
10
58.065734
20
21.833806
11
58.065734
21
21.833806
0
LINE
8
Image
10
77.069416
20
22.363501
11
76.781869
21
22.691038
0
LINE
8
Image
10
76.781869
20
22.691038
11
76.714284
21
23.029589
0
LINE
8
Image
10
76.714284
20
23.029589
11
77.338405
21
24.546310
0
LINE
8
Image
10
77.338405
20
24.546310
11
78.128931
21
26.207581
0
LINE
8
Image
10
78.128931
20
26.207581
11
77.396922
21
26.801579
0
LINE
8
Image
10
77.396922
20
26.801579
11
76.862587
21
27.362395
0
LINE
8
Image
10
76.862587
20
27.362395
11
77.706022
21
27.140171
0
LINE
8
Image
10
77.706022
20
27.140171
11
78.190124
21
26.832317
0
LINE
8
Image
10
78.190124
20
26.832317
11
78.354226
21
26.330405
0
LINE
8
Image
10
78.354226
20
26.330405
11
78.199027
21
25.531980
0
LINE
8
Image
10
78.199027
20
25.531980
11
77.725230
21
24.334586
0
LINE
8
Image
10
77.725230
20
24.334586
11
77.341973
21
23.371742
0
LINE
8
Image
10
77.341973
20
23.371742
11
77.225703
21
22.769699
0
LINE
8
Image
10
77.225703
20
22.769699
11
77.379246
21
22.459234
0
LINE
8
Image
10
77.379246
20
22.459234
11
77.805428
21
22.371128
0
LINE
8
Image
10
77.805428
20
22.371128
11
78.333818
21
22.786967
0
LINE
8
Image
10
78.333818
20
22.786967
11
79.012636
21
23.979286
0
LINE
8
Image
10
79.012636
20
23.979286
11
79.554926
21
25.024065
0
LINE
8
Image
10
79.554926
20
25.024065
11
80.005383
21
25.590437
0
LINE
8
Image
10
80.005383
20
25.590437
11
80.451826
21
25.749427
0
LINE
8
Image
10
80.451826
20
25.749427
11
80.982075
21
25.572058
0
LINE
8
Image
10
80.982075
20
25.572058
11
81.455844
21
25.433528
0
LINE
8
Image
10
81.455844
20
25.433528
11
81.805807
21
25.656153
0
LINE
8
Image
10
81.805807
20
25.656153
11
81.899460
21
25.866735
0
LINE
8
Image
10
81.899460
20
25.866735
11
81.794109
21
26.089039
0
LINE
8
Image
10
81.794109
20
26.089039
11
80.841402
21
26.730300
0
LINE
8
Image
10
80.841402
20
26.730300
11
78.469153
21
27.896444
0
LINE
8
Image
10
78.469153
20
27.896444
11
77.819705
21
28.026065
0
LINE
8
Image
10
77.819705
20
28.026065
11
77.415486
21
27.891536
0
LINE
8
Image
10
77.415486
20
27.891536
11
77.072579
21
27.707127
0
LINE
8
Image
10
77.072579
20
27.707127
11
76.880093
21
27.774186
0
LINE
8
Image
10
76.880093
20
27.774186
11
76.882730
21
28.019223
0
LINE
8
Image
10
76.882730
20
28.019223
11
77.125193
21
28.368751
0
LINE
8
Image
10
77.125193
20
28.368751
11
77.423136
21
28.572028
0
LINE
8
Image
10
77.423136
20
28.572028
11
77.859991
21
28.554526
0
LINE
8
Image
10
77.859991
20
28.554526
11
79.966468
21
27.651057
0
LINE
8
Image
10
79.966468
20
27.651057
11
81.981831
21
26.579310
0
LINE
8
Image
10
81.981831
20
26.579310
11
82.273803
21
26.225169
0
LINE
8
Image
10
82.273803
20
26.225169
11
82.300058
21
25.826916
0
LINE
8
Image
10
82.300058
20
25.826916
11
82.226942
21
25.463549
0
LINE
8
Image
10
82.226942
20
25.463549
11
82.063322
21
25.267863
0
LINE
8
Image
10
82.063322
20
25.267863
11
81.154797
21
25.213659
0
LINE
8
Image
10
81.154797
20
25.213659
11
80.088441
21
25.278067
0
LINE
8
Image
10
80.088441
20
25.278067
11
79.339975
21
23.560015
0
LINE
8
Image
10
79.339975
20
23.560015
11
78.774048
21
22.450827
0
LINE
8
Image
10
78.774048
20
22.450827
11
78.253046
21
21.905954
0
LINE
8
Image
10
78.253046
20
21.905954
11
77.707869
21
21.888983
0
LINE
8
Image
10
77.707869
20
21.888983
11
77.069416
21
22.363501
0
LINE
8
Image
10
77.069416
20
22.363501
11
77.069416
21
22.363501
0
LINE
8
Image
10
64.258935
20
22.852689
11
64.000448
21
23.755622
0
LINE
8
Image
10
64.000448
20
23.755622
11
64.049960
21
24.372855
0
LINE
8
Image
10
64.049960
20
24.372855
11
64.662818
21
24.767465
0
LINE
8
Image
10
64.662818
20
24.767465
11
65.222746
21
24.936603
0
LINE
8
Image
10
65.222746
20
24.936603
11
65.610106
21
24.870532
0
LINE
8
Image
10
65.610106
20
24.870532
11
65.880756
21
24.535176
0
LINE
8
Image
10
65.880756
20
24.535176
11
66.090555
21
23.896457
0
LINE
8
Image
10
66.090555
20
23.896457
11
66.110122
21
23.254651
0
LINE
8
Image
10
66.110122
20
23.254651
11
65.562890
21
22.904271
0
LINE
8
Image
10
65.562890
20
22.904271
11
64.656009
21
22.649817
0
LINE
8
Image
10
64.656009
20
22.649817
11
64.258935
21
22.852689
0
LINE
8
Image
10
64.258935
20
22.852689
11
64.258935
21
22.852689
0
LINE
8
Image
10
65.651879
20
24.019989
11
65.221961
21
24.451054
0
LINE
8
Image
10
65.221961
20
24.451054
11
64.770454
21
24.445711
0
LINE
8
Image
10
64.770454
20
24.445711
11
64.468102
21
24.086526
0
LINE
8
Image
10
64.468102
20
24.086526
11
64.485653
21
23.456061
0
LINE
8
Image
10
64.485653
20
23.456061
11
64.729177
21
23.102455
0
LINE
8
Image
10
64.729177
20
23.102455
11
65.272949
21
23.255209
0
LINE
8
Image
10
65.272949
20
23.255209
11
65.721766
21
23.587234
0
LINE
8
Image
10
65.721766
20
23.587234
11
65.651879
21
24.019989
0
LINE
8
Image
10
65.651879
20
24.019989
11
65.651879
21
24.019989
0
LINE
8
Image
10
66.903492
20
24.538576
11
66.714945
21
27.404776
0
LINE
8
Image
10
66.714945
20
27.404776
11
66.798609
21
29.394037
0
LINE
8
Image
10
66.798609
20
29.394037
11
69.275166
21
29.577541
0
LINE
8
Image
10
69.275166
20
29.577541
11
71.637837
21
29.647160
0
LINE
8
Image
10
71.637837
20
29.647160
11
71.565987
21
29.002047
0
LINE
8
Image
10
71.565987
20
29.002047
11
71.433695
21
28.307267
0
LINE
8
Image
10
71.433695
20
28.307267
11
69.837155
21
28.138180
0
LINE
8
Image
10
69.837155
20
28.138180
11
68.875190
21
28.139156
0
LINE
8
Image
10
68.875190
20
28.139156
11
68.519676
21
28.218856
0
LINE
8
Image
10
68.519676
20
28.218856
11
69.915764
21
28.505979
0
LINE
8
Image
10
69.915764
20
28.505979
11
70.856359
21
28.672424
0
LINE
8
Image
10
70.856359
20
28.672424
11
71.190337
21
29.043556
0
LINE
8
Image
10
71.190337
20
29.043556
11
71.180347
21
29.280973
0
LINE
8
Image
10
71.180347
20
29.280973
11
70.962957
21
29.398556
0
LINE
8
Image
10
70.962957
20
29.398556
11
69.472831
21
29.352007
0
LINE
8
Image
10
69.472831
20
29.352007
11
67.930303
21
29.210429
0
LINE
8
Image
10
67.930303
20
29.210429
11
67.195555
21
28.908421
0
LINE
8
Image
10
67.195555
20
28.908421
11
66.999118
21
28.134682
0
LINE
8
Image
10
66.999118
20
28.134682
11
67.071523
21
26.577911
0
LINE
8
Image
10
67.071523
20
26.577911
11
67.235724
21
24.828661
0
LINE
8
Image
10
67.235724
20
24.828661
11
67.438627
21
23.988288
0
LINE
8
Image
10
67.438627
20
23.988288
11
68.183568
21
23.895323
0
LINE
8
Image
10
68.183568
20
23.895323
11
69.650964
21
23.943032
0
LINE
8
Image
10
69.650964
20
23.943032
11
71.261609
21
24.152690
0
LINE
8
Image
10
71.261609
20
24.152690
11
71.593268
21
24.316999
0
LINE
8
Image
10
71.593268
20
24.316999
11
71.720884
21
24.553938
0
LINE
8
Image
10
71.720884
20
24.553938
11
71.710385
21
24.795152
0
LINE
8
Image
10
71.710385
20
24.795152
11
71.507696
21
24.935552
0
LINE
8
Image
10
71.507696
20
24.935552
11
70.183628
21
25.016958
0
LINE
8
Image
10
70.183628
20
25.016958
11
68.808016
21
25.103891
0
LINE
8
Image
10
68.808016
20
25.103891
11
68.634210
21
25.282189
0
LINE
8
Image
10
68.634210
20
25.282189
11
68.642876
21
25.612270
0
LINE
8
Image
10
68.642876
20
25.612270
11
68.732677
21
25.914491
0
LINE
8
Image
10
68.732677
20
25.914491
11
68.931478
21
26.119675
0
LINE
8
Image
10
68.931478
20
26.119675
11
69.846988
21
26.357008
0
LINE
8
Image
10
69.846988
20
26.357008
11
71.049391
21
26.643499
0
LINE
8
Image
10
71.049391
20
26.643499
11
71.202500
21
26.850104
0
LINE
8
Image
10
71.202500
20
26.850104
11
71.109978
21
27.131509
0
LINE
8
Image
10
71.109978
20
27.131509
11
70.766916
21
27.300621
0
LINE
8
Image
10
70.766916
20
27.300621
11
70.167549
21
27.262601
0
LINE
8
Image
10
70.167549
20
27.262601
11
69.517967
21
27.208765
0
LINE
8
Image
10
69.517967
20
27.208765
11
69.021275
21
27.313256
0
LINE
8
Image
10
69.021275
20
27.313256
11
68.953844
21
27.409718
0
LINE
8
Image
10
68.953844
20
27.409718
11
69.115152
21
27.490328
0
LINE
8
Image
10
69.115152
20
27.490328
11
70.086838
21
27.594200
0
LINE
8
Image
10
70.086838
20
27.594200
11
71.343295
21
27.556822
0
LINE
8
Image
10
71.343295
20
27.556822
11
71.480290
21
27.348348
0
LINE
8
Image
10
71.480290
20
27.348348
11
71.456738
21
26.932743
0
LINE
8
Image
10
71.456738
20
26.932743
11
71.375621
21
26.542410
0
LINE
8
Image
10
71.375621
20
26.542410
11
71.190114
21
26.305653
0
LINE
8
Image
10
71.190114
20
26.305653
11
70.182630
21
26.075290
0
LINE
8
Image
10
70.182630
20
26.075290
11
69.305229
21
25.896649
0
LINE
8
Image
10
69.305229
20
25.896649
11
69.099897
21
25.673201
0
LINE
8
Image
10
69.099897
20
25.673201
11
69.534389
21
25.465596
0
LINE
8
Image
10
69.534389
20
25.465596
11
70.576462
21
25.334483
0
LINE
8
Image
10
70.576462
20
25.334483
11
71.813659
21
25.167636
0
LINE
8
Image
10
71.813659
20
25.167636
11
71.997387
21
24.960541
0
LINE
8
Image
10
71.997387
20
24.960541
11
72.034711
21
24.598576
0
LINE
8
Image
10
72.034711
20
24.598576
11
71.979119
21
24.134220
0
LINE
8
Image
10
71.979119
20
24.134220
11
71.652138
21
23.866199
0
LINE
8
Image
10
71.652138
20
23.866199
11
69.222789
21
23.566283
0
LINE
8
Image
10
69.222789
20
23.566283
11
67.072325
21
23.398737
0
LINE
8
Image
10
67.072325
20
23.398737
11
66.903492
21
24.538576
0
LINE
8
Image
10
72.964435
20
23.860450
11
72.703378
21
24.277753
0
LINE
8
Image
10
72.703378
20
24.277753
11
72.680953
21
24.675838
0
LINE
8
Image
10
72.680953
20
24.675838
11
72.828460
21
25.303181
0
LINE
8
Image
10
72.828460
20
25.303181
11
73.064128
21
25.474759
0
LINE
8
Image
10
73.064128
20
25.474759
11
73.630734
21
25.546124
0
LINE
8
Image
10
73.630734
20
25.546124
11
74.201067
21
25.418264
0
LINE
8
Image
10
74.201067
20
25.418264
11
74.599126
21
25.068184
0
LINE
8
Image
10
74.599126
20
25.068184
11
74.790927
21
24.546129
0
LINE
8
Image
10
74.790927
20
24.546129
11
74.742488
21
23.902348
0
LINE
8
Image
10
74.742488
20
23.902348
11
74.480340
21
23.561996
0
LINE
8
Image
10
74.480340
20
23.561996
11
74.012495
21
23.439580
0
LINE
8
Image
10
74.012495
20
23.439580
11
73.465134
21
23.538074
0
LINE
8
Image
10
73.465134
20
23.538074
11
72.964435
21
23.860450
0
LINE
8
Image
10
72.964435
20
23.860450
11
72.964435
21
23.860450
0
LINE
8
Image
10
74.415958
20
24.456934
11
74.265016
21
24.848335
0
LINE
8
Image
10
74.265016
20
24.848335
11
73.902112
21
25.089615
0
LINE
8
Image
10
73.902112
20
25.089615
11
73.267427
21
25.070767
0
LINE
8
Image
10
73.267427
20
25.070767
11
73.093043
21
24.443695
0
LINE
8
Image
10
73.093043
20
24.443695
11
73.249387
21
24.073279
0
LINE
8
Image
10
73.249387
20
24.073279
11
73.754501
21
23.958626
0
LINE
8
Image
10
73.754501
20
23.958626
11
74.262010
21
24.074603
0
LINE
8
Image
10
74.262010
20
24.074603
11
74.415958
21
24.456934
0
LINE
8
Image
10
74.415958
20
24.456934
11
74.415958
21
24.456934
0
LINE
8
Image
10
89.083670
20
27.418140
11
87.971736
21
28.350023
0
LINE
8
Image
10
87.971736
20
28.350023
11
86.389614
21
29.447885
0
LINE
8
Image
10
86.389614
20
29.447885
11
84.595795
21
30.787078
0
LINE
8
Image
10
84.595795
20
30.787078
11
85.234688
21
30.547578
0
LINE
8
Image
10
85.234688
20
30.547578
11
86.514013
21
29.728950
0
LINE
8
Image
10
86.514013
20
29.728950
11
89.089827
21
27.673528
0
LINE
8
Image
10
89.089827
20
27.673528
11
89.997262
21
26.604456
0
LINE
8
Image
10
89.997262
20
26.604456
11
89.083670
21
27.418140
0
LINE
8
Image
10
89.083670
20
27.418140
11
89.083670
21
27.418140
0
LINE
8
Image
10
74.116741
20
13.869037
11
73.790996
21
13.810802
0
LINE
8
Image
10
73.790996
20
13.810802
11
73.403709
21
13.534780
0
LINE
8
Image
10
73.403709
20
13.534780
11
73.148141
21
13.221097
0
LINE
8
Image
10
73.148141
20
13.221097
11
73.685627
21
13.437924
0
LINE
8
Image
10
73.685627
20
13.437924
11
74.106393
21
13.702444
0
LINE
8
Image
10
74.106393
20
13.702444
11
74.116741
21
13.869037
0
LINE
8
Image
10
74.116741
20
13.869037
11
74.116741
21
13.869037
0
LINE
8
Image
10
60.789934
20
14.433638
11
61.136532
21
14.962804
0
LINE
8
Image
10
61.136532
20
14.962804
11
60.525351
21
14.433638
0
LINE
8
Image
10
60.525351
20
14.433638
11
60.178752
21
13.904472
0
LINE
8
Image
10
60.178752
20
13.904472
11
60.789934
21
14.433638
0
LINE
8
Image
10
60.789934
20
14.433638
11
60.789934
21
14.433638
0
LINE
8
Image
10
110.282531
20
14.315943
11
110.624083
21
14.621048
0
LINE
8
Image
10
110.624083
20
14.621048
11
110.134663
21
14.412395
0
LINE
8
Image
10
110.134663
20
14.412395
11
109.392974
21
14.013792
0
LINE
8
Image
10
109.392974
20
14.013792
11
109.352593
21
13.929594
0
LINE
8
Image
10
109.352593
20
13.929594
11
109.510830
21
13.904472
0
LINE
8
Image
10
109.510830
20
13.904472
11
110.282531
21
14.315943
0
LINE
8
Image
10
110.282531
20
14.315943
11
110.282531
21
14.315943
0
LINE
8
Image
10
109.414458
20
14.712005
11
110.885113
21
15.600936
0
LINE
8
Image
10
110.885113
20
15.600936
11
111.503272
21
16.153428
0
LINE
8
Image
10
111.503272
20
16.153428
11
108.078711
21
16.285719
0
LINE
8
Image
10
108.078711
20
16.285719
11
101.995498
21
16.334831
0
LINE
8
Image
10
101.995498
20
16.334831
11
99.336849
21
16.251652
0
LINE
8
Image
10
99.336849
20
16.251652
11
99.015121
21
15.474937
0
LINE
8
Image
10
99.015121
20
15.474937
11
98.700180
21
14.911168
0
LINE
8
Image
10
98.700180
20
14.911168
11
98.394766
21
14.646430
0
LINE
8
Image
10
98.394766
20
14.646430
11
98.453740
21
14.601321
0
LINE
8
Image
10
98.453740
20
14.601321
11
99.009339
21
14.548595
0
LINE
8
Image
10
99.009339
20
14.548595
11
101.134353
21
14.439308
0
LINE
8
Image
10
101.134353
20
14.439308
11
106.107170
21
14.338457
0
LINE
8
Image
10
106.107170
20
14.338457
11
108.091286
21
14.463495
0
LINE
8
Image
10
108.091286
20
14.463495
11
109.414458
21
14.712005
0
LINE
8
Image
10
109.414458
20
14.712005
11
109.414458
21
14.712005
0
LINE
8
Image
10
42.079503
20
15.293533
11
41.440733
21
16.233062
0
LINE
8
Image
10
41.440733
20
16.233062
11
35.552753
21
16.365353
0
LINE
8
Image
10
35.552753
20
16.365353
11
31.833733
21
16.364595
0
LINE
8
Image
10
31.833733
20
16.364595
11
30.033628
21
16.215811
0
LINE
8
Image
10
30.033628
20
16.215811
11
29.746587
21
16.057662
0
LINE
8
Image
10
29.746587
20
16.057662
11
29.811375
21
15.828609
0
LINE
8
Image
10
29.811375
20
15.828609
11
30.825909
21
15.112595
0
LINE
8
Image
10
30.825909
20
15.112595
11
31.564462
21
14.727616
0
LINE
8
Image
10
31.564462
20
14.727616
11
32.506795
21
14.526731
0
LINE
8
Image
10
32.506795
20
14.526731
11
37.316114
21
14.436141
0
LINE
8
Image
10
37.316114
20
14.436141
11
42.681839
21
14.433628
0
LINE
8
Image
10
42.681839
20
14.433628
11
42.079503
21
15.293533
0
LINE
8
Image
10
50.609185
20
15.219386
11
49.852041
21
16.127284
0
LINE
8
Image
10
49.852041
20
16.127284
11
46.404829
21
16.412027
0
LINE
8
Image
10
46.404829
20
16.412027
11
43.684177
21
16.481230
0
LINE
8
Image
10
43.684177
20
16.481230
11
43.352770
21
16.364714
0
LINE
8
Image
10
43.352770
20
16.364714
11
43.410601
21
16.118352
0
LINE
8
Image
10
43.410601
20
16.118352
11
43.890966
21
15.621072
0
LINE
8
Image
10
43.890966
20
15.621072
11
44.687323
21
15.066198
0
LINE
8
Image
10
44.687323
20
15.066198
11
45.313626
21
14.757626
0
LINE
8
Image
10
45.313626
20
14.757626
11
46.015530
21
14.574026
0
LINE
8
Image
10
46.015530
20
14.574026
11
48.438694
21
14.451975
0
LINE
8
Image
10
48.438694
20
14.451975
11
51.168688
21
14.433639
0
LINE
8
Image
10
51.168688
20
14.433639
11
50.609185
21
15.219386
0
LINE
8
Image
10
29.261467
20
15.822699
11
29.030448
21
16.383325
0
LINE
8
Image
10
29.030448
20
16.383325
11
29.164828
21
16.560246
0
LINE
8
Image
10
29.164828
20
16.560246
11
29.541935
21
16.682806
0
LINE
8
Image
10
29.541935
20
16.682806
11
31.252728
21
16.808548
0
LINE
8
Image
10
31.252728
20
16.808548
11
34.619627
21
16.847958
0
LINE
8
Image
10
34.619627
20
16.847958
11
40.549334
21
16.947177
0
LINE
8
Image
10
40.549334
20
16.947177
11
41.144646
21
17.047384
0
LINE
8
Image
10
41.144646
20
17.047384
11
41.145060
21
17.215465
0
LINE
8
Image
10
41.145060
20
17.215465
11
40.681626
21
17.571741
0
LINE
8
Image
10
40.681626
20
17.571741
11
39.856204
21
18.158229
0
LINE
8
Image
10
39.856204
20
18.158229
11
39.317592
21
18.725172
0
LINE
8
Image
10
39.317592
20
18.725172
11
39.057544
21
19.284196
0
LINE
8
Image
10
39.057544
20
19.284196
11
39.067810
21
19.846928
0
LINE
8
Image
10
39.067810
20
19.846928
11
39.110703
21
20.366700
0
LINE
8
Image
10
39.110703
20
20.366700
11
38.850201
21
20.519047
0
LINE
8
Image
10
38.850201
20
20.519047
11
38.399723
21
20.334721
0
LINE
8
Image
10
38.399723
20
20.334721
11
38.343983
21
19.850267
0
LINE
8
Image
10
38.343983
20
19.850267
11
38.660039
21
19.168467
0
LINE
8
Image
10
38.660039
20
19.168467
11
39.324947
21
18.392105
0
LINE
8
Image
10
39.324947
20
18.392105
11
39.968830
21
17.644576
0
LINE
8
Image
10
39.968830
20
17.644576
11
39.903503
21
17.410397
0
LINE
8
Image
10
39.903503
20
17.410397
11
39.483533
21
17.249114
0
LINE
8
Image
10
39.483533
20
17.249114
11
37.290278
21
17.084753
0
LINE
8
Image
10
37.290278
20
17.084753
11
32.810282
21
17.030525
0
LINE
8
Image
10
32.810282
20
17.030525
11
28.119913
21
16.967636
0
LINE
8
Image
10
28.119913
20
16.967636
11
27.005639
21
16.926464
0
LINE
8
Image
10
27.005639
20
16.926464
11
26.840105
21
16.905532
0
LINE
8
Image
10
26.840105
20
16.905532
11
26.967591
21
16.885165
0
LINE
8
Image
10
26.967591
20
16.885165
11
28.147763
21
16.679203
0
LINE
8
Image
10
28.147763
20
16.679203
11
28.759624
21
16.140359
0
LINE
8
Image
10
28.759624
20
16.140359
11
29.316393
21
15.503806
0
LINE
8
Image
10
29.316393
20
15.503806
11
29.407846
21
15.516949
0
LINE
8
Image
10
29.407846
20
15.516949
11
29.261467
21
15.822699
0
LINE
8
Image
10
29.261467
20
15.822699
11
29.261467
21
15.822699
0
LINE
8
Image
10
77.474239
20
15.897259
11
76.680490
21
16.276344
0
LINE
8
Image
10
76.680490
20
16.276344
11
76.676928
21
16.158648
0
LINE
8
Image
10
76.676928
20
16.158648
11
77.061788
21
15.888845
0
LINE
8
Image
10
77.061788
20
15.888845
11
77.834376
21
15.524041
0
LINE
8
Image
10
77.834376
20
15.524041
11
77.474239
21
15.897258
0
LINE
8
Image
10
77.474239
20
15.897258
11
77.474239
21
15.897259
0
LINE
8
Image
10
48.690000
20
17.003937
11
47.102502
21
17.006635
0
LINE
8
Image
10
47.102502
20
17.006635
11
46.892045
21
16.964851
0
LINE
8
Image
10
46.892045
20
16.964851
11
46.958183
21
16.930227
0
LINE
8
Image
10
46.958183
20
16.930227
11
47.825367
21
16.896870
0
LINE
8
Image
10
47.825367
20
16.896870
11
48.734196
21
16.927208
0
LINE
8
Image
10
48.734196
20
16.927208
11
48.845412
21
16.961529
0
LINE
8
Image
10
48.845412
20
16.961529
11
48.690000
21
17.003935
0
LINE
8
Image
10
48.690000
20
17.003935
11
48.690000
21
17.003937
0
LINE
8
Image
10
24.409772
20
17.426842
11
23.549877
21
18.286736
0
LINE
8
Image
10
23.549877
20
18.286736
11
22.689982
21
19.063841
0
LINE
8
Image
10
22.689982
20
19.063841
11
23.467087
21
18.203946
0
LINE
8
Image
10
23.467087
20
18.203946
11
24.210068
21
17.438163
0
LINE
8
Image
10
24.210068
20
17.438163
11
24.364342
21
17.349313
0
LINE
8
Image
10
24.364342
20
17.349313
11
24.409772
21
17.426842
0
LINE
8
Image
10
24.409772
20
17.426842
11
24.409772
21
17.426842
0
LINE
8
Image
10
71.439400
20
17.538530
11
68.925861
21
17.538530
0
LINE
8
Image
10
68.925861
20
17.538530
11
68.636215
21
17.500052
0
LINE
8
Image
10
68.636215
20
17.500052
11
68.776620
21
17.468542
0
LINE
8
Image
10
68.776620
20
17.468542
11
70.182630
21
17.439432
0
LINE
8
Image
10
70.182630
20
17.439432
11
71.588641
21
17.468542
0
LINE
8
Image
10
71.588641
20
17.468542
11
71.729046
21
17.500052
0
LINE
8
Image
10
71.729046
20
17.500052
11
71.439400
21
17.538530
0
LINE
8
Image
10
71.439400
20
17.538530
11
71.439400
21
17.538530
0
LINE
8
Image
10
38.237062
20
18.668146
11
37.543380
21
19.727659
0
LINE
8
Image
10
37.543380
20
19.727659
11
30.321064
21
19.708095
0
LINE
8
Image
10
30.321064
20
19.708095
11
23.098748
21
19.688532
0
LINE
8
Image
10
23.098748
20
19.688532
11
23.527583
21
19.034046
0
LINE
8
Image
10
23.527583
20
19.034046
11
24.213246
21
18.251927
0
LINE
8
Image
10
24.213246
20
18.251927
11
25.417752
21
17.830770
0
LINE
8
Image
10
25.417752
20
17.830770
11
27.828597
21
17.657545
0
LINE
8
Image
10
27.828597
20
17.657545
11
32.133277
21
17.619227
0
LINE
8
Image
10
32.133277
20
17.619227
11
38.930745
21
17.608633
0
LINE
8
Image
10
38.930745
20
17.608633
11
38.237062
21
18.668146
0
LINE
8
Image
10
48.418930
20
18.305287
11
47.659774
21
19.147459
0
LINE
8
Image
10
47.659774
20
19.147459
11
46.907438
21
19.566667
0
LINE
8
Image
10
46.907438
20
19.566667
11
45.630928
21
19.710187
0
LINE
8
Image
10
45.630928
20
19.710187
11
43.299249
21
19.725298
0
LINE
8
Image
10
43.299249
20
19.725298
11
40.006759
21
19.654787
0
LINE
8
Image
10
40.006759
20
19.654787
11
39.663269
21
19.493163
0
LINE
8
Image
10
39.663269
20
19.493163
11
39.763163
21
19.181974
0
LINE
8
Image
10
39.763163
20
19.181974
11
40.216158
21
18.647258
0
LINE
8
Image
10
40.216158
20
18.647258
11
40.896949
21
18.124631
0
LINE
8
Image
10
40.896949
20
18.124631
11
41.462647
21
17.857396
0
LINE
8
Image
10
41.462647
20
17.857396
11
42.233864
21
17.701327
0
LINE
8
Image
10
42.233864
20
17.701327
11
45.376225
21
17.609623
0
LINE
8
Image
10
45.376225
20
17.609623
11
49.012490
21
17.608644
0
LINE
8
Image
10
49.012490
20
17.608644
11
48.418930
21
18.305287
0
LINE
8
Image
10
100.278947
20
18.354254
11
101.088764
21
19.048854
0
LINE
8
Image
10
101.088764
20
19.048854
11
101.159692
21
19.282904
0
LINE
8
Image
10
101.159692
20
19.282904
11
100.979745
21
19.454413
0
LINE
8
Image
10
100.979745
20
19.454413
11
99.782566
21
19.648690
0
LINE
8
Image
10
99.782566
20
19.648690
11
97.327907
21
19.709439
0
LINE
8
Image
10
97.327907
20
19.709439
11
93.516972
21
19.733598
0
LINE
8
Image
10
93.516972
20
19.733598
11
92.659517
21
18.650971
0
LINE
8
Image
10
92.659517
20
18.650971
11
91.802059
21
17.568344
0
LINE
8
Image
10
91.802059
20
17.568344
11
95.610557
21
17.654635
0
LINE
8
Image
10
95.610557
20
17.654635
11
98.956134
21
17.823668
0
LINE
8
Image
10
98.956134
20
17.823668
11
99.707569
21
18.019367
0
LINE
8
Image
10
99.707569
20
18.019367
11
100.278947
21
18.354254
0
LINE
8
Image
10
100.278947
20
18.354254
11
100.278947
21
18.354254
0
LINE
8
Image
10
116.978981
20
18.534675
11
118.166543
21
19.418418
0
LINE
8
Image
10
118.166543
20
19.418418
11
118.139097
21
19.172206
0
LINE
8
Image
10
118.139097
20
19.172206
11
117.684111
21
18.468529
0
LINE
8
Image
10
117.684111
20
18.468529
11
116.968681
21
17.476343
0
LINE
8
Image
10
116.968681
20
17.476343
11
117.664749
21
18.270092
0
LINE
8
Image
10
117.664749
20
18.270092
11
119.020711
21
19.897649
0
LINE
8
Image
10
119.020711
20
19.897649
11
119.153078
21
20.193078
0
LINE
8
Image
10
119.153078
20
20.193078
11
119.030629
21
20.305239
0
LINE
8
Image
10
119.030629
20
20.305239
11
114.103408
21
20.242189
0
LINE
8
Image
10
114.103408
20
20.242189
11
109.473206
21
20.097622
0
LINE
8
Image
10
109.473206
20
20.097622
11
113.949069
21
20.043752
0
LINE
8
Image
10
113.949069
20
20.043752
11
117.072083
21
19.967643
0
LINE
8
Image
10
117.072083
20
19.967643
11
118.295356
21
19.860306
0
LINE
8
Image
10
118.295356
20
19.860306
11
110.750269
21
19.716754
0
LINE
8
Image
10
110.750269
20
19.716754
11
103.334759
21
19.702779
0
LINE
8
Image
10
103.334759
20
19.702779
11
102.649221
21
18.655707
0
LINE
8
Image
10
102.649221
20
18.655707
11
101.963682
21
17.608634
0
LINE
8
Image
10
101.963682
20
17.608634
11
108.958825
21
17.608634
0
LINE
8
Image
10
108.958825
20
17.608634
11
115.953965
21
17.608634
0
LINE
8
Image
10
115.953965
20
17.608634
11
116.978981
21
18.534675
0
LINE
8
Image
10
102.461756
20
19.600270
11
102.558908
21
19.883491
0
LINE
8
Image
10
102.558908
20
19.883491
11
102.792485
21
20.079236
0
LINE
8
Image
10
102.792485
20
20.079236
11
102.819602
21
20.179622
0
LINE
8
Image
10
102.819602
20
20.179622
11
102.420381
21
20.233576
0
LINE
8
Image
10
102.420381
20
20.233576
11
101.883429
21
20.150457
0
LINE
8
Image
10
101.883429
20
20.150457
11
101.848855
21
19.752347
0
LINE
8
Image
10
101.848855
20
19.752347
11
101.852492
21
19.214909
0
LINE
8
Image
10
101.852492
20
19.214909
11
101.676852
21
18.627870
0
LINE
8
Image
10
101.676852
20
18.627870
11
101.373545
21
18.005509
0
LINE
8
Image
10
101.373545
20
18.005509
11
101.917652
21
18.630132
0
LINE
8
Image
10
101.917652
20
18.630132
11
102.461756
21
19.600270
0
LINE
8
Image
10
102.461756
20
19.600270
11
102.461756
21
19.600270
0
LINE
8
Image
10
24.542063
20
20.326729
11
25.625231
21
20.413064
0
LINE
8
Image
10
25.625231
20
20.413064
11
24.123140
21
20.469019
0
LINE
8
Image
10
24.123140
20
20.469019
11
22.129402
21
20.388877
0
LINE
8
Image
10
22.129402
20
20.388877
11
21.910892
21
20.193984
0
LINE
8
Image
10
21.910892
20
20.193984
11
22.107200
21
19.864671
0
LINE
8
Image
10
22.107200
20
19.864671
11
22.410003
21
19.667438
0
LINE
8
Image
10
22.410003
20
19.667438
11
22.686607
21
19.882867
0
LINE
8
Image
10
22.686607
20
19.882867
11
23.330778
21
20.160528
0
LINE
8
Image
10
23.330778
20
20.160528
11
24.542063
21
20.326730
0
LINE
8
Image
10
24.542063
20
20.326730
11
24.542063
21
20.326729
0
LINE
8
Image
10
20.633952
20
20.414316
11
20.126835
21
20.435205
0
LINE
8
Image
10
20.126835
20
20.435205
11
20.012027
21
20.328367
0
LINE
8
Image
10
20.012027
20
20.328367
11
20.286687
21
20.275353
0
LINE
8
Image
10
20.286687
20
20.275353
11
20.597882
21
20.307558
0
LINE
8
Image
10
20.597882
20
20.307558
11
20.633952
21
20.414317
0
LINE
8
Image
10
20.633952
20
20.414317
11
20.633952
21
20.414316
0
LINE
8
Image
10
27.513110
20
20.414316
11
27.005992
21
20.435205
0
LINE
8
Image
10
27.005992
20
20.435205
11
26.891185
21
20.328367
0
LINE
8
Image
10
26.891185
20
20.328367
11
27.165845
21
20.275353
0
LINE
8
Image
10
27.165845
20
20.275353
11
27.477040
21
20.307558
0
LINE
8
Image
10
27.477040
20
20.307558
11
27.513110
21
20.414317
0
LINE
8
Image
10
27.513110
20
20.414317
11
27.513110
21
20.414316
0
LINE
8
Image
10
30.169190
20
20.443516
11
28.581692
21
20.446214
0
LINE
8
Image
10
28.581692
20
20.446214
11
28.371235
21
20.404431
0
LINE
8
Image
10
28.371235
20
20.404431
11
28.437373
21
20.369808
0
LINE
8
Image
10
28.437373
20
20.369808
11
29.304557
21
20.336450
0
LINE
8
Image
10
29.304557
20
20.336450
11
30.213386
21
20.366788
0
LINE
8
Image
10
30.213386
20
20.366788
11
30.324602
21
20.401109
0
LINE
8
Image
10
30.324602
20
20.401109
11
30.169190
21
20.443516
0
LINE
8
Image
10
30.169190
20
20.443516
11
30.169190
21
20.443516
0
LINE
8
Image
10
121.440075
20
20.414316
11
120.932957
21
20.435205
0
LINE
8
Image
10
120.932957
20
20.435205
11
120.818149
21
20.328367
0
LINE
8
Image
10
120.818149
20
20.328367
11
121.092810
21
20.275353
0
LINE
8
Image
10
121.092810
20
20.275353
11
121.404004
21
20.307558
0
LINE
8
Image
10
121.404004
20
20.307558
11
121.440075
21
20.414317
0
LINE
8
Image
10
121.440075
20
20.414317
11
121.440075
21
20.414316
0
LINE
8
Image
10
33.864333
20
21.036164
11
33.992093
21
21.091461
0
LINE
8
Image
10
33.992093
20
21.091461
11
34.016843
21
21.255203
0
LINE
8
Image
10
34.016843
20
21.255203
11
33.749184
21
21.974254
0
LINE
8
Image
10
33.749184
20
21.974254
11
33.307587
21
22.900294
0
LINE
8
Image
10
33.307587
20
22.900294
11
25.397051
21
22.900294
0
LINE
8
Image
10
25.397051
20
22.900294
11
20.388602
21
22.871770
0
LINE
8
Image
10
20.388602
20
22.871770
11
18.026990
21
22.708030
0
LINE
8
Image
10
18.026990
20
22.708030
11
17.674320
21
22.538813
0
LINE
8
Image
10
17.674320
20
22.538813
11
17.786047
21
22.291825
0
LINE
8
Image
10
17.786047
20
22.291825
11
19.139606
21
21.505905
0
LINE
8
Image
10
19.139606
20
21.505905
11
20.573318
21
20.772973
0
LINE
8
Image
10
20.573318
20
20.772973
11
27.055601
21
20.898544
0
LINE
8
Image
10
27.055601
20
20.898544
11
33.864333
21
21.036164
0
LINE
8
Image
10
33.864333
20
21.036164
11
33.864333
21
21.036164
0
LINE
8
Image
10
46.091335
20
21.023504
11
46.196893
21
21.094586
0
LINE
8
Image
10
46.196893
20
21.094586
11
46.144329
21
21.280299
0
LINE
8
Image
10
46.144329
20
21.280299
11
45.576411
21
21.974254
0
LINE
8
Image
10
45.576411
20
21.974254
11
44.678859
21
22.900294
0
LINE
8
Image
10
44.678859
20
22.900294
11
39.968265
21
22.900294
0
LINE
8
Image
10
39.968265
20
22.900294
11
36.641410
21
22.834619
0
LINE
8
Image
10
36.641410
20
22.834619
11
35.257674
21
22.676718
0
LINE
8
Image
10
35.257674
20
22.676718
11
35.748988
21
22.033364
0
LINE
8
Image
10
35.748988
20
22.033364
11
36.897253
21
21.279765
0
LINE
8
Image
10
36.897253
20
21.279765
11
38.357320
21
21.006631
0
LINE
8
Image
10
38.357320
20
21.006631
11
41.659747
21
20.957359
0
LINE
8
Image
10
41.659747
20
20.957359
11
46.091335
21
21.023505
0
LINE
8
Image
10
46.091335
20
21.023505
11
46.091335
21
21.023504
0
LINE
8
Image
10
104.049254
20
21.186379
11
105.352143
21
22.213698
0
LINE
8
Image
10
105.352143
20
22.213698
11
105.993577
21
22.900294
0
LINE
8
Image
10
105.993577
20
22.900294
11
101.106366
21
22.900294
0
LINE
8
Image
10
101.106366
20
22.900294
11
96.219159
21
22.900294
0
LINE
8
Image
10
96.219159
20
22.900294
11
95.179620
21
21.835711
0
LINE
8
Image
10
95.179620
20
21.835711
11
94.140081
21
20.771127
0
LINE
8
Image
10
94.140081
20
20.771127
11
98.763939
21
20.808392
0
LINE
8
Image
10
98.763939
20
20.808392
11
102.430661
21
20.918958
0
LINE
8
Image
10
102.430661
20
20.918958
11
104.049254
21
21.186379
0
LINE
8
Image
10
104.049254
20
21.186379
11
104.049254
21
21.186379
0
LINE
8
Image
10
121.948392
20
21.361003
11
123.405004
21
22.308846
0
LINE
8
Image
10
123.405004
20
22.308846
11
123.826199
21
22.728915
0
LINE
8
Image
10
123.826199
20
22.728915
11
123.869310
21
22.968062
0
LINE
8
Image
10
123.869310
20
22.968062
11
115.754692
21
22.948737
0
LINE
8
Image
10
115.754692
20
22.948737
11
107.748696
21
22.864888
0
LINE
8
Image
10
107.748696
20
22.864888
11
107.317265
21
22.022696
0
LINE
8
Image
10
107.317265
20
22.022696
11
106.592021
21
20.986119
0
LINE
8
Image
10
106.592021
20
20.986119
11
108.513338
21
20.847644
0
LINE
8
Image
10
108.513338
20
20.847644
11
113.545263
21
20.787682
0
LINE
8
Image
10
113.545263
20
20.787682
11
119.928960
21
20.866043
0
LINE
8
Image
10
119.928960
20
20.866043
11
121.143074
21
21.038174
0
LINE
8
Image
10
121.143074
20
21.038174
11
121.948392
21
21.361003
0
LINE
8
Image
10
121.948392
20
21.361003
11
121.948392
21
21.361003
0
LINE
8
Image
10
18.324363
20
21.131004
11
17.464468
21
21.990898
0
LINE
8
Image
10
17.464468
20
21.990898
11
16.604573
21
22.768003
0
LINE
8
Image
10
16.604573
20
22.768003
11
17.381678
21
21.908108
0
LINE
8
Image
10
17.381678
20
21.908108
11
18.124659
21
21.142325
0
LINE
8
Image
10
18.124659
20
21.142325
11
18.278933
21
21.053475
0
LINE
8
Image
10
18.278933
20
21.053475
11
18.324363
21
21.131004
0
LINE
8
Image
10
18.324363
20
21.131004
11
18.324363
21
21.131004
0
LINE
8
Image
10
14.813126
20
23.853895
11
14.306009
21
23.874784
0
LINE
8
Image
10
14.306009
20
23.874784
11
14.191201
21
23.767946
0
LINE
8
Image
10
14.191201
20
23.767946
11
14.465861
21
23.714932
0
LINE
8
Image
10
14.465861
20
23.714932
11
14.777056
21
23.747137
0
LINE
8
Image
10
14.777056
20
23.747137
11
14.813126
21
23.853896
0
LINE
8
Image
10
14.813126
20
23.853896
11
14.813126
21
23.853895
0
LINE
8
Image
10
127.853787
20
24.086813
11
128.673995
21
24.710533
0
LINE
8
Image
10
128.673995
20
24.710533
11
129.579408
21
25.658567
0
LINE
8
Image
10
129.579408
20
25.658567
11
130.476467
21
26.550502
0
LINE
8
Image
10
130.476467
20
26.550502
11
131.254128
21
26.945944
0
LINE
8
Image
10
131.254128
20
26.945944
11
131.362260
21
26.989570
0
LINE
8
Image
10
131.362260
20
26.989570
11
131.132831
21
27.028228
0
LINE
8
Image
10
131.132831
20
27.028228
11
129.846097
21
27.073850
0
LINE
8
Image
10
129.846097
20
27.073850
11
128.171074
21
27.042162
0
LINE
8
Image
10
128.171074
20
27.042162
11
128.188612
21
26.944914
0
LINE
8
Image
10
128.188612
20
26.944914
11
128.651137
21
26.760618
0
LINE
8
Image
10
128.651137
20
26.760618
11
128.954436
21
26.579261
0
LINE
8
Image
10
128.954436
20
26.579261
11
128.456066
21
26.454417
0
LINE
8
Image
10
128.456066
20
26.454417
11
123.912127
21
26.251581
0
LINE
8
Image
10
123.912127
20
26.251581
11
115.136909
21
26.075290
0
LINE
8
Image
10
115.136909
20
26.075290
11
112.474333
21
25.994383
0
LINE
8
Image
10
112.474333
20
25.994383
11
112.028194
21
25.835882
0
LINE
8
Image
10
112.028194
20
25.835882
11
111.854950
21
25.547691
0
LINE
8
Image
10
111.854950
20
25.547691
11
111.289055
21
24.621650
0
LINE
8
Image
10
111.289055
20
24.621650
11
111.219643
21
24.502644
0
LINE
8
Image
10
111.219643
20
24.502644
11
111.315896
21
24.409685
0
LINE
8
Image
10
111.315896
20
24.409685
11
112.235439
21
24.289355
0
LINE
8
Image
10
112.235439
20
24.289355
11
118.592961
21
24.223209
0
LINE
8
Image
10
118.592961
20
24.223209
11
125.360223
21
24.303790
0
LINE
8
Image
10
125.360223
20
24.303790
11
126.616855
21
24.473565
0
LINE
8
Image
10
126.616855
20
24.473565
11
127.408348
21
24.791041
0
LINE
8
Image
10
127.408348
20
24.791041
11
128.831384
21
25.782811
0
LINE
8
Image
10
128.831384
20
25.782811
11
129.114960
21
26.016468
0
LINE
8
Image
10
129.114960
20
26.016468
11
129.361444
21
25.982919
0
LINE
8
Image
10
129.361444
20
25.982919
11
129.246836
21
25.584845
0
LINE
8
Image
10
129.246836
20
25.584845
11
128.634669
21
24.976675
0
LINE
8
Image
10
128.634669
20
24.976675
11
127.779450
21
24.369245
0
LINE
8
Image
10
127.779450
20
24.369245
11
126.935684
21
23.973389
0
LINE
8
Image
10
126.935684
20
23.973389
11
126.514432
21
23.802709
0
LINE
8
Image
10
126.514432
20
23.802709
11
126.618094
21
23.717905
0
LINE
8
Image
10
126.618094
20
23.717905
11
127.853787
21
24.086813
0
LINE
8
Image
10
127.853787
20
24.086813
11
127.853787
21
24.086813
0
LINE
8
Image
10
29.701431
20
24.752375
11
29.327708
21
25.242681
0
LINE
8
Image
10
29.327708
20
25.242681
11
29.172265
21
25.678416
0
LINE
8
Image
10
29.172265
20
25.678416
11
29.106120
21
26.095654
0
LINE
8
Image
10
29.106120
20
26.095654
11
20.459654
21
26.235141
0
LINE
8
Image
10
20.459654
20
26.235141
11
11.879332
21
26.354264
0
LINE
8
Image
10
11.879332
20
26.354264
11
12.389872
21
25.780536
0
LINE
8
Image
10
12.389872
20
25.780536
11
13.061326
21
25.232581
0
LINE
8
Image
10
13.061326
20
25.232581
11
13.958743
21
24.720819
0
LINE
8
Image
10
13.958743
20
24.720819
11
14.754453
21
24.461066
0
LINE
8
Image
10
14.754453
20
24.461066
11
16.091770
21
24.313635
0
LINE
8
Image
10
16.091770
20
24.313635
11
22.623837
21
24.229020
0
LINE
8
Image
10
22.623837
20
24.229020
11
30.230597
21
24.223210
0
LINE
8
Image
10
30.230597
20
24.223210
11
29.701431
21
24.752375
0
LINE
8
Image
10
42.213223
20
25.288157
11
41.098992
21
26.339873
0
LINE
8
Image
10
41.098992
20
26.339873
11
35.929377
21
26.339873
0
LINE
8
Image
10
35.929377
20
26.339873
11
30.759763
21
26.190187
0
LINE
8
Image
10
30.759763
20
26.190187
11
31.045180
21
25.507198
0
LINE
8
Image
10
31.045180
20
25.507198
11
31.630955
21
24.858158
0
LINE
8
Image
10
31.630955
20
24.858158
11
32.771129
21
24.473731
0
LINE
8
Image
10
32.771129
20
24.473731
11
34.829055
21
24.289283
0
LINE
8
Image
10
34.829055
20
24.289283
11
38.168087
21
24.240181
0
LINE
8
Image
10
38.168087
20
24.240181
11
43.327456
21
24.236440
0
LINE
8
Image
10
43.327456
20
24.236440
11
42.213223
21
25.288157
0
LINE
8
Image
10
108.993300
20
24.739206
11
109.674091
21
25.261833
0
LINE
8
Image
10
109.674091
20
25.261833
11
110.127086
21
25.796549
0
LINE
8
Image
10
110.127086
20
25.796549
11
110.207981
21
26.109031
0
LINE
8
Image
10
110.207981
20
26.109031
11
109.717667
21
26.270511
0
LINE
8
Image
10
109.717667
20
26.270511
11
105.223865
21
26.339873
0
LINE
8
Image
10
105.223865
20
26.339873
11
101.904275
21
26.303451
0
LINE
8
Image
10
101.904275
20
26.303451
11
99.975752
21
26.119621
0
LINE
8
Image
10
99.975752
20
26.119621
11
98.902803
21
25.676532
0
LINE
8
Image
10
98.902803
20
25.676532
11
98.149932
21
24.862335
0
LINE
8
Image
10
98.149932
20
24.862335
11
97.674558
21
24.223209
0
LINE
8
Image
10
97.674558
20
24.223209
11
102.912426
21
24.224188
0
LINE
8
Image
10
102.912426
20
24.224188
11
107.437897
21
24.308341
0
LINE
8
Image
10
107.437897
20
24.308341
11
108.386410
21
24.463453
0
LINE
8
Image
10
108.386410
20
24.463453
11
108.993300
21
24.739196
0
LINE
8
Image
10
108.993300
20
24.739196
11
108.993300
21
24.739206
0
LINE
8
Image
10
49.412865
20
25.810707
11
49.759463
21
26.339873
0
LINE
8
Image
10
49.759463
20
26.339873
11
49.148282
21
25.810707
0
LINE
8
Image
10
49.148282
20
25.810707
11
48.801683
21
25.281541
0
LINE
8
Image
10
48.801683
20
25.281541
11
49.412865
21
25.810707
0
LINE
8
Image
10
49.412865
20
25.810707
11
49.412865
21
25.810707
0
LINE
8
Image
10
11.863088
20
26.141436
11
11.842080
21
26.736747
0
LINE
8
Image
10
11.842080
20
26.736747
11
18.499992
21
26.736747
0
LINE
8
Image
10
18.499992
20
26.736747
11
23.260656
21
26.795038
0
LINE
8
Image
10
23.260656
20
26.795038
11
25.357101
21
26.935185
0
LINE
8
Image
10
25.357101
20
26.935185
11
23.399310
21
27.075331
0
LINE
8
Image
10
23.399310
20
27.075331
11
18.412557
21
27.133622
0
LINE
8
Image
10
18.412557
20
27.133622
11
11.106199
21
26.971004
0
LINE
8
Image
10
11.106199
20
26.971004
11
11.342760
21
26.209075
0
LINE
8
Image
10
11.342760
20
26.209075
11
11.827372
21
25.546124
0
LINE
8
Image
10
11.827372
20
25.546124
11
11.863088
21
26.141436
0
LINE
8
Image
10
11.863088
20
26.141436
11
11.863088
21
26.141436
0
LINE
8
Image
10
95.616349
20
26.538310
11
95.847182
21
26.869039
0
LINE
8
Image
10
95.847182
20
26.869039
11
95.516453
21
26.638205
0
LINE
8
Image
10
95.516453
20
26.638205
11
95.053432
21
26.175185
0
LINE
8
Image
10
95.053432
20
26.175185
11
95.092782
21
26.078078
0
LINE
8
Image
10
95.092782
20
26.078078
11
95.205274
21
26.109814
0
LINE
8
Image
10
95.205274
20
26.109814
11
95.616349
21
26.538310
0
LINE
8
Image
10
95.616349
20
26.538310
11
95.616349
21
26.538310
0
LINE
8
Image
10
99.690636
20
26.817941
11
99.490175
21
26.825970
0
LINE
8
Image
10
99.490175
20
26.825970
11
99.216204
21
26.637287
0
LINE
8
Image
10
99.216204
20
26.637287
11
99.051594
21
26.411397
0
LINE
8
Image
10
99.051594
20
26.411397
11
99.364318
21
26.489175
0
LINE
8
Image
10
99.364318
20
26.489175
11
99.655877
21
26.660269
0
LINE
8
Image
10
99.655877
20
26.660269
11
99.690636
21
26.817941
0
LINE
8
Image
10
99.690636
20
26.817941
11
99.690636
21
26.817941
0
LINE
8
Image
10
118.604463
20
26.858532
11
115.180882
21
27.055189
0
LINE
8
Image
10
115.180882
20
27.055189
11
114.595246
21
27.214621
0
LINE
8
Image
10
114.595246
20
27.214621
11
114.417881
21
27.464351
0
LINE
8
Image
10
114.417881
20
27.464351
11
114.432325
21
27.791359
0
LINE
8
Image
10
114.432325
20
27.791359
11
114.591596
21
27.927371
0
LINE
8
Image
10
114.591596
20
27.927371
11
114.944329
21
28.198247
0
LINE
8
Image
10
114.944329
20
28.198247
11
115.423908
21
28.849504
0
LINE
8
Image
10
115.423908
20
28.849504
11
115.993817
21
29.771637
0
LINE
8
Image
10
115.993817
20
29.771637
11
123.845997
21
29.845780
0
LINE
8
Image
10
123.845997
20
29.845780
11
131.698178
21
29.919923
0
LINE
8
Image
10
131.698178
20
29.919923
11
123.584298
21
29.981979
0
LINE
8
Image
10
123.584298
20
29.981979
11
117.175823
21
30.101622
0
LINE
8
Image
10
117.175823
20
30.101622
11
115.786872
21
30.213752
0
LINE
8
Image
10
115.786872
20
30.213752
11
115.313148
21
30.374764
0
LINE
8
Image
10
115.313148
20
30.374764
11
115.232946
21
30.439480
0
LINE
8
Image
10
115.232946
20
30.439480
11
115.260975
21
30.130648
0
LINE
8
Image
10
115.260975
20
30.130648
11
115.192141
21
29.436745
0
LINE
8
Image
10
115.192141
20
29.436745
11
114.811653
21
28.683810
0
LINE
8
Image
10
114.811653
20
28.683810
11
114.201174
21
27.990985
0
LINE
8
Image
10
114.201174
20
27.990985
11
113.442366
21
27.477410
0
LINE
8
Image
10
113.442366
20
27.477410
11
112.817349
21
27.090303
0
LINE
8
Image
10
112.817349
20
27.090303
11
112.751656
21
26.943995
0
LINE
8
Image
10
112.751656
20
26.943995
11
112.845245
21
26.823421
0
LINE
8
Image
10
112.845245
20
26.823421
11
114.478790
21
26.689654
0
LINE
8
Image
10
114.478790
20
26.689654
11
117.939862
21
26.664147
0
LINE
8
Image
10
117.939862
20
26.664147
11
122.702356
21
26.715734
0
LINE
8
Image
10
122.702356
20
26.715734
11
118.604463
21
26.858532
0
LINE
8
Image
10
133.383397
20
27.974351
11
133.917300
21
28.660464
0
LINE
8
Image
10
133.917300
20
28.660464
11
134.279130
21
29.433365
0
LINE
8
Image
10
134.279130
20
29.433365
11
134.455519
21
30.253485
0
LINE
8
Image
10
134.455519
20
30.253485
11
134.433098
21
31.081257
0
LINE
8
Image
10
134.433098
20
31.081257
11
134.366814
21
31.402933
0
LINE
8
Image
10
134.366814
20
31.402933
11
134.238338
21
31.497077
0
LINE
8
Image
10
134.238338
20
31.497077
11
133.417967
21
30.956430
0
LINE
8
Image
10
133.417967
20
30.956430
11
132.766098
21
30.405465
0
LINE
8
Image
10
132.766098
20
30.405465
11
133.153384
21
30.427701
0
LINE
8
Image
10
133.153384
20
30.427701
11
133.814842
21
30.601171
0
LINE
8
Image
10
133.814842
20
30.601171
11
133.230780
21
30.090866
0
LINE
8
Image
10
133.230780
20
30.090866
11
132.745995
21
29.481569
0
LINE
8
Image
10
132.745995
20
29.481569
11
124.675878
21
29.456074
0
LINE
8
Image
10
124.675878
20
29.456074
11
116.506486
21
29.529569
0
LINE
8
Image
10
116.506486
20
29.529569
11
116.051062
21
28.794616
0
LINE
8
Image
10
116.051062
20
28.794616
11
115.214691
21
27.742727
0
LINE
8
Image
10
115.214691
20
27.742727
11
115.203942
21
27.657794
0
LINE
8
Image
10
115.203942
20
27.657794
11
115.416311
21
27.587811
0
LINE
8
Image
10
115.416311
20
27.587811
11
116.638697
21
27.487262
0
LINE
8
Image
10
116.638697
20
27.487262
11
123.172157
21
27.405808
0
LINE
8
Image
10
123.172157
20
27.405808
11
131.510575
21
27.385827
0
LINE
8
Image
10
131.510575
20
27.385827
11
132.329894
21
28.075239
0
LINE
8
Image
10
132.329894
20
28.075239
11
133.040800
21
28.840857
0
LINE
8
Image
10
133.040800
20
28.840857
11
133.599466
21
29.713487
0
LINE
8
Image
10
133.599466
20
29.713487
11
133.949044
21
30.288842
0
LINE
8
Image
10
133.949044
20
30.288842
11
134.157247
21
30.339735
0
LINE
8
Image
10
134.157247
20
30.339735
11
134.142553
21
29.809276
0
LINE
8
Image
10
134.142553
20
29.809276
11
133.871929
21
29.120309
0
LINE
8
Image
10
133.871929
20
29.120309
11
133.413199
21
28.403553
0
LINE
8
Image
10
133.413199
20
28.403553
11
132.834184
21
27.789724
0
LINE
8
Image
10
132.834184
20
27.789724
11
132.357961
21
27.326352
0
LINE
8
Image
10
132.357961
20
27.326352
11
132.307941
21
27.133622
0
LINE
8
Image
10
132.307941
20
27.133622
11
133.383397
21
27.974351
0
LINE
8
Image
10
133.383397
20
27.974351
11
133.383397
21
27.974351
0
LINE
8
Image
10
8.006606
20
28.058619
11
7.624776
21
28.581383
0
LINE
8
Image
10
7.624776
20
28.581383
11
7.577997
21
28.910852
0
LINE
8
Image
10
7.577997
20
28.910852
11
7.767534
21
28.961203
0
LINE
8
Image
10
7.767534
20
28.961203
11
7.953866
21
28.812900
0
LINE
8
Image
10
7.953866
20
28.812900
11
9.063958
21
27.961656
0
LINE
8
Image
10
9.063958
20
27.961656
11
9.669879
21
27.661133
0
LINE
8
Image
10
9.669879
20
27.661133
11
10.438673
21
27.496490
0
LINE
8
Image
10
10.438673
20
27.496490
11
13.694160
21
27.435025
0
LINE
8
Image
10
13.694160
20
27.435025
11
21.519603
21
27.632474
0
LINE
8
Image
10
21.519603
20
27.632474
11
25.640883
21
27.795079
0
LINE
8
Image
10
25.640883
20
27.795079
11
25.289152
21
28.654974
0
LINE
8
Image
10
25.289152
20
28.654974
11
24.937420
21
29.514869
0
LINE
8
Image
10
24.937420
20
29.514869
11
16.489540
21
29.514869
0
LINE
8
Image
10
16.489540
20
29.514869
11
8.041659
21
29.514869
0
LINE
8
Image
10
8.041659
20
29.514869
11
7.469773
21
30.318009
0
LINE
8
Image
10
7.469773
20
30.318009
11
7.109556
21
30.999050
0
LINE
8
Image
10
7.109556
20
30.999050
11
7.046578
21
31.508633
0
LINE
8
Image
10
7.046578
20
31.508633
11
7.076309
21
31.782293
0
LINE
8
Image
10
7.076309
20
31.782293
11
6.938990
21
31.896116
0
LINE
8
Image
10
6.938990
20
31.896116
11
6.757993
21
31.585231
0
LINE
8
Image
10
6.757993
20
31.585231
11
6.682711
21
30.837784
0
LINE
8
Image
10
6.682711
20
30.837784
11
6.763326
21
30.083998
0
LINE
8
Image
10
6.763326
20
30.083998
11
6.980367
21
29.845598
0
LINE
8
Image
10
6.980367
20
29.845598
11
7.229815
21
29.784343
0
LINE
8
Image
10
7.229815
20
29.784343
11
7.411566
21
29.544186
0
LINE
8
Image
10
7.411566
20
29.544186
11
7.428204
21
29.325930
0
LINE
8
Image
10
7.428204
20
29.325930
11
7.246202
21
29.361363
0
LINE
8
Image
10
7.246202
20
29.361363
11
6.982929
21
29.438178
0
LINE
8
Image
10
6.982929
20
29.438178
11
6.975907
21
29.223482
0
LINE
8
Image
10
6.975907
20
29.223482
11
7.632271
21
28.212254
0
LINE
8
Image
10
7.632271
20
28.212254
11
8.472141
21
27.398205
0
LINE
8
Image
10
8.472141
20
27.398205
11
8.006606
21
28.058619
0
LINE
8
Image
10
8.006606
20
28.058619
11
8.006606
21
28.058619
0
LINE
8
Image
10
8.391621
20
28.738723
11
8.283338
21
29.013512
0
LINE
8
Image
10
8.283338
20
29.013512
11
8.349976
21
29.136017
0
LINE
8
Image
10
8.349976
20
29.136017
11
8.794068
21
28.859805
0
LINE
8
Image
10
8.794068
20
28.859805
11
8.964777
21
28.563875
0
LINE
8
Image
10
8.964777
20
28.563875
11
8.847387
21
28.456537
0
LINE
8
Image
10
8.847387
20
28.456537
11
8.391621
21
28.738723
0
LINE
8
Image
10
8.391621
20
28.738723
11
8.391621
21
28.738723
0
LINE
8
Image
10
97.699262
20
28.588828
11
98.188378
21
29.250286
0
LINE
8
Image
10
98.188378
20
29.250286
11
97.434679
21
28.588828
0
LINE
8
Image
10
97.434679
20
28.588828
11
96.945563
21
27.927371
0
LINE
8
Image
10
96.945563
20
27.927371
11
97.699262
21
28.588828
0
LINE
8
Image
10
97.699262
20
28.588828
11
97.699262
21
28.588828
0
LINE
8
Image
10
52.224737
20
28.654974
11
52.455570
21
28.985703
0
LINE
8
Image
10
52.455570
20
28.985703
11
52.124841
21
28.754869
0
LINE
8
Image
10
52.124841
20
28.754869
11
51.696344
21
28.343795
0
LINE
8
Image
10
51.696344
20
28.343795
11
51.664608
21
28.231303
0
LINE
8
Image
10
51.664608
20
28.231303
11
51.761716
21
28.191954
0
LINE
8
Image
10
51.761716
20
28.191954
11
52.224737
21
28.654974
0
LINE
8
Image
10
52.224737
20
28.654974
11
52.224737
21
28.654974
0
LINE
8
Image
10
53.283069
20
29.448723
11
53.513902
21
29.779452
0
LINE
8
Image
10
53.513902
20
29.779452
11
53.183173
21
29.548618
0
LINE
8
Image
10
53.183173
20
29.548618
11
52.720152
21
29.085598
0
LINE
8
Image
10
52.720152
20
29.085598
11
52.759502
21
28.988491
0
LINE
8
Image
10
52.759502
20
28.988491
11
52.871994
21
29.020227
0
LINE
8
Image
10
52.871994
20
29.020227
11
53.283069
21
29.448723
0
LINE
8
Image
10
53.283069
20
29.448723
11
53.283069
21
29.448723
0
LINE
8
Image
10
40.742260
20
29.939304
11
40.235142
21
29.960193
0
LINE
8
Image
10
40.235142
20
29.960193
11
40.120334
21
29.853355
0
LINE
8
Image
10
40.120334
20
29.853355
11
40.394995
21
29.800341
0
LINE
8
Image
10
40.394995
20
29.800341
11
40.706189
21
29.832545
0
LINE
8
Image
10
40.706189
20
29.832545
11
40.742260
21
29.939305
0
LINE
8
Image
10
40.742260
20
29.939305
11
40.742260
21
29.939304
0
LINE
8
Image
10
101.337279
20
29.961836
11
100.411238
21
29.961836
0
LINE
8
Image
10
100.411238
20
29.961836
11
100.356255
21
29.876380
0
LINE
8
Image
10
100.356255
20
29.876380
11
100.874258
21
29.840836
0
LINE
8
Image
10
100.874258
20
29.840836
11
101.392262
21
29.876380
0
LINE
8
Image
10
101.392262
20
29.876380
11
101.337279
21
29.961836
0
LINE
8
Image
10
101.337279
20
29.961836
11
101.337279
21
29.961836
0
LINE
8
Image
10
8.777326
20
30.377583
11
8.005626
21
30.972895
0
LINE
8
Image
10
8.005626
20
30.972895
11
7.344168
21
31.499242
0
LINE
8
Image
10
7.344168
20
31.499242
11
7.848196
21
30.903930
0
LINE
8
Image
10
7.848196
20
30.903930
11
8.619896
21
30.308618
0
LINE
8
Image
10
8.619896
20
30.308618
11
8.777326
21
30.377583
0
LINE
8
Image
10
8.777326
20
30.377583
11
8.777326
21
30.377583
0
LINE
8
Image
10
82.353448
20
32.292991
11
81.427408
21
32.671114
0
LINE
8
Image
10
81.427408
20
32.671114
11
81.434849
21
32.560040
0
LINE
8
Image
10
81.434849
20
32.560040
11
81.824282
21
32.292991
0
LINE
8
Image
10
81.824282
20
32.292991
11
82.750323
21
31.914867
0
LINE
8
Image
10
82.750323
20
31.914867
11
82.742882
21
32.025941
0
LINE
8
Image
10
82.742882
20
32.025941
11
82.353448
21
32.292991
0
LINE
8
Image
10
82.353448
20
32.292991
11
82.353448
21
32.292991
0
LINE
8
Image
10
79.046161
20
33.483614
11
78.120120
21
33.711004
0
LINE
8
Image
10
78.120120
20
33.711004
11
77.967378
21
33.651058
0
LINE
8
Image
10
77.967378
20
33.651058
11
78.252412
21
33.483614
0
LINE
8
Image
10
78.252412
20
33.483614
11
79.178452
21
33.256224
0
LINE
8
Image
10
79.178452
20
33.256224
11
79.331195
21
33.316171
0
LINE
8
Image
10
79.331195
20
33.316171
11
79.046161
21
33.483614
0
LINE
8
Image
10
79.046161
20
33.483614
11
79.046161
21
33.483614
0
LINE
8
Image
10
62.438066
20
33.643466
11
61.930948
21
33.664355
0
LINE
8
Image
10
61.930948
20
33.664355
11
61.816140
21
33.557517
0
LINE
8
Image
10
61.816140
20
33.557517
11
62.090801
21
33.504503
0
LINE
8
Image
10
62.090801
20
33.504503
11
62.401995
21
33.536708
0
LINE
8
Image
10
62.401995
20
33.536708
11
62.438066
21
33.643467
0
LINE
8
Image
10
62.438066
20
33.643467
11
62.438066
21
33.643466
0
LINE
8
Image
10
63.496398
20
33.908049
11
62.989280
21
33.928938
0
LINE
8
Image
10
62.989280
20
33.928938
11
62.874472
21
33.822100
0
LINE
8
Image
10
62.874472
20
33.822100
11
63.149133
21
33.769086
0
LINE
8
Image
10
63.149133
20
33.769086
11
63.460327
21
33.801291
0
LINE
8
Image
10
63.460327
20
33.801291
11
63.496398
21
33.908050
0
LINE
8
Image
10
63.496398
20
33.908050
11
63.496398
21
33.908049
0
LINE
8
Image
10
77.519297
20
33.908049
11
77.012179
21
33.928938
0
LINE
8
Image
10
77.012179
20
33.928938
11
76.897371
21
33.822100
0
LINE
8
Image
10
76.897371
20
33.822100
11
77.172032
21
33.769086
0
LINE
8
Image
10
77.172032
20
33.769086
11
77.483226
21
33.801291
0
LINE
8
Image
10
77.483226
20
33.801291
11
77.519297
21
33.908050
0
LINE
8
Image
10
77.519297
20
33.908050
11
77.519297
21
33.908049
0
LINE
8
Image
10
64.819313
20
34.172632
11
64.312195
21
34.193521
0
LINE
8
Image
10
64.312195
20
34.193521
11
64.197387
21
34.086683
0
LINE
8
Image
10
64.197387
20
34.086683
11
64.472048
21
34.033669
0
LINE
8
Image
10
64.472048
20
34.033669
11
64.783242
21
34.065874
0
LINE
8
Image
10
64.783242
20
34.065874
11
64.819313
21
34.172633
0
LINE
8
Image
10
64.819313
20
34.172633
11
64.819313
21
34.172632
0
LINE
8
Image
10
76.196382
20
34.172632
11
75.689264
21
34.193521
0
LINE
8
Image
10
75.689264
20
34.193521
11
75.574456
21
34.086683
0
LINE
8
Image
10
75.574456
20
34.086683
11
75.849117
21
34.033669
0
LINE
8
Image
10
75.849117
20
34.033669
11
76.160311
21
34.065874
0
LINE
8
Image
10
76.160311
20
34.065874
11
76.196382
21
34.172633
0
LINE
8
Image
10
76.196382
20
34.172633
11
76.196382
21
34.172632
0
LINE
8
Image
10
66.944574
20
34.459153
11
65.886242
21
34.464492
0
LINE
8
Image
10
65.886242
20
34.464492
11
65.774509
21
34.381658
0
LINE
8
Image
10
65.774509
20
34.381658
11
66.346177
21
34.344086
0
LINE
8
Image
10
66.346177
20
34.344086
11
66.958518
21
34.375684
0
LINE
8
Image
10
66.958518
20
34.375684
11
67.039649
21
34.412823
0
LINE
8
Image
10
67.039649
20
34.412823
11
66.944574
21
34.459153
0
LINE
8
Image
10
66.944574
20
34.459153
11
66.944574
21
34.459153
0
LINE
8
Image
10
74.217521
20
34.464087
11
73.026898
21
34.464087
0
LINE
8
Image
10
73.026898
20
34.464087
11
72.889697
21
34.419566
0
LINE
8
Image
10
72.889697
20
34.419566
11
72.956204
21
34.383107
0
LINE
8
Image
10
72.956204
20
34.383107
11
73.622209
21
34.349425
0
LINE
8
Image
10
73.622209
20
34.349425
11
74.288214
21
34.383107
0
LINE
8
Image
10
74.288214
20
34.383107
11
74.354722
21
34.419566
0
LINE
8
Image
10
74.354722
20
34.419566
11
74.217521
21
34.464087
0
LINE
8
Image
10
74.217521
20
34.464087
11
74.217521
21
34.464087
 0 
ENDSEC
 0 
EOF