999
"DXF R12 Output" (www.mydxf.blogspot.com)
 0 
SECTION
 2 
HEADER
 9 
$ACADVER
 1 
AC1009
 9 
$EXTMIN
 10 
 0 
 20 
 0 
 9 
$EXTMAX
 10 
 8.5 
 20 
 11 
 0 
ENDSEC
 0 
SECTION
 2 
ENTITIES
0
LINE
8
Image
10
47.422328
20
-0.926796
11
44.551297
21
-0.648034
0
LINE
8
Image
10
44.551297
20
-0.648034
11
41.708630
21
-0.198497
0
LINE
8
Image
10
41.708630
20
-0.198497
11
38.901172
21
0.417798
0
LINE
8
Image
10
38.901172
20
0.417798
11
36.135766
21
1.196836
0
LINE
8
Image
10
36.135766
20
1.196836
11
33.419258
21
2.134602
0
LINE
8
Image
10
33.419258
20
2.134602
11
30.758491
21
3.227081
0
LINE
8
Image
10
30.758491
20
3.227081
11
28.160310
21
4.470256
0
LINE
8
Image
10
28.160310
20
4.470256
11
25.631559
21
5.860113
0
LINE
8
Image
10
25.631559
20
5.860113
11
23.179084
21
7.392635
0
LINE
8
Image
10
23.179084
20
7.392635
11
20.809727
21
9.063808
0
LINE
8
Image
10
20.809727
20
9.063808
11
18.530335
21
10.869616
0
LINE
8
Image
10
18.530335
20
10.869616
11
16.347750
21
12.806043
0
LINE
8
Image
10
16.347750
20
12.806043
11
14.268818
21
14.869074
0
LINE
8
Image
10
14.268818
20
14.869074
11
12.300383
21
17.054694
0
LINE
8
Image
10
12.300383
20
17.054694
11
10.449290
21
19.358887
0
LINE
8
Image
10
10.449290
20
19.358887
11
8.722382
21
21.777637
0
LINE
8
Image
10
8.722382
20
21.777637
11
6.443525
21
25.627257
0
LINE
8
Image
10
6.443525
20
25.627257
11
4.387773
21
29.995907
0
LINE
8
Image
10
4.387773
20
29.995907
11
2.662634
21
34.627666
0
LINE
8
Image
10
2.662634
20
34.627666
11
1.375613
21
39.266616
0
LINE
8
Image
10
1.375613
20
39.266616
11
0.891534
21
42.832807
0
LINE
8
Image
10
0.891534
20
42.832807
11
0.604198
21
48.105760
0
LINE
8
Image
10
0.604198
20
48.105760
11
0.595748
21
53.197505
0
LINE
8
Image
10
0.595748
20
53.197505
11
0.943662
21
57.495469
0
LINE
8
Image
10
0.943662
20
57.495469
11
1.720666
21
61.538924
0
LINE
8
Image
10
1.720666
20
61.538924
11
2.999486
21
65.867140
0
LINE
8
Image
10
2.999486
20
65.867140
11
4.525398
21
69.891632
0
LINE
8
Image
10
4.525398
20
69.891632
11
6.345637
21
73.716952
0
LINE
8
Image
10
6.345637
20
73.716952
11
8.456793
21
77.338666
0
LINE
8
Image
10
8.456793
20
77.338666
11
10.855461
21
80.752337
0
LINE
8
Image
10
10.855461
20
80.752337
11
13.538231
21
83.953529
0
LINE
8
Image
10
13.538231
20
83.953529
11
16.501697
21
86.937806
0
LINE
8
Image
10
16.501697
20
86.937806
11
19.742449
21
89.700731
0
LINE
8
Image
10
19.742449
20
89.700731
11
23.257081
21
92.237869
0
LINE
8
Image
10
23.257081
20
92.237869
11
26.299486
21
94.128277
0
LINE
8
Image
10
26.299486
20
94.128277
11
29.345183
21
95.757106
0
LINE
8
Image
10
29.345183
20
95.757106
11
32.420918
21
97.132893
0
LINE
8
Image
10
32.420918
20
97.132893
11
35.553436
21
98.264175
0
LINE
8
Image
10
35.553436
20
98.264175
11
38.769479
21
99.159489
0
LINE
8
Image
10
38.769479
20
99.159489
11
42.095794
21
99.827374
0
LINE
8
Image
10
42.095794
20
99.827374
11
45.559125
21
100.276367
0
LINE
8
Image
10
45.559125
20
100.276367
11
49.186215
21
100.515005
0
LINE
8
Image
10
49.186215
20
100.515005
11
55.073035
21
100.468935
0
LINE
8
Image
10
55.073035
20
100.468935
11
57.835428
21
100.234030
0
LINE
8
Image
10
57.835428
20
100.234030
11
60.514501
21
99.851412
0
LINE
8
Image
10
60.514501
20
99.851412
11
63.138270
21
99.316231
0
LINE
8
Image
10
63.138270
20
99.316231
11
65.734753
21
98.623640
0
LINE
8
Image
10
65.734753
20
98.623640
11
70.957933
21
96.746827
0
LINE
8
Image
10
70.957933
20
96.746827
11
75.400529
21
94.648369
0
LINE
8
Image
10
75.400529
20
94.648369
11
79.484076
21
92.186744
0
LINE
8
Image
10
79.484076
20
92.186744
11
83.375413
21
89.248995
0
LINE
8
Image
10
83.375413
20
89.248995
11
87.241379
21
85.722163
0
LINE
8
Image
10
87.241379
20
85.722163
11
89.665000
21
83.162927
0
LINE
8
Image
10
89.665000
20
83.162927
11
91.877799
21
80.477023
0
LINE
8
Image
10
91.877799
20
80.477023
11
93.883051
21
77.658615
0
LINE
8
Image
10
93.883051
20
77.658615
11
95.684034
21
74.701867
0
LINE
8
Image
10
95.684034
20
74.701867
11
97.284022
21
71.600944
0
LINE
8
Image
10
97.284022
20
71.600944
11
98.686293
21
68.350011
0
LINE
8
Image
10
98.686293
20
68.350011
11
99.894123
21
64.943232
0
LINE
8
Image
10
99.894123
20
64.943232
11
100.910787
21
61.374772
0
LINE
8
Image
10
100.910787
20
61.374772
11
101.669164
21
56.969856
0
LINE
8
Image
10
101.669164
20
56.969856
11
102.053411
21
51.692072
0
LINE
8
Image
10
102.053411
20
51.692072
11
102.036536
21
46.323605
0
LINE
8
Image
10
102.036536
20
46.323605
11
101.591548
21
41.646641
0
LINE
8
Image
10
101.591548
20
41.646641
11
100.899852
21
38.190516
0
LINE
8
Image
10
100.899852
20
38.190516
11
99.977034
21
34.816379
0
LINE
8
Image
10
99.977034
20
34.816379
11
98.831245
21
31.533779
0
LINE
8
Image
10
98.831245
20
31.533779
11
97.470635
21
28.352265
0
LINE
8
Image
10
97.470635
20
28.352265
11
95.903356
21
25.281386
0
LINE
8
Image
10
95.903356
20
25.281386
11
94.137559
21
22.330692
0
LINE
8
Image
10
94.137559
20
22.330692
11
92.181393
21
19.509733
0
LINE
8
Image
10
92.181393
20
19.509733
11
90.043011
21
16.828057
0
LINE
8
Image
10
90.043011
20
16.828057
11
87.730563
21
14.295214
0
LINE
8
Image
10
87.730563
20
14.295214
11
85.252199
21
11.920754
0
LINE
8
Image
10
85.252199
20
11.920754
11
82.616071
21
9.714225
0
LINE
8
Image
10
82.616071
20
9.714225
11
79.830330
21
7.685178
0
LINE
8
Image
10
79.830330
20
7.685178
11
76.903126
21
5.843161
0
LINE
8
Image
10
76.903126
20
5.843161
11
73.842610
21
4.197725
0
LINE
8
Image
10
73.842610
20
4.197725
11
70.656933
21
2.758417
0
LINE
8
Image
10
70.656933
20
2.758417
11
67.354246
21
1.534789
0
LINE
8
Image
10
67.354246
20
1.534789
11
62.474815
21
0.162921
0
LINE
8
Image
10
62.474815
20
0.162921
11
57.617723
21
-0.693348
0
LINE
8
Image
10
57.617723
20
-0.693348
11
52.645913
21
-1.050945
0
LINE
8
Image
10
52.645913
20
-1.050945
11
47.422328
21
-0.926796
0
LINE
8
Image
10
47.422328
20
-0.926796
11
47.422328
21
-0.926796
0
LINE
8
Image
10
50.723673
20
3.874187
11
50.946219
21
6.696406
0
LINE
8
Image
10
50.946219
20
6.696406
11
50.821408
21
7.913549
0
LINE
8
Image
10
50.821408
20
7.913549
11
50.614754
21
8.136753
0
LINE
8
Image
10
50.614754
20
8.136753
11
50.270151
21
8.195711
0
LINE
8
Image
10
50.270151
20
8.195711
11
49.586152
21
7.936640
0
LINE
8
Image
10
49.586152
20
7.936640
11
48.896465
21
7.313766
0
LINE
8
Image
10
48.896465
20
7.313766
11
48.326452
21
6.682323
0
LINE
8
Image
10
48.326452
20
6.682323
11
47.887199
21
6.495291
0
LINE
8
Image
10
47.887199
20
6.495291
11
47.477903
21
6.762151
0
LINE
8
Image
10
47.477903
20
6.762151
11
46.997765
21
7.492386
0
LINE
8
Image
10
46.997765
20
7.492386
11
46.363512
21
8.257869
0
LINE
8
Image
10
46.363512
20
8.257869
11
45.674850
21
8.548487
0
LINE
8
Image
10
45.674850
20
8.548487
11
45.296809
21
8.490375
0
LINE
8
Image
10
45.296809
20
8.490375
11
45.078105
21
8.250205
0
LINE
8
Image
10
45.078105
20
8.250205
11
44.952887
21
6.828698
0
LINE
8
Image
10
44.952887
20
6.828698
11
44.732402
21
4.006478
0
LINE
8
Image
10
44.732402
20
4.006478
11
44.679249
21
3.100480
0
LINE
8
Image
10
44.679249
20
3.100480
11
44.865929
21
2.943261
0
LINE
8
Image
10
44.865929
20
2.943261
11
45.230559
21
2.904051
0
LINE
8
Image
10
45.230559
20
2.904051
11
45.593058
21
2.969827
0
LINE
8
Image
10
45.593058
20
2.969827
11
45.852468
21
3.200330
0
LINE
8
Image
10
45.852468
20
3.200330
11
46.194263
21
4.354550
0
LINE
8
Image
10
46.194263
20
4.354550
11
46.439322
21
5.805053
0
LINE
8
Image
10
46.439322
20
5.805053
11
47.037105
21
4.893784
0
LINE
8
Image
10
47.037105
20
4.893784
11
47.634888
21
3.982518
0
LINE
8
Image
10
47.634888
20
3.982518
11
48.612708
21
4.942589
0
LINE
8
Image
10
48.612708
20
4.942589
11
49.590527
21
5.902657
0
LINE
8
Image
10
49.590527
20
5.902657
11
49.348315
21
4.226966
0
LINE
8
Image
10
49.348315
20
4.226966
11
49.257237
21
2.820215
0
LINE
8
Image
10
49.257237
20
2.820215
11
49.436125
21
2.599760
0
LINE
8
Image
10
49.436125
20
2.599760
11
49.805556
21
2.551272
0
LINE
8
Image
10
49.805556
20
2.551272
11
50.150891
21
2.615896
0
LINE
8
Image
10
50.150891
20
2.615896
11
50.402312
21
2.833845
0
LINE
8
Image
10
50.402312
20
2.833845
11
50.723673
21
3.874187
0
LINE
8
Image
10
50.723673
20
3.874187
11
50.723673
21
3.874187
0
LINE
8
Image
10
55.472017
20
3.433217
11
55.865537
21
4.043948
0
LINE
8
Image
10
55.865537
20
4.043948
11
56.303310
21
4.278496
0
LINE
8
Image
10
56.303310
20
4.278496
11
56.761988
21
4.134501
0
LINE
8
Image
10
56.761988
20
4.134501
11
57.218225
21
3.609604
0
LINE
8
Image
10
57.218225
20
3.609604
11
57.677864
21
3.111307
0
LINE
8
Image
10
57.677864
20
3.111307
11
58.164207
21
2.904051
0
LINE
8
Image
10
58.164207
20
2.904051
11
58.723134
21
3.045599
0
LINE
8
Image
10
58.723134
20
3.045599
11
58.883606
21
3.441813
0
LINE
8
Image
10
58.883606
20
3.441813
11
58.648780
21
4.050045
0
LINE
8
Image
10
58.648780
20
4.050045
11
58.021814
21
4.827649
0
LINE
8
Image
10
58.021814
20
4.827649
11
56.900328
21
5.984726
0
LINE
8
Image
10
56.900328
20
5.984726
11
57.628059
21
7.178413
0
LINE
8
Image
10
57.628059
20
7.178413
11
58.139241
21
8.075736
0
LINE
8
Image
10
58.139241
20
8.075736
11
58.311872
21
8.598174
0
LINE
8
Image
10
58.311872
20
8.598174
11
58.146908
21
8.841444
0
LINE
8
Image
10
58.146908
20
8.841444
11
57.645309
21
8.901264
0
LINE
8
Image
10
57.645309
20
8.901264
11
57.019358
21
8.654299
0
LINE
8
Image
10
57.019358
20
8.654299
11
56.530351
21
8.019321
0
LINE
8
Image
10
56.530351
20
8.019321
11
56.184204
21
7.410595
0
LINE
8
Image
10
56.184204
20
7.410595
11
55.852566
21
7.180988
0
LINE
8
Image
10
55.852566
20
7.180988
11
55.502623
21
7.326451
0
LINE
8
Image
10
55.502623
20
7.326451
11
55.101563
21
7.842932
0
LINE
8
Image
10
55.101563
20
7.842932
11
54.611603
21
8.268830
0
LINE
8
Image
10
54.611603
20
8.268830
11
53.931257
21
8.527111
0
LINE
8
Image
10
53.931257
20
8.527111
11
53.327365
21
8.557745
0
LINE
8
Image
10
53.327365
20
8.557745
11
53.066769
21
8.300700
0
LINE
8
Image
10
53.066769
20
8.300700
11
54.172946
21
6.911623
0
LINE
8
Image
10
54.172946
20
6.911623
11
55.279125
21
5.770337
0
LINE
8
Image
10
55.279125
20
5.770337
11
54.525725
21
4.493417
0
LINE
8
Image
10
54.525725
20
4.493417
11
54.002368
21
3.530407
0
LINE
8
Image
10
54.002368
20
3.530407
11
53.813213
21
2.936078
0
LINE
8
Image
10
53.813213
20
2.936078
11
53.954196
21
2.634882
0
LINE
8
Image
10
53.954196
20
2.634882
11
54.421252
21
2.551272
0
LINE
8
Image
10
54.421252
20
2.551272
11
54.997598
21
2.810343
0
LINE
8
Image
10
54.997598
20
2.810343
11
55.472019
21
3.433217
0
LINE
8
Image
10
55.472019
20
3.433217
11
55.472017
21
3.433217
0
LINE
8
Image
10
41.837242
20
5.907370
11
42.455216
21
8.636681
0
LINE
8
Image
10
42.455216
20
8.636681
11
42.315383
21
9.095565
0
LINE
8
Image
10
42.315383
20
9.095565
11
41.875230
21
9.225257
0
LINE
8
Image
10
41.875230
20
9.225257
11
41.189449
21
9.028991
0
LINE
8
Image
10
41.189449
20
9.028991
11
40.312734
21
8.510001
0
LINE
8
Image
10
40.312734
20
8.510001
11
39.620034
21
8.035766
0
LINE
8
Image
10
39.620034
20
8.035766
11
39.214811
21
7.956916
0
LINE
8
Image
10
39.214811
20
7.956916
11
38.900761
21
8.362668
0
LINE
8
Image
10
38.900761
20
8.362668
11
38.481584
21
9.342236
0
LINE
8
Image
10
38.481584
20
9.342236
11
37.780184
21
10.531557
0
LINE
8
Image
10
37.780184
20
10.531557
11
37.448961
21
10.650160
0
LINE
8
Image
10
37.448961
20
10.650160
11
37.117817
21
10.436595
0
LINE
8
Image
10
37.117817
20
10.436595
11
36.417044
21
8.968561
0
LINE
8
Image
10
36.417044
20
8.968561
11
35.600431
21
6.038666
0
LINE
8
Image
10
35.600431
20
6.038666
11
35.556336
21
5.277580
0
LINE
8
Image
10
35.556336
20
5.277580
11
35.941553
21
4.899094
0
LINE
8
Image
10
35.941553
20
4.899094
11
36.294972
21
4.842157
0
LINE
8
Image
10
36.294972
20
4.842157
11
36.591647
21
5.077626
0
LINE
8
Image
10
36.591647
20
5.077626
11
37.391004
21
6.960989
0
LINE
8
Image
10
37.391004
20
6.960989
11
37.665000
21
7.408256
0
LINE
8
Image
10
37.665000
20
7.408256
11
38.016971
21
6.696406
0
LINE
8
Image
10
38.016971
20
6.696406
11
38.338013
21
6.045432
0
LINE
8
Image
10
38.338013
20
6.045432
11
38.695790
21
5.777244
0
LINE
8
Image
10
38.695790
20
5.777244
11
39.148950
21
5.879868
0
LINE
8
Image
10
39.148950
20
5.879868
11
39.756141
21
6.341331
0
LINE
8
Image
10
39.756141
20
6.341331
11
40.137905
21
6.659160
0
LINE
8
Image
10
40.137905
20
6.659160
11
40.311033
21
6.646720
0
LINE
8
Image
10
40.311033
20
6.646720
11
40.179648
21
5.248418
0
LINE
8
Image
10
40.179648
20
5.248418
11
40.070006
21
3.833289
0
LINE
8
Image
10
40.070006
20
3.833289
11
40.235848
21
3.647998
0
LINE
8
Image
10
40.235848
20
3.647998
11
40.585511
21
3.667931
0
LINE
8
Image
10
40.585511
20
3.667931
11
40.921022
21
3.844515
0
LINE
8
Image
10
40.921022
20
3.844515
11
41.230684
21
4.257297
0
LINE
8
Image
10
41.230684
20
4.257297
11
41.837242
21
5.907370
0
LINE
8
Image
10
41.837242
20
5.907370
11
41.837242
21
5.907370
0
LINE
8
Image
10
62.944531
20
4.315159
11
63.442828
21
4.977536
0
LINE
8
Image
10
63.442828
20
4.977536
11
63.650084
21
5.579279
0
LINE
8
Image
10
63.650084
20
5.579279
11
63.727805
21
5.935897
0
LINE
8
Image
10
63.727805
20
5.935897
11
63.914667
21
6.008930
0
LINE
8
Image
10
63.914667
20
6.008930
11
65.126891
21
5.403990
0
LINE
8
Image
10
65.126891
20
5.403990
11
65.974534
21
5.136243
0
LINE
8
Image
10
65.974534
20
5.136243
11
66.681755
21
5.160976
0
LINE
8
Image
10
66.681755
20
5.160976
11
66.927138
21
5.322092
0
LINE
8
Image
10
66.927138
20
5.322092
11
66.890568
21
5.556433
0
LINE
8
Image
10
66.890568
20
5.556433
11
65.822308
21
6.472590
0
LINE
8
Image
10
65.822308
20
6.472590
11
64.355637
21
7.652710
0
LINE
8
Image
10
64.355637
20
7.652710
11
64.877474
21
9.233265
0
LINE
8
Image
10
64.877474
20
9.233265
11
65.228968
21
10.502855
0
LINE
8
Image
10
65.228968
20
10.502855
11
65.058399
21
10.637507
0
LINE
8
Image
10
65.058399
20
10.637507
11
64.627353
21
10.600532
0
LINE
8
Image
10
64.627353
20
10.600532
11
64.008582
21
10.289291
0
LINE
8
Image
10
64.008582
20
10.289291
11
63.654815
21
9.632973
0
LINE
8
Image
10
63.654815
20
9.632973
11
63.414322
21
8.998544
0
LINE
8
Image
10
63.414322
20
8.998544
11
63.081815
21
8.685299
0
LINE
8
Image
10
63.081815
20
8.685299
11
62.684287
21
8.704123
0
LINE
8
Image
10
62.684287
20
8.704123
11
62.248728
21
9.065903
0
LINE
8
Image
10
62.248728
20
9.065903
11
61.784411
21
9.420576
0
LINE
8
Image
10
61.784411
20
9.420576
11
61.217705
21
9.588064
0
LINE
8
Image
10
61.217705
20
9.588064
11
60.685489
21
9.551998
0
LINE
8
Image
10
60.685489
20
9.551998
11
60.324638
21
9.296008
0
LINE
8
Image
10
60.324638
20
9.296008
11
60.549461
21
8.831008
0
LINE
8
Image
10
60.549461
20
8.831008
11
61.359740
21
8.149483
0
LINE
8
Image
10
61.359740
20
8.149483
11
62.165651
21
7.580313
0
LINE
8
Image
10
62.165651
20
7.580313
11
62.501158
21
7.126477
0
LINE
8
Image
10
62.501158
20
7.126477
11
62.441668
21
6.490146
0
LINE
8
Image
10
62.441668
20
6.490146
11
62.062589
21
5.373491
0
LINE
8
Image
10
62.062589
20
5.373491
11
61.533423
21
3.741639
0
LINE
8
Image
10
61.533423
20
3.741639
11
61.666339
21
3.587748
0
LINE
8
Image
10
61.666339
20
3.587748
11
62.005459
21
3.656273
0
LINE
8
Image
10
62.005459
20
3.656273
11
62.944531
21
4.315159
0
LINE
8
Image
10
62.944531
20
4.315159
11
62.944531
21
4.315159
0
LINE
8
Image
10
26.094826
20
14.355790
11
27.137633
21
14.789775
0
LINE
8
Image
10
27.137633
20
14.789775
11
25.991105
21
15.048545
0
LINE
8
Image
10
25.991105
20
15.048545
11
25.143094
21
15.393790
0
LINE
8
Image
10
25.143094
20
15.393790
11
24.839177
21
15.896648
0
LINE
8
Image
10
24.839177
20
15.896648
11
24.496958
21
17.015143
0
LINE
8
Image
10
24.496958
20
17.015143
11
24.322185
21
17.221133
0
LINE
8
Image
10
24.322185
20
17.221133
11
24.182191
21
17.201839
0
LINE
8
Image
10
24.182191
20
17.201839
11
23.930699
21
16.405795
0
LINE
8
Image
10
23.930699
20
16.405795
11
23.765465
21
15.811297
0
LINE
8
Image
10
23.765465
20
15.811297
11
23.510333
21
15.430393
0
LINE
8
Image
10
23.510333
20
15.430393
11
23.087918
21
15.192401
0
LINE
8
Image
10
23.087918
20
15.192401
11
22.420838
21
15.026635
0
LINE
8
Image
10
22.420838
20
15.026635
11
21.140417
21
14.785987
0
LINE
8
Image
10
21.140417
20
14.785987
11
22.370515
21
14.371343
0
LINE
8
Image
10
22.370515
20
14.371343
11
23.409931
21
13.794799
0
LINE
8
Image
10
23.409931
20
13.794799
11
23.716048
21
13.365238
0
LINE
8
Image
10
23.716048
20
13.365238
11
23.937126
21
12.783345
0
LINE
8
Image
10
23.937126
20
12.783345
11
24.273640
21
11.609988
0
LINE
8
Image
10
24.273640
20
11.609988
11
24.662831
21
12.765895
0
LINE
8
Image
10
24.662831
20
12.765895
11
25.220087
21
13.736175
0
LINE
8
Image
10
25.220087
20
13.736175
11
26.094826
21
14.355790
0
LINE
8
Image
10
26.094826
20
14.355790
11
26.094826
21
14.355790
0
LINE
8
Image
10
54.477875
20
13.167725
11
58.487903
21
15.664806
0
LINE
8
Image
10
58.487903
20
15.664806
11
62.177627
21
18.616352
0
LINE
8
Image
10
62.177627
20
18.616352
11
65.515517
21
21.977752
0
LINE
8
Image
10
65.515517
20
21.977752
11
68.470046
21
25.704394
0
LINE
8
Image
10
68.470046
20
25.704394
11
71.009683
21
29.751667
0
LINE
8
Image
10
71.009683
20
29.751667
11
73.102900
21
34.074959
0
LINE
8
Image
10
73.102900
20
34.074959
11
74.718168
21
38.629659
0
LINE
8
Image
10
74.718168
20
38.629659
11
75.823958
21
43.371156
0
LINE
8
Image
10
75.823958
20
43.371156
11
76.081390
21
45.587232
0
LINE
8
Image
10
76.081390
20
45.587232
11
76.242770
21
49.108906
0
LINE
8
Image
10
76.242770
20
49.108906
11
76.350068
21
62.746018
0
LINE
8
Image
10
76.350068
20
62.746018
11
76.350068
21
79.103952
0
LINE
8
Image
10
76.350068
20
79.103952
11
51.302879
21
79.103952
0
LINE
8
Image
10
51.302879
20
79.103952
11
26.255688
21
79.103952
0
LINE
8
Image
10
26.255688
20
79.103952
11
26.255688
21
62.746018
0
LINE
8
Image
10
26.255688
20
62.746018
11
26.363677
21
49.041256
0
LINE
8
Image
10
26.363677
20
49.041256
11
26.528565
21
45.519270
0
LINE
8
Image
10
26.528565
20
45.519270
11
26.793963
21
43.255070
0
LINE
8
Image
10
26.793963
20
43.255070
11
27.893614
21
38.516369
0
LINE
8
Image
10
27.893614
20
38.516369
11
29.517142
21
33.967488
0
LINE
8
Image
10
29.517142
20
33.967488
11
31.635927
21
29.648178
0
LINE
8
Image
10
31.635927
20
29.648178
11
34.221350
21
25.598193
0
LINE
8
Image
10
34.221350
20
25.598193
11
37.244794
21
21.857285
0
LINE
8
Image
10
37.244794
20
21.857285
11
40.677637
21
18.465208
0
LINE
8
Image
10
40.677637
20
18.465208
11
44.491262
21
15.461713
0
LINE
8
Image
10
44.491262
20
15.461713
11
48.657049
21
12.886553
0
LINE
8
Image
10
48.657049
20
12.886553
11
50.307386
21
12.075557
0
LINE
8
Image
10
50.307386
20
12.075557
11
51.302879
21
11.736458
0
LINE
8
Image
10
51.302879
20
11.736458
11
52.453815
21
12.155668
0
LINE
8
Image
10
52.453815
20
12.155668
11
54.477875
21
13.167725
0
LINE
8
Image
10
54.477875
20
13.167725
11
54.477875
21
13.167725
0
LINE
8
Image
10
47.909904
20
14.464685
11
44.638501
21
16.610166
0
LINE
8
Image
10
44.638501
20
16.610166
11
41.639829
21
18.950247
0
LINE
8
Image
10
41.639829
20
18.950247
11
38.914140
21
21.484617
0
LINE
8
Image
10
38.914140
20
21.484617
11
36.461689
21
24.212969
0
LINE
8
Image
10
36.461689
20
24.212969
11
34.282728
21
27.134992
0
LINE
8
Image
10
34.282728
20
27.134992
11
32.377511
21
30.250379
0
LINE
8
Image
10
32.377511
20
30.250379
11
30.746291
21
33.558821
0
LINE
8
Image
10
30.746291
20
33.558821
11
29.389321
21
37.060007
0
LINE
8
Image
10
29.389321
20
37.060007
11
28.250917
21
40.900414
0
LINE
8
Image
10
28.250917
20
40.900414
11
27.884625
21
42.847359
0
LINE
8
Image
10
27.884625
20
42.847359
11
27.628002
21
45.121436
0
LINE
8
Image
10
27.628002
20
45.121436
11
27.366951
21
51.578907
0
LINE
8
Image
10
27.366951
20
51.578907
11
27.314136
21
62.128659
0
LINE
8
Image
10
27.314136
20
62.128659
11
27.314250
21
78.222010
0
LINE
8
Image
10
27.314250
20
78.222010
11
51.214799
21
78.166458
0
LINE
8
Image
10
51.214799
20
78.166458
11
75.115347
21
78.110906
0
LINE
8
Image
10
75.115347
20
78.110906
11
75.207771
21
62.115091
0
LINE
8
Image
10
75.207771
20
62.115091
11
75.219410
21
51.778751
0
LINE
8
Image
10
75.219410
20
51.778751
11
75.003835
21
45.498456
0
LINE
8
Image
10
75.003835
20
45.498456
11
74.763901
21
43.272942
0
LINE
8
Image
10
74.763901
20
43.272942
11
74.410833
21
41.333778
0
LINE
8
Image
10
74.410833
20
41.333778
11
73.290189
21
37.344291
0
LINE
8
Image
10
73.290189
20
37.344291
11
71.988838
21
33.846106
0
LINE
8
Image
10
71.988838
20
33.846106
11
70.337570
21
30.461831
0
LINE
8
Image
10
70.337570
20
30.461831
11
68.361819
21
27.222673
0
LINE
8
Image
10
68.361819
20
27.222673
11
66.087019
21
24.159840
0
LINE
8
Image
10
66.087019
20
24.159840
11
63.538603
21
21.304539
0
LINE
8
Image
10
63.538603
20
21.304539
11
60.742005
21
18.687976
0
LINE
8
Image
10
60.742005
20
18.687976
11
57.722658
21
16.341359
0
LINE
8
Image
10
57.722658
20
16.341359
11
54.505995
21
14.295894
0
LINE
8
Image
10
54.505995
20
14.295894
11
52.462265
21
13.226576
0
LINE
8
Image
10
52.462265
20
13.226576
11
51.279535
21
12.781815
0
LINE
8
Image
10
51.279535
20
12.781815
11
50.054749
21
13.276159
0
LINE
8
Image
10
50.054749
20
13.276159
11
47.909904
21
14.464685
0
LINE
8
Image
10
47.909904
20
14.464685
11
47.909904
21
14.464685
0
LINE
8
Image
10
45.658443
20
30.420683
11
45.790665
21
37.829007
0
LINE
8
Image
10
45.790665
20
37.829007
11
48.258230
21
35.516536
0
LINE
8
Image
10
48.258230
20
35.516536
11
50.593569
21
33.204064
0
LINE
8
Image
10
50.593569
20
33.204064
11
49.346224
21
31.919712
0
LINE
8
Image
10
49.346224
20
31.919712
11
48.098877
21
30.635360
0
LINE
8
Image
10
48.098877
20
30.635360
11
49.700879
21
29.033360
0
LINE
8
Image
10
49.700879
20
29.033360
11
51.302879
21
27.431358
0
LINE
8
Image
10
51.302879
20
27.431358
11
52.976523
21
29.105002
0
LINE
8
Image
10
52.976523
20
29.105002
11
54.650166
21
30.778645
0
LINE
8
Image
10
54.650166
20
30.778645
11
53.304966
21
31.975410
0
LINE
8
Image
10
53.304966
20
31.975410
11
51.959765
21
33.172174
0
LINE
8
Image
10
51.959765
20
33.172174
11
54.365345
21
35.508241
0
LINE
8
Image
10
54.365345
20
35.508241
11
56.770929
21
37.844308
0
LINE
8
Image
10
56.770929
20
37.844308
11
56.866192
21
30.410142
0
LINE
8
Image
10
56.866192
20
30.410142
11
56.961455
21
22.975976
0
LINE
8
Image
10
56.961455
20
22.975976
11
58.778738
21
23.082362
0
LINE
8
Image
10
58.778738
20
23.082362
11
60.136899
21
23.292390
0
LINE
8
Image
10
60.136899
20
23.292390
11
60.767596
21
23.625950
0
LINE
8
Image
10
60.767596
20
23.625950
11
60.778860
21
23.792729
0
LINE
8
Image
10
60.778860
20
23.792729
11
60.570718
21
23.934798
0
LINE
8
Image
10
60.570718
20
23.934798
11
59.446157
21
24.070691
0
LINE
8
Image
10
59.446157
20
24.070691
11
58.005648
21
24.070691
0
LINE
8
Image
10
58.005648
20
24.070691
11
58.005648
21
31.655793
0
LINE
8
Image
10
58.005648
20
31.655793
11
58.005648
21
39.240898
0
LINE
8
Image
10
58.005648
20
39.240898
11
59.416759
21
40.610335
0
LINE
8
Image
10
59.416759
20
40.610335
11
60.206439
21
41.424666
0
LINE
8
Image
10
60.206439
20
41.424666
11
60.628263
21
42.097416
0
LINE
8
Image
10
60.628263
20
42.097416
11
60.797113
21
42.919270
0
LINE
8
Image
10
60.797113
20
42.919270
11
60.827867
21
44.180912
0
LINE
8
Image
10
60.827867
20
44.180912
11
60.736066
21
45.924009
0
LINE
8
Image
10
60.736066
20
45.924009
11
60.575763
21
46.098416
0
LINE
8
Image
10
60.575763
20
46.098416
11
60.298701
21
45.942884
0
LINE
8
Image
10
60.298701
20
45.942884
11
59.911404
21
45.194880
0
LINE
8
Image
10
59.911404
20
45.194880
11
59.769535
21
43.912598
0
LINE
8
Image
10
59.769535
20
43.912598
11
59.598976
21
42.514639
0
LINE
8
Image
10
59.598976
20
42.514639
11
59.354415
21
42.037958
0
LINE
8
Image
10
59.354415
20
42.037958
11
58.975786
21
41.629281
0
LINE
8
Image
10
58.975786
20
41.629281
11
58.182037
21
40.937082
0
LINE
8
Image
10
58.182037
20
40.937082
11
58.069894
21
42.050291
0
LINE
8
Image
10
58.069894
20
42.050291
11
57.849610
21
42.912038
0
LINE
8
Image
10
57.849610
20
42.912038
11
57.692840
21
43.042320
0
LINE
8
Image
10
57.692840
20
43.042320
11
57.523996
21
42.988128
0
LINE
8
Image
10
57.523996
20
42.988128
11
57.207131
21
42.374082
0
LINE
8
Image
10
57.207131
20
42.374082
11
57.013094
21
41.165420
0
LINE
8
Image
10
57.013094
20
41.165420
11
56.886273
21
40.143093
0
LINE
8
Image
10
56.886273
20
40.143093
11
56.510908
21
39.281896
0
LINE
8
Image
10
56.510908
20
39.281896
11
55.659516
21
38.226412
0
LINE
8
Image
10
55.659516
20
38.226412
11
54.104617
21
36.621228
0
LINE
8
Image
10
54.104617
20
36.621228
11
51.306753
21
33.800741
0
LINE
8
Image
10
51.306753
20
33.800741
11
48.505171
21
36.617405
0
LINE
8
Image
10
48.505171
20
36.617405
11
46.946728
21
38.221756
0
LINE
8
Image
10
46.946728
20
38.221756
11
46.094403
21
39.275882
0
LINE
8
Image
10
46.094403
20
39.275882
11
45.719375
21
40.136817
0
LINE
8
Image
10
45.719375
20
40.136817
11
45.592821
21
41.161596
0
LINE
8
Image
10
45.592821
20
41.161596
11
45.385399
21
42.378373
0
LINE
8
Image
10
45.385399
20
42.378373
11
45.049967
21
43.033471
0
LINE
8
Image
10
45.049967
20
43.033471
11
44.881516
21
43.106101
0
LINE
8
Image
10
44.881516
20
43.106101
11
44.737785
21
42.985165
0
LINE
8
Image
10
44.737785
20
42.985165
11
44.600111
21
42.091733
0
LINE
8
Image
10
44.600111
20
42.091733
11
44.528007
21
41.407984
0
LINE
8
Image
10
44.528007
20
41.407984
11
44.336565
21
41.063862
0
LINE
8
Image
10
44.336565
20
41.063862
11
44.063089
21
41.020907
0
LINE
8
Image
10
44.063089
20
41.020907
11
43.744883
21
41.240660
0
LINE
8
Image
10
43.744883
20
41.240660
11
43.123502
21
42.314459
0
LINE
8
Image
10
43.123502
20
42.314459
11
42.770855
21
43.977588
0
LINE
8
Image
10
42.770855
20
43.977588
11
42.546207
21
45.424634
0
LINE
8
Image
10
42.546207
20
45.424634
11
42.384282
21
45.786374
0
LINE
8
Image
10
42.384282
20
45.786374
11
42.212598
21
45.906930
0
LINE
8
Image
10
42.212598
20
45.906930
11
42.048635
21
45.786305
0
LINE
8
Image
10
42.048635
20
45.786305
11
41.909876
21
45.424504
0
LINE
8
Image
10
41.909876
20
45.424504
11
41.777891
21
43.977384
0
LINE
8
Image
10
41.777891
20
43.977384
11
41.811853
21
42.826051
0
LINE
8
Image
10
41.811853
20
42.826051
11
41.986049
21
42.053683
0
LINE
8
Image
10
41.986049
20
42.053683
11
42.408942
21
41.401503
0
LINE
8
Image
10
42.408942
20
41.401503
11
43.189000
21
40.610732
0
LINE
8
Image
10
43.189000
20
40.610732
11
44.600111
21
39.268375
0
LINE
8
Image
10
44.600111
20
39.268375
11
44.600111
21
31.669533
0
LINE
8
Image
10
44.600111
20
31.669533
11
44.600111
21
24.070691
0
LINE
8
Image
10
44.600111
20
24.070691
11
43.189000
21
24.070691
0
LINE
8
Image
10
43.189000
20
24.070691
11
42.369973
21
24.018747
0
LINE
8
Image
10
42.369973
20
24.018747
11
41.900030
21
23.863578
0
LINE
8
Image
10
41.900030
20
23.863578
11
41.780591
21
23.606179
0
LINE
8
Image
10
41.780591
20
23.606179
11
42.013076
21
23.247544
0
LINE
8
Image
10
42.013076
20
23.247544
11
42.680046
21
23.081444
0
LINE
8
Image
10
42.680046
20
23.081444
11
43.953351
21
23.012359
0
LINE
8
Image
10
43.953351
20
23.012359
11
45.658443
21
23.012359
0
LINE
8
Image
10
45.658443
20
23.012359
11
45.658443
21
30.420683
0
LINE
8
Image
10
50.248021
20
29.887821
11
49.793829
21
30.398749
0
LINE
8
Image
10
49.793829
20
30.398749
11
49.622346
21
30.743096
0
LINE
8
Image
10
49.622346
20
30.743096
11
49.717899
21
31.056680
0
LINE
8
Image
10
49.717899
20
31.056680
11
50.064813
21
31.475319
0
LINE
8
Image
10
50.064813
20
31.475319
11
50.693264
21
31.976226
0
LINE
8
Image
10
50.693264
20
31.976226
11
51.302879
21
32.184568
0
LINE
8
Image
10
51.302879
20
32.184568
11
51.912494
21
31.976226
0
LINE
8
Image
10
51.912494
20
31.976226
11
52.540945
21
31.475319
0
LINE
8
Image
10
52.540945
20
31.475319
11
52.887859
21
31.056680
0
LINE
8
Image
10
52.887859
20
31.056680
11
52.983412
21
30.743096
0
LINE
8
Image
10
52.983412
20
30.743096
11
52.811930
21
30.398749
0
LINE
8
Image
10
52.811930
20
30.398749
11
52.357737
21
29.887821
0
LINE
8
Image
10
52.357737
20
29.887821
11
51.302879
21
29.009572
0
LINE
8
Image
10
51.302879
20
29.009572
11
50.248021
21
29.887821
0
LINE
8
Image
10
50.248021
20
29.887821
11
50.248021
21
29.887821
0
LINE
8
Image
10
50.950103
20
40.029451
11
50.784190
21
40.795148
0
LINE
8
Image
10
50.784190
20
40.795148
11
50.093326
21
41.833066
0
LINE
8
Image
10
50.093326
20
41.833066
11
45.977993
21
46.152561
0
LINE
8
Image
10
45.977993
20
46.152561
11
42.330891
21
49.977144
0
LINE
8
Image
10
42.330891
20
49.977144
11
41.583529
21
50.946176
0
LINE
8
Image
10
41.583529
20
50.946176
11
41.516467
21
51.329487
0
LINE
8
Image
10
41.516467
20
51.329487
11
42.010658
21
51.136627
0
LINE
8
Image
10
42.010658
20
51.136627
11
42.979907
21
50.386834
0
LINE
8
Image
10
42.979907
20
50.386834
11
46.218480
21
47.323041
0
LINE
8
Image
10
46.218480
20
47.323041
11
49.258016
21
44.355114
0
LINE
8
Image
10
49.258016
20
44.355114
11
50.680003
21
43.120667
0
LINE
8
Image
10
50.680003
20
43.120667
11
50.870761
21
43.407932
0
LINE
8
Image
10
50.870761
20
43.407932
11
50.950103
21
44.098592
0
LINE
8
Image
10
50.950103
20
44.098592
11
50.808441
21
44.712123
0
LINE
8
Image
10
50.808441
20
44.712123
11
50.322454
21
45.496214
0
LINE
8
Image
10
50.322454
20
45.496214
11
47.951494
21
48.059548
0
LINE
8
Image
10
47.951494
20
48.059548
11
44.952887
21
51.281923
0
LINE
8
Image
10
44.952887
20
51.281923
11
45.026045
21
51.463086
0
LINE
8
Image
10
45.026045
20
51.463086
11
45.234893
21
51.487964
0
LINE
8
Image
10
45.234893
20
51.487964
11
45.995905
21
51.111420
0
LINE
8
Image
10
45.995905
20
51.111420
11
47.108413
21
50.237404
0
LINE
8
Image
10
47.108413
20
50.237404
11
48.444907
21
48.951028
0
LINE
8
Image
10
48.444907
20
48.951028
11
49.991094
21
47.433917
0
LINE
8
Image
10
49.991094
20
47.433917
11
50.724863
21
46.893570
0
LINE
8
Image
10
50.724863
20
46.893570
11
50.756267
21
47.485315
0
LINE
8
Image
10
50.756267
20
47.485315
11
50.445936
21
48.557431
0
LINE
8
Image
10
50.445936
20
48.557431
11
49.914033
21
49.782217
0
LINE
8
Image
10
49.914033
20
49.782217
11
49.280719
21
50.831973
0
LINE
8
Image
10
49.280719
20
50.831973
11
48.131030
21
51.996659
0
LINE
8
Image
10
48.131030
20
51.996659
11
46.670454
21
52.771904
0
LINE
8
Image
10
46.670454
20
52.771904
11
44.767184
21
53.205055
0
LINE
8
Image
10
44.767184
20
53.205055
11
42.289417
21
53.343461
0
LINE
8
Image
10
42.289417
20
53.343461
11
40.233287
21
53.411008
0
LINE
8
Image
10
40.233287
20
53.411008
11
39.003110
21
53.653107
0
LINE
8
Image
10
39.003110
20
53.653107
11
38.406263
21
54.147398
0
LINE
8
Image
10
38.406263
20
54.147398
11
38.250119
21
54.971519
0
LINE
8
Image
10
38.250119
20
54.971519
11
38.368943
21
55.521459
0
LINE
8
Image
10
38.368943
20
55.521459
11
38.744394
21
55.894377
0
LINE
8
Image
10
38.744394
20
55.894377
11
39.404937
21
56.106343
0
LINE
8
Image
10
39.404937
20
56.106343
11
40.379036
21
56.173427
0
LINE
8
Image
10
40.379036
20
56.173427
11
41.246505
21
56.259122
0
LINE
8
Image
10
41.246505
20
56.259122
11
42.019484
21
56.500859
0
LINE
8
Image
10
42.019484
20
56.500859
11
42.678417
21
56.875620
0
LINE
8
Image
10
42.678417
20
56.875620
11
43.203749
21
57.360383
0
LINE
8
Image
10
43.203749
20
57.360383
11
43.575923
21
57.932130
0
LINE
8
Image
10
43.575923
20
57.932130
11
43.775386
21
58.567841
0
LINE
8
Image
10
43.775386
20
58.567841
11
43.782581
21
59.244495
0
LINE
8
Image
10
43.782581
20
59.244495
11
43.577953
21
59.939073
0
LINE
8
Image
10
43.577953
20
59.939073
11
43.320948
21
60.543788
0
LINE
8
Image
10
43.320948
20
60.543788
11
43.304466
21
60.897692
0
LINE
8
Image
10
43.304466
20
60.897692
11
43.595302
21
61.147857
0
LINE
8
Image
10
43.595302
20
61.147857
11
44.260254
21
61.441354
0
LINE
8
Image
10
44.260254
20
61.441354
11
44.492820
21
61.634070
0
LINE
8
Image
10
44.492820
20
61.634070
11
44.106831
21
61.730893
0
LINE
8
Image
10
44.106831
20
61.730893
11
42.002918
21
61.675591
0
LINE
8
Image
10
42.002918
20
61.675591
11
38.995973
21
61.352915
0
LINE
8
Image
10
38.995973
20
61.352915
11
36.133455
21
60.840330
0
LINE
8
Image
10
36.133455
20
60.840330
11
33.134846
21
60.125773
0
LINE
8
Image
10
33.134846
20
60.125773
11
36.859777
21
60.089875
0
LINE
8
Image
10
36.859777
20
60.089875
11
39.826820
21
59.945576
0
LINE
8
Image
10
39.826820
20
59.945576
11
40.720117
21
59.790490
0
LINE
8
Image
10
40.720117
20
59.790490
11
41.235194
21
59.578330
0
LINE
8
Image
10
41.235194
20
59.578330
11
41.637302
21
59.115843
0
LINE
8
Image
10
41.637302
20
59.115843
11
41.602722
21
58.702033
0
LINE
8
Image
10
41.602722
20
58.702033
11
41.175230
21
58.404312
0
LINE
8
Image
10
41.175230
20
58.404312
11
40.398604
21
58.290091
0
LINE
8
Image
10
40.398604
20
58.290091
11
39.244601
21
58.176143
0
LINE
8
Image
10
39.244601
20
58.176143
11
38.236724
21
57.854320
0
LINE
8
Image
10
38.236724
20
57.854320
11
37.397907
21
57.354655
0
LINE
8
Image
10
37.397907
20
57.354655
11
36.751080
21
56.707180
0
LINE
8
Image
10
36.751080
20
56.707180
11
36.319177
21
55.941926
0
LINE
8
Image
10
36.319177
20
55.941926
11
36.125129
21
55.088927
0
LINE
8
Image
10
36.125129
20
55.088927
11
36.191867
21
54.178215
0
LINE
8
Image
10
36.191867
20
54.178215
11
36.542325
21
53.239821
0
LINE
8
Image
10
36.542325
20
53.239821
11
38.895633
21
50.609226
0
LINE
8
Image
10
38.895633
20
50.609226
11
43.628327
21
45.718673
0
LINE
8
Image
10
43.628327
20
45.718673
11
48.347648
21
41.000574
0
LINE
8
Image
10
48.347648
20
41.000574
11
50.660839
21
38.887339
0
LINE
8
Image
10
50.660839
20
38.887339
11
50.865131
21
39.222834
0
LINE
8
Image
10
50.865131
20
39.222834
11
50.950103
21
40.029451
0
LINE
8
Image
10
50.950103
20
40.029451
11
50.950103
21
40.029451
0
LINE
8
Image
10
40.300637
20
61.000519
11
40.690254
21
61.068768
0
LINE
8
Image
10
40.690254
20
61.068768
11
40.976792
21
60.972669
0
LINE
8
Image
10
40.976792
20
60.972669
11
40.928699
21
60.830322
0
LINE
8
Image
10
40.928699
20
60.830322
11
40.513772
21
60.787384
0
LINE
8
Image
10
40.513772
20
60.787384
11
40.147558
21
60.858071
0
LINE
8
Image
10
40.147558
20
60.858071
11
40.300637
21
61.000519
0
LINE
8
Image
10
40.300637
20
61.000519
11
40.300637
21
61.000519
0
LINE
8
Image
10
56.801451
20
43.738026
11
65.172841
21
52.366492
0
LINE
8
Image
10
65.172841
20
52.366492
11
66.287218
21
53.800296
0
LINE
8
Image
10
66.287218
20
53.800296
11
66.472301
21
54.565850
0
LINE
8
Image
10
66.472301
20
54.565850
11
66.393197
21
55.366145
0
LINE
8
Image
10
66.393197
20
55.366145
11
66.162722
21
56.088566
0
LINE
8
Image
10
66.162722
20
56.088566
11
65.791129
21
56.724226
0
LINE
8
Image
10
65.791129
20
56.724226
11
65.288670
21
57.264240
0
LINE
8
Image
10
65.288670
20
57.264240
11
64.665601
21
57.699720
0
LINE
8
Image
10
64.665601
20
57.699720
11
63.932174
21
58.021780
0
LINE
8
Image
10
63.932174
20
58.021780
11
62.175261
21
58.290091
0
LINE
8
Image
10
62.175261
20
58.290091
11
61.437094
21
58.444484
0
LINE
8
Image
10
61.437094
20
58.444484
11
60.974416
21
58.821915
0
LINE
8
Image
10
60.974416
20
58.821915
11
60.872704
21
59.293761
0
LINE
8
Image
10
60.872704
20
59.293761
11
61.217434
21
59.731402
0
LINE
8
Image
10
61.217434
20
59.731402
11
62.705085
21
59.963723
0
LINE
8
Image
10
62.705085
20
59.963723
11
65.590359
21
60.084472
0
LINE
8
Image
10
65.590359
20
60.084472
11
69.470910
21
60.125773
0
LINE
8
Image
10
69.470910
20
60.125773
11
66.631585
21
60.730676
0
LINE
8
Image
10
66.631585
20
60.730676
11
63.412724
21
61.570143
0
LINE
8
Image
10
63.412724
20
61.570143
11
61.526998
21
61.836586
0
LINE
8
Image
10
61.526998
20
61.836586
11
58.534814
21
61.830844
0
LINE
8
Image
10
58.534814
20
61.830844
11
57.476482
21
61.762164
0
LINE
8
Image
10
57.476482
20
61.762164
11
58.428951
21
61.413729
0
LINE
8
Image
10
58.428951
20
61.413729
11
58.927387
21
61.199348
0
LINE
8
Image
10
58.927387
20
61.199348
11
59.167383
21
60.969597
0
LINE
8
Image
10
59.167383
20
60.969597
11
59.187613
21
60.641589
0
LINE
8
Image
10
59.187613
20
60.641589
11
59.026748
21
60.132433
0
LINE
8
Image
10
59.026748
20
60.132433
11
58.835585
21
59.371352
0
LINE
8
Image
10
58.835585
20
59.371352
11
58.838603
21
58.645479
0
LINE
8
Image
10
58.838603
20
58.645479
11
59.020160
21
57.975238
0
LINE
8
Image
10
59.020160
20
57.975238
11
59.364614
21
57.381055
0
LINE
8
Image
10
59.364614
20
57.381055
11
59.856322
21
56.883357
0
LINE
8
Image
10
59.856322
20
56.883357
11
60.479643
21
56.502569
0
LINE
8
Image
10
60.479643
20
56.502569
11
61.218934
21
56.259117
0
LINE
8
Image
10
61.218934
20
56.259117
11
62.058554
21
56.173427
0
LINE
8
Image
10
62.058554
20
56.173427
11
63.074393
21
56.083915
0
LINE
8
Image
10
63.074393
20
56.083915
11
63.791024
21
55.812291
0
LINE
8
Image
10
63.791024
20
55.812291
11
64.215691
21
55.353922
0
LINE
8
Image
10
64.215691
20
55.353922
11
64.355637
21
54.704174
0
LINE
8
Image
10
64.355637
20
54.704174
11
64.128327
21
54.077127
0
LINE
8
Image
10
64.128327
20
54.077127
11
63.397688
21
53.658228
0
LINE
8
Image
10
63.397688
20
53.658228
11
62.090658
21
53.424060
0
LINE
8
Image
10
62.090658
20
53.424060
11
60.134173
21
53.351208
0
LINE
8
Image
10
60.134173
20
53.351208
11
58.392077
21
53.268970
0
LINE
8
Image
10
58.392077
20
53.268970
11
56.866510
21
53.018853
0
LINE
8
Image
10
56.866510
20
53.018853
11
55.549969
21
52.595750
0
LINE
8
Image
10
55.549969
20
52.595750
11
54.434953
21
51.994558
0
LINE
8
Image
10
54.434953
20
51.994558
11
53.513959
21
51.210169
0
LINE
8
Image
10
53.513959
20
51.210169
11
52.779485
21
50.237479
0
LINE
8
Image
10
52.779485
20
50.237479
11
52.224029
21
49.071381
0
LINE
8
Image
10
52.224029
20
49.071381
11
51.840089
21
47.706771
0
LINE
8
Image
10
51.840089
20
47.706771
11
51.586766
21
46.472050
0
LINE
8
Image
10
51.586766
20
46.472050
11
54.002459
21
48.804714
0
LINE
8
Image
10
54.002459
20
48.804714
11
56.667252
21
51.100956
0
LINE
8
Image
10
56.667252
20
51.100956
11
57.397339
21
51.482828
0
LINE
8
Image
10
57.397339
20
51.482828
11
57.587847
21
51.465799
0
LINE
8
Image
10
57.587847
20
51.465799
11
57.652871
21
51.303878
0
LINE
8
Image
10
57.652871
20
51.303878
11
54.654265
21
48.059548
0
LINE
8
Image
10
54.654265
20
48.059548
11
52.283305
21
45.496214
0
LINE
8
Image
10
52.283305
20
45.496214
11
51.797318
21
44.712123
0
LINE
8
Image
10
51.797318
20
44.712123
11
51.655656
21
44.098592
0
LINE
8
Image
10
51.655656
20
44.098592
11
51.735068
21
43.407932
0
LINE
8
Image
10
51.735068
20
43.407932
11
51.925993
21
43.120667
0
LINE
8
Image
10
51.925993
20
43.120667
11
53.297503
21
44.304609
0
LINE
8
Image
10
53.297503
20
44.304609
11
56.215341
21
47.151110
0
LINE
8
Image
10
56.215341
20
47.151110
11
60.194250
21
50.839328
0
LINE
8
Image
10
60.194250
20
50.839328
11
61.197423
21
51.470291
0
LINE
8
Image
10
61.197423
20
51.470291
11
61.449272
21
51.480024
0
LINE
8
Image
10
61.449272
20
51.480024
11
61.533423
21
51.284987
0
LINE
8
Image
10
61.533423
20
51.284987
11
56.594539
21
46.119273
0
LINE
8
Image
10
56.594539
20
46.119273
11
52.499835
21
41.835628
0
LINE
8
Image
10
52.499835
20
41.835628
11
51.817883
21
40.806594
0
LINE
8
Image
10
51.817883
20
40.806594
11
51.655656
21
40.038590
0
LINE
8
Image
10
51.655656
20
40.038590
11
51.837564
21
38.887339
0
LINE
8
Image
10
51.837564
20
38.887339
11
56.801451
21
43.738026
0
LINE
8
Image
10
56.801451
20
43.738026
11
56.801451
21
43.738026
0
LINE
8
Image
10
61.820053
20
61.000519
11
62.209670
21
61.068768
0
LINE
8
Image
10
62.209670
20
61.068768
11
62.496211
21
60.972669
0
LINE
8
Image
10
62.496211
20
60.972669
11
62.448117
21
60.830322
0
LINE
8
Image
10
62.448117
20
60.830322
11
62.033191
21
60.787384
0
LINE
8
Image
10
62.033191
20
60.787384
11
61.666977
21
60.858071
0
LINE
8
Image
10
61.666977
20
60.858071
11
61.820053
21
61.000519
0
LINE
8
Image
10
61.820053
20
61.000519
11
61.820053
21
61.000519
0
LINE
8
Image
10
53.544418
20
53.863530
11
54.203673
21
54.637558
0
LINE
8
Image
10
54.203673
20
54.637558
11
54.477875
21
55.283698
0
LINE
8
Image
10
54.477875
20
55.283698
11
54.447382
21
55.566062
0
LINE
8
Image
10
54.447382
20
55.566062
11
54.309825
21
55.662245
0
LINE
8
Image
10
54.309825
20
55.662245
11
53.437061
21
55.300552
0
LINE
8
Image
10
53.437061
20
55.300552
11
52.380810
21
54.920430
0
LINE
8
Image
10
52.380810
20
54.920430
11
51.302879
21
54.762327
0
LINE
8
Image
10
51.302879
20
54.762327
11
50.224949
21
54.920430
0
LINE
8
Image
10
50.224949
20
54.920430
11
49.168697
21
55.300552
0
LINE
8
Image
10
49.168697
20
55.300552
11
48.395949
21
55.571747
0
LINE
8
Image
10
48.395949
20
55.571747
11
48.188981
21
55.532208
0
LINE
8
Image
10
48.188981
20
55.532208
11
48.103110
21
55.387537
0
LINE
8
Image
10
48.103110
20
55.387537
11
48.299136
21
54.817671
0
LINE
8
Image
10
48.299136
20
54.817671
11
48.992982
21
53.931896
0
LINE
8
Image
10
48.992982
20
53.931896
11
50.011817
21
53.216439
0
LINE
8
Image
10
50.011817
20
53.216439
11
51.211773
21
52.965031
0
LINE
8
Image
10
51.211773
20
52.965031
11
52.440192
21
53.179967
0
LINE
8
Image
10
52.440192
20
53.179967
11
53.544418
21
53.863538
0
LINE
8
Image
10
53.544418
20
53.863538
11
53.544418
21
53.863530
0
LINE
8
Image
10
48.127883
20
56.675526
11
48.396166
21
57.348969
0
LINE
8
Image
10
48.396166
20
57.348969
11
49.041187
21
58.263024
0
LINE
8
Image
10
49.041187
20
58.263024
11
50.051365
21
59.099106
0
LINE
8
Image
10
50.051365
20
59.099106
11
51.168377
21
59.387400
0
LINE
8
Image
10
51.168377
20
59.387400
11
52.323166
21
59.127057
0
LINE
8
Image
10
52.323166
20
59.127057
11
53.446679
21
58.317227
0
LINE
8
Image
10
53.446679
20
58.317227
11
54.174961
21
57.425531
0
LINE
8
Image
10
54.174961
20
57.425531
11
54.477875
21
56.729729
0
LINE
8
Image
10
54.477875
20
56.729729
11
54.552303
21
56.465661
0
LINE
8
Image
10
54.552303
20
56.465661
11
54.801292
21
56.296790
0
LINE
8
Image
10
54.801292
20
56.296790
11
55.977180
21
56.189019
0
LINE
8
Image
10
55.977180
20
56.189019
11
57.476482
21
56.204603
0
LINE
8
Image
10
57.476482
20
56.204603
11
56.080814
21
56.940318
0
LINE
8
Image
10
56.080814
20
56.940318
11
54.685147
21
57.676034
0
LINE
8
Image
10
54.685147
20
57.676034
11
55.728038
21
58.538627
0
LINE
8
Image
10
55.728038
20
58.538627
11
56.770929
21
59.401221
0
LINE
8
Image
10
56.770929
20
59.401221
11
55.288158
21
59.170216
0
LINE
8
Image
10
55.288158
20
59.170216
11
53.805387
21
58.939209
0
LINE
8
Image
10
53.805387
20
58.939209
11
54.135597
21
60.090584
0
LINE
8
Image
10
54.135597
20
60.090584
11
54.328165
21
60.962714
0
LINE
8
Image
10
54.328165
20
60.962714
11
54.262048
21
61.368118
0
LINE
8
Image
10
54.262048
20
61.368118
11
53.925611
21
61.317036
0
LINE
8
Image
10
53.925611
20
61.317036
11
53.307220
21
60.819711
0
LINE
8
Image
10
53.307220
20
60.819711
11
52.667986
21
60.267261
0
LINE
8
Image
10
52.667986
20
60.267261
11
52.275635
21
60.118669
0
LINE
8
Image
10
52.275635
20
60.118669
11
52.030282
21
60.393746
0
LINE
8
Image
10
52.030282
20
60.393746
11
51.832045
21
61.112303
0
LINE
8
Image
10
51.832045
20
61.112303
11
51.580718
21
61.859750
0
LINE
8
Image
10
51.580718
20
61.859750
11
51.302879
21
62.170635
0
LINE
8
Image
10
51.302879
20
62.170635
11
51.025041
21
61.859750
0
LINE
8
Image
10
51.025041
20
61.859750
11
50.773713
21
61.112303
0
LINE
8
Image
10
50.773713
20
61.112303
11
50.559970
21
60.398158
0
LINE
8
Image
10
50.559970
20
60.398158
11
50.290869
21
60.110647
0
LINE
8
Image
10
50.290869
20
60.110647
11
49.910413
21
60.235768
0
LINE
8
Image
10
49.910413
20
60.235768
11
49.362605
21
60.759524
0
LINE
8
Image
10
49.362605
20
60.759524
11
48.783001
21
61.307418
0
LINE
8
Image
10
48.783001
20
61.307418
11
48.433633
21
61.402201
0
LINE
8
Image
10
48.433633
20
61.402201
11
48.302284
21
61.036999
0
LINE
8
Image
10
48.302284
20
61.036999
11
48.376734
21
60.204939
0
LINE
8
Image
10
48.376734
20
60.204939
11
48.581228
21
58.944802
0
LINE
8
Image
10
48.581228
20
58.944802
11
47.208029
21
59.178995
0
LINE
8
Image
10
47.208029
20
59.178995
11
45.834830
21
59.413191
0
LINE
8
Image
10
45.834830
20
59.413191
11
46.877721
21
58.544612
0
LINE
8
Image
10
46.877721
20
58.544612
11
47.920612
21
57.676034
0
LINE
8
Image
10
47.920612
20
57.676034
11
46.524944
21
56.940318
0
LINE
8
Image
10
46.524944
20
56.940318
11
45.129277
21
56.204603
0
LINE
8
Image
10
45.129277
20
56.204603
11
46.628579
21
56.189019
0
LINE
8
Image
10
46.628579
20
56.189019
11
47.779073
21
56.293869
0
LINE
8
Image
10
47.779073
20
56.293869
11
48.043933
21
56.446931
0
LINE
8
Image
10
48.043933
20
56.446931
11
48.127883
21
56.675526
0
LINE
8
Image
10
48.127883
20
56.675526
11
48.127883
21
56.675526
0
LINE
8
Image
10
34.369567
20
67.932671
11
34.440475
21
69.083225
0
LINE
8
Image
10
34.440475
20
69.083225
11
34.610954
21
69.702763
0
LINE
8
Image
10
34.610954
20
69.702763
11
35.125042
21
69.540206
0
LINE
8
Image
10
35.125042
20
69.540206
11
36.022065
21
68.810411
0
LINE
8
Image
10
36.022065
20
68.810411
11
37.191787
21
67.676673
0
LINE
8
Image
10
37.191787
20
67.676673
11
38.426506
21
68.873411
0
LINE
8
Image
10
38.426506
20
68.873411
11
39.661227
21
70.070149
0
LINE
8
Image
10
39.661227
20
70.070149
11
39.661227
21
68.237060
0
LINE
8
Image
10
39.661227
20
68.237060
11
39.680147
21
67.188474
0
LINE
8
Image
10
39.680147
20
67.188474
11
39.800978
21
66.643035
0
LINE
8
Image
10
39.800978
20
66.643035
11
40.119825
21
66.436336
0
LINE
8
Image
10
40.119825
20
66.436336
11
40.732796
21
66.403971
0
LINE
8
Image
10
40.732796
20
66.403971
11
41.804368
21
66.403971
0
LINE
8
Image
10
41.804368
20
66.403971
11
41.702935
21
69.667160
0
LINE
8
Image
10
41.702935
20
69.667160
11
41.501500
21
72.458030
0
LINE
8
Image
10
41.501500
20
72.458030
11
41.258115
21
72.898304
0
LINE
8
Image
10
41.258115
20
72.898304
11
40.832359
21
73.039855
0
LINE
8
Image
10
40.832359
20
73.039855
11
39.888751
21
72.783561
0
LINE
8
Image
10
39.888751
20
72.783561
11
38.619966
21
71.845472
0
LINE
8
Image
10
38.619966
20
71.845472
11
37.778053
21
71.108049
0
LINE
8
Image
10
37.778053
20
71.108049
11
37.261194
21
70.793683
0
LINE
8
Image
10
37.261194
20
70.793683
11
36.866356
21
70.843448
0
LINE
8
Image
10
36.866356
20
70.843448
11
36.390502
21
71.198416
0
LINE
8
Image
10
36.390502
20
71.198416
11
35.193606
21
72.330609
0
LINE
8
Image
10
35.193606
20
72.330609
11
34.583780
21
72.716727
0
LINE
8
Image
10
34.583780
20
72.716727
11
33.694304
21
72.977533
0
LINE
8
Image
10
33.694304
20
72.977533
11
32.605680
21
73.149102
0
LINE
8
Image
10
32.605680
20
73.149102
11
32.605680
21
69.776536
0
LINE
8
Image
10
32.605680
20
69.776536
11
32.716935
21
66.829421
0
LINE
8
Image
10
32.716935
20
66.829421
11
32.978889
21
66.458122
0
LINE
8
Image
10
32.978889
20
66.458122
11
33.487625
21
66.403971
0
LINE
8
Image
10
33.487625
20
66.403971
11
33.965061
21
66.446598
0
LINE
8
Image
10
33.965061
20
66.446598
11
34.230491
21
66.645035
0
LINE
8
Image
10
34.230491
20
66.645035
11
34.369567
21
67.932671
0
LINE
8
Image
10
34.369567
20
67.932671
11
34.369567
21
67.932671
0
LINE
8
Image
10
45.230707
20
69.667160
11
45.028145
21
72.470146
0
LINE
8
Image
10
45.028145
20
72.470146
11
44.777980
21
72.903804
0
LINE
8
Image
10
44.777980
20
72.903804
11
44.335528
21
73.043081
0
LINE
8
Image
10
44.335528
20
73.043081
11
43.884254
21
73.043630
0
LINE
8
Image
10
43.884254
20
73.043630
11
43.647764
21
72.689987
0
LINE
8
Image
10
43.647764
20
72.689987
11
43.541779
21
69.779891
0
LINE
8
Image
10
43.541779
20
69.779891
11
43.541779
21
66.403971
0
LINE
8
Image
10
43.541779
20
66.403971
11
44.436958
21
66.403971
0
LINE
8
Image
10
44.436958
20
66.403971
11
45.332140
21
66.403971
0
LINE
8
Image
10
45.332140
20
66.403971
11
45.230707
21
69.667160
0
LINE
8
Image
10
49.203963
20
67.142687
11
49.599311
21
67.881402
0
LINE
8
Image
10
49.599311
20
67.881402
11
50.451094
21
67.081192
0
LINE
8
Image
10
50.451094
20
67.081192
11
51.302879
21
66.280982
0
LINE
8
Image
10
51.302879
20
66.280982
11
52.154664
21
67.081192
0
LINE
8
Image
10
52.154664
20
67.081192
11
53.006447
21
67.881402
0
LINE
8
Image
10
53.006447
20
67.881402
11
53.401795
21
67.142687
0
LINE
8
Image
10
53.401795
20
67.142687
11
53.958641
21
66.588004
0
LINE
8
Image
10
53.958641
20
66.588004
11
54.840748
21
66.403971
0
LINE
8
Image
10
54.840748
20
66.403971
11
55.884351
21
66.403971
0
LINE
8
Image
10
55.884351
20
66.403971
11
54.253853
21
69.686303
0
LINE
8
Image
10
54.253853
20
69.686303
11
53.333760
21
71.482388
0
LINE
8
Image
10
53.333760
20
71.482388
11
52.704318
21
72.476751
0
LINE
8
Image
10
52.704318
20
72.476751
11
52.166717
21
72.913121
0
LINE
8
Image
10
52.166717
20
72.913121
11
51.522147
21
73.035230
0
LINE
8
Image
10
51.522147
20
73.035230
11
50.614898
21
73.016983
0
LINE
8
Image
10
50.614898
20
73.016983
11
49.978683
21
72.734930
0
LINE
8
Image
10
49.978683
20
72.734930
11
49.442431
21
72.047642
0
LINE
8
Image
10
49.442431
20
72.047642
11
48.835074
21
70.813686
0
LINE
8
Image
10
48.835074
20
70.813686
11
47.371631
21
67.726886
0
LINE
8
Image
10
47.371631
20
67.726886
11
46.702434
21
66.403971
0
LINE
8
Image
10
46.702434
20
66.403971
11
47.755525
21
66.403971
0
LINE
8
Image
10
47.755525
20
66.403971
11
48.645522
21
66.587141
0
LINE
8
Image
10
48.645522
20
66.587141
11
49.203963
21
67.142687
0
LINE
8
Image
10
49.203963
20
67.142687
11
49.203963
21
67.142687
0
LINE
8
Image
10
50.772829
20
69.227617
11
50.667806
21
69.766404
0
LINE
8
Image
10
50.667806
20
69.766404
11
50.755023
21
70.512093
0
LINE
8
Image
10
50.755023
20
70.512093
11
51.036248
21
71.157416
0
LINE
8
Image
10
51.036248
20
71.157416
11
51.231124
21
71.154604
0
LINE
8
Image
10
51.231124
20
71.154604
11
51.510812
21
70.963884
0
LINE
8
Image
10
51.510812
20
70.963884
11
51.836922
21
70.472655
0
LINE
8
Image
10
51.836922
20
70.472655
11
51.925893
21
69.859026
0
LINE
8
Image
10
51.925893
20
69.859026
11
51.785468
21
69.299509
0
LINE
8
Image
10
51.785468
20
69.299509
11
51.423389
21
68.970616
0
LINE
8
Image
10
51.423389
20
68.970616
11
51.063718
21
68.990650
0
LINE
8
Image
10
51.063718
20
68.990650
11
50.772816
21
69.227617
0
LINE
8
Image
10
50.772816
20
69.227617
11
50.772829
21
69.227617
0
LINE
8
Image
10
59.063980
20
68.167856
11
59.136768
21
69.413601
0
LINE
8
Image
10
59.136768
20
69.413601
11
59.311770
21
69.931743
0
LINE
8
Image
10
59.311770
20
69.931743
11
60.722878
21
68.804207
0
LINE
8
Image
10
60.722878
20
68.804207
11
61.886199
21
67.676673
0
LINE
8
Image
10
61.886199
20
67.676673
11
63.120921
21
68.873411
0
LINE
8
Image
10
63.120921
20
68.873411
11
64.355637
21
70.070149
0
LINE
8
Image
10
64.355637
20
70.070149
11
64.355637
21
68.237060
0
LINE
8
Image
10
64.355637
20
68.237060
11
64.374557
21
67.188474
0
LINE
8
Image
10
64.374557
20
67.188474
11
64.495388
21
66.643035
0
LINE
8
Image
10
64.495388
20
66.643035
11
64.814236
21
66.436336
0
LINE
8
Image
10
64.814236
20
66.436336
11
65.427209
21
66.403971
0
LINE
8
Image
10
65.427209
20
66.403971
11
66.498778
21
66.403971
0
LINE
8
Image
10
66.498778
20
66.403971
11
66.397345
21
69.660427
0
LINE
8
Image
10
66.397345
20
69.660427
11
66.190785
21
72.509035
0
LINE
8
Image
10
66.190785
20
72.509035
11
65.905217
21
72.892169
0
LINE
8
Image
10
65.905217
20
72.892169
11
65.373176
21
72.987034
0
LINE
8
Image
10
65.373176
20
72.987034
11
64.875399
21
72.943060
0
LINE
8
Image
10
64.875399
20
72.943060
11
64.353375
21
72.723274
0
LINE
8
Image
10
64.353375
20
72.723274
11
63.107549
21
71.681936
0
LINE
8
Image
10
63.107549
20
71.681936
11
61.764660
21
70.306692
0
LINE
8
Image
10
61.764660
20
70.306692
11
60.245814
21
71.706717
0
LINE
8
Image
10
60.245814
20
71.706717
11
58.963557
21
72.695483
0
LINE
8
Image
10
58.963557
20
72.695483
11
58.013530
21
73.106739
0
LINE
8
Image
10
58.013530
20
73.106739
11
57.621088
21
73.023037
0
LINE
8
Image
10
57.621088
20
73.023037
11
57.407063
21
72.604250
0
LINE
8
Image
10
57.407063
20
72.604250
11
57.300095
21
69.755354
0
LINE
8
Image
10
57.300095
20
69.755354
11
57.411498
21
66.827303
0
LINE
8
Image
10
57.411498
20
66.827303
11
57.673470
21
66.457990
0
LINE
8
Image
10
57.673470
20
66.457990
11
58.182037
21
66.403971
0
LINE
8
Image
10
58.182037
20
66.403971
11
58.667106
21
66.448068
0
LINE
8
Image
10
58.667106
20
66.448068
11
58.931688
21
66.668553
0
LINE
8
Image
10
58.931688
20
66.668553
11
59.063980
21
68.167856
0
LINE
8
Image
10
59.063980
20
68.167856
11
59.063980
21
68.167856
0
LINE
8
Image
10
70.000076
20
69.778788
11
70.000076
21
73.153605
0
LINE
8
Image
10
70.000076
20
73.153605
11
69.029938
21
73.041977
0
LINE
8
Image
10
69.029938
20
73.041977
11
68.472809
21
72.929144
0
LINE
8
Image
10
68.472809
20
72.929144
11
68.172469
21
72.581782
0
LINE
8
Image
10
68.172469
20
72.581782
11
68.032314
21
71.738853
0
LINE
8
Image
10
68.032314
20
71.738853
11
67.955741
21
70.139314
0
LINE
8
Image
10
67.955741
20
70.139314
11
67.920189
21
68.142474
0
LINE
8
Image
10
67.920189
20
68.142474
11
68.050549
21
67.015471
0
LINE
8
Image
10
68.050549
20
67.015471
11
68.421335
21
66.516554
0
LINE
8
Image
10
68.421335
20
66.516554
11
69.107061
21
66.403971
0
LINE
8
Image
10
69.107061
20
66.403971
11
70.000076
21
66.403971
0
LINE
8
Image
10
70.000076
20
66.403971
11
70.000076
21
69.778788
0
LINE
8
Image
10
80.069756
20
14.355790
11
81.112562
21
14.789775
0
LINE
8
Image
10
81.112562
20
14.789775
11
80.011918
21
15.038468
0
LINE
8
Image
10
80.011918
20
15.038468
11
79.072428
21
15.477943
0
LINE
8
Image
10
79.072428
20
15.477943
11
78.553862
21
16.415736
0
LINE
8
Image
10
78.553862
20
16.415736
11
78.196447
21
17.544309
0
LINE
8
Image
10
78.196447
20
17.544309
11
77.936317
21
16.405795
0
LINE
8
Image
10
77.936317
20
16.405795
11
77.754754
21
15.814751
0
LINE
8
Image
10
77.754754
20
15.814751
11
77.487877
21
15.432998
0
LINE
8
Image
10
77.487877
20
15.432998
11
77.060082
21
15.192854
0
LINE
8
Image
10
77.060082
20
15.192854
11
76.395767
21
15.026635
0
LINE
8
Image
10
76.395767
20
15.026635
11
75.115347
21
14.785987
0
LINE
8
Image
10
75.115347
20
14.785987
11
76.345443
21
14.371343
0
LINE
8
Image
10
76.345443
20
14.371343
11
77.384860
21
13.794799
0
LINE
8
Image
10
77.384860
20
13.794799
11
77.690977
21
13.365238
0
LINE
8
Image
10
77.690977
20
13.365238
11
77.912055
21
12.783345
0
LINE
8
Image
10
77.912055
20
12.783345
11
78.248570
21
11.609988
0
LINE
8
Image
10
78.248570
20
11.609988
11
78.637761
21
12.765895
0
LINE
8
Image
10
78.637761
20
12.765895
11
79.195017
21
13.736175
0
LINE
8
Image
10
79.195017
20
13.736175
11
80.069756
21
14.355790
0
LINE
8
Image
10
80.069756
20
14.355790
11
80.069756
21
14.355790
0
LINE
8
Image
10
45.658443
20
12.596366
11
45.296072
21
12.943635
0
LINE
8
Image
10
45.296072
20
12.943635
11
44.301063
21
13.415559
0
LINE
8
Image
10
44.301063
20
13.415559
11
40.965746
21
14.508227
0
LINE
8
Image
10
40.965746
20
14.508227
11
38.518753
21
15.280808
0
LINE
8
Image
10
38.518753
20
15.280808
11
36.142393
21
16.239251
0
LINE
8
Image
10
36.142393
20
16.239251
11
33.845002
21
17.374137
0
LINE
8
Image
10
33.845002
20
17.374137
11
31.634916
21
18.676047
0
LINE
8
Image
10
31.634916
20
18.676047
11
29.520471
21
20.135561
0
LINE
8
Image
10
29.520471
20
20.135561
11
27.510002
21
21.743258
0
LINE
8
Image
10
27.510002
20
21.743258
11
25.611845
21
23.489719
0
LINE
8
Image
10
25.611845
20
23.489719
11
23.834337
21
25.365523
0
LINE
8
Image
10
23.834337
20
25.365523
11
22.185812
21
27.361252
0
LINE
8
Image
10
22.185812
20
27.361252
11
20.674608
21
29.467485
0
LINE
8
Image
10
20.674608
20
29.467485
11
19.309060
21
31.674803
0
LINE
8
Image
10
19.309060
20
31.674803
11
18.097504
21
33.973785
0
LINE
8
Image
10
18.097504
20
33.973785
11
17.048276
21
36.355012
0
LINE
8
Image
10
17.048276
20
36.355012
11
16.169711
21
38.809063
0
LINE
8
Image
10
16.169711
20
38.809063
11
15.470146
21
41.326520
0
LINE
8
Image
10
15.470146
20
41.326520
11
14.957917
21
43.897961
0
LINE
8
Image
10
14.957917
20
43.897961
11
14.666204
21
47.424744
0
LINE
8
Image
10
14.666204
20
47.424744
11
14.706569
21
51.647609
0
LINE
8
Image
10
14.706569
20
51.647609
11
15.045036
21
55.814168
0
LINE
8
Image
10
15.045036
20
55.814168
11
15.647631
21
59.172034
0
LINE
8
Image
10
15.647631
20
59.172034
11
16.890395
21
62.858973
0
LINE
8
Image
10
16.890395
20
62.858973
11
18.628662
21
66.620969
0
LINE
8
Image
10
18.628662
20
66.620969
11
20.749834
21
70.242608
0
LINE
8
Image
10
20.749834
20
70.242608
11
23.141315
21
73.508474
0
LINE
8
Image
10
23.141315
20
73.508474
11
24.067794
21
74.802474
0
LINE
8
Image
10
24.067794
20
74.802474
11
24.516007
21
75.755761
0
LINE
8
Image
10
24.516007
20
75.755761
11
24.541546
21
76.032672
0
LINE
8
Image
10
24.541546
20
76.032672
11
24.424457
21
76.138048
0
LINE
8
Image
10
24.424457
20
76.138048
11
23.731645
21
75.719052
0
LINE
8
Image
10
23.731645
20
75.719052
11
22.269442
21
74.091688
0
LINE
8
Image
10
22.269442
20
74.091688
11
20.467214
21
71.629598
0
LINE
8
Image
10
20.467214
20
71.629598
11
18.677114
21
68.846920
0
LINE
8
Image
10
18.677114
20
68.846920
11
17.251293
21
66.257791
0
LINE
8
Image
10
17.251293
20
66.257791
11
15.866455
21
62.957831
0
LINE
8
Image
10
15.866455
20
62.957831
11
14.721113
21
59.524813
0
LINE
8
Image
10
14.721113
20
59.524813
11
14.192699
21
57.442138
0
LINE
8
Image
10
14.192699
20
57.442138
11
13.898460
21
55.581060
0
LINE
8
Image
10
13.898460
20
55.581060
11
13.739207
21
49.823435
0
LINE
8
Image
10
13.739207
20
49.823435
11
13.875220
21
44.202586
0
LINE
8
Image
10
13.875220
20
44.202586
11
14.121748
21
42.433454
0
LINE
8
Image
10
14.121748
20
42.433454
11
14.549110
21
40.659003
0
LINE
8
Image
10
14.549110
20
40.659003
11
15.885554
21
36.585603
0
LINE
8
Image
10
15.885554
20
36.585603
11
17.597885
21
32.747955
0
LINE
8
Image
10
17.597885
20
32.747955
11
19.670087
21
29.165676
0
LINE
8
Image
10
19.670087
20
29.165676
11
22.086141
21
25.858385
0
LINE
8
Image
10
22.086141
20
25.858385
11
24.830029
21
22.845701
0
LINE
8
Image
10
24.830029
20
22.845701
11
27.885734
21
20.147244
0
LINE
8
Image
10
27.885734
20
20.147244
11
31.237238
21
17.782631
0
LINE
8
Image
10
31.237238
20
17.782631
11
34.868523
21
15.771482
0
LINE
8
Image
10
34.868523
20
15.771482
11
38.146694
21
14.401082
0
LINE
8
Image
10
38.146694
20
14.401082
11
41.678813
21
13.226449
0
LINE
8
Image
10
41.678813
20
13.226449
11
44.503266
21
12.530554
0
LINE
8
Image
10
44.503266
20
12.530554
11
45.349615
21
12.450561
0
LINE
8
Image
10
45.349615
20
12.450561
11
45.658443
21
12.596366
0
LINE
8
Image
10
45.658443
20
12.596366
11
45.658443
21
12.596366
0
LINE
8
Image
10
60.673232
20
13.156759
11
63.109533
21
13.877881
0
LINE
8
Image
10
63.109533
20
13.877881
11
65.473663
21
14.753619
0
LINE
8
Image
10
65.473663
20
14.753619
11
67.760099
21
15.778491
0
LINE
8
Image
10
67.760099
20
15.778491
11
69.963319
21
16.947016
0
LINE
8
Image
10
69.963319
20
16.947016
11
72.077799
21
18.253714
0
LINE
8
Image
10
72.077799
20
18.253714
11
74.098017
21
19.693104
0
LINE
8
Image
10
74.098017
20
19.693104
11
76.018451
21
21.259704
0
LINE
8
Image
10
76.018451
20
21.259704
11
77.833578
21
22.948033
0
LINE
8
Image
10
77.833578
20
22.948033
11
79.537876
21
24.752610
0
LINE
8
Image
10
79.537876
20
24.752610
11
81.125821
21
26.667956
0
LINE
8
Image
10
81.125821
20
26.667956
11
82.591891
21
28.688587
0
LINE
8
Image
10
82.591891
20
28.688587
11
83.930563
21
30.809024
0
LINE
8
Image
10
83.930563
20
30.809024
11
85.136315
21
33.023786
0
LINE
8
Image
10
85.136315
20
33.023786
11
86.203625
21
35.327391
0
LINE
8
Image
10
86.203625
20
35.327391
11
87.126969
21
37.714359
0
LINE
8
Image
10
87.126969
20
37.714359
11
87.900825
21
40.179208
0
LINE
8
Image
10
87.900825
20
40.179208
11
88.427554
21
42.235652
0
LINE
8
Image
10
88.427554
20
42.235652
11
88.715194
21
44.066741
0
LINE
8
Image
10
88.715194
20
44.066741
11
88.844225
21
49.823435
0
LINE
8
Image
10
88.844225
20
49.823435
11
88.671326
21
55.543307
0
LINE
8
Image
10
88.671326
20
55.543307
11
88.389466
21
57.414270
0
LINE
8
Image
10
88.389466
20
57.414270
11
87.897682
21
59.434759
0
LINE
8
Image
10
87.897682
20
59.434759
11
86.494244
21
63.540774
0
LINE
8
Image
10
86.494244
20
63.540774
11
84.532689
21
67.682298
0
LINE
8
Image
10
84.532689
20
67.682298
11
82.174796
21
71.559020
0
LINE
8
Image
10
82.174796
20
71.559020
11
79.582346
21
74.870627
0
LINE
8
Image
10
79.582346
20
74.870627
11
78.354702
21
76.027163
0
LINE
8
Image
10
78.354702
20
76.027163
11
78.125534
21
76.066187
0
LINE
8
Image
10
78.125534
20
76.066187
11
78.138930
21
75.790338
0
LINE
8
Image
10
78.138930
20
75.790338
11
78.851805
21
74.427899
0
LINE
8
Image
10
78.851805
20
74.427899
11
80.410102
21
72.207594
0
LINE
8
Image
10
80.410102
20
72.207594
11
82.879861
21
68.588388
0
LINE
8
Image
10
82.879861
20
68.588388
11
84.855693
21
64.828738
0
LINE
8
Image
10
84.855693
20
64.828738
11
86.376092
21
60.843369
0
LINE
8
Image
10
86.376092
20
60.843369
11
87.479551
21
56.547008
0
LINE
8
Image
10
87.479551
20
56.547008
11
87.913916
21
53.145923
0
LINE
8
Image
10
87.913916
20
53.145923
11
87.888281
21
48.449855
0
LINE
8
Image
10
87.888281
20
48.449855
11
87.600815
21
44.250927
0
LINE
8
Image
10
87.600815
20
44.250927
11
86.994338
21
40.763688
0
LINE
8
Image
10
86.994338
20
40.763688
11
85.934512
21
37.438949
0
LINE
8
Image
10
85.934512
20
37.438949
11
84.286997
21
33.727523
0
LINE
8
Image
10
84.286997
20
33.727523
11
82.445273
21
30.371685
0
LINE
8
Image
10
82.445273
20
30.371685
11
80.309829
21
27.267884
0
LINE
8
Image
10
80.309829
20
27.267884
11
77.896914
21
24.430129
0
LINE
8
Image
10
77.896914
20
24.430129
11
75.222776
21
21.872424
0
LINE
8
Image
10
75.222776
20
21.872424
11
72.303665
21
19.608777
0
LINE
8
Image
10
72.303665
20
19.608777
11
69.155829
21
17.653193
0
LINE
8
Image
10
69.155829
20
17.653193
11
65.795516
21
16.019679
0
LINE
8
Image
10
65.795516
20
16.019679
11
62.238976
21
14.722241
0
LINE
8
Image
10
62.238976
20
14.722241
11
58.613729
21
13.474529
0
LINE
8
Image
10
58.613729
20
13.474529
11
57.023496
21
12.676871
0
LINE
8
Image
10
57.023496
20
12.676871
11
57.048162
21
12.503456
0
LINE
8
Image
10
57.048162
20
12.503456
11
57.649566
21
12.510527
0
LINE
8
Image
10
57.649566
20
12.510527
11
60.673232
21
13.156759
0
LINE
8
Image
10
60.673232
20
13.156759
11
60.673232
21
13.156759
0
LINE
8
Image
10
90.795580
20
23.872182
11
90.917540
21
24.192678
0
LINE
8
Image
10
90.917540
20
24.192678
11
90.711966
21
24.590465
0
LINE
8
Image
10
90.711966
20
24.590465
11
89.004306
21
25.988846
0
LINE
8
Image
10
89.004306
20
25.988846
11
86.558003
21
27.598463
0
LINE
8
Image
10
86.558003
20
27.598463
11
86.032937
21
27.157469
0
LINE
8
Image
10
86.032937
20
27.157469
11
85.337181
21
26.159621
0
LINE
8
Image
10
85.337181
20
26.159621
11
84.769218
21
25.092624
0
LINE
8
Image
10
84.769218
20
25.092624
11
84.627531
21
24.444182
0
LINE
8
Image
10
84.627531
20
24.444182
11
84.965082
21
24.128327
0
LINE
8
Image
10
84.965082
20
24.128327
11
85.371450
21
24.114896
0
LINE
8
Image
10
85.371450
20
24.114896
11
85.810238
21
24.392511
0
LINE
8
Image
10
85.810238
20
24.392511
11
86.245046
21
24.949794
0
LINE
8
Image
10
86.245046
20
24.949794
11
86.778456
21
25.828900
0
LINE
8
Image
10
86.778456
20
25.828900
11
88.531615
21
24.616457
0
LINE
8
Image
10
88.531615
20
24.616457
11
90.329771
21
23.384574
0
LINE
8
Image
10
90.329771
20
23.384574
11
90.795580
21
23.872182
0
LINE
8
Image
10
90.795580
20
23.872182
11
90.795580
21
23.872182
0
LINE
8
Image
10
15.512015
20
24.583820
11
16.082308
21
25.435793
0
LINE
8
Image
10
16.082308
20
25.435793
11
16.353444
21
26.454482
0
LINE
8
Image
10
16.353444
20
26.454482
11
16.307295
21
27.475532
0
LINE
8
Image
10
16.307295
20
27.475532
11
15.925732
21
28.334589
0
LINE
8
Image
10
15.925732
20
28.334589
11
14.790674
21
29.258200
0
LINE
8
Image
10
14.790674
20
29.258200
11
14.123110
21
29.586922
0
LINE
8
Image
10
14.123110
20
29.586922
11
13.578897
21
29.715127
0
LINE
8
Image
10
13.578897
20
29.715127
11
13.222358
21
29.504786
0
LINE
8
Image
10
13.222358
20
29.504786
11
13.229164
21
29.012577
0
LINE
8
Image
10
13.229164
20
29.012577
11
13.537329
21
28.446718
0
LINE
8
Image
10
13.537329
20
28.446718
11
14.084870
21
28.015430
0
LINE
8
Image
10
14.084870
20
28.015430
11
14.571265
21
27.687481
0
LINE
8
Image
10
14.571265
20
27.687481
11
14.868830
21
27.264786
0
LINE
8
Image
10
14.868830
20
27.264786
11
14.988858
21
26.790025
0
LINE
8
Image
10
14.988858
20
26.790025
11
14.942641
21
26.305877
0
LINE
8
Image
10
14.942641
20
26.305877
11
14.741471
21
25.855023
0
LINE
8
Image
10
14.741471
20
25.855023
11
14.396642
21
25.480143
0
LINE
8
Image
10
14.396642
20
25.480143
11
13.919445
21
25.223916
0
LINE
8
Image
10
13.919445
20
25.223916
11
13.321172
21
25.129023
0
LINE
8
Image
10
13.321172
20
25.129023
11
12.719707
21
25.290722
0
LINE
8
Image
10
12.719707
20
25.290722
11
12.234270
21
25.734677
0
LINE
8
Image
10
12.234270
20
25.734677
11
11.909945
21
26.399172
0
LINE
8
Image
10
11.909945
20
26.399172
11
11.791818
21
27.222494
0
LINE
8
Image
10
11.791818
20
27.222494
11
11.634246
21
27.722058
0
LINE
8
Image
10
11.634246
20
27.722058
11
11.264640
21
27.937677
0
LINE
8
Image
10
11.264640
20
27.937677
11
10.837663
21
27.845402
0
LINE
8
Image
10
10.837663
20
27.845402
11
10.507979
21
27.421285
0
LINE
8
Image
10
10.507979
20
27.421285
11
10.409999
21
26.762504
0
LINE
8
Image
10
10.409999
20
26.762504
11
10.548680
21
26.006220
0
LINE
8
Image
10
10.548680
20
26.006220
11
10.899798
21
25.228308
0
LINE
8
Image
10
10.899798
20
25.228308
11
11.439131
21
24.504641
0
LINE
8
Image
10
11.439131
20
24.504641
11
12.346611
21
23.893803
0
LINE
8
Image
10
12.346611
20
23.893803
11
13.431681
21
23.705404
0
LINE
8
Image
10
13.431681
20
23.705404
11
14.538697
21
23.936418
0
LINE
8
Image
10
14.538697
20
23.936418
11
15.512015
21
24.583820
0
LINE
8
Image
10
15.512015
20
24.583820
11
15.512015
21
24.583820
0
LINE
8
Image
10
93.510652
20
29.140244
11
94.274362
21
30.081524
0
LINE
8
Image
10
94.274362
20
30.081524
11
94.482822
21
31.302625
0
LINE
8
Image
10
94.482822
20
31.302625
11
94.274362
21
32.523727
0
LINE
8
Image
10
94.274362
20
32.523727
11
93.510652
21
33.465007
0
LINE
8
Image
10
93.510652
20
33.465007
11
92.707040
21
34.024153
0
LINE
8
Image
10
92.707040
20
34.024153
11
91.927638
21
34.259023
0
LINE
8
Image
10
91.927638
20
34.259023
11
91.095484
21
34.176912
0
LINE
8
Image
10
91.095484
20
34.176912
11
90.133615
21
33.785115
0
LINE
8
Image
10
90.133615
20
33.785115
11
89.558613
21
33.390962
0
LINE
8
Image
10
89.558613
20
33.390962
11
89.120891
21
32.890929
0
LINE
8
Image
10
89.120891
20
32.890929
11
88.823767
21
32.311850
0
LINE
8
Image
10
88.823767
20
32.311850
11
88.670556
21
31.680557
0
LINE
8
Image
10
88.670556
20
31.680557
11
88.664576
21
31.023885
0
LINE
8
Image
10
88.664576
20
31.023885
11
88.809142
21
30.368666
0
LINE
8
Image
10
88.809142
20
30.368666
11
89.107572
21
29.741735
0
LINE
8
Image
10
89.107572
20
29.741735
11
89.563182
21
29.169925
0
LINE
8
Image
10
89.563182
20
29.169925
11
90.471082
21
28.540485
0
LINE
8
Image
10
90.471082
20
28.540485
11
91.476764
21
28.325386
0
LINE
8
Image
10
91.476764
20
28.325386
11
92.512523
21
28.525136
0
LINE
8
Image
10
92.512523
20
28.525136
11
93.510652
21
29.140244
0
LINE
8
Image
10
93.510652
20
29.140244
11
93.510652
21
29.140244
0
LINE
8
Image
10
90.531717
20
30.138460
11
90.257369
21
30.522372
0
LINE
8
Image
10
90.257369
20
30.522372
11
90.120565
21
30.958789
0
LINE
8
Image
10
90.120565
20
30.958789
11
90.212963
21
31.861298
0
LINE
8
Image
10
90.212963
20
31.861298
11
90.715652
21
32.590303
0
LINE
8
Image
10
90.715652
20
32.590303
11
91.091712
21
32.809842
0
LINE
8
Image
10
91.091712
20
32.809842
11
91.535373
21
32.890123
0
LINE
8
Image
10
91.535373
20
32.890123
11
92.133171
21
32.682446
0
LINE
8
Image
10
92.133171
20
32.682446
11
92.755511
21
32.183136
0
LINE
8
Image
10
92.755511
20
32.183136
11
93.089148
21
31.626928
0
LINE
8
Image
10
93.089148
20
31.626928
11
93.148795
21
31.065362
0
LINE
8
Image
10
93.148795
20
31.065362
11
92.984074
21
30.544064
0
LINE
8
Image
10
92.984074
20
30.544064
11
92.644607
21
30.108657
0
LINE
8
Image
10
92.644607
20
30.108657
11
92.180015
21
29.804768
0
LINE
8
Image
10
92.180015
20
29.804768
11
91.639922
21
29.678022
0
LINE
8
Image
10
91.639922
20
29.678022
11
91.073948
21
29.774045
0
LINE
8
Image
10
91.073948
20
29.774045
11
90.531717
21
30.138460
0
LINE
8
Image
10
90.531717
20
30.138460
11
90.531717
21
30.138460
0
LINE
8
Image
10
10.906163
20
31.692917
11
12.528253
21
32.483191
0
LINE
8
Image
10
12.528253
20
32.483191
11
13.202927
21
33.092058
0
LINE
8
Image
10
13.202927
20
33.092058
11
13.010210
21
33.929415
0
LINE
8
Image
10
13.010210
20
33.929415
11
12.548695
21
34.909981
0
LINE
8
Image
10
12.548695
20
34.909981
11
11.993334
21
35.724851
0
LINE
8
Image
10
11.993334
20
35.724851
11
11.519082
21
36.065119
0
LINE
8
Image
10
11.519082
20
36.065119
11
11.292721
21
35.998540
0
LINE
8
Image
10
11.292721
20
35.998540
11
11.178597
21
35.772640
0
LINE
8
Image
10
11.178597
20
35.772640
11
11.257262
21
34.685914
0
LINE
8
Image
10
11.257262
20
34.685914
11
11.318474
21
33.496546
0
LINE
8
Image
10
11.318474
20
33.496546
11
11.111864
21
33.232830
0
LINE
8
Image
10
11.111864
20
33.232830
11
10.701638
21
33.056403
0
LINE
8
Image
10
10.701638
20
33.056403
11
8.341141
21
32.107514
0
LINE
8
Image
10
8.341141
20
32.107514
11
7.846624
21
31.692789
0
LINE
8
Image
10
7.846624
20
31.692789
11
7.783729
21
31.302533
0
LINE
8
Image
10
7.783729
20
31.302533
11
8.009072
21
30.916261
0
LINE
8
Image
10
8.009072
20
30.916261
11
8.442505
21
30.832303
0
LINE
8
Image
10
8.442505
20
30.832303
11
10.906163
21
31.692917
0
LINE
8
Image
10
10.906163
20
31.692917
11
10.906163
21
31.692917
0
LINE
8
Image
10
10.416182
20
38.037498
11
10.908607
21
38.770151
0
LINE
8
Image
10
10.908607
20
38.770151
11
11.059017
21
39.669440
0
LINE
8
Image
10
11.059017
20
39.669440
11
10.870434
21
40.591287
0
LINE
8
Image
10
10.870434
20
40.591287
11
10.345876
21
41.391612
0
LINE
8
Image
10
10.345876
20
41.391612
11
9.906121
21
41.761948
0
LINE
8
Image
10
9.906121
20
41.761948
11
9.446250
21
41.951966
0
LINE
8
Image
10
9.446250
20
41.951966
11
7.996864
21
41.890771
0
LINE
8
Image
10
7.996864
20
41.890771
11
6.462662
21
41.606504
0
LINE
8
Image
10
6.462662
20
41.606504
11
5.475740
21
41.286462
0
LINE
8
Image
10
5.475740
20
41.286462
11
4.992329
21
40.909910
0
LINE
8
Image
10
4.992329
20
40.909910
11
4.968661
21
40.456110
0
LINE
8
Image
10
4.968661
20
40.456110
11
5.133015
21
40.187709
0
LINE
8
Image
10
5.133015
20
40.187709
11
5.401000
21
40.054405
0
LINE
8
Image
10
5.401000
20
40.054405
11
6.461227
21
40.149220
0
LINE
8
Image
10
6.461227
20
40.149220
11
7.926989
21
40.402470
0
LINE
8
Image
10
7.926989
20
40.402470
11
8.870756
21
40.423545
0
LINE
8
Image
10
8.870756
20
40.423545
11
9.396332
21
40.198000
0
LINE
8
Image
10
9.396332
20
40.198000
11
9.607526
21
39.711388
0
LINE
8
Image
10
9.607526
20
39.711388
11
9.626540
21
39.237495
0
LINE
8
Image
10
9.626540
20
39.237495
11
9.350504
21
38.918470
0
LINE
8
Image
10
9.350504
20
38.918470
11
6.936640
21
38.187975
0
LINE
8
Image
10
6.936640
20
38.187975
11
5.751687
21
37.752809
0
LINE
8
Image
10
5.751687
20
37.752809
11
5.650227
21
37.499207
0
LINE
8
Image
10
5.650227
20
37.499207
11
5.786016
21
37.139496
0
LINE
8
Image
10
5.786016
20
37.139496
11
6.025905
21
36.790292
0
LINE
8
Image
10
6.025905
20
36.790292
11
6.359639
21
36.652221
0
LINE
8
Image
10
6.359639
20
36.652221
11
7.942643
21
36.955341
0
LINE
8
Image
10
7.942643
20
36.955341
11
9.413170
21
37.469468
0
LINE
8
Image
10
9.413170
20
37.469468
11
10.416182
21
38.037498
0
LINE
8
Image
10
10.416182
20
38.037498
11
10.416182
21
38.037498
0
LINE
8
Image
10
96.100538
20
36.767966
11
96.667897
21
37.375405
0
LINE
8
Image
10
96.667897
20
37.375405
11
97.147010
21
38.348556
0
LINE
8
Image
10
97.147010
20
38.348556
11
97.400303
21
39.321810
0
LINE
8
Image
10
97.400303
20
39.321810
11
97.290201
21
39.929558
0
LINE
8
Image
10
97.290201
20
39.929558
11
94.813934
21
40.725567
0
LINE
8
Image
10
94.813934
20
40.725567
11
92.106232
21
41.356779
0
LINE
8
Image
10
92.106232
20
41.356779
11
91.545498
21
39.726406
0
LINE
8
Image
10
91.545498
20
39.726406
11
91.312749
21
38.257331
0
LINE
8
Image
10
91.312749
20
38.257331
11
91.445105
21
37.822362
0
LINE
8
Image
10
91.445105
20
37.822362
11
91.760094
21
37.405275
0
LINE
8
Image
10
91.760094
20
37.405275
11
92.453747
21
36.926776
0
LINE
8
Image
10
92.453747
20
36.926776
11
93.291886
21
36.895846
0
LINE
8
Image
10
93.291886
20
36.895846
11
94.082780
21
36.928668
0
LINE
8
Image
10
94.082780
20
36.928668
11
94.711102
21
36.752940
0
LINE
8
Image
10
94.711102
20
36.752940
11
95.351321
21
36.450953
0
LINE
8
Image
10
95.351321
20
36.450953
11
96.100538
21
36.767968
0
LINE
8
Image
10
96.100538
20
36.767968
11
96.100538
21
36.767966
0
LINE
8
Image
10
94.874434
20
38.176029
11
94.783055
21
38.519900
0
LINE
8
Image
10
94.783055
20
38.519900
11
94.871434
21
38.865946
0
LINE
8
Image
10
94.871434
20
38.865946
11
95.097922
21
39.133054
0
LINE
8
Image
10
95.097922
20
39.133054
11
95.420864
21
39.240115
0
LINE
8
Image
10
95.420864
20
39.240115
11
95.662770
21
39.086785
0
LINE
8
Image
10
95.662770
20
39.086785
11
95.744297
21
38.729595
0
LINE
8
Image
10
95.744297
20
38.729595
11
95.664994
21
38.322752
0
LINE
8
Image
10
95.664994
20
38.322752
11
95.424410
21
38.020459
0
LINE
8
Image
10
95.424410
20
38.020459
11
95.127386
21
37.982437
0
LINE
8
Image
10
95.127386
20
37.982437
11
94.874423
21
38.176029
0
LINE
8
Image
10
94.874423
20
38.176029
11
94.874434
21
38.176029
0
LINE
8
Image
10
92.577825
20
38.887339
11
92.732165
21
39.387106
0
LINE
8
Image
10
92.732165
20
39.387106
11
93.106991
21
39.592892
0
LINE
8
Image
10
93.106991
20
39.592892
11
93.481816
21
39.387106
0
LINE
8
Image
10
93.481816
20
39.387106
11
93.636157
21
38.887339
0
LINE
8
Image
10
93.636157
20
38.887339
11
93.481816
21
38.387571
0
LINE
8
Image
10
93.481816
20
38.387571
11
93.106991
21
38.181783
0
LINE
8
Image
10
93.106991
20
38.181783
11
92.732165
21
38.387571
0
LINE
8
Image
10
92.732165
20
38.387571
11
92.577825
21
38.887339
0
LINE
8
Image
10
92.577825
20
38.887339
11
92.577825
21
38.887339
0
LINE
8
Image
10
98.226145
20
43.914416
11
98.448691
21
46.031080
0
LINE
8
Image
10
98.448691
20
46.031080
11
98.507633
21
47.136245
0
LINE
8
Image
10
98.507633
20
47.136245
11
98.310076
21
47.313680
0
LINE
8
Image
10
98.310076
20
47.313680
11
97.915644
21
47.353995
0
LINE
8
Image
10
97.915644
20
47.353995
11
97.377409
21
47.203716
0
LINE
8
Image
10
97.377409
20
47.203716
11
97.163929
21
46.824829
0
LINE
8
Image
10
97.163929
20
46.824829
11
97.059198
21
46.566606
0
LINE
8
Image
10
97.059198
20
46.566606
11
96.693560
21
46.404210
0
LINE
8
Image
10
96.693560
20
46.404210
11
94.870878
21
46.295663
0
LINE
8
Image
10
94.870878
20
46.295663
11
93.077547
21
46.188568
0
LINE
8
Image
10
93.077547
20
46.188568
11
92.693563
21
46.036968
0
LINE
8
Image
10
92.693563
20
46.036968
11
92.577825
21
45.804240
0
LINE
8
Image
10
92.577825
20
45.804240
11
92.729439
21
45.385833
0
LINE
8
Image
10
92.729439
20
45.385833
11
93.205021
21
45.100213
0
LINE
8
Image
10
93.205021
20
45.100213
11
94.035675
21
44.936684
0
LINE
8
Image
10
94.035675
20
44.936684
11
95.252507
21
44.884552
0
LINE
8
Image
10
95.252507
20
44.884552
11
96.567094
21
44.746454
0
LINE
8
Image
10
96.567094
20
44.746454
11
96.768338
21
44.481146
0
LINE
8
Image
10
96.768338
20
44.481146
11
96.811153
21
44.002609
0
LINE
8
Image
10
96.811153
20
44.002609
11
96.969902
21
43.319104
0
LINE
8
Image
10
96.969902
20
43.319104
11
97.516708
21
43.120667
0
LINE
8
Image
10
97.516708
20
43.120667
11
98.056161
21
43.308565
0
LINE
8
Image
10
98.056161
20
43.308565
11
98.226145
21
43.914416
0
LINE
8
Image
10
98.226145
20
43.914416
11
98.226145
21
43.914416
0
LINE
8
Image
10
9.963951
20
46.585212
11
9.891291
21
47.672757
0
LINE
8
Image
10
9.891291
20
47.672757
11
9.506283
21
48.593885
0
LINE
8
Image
10
9.506283
20
48.593885
11
8.884206
21
49.232039
0
LINE
8
Image
10
8.884206
20
49.232039
11
8.100342
21
49.470659
0
LINE
8
Image
10
8.100342
20
49.470659
11
7.439884
21
49.376758
0
LINE
8
Image
10
7.439884
20
49.376758
11
7.049792
21
49.151000
0
LINE
8
Image
10
7.049792
20
49.151000
11
6.699705
21
48.980304
0
LINE
8
Image
10
6.699705
20
48.980304
11
6.135430
21
49.018788
0
LINE
8
Image
10
6.135430
20
49.018788
11
5.332150
21
48.986345
0
LINE
8
Image
10
5.332150
20
48.986345
11
4.661368
21
48.508442
0
LINE
8
Image
10
4.661368
20
48.508442
11
4.201439
21
47.675889
0
LINE
8
Image
10
4.201439
20
47.675889
11
4.030717
21
46.579497
0
LINE
8
Image
10
4.030717
20
46.579497
11
4.030717
21
45.208796
0
LINE
8
Image
10
4.030717
20
45.208796
11
6.941130
21
45.311258
0
LINE
8
Image
10
6.941130
20
45.311258
11
9.851543
21
45.413718
0
LINE
8
Image
10
9.851543
20
45.413718
11
9.963951
21
46.585212
0
LINE
8
Image
10
5.441825
20
47.207003
11
5.563896
21
47.539990
0
LINE
8
Image
10
5.563896
20
47.539990
11
5.848804
21
47.616098
0
LINE
8
Image
10
5.848804
20
47.616098
11
6.174595
21
47.452747
0
LINE
8
Image
10
6.174595
20
47.452747
11
6.419314
21
47.067362
0
LINE
8
Image
10
6.419314
20
47.067362
11
6.353856
21
46.771498
0
LINE
8
Image
10
6.353856
20
46.771498
11
6.000389
21
46.648439
0
LINE
8
Image
10
6.000389
20
46.648439
11
5.605904
21
46.812517
0
LINE
8
Image
10
5.605904
20
46.812517
11
5.441825
21
47.207003
0
LINE
8
Image
10
5.441825
20
47.207003
11
5.441825
21
47.207003
0
LINE
8
Image
10
7.558489
20
47.353995
11
7.712830
21
47.853762
0
LINE
8
Image
10
7.712830
20
47.853762
11
8.087655
21
48.059548
0
LINE
8
Image
10
8.087655
20
48.059548
11
8.462481
21
47.853762
0
LINE
8
Image
10
8.462481
20
47.853762
11
8.616821
21
47.353995
0
LINE
8
Image
10
8.616821
20
47.353995
11
8.462481
21
46.854227
0
LINE
8
Image
10
8.462481
20
46.854227
11
8.087655
21
46.648439
0
LINE
8
Image
10
8.087655
20
46.648439
11
7.712830
21
46.854227
0
LINE
8
Image
10
7.712830
20
46.854227
11
7.558489
21
47.353995
0
LINE
8
Image
10
7.558489
20
47.353995
11
7.558489
21
47.353995
0
LINE
8
Image
10
98.575040
20
50.881767
11
98.508721
21
51.256765
0
LINE
8
Image
10
98.508721
20
51.256765
11
98.220879
21
51.469883
0
LINE
8
Image
10
98.220879
20
51.469883
11
96.447303
21
51.587323
0
LINE
8
Image
10
96.447303
20
51.587323
11
94.735007
21
51.707228
0
LINE
8
Image
10
94.735007
20
51.707228
11
94.314687
21
51.877713
0
LINE
8
Image
10
94.314687
20
51.877713
11
94.107408
21
52.140201
0
LINE
8
Image
10
94.107408
20
52.140201
11
94.058942
21
52.703539
0
LINE
8
Image
10
94.058942
20
52.703539
11
94.416709
21
53.129143
0
LINE
8
Image
10
94.416709
20
53.129143
11
95.202376
21
53.430794
0
LINE
8
Image
10
95.202376
20
53.430794
11
96.437609
21
53.622270
0
LINE
8
Image
10
96.437609
20
53.622270
11
97.891397
21
53.893762
0
LINE
8
Image
10
97.891397
20
53.893762
11
98.153957
21
54.135414
0
LINE
8
Image
10
98.153957
20
54.135414
11
98.222261
21
54.504679
0
LINE
8
Image
10
98.222261
20
54.504679
11
98.165952
21
54.888812
0
LINE
8
Image
10
98.165952
20
54.888812
11
97.888366
21
55.073981
0
LINE
8
Image
10
97.888366
20
55.073981
11
96.017404
21
54.991323
0
LINE
8
Image
10
96.017404
20
54.991323
11
94.462589
21
54.705675
0
LINE
8
Image
10
94.462589
20
54.705675
11
93.393276
21
54.200148
0
LINE
8
Image
10
93.393276
20
54.200148
11
92.776132
21
53.449925
0
LINE
8
Image
10
92.776132
20
53.449925
11
92.577825
21
52.430184
0
LINE
8
Image
10
92.577825
20
52.430184
11
92.797195
21
51.421911
0
LINE
8
Image
10
92.797195
20
51.421911
11
93.471492
21
50.720007
0
LINE
8
Image
10
93.471492
20
50.720007
11
94.624996
21
50.309698
0
LINE
8
Image
10
94.624996
20
50.309698
11
96.281987
21
50.176212
0
LINE
8
Image
10
96.281987
20
50.176212
11
98.200214
21
50.291543
0
LINE
8
Image
10
98.200214
20
50.291543
11
98.506138
21
50.504397
0
LINE
8
Image
10
98.506138
20
50.504397
11
98.575040
21
50.881767
0
LINE
8
Image
10
98.575040
20
50.881767
11
98.575040
21
50.881767
0
LINE
8
Image
10
100.272546
20
52.200632
11
100.000163
21
52.677357
0
LINE
8
Image
10
100.000163
20
52.677357
11
99.544831
21
52.924071
0
LINE
8
Image
10
99.544831
20
52.924071
11
99.117174
21
52.890039
0
LINE
8
Image
10
99.117174
20
52.890039
11
98.927817
21
52.524531
0
LINE
8
Image
10
98.927817
20
52.524531
11
99.010728
21
52.187572
0
LINE
8
Image
10
99.010728
20
52.187572
11
99.246613
21
51.913727
0
LINE
8
Image
10
99.246613
20
51.913727
11
100.100210
21
51.615173
0
LINE
8
Image
10
100.100210
20
51.615173
11
100.270645
21
51.775663
0
LINE
8
Image
10
100.270645
20
51.775663
11
100.272546
21
52.200632
0
LINE
8
Image
10
100.272546
20
52.200632
11
100.272546
21
52.200632
0
LINE
8
Image
10
10.380708
20
57.183058
11
10.289237
21
57.521795
0
LINE
8
Image
10
10.289237
20
57.521795
11
9.970192
21
57.787469
0
LINE
8
Image
10
9.970192
20
57.787469
11
8.381597
21
58.241390
0
LINE
8
Image
10
8.381597
20
58.241390
11
6.582383
21
58.557634
0
LINE
8
Image
10
6.582383
20
58.557634
11
5.454194
21
58.631172
0
LINE
8
Image
10
5.454194
20
58.631172
11
4.894982
21
58.455849
0
LINE
8
Image
10
4.894982
20
58.455849
11
4.802699
21
58.025508
0
LINE
8
Image
10
4.802699
20
58.025508
11
4.972014
21
57.718370
0
LINE
8
Image
10
4.972014
20
57.718370
11
5.375853
21
57.457160
0
LINE
8
Image
10
5.375853
20
57.457160
11
7.033424
21
57.005628
0
LINE
8
Image
10
7.033424
20
57.005628
11
9.854663
21
56.596194
0
LINE
8
Image
10
9.854663
20
56.596194
11
10.288044
21
56.758911
0
LINE
8
Image
10
10.288044
20
56.758911
11
10.380708
21
57.183058
0
LINE
8
Image
10
10.380708
20
57.183058
11
10.380708
21
57.183058
0
LINE
8
Image
10
95.400044
20
58.995647
11
95.495438
21
59.743094
0
LINE
8
Image
10
95.495438
20
59.743094
11
95.724791
21
60.053979
0
LINE
8
Image
10
95.724791
20
60.053979
11
96.022426
21
59.743094
0
LINE
8
Image
10
96.022426
20
59.743094
11
96.281987
21
58.995647
0
LINE
8
Image
10
96.281987
20
58.995647
11
96.531872
21
58.366422
0
LINE
8
Image
10
96.531872
20
58.366422
11
96.899281
21
57.996459
0
LINE
8
Image
10
96.899281
20
57.996459
11
97.300482
21
57.932975
0
LINE
8
Image
10
97.300482
20
57.932975
11
97.651746
21
58.223189
0
LINE
8
Image
10
97.651746
20
58.223189
11
97.663581
21
58.870043
0
LINE
8
Image
10
97.663581
20
58.870043
11
97.443942
21
60.023808
0
LINE
8
Image
10
97.443942
20
60.023808
11
97.059458
21
61.538557
0
LINE
8
Image
10
97.059458
20
61.538557
11
95.612390
21
61.311132
0
LINE
8
Image
10
95.612390
20
61.311132
11
93.710576
21
60.961000
0
LINE
8
Image
10
93.710576
20
60.961000
11
92.439379
21
60.600050
0
LINE
8
Image
10
92.439379
20
60.600050
11
91.749328
21
60.209319
0
LINE
8
Image
10
91.749328
20
60.209319
11
91.590946
21
59.769846
0
LINE
8
Image
10
91.590946
20
59.769846
11
91.702806
21
59.496997
0
LINE
8
Image
10
91.702806
20
59.496997
11
91.926357
21
59.330937
0
LINE
8
Image
10
91.926357
20
59.330937
11
92.800955
21
59.281907
0
LINE
8
Image
10
92.800955
20
59.281907
11
93.709615
21
59.219861
0
LINE
8
Image
10
93.709615
20
59.219861
11
93.942650
21
59.014194
0
LINE
8
Image
10
93.942650
20
59.014194
11
94.085482
21
58.664545
0
LINE
8
Image
10
94.085482
20
58.664545
11
94.419519
21
58.049605
0
LINE
8
Image
10
94.419519
20
58.049605
11
94.857107
21
57.926796
0
LINE
8
Image
10
94.857107
20
57.926796
11
95.237523
21
58.255637
0
LINE
8
Image
10
95.237523
20
58.255637
11
95.400044
21
58.995647
0
LINE
8
Image
10
95.400044
20
58.995647
11
95.400044
21
58.995647
0
LINE
8
Image
10
11.437242
20
61.729670
11
11.081236
21
62.326893
0
LINE
8
Image
10
11.081236
20
62.326893
11
10.117269
21
62.889555
0
LINE
8
Image
10
10.117269
20
62.889555
11
8.799093
21
63.432077
0
LINE
8
Image
10
8.799093
20
63.432077
11
10.732111
21
64.126948
0
LINE
8
Image
10
10.732111
20
64.126948
11
12.284067
21
64.821390
0
LINE
8
Image
10
12.284067
20
64.821390
11
12.650440
21
65.139996
0
LINE
8
Image
10
12.650440
20
65.139996
11
12.741704
21
65.453205
0
LINE
8
Image
10
12.741704
20
65.453205
11
12.556329
21
65.771277
0
LINE
8
Image
10
12.556329
20
65.771277
11
12.092786
21
66.104470
0
LINE
8
Image
10
12.092786
20
66.104470
11
10.325079
21
66.857260
0
LINE
8
Image
10
10.325079
20
66.857260
11
8.436851
21
67.449736
0
LINE
8
Image
10
8.436851
20
67.449736
11
7.487121
21
67.594581
0
LINE
8
Image
10
7.487121
20
67.594581
11
7.197921
21
67.233214
0
LINE
8
Image
10
7.197921
20
67.233214
11
7.287420
21
66.802425
0
LINE
8
Image
10
7.287420
20
66.802425
11
7.715097
21
66.369859
0
LINE
8
Image
10
7.715097
20
66.369859
11
8.440432
21
66.003159
0
LINE
8
Image
10
8.440432
20
66.003159
11
9.312454
21
65.618489
0
LINE
8
Image
10
9.312454
20
65.618489
11
9.675153
21
65.320617
0
LINE
8
Image
10
9.675153
20
65.320617
11
9.204636
21
65.022162
0
LINE
8
Image
10
9.204636
20
65.022162
11
8.073394
21
64.636091
0
LINE
8
Image
10
8.073394
20
64.636091
11
6.969084
21
64.185902
0
LINE
8
Image
10
6.969084
20
64.185902
11
6.201284
21
63.617572
0
LINE
8
Image
10
6.201284
20
63.617572
11
5.906281
21
63.073718
0
LINE
8
Image
10
5.906281
20
63.073718
11
5.978668
21
62.855538
0
LINE
8
Image
10
5.978668
20
62.855538
11
6.220361
21
62.696959
0
LINE
8
Image
10
6.220361
20
62.696959
11
8.979236
21
61.707232
0
LINE
8
Image
10
8.979236
20
61.707232
11
10.557187
21
61.255260
0
LINE
8
Image
10
10.557187
20
61.255260
11
11.270946
21
61.282315
0
LINE
8
Image
10
11.270946
20
61.282315
11
11.437242
21
61.729670
0
LINE
8
Image
10
11.437242
20
61.729670
11
11.437242
21
61.729670
0
LINE
8
Image
10
90.280265
20
66.749455
11
90.313045
21
67.213980
0
LINE
8
Image
10
90.313045
20
67.213980
11
90.092014
21
67.845662
0
LINE
8
Image
10
90.092014
20
67.845662
11
89.878880
21
68.496896
0
LINE
8
Image
10
89.878880
20
68.496896
11
90.043019
21
68.949159
0
LINE
8
Image
10
90.043019
20
68.949159
11
90.407070
21
69.027885
0
LINE
8
Image
10
90.407070
20
69.027885
11
90.793667
21
68.558507
0
LINE
8
Image
10
90.793667
20
68.558507
11
91.234695
21
68.033462
0
LINE
8
Image
10
91.234695
20
68.033462
11
91.736324
21
67.815079
0
LINE
8
Image
10
91.736324
20
67.815079
11
91.988374
21
67.865217
0
LINE
8
Image
10
91.988374
20
67.865217
11
92.118148
21
68.036975
0
LINE
8
Image
10
92.118148
20
68.036975
11
92.048659
21
68.873411
0
LINE
8
Image
10
92.048659
20
68.873411
11
91.994296
21
69.631386
0
LINE
8
Image
10
91.994296
20
69.631386
11
92.198629
21
69.925517
0
LINE
8
Image
10
92.198629
20
69.925517
11
92.564510
21
69.737692
0
LINE
8
Image
10
92.564510
20
69.737692
11
92.994791
21
69.049801
0
LINE
8
Image
10
92.994791
20
69.049801
11
93.565852
21
68.251625
0
LINE
8
Image
10
93.565852
20
68.251625
11
93.819732
21
68.165768
0
LINE
8
Image
10
93.819732
20
68.165768
11
94.025552
21
68.261147
0
LINE
8
Image
10
94.025552
20
68.261147
11
94.212121
21
68.912854
0
LINE
8
Image
10
94.212121
20
68.912854
11
93.963790
21
70.041230
0
LINE
8
Image
10
93.963790
20
70.041230
11
93.436713
21
71.219886
0
LINE
8
Image
10
93.436713
20
71.219886
11
93.181089
21
71.541026
0
LINE
8
Image
10
93.181089
20
71.541026
11
92.878940
21
71.694447
0
LINE
8
Image
10
92.878940
20
71.694447
11
91.979670
21
71.531352
0
LINE
8
Image
10
91.979670
20
71.531352
11
90.428101
21
70.797038
0
LINE
8
Image
10
90.428101
20
70.797038
11
87.991720
21
69.384088
0
LINE
8
Image
10
87.991720
20
69.384088
11
88.704443
21
67.801025
0
LINE
8
Image
10
88.704443
20
67.801025
11
89.194366
21
66.956376
0
LINE
8
Image
10
89.194366
20
66.956376
11
89.608294
21
66.507585
0
LINE
8
Image
10
89.608294
20
66.507585
11
89.964252
21
66.442620
0
LINE
8
Image
10
89.964252
20
66.442620
11
90.280265
21
66.749455
0
LINE
8
Image
10
90.280265
20
66.749455
11
90.280265
21
66.749455
0
LINE
8
Image
10
15.113763
20
70.158623
11
15.239701
21
70.812553
0
LINE
8
Image
10
15.239701
20
70.812553
11
13.468985
21
71.853050
0
LINE
8
Image
10
13.468985
20
71.853050
11
12.129814
21
72.798517
0
LINE
8
Image
10
12.129814
20
72.798517
11
11.956422
21
73.193622
0
LINE
8
Image
10
11.956422
20
73.193622
11
12.007926
21
73.668563
0
LINE
8
Image
10
12.007926
20
73.668563
11
12.043286
21
74.344159
0
LINE
8
Image
10
12.043286
20
74.344159
11
11.564873
21
74.517848
0
LINE
8
Image
10
11.564873
20
74.517848
11
10.944448
21
74.117713
0
LINE
8
Image
10
10.944448
20
74.117713
11
10.202697
21
73.164190
0
LINE
8
Image
10
10.202697
20
73.164190
11
9.581165
21
72.027601
0
LINE
8
Image
10
9.581165
20
72.027601
11
9.321395
21
71.078269
0
LINE
8
Image
10
9.321395
20
71.078269
11
9.477436
21
70.744713
0
LINE
8
Image
10
9.477436
20
70.744713
11
9.845761
21
70.650756
0
LINE
8
Image
10
9.845761
20
70.650756
11
10.279652
21
70.788407
0
LINE
8
Image
10
10.279652
20
70.788407
11
10.632391
21
71.149677
0
LINE
8
Image
10
10.632391
20
71.149677
11
10.847257
21
71.367892
0
LINE
8
Image
10
10.847257
20
71.367892
11
11.197560
21
71.369373
0
LINE
8
Image
10
11.197560
20
71.369373
11
12.678390
21
70.626528
0
LINE
8
Image
10
12.678390
20
70.626528
11
14.559049
21
69.652684
0
LINE
8
Image
10
14.559049
20
69.652684
11
14.899761
21
69.740353
0
LINE
8
Image
10
14.899761
20
69.740353
11
15.113763
21
70.158623
0
LINE
8
Image
10
15.113763
20
70.158623
11
15.113763
21
70.158623
0
LINE
8
Image
10
89.178864
20
73.485122
11
89.879024
21
74.369849
0
LINE
8
Image
10
89.879024
20
74.369849
11
90.128263
21
75.481721
0
LINE
8
Image
10
90.128263
20
75.481721
11
89.924035
21
76.689544
0
LINE
8
Image
10
89.924035
20
76.689544
11
89.263795
21
77.862127
0
LINE
8
Image
10
89.263795
20
77.862127
11
88.422710
21
78.913349
0
LINE
8
Image
10
88.422710
20
78.913349
11
86.355134
21
77.457275
0
LINE
8
Image
10
86.355134
20
77.457275
11
84.864451
21
76.278698
0
LINE
8
Image
10
84.864451
20
76.278698
11
84.183873
21
75.489801
0
LINE
8
Image
10
84.183873
20
75.489801
11
84.415845
21
74.801912
0
LINE
8
Image
10
84.415845
20
74.801912
11
85.119161
21
73.866182
0
LINE
8
Image
10
85.119161
20
73.866182
11
86.083237
21
73.094391
0
LINE
8
Image
10
86.083237
20
73.094391
11
87.098213
21
72.772022
0
LINE
8
Image
10
87.098213
20
72.772022
11
88.138588
21
72.901468
0
LINE
8
Image
10
88.138588
20
72.901468
11
89.178864
21
73.485122
0
LINE
8
Image
10
89.178864
20
73.485122
11
89.178864
21
73.485122
0
LINE
8
Image
10
86.264620
20
74.487646
11
85.948002
21
74.860739
0
LINE
8
Image
10
85.948002
20
74.860739
11
86.011563
21
75.316736
0
LINE
8
Image
10
86.011563
20
75.316736
11
86.442819
21
75.831154
0
LINE
8
Image
10
86.442819
20
75.831154
11
87.229287
21
76.379512
0
LINE
8
Image
10
87.229287
20
76.379512
11
88.218366
21
76.823284
0
LINE
8
Image
10
88.218366
20
76.823284
11
88.460998
21
76.673395
0
LINE
8
Image
10
88.460998
20
76.673395
11
88.707851
21
76.261971
0
LINE
8
Image
10
88.707851
20
76.261971
11
88.862473
21
75.769364
0
LINE
8
Image
10
88.862473
20
75.769364
11
88.816528
21
75.303928
0
LINE
8
Image
10
88.816528
20
75.303928
11
88.604581
21
74.890766
0
LINE
8
Image
10
88.604581
20
74.890766
11
88.261199
21
74.554981
0
LINE
8
Image
10
88.261199
20
74.554981
11
87.318387
21
74.215947
0
LINE
8
Image
10
87.318387
20
74.215947
11
86.788090
21
74.262904
0
LINE
8
Image
10
86.788090
20
74.262904
11
86.264620
21
74.487646
0
LINE
8
Image
10
86.264620
20
74.487646
11
86.264620
21
74.487646
0
LINE
8
Image
10
18.814965
20
75.535273
11
19.619661
21
76.743529
0
LINE
8
Image
10
19.619661
20
76.743529
11
19.611358
21
77.068107
0
LINE
8
Image
10
19.611358
20
77.068107
11
19.371690
21
77.344084
0
LINE
8
Image
10
19.371690
20
77.344084
11
19.075577
21
77.528254
0
LINE
8
Image
10
19.075577
20
77.528254
11
18.804554
21
77.522422
0
LINE
8
Image
10
18.804554
20
77.522422
11
18.111477
21
76.852465
0
LINE
8
Image
10
18.111477
20
76.852465
11
17.483140
21
76.250644
0
LINE
8
Image
10
17.483140
20
76.250644
11
17.045753
21
76.143030
0
LINE
8
Image
10
17.045753
20
76.143030
11
16.926607
21
76.477691
0
LINE
8
Image
10
16.926607
20
76.477691
11
17.252993
21
77.202698
0
LINE
8
Image
10
17.252993
20
77.202698
11
17.635661
21
77.955753
0
LINE
8
Image
10
17.635661
20
77.955753
11
17.542051
21
78.131929
0
LINE
8
Image
10
17.542051
20
78.131929
11
17.259023
21
78.271151
0
LINE
8
Image
10
17.259023
20
78.271151
11
16.681437
21
78.253217
0
LINE
8
Image
10
16.681437
20
78.253217
11
16.071573
21
77.911249
0
LINE
8
Image
10
16.071573
20
77.911249
11
15.539965
21
77.556967
0
LINE
8
Image
10
15.539965
20
77.556967
11
15.230940
21
77.582131
0
LINE
8
Image
10
15.230940
20
77.582131
11
15.201446
21
77.924850
0
LINE
8
Image
10
15.201446
20
77.924850
11
15.508435
21
78.523235
0
LINE
8
Image
10
15.508435
20
78.523235
11
16.027112
21
79.626408
0
LINE
8
Image
10
16.027112
20
79.626408
11
15.994642
21
79.955173
0
LINE
8
Image
10
15.994642
20
79.955173
11
15.807254
21
80.122447
0
LINE
8
Image
10
15.807254
20
80.122447
11
15.494663
21
80.118521
0
LINE
8
Image
10
15.494663
20
80.118521
11
15.086584
21
79.933687
0
LINE
8
Image
10
15.086584
20
79.933687
11
14.102824
21
78.982461
0
LINE
8
Image
10
14.102824
20
78.982461
11
13.202927
21
77.599933
0
LINE
8
Image
10
13.202927
20
77.599933
11
15.228483
21
75.790228
0
LINE
8
Image
10
15.228483
20
75.790228
11
17.494806
21
74.167693
0
LINE
8
Image
10
17.494806
20
74.167693
11
18.814965
21
75.535273
0
LINE
8
Image
10
18.814965
20
75.535273
11
18.814965
21
75.535273
0
LINE
8
Image
10
22.654890
20
79.877594
11
22.820713
21
80.121297
0
LINE
8
Image
10
22.820713
20
80.121297
11
22.821742
21
80.389240
0
LINE
8
Image
10
22.821742
20
80.389240
11
22.284474
21
81.152534
0
LINE
8
Image
10
22.284474
20
81.152534
11
21.493194
21
82.006611
0
LINE
8
Image
10
21.493194
20
82.006611
11
23.004699
21
81.756933
0
LINE
8
Image
10
23.004699
20
81.756933
11
24.275714
21
81.677588
0
LINE
8
Image
10
24.275714
20
81.677588
11
25.049866
21
81.950156
0
LINE
8
Image
10
25.049866
20
81.950156
11
25.323892
21
82.346441
0
LINE
8
Image
10
25.323892
20
82.346441
11
25.161074
21
82.671992
0
LINE
8
Image
10
25.161074
20
82.671992
11
24.604699
21
82.893861
0
LINE
8
Image
10
24.604699
20
82.893861
11
23.698053
21
82.979102
0
LINE
8
Image
10
23.698053
20
82.979102
11
22.922146
21
83.145870
0
LINE
8
Image
10
22.922146
20
83.145870
11
22.770435
21
83.395224
0
LINE
8
Image
10
22.770435
20
83.395224
11
22.727915
21
83.795892
0
LINE
8
Image
10
22.727915
20
83.795892
11
22.648203
21
84.408873
0
LINE
8
Image
10
22.648203
20
84.408873
11
22.423374
21
84.882523
0
LINE
8
Image
10
22.423374
20
84.882523
11
22.074894
21
85.212265
0
LINE
8
Image
10
22.074894
20
85.212265
11
21.624227
21
85.393520
0
LINE
8
Image
10
21.624227
20
85.393520
11
21.092837
21
85.421712
0
LINE
8
Image
10
21.092837
20
85.421712
11
20.502188
21
85.292261
0
LINE
8
Image
10
20.502188
20
85.292261
11
19.228970
21
84.542124
0
LINE
8
Image
10
19.228970
20
84.542124
11
18.145332
21
83.630302
0
LINE
8
Image
10
18.145332
20
83.630302
11
19.960362
21
81.543516
0
LINE
8
Image
10
19.960362
20
81.543516
11
21.113525
21
80.247974
0
LINE
8
Image
10
21.113525
20
80.247974
11
21.798417
21
79.630337
0
LINE
8
Image
10
21.798417
20
79.630337
11
22.237913
21
79.552808
0
LINE
8
Image
10
22.237913
20
79.552808
11
22.654890
21
79.877594
0
LINE
8
Image
10
22.654890
20
79.877594
11
22.654890
21
79.877594
0
LINE
8
Image
10
20.258474
20
83.513670
11
20.471460
21
83.892312
0
LINE
8
Image
10
20.471460
20
83.892312
11
21.007224
21
84.042836
0
LINE
8
Image
10
21.007224
20
84.042836
11
21.534191
21
83.944041
0
LINE
8
Image
10
21.534191
20
83.944041
11
21.316806
21
83.513670
0
LINE
8
Image
10
21.316806
20
83.513670
11
20.568055
21
82.984504
0
LINE
8
Image
10
20.568055
20
82.984504
11
20.349413
21
83.139946
0
LINE
8
Image
10
20.349413
20
83.139946
11
20.258474
21
83.513670
0
LINE
8
Image
10
20.258474
20
83.513670
11
20.258474
21
83.513670
0
LINE
8
Image
10
80.442318
20
80.572196
11
80.402332
21
81.041886
0
LINE
8
Image
10
80.402332
20
81.041886
11
79.933972
21
81.598881
0
LINE
8
Image
10
79.933972
20
81.598881
11
79.172285
21
82.475552
0
LINE
8
Image
10
79.172285
20
82.475552
11
80.429030
21
84.269139
0
LINE
8
Image
10
80.429030
20
84.269139
11
81.124756
21
85.235410
0
LINE
8
Image
10
81.124756
20
85.235410
11
81.425724
21
85.942605
0
LINE
8
Image
10
81.425724
20
85.942605
11
81.327878
21
86.368095
0
LINE
8
Image
10
81.327878
20
86.368095
11
80.827159
21
86.489255
0
LINE
8
Image
10
80.827159
20
86.489255
11
80.036245
21
85.890837
0
LINE
8
Image
10
80.036245
20
85.890837
11
78.724687
21
84.484417
0
LINE
8
Image
10
78.724687
20
84.484417
11
77.042368
21
82.502602
0
LINE
8
Image
10
77.042368
20
82.502602
11
78.176530
21
81.332444
0
LINE
8
Image
10
78.176530
20
81.332444
11
78.972583
21
80.599707
0
LINE
8
Image
10
78.972583
20
80.599707
11
79.596401
21
80.235185
0
LINE
8
Image
10
79.596401
20
80.235185
11
80.076729
21
80.229229
0
LINE
8
Image
10
80.076729
20
80.229229
11
80.442318
21
80.572196
0
LINE
8
Image
10
80.442318
20
80.572196
11
80.442318
21
80.572196
0
LINE
8
Image
10
34.117774
20
82.283532
11
38.179082
21
84.153541
0
LINE
8
Image
10
38.179082
20
84.153541
11
42.404570
21
85.487598
0
LINE
8
Image
10
42.404570
20
85.487598
11
46.747742
21
86.285762
0
LINE
8
Image
10
46.747742
20
86.285762
11
51.162106
21
86.548092
0
LINE
8
Image
10
51.162106
20
86.548092
11
55.601168
21
86.274645
0
LINE
8
Image
10
55.601168
20
86.274645
11
60.018433
21
85.465480
0
LINE
8
Image
10
60.018433
20
85.465480
11
64.367408
21
84.120655
0
LINE
8
Image
10
64.367408
20
84.120655
11
68.601599
21
82.240230
0
LINE
8
Image
10
68.601599
20
82.240230
11
70.551293
21
81.326252
0
LINE
8
Image
10
70.551293
20
81.326252
11
71.875042
21
80.876468
0
LINE
8
Image
10
71.875042
20
80.876468
11
72.233659
21
80.840407
0
LINE
8
Image
10
72.233659
20
80.840407
11
72.353554
21
80.938104
0
LINE
8
Image
10
72.353554
20
80.938104
11
71.767536
21
81.558391
0
LINE
8
Image
10
71.767536
20
81.558391
11
70.102513
21
82.584345
0
LINE
8
Image
10
70.102513
20
82.584345
11
67.653992
21
83.806534
0
LINE
8
Image
10
67.653992
20
83.806534
11
64.920563
21
84.993186
0
LINE
8
Image
10
64.920563
20
84.993186
11
62.400816
21
85.912530
0
LINE
8
Image
10
62.400816
20
85.912530
11
59.637465
21
86.653973
0
LINE
8
Image
10
59.637465
20
86.653973
11
56.773781
21
87.174981
0
LINE
8
Image
10
56.773781
20
87.174981
11
53.845399
21
87.475896
0
LINE
8
Image
10
53.845399
20
87.475896
11
50.887952
21
87.557064
0
LINE
8
Image
10
50.887952
20
87.557064
11
47.937076
21
87.418829
0
LINE
8
Image
10
47.937076
20
87.418829
11
45.028405
21
87.061534
0
LINE
8
Image
10
45.028405
20
87.061534
11
42.197574
21
86.485524
0
LINE
8
Image
10
42.197574
20
86.485524
11
39.480218
21
85.691144
0
LINE
8
Image
10
39.480218
20
85.691144
11
37.138399
21
84.786308
0
LINE
8
Image
10
37.138399
20
84.786308
11
34.606723
21
83.647147
0
LINE
8
Image
10
34.606723
20
83.647147
11
32.350589
21
82.496263
0
LINE
8
Image
10
32.350589
20
82.496263
11
30.835394
21
81.556261
0
LINE
8
Image
10
30.835394
20
81.556261
11
30.178630
21
80.972107
0
LINE
8
Image
10
30.178630
20
80.972107
11
30.726511
21
80.875684
0
LINE
8
Image
10
30.726511
20
80.875684
11
32.038943
21
81.286003
0
LINE
8
Image
10
32.038943
20
81.286003
11
34.117774
21
82.283532
0
LINE
8
Image
10
34.117774
20
82.283532
11
34.117774
21
82.283532
0
LINE
8
Image
10
28.723810
20
84.697939
11
28.018258
21
86.079832
0
LINE
8
Image
10
28.018258
20
86.079832
11
27.314020
21
87.368854
0
LINE
8
Image
10
27.314020
20
87.368854
11
29.144900
21
86.807145
0
LINE
8
Image
10
29.144900
20
86.807145
11
30.665212
21
86.368090
0
LINE
8
Image
10
30.665212
20
86.368090
11
31.615486
21
86.400066
0
LINE
8
Image
10
31.615486
20
86.400066
11
31.922281
21
86.620300
0
LINE
8
Image
10
31.922281
20
86.620300
11
31.931458
21
87.004980
0
LINE
8
Image
10
31.931458
20
87.004980
11
30.843411
21
88.981719
0
LINE
8
Image
10
30.843411
20
88.981719
11
29.742571
21
90.590824
0
LINE
8
Image
10
29.742571
20
90.590824
11
29.078378
21
91.239494
0
LINE
8
Image
10
29.078378
20
91.239494
11
28.365181
21
91.151299
0
LINE
8
Image
10
28.365181
20
91.151299
11
28.329990
21
90.684623
0
LINE
8
Image
10
28.329990
20
90.684623
11
28.750816
21
89.636921
0
LINE
8
Image
10
28.750816
20
89.636921
11
29.227694
21
88.527080
0
LINE
8
Image
10
29.227694
20
88.527080
11
29.187893
21
88.350306
0
LINE
8
Image
10
29.187893
20
88.350306
11
28.971095
21
88.377038
0
LINE
8
Image
10
28.971095
20
88.377038
11
26.429645
21
89.149709
0
LINE
8
Image
10
26.429645
20
89.149709
11
25.610446
21
89.225125
0
LINE
8
Image
10
25.610446
20
89.225125
11
25.156017
21
89.081490
0
LINE
8
Image
10
25.156017
20
89.081490
11
25.013811
21
88.761545
0
LINE
8
Image
10
25.013811
20
88.761545
11
25.211424
21
88.141695
0
LINE
8
Image
10
25.211424
20
88.141695
11
27.177225
21
84.847926
0
LINE
8
Image
10
27.177225
20
84.847926
11
27.603285
21
84.439698
0
LINE
8
Image
10
27.603285
20
84.439698
11
28.115382
21
84.267732
0
LINE
8
Image
10
28.115382
20
84.267732
11
28.545048
21
84.348366
0
LINE
8
Image
10
28.545048
20
84.348366
11
28.723810
21
84.697939
0
LINE
8
Image
10
28.723810
20
84.697939
11
28.723810
21
84.697939
0
LINE
8
Image
10
75.557264
20
86.953249
11
75.779028
21
89.395129
0
LINE
8
Image
10
75.779028
20
89.395129
11
75.691844
21
89.988927
0
LINE
8
Image
10
75.691844
20
89.988927
11
75.467573
21
90.355993
0
LINE
8
Image
10
75.467573
20
90.355993
11
75.129086
21
90.542474
0
LINE
8
Image
10
75.129086
20
90.542474
11
74.623890
21
90.425678
0
LINE
8
Image
10
74.623890
20
90.425678
11
72.493628
21
88.999593
0
LINE
8
Image
10
72.493628
20
88.999593
11
71.025600
21
87.807916
0
LINE
8
Image
10
71.025600
20
87.807916
11
70.335909
21
86.997180
0
LINE
8
Image
10
70.335909
20
86.997180
11
70.286732
21
86.742495
0
LINE
8
Image
10
70.286732
20
86.742495
11
70.436692
21
86.592440
0
LINE
8
Image
10
70.436692
20
86.592440
11
71.340088
21
86.618748
0
LINE
8
Image
10
71.340088
20
86.618748
11
72.287176
21
86.643923
0
LINE
8
Image
10
72.287176
20
86.643923
11
73.099360
21
86.384889
0
LINE
8
Image
10
73.099360
20
86.384889
11
73.667042
21
85.900680
0
LINE
8
Image
10
73.667042
20
85.900680
11
73.880625
21
85.250329
0
LINE
8
Image
10
73.880625
20
85.250329
11
73.947657
21
84.788291
0
LINE
8
Image
10
73.947657
20
84.788291
11
74.149715
21
84.438720
0
LINE
8
Image
10
74.149715
20
84.438720
11
74.488245
21
84.200042
0
LINE
8
Image
10
74.488245
20
84.200042
11
74.964690
21
84.070687
0
LINE
8
Image
10
74.964690
20
84.070687
11
75.222134
21
84.905951
0
LINE
8
Image
10
75.222134
20
84.905951
11
75.557264
21
86.953249
0
LINE
8
Image
10
75.557264
20
86.953249
11
75.557264
21
86.953249
0
LINE
8
Image
10
73.685241
20
87.601347
11
73.633165
21
87.987530
0
LINE
8
Image
10
73.633165
20
87.987530
11
73.840808
21
88.377458
0
LINE
8
Image
10
73.840808
20
88.377458
11
74.145210
21
88.507509
0
LINE
8
Image
10
74.145210
20
88.507509
11
74.233404
21
87.993942
0
LINE
8
Image
10
74.233404
20
87.993942
11
74.096163
21
87.256812
0
LINE
8
Image
10
74.096163
20
87.256812
11
73.924837
21
87.293818
0
LINE
8
Image
10
73.924837
20
87.293818
11
73.685241
21
87.601347
0
LINE
8
Image
10
73.685241
20
87.601347
11
73.685241
21
87.601347
0
LINE
8
Image
10
35.707632
20
88.825504
11
36.081731
21
89.493477
0
LINE
8
Image
10
36.081731
20
89.493477
11
36.816862
21
89.944669
0
LINE
8
Image
10
36.816862
20
89.944669
11
37.653280
21
90.081838
0
LINE
8
Image
10
37.653280
20
90.081838
11
38.331240
21
89.807738
0
LINE
8
Image
10
38.331240
20
89.807738
11
38.791822
21
89.566793
0
LINE
8
Image
10
38.791822
20
89.566793
11
39.348311
21
89.532671
0
LINE
8
Image
10
39.348311
20
89.532671
11
39.816955
21
89.684310
0
LINE
8
Image
10
39.816955
20
89.684310
11
40.014004
21
90.000643
0
LINE
8
Image
10
40.014004
20
90.000643
11
37.926036
21
92.304707
0
LINE
8
Image
10
37.926036
20
92.304707
11
36.444157
21
93.625726
0
LINE
8
Image
10
36.444157
20
93.625726
11
35.452108
21
94.140690
0
LINE
8
Image
10
35.452108
20
94.140690
11
35.122721
21
94.098456
0
LINE
8
Image
10
35.122721
20
94.098456
11
34.895333
21
93.857773
0
LINE
8
Image
10
34.895333
20
93.857773
11
34.719277
21
92.785147
0
LINE
8
Image
10
34.719277
20
92.785147
11
34.489468
21
89.739313
0
LINE
8
Image
10
34.489468
20
89.739313
11
34.403716
21
88.167795
0
LINE
8
Image
10
34.403716
20
88.167795
11
34.576197
21
87.961900
0
LINE
8
Image
10
34.576197
20
87.961900
11
34.933507
21
87.979030
0
LINE
8
Image
10
34.933507
20
87.979030
11
35.437603
21
88.280462
0
LINE
8
Image
10
35.437603
20
88.280462
11
35.707632
21
88.825504
0
LINE
8
Image
10
35.707632
20
88.825504
11
35.707632
21
88.825504
0
LINE
8
Image
10
35.898270
20
91.637348
11
36.002646
21
91.965821
0
LINE
8
Image
10
36.002646
20
91.965821
11
36.248265
21
92.045881
0
LINE
8
Image
10
36.248265
20
92.045881
11
36.533859
21
91.891663
0
LINE
8
Image
10
36.533859
20
91.891663
11
36.758164
21
91.517306
0
LINE
8
Image
10
36.758164
20
91.517306
11
36.709979
21
91.221441
0
LINE
8
Image
10
36.709979
20
91.221441
11
36.398038
21
91.098383
0
LINE
8
Image
10
36.398038
20
91.098383
11
36.045076
21
91.256704
0
LINE
8
Image
10
36.045076
20
91.256704
11
35.898270
21
91.637348
0
LINE
8
Image
10
35.898270
20
91.637348
11
35.898270
21
91.637348
0
LINE
8
Image
10
68.726469
20
90.910932
11
69.327824
21
92.890048
0
LINE
8
Image
10
69.327824
20
92.890048
11
69.346121
21
93.386811
0
LINE
8
Image
10
69.346121
20
93.386811
11
69.190539
21
93.639554
0
LINE
8
Image
10
69.190539
20
93.639554
11
68.730219
21
93.864055
0
LINE
8
Image
10
68.730219
20
93.864055
11
68.402777
21
93.793105
0
LINE
8
Image
10
68.402777
20
93.793105
11
68.132013
21
93.362864
0
LINE
8
Image
10
68.132013
20
93.362864
11
67.841732
21
92.509492
0
LINE
8
Image
10
67.841732
20
92.509492
11
67.474844
21
91.512896
0
LINE
8
Image
10
67.474844
20
91.512896
11
67.186442
21
91.098383
0
LINE
8
Image
10
67.186442
20
91.098383
11
66.842567
21
91.668339
0
LINE
8
Image
10
66.842567
20
91.668339
11
66.342311
21
93.038658
0
LINE
8
Image
10
66.342311
20
93.038658
11
65.701739
21
94.579861
0
LINE
8
Image
10
65.701739
20
94.579861
11
65.388670
21
94.934518
0
LINE
8
Image
10
65.388670
20
94.934518
11
65.073863
21
95.010566
0
LINE
8
Image
10
65.073863
20
95.010566
11
64.752407
21
94.807021
0
LINE
8
Image
10
64.752407
20
94.807021
11
64.419387
21
94.322899
0
LINE
8
Image
10
64.419387
20
94.322899
11
63.699013
21
92.508986
0
LINE
8
Image
10
63.699013
20
92.508986
11
63.201147
21
90.661106
0
LINE
8
Image
10
63.201147
20
90.661106
11
63.121233
21
89.686767
0
LINE
8
Image
10
63.121233
20
89.686767
11
63.454736
21
89.366336
0
LINE
8
Image
10
63.454736
20
89.366336
11
63.818444
21
89.444148
0
LINE
8
Image
10
63.818444
20
89.444148
11
64.217934
21
89.924277
0
LINE
8
Image
10
64.217934
20
89.924277
11
64.658780
21
90.810801
0
LINE
8
Image
10
64.658780
20
90.810801
11
65.285768
21
92.287105
0
LINE
8
Image
10
65.285768
20
92.287105
11
65.756522
21
90.605733
0
LINE
8
Image
10
65.756522
20
90.605733
11
66.183020
21
89.404022
0
LINE
8
Image
10
66.183020
20
89.404022
11
66.668675
21
88.537462
0
LINE
8
Image
10
66.668675
20
88.537462
11
67.147976
21
88.094926
0
LINE
8
Image
10
67.147976
20
88.094926
11
67.555411
21
88.165291
0
LINE
8
Image
10
67.555411
20
88.165291
11
68.726469
21
90.910932
0
LINE
8
Image
10
68.726469
20
90.910932
11
68.726469
21
90.910932
0
LINE
8
Image
10
46.638278
20
91.294775
11
47.192013
21
91.821106
0
LINE
8
Image
10
47.192013
20
91.821106
11
47.422328
21
92.315364
0
LINE
8
Image
10
47.422328
20
92.315364
11
47.267161
21
92.747851
0
LINE
8
Image
10
47.267161
20
92.747851
11
46.889507
21
92.971766
0
LINE
8
Image
10
46.889507
20
92.971766
11
46.421136
21
92.954868
0
LINE
8
Image
10
46.421136
20
92.954868
11
45.993815
21
92.664911
0
LINE
8
Image
10
45.993815
20
92.664911
11
45.457941
21
92.294838
0
LINE
8
Image
10
45.457941
20
92.294838
11
44.771995
21
92.174877
0
LINE
8
Image
10
44.771995
20
92.174877
11
44.084900
21
92.304029
0
LINE
8
Image
10
44.084900
20
92.304029
11
43.545581
21
92.681300
0
LINE
8
Image
10
43.545581
20
92.681300
11
43.272013
21
93.176478
0
LINE
8
Image
10
43.272013
20
93.176478
11
43.215076
21
93.689884
0
LINE
8
Image
10
43.215076
20
93.689884
11
43.341790
21
94.183483
0
LINE
8
Image
10
43.341790
20
94.183483
11
43.619180
21
94.619237
0
LINE
8
Image
10
43.619180
20
94.619237
11
44.014266
21
94.959112
0
LINE
8
Image
10
44.014266
20
94.959112
11
44.494071
21
95.165070
0
LINE
8
Image
10
44.494071
20
95.165070
11
45.025619
21
95.199075
0
LINE
8
Image
10
45.025619
20
95.199075
11
45.575930
21
95.023092
0
LINE
8
Image
10
45.575930
20
95.023092
11
46.189126
21
94.854047
0
LINE
8
Image
10
46.189126
20
94.854047
11
46.735782
21
95.010715
0
LINE
8
Image
10
46.735782
20
95.010715
11
46.959347
21
95.209235
0
LINE
8
Image
10
46.959347
20
95.209235
11
46.984996
21
95.420254
0
LINE
8
Image
10
46.984996
20
95.420254
11
46.377177
21
96.073526
0
LINE
8
Image
10
46.377177
20
96.073526
11
45.696281
21
96.464966
0
LINE
8
Image
10
45.696281
20
96.464966
11
44.948426
21
96.600071
0
LINE
8
Image
10
44.948426
20
96.600071
11
44.182234
21
96.505705
0
LINE
8
Image
10
44.182234
20
96.505705
11
43.446323
21
96.208734
0
LINE
8
Image
10
43.446323
20
96.208734
11
42.789314
21
95.736024
0
LINE
8
Image
10
42.789314
20
95.736024
11
42.259825
21
95.114441
0
LINE
8
Image
10
42.259825
20
95.114441
11
41.906478
21
94.370850
0
LINE
8
Image
10
41.906478
20
94.370850
11
41.777891
21
93.532117
0
LINE
8
Image
10
41.777891
20
93.532117
11
41.907191
21
92.733944
0
LINE
8
Image
10
41.907191
20
92.733944
11
42.264602
21
92.041812
0
LINE
8
Image
10
42.264602
20
92.041812
11
42.804389
21
91.476771
0
LINE
8
Image
10
42.804389
20
91.476771
11
43.480818
21
91.059874
0
LINE
8
Image
10
43.480818
20
91.059874
11
44.248156
21
90.812173
0
LINE
8
Image
10
44.248156
20
90.812173
11
45.060668
21
90.754722
0
LINE
8
Image
10
45.060668
20
90.754722
11
45.872620
21
90.908572
0
LINE
8
Image
10
45.872620
20
90.908572
11
46.638278
21
91.294775
0
LINE
8
Image
10
46.638278
20
91.294775
11
46.638278
21
91.294775
0
LINE
8
Image
10
60.096708
20
91.675124
11
60.631879
21
92.632552
0
LINE
8
Image
10
60.631879
20
92.632552
11
60.812476
21
93.613194
0
LINE
8
Image
10
60.812476
20
93.613194
11
60.682333
21
94.552548
0
LINE
8
Image
10
60.682333
20
94.552548
11
60.285282
21
95.386111
0
LINE
8
Image
10
60.285282
20
95.386111
11
59.665158
21
96.049378
0
LINE
8
Image
10
59.665158
20
96.049378
11
58.865792
21
96.477848
0
LINE
8
Image
10
58.865792
20
96.477848
11
57.931020
21
96.607016
0
LINE
8
Image
10
57.931020
20
96.607016
11
56.904673
21
96.372379
0
LINE
8
Image
10
56.904673
20
96.372379
11
56.035450
21
95.796393
0
LINE
8
Image
10
56.035450
20
95.796393
11
55.372283
21
94.954595
0
LINE
8
Image
10
55.372283
20
94.954595
11
55.006496
21
94.005900
0
LINE
8
Image
10
55.006496
20
94.005900
11
55.029412
21
93.109221
0
LINE
8
Image
10
55.029412
20
93.109221
11
55.398425
21
92.282699
0
LINE
8
Image
10
55.398425
20
92.282699
11
55.929689
21
91.616569
0
LINE
8
Image
10
55.929689
20
91.616569
11
56.579851
21
91.123100
0
LINE
8
Image
10
56.579851
20
91.123100
11
57.305555
21
90.814563
0
LINE
8
Image
10
57.305555
20
90.814563
11
58.063447
21
90.703227
0
LINE
8
Image
10
58.063447
20
90.703227
11
58.810173
21
90.801362
0
LINE
8
Image
10
58.810173
20
90.801362
11
59.502378
21
91.121238
0
LINE
8
Image
10
59.502378
20
91.121238
11
60.096708
21
91.675124
0
LINE
8
Image
10
60.096708
20
91.675124
11
60.096708
21
91.675124
0
LINE
8
Image
10
56.581879
20
92.885926
11
56.390044
21
93.642023
0
LINE
8
Image
10
56.390044
20
93.642023
11
56.753987
21
94.473424
0
LINE
8
Image
10
56.753987
20
94.473424
11
57.183262
21
95.026770
0
LINE
8
Image
10
57.183262
20
95.026770
11
57.597671
21
95.278773
0
LINE
8
Image
10
57.597671
20
95.278773
11
58.085341
21
95.251376
0
LINE
8
Image
10
58.085341
20
95.251376
11
58.734397
21
94.966521
0
LINE
8
Image
10
58.734397
20
94.966521
11
59.187791
21
94.512560
0
LINE
8
Image
10
59.187791
20
94.512560
11
59.392976
21
93.863241
0
LINE
8
Image
10
59.392976
20
93.863241
11
59.333628
21
93.168944
0
LINE
8
Image
10
59.333628
20
93.168944
11
58.993426
21
92.580048
0
LINE
8
Image
10
58.993426
20
92.580048
11
58.396423
21
92.233966
0
LINE
8
Image
10
58.396423
20
92.233966
11
57.699557
21
92.181754
0
LINE
8
Image
10
57.699557
20
92.181754
11
57.046739
21
92.405159
0
LINE
8
Image
10
57.046739
20
92.405159
11
56.581879
21
92.885926
0
LINE
8
Image
10
56.581879
20
92.885926
11
56.581879
21
92.885926
0
LINE
8
Image
10
51.934508
20
94.213579
11
51.914639
21
96.666845
0
LINE
8
Image
10
51.914639
20
96.666845
11
51.711532
21
97.024878
0
LINE
8
Image
10
51.711532
20
97.024878
11
51.317145
21
97.095597
0
LINE
8
Image
10
51.317145
20
97.095597
11
50.924837
21
97.021913
0
LINE
8
Image
10
50.924837
20
97.021913
11
50.708491
21
96.668822
0
LINE
8
Image
10
50.708491
20
96.668822
11
50.597324
21
94.332175
0
LINE
8
Image
10
50.597324
20
94.332175
11
50.668568
21
92.309263
0
LINE
8
Image
10
50.668568
20
92.309263
11
50.839859
21
91.326218
0
LINE
8
Image
10
50.839859
20
91.326218
11
51.275212
21
91.128526
0
LINE
8
Image
10
51.275212
20
91.128526
11
51.598660
21
91.533012
0
LINE
8
Image
10
51.598660
20
91.533012
11
51.816370
21
92.555941
0
LINE
8
Image
10
51.816370
20
92.555941
11
51.934508
21
94.213579
0
LINE
8
Image
10
51.934508
20
94.213579
11
51.934508
21
94.213579
 0 
ENDSEC
 0 
EOF