999
"DXF R12 Output" (www.mydxf.blogspot.com)
 0 
SECTION
 2 
HEADER
 9 
$ACADVER
 1 
AC1009
 9 
$EXTMIN
 10 
 0 
 20 
 0 
 9 
$EXTMAX
 10 
 8.5 
 20 
 11 
 0 
ENDSEC
 0 
SECTION
 2 
ENTITIES
0
LINE
8
Image
10
0.772534
20
1.124420
11
0.548382
21
1.450768
0
LINE
8
Image
10
0.548382
20
1.450768
11
0.563377
21
1.706957
0
LINE
8
Image
10
0.563377
20
1.706957
11
1.339707
21
2.056338
0
LINE
8
Image
10
1.339707
20
2.056338
11
1.960897
21
2.321910
0
LINE
8
Image
10
1.960897
20
2.321910
11
2.084081
21
2.731769
0
LINE
8
Image
10
2.084081
20
2.731769
11
2.136253
21
2.948480
0
LINE
8
Image
10
2.136253
20
2.948480
11
2.328722
21
2.891847
0
LINE
8
Image
10
2.328722
20
2.891847
11
2.635616
21
2.882317
0
LINE
8
Image
10
2.635616
20
2.882317
11
3.332009
21
3.467428
0
LINE
8
Image
10
3.332009
20
3.467428
11
4.178290
21
4.180448
0
LINE
8
Image
10
4.178290
20
4.180448
11
5.159924
21
4.776943
0
LINE
8
Image
10
5.159924
20
4.776943
11
6.071096
21
5.290194
0
LINE
8
Image
10
6.071096
20
5.290194
11
6.427357
21
5.640278
0
LINE
8
Image
10
6.427357
20
5.640278
11
7.768737
21
6.869440
0
LINE
8
Image
10
7.768737
20
6.869440
11
8.009498
21
7.390201
0
LINE
8
Image
10
8.009498
20
7.390201
11
8.106388
21
7.764942
0
LINE
8
Image
10
8.106388
20
7.764942
11
8.317126
21
7.992258
0
LINE
8
Image
10
8.317126
20
7.992258
11
8.518848
21
8.294380
0
LINE
8
Image
10
8.518848
20
8.294380
11
8.249793
21
8.976543
0
LINE
8
Image
10
8.249793
20
8.976543
11
8.036349
21
9.344611
0
LINE
8
Image
10
8.036349
20
9.344611
11
7.833746
21
9.272876
0
LINE
8
Image
10
7.833746
20
9.272876
11
7.578909
21
8.958027
0
LINE
8
Image
10
7.578909
20
8.958027
11
6.912574
21
8.196028
0
LINE
8
Image
10
6.912574
20
8.196028
11
6.412756
21
7.657035
0
LINE
8
Image
10
6.412756
20
7.657035
11
6.238676
21
7.273497
0
LINE
8
Image
10
6.238676
20
7.273497
11
6.238301
21
6.940135
0
LINE
8
Image
10
6.238301
20
6.940135
11
6.485706
21
6.768224
0
LINE
8
Image
10
6.485706
20
6.768224
11
6.425333
21
6.582499
0
LINE
8
Image
10
6.425333
20
6.582499
11
6.266349
21
6.476648
0
LINE
8
Image
10
6.266349
20
6.476648
11
6.059092
21
6.531119
0
LINE
8
Image
10
6.059092
20
6.531119
11
5.837463
21
6.582353
0
LINE
8
Image
10
5.837463
20
6.582353
11
5.614304
21
6.456032
0
LINE
8
Image
10
5.614304
20
6.456032
11
5.417447
21
6.336690
0
LINE
8
Image
10
5.417447
20
6.336690
11
5.303212
21
6.392082
0
LINE
8
Image
10
5.303212
20
6.392082
11
5.008785
21
6.474143
0
LINE
8
Image
10
5.008785
20
6.474143
11
4.709134
21
6.571095
0
LINE
8
Image
10
4.709134
20
6.571095
11
4.414689
21
6.727302
0
LINE
8
Image
10
4.414689
20
6.727302
11
4.184956
21
6.862179
0
LINE
8
Image
10
4.184956
20
6.862179
11
4.363027
21
7.007573
0
LINE
8
Image
10
4.363027
20
7.007573
11
4.790822
21
7.096586
0
LINE
8
Image
10
4.790822
20
7.096586
11
5.358656
21
7.469677
0
LINE
8
Image
10
5.358656
20
7.469677
11
5.893553
21
8.239380
0
LINE
8
Image
10
5.893553
20
8.239380
11
6.406242
21
9.075769
0
LINE
8
Image
10
6.406242
20
9.075769
11
6.813905
21
9.682039
0
LINE
8
Image
10
6.813905
20
9.682039
11
7.413795
21
10.688965
0
LINE
8
Image
10
7.413795
20
10.688965
11
7.882897
21
11.159479
0
LINE
8
Image
10
7.882897
20
11.159479
11
8.221370
21
11.422515
0
LINE
8
Image
10
8.221370
20
11.422515
11
8.063145
21
11.696620
0
LINE
8
Image
10
8.063145
20
11.696620
11
7.846159
21
12.149197
0
LINE
8
Image
10
7.846159
20
12.149197
11
7.909619
21
12.571307
0
LINE
8
Image
10
7.909619
20
12.571307
11
8.214685
21
13.008059
0
LINE
8
Image
10
8.214685
20
13.008059
11
8.677046
21
13.206134
0
LINE
8
Image
10
8.677046
20
13.206134
11
8.994681
21
13.198702
0
LINE
8
Image
10
8.994681
20
13.198702
11
9.343713
21
13.016436
0
LINE
8
Image
10
9.343713
20
13.016436
11
9.806222
21
12.654046
0
LINE
8
Image
10
9.806222
20
12.654046
11
9.929425
21
12.581238
0
LINE
8
Image
10
9.929425
20
12.581238
11
10.049417
21
12.662683
0
LINE
8
Image
10
10.049417
20
12.662683
11
10.286321
21
13.297107
0
LINE
8
Image
10
10.286321
20
13.297107
11
10.503626
21
14.122687
0
LINE
8
Image
10
10.503626
20
14.122687
11
10.635729
21
14.673019
0
LINE
8
Image
10
10.635729
20
14.673019
11
10.818907
21
15.167398
0
LINE
8
Image
10
10.818907
20
15.167398
11
10.997682
21
15.866215
0
LINE
8
Image
10
10.997682
20
15.866215
11
10.856175
21
16.600471
0
LINE
8
Image
10
10.856175
20
16.600471
11
10.676700
21
17.380219
0
LINE
8
Image
10
10.676700
20
17.380219
11
10.726333
21
17.785150
0
LINE
8
Image
10
10.726333
20
17.785150
11
10.951917
21
18.108482
0
LINE
8
Image
10
10.951917
20
18.108482
11
11.528565
21
18.447783
0
LINE
8
Image
10
11.528565
20
18.447783
11
12.129113
21
18.387197
0
LINE
8
Image
10
12.129113
20
18.387197
11
12.601346
21
17.991469
0
LINE
8
Image
10
12.601346
20
17.991469
11
12.793048
21
17.325345
0
LINE
8
Image
10
12.793048
20
17.325345
11
12.595869
21
16.739143
0
LINE
8
Image
10
12.595869
20
16.739143
11
12.082252
21
16.369173
0
LINE
8
Image
10
12.082252
20
16.369173
11
11.833114
21
16.218075
0
LINE
8
Image
10
11.833114
20
16.218075
11
11.741018
21
15.792022
0
LINE
8
Image
10
11.741018
20
15.792022
11
11.644656
21
14.800019
0
LINE
8
Image
10
11.644656
20
14.800019
11
11.530577
21
14.122687
0
LINE
8
Image
10
11.530577
20
14.122687
11
11.100409
21
12.512843
0
LINE
8
Image
10
11.100409
20
12.512843
11
10.880235
21
11.547695
0
LINE
8
Image
10
10.880235
20
11.547695
11
10.809961
21
10.968457
0
LINE
8
Image
10
10.809961
20
10.968457
11
11.077144
21
10.209341
0
LINE
8
Image
10
11.077144
20
10.209341
11
11.250570
21
9.683950
0
LINE
8
Image
10
11.250570
20
9.683950
11
11.233402
21
8.884421
0
LINE
8
Image
10
11.233402
20
8.884421
11
11.191224
21
7.752972
0
LINE
8
Image
10
11.191224
20
7.752972
11
11.430529
21
7.415268
0
LINE
8
Image
10
11.430529
20
7.415268
11
11.692699
21
7.022197
0
LINE
8
Image
10
11.692699
20
7.022197
11
11.788517
21
6.827779
0
LINE
8
Image
10
11.788517
20
6.827779
11
12.137198
21
6.616139
0
LINE
8
Image
10
12.137198
20
6.616139
11
13.047364
21
6.018726
0
LINE
8
Image
10
13.047364
20
6.018726
11
13.807334
21
5.487518
0
LINE
8
Image
10
13.807334
20
5.487518
11
15.568092
21
4.270468
0
LINE
8
Image
10
15.568092
20
4.270468
11
16.853597
21
3.182513
0
LINE
8
Image
10
16.853597
20
3.182513
11
17.026286
21
2.989252
0
LINE
8
Image
10
17.026286
20
2.989252
11
17.530403
21
3.091755
0
LINE
8
Image
10
17.530403
20
3.091755
11
17.965428
21
3.184830
0
LINE
8
Image
10
17.965428
20
3.184830
11
17.992340
21
3.059366
0
LINE
8
Image
10
17.992340
20
3.059366
11
17.821144
21
2.864279
0
LINE
8
Image
10
17.821144
20
2.864279
11
17.577025
21
2.643564
0
LINE
8
Image
10
17.577025
20
2.643564
11
18.000358
21
2.674611
0
LINE
8
Image
10
18.000358
20
2.674611
11
18.734077
21
2.845511
0
LINE
8
Image
10
18.734077
20
2.845511
11
19.025059
21
2.942727
0
LINE
8
Image
10
19.025059
20
2.942727
11
19.224602
21
2.839034
0
LINE
8
Image
10
19.224602
20
2.839034
11
19.404740
21
2.692703
0
LINE
8
Image
10
19.404740
20
2.692703
11
18.998882
21
2.296758
0
LINE
8
Image
10
18.998882
20
2.296758
11
17.191943
21
0.957038
0
LINE
8
Image
10
17.191943
20
0.957038
11
16.911220
21
1.274538
0
LINE
8
Image
10
16.911220
20
1.274538
11
16.315712
21
2.029332
0
LINE
8
Image
10
16.315712
20
2.029332
11
15.846080
21
2.396370
0
LINE
8
Image
10
15.846080
20
2.396370
11
15.324109
21
2.691881
0
LINE
8
Image
10
15.324109
20
2.691881
11
14.880484
21
2.988214
0
LINE
8
Image
10
14.880484
20
2.988214
11
14.132240
21
3.498694
0
LINE
8
Image
10
14.132240
20
3.498694
11
13.213066
21
4.121796
0
LINE
8
Image
10
13.213066
20
4.121796
11
12.304137
21
4.418660
0
LINE
8
Image
10
12.304137
20
4.418660
11
11.352709
21
4.725384
0
LINE
8
Image
10
11.352709
20
4.725384
11
10.254118
21
5.151848
0
LINE
8
Image
10
10.254118
20
5.151848
11
9.416222
21
5.443500
0
LINE
8
Image
10
9.416222
20
5.443500
11
7.993297
21
4.696632
0
LINE
8
Image
10
7.993297
20
4.696632
11
4.538375
21
2.636181
0
LINE
8
Image
10
4.538375
20
2.636181
11
3.698577
21
2.169095
0
LINE
8
Image
10
3.698577
20
2.169095
11
2.894245
21
1.550693
0
LINE
8
Image
10
2.894245
20
1.550693
11
2.445748
21
1.121397
0
LINE
8
Image
10
2.445748
20
1.121397
11
2.083045
21
1.003103
0
LINE
8
Image
10
2.083045
20
1.003103
11
1.386367
21
0.911254
0
LINE
8
Image
10
1.386367
20
0.911254
11
1.044106
21
0.902128
0
LINE
8
Image
10
1.044106
20
0.902128
11
0.772534
21
1.124420
0
LINE
8
Image
10
0.772534
20
1.124420
11
0.772534
21
1.124420
0
LINE
8
Image
10
1.977304
20
1.182400
11
2.333146
21
1.323761
0
LINE
8
Image
10
2.333146
20
1.323761
11
2.788340
21
1.711676
0
LINE
8
Image
10
2.788340
20
1.711676
11
3.571414
21
2.302432
0
LINE
8
Image
10
3.571414
20
2.302432
11
4.701390
21
2.946701
0
LINE
8
Image
10
4.701390
20
2.946701
11
8.062089
21
4.928178
0
LINE
8
Image
10
8.062089
20
4.928178
11
9.467801
21
5.639656
0
LINE
8
Image
10
9.467801
20
5.639656
11
9.924084
21
5.466949
0
LINE
8
Image
10
9.924084
20
5.466949
11
11.057700
21
5.020816
0
LINE
8
Image
10
11.057700
20
5.020816
11
12.243032
21
4.624444
0
LINE
8
Image
10
12.243032
20
4.624444
11
13.238315
21
4.268230
0
LINE
8
Image
10
13.238315
20
4.268230
11
14.233895
21
3.634543
0
LINE
8
Image
10
14.233895
20
3.634543
11
14.939764
21
3.158368
0
LINE
8
Image
10
14.939764
20
3.158368
11
15.321177
21
2.914210
0
LINE
8
Image
10
15.321177
20
2.914210
11
15.926027
21
2.546233
0
LINE
8
Image
10
15.926027
20
2.546233
11
16.579491
21
1.996351
0
LINE
8
Image
10
16.579491
20
1.996351
11
17.026692
21
1.404966
0
LINE
8
Image
10
17.026692
20
1.404966
11
17.121808
21
1.234454
0
LINE
8
Image
10
17.121808
20
1.234454
11
17.839556
21
1.572195
0
LINE
8
Image
10
17.839556
20
1.572195
11
18.983674
21
2.558690
0
LINE
8
Image
10
18.983674
20
2.558690
11
19.063832
21
2.773992
0
LINE
8
Image
10
19.063832
20
2.773992
11
18.691575
21
2.646973
0
LINE
8
Image
10
18.691575
20
2.646973
11
17.863790
21
2.481035
0
LINE
8
Image
10
17.863790
20
2.481035
11
17.438591
21
2.506889
0
LINE
8
Image
10
17.438591
20
2.506889
11
17.386241
21
2.636415
0
LINE
8
Image
10
17.386241
20
2.636415
11
17.380807
21
2.752838
0
LINE
8
Image
10
17.380807
20
2.752838
11
17.247950
21
2.761505
0
LINE
8
Image
10
17.247950
20
2.761505
11
16.859058
21
2.846791
0
LINE
8
Image
10
16.859058
20
2.846791
11
16.662979
21
3.078399
0
LINE
8
Image
10
16.662979
20
3.078399
11
15.204972
21
4.328508
0
LINE
8
Image
10
15.204972
20
4.328508
11
13.531315
21
5.444364
0
LINE
8
Image
10
13.531315
20
5.444364
11
13.075538
21
5.777806
0
LINE
8
Image
10
13.075538
20
5.777806
11
12.082275
21
6.427555
0
LINE
8
Image
10
12.082275
20
6.427555
11
11.586927
21
6.719763
0
LINE
8
Image
10
11.586927
20
6.719763
11
11.503152
21
6.928689
0
LINE
8
Image
10
11.503152
20
6.928689
11
11.332705
21
7.275380
0
LINE
8
Image
10
11.332705
20
7.275380
11
11.010684
21
7.668600
0
LINE
8
Image
10
11.010684
20
7.668600
11
11.012116
21
8.171502
0
LINE
8
Image
10
11.012116
20
8.171502
11
11.097031
21
9.281686
0
LINE
8
Image
10
11.097031
20
9.281686
11
10.896820
21
10.237569
0
LINE
8
Image
10
10.896820
20
10.237569
11
10.632819
21
11.016971
0
LINE
8
Image
10
10.632819
20
11.016971
11
10.746987
21
11.731174
0
LINE
8
Image
10
10.746987
20
11.731174
11
10.965913
21
12.677382
0
LINE
8
Image
10
10.965913
20
12.677382
11
11.365776
21
14.189106
0
LINE
8
Image
10
11.365776
20
14.189106
11
11.485680
21
14.908771
0
LINE
8
Image
10
11.485680
20
14.908771
11
11.612002
21
16.290707
0
LINE
8
Image
10
11.612002
20
16.290707
11
11.709151
21
16.435934
0
LINE
8
Image
10
11.709151
20
16.435934
11
11.897984
21
16.480461
0
LINE
8
Image
10
11.897984
20
16.480461
11
12.323469
21
16.706399
0
LINE
8
Image
10
12.323469
20
16.706399
11
12.570566
21
17.086325
0
LINE
8
Image
10
12.570566
20
17.086325
11
12.609395
21
17.533779
0
LINE
8
Image
10
12.609395
20
17.533779
11
12.410076
21
17.962294
0
LINE
8
Image
10
12.410076
20
17.962294
11
11.957021
21
18.260101
0
LINE
8
Image
10
11.957021
20
18.260101
11
11.395187
21
18.228625
0
LINE
8
Image
10
11.395187
20
18.228625
11
11.059092
21
18.008173
0
LINE
8
Image
10
11.059092
20
18.008173
11
10.880379
21
17.642085
0
LINE
8
Image
10
10.880379
20
17.642085
11
10.866990
21
17.165207
0
LINE
8
Image
10
10.866990
20
17.165207
11
11.026865
21
16.612387
0
LINE
8
Image
10
11.026865
20
16.612387
11
11.165243
21
15.843022
0
LINE
8
Image
10
11.165243
20
15.843022
11
10.974745
21
15.074344
0
LINE
8
Image
10
10.974745
20
15.074344
11
10.790990
21
14.485617
0
LINE
8
Image
10
10.790990
20
14.485617
11
10.665579
21
14.115813
0
LINE
8
Image
10
10.665579
20
14.115813
11
10.592034
21
13.836439
0
LINE
8
Image
10
10.592034
20
13.836439
11
10.209935
21
12.641022
0
LINE
8
Image
10
10.209935
20
12.641022
11
9.978551
21
12.266147
0
LINE
8
Image
10
9.978551
20
12.266147
11
9.851874
21
12.018272
0
LINE
8
Image
10
9.851874
20
12.018272
11
9.745897
21
12.308480
0
LINE
8
Image
10
9.745897
20
12.308480
11
9.316969
21
12.803389
0
LINE
8
Image
10
9.316969
20
12.803389
11
8.750970
21
13.064355
0
LINE
8
Image
10
8.750970
20
13.064355
11
8.351903
21
12.877778
0
LINE
8
Image
10
8.351903
20
12.877778
11
8.046270
21
12.498854
0
LINE
8
Image
10
8.046270
20
12.498854
11
8.083388
21
12.018416
0
LINE
8
Image
10
8.083388
20
12.018416
11
8.339224
21
11.659151
0
LINE
8
Image
10
8.339224
20
11.659151
11
8.381407
21
11.402541
0
LINE
8
Image
10
8.381407
20
11.402541
11
7.969679
21
10.990441
0
LINE
8
Image
10
7.969679
20
10.990441
11
7.427856
21
10.393971
0
LINE
8
Image
10
7.427856
20
10.393971
11
7.056169
21
9.811054
0
LINE
8
Image
10
7.056169
20
9.811054
11
6.866705
21
9.457554
0
LINE
8
Image
10
6.866705
20
9.457554
11
6.622645
21
9.066806
0
LINE
8
Image
10
6.622645
20
9.066806
11
6.058960
21
8.196028
0
LINE
8
Image
10
6.058960
20
8.196028
11
5.542153
21
7.396241
0
LINE
8
Image
10
5.542153
20
7.396241
11
5.046374
21
7.003699
0
LINE
8
Image
10
5.046374
20
7.003699
11
4.867925
21
6.909031
0
LINE
8
Image
10
4.867925
20
6.909031
11
4.982874
21
6.887010
0
LINE
8
Image
10
4.982874
20
6.887010
11
5.173374
21
6.789971
0
LINE
8
Image
10
5.173374
20
6.789971
11
5.297662
21
6.743940
0
LINE
8
Image
10
5.297662
20
6.743940
11
5.474533
21
6.706554
0
LINE
8
Image
10
5.474533
20
6.706554
11
5.646127
21
6.720243
0
LINE
8
Image
10
5.646127
20
6.720243
11
5.913755
21
6.780661
0
LINE
8
Image
10
5.913755
20
6.780661
11
6.035947
21
6.815862
0
LINE
8
Image
10
6.035947
20
6.815862
11
6.071916
21
7.091062
0
LINE
8
Image
10
6.071916
20
7.091062
11
6.240444
21
7.728373
0
LINE
8
Image
10
6.240444
20
7.728373
11
6.714397
21
8.240960
0
LINE
8
Image
10
6.714397
20
8.240960
11
7.210134
21
8.723409
0
LINE
8
Image
10
7.210134
20
8.723409
11
7.459371
21
9.149278
0
LINE
8
Image
10
7.459371
20
9.149278
11
8.079013
21
9.567412
0
LINE
8
Image
10
8.079013
20
9.567412
11
8.687463
21
8.350653
0
LINE
8
Image
10
8.687463
20
8.350653
11
8.685814
21
8.097046
0
LINE
8
Image
10
8.685814
20
8.097046
11
8.490430
21
7.897441
0
LINE
8
Image
10
8.490430
20
7.897441
11
8.280754
21
7.665777
0
LINE
8
Image
10
8.280754
20
7.665777
11
8.185879
21
7.298360
0
LINE
8
Image
10
8.185879
20
7.298360
11
8.095116
21
6.939003
0
LINE
8
Image
10
8.095116
20
6.939003
11
7.900960
21
6.739268
0
LINE
8
Image
10
7.900960
20
6.739268
11
6.488477
21
5.448362
0
LINE
8
Image
10
6.488477
20
5.448362
11
6.103558
21
5.105697
0
LINE
8
Image
10
6.103558
20
5.105697
11
5.841106
21
4.967130
0
LINE
8
Image
10
5.841106
20
4.967130
11
5.367002
21
4.674633
0
LINE
8
Image
10
5.367002
20
4.674633
11
3.904138
21
3.741227
0
LINE
8
Image
10
3.904138
20
3.741227
11
3.302299
21
3.210061
0
LINE
8
Image
10
3.302299
20
3.210061
11
3.056710
21
2.849146
0
LINE
8
Image
10
3.056710
20
2.849146
11
2.781544
21
2.701167
0
LINE
8
Image
10
2.781544
20
2.701167
11
2.496669
21
2.502201
0
LINE
8
Image
10
2.496669
20
2.502201
11
2.221502
21
2.311701
0
LINE
8
Image
10
2.221502
20
2.311701
11
2.125378
21
2.194103
0
LINE
8
Image
10
2.125378
20
2.194103
11
1.553879
21
1.932960
0
LINE
8
Image
10
1.553879
20
1.932960
11
0.745295
21
1.637163
0
LINE
8
Image
10
0.745295
20
1.637163
11
0.718679
21
1.472376
0
LINE
8
Image
10
0.718679
20
1.472376
11
0.896483
21
1.246902
0
LINE
8
Image
10
0.896483
20
1.246902
11
1.128496
21
1.077554
0
LINE
8
Image
10
1.128496
20
1.077554
11
1.389570
21
1.079959
0
LINE
8
Image
10
1.389570
20
1.079959
11
1.977304
21
1.182400
0
LINE
8
Image
10
1.977304
20
1.182400
11
1.977304
21
1.182400
 0 
ENDSEC
 0 
EOF