999
"DXF R12 Output" (www.mydxf.blogspot.com)
 0 
SECTION
 2 
HEADER
 9 
$ACADVER
 1 
AC1009
 9 
$EXTMIN
 10 
 0 
 20 
 0 
 9 
$EXTMAX
 10 
 8.5 
 20 
 11 
 0 
ENDSEC
 0 
SECTION
 2 
ENTITIES
0
LINE
8
Image
10
21.317830
20
5.443116
11
21.013332
21
5.869934
0
LINE
8
Image
10
21.013332
20
5.869934
11
20.917712
21
6.330320
0
LINE
8
Image
10
20.917712
20
6.330320
11
21.029524
21
6.822427
0
LINE
8
Image
10
21.029524
20
6.822427
11
21.347322
21
7.344411
0
LINE
8
Image
10
21.347322
20
7.344411
11
22.595089
21
8.470625
0
LINE
8
Image
10
22.595089
20
8.470625
11
24.649444
21
9.694200
0
LINE
8
Image
10
24.649444
20
9.694200
11
26.647249
21
10.871370
0
LINE
8
Image
10
26.647249
20
10.871370
11
27.654456
21
11.915266
0
LINE
8
Image
10
27.654456
20
11.915266
11
28.341009
21
12.811476
0
LINE
8
Image
10
28.341009
20
12.811476
11
29.111120
21
13.473083
0
LINE
8
Image
10
29.111120
20
13.473083
11
29.938939
21
13.882755
0
LINE
8
Image
10
29.938939
20
13.882755
11
30.798617
21
14.023164
0
LINE
8
Image
10
30.798617
20
14.023164
11
31.638481
21
14.162894
0
LINE
8
Image
10
31.638481
20
14.162894
11
32.279126
21
14.552330
0
LINE
8
Image
10
32.279126
20
14.552330
11
32.567581
21
14.960837
0
LINE
8
Image
10
32.567581
20
14.960837
11
32.726619
21
15.695656
0
LINE
8
Image
10
32.726619
20
15.695656
11
32.808292
21
19.589834
0
LINE
8
Image
10
32.808292
20
19.589834
11
32.569597
21
26.024923
0
LINE
8
Image
10
32.569597
20
26.024923
11
32.328016
21
28.352892
0
LINE
8
Image
10
32.328016
20
28.352892
11
32.055424
21
29.428171
0
LINE
8
Image
10
32.055424
20
29.428171
11
31.701894
21
29.448044
0
LINE
8
Image
10
31.701894
20
29.448044
11
31.112720
21
29.226926
0
LINE
8
Image
10
31.112720
20
29.226926
11
30.487350
21
29.005036
0
LINE
8
Image
10
30.487350
20
29.005036
11
30.016887
21
29.143792
0
LINE
8
Image
10
30.016887
20
29.143792
11
29.616605
21
29.711984
0
LINE
8
Image
10
29.616605
20
29.711984
11
29.201774
21
30.778401
0
LINE
8
Image
10
29.201774
20
30.778401
11
28.865211
21
32.264487
0
LINE
8
Image
10
28.865211
20
32.264487
11
28.774961
21
33.954821
0
LINE
8
Image
10
28.774961
20
33.954821
11
28.930101
21
35.799202
0
LINE
8
Image
10
28.930101
20
35.799202
11
29.329711
21
37.747425
0
LINE
8
Image
10
29.329711
20
37.747425
11
29.897879
21
40.456453
0
LINE
8
Image
10
29.897879
20
40.456453
11
29.457062
21
41.195146
0
LINE
8
Image
10
29.457062
20
41.195146
11
28.111944
21
42.324449
0
LINE
8
Image
10
28.111944
20
42.324449
11
26.670172
21
43.471105
0
LINE
8
Image
10
26.670172
20
43.471105
11
25.803960
21
44.433845
0
LINE
8
Image
10
25.803960
20
44.433845
11
25.358964
21
45.445021
0
LINE
8
Image
10
25.358964
20
45.445021
11
25.180839
21
46.736987
0
LINE
8
Image
10
25.180839
20
46.736987
11
25.228207
21
48.347548
0
LINE
8
Image
10
25.228207
20
48.347548
11
25.760843
21
49.869866
0
LINE
8
Image
10
25.760843
20
49.869866
11
26.291321
21
51.344896
0
LINE
8
Image
10
26.291321
20
51.344896
11
26.167094
21
52.736046
0
LINE
8
Image
10
26.167094
20
52.736046
11
25.848091
21
54.019545
0
LINE
8
Image
10
25.848091
20
54.019545
11
25.429251
21
55.049332
0
LINE
8
Image
10
25.429251
20
55.049332
11
24.827546
21
55.985337
0
LINE
8
Image
10
24.827546
20
55.985337
11
23.959951
21
56.987488
0
LINE
8
Image
10
23.959951
20
56.987488
11
23.138593
21
58.033112
0
LINE
8
Image
10
23.138593
20
58.033112
11
22.765894
21
59.033429
0
LINE
8
Image
10
22.765894
20
59.033429
11
22.820836
21
60.126940
0
LINE
8
Image
10
22.820836
20
60.126940
11
23.282400
21
61.452149
0
LINE
8
Image
10
23.282400
20
61.452149
11
23.694290
21
62.906364
0
LINE
8
Image
10
23.694290
20
62.906364
11
23.745421
21
65.166555
0
LINE
8
Image
10
23.745421
20
65.166555
11
23.787339
21
67.398597
0
LINE
8
Image
10
23.787339
20
67.398597
11
23.957430
21
67.960390
0
LINE
8
Image
10
23.957430
20
67.960390
11
24.272904
21
68.437730
0
LINE
8
Image
10
24.272904
20
68.437730
11
25.164553
21
69.672843
0
LINE
8
Image
10
25.164553
20
69.672843
11
25.802279
21
70.817655
0
LINE
8
Image
10
25.802279
20
70.817655
11
26.221047
21
71.947445
0
LINE
8
Image
10
26.221047
20
71.947445
11
26.455823
21
73.137491
0
LINE
8
Image
10
26.455823
20
73.137491
11
27.122292
21
76.207797
0
LINE
8
Image
10
27.122292
20
76.207797
11
27.905502
21
77.882655
0
LINE
8
Image
10
27.905502
20
77.882655
11
29.160705
21
79.921990
0
LINE
8
Image
10
29.160705
20
79.921990
11
30.582383
21
81.870646
0
LINE
8
Image
10
30.582383
20
81.870646
11
31.865019
21
83.273467
0
LINE
8
Image
10
31.865019
20
83.273467
11
32.794408
21
84.279789
0
LINE
8
Image
10
32.794408
20
84.279789
11
33.207029
21
85.245158
0
LINE
8
Image
10
33.207029
20
85.245158
11
33.879835
21
87.006191
0
LINE
8
Image
10
33.879835
20
87.006191
11
34.454392
21
87.651806
0
LINE
8
Image
10
34.454392
20
87.651806
11
35.290596
21
88.263633
0
LINE
8
Image
10
35.290596
20
88.263633
11
36.192694
21
88.721243
0
LINE
8
Image
10
36.192694
20
88.721243
11
36.964933
21
88.904204
0
LINE
8
Image
10
36.964933
20
88.904204
11
37.629376
21
88.997716
0
LINE
8
Image
10
37.629376
20
88.997716
11
37.940975
21
89.402037
0
LINE
8
Image
10
37.940975
20
89.402037
11
37.949894
21
90.324870
0
LINE
8
Image
10
37.949894
20
90.324870
11
37.706292
21
91.973917
0
LINE
8
Image
10
37.706292
20
91.973917
11
37.332528
21
93.727123
0
LINE
8
Image
10
37.332528
20
93.727123
11
36.845831
21
95.036029
0
LINE
8
Image
10
36.845831
20
95.036029
11
36.165109
21
96.062884
0
LINE
8
Image
10
36.165109
20
96.062884
11
35.209272
21
96.969935
0
LINE
8
Image
10
35.209272
20
96.969935
11
33.673273
21
97.633441
0
LINE
8
Image
10
33.673273
20
97.633441
11
30.904162
21
98.485596
0
LINE
8
Image
10
30.904162
20
98.485596
11
27.941576
21
99.378275
0
LINE
8
Image
10
27.941576
20
99.378275
11
25.940414
21
100.139216
0
LINE
8
Image
10
25.940414
20
100.139216
11
24.293122
21
101.206851
0
LINE
8
Image
10
24.293122
20
101.206851
11
23.146368
21
102.443798
0
LINE
8
Image
10
23.146368
20
102.443798
11
22.566549
21
103.752175
0
LINE
8
Image
10
22.566549
20
103.752175
11
22.509990
21
104.402561
0
LINE
8
Image
10
22.509990
20
104.402561
11
22.620063
21
105.034099
0
LINE
8
Image
10
22.620063
20
105.034099
11
23.587398
21
106.499500
0
LINE
8
Image
10
23.587398
20
106.499500
11
24.169197
21
107.324119
0
LINE
8
Image
10
24.169197
20
107.324119
11
24.202400
21
107.619651
0
LINE
8
Image
10
24.202400
20
107.619651
11
24.093216
21
107.919927
0
LINE
8
Image
10
24.093216
20
107.919927
11
23.827312
21
108.727891
0
LINE
8
Image
10
23.827312
20
108.727891
11
23.822477
21
109.590618
0
LINE
8
Image
10
23.822477
20
109.590618
11
24.065362
21
110.413575
0
LINE
8
Image
10
24.065362
20
110.413575
11
24.542617
21
111.102228
0
LINE
8
Image
10
24.542617
20
111.102228
11
25.622189
21
111.948851
0
LINE
8
Image
10
25.622189
20
111.948851
11
25.838967
21
112.183554
0
LINE
8
Image
10
25.838967
20
112.183554
11
25.643321
21
112.785849
0
LINE
8
Image
10
25.643321
20
112.785849
11
25.224808
21
113.345501
0
LINE
8
Image
10
25.224808
20
113.345501
11
24.582648
21
113.506372
0
LINE
8
Image
10
24.582648
20
113.506372
11
23.996414
21
113.618220
0
LINE
8
Image
10
23.996414
20
113.618220
11
23.486870
21
113.894606
0
LINE
8
Image
10
23.486870
20
113.894606
11
23.170603
21
114.246791
0
LINE
8
Image
10
23.170603
20
114.246791
11
23.164196
21
114.586035
0
LINE
8
Image
10
23.164196
20
114.586035
11
23.468514
21
114.757832
0
LINE
8
Image
10
23.468514
20
114.757832
11
23.989059
21
114.829287
0
LINE
8
Image
10
23.989059
20
114.829287
11
24.520501
21
114.946551
0
LINE
8
Image
10
24.520501
20
114.946551
11
24.488909
21
115.525251
0
LINE
8
Image
10
24.488909
20
115.525251
11
24.471489
21
116.189132
0
LINE
8
Image
10
24.471489
20
116.189132
11
24.802020
21
116.782021
0
LINE
8
Image
10
24.802020
20
116.782021
11
25.711661
21
118.280864
0
LINE
8
Image
10
25.711661
20
118.280864
11
25.996201
21
119.147367
0
LINE
8
Image
10
25.996201
20
119.147367
11
25.747512
21
119.736071
0
LINE
8
Image
10
25.747512
20
119.736071
11
24.485542
21
121.831764
0
LINE
8
Image
10
24.485542
20
121.831764
11
23.298513
21
124.418041
0
LINE
8
Image
10
23.298513
20
124.418041
11
22.478593
21
126.775238
0
LINE
8
Image
10
22.478593
20
126.775238
11
22.297602
21
127.643036
0
LINE
8
Image
10
22.297602
20
127.643036
11
22.317951
21
128.183690
0
LINE
8
Image
10
22.317951
20
128.183690
11
22.734607
21
128.660964
0
LINE
8
Image
10
22.734607
20
128.660964
11
23.607843
21
129.088769
0
LINE
8
Image
10
23.607843
20
129.088769
11
26.783721
21
129.817801
0
LINE
8
Image
10
26.783721
20
129.817801
11
30.223200
21
130.505068
0
LINE
8
Image
10
30.223200
20
130.505068
11
31.323013
21
131.337541
0
LINE
8
Image
10
31.323013
20
131.337541
11
32.953098
21
132.975433
0
LINE
8
Image
10
32.953098
20
132.975433
11
34.706882
21
134.777735
0
LINE
8
Image
10
34.706882
20
134.777735
11
36.437186
21
136.265378
0
LINE
8
Image
10
36.437186
20
136.265378
11
38.209730
21
137.465920
0
LINE
8
Image
10
38.209730
20
137.465920
11
40.090232
21
138.406922
0
LINE
8
Image
10
40.090232
20
138.406922
11
42.144410
21
139.115942
0
LINE
8
Image
10
42.144410
20
139.115942
11
44.437982
21
139.620540
0
LINE
8
Image
10
44.437982
20
139.620540
11
47.036669
21
139.948275
0
LINE
8
Image
10
47.036669
20
139.948275
11
50.006187
21
140.126707
0
LINE
8
Image
10
50.006187
20
140.126707
11
53.279294
21
140.333736
0
LINE
8
Image
10
53.279294
20
140.333736
11
55.104765
21
140.647770
0
LINE
8
Image
10
55.104765
20
140.647770
11
56.956846
21
141.017193
0
LINE
8
Image
10
56.956846
20
141.017193
11
57.995283
21
140.855184
0
LINE
8
Image
10
57.995283
20
140.855184
11
59.042272
21
140.433514
0
LINE
8
Image
10
59.042272
20
140.433514
11
59.952115
21
139.828617
0
LINE
8
Image
10
59.952115
20
139.828617
11
60.579114
21
139.116928
0
LINE
8
Image
10
60.579114
20
139.116928
11
61.605430
21
137.895130
0
LINE
8
Image
10
61.605430
20
137.895130
11
63.349386
21
136.182191
0
LINE
8
Image
10
63.349386
20
136.182191
11
65.359250
21
134.192476
0
LINE
8
Image
10
65.359250
20
134.192476
11
67.080385
21
132.159111
0
LINE
8
Image
10
67.080385
20
132.159111
11
68.519187
21
130.068387
0
LINE
8
Image
10
68.519187
20
130.068387
11
69.682049
21
127.906593
0
LINE
8
Image
10
69.682049
20
127.906593
11
70.575366
21
125.660022
0
LINE
8
Image
10
70.575366
20
125.660022
11
71.205533
21
123.314962
0
LINE
8
Image
10
71.205533
20
123.314962
11
71.578944
21
120.857705
0
LINE
8
Image
10
71.578944
20
120.857705
11
71.701993
21
118.274540
0
LINE
8
Image
10
71.701993
20
118.274540
11
71.701993
21
116.466423
0
LINE
8
Image
10
71.701993
20
116.466423
11
73.091054
21
115.473258
0
LINE
8
Image
10
73.091054
20
115.473258
11
76.628992
21
112.710763
0
LINE
8
Image
10
76.628992
20
112.710763
11
80.060736
21
109.635533
0
LINE
8
Image
10
80.060736
20
109.635533
11
82.402664
21
107.054717
0
LINE
8
Image
10
82.402664
20
107.054717
11
84.474471
21
104.229884
0
LINE
8
Image
10
84.474471
20
104.229884
11
85.953887
21
101.651384
0
LINE
8
Image
10
85.953887
20
101.651384
11
86.370738
21
100.607742
0
LINE
8
Image
10
86.370738
20
100.607742
11
86.518641
21
99.809564
0
LINE
8
Image
10
86.518641
20
99.809564
11
86.400227
21
99.052626
0
LINE
8
Image
10
86.400227
20
99.052626
11
85.952696
21
98.620723
0
LINE
8
Image
10
85.952696
20
98.620723
11
85.037616
21
98.452931
0
LINE
8
Image
10
85.037616
20
98.452931
11
83.516555
21
98.488323
0
LINE
8
Image
10
83.516555
20
98.488323
11
81.277565
21
98.834662
0
LINE
8
Image
10
81.277565
20
98.834662
11
78.499121
21
99.588517
0
LINE
8
Image
10
78.499121
20
99.588517
11
75.416222
21
100.676062
0
LINE
8
Image
10
75.416222
20
100.676062
11
72.263864
21
102.023470
0
LINE
8
Image
10
72.263864
20
102.023470
11
69.396560
21
103.187635
0
LINE
8
Image
10
69.396560
20
103.187635
11
69.182061
21
103.071648
0
LINE
8
Image
10
69.182061
20
103.071648
11
69.179944
21
102.701947
0
LINE
8
Image
10
69.179944
20
102.701947
11
69.840186
21
101.070971
0
LINE
8
Image
10
69.840186
20
101.070971
11
70.771415
21
98.577438
0
LINE
8
Image
10
70.771415
20
98.577438
11
71.251104
21
97.009947
0
LINE
8
Image
10
71.251104
20
97.009947
11
70.535753
21
96.394628
0
LINE
8
Image
10
70.535753
20
96.394628
11
70.065514
21
96.059721
0
LINE
8
Image
10
70.065514
20
96.059721
11
69.465121
21
95.874735
0
LINE
8
Image
10
69.465121
20
95.874735
11
66.814092
21
95.779311
0
LINE
8
Image
10
66.814092
20
95.779311
11
63.389269
21
95.618712
0
LINE
8
Image
10
63.389269
20
95.618712
11
63.188615
21
95.460480
0
LINE
8
Image
10
63.188615
20
95.460480
11
63.059779
21
95.136132
0
LINE
8
Image
10
63.059779
20
95.136132
11
62.970754
21
93.783855
0
LINE
8
Image
10
62.970754
20
93.783855
11
62.908093
21
92.256221
0
LINE
8
Image
10
62.908093
20
92.256221
11
62.663242
21
91.337255
0
LINE
8
Image
10
62.663242
20
91.337255
11
62.150905
21
90.870896
0
LINE
8
Image
10
62.150905
20
90.870896
11
61.285781
21
90.701085
0
LINE
8
Image
10
61.285781
20
90.701085
11
60.105474
21
90.619943
0
LINE
8
Image
10
60.105474
20
90.619943
11
60.678219
21
89.429319
0
LINE
8
Image
10
60.678219
20
89.429319
11
61.342497
21
88.418265
0
LINE
8
Image
10
61.342497
20
88.418265
11
62.160876
21
87.709530
0
LINE
8
Image
10
62.160876
20
87.709530
11
63.629817
21
86.642659
0
LINE
8
Image
10
63.629817
20
86.642659
11
64.820256
21
85.264509
0
LINE
8
Image
10
64.820256
20
85.264509
11
65.814334
21
83.455226
0
LINE
8
Image
10
65.814334
20
83.455226
11
66.694194
21
81.094955
0
LINE
8
Image
10
66.694194
20
81.094955
11
67.323203
21
79.450205
0
LINE
8
Image
10
67.323203
20
79.450205
11
68.167687
21
77.903735
0
LINE
8
Image
10
68.167687
20
77.903735
11
69.329029
21
76.296120
0
LINE
8
Image
10
69.329029
20
76.296120
11
70.908614
21
74.467939
0
LINE
8
Image
10
70.908614
20
74.467939
11
72.690664
21
72.425099
0
LINE
8
Image
10
72.690664
20
72.425099
11
73.668444
21
70.914578
0
LINE
8
Image
10
73.668444
20
70.914578
11
74.060450
21
69.464058
0
LINE
8
Image
10
74.060450
20
69.464058
11
74.085177
21
67.601222
0
LINE
8
Image
10
74.085177
20
67.601222
11
74.012848
21
62.095572
0
LINE
8
Image
10
74.012848
20
62.095572
11
74.245838
21
60.754597
0
LINE
8
Image
10
74.245838
20
60.754597
11
74.723438
21
59.530757
0
LINE
8
Image
10
74.723438
20
59.530757
11
75.302333
21
57.966893
0
LINE
8
Image
10
75.302333
20
57.966893
11
75.609368
21
56.621027
0
LINE
8
Image
10
75.609368
20
56.621027
11
75.542981
21
55.408776
0
LINE
8
Image
10
75.542981
20
55.408776
11
74.836876
21
54.119588
0
LINE
8
Image
10
74.836876
20
54.119588
11
73.714197
21
52.839357
0
LINE
8
Image
10
73.714197
20
52.839357
11
72.252177
21
51.602962
0
LINE
8
Image
10
72.252177
20
51.602962
11
71.018095
21
50.648379
0
LINE
8
Image
10
71.018095
20
50.648379
11
70.436553
21
50.046589
0
LINE
8
Image
10
70.436553
20
50.046589
11
70.589128
21
49.553146
0
LINE
8
Image
10
70.589128
20
49.553146
11
71.120045
21
48.859056
0
LINE
8
Image
10
71.120045
20
48.859056
11
72.037340
21
47.730551
0
LINE
8
Image
10
72.037340
20
47.730551
11
72.665412
21
46.545438
0
LINE
8
Image
10
72.665412
20
46.545438
11
73.025383
21
45.250707
0
LINE
8
Image
10
73.025383
20
45.250707
11
73.138374
21
43.793347
0
LINE
8
Image
10
73.138374
20
43.793347
11
72.958189
21
41.969410
0
LINE
8
Image
10
72.958189
20
41.969410
11
72.406776
21
40.318624
0
LINE
8
Image
10
72.406776
20
40.318624
11
71.454993
21
38.779137
0
LINE
8
Image
10
71.454993
20
38.779137
11
70.073699
21
37.289093
0
LINE
8
Image
10
70.073699
20
37.289093
11
68.472522
21
35.807399
0
LINE
8
Image
10
68.472522
20
35.807399
11
68.764341
21
33.926566
0
LINE
8
Image
10
68.764341
20
33.926566
11
69.056163
21
30.338791
0
LINE
8
Image
10
69.056163
20
30.338791
11
68.977584
21
29.144431
0
LINE
8
Image
10
68.977584
20
29.144431
11
68.714716
21
28.527917
0
LINE
8
Image
10
68.714716
20
28.527917
11
68.226860
21
28.451694
0
LINE
8
Image
10
68.226860
20
28.451694
11
67.473316
21
28.878208
0
LINE
8
Image
10
67.473316
20
28.878208
11
66.895569
21
29.225457
0
LINE
8
Image
10
66.895569
20
29.225457
11
66.450882
21
29.303816
0
LINE
8
Image
10
66.450882
20
29.303816
11
66.136596
21
29.099178
0
LINE
8
Image
10
66.136596
20
29.099178
11
65.950048
21
28.597437
0
LINE
8
Image
10
65.950048
20
28.597437
11
65.949521
21
26.646215
0
LINE
8
Image
10
65.949521
20
26.646215
11
66.428012
21
23.337295
0
LINE
8
Image
10
66.428012
20
23.337295
11
67.213467
21
19.352776
0
LINE
8
Image
10
67.213467
20
19.352776
11
68.006541
21
16.149793
0
LINE
8
Image
10
68.006541
20
16.149793
11
68.735999
21
13.979735
0
LINE
8
Image
10
68.735999
20
13.979735
11
69.054612
21
13.360612
0
LINE
8
Image
10
69.054612
20
13.360612
11
69.330607
21
13.093993
0
LINE
8
Image
10
69.330607
20
13.093993
11
70.816124
21
12.207397
0
LINE
8
Image
10
70.816124
20
12.207397
11
71.521818
21
11.560678
0
LINE
8
Image
10
71.521818
20
11.560678
11
72.138230
21
10.742842
0
LINE
8
Image
10
72.138230
20
10.742842
11
73.016671
21
8.867956
0
LINE
8
Image
10
73.016671
20
8.867956
11
73.235431
21
7.947975
0
LINE
8
Image
10
73.235431
20
7.947975
11
73.278373
21
7.131014
0
LINE
8
Image
10
73.278373
20
7.131014
11
73.123861
21
6.485607
0
LINE
8
Image
10
73.123861
20
6.485607
11
72.750263
21
6.080290
0
LINE
8
Image
10
72.750263
20
6.080290
11
70.874275
21
5.770858
0
LINE
8
Image
10
70.874275
20
5.770858
11
67.310559
21
5.534062
0
LINE
8
Image
10
67.310559
20
5.534062
11
63.324950
21
5.427479
0
LINE
8
Image
10
63.324950
20
5.427479
11
60.183285
21
5.508685
0
LINE
8
Image
10
60.183285
20
5.508685
11
57.808369
21
5.835430
0
LINE
8
Image
10
57.808369
20
5.835430
11
57.020836
21
6.091903
0
LINE
8
Image
10
57.020836
20
6.091903
11
56.464608
21
6.442289
0
LINE
8
Image
10
56.464608
20
6.442289
11
56.113200
21
6.910474
0
LINE
8
Image
10
56.113200
20
6.910474
11
55.940129
21
7.520342
0
LINE
8
Image
10
55.940129
20
7.520342
11
56.023061
21
9.260670
0
LINE
8
Image
10
56.023061
20
9.260670
11
56.123704
21
10.328089
0
LINE
8
Image
10
56.123704
20
10.328089
11
55.962773
21
11.914922
0
LINE
8
Image
10
55.962773
20
11.914922
11
54.163003
21
21.034614
0
LINE
8
Image
10
54.163003
20
21.034614
11
53.024074
21
26.590857
0
LINE
8
Image
10
53.024074
20
26.590857
11
52.024553
21
26.674150
0
LINE
8
Image
10
52.024553
20
26.674150
11
51.161284
21
26.887058
0
LINE
8
Image
10
51.161284
20
26.887058
11
50.754311
21
27.534045
0
LINE
8
Image
10
50.754311
20
27.534045
11
50.511424
21
28.040840
0
LINE
8
Image
10
50.511424
20
28.040840
11
50.214148
21
28.268685
0
LINE
8
Image
10
50.214148
20
28.268685
11
49.830663
21
28.226244
0
LINE
8
Image
10
49.830663
20
28.226244
11
49.329153
21
27.922185
0
LINE
8
Image
10
49.329153
20
27.922185
11
48.757945
21
27.593103
0
LINE
8
Image
10
48.757945
20
27.593103
11
48.301546
21
27.532274
0
LINE
8
Image
10
48.301546
20
27.532274
11
47.999043
21
27.732519
0
LINE
8
Image
10
47.999043
20
27.732519
11
47.889523
21
28.186657
0
LINE
8
Image
10
47.889523
20
28.186657
11
47.766265
21
28.710481
0
LINE
8
Image
10
47.766265
20
28.710481
11
47.461239
21
29.008637
0
LINE
8
Image
10
47.461239
20
29.008637
11
47.071571
21
29.035661
0
LINE
8
Image
10
47.071571
20
29.035661
11
46.694386
21
28.746091
0
LINE
8
Image
10
46.694386
20
28.746091
11
46.280331
21
27.279927
0
LINE
8
Image
10
46.280331
20
27.279927
11
45.867121
21
24.443972
0
LINE
8
Image
10
45.867121
20
24.443972
11
45.544581
21
21.004385
0
LINE
8
Image
10
45.544581
20
21.004385
11
45.402535
21
17.727326
0
LINE
8
Image
10
45.402535
20
17.727326
11
45.480551
21
14.510616
0
LINE
8
Image
10
45.480551
20
14.510616
11
45.668395
21
13.648261
0
LINE
8
Image
10
45.668395
20
13.648261
11
46.011545
21
12.832540
0
LINE
8
Image
10
46.011545
20
12.832540
11
46.522316
21
11.107182
0
LINE
8
Image
10
46.522316
20
11.107182
11
46.803667
21
8.920875
0
LINE
8
Image
10
46.803667
20
8.920875
11
46.808998
21
6.949446
0
LINE
8
Image
10
46.808998
20
6.949446
11
46.693594
21
6.255507
0
LINE
8
Image
10
46.693594
20
6.255507
11
46.491710
21
5.868724
0
LINE
8
Image
10
46.491710
20
5.868724
11
44.275669
21
5.558644
0
LINE
8
Image
10
44.275669
20
5.558644
11
37.930958
21
5.289520
0
LINE
8
Image
10
37.930958
20
5.289520
11
25.142664
21
5.034198
0
LINE
8
Image
10
25.142664
20
5.034198
11
22.374373
21
5.153181
0
LINE
8
Image
10
22.374373
20
5.153181
11
21.317830
21
5.443116
0
LINE
8
Image
10
21.317830
20
5.443116
11
21.317830
21
5.443116
0
LINE
8
Image
10
25.399968
20
7.673172
11
25.244525
21
7.860034
0
LINE
8
Image
10
25.244525
20
7.860034
11
24.870802
21
7.937755
0
LINE
8
Image
10
24.870802
20
7.937755
11
24.497079
21
7.860034
0
LINE
8
Image
10
24.497079
20
7.860034
11
24.341636
21
7.673172
0
LINE
8
Image
10
24.341636
20
7.673172
11
24.497079
21
7.486310
0
LINE
8
Image
10
24.497079
20
7.486310
11
24.870802
21
7.408589
0
LINE
8
Image
10
24.870802
20
7.408589
11
25.244525
21
7.486310
0
LINE
8
Image
10
25.244525
20
7.486310
11
25.399968
21
7.673172
0
LINE
8
Image
10
25.399968
20
7.673172
11
25.399968
21
7.673172
0
LINE
8
Image
10
28.958609
20
7.655207
11
28.511434
21
7.885606
0
LINE
8
Image
10
28.511434
20
7.885606
11
27.907576
21
7.982546
0
LINE
8
Image
10
27.907576
20
7.982546
11
27.354412
21
7.936842
0
LINE
8
Image
10
27.354412
20
7.936842
11
27.059316
21
7.739312
0
LINE
8
Image
10
27.059316
20
7.739312
11
27.072702
21
7.590118
0
LINE
8
Image
10
27.072702
20
7.590118
11
27.240569
21
7.487266
0
LINE
8
Image
10
27.240569
20
7.487266
11
28.076667
21
7.408584
0
LINE
8
Image
10
28.076667
20
7.408584
11
28.840142
21
7.474454
0
LINE
8
Image
10
28.840142
20
7.474454
11
28.985653
21
7.552050
0
LINE
8
Image
10
28.985653
20
7.552050
11
28.958609
21
7.655207
0
LINE
8
Image
10
28.958609
20
7.655207
11
28.958609
21
7.655207
0
LINE
8
Image
10
33.710422
20
7.634464
11
33.616512
21
7.896349
0
LINE
8
Image
10
33.616512
20
7.896349
11
33.152069
21
8.167861
0
LINE
8
Image
10
33.152069
20
8.167861
11
31.753124
21
8.466921
0
LINE
8
Image
10
31.753124
20
8.466921
11
31.230446
21
8.405980
0
LINE
8
Image
10
31.230446
20
8.405980
11
30.883665
21
8.238266
0
LINE
8
Image
10
30.883665
20
8.238266
11
30.739313
21
7.986442
0
LINE
8
Image
10
30.739313
20
7.986442
11
30.823920
21
7.673172
0
LINE
8
Image
10
30.823920
20
7.673172
11
31.331354
21
7.486786
0
LINE
8
Image
10
31.331354
20
7.486786
11
32.268396
21
7.414364
0
LINE
8
Image
10
32.268396
20
7.414364
11
33.204826
21
7.461674
0
LINE
8
Image
10
33.204826
20
7.461674
11
33.710422
21
7.634482
0
LINE
8
Image
10
33.710422
20
7.634482
11
33.710422
21
7.634464
0
LINE
8
Image
10
45.213787
20
7.832406
11
45.455664
21
8.381046
0
LINE
8
Image
10
45.455664
20
8.381046
11
45.445635
21
9.518467
0
LINE
8
Image
10
45.445635
20
9.518467
11
45.221713
21
10.844415
0
LINE
8
Image
10
45.221713
20
10.844415
11
44.821911
21
11.958636
0
LINE
8
Image
10
44.821911
20
11.958636
11
44.583778
21
12.703513
0
LINE
8
Image
10
44.583778
20
12.703513
11
44.401769
21
13.896968
0
LINE
8
Image
10
44.401769
20
13.896968
11
44.212907
21
17.253093
0
LINE
8
Image
10
44.212907
20
17.253093
11
44.268889
21
21.273970
0
LINE
8
Image
10
44.268889
20
21.273970
11
44.583281
21
25.206556
0
LINE
8
Image
10
44.583281
20
25.206556
11
44.881595
21
29.241446
0
LINE
8
Image
10
44.881595
20
29.241446
11
44.625334
21
29.580242
0
LINE
8
Image
10
44.625334
20
29.580242
11
44.255794
21
29.559574
0
LINE
8
Image
10
44.255794
20
29.559574
11
43.774609
21
29.180210
0
LINE
8
Image
10
43.774609
20
29.180210
11
43.183414
21
28.442919
0
LINE
8
Image
10
43.183414
20
28.442919
11
42.444635
21
27.593296
0
LINE
8
Image
10
42.444635
20
27.593296
11
41.855687
21
27.252295
0
LINE
8
Image
10
41.855687
20
27.252295
11
41.363987
21
27.417556
0
LINE
8
Image
10
41.363987
20
27.417556
11
40.844520
21
27.836305
0
LINE
8
Image
10
40.844520
20
27.836305
11
40.410260
21
28.392997
0
LINE
8
Image
10
40.410260
20
28.392997
11
40.174180
21
28.972085
0
LINE
8
Image
10
40.174180
20
28.972085
11
39.949852
21
29.368413
0
LINE
8
Image
10
39.949852
20
29.368413
11
39.544281
21
29.578202
0
LINE
8
Image
10
39.544281
20
29.578202
11
39.260837
21
29.555112
0
LINE
8
Image
10
39.260837
20
29.555112
11
38.999053
21
29.379194
0
LINE
8
Image
10
38.999053
20
29.379194
11
38.425945
21
28.453725
0
LINE
8
Image
10
38.425945
20
28.453725
11
37.885501
21
27.587998
0
LINE
8
Image
10
37.885501
20
27.587998
11
37.343901
21
27.276635
0
LINE
8
Image
10
37.343901
20
27.276635
11
36.753486
21
27.516630
0
LINE
8
Image
10
36.753486
20
27.516630
11
36.066592
21
28.304979
0
LINE
8
Image
10
36.066592
20
28.304979
11
35.200392
21
29.300958
0
LINE
8
Image
10
35.200392
20
29.300958
11
34.992568
21
29.299949
0
LINE
8
Image
10
34.992568
20
29.299949
11
34.924956
21
28.972104
0
LINE
8
Image
10
34.924956
20
28.972104
11
34.760216
21
28.527071
0
LINE
8
Image
10
34.760216
20
28.527071
11
34.364138
21
28.014411
0
LINE
8
Image
10
34.364138
20
28.014411
11
34.063907
21
27.647566
0
LINE
8
Image
10
34.063907
20
27.647566
11
33.916785
21
27.185185
0
LINE
8
Image
10
33.916785
20
27.185185
11
33.970700
21
25.170144
0
LINE
8
Image
10
33.970700
20
25.170144
11
34.156669
21
18.937196
0
LINE
8
Image
10
34.156669
20
18.937196
11
34.063878
21
16.348507
0
LINE
8
Image
10
34.063878
20
16.348507
11
33.853829
21
14.701986
0
LINE
8
Image
10
33.853829
20
14.701986
11
33.648471
21
13.520036
0
LINE
8
Image
10
33.648471
20
13.520036
11
33.799520
21
13.247661
0
LINE
8
Image
10
33.799520
20
13.247661
11
34.153660
21
12.994391
0
LINE
8
Image
10
34.153660
20
12.994391
11
35.078664
21
12.272836
0
LINE
8
Image
10
35.078664
20
12.272836
11
36.041336
21
11.291145
0
LINE
8
Image
10
36.041336
20
11.291145
11
36.914451
21
10.193427
0
LINE
8
Image
10
36.914451
20
10.193427
11
37.570786
21
9.123788
0
LINE
8
Image
10
37.570786
20
9.123788
11
38.473802
21
7.630908
0
LINE
8
Image
10
38.473802
20
7.630908
11
41.692669
21
7.586394
0
LINE
8
Image
10
41.692669
20
7.586394
11
45.213787
21
7.832425
0
LINE
8
Image
10
45.213787
20
7.832425
11
45.213787
21
7.832406
0
LINE
8
Image
10
60.782433
20
7.832935
11
60.275315
21
7.853811
0
LINE
8
Image
10
60.275315
20
7.853811
11
60.160507
21
7.746973
0
LINE
8
Image
10
60.160507
20
7.746973
11
60.435168
21
7.693960
0
LINE
8
Image
10
60.435168
20
7.693960
11
60.746362
21
7.726167
0
LINE
8
Image
10
60.746362
20
7.726167
11
60.782433
21
7.832925
0
LINE
8
Image
10
60.782433
20
7.832925
11
60.782433
21
7.832935
0
LINE
8
Image
10
64.558252
20
8.202338
11
64.961846
21
8.593079
0
LINE
8
Image
10
64.961846
20
8.593079
11
65.584887
21
8.731504
0
LINE
8
Image
10
65.584887
20
8.731504
11
66.250609
21
8.576061
0
LINE
8
Image
10
66.250609
20
8.576061
11
66.807208
21
8.202338
0
LINE
8
Image
10
66.807208
20
8.202338
11
67.347111
21
7.830978
0
LINE
8
Image
10
67.347111
20
7.830978
11
67.972693
21
7.681218
0
LINE
8
Image
10
67.972693
20
7.681218
11
68.457475
21
7.735193
0
LINE
8
Image
10
68.457475
20
7.735193
11
68.196268
21
7.958948
0
LINE
8
Image
10
68.196268
20
7.958948
11
67.869260
21
8.307824
0
LINE
8
Image
10
67.869260
20
8.307824
11
67.733248
21
8.767908
0
LINE
8
Image
10
67.733248
20
8.767908
11
67.765655
21
9.051376
0
LINE
8
Image
10
67.765655
20
9.051376
11
67.910493
21
9.189539
0
LINE
8
Image
10
67.910493
20
9.189539
11
68.823158
21
9.123045
0
LINE
8
Image
10
68.823158
20
9.123045
11
69.631865
21
9.085322
0
LINE
8
Image
10
69.631865
20
9.085322
11
69.824385
21
9.286208
0
LINE
8
Image
10
69.824385
20
9.286208
11
69.437223
21
9.624565
0
LINE
8
Image
10
69.437223
20
9.624565
11
68.506886
21
9.999256
0
LINE
8
Image
10
68.506886
20
9.999256
11
66.615392
21
10.256368
0
LINE
8
Image
10
66.615392
20
10.256368
11
64.444224
21
10.156628
0
LINE
8
Image
10
64.444224
20
10.156628
11
62.655771
21
9.779765
0
LINE
8
Image
10
62.655771
20
9.779765
11
62.112059
21
9.512329
0
LINE
8
Image
10
62.112059
20
9.512329
11
61.912422
21
9.205510
0
LINE
8
Image
10
61.912422
20
9.205510
11
62.141621
21
8.807055
0
LINE
8
Image
10
62.141621
20
8.807055
11
62.682696
21
8.303266
0
LINE
8
Image
10
62.682696
20
8.303266
11
63.315863
21
7.869604
0
LINE
8
Image
10
63.315863
20
7.869604
11
63.821341
21
7.681533
0
LINE
8
Image
10
63.821341
20
7.681533
11
64.224964
21
7.831071
0
LINE
8
Image
10
64.224964
20
7.831071
11
64.558252
21
8.202338
0
LINE
8
Image
10
64.558252
20
8.202338
11
64.558252
21
8.202338
0
LINE
8
Image
10
71.701993
20
7.937755
11
71.507690
21
8.124617
0
LINE
8
Image
10
71.507690
20
8.124617
11
71.040536
21
8.202338
0
LINE
8
Image
10
71.040536
20
8.202338
11
70.573381
21
8.124617
0
LINE
8
Image
10
70.573381
20
8.124617
11
70.379078
21
7.937755
0
LINE
8
Image
10
70.379078
20
7.937755
11
70.573381
21
7.750893
0
LINE
8
Image
10
70.573381
20
7.750893
11
71.040536
21
7.673172
0
LINE
8
Image
10
71.040536
20
7.673172
11
71.507690
21
7.750893
0
LINE
8
Image
10
71.507690
20
7.750893
11
71.701993
21
7.937755
0
LINE
8
Image
10
71.701993
20
7.937755
11
71.701993
21
7.937755
0
LINE
8
Image
10
30.284607
20
9.352824
11
30.568804
21
9.635385
0
LINE
8
Image
10
30.568804
20
9.635385
11
30.629538
21
9.881380
0
LINE
8
Image
10
30.629538
20
9.881380
11
30.211184
21
10.223136
0
LINE
8
Image
10
30.211184
20
10.223136
11
29.290682
21
10.297023
0
LINE
8
Image
10
29.290682
20
10.297023
11
28.129168
21
10.021971
0
LINE
8
Image
10
28.129168
20
10.021971
11
27.384340
21
9.724939
0
LINE
8
Image
10
27.384340
20
9.724939
11
28.178089
21
9.372448
0
LINE
8
Image
10
28.178089
20
9.372448
11
29.389924
21
9.027202
0
LINE
8
Image
10
29.389924
20
9.027202
11
29.845817
21
9.106442
0
LINE
8
Image
10
29.845817
20
9.106442
11
30.284607
21
9.352816
0
LINE
8
Image
10
30.284607
20
9.352816
11
30.284607
21
9.352824
0
LINE
8
Image
10
58.690973
20
12.180158
11
59.872387
21
12.798656
0
LINE
8
Image
10
59.872387
20
12.798656
11
61.131993
21
13.234003
0
LINE
8
Image
10
61.131993
20
13.234003
11
62.588299
21
13.517568
0
LINE
8
Image
10
62.588299
20
13.517568
11
64.359815
21
13.680722
0
LINE
8
Image
10
64.359815
20
13.680722
11
66.045309
21
13.797536
0
LINE
8
Image
10
66.045309
20
13.797536
11
66.523090
21
13.909626
0
LINE
8
Image
10
66.523090
20
13.909626
11
66.795285
21
14.112938
0
LINE
8
Image
10
66.795285
20
14.112938
11
66.890189
21
14.449048
0
LINE
8
Image
10
66.890189
20
14.449048
11
66.836094
21
14.959529
0
LINE
8
Image
10
66.836094
20
14.959529
11
66.394088
21
16.669909
0
LINE
8
Image
10
66.394088
20
16.669909
11
65.254870
21
22.905628
0
LINE
8
Image
10
65.254870
20
22.905628
11
64.659866
21
26.516154
0
LINE
8
Image
10
64.659866
20
26.516154
11
64.406679
21
27.059427
0
LINE
8
Image
10
64.406679
20
27.059427
11
64.059055
21
27.207380
0
LINE
8
Image
10
64.059055
20
27.207380
11
63.476303
21
27.525762
0
LINE
8
Image
10
63.476303
20
27.525762
11
62.923182
21
28.199566
0
LINE
8
Image
10
62.923182
20
28.199566
11
62.480781
21
28.827650
0
LINE
8
Image
10
62.480781
20
28.827650
11
62.096365
21
29.044573
0
LINE
8
Image
10
62.096365
20
29.044573
11
61.707303
21
28.852333
0
LINE
8
Image
10
61.707303
20
28.852333
11
61.250965
21
28.252927
0
LINE
8
Image
10
61.250965
20
28.252927
11
60.425280
21
27.326434
0
LINE
8
Image
10
60.425280
20
27.326434
11
59.848374
21
27.539564
0
LINE
8
Image
10
59.848374
20
27.539564
11
58.877726
21
28.185961
0
LINE
8
Image
10
58.877726
20
28.185961
11
57.893121
21
28.821606
0
LINE
8
Image
10
57.893121
20
28.821606
11
57.282651
21
29.008881
0
LINE
8
Image
10
57.282651
20
29.008881
11
56.948100
21
28.638175
0
LINE
8
Image
10
56.948100
20
28.638175
11
56.626877
21
27.932295
0
LINE
8
Image
10
56.626877
20
27.932295
11
56.254457
21
27.195195
0
LINE
8
Image
10
56.254457
20
27.195195
11
55.727120
21
26.987731
0
LINE
8
Image
10
55.727120
20
26.987731
11
55.219859
21
27.079701
0
LINE
8
Image
10
55.219859
20
27.079701
11
54.826008
21
27.300820
0
LINE
8
Image
10
54.826008
20
27.300820
11
54.474937
21
27.513787
0
LINE
8
Image
10
54.474937
20
27.513787
11
54.315393
21
27.269175
0
LINE
8
Image
10
54.315393
20
27.269175
11
54.578120
21
25.460897
0
LINE
8
Image
10
54.578120
20
25.460897
11
56.091837
21
17.991909
0
LINE
8
Image
10
56.091837
20
17.991909
11
57.282847
21
11.972646
0
LINE
8
Image
10
57.282847
20
11.972646
11
57.424883
21
11.727036
0
LINE
8
Image
10
57.424883
20
11.727036
11
57.661349
21
11.673036
0
LINE
8
Image
10
57.661349
20
11.673036
11
58.690973
21
12.180158
0
LINE
8
Image
10
58.690973
20
12.180158
11
58.690973
21
12.180158
0
LINE
8
Image
10
52.255143
20
29.633561
11
52.642298
21
30.194146
0
LINE
8
Image
10
52.642298
20
30.194146
11
52.996721
21
30.427310
0
LINE
8
Image
10
52.996721
20
30.427310
11
53.485852
21
30.194146
0
LINE
8
Image
10
53.485852
20
30.194146
11
54.196880
21
29.633561
0
LINE
8
Image
10
54.196880
20
29.633561
11
55.308798
21
28.839812
0
LINE
8
Image
10
55.308798
20
28.839812
11
55.636242
21
29.145424
0
LINE
8
Image
10
55.636242
20
29.145424
11
56.082439
21
29.880192
0
LINE
8
Image
10
56.082439
20
29.880192
11
56.887763
21
31.090262
0
LINE
8
Image
10
56.887763
20
31.090262
11
57.459815
21
30.893508
0
LINE
8
Image
10
57.459815
20
30.893508
11
58.449615
21
30.182174
0
LINE
8
Image
10
58.449615
20
30.182174
11
59.464559
21
29.421484
0
LINE
8
Image
10
59.464559
20
29.421484
11
60.097060
21
29.106067
0
LINE
8
Image
10
60.097060
20
29.106067
11
60.483817
21
29.339874
0
LINE
8
Image
10
60.483817
20
29.339874
11
60.907930
21
29.899816
0
LINE
8
Image
10
60.907930
20
29.899816
11
61.436969
21
30.510661
0
LINE
8
Image
10
61.436969
20
30.510661
11
62.044714
21
30.714276
0
LINE
8
Image
10
62.044714
20
30.714276
11
62.652458
21
30.510661
0
LINE
8
Image
10
62.652458
20
30.510661
11
63.181497
21
29.899816
0
LINE
8
Image
10
63.181497
20
29.899816
11
63.623655
21
29.336164
0
LINE
8
Image
10
63.623655
20
29.336164
11
64.081318
21
29.139669
0
LINE
8
Image
10
64.081318
20
29.139669
11
64.526418
21
29.311111
0
LINE
8
Image
10
64.526418
20
29.311111
11
64.930885
21
29.851268
0
LINE
8
Image
10
64.930885
20
29.851268
11
65.366902
21
30.574612
0
LINE
8
Image
10
65.366902
20
30.574612
11
65.784370
21
30.972391
0
LINE
8
Image
10
65.784370
20
30.972391
11
66.238566
21
31.076431
0
LINE
8
Image
10
66.238566
20
31.076431
11
66.784771
21
30.918556
0
LINE
8
Image
10
66.784771
20
30.918556
11
67.367314
21
30.749415
0
LINE
8
Image
10
67.367314
20
30.749415
11
67.736997
21
30.854392
0
LINE
8
Image
10
67.736997
20
30.854392
11
67.806329
21
31.614359
0
LINE
8
Image
10
67.806329
20
31.614359
11
67.614092
21
33.257806
0
LINE
8
Image
10
67.614092
20
33.257806
11
66.635022
21
37.967926
0
LINE
8
Image
10
66.635022
20
37.967926
11
66.267629
21
39.876781
0
LINE
8
Image
10
66.267629
20
39.876781
11
66.263206
21
41.341359
0
LINE
8
Image
10
66.263206
20
41.341359
11
66.428560
21
42.598128
0
LINE
8
Image
10
66.428560
20
42.598128
11
65.473910
21
42.598128
0
LINE
8
Image
10
65.473910
20
42.598128
11
64.077562
21
42.809887
0
LINE
8
Image
10
64.077562
20
42.809887
11
62.299644
21
43.362825
0
LINE
8
Image
10
62.299644
20
43.362825
11
60.476231
21
44.133428
0
LINE
8
Image
10
60.476231
20
44.133428
11
58.943393
21
44.998187
0
LINE
8
Image
10
58.943393
20
44.998187
11
57.683841
21
45.732347
0
LINE
8
Image
10
57.683841
20
45.732347
11
56.794093
21
46.037707
0
LINE
8
Image
10
56.794093
20
46.037707
11
55.976873
21
45.771583
0
LINE
8
Image
10
55.976873
20
45.771583
11
54.752499
21
44.954064
0
LINE
8
Image
10
54.752499
20
44.954064
11
50.932228
21
41.549951
0
LINE
8
Image
10
50.932228
20
41.549951
11
47.492649
21
38.432324
0
LINE
8
Image
10
47.492649
20
38.432324
11
46.875176
21
37.860702
0
LINE
8
Image
10
46.875176
20
37.860702
11
46.890182
21
37.606689
0
LINE
8
Image
10
46.890182
20
37.606689
11
47.079759
21
37.256364
0
LINE
8
Image
10
47.079759
20
37.256364
11
48.070112
21
35.345317
0
LINE
8
Image
10
48.070112
20
35.345317
11
48.677856
21
33.432034
0
LINE
8
Image
10
48.677856
20
33.432034
11
49.085996
21
31.556601
0
LINE
8
Image
10
49.085996
20
31.556601
11
49.396066
21
31.028195
0
LINE
8
Image
10
49.396066
20
31.028195
11
49.953231
21
30.586986
0
LINE
8
Image
10
49.953231
20
30.586986
11
50.578537
21
30.118303
0
LINE
8
Image
10
50.578537
20
30.118303
11
51.052438
21
29.523841
0
LINE
8
Image
10
51.052438
20
29.523841
11
51.369014
21
29.031907
0
LINE
8
Image
10
51.369014
20
29.031907
11
51.642523
21
28.883253
0
LINE
8
Image
10
51.642523
20
28.883253
11
51.921665
21
29.082323
0
LINE
8
Image
10
51.921665
20
29.082323
11
52.255143
21
29.633561
0
LINE
8
Image
10
52.255143
20
29.633561
11
52.255143
21
29.633561
0
LINE
8
Image
10
42.841261
20
30.181597
11
43.378126
21
30.984308
0
LINE
8
Image
10
43.378126
20
30.984308
11
43.818720
21
31.401563
0
LINE
8
Image
10
43.818720
20
31.401563
11
44.356509
21
31.292613
0
LINE
8
Image
10
44.356509
20
31.292613
11
45.127049
21
30.830188
0
LINE
8
Image
10
45.127049
20
30.830188
11
45.831822
21
30.381192
0
LINE
8
Image
10
45.831822
20
30.381192
11
46.366054
21
30.289584
0
LINE
8
Image
10
46.366054
20
30.289584
11
46.808433
21
30.570629
0
LINE
8
Image
10
46.808433
20
30.570629
11
47.237649
21
31.239588
0
LINE
8
Image
10
47.237649
20
31.239588
11
47.506793
21
32.056644
0
LINE
8
Image
10
47.506793
20
32.056644
11
47.487775
21
32.986270
0
LINE
8
Image
10
47.487775
20
32.986270
11
47.166186
21
34.115566
0
LINE
8
Image
10
47.166186
20
34.115566
11
46.527616
21
35.531629
0
LINE
8
Image
10
46.527616
20
35.531629
11
45.991245
21
36.537000
0
LINE
8
Image
10
45.991245
20
36.537000
11
45.739098
21
36.808603
0
LINE
8
Image
10
45.739098
20
36.808603
11
45.420794
21
36.939339
0
LINE
8
Image
10
45.420794
20
36.939339
11
44.355170
21
36.817778
0
LINE
8
Image
10
44.355170
20
36.817778
11
42.333280
21
36.251449
0
LINE
8
Image
10
42.333280
20
36.251449
11
39.888625
21
35.792208
0
LINE
8
Image
10
39.888625
20
35.792208
11
38.757377
21
35.787370
0
LINE
8
Image
10
38.757377
20
35.787370
11
37.657727
21
35.938545
0
LINE
8
Image
10
37.657727
20
35.938545
11
36.567834
21
36.250351
0
LINE
8
Image
10
36.567834
20
36.250351
11
35.465855
21
36.727407
0
LINE
8
Image
10
35.465855
20
36.727407
11
33.138277
21
38.195739
0
LINE
8
Image
10
33.138277
20
38.195739
11
31.252539
21
39.423132
0
LINE
8
Image
10
31.252539
20
39.423132
11
30.907011
21
38.741290
0
LINE
8
Image
10
30.907011
20
38.741290
11
30.456220
21
37.144099
0
LINE
8
Image
10
30.456220
20
37.144099
11
30.064924
21
35.304064
0
LINE
8
Image
10
30.064924
20
35.304064
11
29.897879
21
33.893689
0
LINE
8
Image
10
29.897879
20
33.893689
11
30.171458
21
32.123440
0
LINE
8
Image
10
30.171458
20
32.123440
11
30.445034
21
31.403875
0
LINE
8
Image
10
30.445034
20
31.403875
11
31.230248
21
32.156159
0
LINE
8
Image
10
31.230248
20
32.156159
11
31.962072
21
32.738279
0
LINE
8
Image
10
31.962072
20
32.738279
11
32.168328
21
32.672126
0
LINE
8
Image
10
32.168328
20
32.672126
11
32.403692
21
32.395477
0
LINE
8
Image
10
32.403692
20
32.395477
11
33.085207
21
31.022622
0
LINE
8
Image
10
33.085207
20
31.022622
11
33.347497
21
30.410689
0
LINE
8
Image
10
33.347497
20
30.410689
11
33.614368
21
30.215767
0
LINE
8
Image
10
33.614368
20
30.215767
11
33.944304
21
30.440809
0
LINE
8
Image
10
33.944304
20
30.440809
11
34.395790
21
31.088767
0
LINE
8
Image
10
34.395790
20
31.088767
11
34.934795
21
31.782681
0
LINE
8
Image
10
34.934795
20
31.782681
11
35.405354
21
31.954086
0
LINE
8
Image
10
35.405354
20
31.954086
11
35.852970
21
31.593613
0
LINE
8
Image
10
35.852970
20
31.593613
11
36.323145
21
30.691893
0
LINE
8
Image
10
36.323145
20
30.691893
11
36.811650
21
29.757584
0
LINE
8
Image
10
36.811650
20
29.757584
11
37.201283
21
29.368978
0
LINE
8
Image
10
37.201283
20
29.368978
11
37.631698
21
29.718724
0
LINE
8
Image
10
37.631698
20
29.718724
11
38.218255
21
30.559601
0
LINE
8
Image
10
38.218255
20
30.559601
11
38.847002
21
31.410223
0
LINE
8
Image
10
38.847002
20
31.410223
11
39.372115
21
31.750225
0
LINE
8
Image
10
39.372115
20
31.750225
11
39.947091
21
31.366629
0
LINE
8
Image
10
39.947091
20
31.366629
11
40.694276
21
30.427310
0
LINE
8
Image
10
40.694276
20
30.427310
11
41.405144
21
29.493001
0
LINE
8
Image
10
41.405144
20
29.493001
11
41.898086
21
29.104395
0
LINE
8
Image
10
41.898086
20
29.104395
11
42.314466
21
29.420823
0
LINE
8
Image
10
42.314466
20
29.420823
11
42.841261
21
30.181597
0
LINE
8
Image
10
42.841261
20
30.181597
11
42.841261
21
30.181597
0
LINE
8
Image
10
43.725082
20
37.928738
11
45.354259
21
38.644423
0
LINE
8
Image
10
45.354259
20
38.644423
11
46.837781
21
39.559109
0
LINE
8
Image
10
46.837781
20
39.559109
11
48.440083
21
40.862907
0
LINE
8
Image
10
48.440083
20
40.862907
11
50.425599
21
42.745927
0
LINE
8
Image
10
50.425599
20
42.745927
11
52.358770
21
44.579572
0
LINE
8
Image
10
52.358770
20
44.579572
11
53.917357
21
45.867490
0
LINE
8
Image
10
53.917357
20
45.867490
11
55.264729
21
46.730611
0
LINE
8
Image
10
55.264729
20
46.730611
11
56.564260
21
47.289865
0
LINE
8
Image
10
56.564260
20
47.289865
11
58.005772
21
47.998122
0
LINE
8
Image
10
58.005772
20
47.998122
11
58.199558
21
49.233476
0
LINE
8
Image
10
58.199558
20
49.233476
11
58.138378
21
50.271035
0
LINE
8
Image
10
58.138378
20
50.271035
11
56.349993
21
50.922605
0
LINE
8
Image
10
56.349993
20
50.922605
11
54.570638
21
51.916712
0
LINE
8
Image
10
54.570638
20
51.916712
11
53.684276
21
52.979131
0
LINE
8
Image
10
53.684276
20
52.979131
11
53.261719
21
54.156037
0
LINE
8
Image
10
53.261719
20
54.156037
11
53.281758
21
55.584720
0
LINE
8
Image
10
53.281758
20
55.584720
11
53.723184
21
57.402470
0
LINE
8
Image
10
53.723184
20
57.402470
11
54.258356
21
59.109954
0
LINE
8
Image
10
54.258356
20
59.109954
11
53.719768
21
60.361932
0
LINE
8
Image
10
53.719768
20
60.361932
11
53.321223
21
61.608948
0
LINE
8
Image
10
53.321223
20
61.608948
11
53.212881
21
62.864517
0
LINE
8
Image
10
53.212881
20
62.864517
11
53.396466
21
64.187655
0
LINE
8
Image
10
53.396466
20
64.187655
11
53.873700
21
65.637378
0
LINE
8
Image
10
53.873700
20
65.637378
11
54.415682
21
67.352162
0
LINE
8
Image
10
54.415682
20
67.352162
11
54.418262
21
69.122574
0
LINE
8
Image
10
54.418262
20
69.122574
11
54.373803
21
70.568058
0
LINE
8
Image
10
54.373803
20
70.568058
11
54.472052
21
70.836650
0
LINE
8
Image
10
54.472052
20
70.836650
11
54.665285
21
70.908509
0
LINE
8
Image
10
54.665285
20
70.908509
11
55.044529
21
70.653154
0
LINE
8
Image
10
55.044529
20
70.653154
11
55.421916
21
70.013297
0
LINE
8
Image
10
55.421916
20
70.013297
11
55.711797
21
69.178249
0
LINE
8
Image
10
55.711797
20
69.178249
11
55.828524
21
68.337323
0
LINE
8
Image
10
55.828524
20
68.337323
11
55.579016
21
67.107001
0
LINE
8
Image
10
55.579016
20
67.107001
11
54.977064
21
65.182668
0
LINE
8
Image
10
54.977064
20
65.182668
11
54.124099
21
62.764115
0
LINE
8
Image
10
54.124099
20
62.764115
11
54.714807
21
60.949340
0
LINE
8
Image
10
54.714807
20
60.949340
11
55.121735
21
59.603322
0
LINE
8
Image
10
55.121735
20
59.603322
11
55.259266
21
58.642614
0
LINE
8
Image
10
55.259266
20
58.642614
11
55.128801
21
57.686946
0
LINE
8
Image
10
55.128801
20
57.686946
11
54.731740
21
56.356042
0
LINE
8
Image
10
54.731740
20
56.356042
11
54.321352
21
54.763913
0
LINE
8
Image
10
54.321352
20
54.763913
11
54.355728
21
54.294763
0
LINE
8
Image
10
54.355728
20
54.294763
11
54.533303
21
53.833608
0
LINE
8
Image
10
54.533303
20
53.833608
11
55.064692
21
53.092787
0
LINE
8
Image
10
55.064692
20
53.092787
11
55.835274
21
52.461879
0
LINE
8
Image
10
55.835274
20
52.461879
11
56.718030
21
52.023067
0
LINE
8
Image
10
56.718030
20
52.023067
11
57.585940
21
51.858533
0
LINE
8
Image
10
57.585940
20
51.858533
11
58.160502
21
51.956270
0
LINE
8
Image
10
58.160502
20
51.956270
11
58.464659
21
52.193285
0
LINE
8
Image
10
58.464659
20
52.193285
11
58.451966
21
52.485281
0
LINE
8
Image
10
58.451966
20
52.485281
11
58.075979
21
52.747963
0
LINE
8
Image
10
58.075979
20
52.747963
11
57.779410
21
52.942704
0
LINE
8
Image
10
57.779410
20
52.942704
11
57.692180
21
53.207225
0
LINE
8
Image
10
57.692180
20
53.207225
11
58.094964
21
53.894499
0
LINE
8
Image
10
58.094964
20
53.894499
11
59.182785
21
54.707579
0
LINE
8
Image
10
59.182785
20
54.707579
11
60.854101
21
55.544256
0
LINE
8
Image
10
60.854101
20
55.544256
11
62.520561
21
56.043252
0
LINE
8
Image
10
62.520561
20
56.043252
11
64.434231
21
56.295568
0
LINE
8
Image
10
64.434231
20
56.295568
11
66.352876
21
56.285870
0
LINE
8
Image
10
66.352876
20
56.285870
11
68.034264
21
55.998823
0
LINE
8
Image
10
68.034264
20
55.998823
11
69.061253
21
55.611007
0
LINE
8
Image
10
69.061253
20
55.611007
11
69.863348
21
55.101903
0
LINE
8
Image
10
69.863348
20
55.101903
11
70.463356
21
54.452670
0
LINE
8
Image
10
70.463356
20
54.452670
11
70.884082
21
53.644468
0
LINE
8
Image
10
70.884082
20
53.644468
11
71.191308
21
53.130598
0
LINE
8
Image
10
71.191308
20
53.130598
11
71.542862
21
52.916865
0
LINE
8
Image
10
71.542862
20
52.916865
11
72.085965
21
53.126005
0
LINE
8
Image
10
72.085965
20
53.126005
11
72.784223
21
53.652491
0
LINE
8
Image
10
72.784223
20
53.652491
11
73.466201
21
54.344924
0
LINE
8
Image
10
73.466201
20
54.344924
11
73.960463
21
55.051907
0
LINE
8
Image
10
73.960463
20
55.051907
11
74.257635
21
55.803256
0
LINE
8
Image
10
74.257635
20
55.803256
11
74.291095
21
56.592927
0
LINE
8
Image
10
74.291095
20
56.592927
11
74.032048
21
57.657626
0
LINE
8
Image
10
74.032048
20
57.657626
11
73.451699
21
59.234054
0
LINE
8
Image
10
73.451699
20
59.234054
11
72.730558
21
61.158811
0
LINE
8
Image
10
72.730558
20
61.158811
11
72.398255
21
62.491501
0
LINE
8
Image
10
72.398255
20
62.491501
11
72.388160
21
63.733084
0
LINE
8
Image
10
72.388160
20
63.733084
11
72.633640
21
65.384521
0
LINE
8
Image
10
72.633640
20
65.384521
11
72.931361
21
67.926022
0
LINE
8
Image
10
72.931361
20
67.926022
11
72.870818
21
68.935965
0
LINE
8
Image
10
72.870818
20
68.935965
11
72.636639
21
69.866486
0
LINE
8
Image
10
72.636639
20
69.866486
11
72.203299
21
70.788422
0
LINE
8
Image
10
72.203299
20
70.788422
11
71.545271
21
71.772611
0
LINE
8
Image
10
71.545271
20
71.772611
11
69.453048
21
74.211095
0
LINE
8
Image
10
69.453048
20
74.211095
11
68.013989
21
75.861226
0
LINE
8
Image
10
68.013989
20
75.861226
11
66.989632
21
77.311314
0
LINE
8
Image
10
66.989632
20
77.311314
11
66.165778
21
78.915310
0
LINE
8
Image
10
66.165778
20
78.915310
11
65.328231
21
81.027163
0
LINE
8
Image
10
65.328231
20
81.027163
11
64.545008
21
82.991571
0
LINE
8
Image
10
64.545008
20
82.991571
11
63.824831
21
84.356674
0
LINE
8
Image
10
63.824831
20
84.356674
11
63.027746
21
85.339003
0
LINE
8
Image
10
63.027746
20
85.339003
11
62.013800
21
86.155089
0
LINE
8
Image
10
62.013800
20
86.155089
11
60.627559
21
87.109828
0
LINE
8
Image
10
60.627559
20
87.109828
11
59.515403
21
86.615929
0
LINE
8
Image
10
59.515403
20
86.615929
11
51.314455
21
82.472559
0
LINE
8
Image
10
51.314455
20
82.472559
11
48.861903
21
81.269220
0
LINE
8
Image
10
48.861903
20
81.269220
11
46.792614
21
80.552155
0
LINE
8
Image
10
46.792614
20
80.552155
11
44.772028
21
80.236921
0
LINE
8
Image
10
44.772028
20
80.236921
11
42.465582
21
80.239073
0
LINE
8
Image
10
42.465582
20
80.239073
11
40.368671
21
80.447450
0
LINE
8
Image
10
40.368671
20
80.447450
11
38.493086
21
80.853120
0
LINE
8
Image
10
38.493086
20
80.853120
11
36.779096
21
81.473152
0
LINE
8
Image
10
36.779096
20
81.473152
11
35.166967
21
82.324615
0
LINE
8
Image
10
35.166967
20
82.324615
11
33.824098
21
83.150889
0
LINE
8
Image
10
33.824098
20
83.150889
11
33.117764
21
82.628925
0
LINE
8
Image
10
33.117764
20
82.628925
11
32.183652
21
81.751653
0
LINE
8
Image
10
32.183652
20
81.751653
11
31.078596
21
80.442146
0
LINE
8
Image
10
31.078596
20
80.442146
11
29.990795
21
78.941575
0
LINE
8
Image
10
29.990795
20
78.941575
11
29.108448
21
77.491112
0
LINE
8
Image
10
29.108448
20
77.491112
11
28.384860
21
75.731021
0
LINE
8
Image
10
28.384860
20
75.731021
11
27.915930
21
73.570402
0
LINE
8
Image
10
27.915930
20
73.570402
11
27.646706
21
71.996792
0
LINE
8
Image
10
27.646706
20
71.996792
11
27.323890
21
70.887959
0
LINE
8
Image
10
27.323890
20
70.887959
11
26.808211
21
69.894764
0
LINE
8
Image
10
26.808211
20
69.894764
11
25.960398
21
68.668070
0
LINE
8
Image
10
25.960398
20
68.668070
11
25.414047
21
67.863070
0
LINE
8
Image
10
25.414047
20
67.863070
11
25.113329
21
67.123263
0
LINE
8
Image
10
25.113329
20
67.123263
11
24.862210
21
64.302451
0
LINE
8
Image
10
24.862210
20
64.302451
11
24.666617
21
61.977762
0
LINE
8
Image
10
24.666617
20
61.977762
11
24.397883
21
60.673311
0
LINE
8
Image
10
24.397883
20
60.673311
11
24.154532
21
60.010983
0
LINE
8
Image
10
24.154532
20
60.010983
11
24.100975
21
59.299109
0
LINE
8
Image
10
24.100975
20
59.299109
11
24.232893
21
58.614643
0
LINE
8
Image
10
24.232893
20
58.614643
11
24.545967
21
58.034541
0
LINE
8
Image
10
24.545967
20
58.034541
11
26.197496
21
56.726099
0
LINE
8
Image
10
26.197496
20
56.726099
11
27.796161
21
55.827278
0
LINE
8
Image
10
27.796161
20
55.827278
11
28.133547
21
57.190542
0
LINE
8
Image
10
28.133547
20
57.190542
11
28.319822
21
58.211152
0
LINE
8
Image
10
28.319822
20
58.211152
11
28.672209
21
59.218262
0
LINE
8
Image
10
28.672209
20
59.218262
11
30.179591
21
61.890994
0
LINE
8
Image
10
30.179591
20
61.890994
11
31.088503
21
63.324505
0
LINE
8
Image
10
31.088503
20
63.324505
11
31.088503
21
68.000506
0
LINE
8
Image
10
31.088503
20
68.000506
11
31.165993
21
71.772310
0
LINE
8
Image
10
31.165993
20
71.772310
11
31.277808
21
72.677252
0
LINE
8
Image
10
31.277808
20
72.677252
11
31.451627
21
73.115422
0
LINE
8
Image
10
31.451627
20
73.115422
11
31.962183
21
73.552183
0
LINE
8
Image
10
31.962183
20
73.552183
11
32.130924
21
73.462049
0
LINE
8
Image
10
32.130924
20
73.462049
11
32.252046
21
73.117395
0
LINE
8
Image
10
32.252046
20
73.117395
11
32.381647
21
71.517994
0
LINE
8
Image
10
32.381647
20
71.517994
11
32.411417
21
68.460913
0
LINE
8
Image
10
32.411417
20
68.460913
11
32.411417
21
63.367894
0
LINE
8
Image
10
32.411417
20
63.367894
11
31.637322
21
62.044978
0
LINE
8
Image
10
31.637322
20
62.044978
11
30.560390
21
60.132746
0
LINE
8
Image
10
30.560390
20
60.132746
11
29.919315
21
58.723429
0
LINE
8
Image
10
29.919315
20
58.723429
11
29.570409
21
57.423849
0
LINE
8
Image
10
29.570409
20
57.423849
11
29.369983
21
55.840830
0
LINE
8
Image
10
29.369983
20
55.840830
11
29.002882
21
53.518697
0
LINE
8
Image
10
29.002882
20
53.518697
11
28.079112
21
51.640993
0
LINE
8
Image
10
28.079112
20
51.640993
11
26.752083
21
49.092966
0
LINE
8
Image
10
26.752083
20
49.092966
11
26.517818
21
48.130688
0
LINE
8
Image
10
26.517818
20
48.130688
11
26.458300
21
47.061421
0
LINE
8
Image
10
26.458300
20
47.061421
11
26.518114
21
46.010765
0
LINE
8
Image
10
26.518114
20
46.010765
11
26.769207
21
45.247459
0
LINE
8
Image
10
26.769207
20
45.247459
11
27.319058
21
44.579433
0
LINE
8
Image
10
27.319058
20
44.579433
11
28.275146
21
43.814617
0
LINE
8
Image
10
28.275146
20
43.814617
11
32.049984
21
40.737900
0
LINE
8
Image
10
32.049984
20
40.737900
11
34.266468
21
38.999511
0
LINE
8
Image
10
34.266468
20
38.999511
11
36.115580
21
37.803773
0
LINE
8
Image
10
36.115580
20
37.803773
11
37.783213
21
37.136355
0
LINE
8
Image
10
37.783213
20
37.136355
11
39.819741
21
37.122107
0
LINE
8
Image
10
39.819741
20
37.122107
11
41.851843
21
37.391896
0
LINE
8
Image
10
41.851843
20
37.391896
11
43.725082
21
37.928738
0
LINE
8
Image
10
43.725082
20
37.928738
11
43.725082
21
37.928738
0
LINE
8
Image
10
69.434842
20
38.465275
11
70.236454
21
39.311599
0
LINE
8
Image
10
70.236454
20
39.311599
11
71.004515
21
40.462202
0
LINE
8
Image
10
71.004515
20
40.462202
11
71.389878
21
41.338886
0
LINE
8
Image
10
71.389878
20
41.338886
11
71.645762
21
42.288927
0
LINE
8
Image
10
71.645762
20
42.288927
11
71.777516
21
44.268323
0
LINE
8
Image
10
71.777516
20
44.268323
11
71.416619
21
46.118873
0
LINE
8
Image
10
71.416619
20
46.118873
11
71.056690
21
46.907857
0
LINE
8
Image
10
71.056690
20
46.907857
11
70.579915
21
47.559059
0
LINE
8
Image
10
70.579915
20
47.559059
11
69.735718
21
48.154371
0
LINE
8
Image
10
69.735718
20
48.154371
11
69.315880
21
47.794328
0
LINE
8
Image
10
69.315880
20
47.794328
11
68.708848
21
46.928696
0
LINE
8
Image
10
68.708848
20
46.928696
11
68.125335
21
45.680799
0
LINE
8
Image
10
68.125335
20
45.680799
11
68.133935
21
44.349011
0
LINE
8
Image
10
68.133935
20
44.349011
11
68.162270
21
43.082416
0
LINE
8
Image
10
68.162270
20
43.082416
11
67.884013
21
42.011315
0
LINE
8
Image
10
67.884013
20
42.011315
11
67.604655
21
41.219961
0
LINE
8
Image
10
67.604655
20
41.219961
11
67.491853
21
40.498296
0
LINE
8
Image
10
67.491853
20
40.498296
11
67.747160
21
38.827820
0
LINE
8
Image
10
67.747160
20
38.827820
11
67.989843
21
38.161862
0
LINE
8
Image
10
67.989843
20
38.161862
11
68.293244
21
37.892077
0
LINE
8
Image
10
68.293244
20
37.892077
11
68.745524
21
37.999528
0
LINE
8
Image
10
68.745524
20
37.999528
11
69.434842
21
38.465275
0
LINE
8
Image
10
69.434842
20
38.465275
11
69.434842
21
38.465275
0
LINE
8
Image
10
67.040136
20
46.797859
11
68.334740
21
49.108185
0
LINE
8
Image
10
68.334740
20
49.108185
11
69.150292
21
50.916023
0
LINE
8
Image
10
69.150292
20
50.916023
11
69.554386
21
52.404034
0
LINE
8
Image
10
69.554386
20
52.404034
11
69.614616
21
53.754876
0
LINE
8
Image
10
69.614616
20
53.754876
11
69.379986
21
54.177253
0
LINE
8
Image
10
69.379986
20
54.177253
11
68.789496
21
54.531758
0
LINE
8
Image
10
68.789496
20
54.531758
11
66.860437
21
54.997255
0
LINE
8
Image
10
66.860437
20
54.997255
11
64.466439
21
55.071575
0
LINE
8
Image
10
64.466439
20
55.071575
11
63.294777
21
54.937109
0
LINE
8
Image
10
63.294777
20
54.937109
11
62.246506
21
54.674926
0
LINE
8
Image
10
62.246506
20
54.674926
11
61.095430
21
54.159283
0
LINE
8
Image
10
61.095430
20
54.159283
11
60.338121
21
53.503270
0
LINE
8
Image
10
60.338121
20
53.503270
11
59.920939
21
52.637385
0
LINE
8
Image
10
59.920939
20
52.637385
11
59.790244
21
51.492123
0
LINE
8
Image
10
59.790244
20
51.492123
11
59.425442
21
48.423158
0
LINE
8
Image
10
59.425442
20
48.423158
11
59.191950
21
46.379755
0
LINE
8
Image
10
59.191950
20
46.379755
11
60.000123
21
45.761246
0
LINE
8
Image
10
60.000123
20
45.761246
11
61.654632
21
44.960576
0
LINE
8
Image
10
61.654632
20
44.960576
11
63.499618
21
44.259242
0
LINE
8
Image
10
63.499618
20
44.259242
11
64.879223
21
43.938744
0
LINE
8
Image
10
64.879223
20
43.938744
11
65.184109
21
44.109572
0
LINE
8
Image
10
65.184109
20
44.109572
11
65.644682
21
44.641436
0
LINE
8
Image
10
65.644682
20
44.641436
11
67.040136
21
46.797859
0
LINE
8
Image
10
67.040136
20
46.797859
11
67.040136
21
46.797859
0
LINE
8
Image
10
46.621623
20
81.880369
11
49.500046
21
82.924782
0
LINE
8
Image
10
49.500046
20
82.924782
11
53.048892
21
84.793494
0
LINE
8
Image
10
53.048892
20
84.793494
11
56.662947
21
86.698232
0
LINE
8
Image
10
56.662947
20
86.698232
11
58.202605
21
87.519898
0
LINE
8
Image
10
58.202605
20
87.519898
11
59.069424
21
88.148120
0
LINE
8
Image
10
59.069424
20
88.148120
11
59.371979
21
88.691703
0
LINE
8
Image
10
59.371979
20
88.691703
11
59.218848
21
89.259449
0
LINE
8
Image
10
59.218848
20
89.259449
11
58.974007
21
89.584335
0
LINE
8
Image
10
58.974007
20
89.584335
11
58.646918
21
89.635065
0
LINE
8
Image
10
58.646918
20
89.635065
11
57.164557
21
88.777707
0
LINE
8
Image
10
57.164557
20
88.777707
11
52.144540
21
86.030579
0
LINE
8
Image
10
52.144540
20
86.030579
11
49.191346
21
84.609041
0
LINE
8
Image
10
49.191346
20
84.609041
11
47.095774
21
83.733217
0
LINE
8
Image
10
47.095774
20
83.733217
11
44.726081
21
83.276859
0
LINE
8
Image
10
44.726081
20
83.276859
11
42.150160
21
83.314104
0
LINE
8
Image
10
42.150160
20
83.314104
11
39.715408
21
83.808120
0
LINE
8
Image
10
39.715408
20
83.808120
11
38.659533
21
84.214906
0
LINE
8
Image
10
38.659533
20
84.214906
11
37.769223
21
84.722073
0
LINE
8
Image
10
37.769223
20
84.722073
11
37.270402
21
85.176691
0
LINE
8
Image
10
37.270402
20
85.176691
11
37.069318
21
85.603467
0
LINE
8
Image
10
37.069318
20
85.603467
11
37.172048
21
85.954350
0
LINE
8
Image
10
37.172048
20
85.954350
11
37.584669
21
86.181290
0
LINE
8
Image
10
37.584669
20
86.181290
11
37.975623
21
86.425534
0
LINE
8
Image
10
37.975623
20
86.425534
11
38.047689
21
86.884123
0
LINE
8
Image
10
38.047689
20
86.884123
11
37.888347
21
87.259702
0
LINE
8
Image
10
37.888347
20
87.259702
11
37.571091
21
87.469944
0
LINE
8
Image
10
37.571091
20
87.469944
11
36.635741
21
87.443733
0
LINE
8
Image
10
36.635741
20
87.443733
11
35.587441
21
86.904126
0
LINE
8
Image
10
35.587441
20
86.904126
11
34.771990
21
85.949759
0
LINE
8
Image
10
34.771990
20
85.949759
11
34.483505
21
85.147078
0
LINE
8
Image
10
34.483505
20
85.147078
11
34.850005
21
84.449235
0
LINE
8
Image
10
34.850005
20
84.449235
11
35.550884
21
83.672174
0
LINE
8
Image
10
35.550884
20
83.672174
11
36.411274
21
83.068302
0
LINE
8
Image
10
36.411274
20
83.068302
11
37.551776
21
82.571263
0
LINE
8
Image
10
37.551776
20
82.571263
11
39.092993
21
82.114700
0
LINE
8
Image
10
39.092993
20
82.114700
11
41.085997
21
81.707452
0
LINE
8
Image
10
41.085997
20
81.707452
11
42.999935
21
81.532808
0
LINE
8
Image
10
42.999935
20
81.532808
11
44.842558
21
81.590528
0
LINE
8
Image
10
44.842558
20
81.590528
11
46.621623
21
81.880369
0
LINE
8
Image
10
46.621623
20
81.880369
11
46.621623
21
81.880369
0
LINE
8
Image
10
50.043139
20
86.459282
11
55.090917
21
88.870292
0
LINE
8
Image
10
55.090917
20
88.870292
11
56.339193
21
89.434806
0
LINE
8
Image
10
56.339193
20
89.434806
11
56.205012
21
91.614872
0
LINE
8
Image
10
56.205012
20
91.614872
11
55.797743
21
96.430824
0
LINE
8
Image
10
55.797743
20
96.430824
11
55.504328
21
97.209336
0
LINE
8
Image
10
55.504328
20
97.209336
11
55.013563
21
97.591236
0
LINE
8
Image
10
55.013563
20
97.591236
11
54.466382
21
97.974263
0
LINE
8
Image
10
54.466382
20
97.974263
11
54.145136
21
98.359616
0
LINE
8
Image
10
54.145136
20
98.359616
11
54.061752
21
98.725164
0
LINE
8
Image
10
54.061752
20
98.725164
11
54.228154
21
99.048779
0
LINE
8
Image
10
54.228154
20
99.048779
11
54.684600
21
99.111561
0
LINE
8
Image
10
54.684600
20
99.111561
11
55.529622
21
98.739955
0
LINE
8
Image
10
55.529622
20
98.739955
11
56.461986
21
98.330756
0
LINE
8
Image
10
56.461986
20
98.330756
11
57.255983
21
98.160558
0
LINE
8
Image
10
57.255983
20
98.160558
11
58.021696
21
98.405169
0
LINE
8
Image
10
58.021696
20
98.405169
11
58.852294
21
99.022316
0
LINE
8
Image
10
58.852294
20
99.022316
11
59.559758
21
99.836969
0
LINE
8
Image
10
59.559758
20
99.836969
11
59.956066
21
100.674097
0
LINE
8
Image
10
59.956066
20
100.674097
11
60.134967
21
101.467846
0
LINE
8
Image
10
60.134967
20
101.467846
11
59.449660
21
100.839061
0
LINE
8
Image
10
59.449660
20
100.839061
11
58.860910
21
100.445052
0
LINE
8
Image
10
58.860910
20
100.445052
11
58.369375
21
100.373766
0
LINE
8
Image
10
58.369375
20
100.373766
11
58.053788
21
100.609190
0
LINE
8
Image
10
58.053788
20
100.609190
11
57.992887
21
101.135312
0
LINE
8
Image
10
57.992887
20
101.135312
11
57.917021
21
101.617776
0
LINE
8
Image
10
57.917021
20
101.617776
11
57.216074
21
101.649357
0
LINE
8
Image
10
57.216074
20
101.649357
11
56.644487
21
101.666556
0
LINE
8
Image
10
56.644487
20
101.666556
11
56.381584
21
101.853121
0
LINE
8
Image
10
56.381584
20
101.853121
11
56.430422
21
102.201409
0
LINE
8
Image
10
56.430422
20
102.201409
11
56.794061
21
102.703781
0
LINE
8
Image
10
56.794061
20
102.703781
11
57.382926
21
103.061559
0
LINE
8
Image
10
57.382926
20
103.061559
11
58.249268
21
103.187635
0
LINE
8
Image
10
58.249268
20
103.187635
11
58.967752
21
103.263876
0
LINE
8
Image
10
58.967752
20
103.263876
11
59.266592
21
103.447178
0
LINE
8
Image
10
59.266592
20
103.447178
11
59.031136
21
103.733347
0
LINE
8
Image
10
59.031136
20
103.733347
11
58.424722
21
103.892673
0
LINE
8
Image
10
58.424722
20
103.892673
11
57.597278
21
103.906997
0
LINE
8
Image
10
57.597278
20
103.906997
11
56.698735
21
103.758163
0
LINE
8
Image
10
56.698735
20
103.758163
11
55.298313
21
103.481068
0
LINE
8
Image
10
55.298313
20
103.481068
11
55.080611
21
103.607263
0
LINE
8
Image
10
55.080611
20
103.607263
11
55.033264
21
103.925120
0
LINE
8
Image
10
55.033264
20
103.925120
11
54.908759
21
104.193472
0
LINE
8
Image
10
54.908759
20
104.193472
11
54.484855
21
104.477906
0
LINE
8
Image
10
54.484855
20
104.477906
11
52.436522
21
105.249176
0
LINE
8
Image
10
52.436522
20
105.249176
11
49.839783
21
106.100326
0
LINE
8
Image
10
49.839783
20
106.100326
11
48.276185
21
105.253446
0
LINE
8
Image
10
48.276185
20
105.253446
11
46.681501
21
104.565342
0
LINE
8
Image
10
46.681501
20
104.565342
11
44.985955
21
104.392411
0
LINE
8
Image
10
44.985955
20
104.392411
11
43.491017
21
104.496941
0
LINE
8
Image
10
43.491017
20
104.496941
11
42.148957
21
104.827920
0
LINE
8
Image
10
42.148957
20
104.827920
11
40.994702
21
105.373091
0
LINE
8
Image
10
40.994702
20
105.373091
11
40.063179
21
106.120196
0
LINE
8
Image
10
40.063179
20
106.120196
11
39.644374
21
106.604881
0
LINE
8
Image
10
39.644374
20
106.604881
11
39.421315
21
107.064535
0
LINE
8
Image
10
39.421315
20
107.064535
11
39.362354
21
108.623405
0
LINE
8
Image
10
39.362354
20
108.623405
11
39.309505
21
109.913840
0
LINE
8
Image
10
39.309505
20
109.913840
11
38.997184
21
110.769401
0
LINE
8
Image
10
38.997184
20
110.769401
11
38.388363
21
111.243540
0
LINE
8
Image
10
38.388363
20
111.243540
11
37.446014
21
111.389708
0
LINE
8
Image
10
37.446014
20
111.389708
11
34.547465
21
111.824786
0
LINE
8
Image
10
34.547465
20
111.824786
11
32.768825
21
112.127334
0
LINE
8
Image
10
32.768825
20
112.127334
11
32.319505
21
112.052412
0
LINE
8
Image
10
32.319505
20
112.052412
11
31.906482
21
111.826902
0
LINE
8
Image
10
31.906482
20
111.826902
11
31.360286
21
111.247663
0
LINE
8
Image
10
31.360286
20
111.247663
11
31.065934
21
110.469980
0
LINE
8
Image
10
31.065934
20
110.469980
11
31.049551
21
109.629860
0
LINE
8
Image
10
31.049551
20
109.629860
11
31.337258
21
108.863305
0
LINE
8
Image
10
31.337258
20
108.863305
11
31.738466
21
108.392875
0
LINE
8
Image
10
31.738466
20
108.392875
11
32.313093
21
108.011528
0
LINE
8
Image
10
32.313093
20
108.011528
11
34.395480
21
107.305814
0
LINE
8
Image
10
34.395480
20
107.305814
11
35.284873
21
106.957052
0
LINE
8
Image
10
35.284873
20
106.957052
11
35.669831
21
106.553424
0
LINE
8
Image
10
35.669831
20
106.553424
11
35.548238
21
106.170458
0
LINE
8
Image
10
35.548238
20
106.170458
11
35.061437
21
105.956536
0
LINE
8
Image
10
35.061437
20
105.956536
11
34.293360
21
105.927884
0
LINE
8
Image
10
34.293360
20
105.927884
11
33.327938
21
106.100726
0
LINE
8
Image
10
33.327938
20
106.100726
11
32.001412
21
106.277002
0
LINE
8
Image
10
32.001412
20
106.277002
11
30.315849
21
106.203738
0
LINE
8
Image
10
30.315849
20
106.203738
11
28.310381
21
106.016207
0
LINE
8
Image
10
28.310381
20
106.016207
11
26.779104
21
106.207972
0
LINE
8
Image
10
26.779104
20
106.207972
11
25.472136
21
106.240090
0
LINE
8
Image
10
25.472136
20
106.240090
11
25.062525
21
106.026891
0
LINE
8
Image
10
25.062525
20
106.026891
11
24.596296
21
105.599777
0
LINE
8
Image
10
24.596296
20
105.599777
11
24.132169
21
105.034540
0
LINE
8
Image
10
24.132169
20
105.034540
11
23.878677
21
104.476782
0
LINE
8
Image
10
23.878677
20
104.476782
11
23.836288
21
103.925577
0
LINE
8
Image
10
23.836288
20
103.925577
11
24.005472
21
103.379996
0
LINE
8
Image
10
24.005472
20
103.379996
11
24.386699
21
102.839114
0
LINE
8
Image
10
24.386699
20
102.839114
11
24.980439
21
102.302001
0
LINE
8
Image
10
24.980439
20
102.302001
11
26.807338
21
101.235378
0
LINE
8
Image
10
26.807338
20
101.235378
11
28.639869
21
100.512916
0
LINE
8
Image
10
28.639869
20
100.512916
11
30.827877
21
99.845737
0
LINE
8
Image
10
30.827877
20
99.845737
11
32.916077
21
99.356919
0
LINE
8
Image
10
32.916077
20
99.356919
11
34.449183
21
99.169540
0
LINE
8
Image
10
34.449183
20
99.169540
11
35.298654
21
99.294821
0
LINE
8
Image
10
35.298654
20
99.294821
11
36.115580
21
99.591240
0
LINE
8
Image
10
36.115580
20
99.591240
11
36.984412
21
99.904552
0
LINE
8
Image
10
36.984412
20
99.904552
11
37.967606
21
99.986163
0
LINE
8
Image
10
37.967606
20
99.986163
11
39.073066
21
99.835814
0
LINE
8
Image
10
39.073066
20
99.835814
11
40.308699
21
99.453244
0
LINE
8
Image
10
40.308699
20
99.453244
11
41.225706
21
99.053687
0
LINE
8
Image
10
41.225706
20
99.053687
11
41.758236
21
98.688532
0
LINE
8
Image
10
41.758236
20
98.688532
11
41.942508
21
98.320745
0
LINE
8
Image
10
41.942508
20
98.320745
11
41.814745
21
97.913289
0
LINE
8
Image
10
41.814745
20
97.913289
11
41.471524
21
97.743823
0
LINE
8
Image
10
41.471524
20
97.743823
11
40.737990
21
98.032410
0
LINE
8
Image
10
40.737990
20
98.032410
11
39.602011
21
98.435591
0
LINE
8
Image
10
39.602011
20
98.435591
11
38.324692
21
98.632303
0
LINE
8
Image
10
38.324692
20
98.632303
11
37.204007
21
98.601882
0
LINE
8
Image
10
37.204007
20
98.601882
11
36.537933
21
98.323665
0
LINE
8
Image
10
36.537933
20
98.323665
11
36.389256
21
98.059033
0
LINE
8
Image
10
36.389256
20
98.059033
11
36.434504
21
97.762831
0
LINE
8
Image
10
36.434504
20
97.762831
11
37.273191
21
96.710635
0
LINE
8
Image
10
37.273191
20
96.710635
11
38.364535
21
95.405759
0
LINE
8
Image
10
38.364535
20
95.405759
11
38.784410
21
93.349330
0
LINE
8
Image
10
38.784410
20
93.349330
11
39.132481
21
91.050056
0
LINE
8
Image
10
39.132481
20
91.050056
11
39.379721
21
88.239984
0
LINE
8
Image
10
39.379721
20
88.239984
11
39.555159
21
85.066160
0
LINE
8
Image
10
39.555159
20
85.066160
11
40.878074
21
84.742755
0
LINE
8
Image
10
40.878074
20
84.742755
11
42.406146
21
84.542777
0
LINE
8
Image
10
42.406146
20
84.542777
11
44.222313
21
84.516124
0
LINE
8
Image
10
44.222313
20
84.516124
11
45.426793
21
84.617049
0
LINE
8
Image
10
45.426793
20
84.617049
11
46.515047
21
84.879965
0
LINE
8
Image
10
46.515047
20
84.879965
11
50.043139
21
86.459396
0
LINE
8
Image
10
50.043139
20
86.459396
11
50.043139
21
86.459282
0
LINE
8
Image
10
61.487240
20
92.493664
11
61.647839
21
94.689703
0
LINE
8
Image
10
61.647839
20
94.689703
11
61.737615
21
96.054394
0
LINE
8
Image
10
61.737615
20
96.054394
11
61.965339
21
96.784726
0
LINE
8
Image
10
61.965339
20
96.784726
11
63.098156
21
97.024577
0
LINE
8
Image
10
63.098156
20
97.024577
11
65.934084
21
97.102226
0
LINE
8
Image
10
65.934084
20
97.102226
11
68.925562
21
97.175743
0
LINE
8
Image
10
68.925562
20
97.175743
11
69.452018
21
97.299359
0
LINE
8
Image
10
69.452018
20
97.299359
11
69.585329
21
97.509075
0
LINE
8
Image
10
69.585329
20
97.509075
11
68.639458
21
100.353343
0
LINE
8
Image
10
68.639458
20
100.353343
11
67.958141
21
102.394247
0
LINE
8
Image
10
67.958141
20
102.394247
11
67.823434
21
103.615900
0
LINE
8
Image
10
67.823434
20
103.615900
11
67.843134
21
104.099884
0
LINE
8
Image
10
67.843134
20
104.099884
11
67.673633
21
104.552725
0
LINE
8
Image
10
67.673633
20
104.552725
11
66.427280
21
105.927487
0
LINE
8
Image
10
66.427280
20
105.927487
11
64.697465
21
107.794621
0
LINE
8
Image
10
64.697465
20
107.794621
11
62.605251
21
110.381004
0
LINE
8
Image
10
62.605251
20
110.381004
11
57.297618
21
117.758189
0
LINE
8
Image
10
57.297618
20
117.758189
11
53.982346
21
122.120143
0
LINE
8
Image
10
53.982346
20
122.120143
11
52.441978
21
123.872781
0
LINE
8
Image
10
52.441978
20
123.872781
11
51.329102
21
124.920669
0
LINE
8
Image
10
51.329102
20
124.920669
11
49.383898
21
125.740447
0
LINE
8
Image
10
49.383898
20
125.740447
11
44.185361
21
127.271191
0
LINE
8
Image
10
44.185361
20
127.271191
11
40.138462
21
128.173952
0
LINE
8
Image
10
40.138462
20
128.173952
11
35.921041
21
128.689467
0
LINE
8
Image
10
35.921041
20
128.689467
11
31.750276
21
128.801490
0
LINE
8
Image
10
31.750276
20
128.801490
11
27.843347
21
128.493772
0
LINE
8
Image
10
27.843347
20
128.493772
11
24.603433
21
127.861056
0
LINE
8
Image
10
24.603433
20
127.861056
11
23.983116
21
127.500624
0
LINE
8
Image
10
23.983116
20
127.500624
11
23.812470
21
127.032217
0
LINE
8
Image
10
23.812470
20
127.032217
11
24.363824
21
124.999983
0
LINE
8
Image
10
24.363824
20
124.999983
11
25.554405
21
122.276010
0
LINE
8
Image
10
25.554405
20
122.276010
11
26.155449
21
121.309358
0
LINE
8
Image
10
26.155449
20
121.309358
11
26.733420
21
120.741126
0
LINE
8
Image
10
26.733420
20
120.741126
11
27.283794
21
120.574261
0
LINE
8
Image
10
27.283794
20
120.574261
11
27.802048
21
120.811710
0
LINE
8
Image
10
27.802048
20
120.811710
11
28.537957
21
121.179279
0
LINE
8
Image
10
28.537957
20
121.179279
11
28.910628
21
121.032738
0
LINE
8
Image
10
28.910628
20
121.032738
11
28.978784
21
120.629385
0
LINE
8
Image
10
28.978784
20
120.629385
11
28.751029
21
120.023623
0
LINE
8
Image
10
28.751029
20
120.023623
11
28.235967
21
119.269857
0
LINE
8
Image
10
28.235967
20
119.269857
11
26.889723
21
117.264679
0
LINE
8
Image
10
26.889723
20
117.264679
11
26.584346
21
116.497134
0
LINE
8
Image
10
26.584346
20
116.497134
11
26.570266
21
115.977474
0
LINE
8
Image
10
26.570266
20
115.977474
11
26.871006
21
115.695145
0
LINE
8
Image
10
26.871006
20
115.695145
11
27.340468
21
115.686909
0
LINE
8
Image
10
27.340468
20
115.686909
11
27.825934
21
115.917247
0
LINE
8
Image
10
27.825934
20
115.917247
11
28.174684
21
116.350639
0
LINE
8
Image
10
28.174684
20
116.350639
11
28.448807
21
116.777291
0
LINE
8
Image
10
28.448807
20
116.777291
11
28.815296
21
116.910084
0
LINE
8
Image
10
28.815296
20
116.910084
11
29.344215
21
116.746618
0
LINE
8
Image
10
29.344215
20
116.746618
11
30.105627
21
116.284494
0
LINE
8
Image
10
30.105627
20
116.284494
11
30.967424
21
115.817339
0
LINE
8
Image
10
30.967424
20
115.817339
11
31.672472
21
115.623036
0
LINE
8
Image
10
31.672472
20
115.623036
11
32.136142
21
115.759962
0
LINE
8
Image
10
32.136142
20
115.759962
11
32.107147
21
116.416785
0
LINE
8
Image
10
32.107147
20
116.416785
11
32.059464
21
116.982931
0
LINE
8
Image
10
32.059464
20
116.982931
11
32.268424
21
117.173267
0
LINE
8
Image
10
32.268424
20
117.173267
11
32.809504
21
116.988339
0
LINE
8
Image
10
32.809504
20
116.988339
11
33.758179
21
116.428691
0
LINE
8
Image
10
33.758179
20
116.428691
11
34.846860
21
115.882727
0
LINE
8
Image
10
34.846860
20
115.882727
11
36.138154
21
115.435237
0
LINE
8
Image
10
36.138154
20
115.435237
11
37.365215
21
115.162534
0
LINE
8
Image
10
37.365215
20
115.162534
11
38.261199
21
115.140929
0
LINE
8
Image
10
38.261199
20
115.140929
11
38.690347
21
115.571769
0
LINE
8
Image
10
38.690347
20
115.571769
11
39.157542
21
116.505512
0
LINE
8
Image
10
39.157542
20
116.505512
11
39.533075
21
117.625980
0
LINE
8
Image
10
39.533075
20
117.625980
11
39.687236
21
118.616994
0
LINE
8
Image
10
39.687236
20
118.616994
11
39.398356
21
119.902169
0
LINE
8
Image
10
39.398356
20
119.902169
11
39.229634
21
120.465240
0
LINE
8
Image
10
39.229634
20
120.465240
11
39.389022
21
120.767571
0
LINE
8
Image
10
39.389022
20
120.767571
11
39.786977
21
120.761555
0
LINE
8
Image
10
39.786977
20
120.761555
11
40.333953
21
120.399585
0
LINE
8
Image
10
40.333953
20
120.399585
11
41.021298
21
119.948159
0
LINE
8
Image
10
41.021298
20
119.948159
11
41.802733
21
119.948697
0
LINE
8
Image
10
41.802733
20
119.948697
11
42.536903
21
119.967598
0
LINE
8
Image
10
42.536903
20
119.967598
11
42.790509
21
119.667871
0
LINE
8
Image
10
42.790509
20
119.667871
11
42.562106
21
119.099248
0
LINE
8
Image
10
42.562106
20
119.099248
11
41.850252
21
118.311465
0
LINE
8
Image
10
41.850252
20
118.311465
11
41.134887
21
117.557462
0
LINE
8
Image
10
41.134887
20
117.557462
11
40.624448
21
116.805224
0
LINE
8
Image
10
40.624448
20
116.805224
11
40.318502
21
116.053954
0
LINE
8
Image
10
40.318502
20
116.053954
11
40.216616
21
115.302854
0
LINE
8
Image
10
40.216616
20
115.302854
11
40.260288
21
115.000952
0
LINE
8
Image
10
40.260288
20
115.000952
11
40.489609
21
114.855404
0
LINE
8
Image
10
40.489609
20
114.855404
11
42.095012
21
114.910017
0
LINE
8
Image
10
42.095012
20
114.910017
11
43.605467
21
115.141690
0
LINE
8
Image
10
43.605467
20
115.141690
11
44.599240
21
115.477558
0
LINE
8
Image
10
44.599240
20
115.477558
11
45.383131
21
115.844993
0
LINE
8
Image
10
45.383131
20
115.844993
11
45.580292
21
115.668923
0
LINE
8
Image
10
45.580292
20
115.668923
11
45.772859
21
115.226162
0
LINE
8
Image
10
45.772859
20
115.226162
11
46.234448
21
114.713016
0
LINE
8
Image
10
46.234448
20
114.713016
11
47.012308
21
114.540420
0
LINE
8
Image
10
47.012308
20
114.540420
11
47.975467
21
114.708698
0
LINE
8
Image
10
47.975467
20
114.708698
11
48.992951
21
115.218171
0
LINE
8
Image
10
48.992951
20
115.218171
11
49.812731
21
115.668012
0
LINE
8
Image
10
49.812731
20
115.668012
11
50.051550
21
115.671024
0
LINE
8
Image
10
50.051550
20
115.671024
11
50.229858
21
115.540026
0
LINE
8
Image
10
50.229858
20
115.540026
11
50.367924
21
115.193548
0
LINE
8
Image
10
50.367924
20
115.193548
11
50.259687
21
114.820400
0
LINE
8
Image
10
50.259687
20
114.820400
11
50.010238
21
114.131701
0
LINE
8
Image
10
50.010238
20
114.131701
11
50.268263
21
113.863196
0
LINE
8
Image
10
50.268263
20
113.863196
11
50.897058
21
113.710449
0
LINE
8
Image
10
50.897058
20
113.710449
11
51.665899
21
113.700343
0
LINE
8
Image
10
51.665899
20
113.700343
11
52.344066
21
113.859765
0
LINE
8
Image
10
52.344066
20
113.859765
11
52.709807
21
114.112732
0
LINE
8
Image
10
52.709807
20
114.112732
11
52.852763
21
114.534250
0
LINE
8
Image
10
52.852763
20
114.534250
11
52.507758
21
116.482918
0
LINE
8
Image
10
52.507758
20
116.482918
11
52.459837
21
117.081566
0
LINE
8
Image
10
52.459837
20
117.081566
11
52.900315
21
117.210521
0
LINE
8
Image
10
52.900315
20
117.210521
11
53.198729
21
117.097754
0
LINE
8
Image
10
53.198729
20
117.097754
11
53.518178
21
116.791638
0
LINE
8
Image
10
53.518178
20
116.791638
11
54.129178
21
115.792471
0
LINE
8
Image
10
54.129178
20
115.792471
11
54.551315
21
114.599240
0
LINE
8
Image
10
54.551315
20
114.599240
11
54.602586
21
113.598166
0
LINE
8
Image
10
54.602586
20
113.598166
11
54.566958
21
113.076607
0
LINE
8
Image
10
54.566958
20
113.076607
11
54.779323
21
112.722132
0
LINE
8
Image
10
54.779323
20
112.722132
11
55.259036
21
112.519152
0
LINE
8
Image
10
55.259036
20
112.519152
11
56.025450
21
112.452078
0
LINE
8
Image
10
56.025450
20
112.452078
11
56.705102
21
112.343887
0
LINE
8
Image
10
56.705102
20
112.343887
11
56.885345
21
111.947169
0
LINE
8
Image
10
56.885345
20
111.947169
11
56.787367
21
111.566620
0
LINE
8
Image
10
56.787367
20
111.566620
11
56.472940
21
111.312049
0
LINE
8
Image
10
56.472940
20
111.312049
11
55.071793
21
111.125112
0
LINE
8
Image
10
55.071793
20
111.125112
11
54.178970
21
110.962284
0
LINE
8
Image
10
54.178970
20
110.962284
11
53.595652
21
110.197383
0
LINE
8
Image
10
53.595652
20
110.197383
11
52.064211
21
108.184981
0
LINE
8
Image
10
52.064211
20
108.184981
11
51.114599
21
107.018151
0
LINE
8
Image
10
51.114599
20
107.018151
11
54.178502
21
106.059100
0
LINE
8
Image
10
54.178502
20
106.059100
11
57.607371
21
105.304286
0
LINE
8
Image
10
57.607371
20
105.304286
11
59.080936
21
105.030203
0
LINE
8
Image
10
59.080936
20
105.030203
11
60.279879
21
104.281013
0
LINE
8
Image
10
60.279879
20
104.281013
11
61.086292
21
103.166308
0
LINE
8
Image
10
61.086292
20
103.166308
11
61.305453
21
102.506134
0
LINE
8
Image
10
61.305453
20
102.506134
11
61.382266
21
101.795677
0
LINE
8
Image
10
61.382266
20
101.795677
11
61.106364
21
100.344754
0
LINE
8
Image
10
61.106364
20
100.344754
11
60.412337
21
98.906649
0
LINE
8
Image
10
60.412337
20
98.906649
11
59.504872
21
97.805838
0
LINE
8
Image
10
59.504872
20
97.805838
11
59.035065
21
97.483316
0
LINE
8
Image
10
59.035065
20
97.483316
11
58.588656
21
97.366796
0
LINE
8
Image
10
58.588656
20
97.366796
11
58.135732
21
97.147670
0
LINE
8
Image
10
58.135732
20
97.147670
11
57.666516
21
96.605853
0
LINE
8
Image
10
57.666516
20
96.605853
11
57.298688
21
95.914690
0
LINE
8
Image
10
57.298688
20
95.914690
11
57.149928
21
95.247523
0
LINE
8
Image
10
57.149928
20
95.247523
11
57.210156
21
94.048940
0
LINE
8
Image
10
57.210156
20
94.048940
11
57.461762
21
93.301391
0
LINE
8
Image
10
57.461762
20
93.301391
11
58.011128
21
92.844969
0
LINE
8
Image
10
58.011128
20
92.844969
11
58.964637
21
92.519768
0
LINE
8
Image
10
58.964637
20
92.519768
11
60.895753
21
92.125625
0
LINE
8
Image
10
60.895753
20
92.125625
11
61.290636
21
92.215075
0
LINE
8
Image
10
61.290636
20
92.215075
11
61.487240
21
92.493653
0
LINE
8
Image
10
61.487240
20
92.493653
11
61.487240
21
92.493664
0
LINE
8
Image
10
85.195726
20
99.915095
11
84.790785
21
100.928643
0
LINE
8
Image
10
84.790785
20
100.928643
11
83.817204
21
102.759362
0
LINE
8
Image
10
83.817204
20
102.759362
11
82.531237
21
104.696814
0
LINE
8
Image
10
82.531237
20
104.696814
11
80.836834
21
106.754465
0
LINE
8
Image
10
80.836834
20
106.754465
11
78.788056
21
108.885368
0
LINE
8
Image
10
78.788056
20
108.885368
11
76.438964
21
111.042577
0
LINE
8
Image
10
76.438964
20
111.042577
11
73.843619
21
113.179145
0
LINE
8
Image
10
73.843619
20
113.179145
11
71.056082
21
115.248124
0
LINE
8
Image
10
71.056082
20
115.248124
11
68.130415
21
117.202567
0
LINE
8
Image
10
68.130415
20
117.202567
11
65.120679
21
118.995528
0
LINE
8
Image
10
65.120679
20
118.995528
11
59.715768
21
121.576000
0
LINE
8
Image
10
59.715768
20
121.576000
11
55.039871
21
123.497974
0
LINE
8
Image
10
55.039871
20
123.497974
11
54.681767
21
123.563145
0
LINE
8
Image
10
54.681767
20
123.563145
11
54.584748
21
123.489501
0
LINE
8
Image
10
54.584748
20
123.489501
11
55.247822
21
122.610565
0
LINE
8
Image
10
55.247822
20
122.610565
11
58.885325
21
117.871992
0
LINE
8
Image
10
58.885325
20
117.871992
11
60.990916
21
114.829287
0
LINE
8
Image
10
60.990916
20
114.829287
11
63.562324
21
111.273874
0
LINE
8
Image
10
63.562324
20
111.273874
11
65.836296
21
108.486409
0
LINE
8
Image
10
65.836296
20
108.486409
11
67.888910
21
106.380857
0
LINE
8
Image
10
67.888910
20
106.380857
11
69.796241
21
104.871182
0
LINE
8
Image
10
69.796241
20
104.871182
11
71.626166
21
103.862424
0
LINE
8
Image
10
71.626166
20
103.862424
11
74.296867
21
102.610940
0
LINE
8
Image
10
74.296867
20
102.610940
11
77.100118
21
101.431277
0
LINE
8
Image
10
77.100118
20
101.431277
11
79.327693
21
100.637978
0
LINE
8
Image
10
79.327693
20
100.637978
11
82.266747
21
99.952258
0
LINE
8
Image
10
82.266747
20
99.952258
11
84.864997
21
99.507352
0
LINE
8
Image
10
84.864997
20
99.507352
11
85.098574
21
99.617280
0
LINE
8
Image
10
85.098574
20
99.617280
11
85.195726
21
99.915095
0
LINE
8
Image
10
85.195726
20
99.915095
11
85.195726
21
99.915095
0
LINE
8
Image
10
47.360357
20
106.325658
11
48.038650
21
106.763645
0
LINE
8
Image
10
48.038650
20
106.763645
11
48.369040
21
107.207442
0
LINE
8
Image
10
48.369040
20
107.207442
11
48.277097
21
107.531810
0
LINE
8
Image
10
48.277097
20
107.531810
11
47.730787
21
107.751935
0
LINE
8
Image
10
47.730787
20
107.751935
11
44.516090
21
108.044305
0
LINE
8
Image
10
44.516090
20
108.044305
11
42.670025
21
108.068329
0
LINE
8
Image
10
42.670025
20
108.068329
11
42.391347
21
107.932184
0
LINE
8
Image
10
42.391347
20
107.932184
11
42.333280
21
107.660527
0
LINE
8
Image
10
42.333280
20
107.660527
11
42.270900
21
107.326513
0
LINE
8
Image
10
42.270900
20
107.326513
11
42.074740
21
107.181274
0
LINE
8
Image
10
42.074740
20
107.181274
11
41.226942
21
107.446657
0
LINE
8
Image
10
41.226942
20
107.446657
11
40.835392
21
107.572836
0
LINE
8
Image
10
40.835392
20
107.572836
11
40.785030
21
107.402869
0
LINE
8
Image
10
40.785030
20
107.402869
11
41.556612
21
106.574594
0
LINE
8
Image
10
41.556612
20
106.574594
11
42.763409
21
106.002885
0
LINE
8
Image
10
42.763409
20
106.002885
11
44.273236
21
105.764810
0
LINE
8
Image
10
44.273236
20
105.764810
11
45.875687
21
105.869393
0
LINE
8
Image
10
45.875687
20
105.869393
11
47.360357
21
106.325658
0
LINE
8
Image
10
47.360357
20
106.325658
11
47.360357
21
106.325658
0
LINE
8
Image
10
29.331251
20
107.417351
11
30.062341
21
107.527229
0
LINE
8
Image
10
30.062341
20
107.527229
11
30.037581
21
108.147087
0
LINE
8
Image
10
30.037581
20
108.147087
11
29.651131
21
109.068697
0
LINE
8
Image
10
29.651131
20
109.068697
11
29.111578
21
109.503206
0
LINE
8
Image
10
29.111578
20
109.503206
11
28.475737
21
109.433006
0
LINE
8
Image
10
28.475737
20
109.433006
11
27.800418
21
108.840488
0
LINE
8
Image
10
27.800418
20
108.840488
11
27.374694
21
108.153090
0
LINE
8
Image
10
27.374694
20
108.153090
11
27.242256
21
107.603930
0
LINE
8
Image
10
27.242256
20
107.603930
11
27.400635
21
107.276477
0
LINE
8
Image
10
27.400635
20
107.276477
11
27.847361
21
107.254199
0
LINE
8
Image
10
27.847361
20
107.254199
11
29.331251
21
107.417351
0
LINE
8
Image
10
29.331251
20
107.417351
11
29.331251
21
107.417351
0
LINE
8
Image
10
26.436721
20
109.370418
11
26.954660
21
110.387256
0
LINE
8
Image
10
26.954660
20
110.387256
11
26.862640
21
110.555993
0
LINE
8
Image
10
26.862640
20
110.555993
11
26.545279
21
110.595959
0
LINE
8
Image
10
26.545279
20
110.595959
11
26.045631
21
110.460994
0
LINE
8
Image
10
26.045631
20
110.460994
11
25.592019
21
110.111369
0
LINE
8
Image
10
25.592019
20
110.111369
11
25.262563
21
109.629985
0
LINE
8
Image
10
25.262563
20
109.629985
11
25.135385
21
109.099745
0
LINE
8
Image
10
25.135385
20
109.099745
11
25.248567
21
108.614819
0
LINE
8
Image
10
25.248567
20
108.614819
11
25.545649
21
108.507122
0
LINE
8
Image
10
25.545649
20
108.507122
11
25.962933
21
108.763404
0
LINE
8
Image
10
25.962933
20
108.763404
11
26.436721
21
109.370418
0
LINE
8
Image
10
26.436721
20
109.370418
11
26.436721
21
109.370418
0
LINE
8
Image
10
45.508276
20
109.537627
11
44.944670
21
109.730431
0
LINE
8
Image
10
44.944670
20
109.730431
11
44.237755
21
109.794698
0
LINE
8
Image
10
44.237755
20
109.794698
11
43.670007
21
109.730431
0
LINE
8
Image
10
43.670007
20
109.730431
11
43.523904
21
109.537627
0
LINE
8
Image
10
43.523904
20
109.537627
11
43.965119
21
109.351955
0
LINE
8
Image
10
43.965119
20
109.351955
11
44.796288
21
109.277095
0
LINE
8
Image
10
44.796288
20
109.277095
11
45.566486
21
109.337919
0
LINE
8
Image
10
45.566486
20
109.337919
11
45.634235
21
109.417963
0
LINE
8
Image
10
45.634235
20
109.417963
11
45.508276
21
109.537627
0
LINE
8
Image
10
45.508276
20
109.537627
11
45.508276
21
109.537627
0
LINE
8
Image
10
51.332063
20
109.814304
11
52.268069
21
110.630590
0
LINE
8
Image
10
52.268069
20
110.630590
11
52.541632
21
111.097403
0
LINE
8
Image
10
52.541632
20
111.097403
11
52.579119
21
111.462630
0
LINE
8
Image
10
52.579119
20
111.462630
11
51.865588
21
111.855767
0
LINE
8
Image
10
51.865588
20
111.855767
11
50.342565
21
112.299352
0
LINE
8
Image
10
50.342565
20
112.299352
11
48.538663
21
112.621333
0
LINE
8
Image
10
48.538663
20
112.621333
11
47.644466
21
112.458491
0
LINE
8
Image
10
47.644466
20
112.458491
11
47.035408
21
112.304225
0
LINE
8
Image
10
47.035408
20
112.304225
11
46.388255
21
112.756099
0
LINE
8
Image
10
46.388255
20
112.756099
11
45.954278
21
113.092238
0
LINE
8
Image
10
45.954278
20
113.092238
11
45.394139
21
113.278049
0
LINE
8
Image
10
45.394139
20
113.278049
11
42.907494
21
113.374081
0
LINE
8
Image
10
42.907494
20
113.374081
11
40.084325
21
113.374081
0
LINE
8
Image
10
40.084325
20
113.374081
11
40.124131
21
112.506889
0
LINE
8
Image
10
40.124131
20
112.506889
11
40.254433
21
111.620466
0
LINE
8
Image
10
40.254433
20
111.620466
11
40.677904
21
111.141889
0
LINE
8
Image
10
40.677904
20
111.141889
11
41.598035
21
110.973114
0
LINE
8
Image
10
41.598035
20
110.973114
11
43.218318
21
111.016098
0
LINE
8
Image
10
43.218318
20
111.016098
11
44.627586
21
111.075788
0
LINE
8
Image
10
44.627586
20
111.075788
11
45.580800
21
111.008857
0
LINE
8
Image
10
45.580800
20
111.008857
11
46.454151
21
110.747745
0
LINE
8
Image
10
46.454151
20
110.747745
11
47.623826
21
110.224889
0
LINE
8
Image
10
47.623826
20
110.224889
11
48.862633
21
109.698112
0
LINE
8
Image
10
48.862633
20
109.698112
11
49.784609
21
109.466156
0
LINE
8
Image
10
49.784609
20
109.466156
11
50.553253
21
109.510921
0
LINE
8
Image
10
50.553253
20
109.510921
11
51.332063
21
109.814304
0
LINE
8
Image
10
51.332063
20
109.814304
11
51.332063
21
109.814304
0
LINE
8
Image
10
30.823920
20
112.712623
11
31.735830
21
113.253028
0
LINE
8
Image
10
31.735830
20
113.253028
11
32.752739
21
113.497975
0
LINE
8
Image
10
32.752739
20
113.497975
11
33.896644
21
113.449465
0
LINE
8
Image
10
33.896644
20
113.449465
11
35.189539
21
113.109498
0
LINE
8
Image
10
35.189539
20
113.109498
11
36.290785
21
112.829205
0
LINE
8
Image
10
36.290785
20
112.829205
11
37.358868
21
112.712623
0
LINE
8
Image
10
37.358868
20
112.712623
11
38.183463
21
112.802512
0
LINE
8
Image
10
38.183463
20
112.802512
11
38.315918
21
112.943973
0
LINE
8
Image
10
38.315918
20
112.943973
11
38.315238
21
113.175643
0
LINE
8
Image
10
38.315238
20
113.175643
11
38.153870
21
113.422607
0
LINE
8
Image
10
38.153870
20
113.422607
11
37.693120
21
113.617230
0
LINE
8
Image
10
37.693120
20
113.617230
11
35.363182
21
113.990270
0
LINE
8
Image
10
35.363182
20
113.990270
11
32.895889
21
114.214845
0
LINE
8
Image
10
32.895889
20
114.214845
11
32.371482
21
114.136002
0
LINE
8
Image
10
32.371482
20
114.136002
11
32.037612
21
113.924125
0
LINE
8
Image
10
32.037612
20
113.924125
11
31.598883
21
113.625877
0
LINE
8
Image
10
31.598883
20
113.625877
11
31.171138
21
113.524838
0
LINE
8
Image
10
31.171138
20
113.524838
11
30.771595
21
113.621107
0
LINE
8
Image
10
30.771595
20
113.621107
11
30.417472
21
113.914785
0
LINE
8
Image
10
30.417472
20
113.914785
11
29.797965
21
114.216042
0
LINE
8
Image
10
29.797965
20
114.216042
11
28.466847
21
114.245514
0
LINE
8
Image
10
28.466847
20
114.245514
11
27.124572
21
114.085974
0
LINE
8
Image
10
27.124572
20
114.085974
11
26.873707
21
113.910148
0
LINE
8
Image
10
26.873707
20
113.910148
11
26.777382
21
113.624069
0
LINE
8
Image
10
26.777382
20
113.624069
11
26.854997
21
113.099827
0
LINE
8
Image
10
26.854997
20
113.099827
11
27.212324
21
112.646675
0
LINE
8
Image
10
27.212324
20
112.646675
11
27.801575
21
112.304752
0
LINE
8
Image
10
27.801575
20
112.304752
11
28.574964
21
112.114197
0
LINE
8
Image
10
28.574964
20
112.114197
11
29.663062
21
111.961221
0
LINE
8
Image
10
29.663062
20
111.961221
11
30.823920
21
112.712626
0
LINE
8
Image
10
30.823920
20
112.712626
11
30.823920
21
112.712623
0
LINE
8
Image
10
69.577905
20
124.569743
11
68.781344
21
126.677688
0
LINE
8
Image
10
68.781344
20
126.677688
11
67.775929
21
128.679447
0
LINE
8
Image
10
67.775929
20
128.679447
11
66.519893
21
130.648355
0
LINE
8
Image
10
66.519893
20
130.648355
11
64.971470
21
132.657744
0
LINE
8
Image
10
64.971470
20
132.657744
11
62.649376
21
134.954085
0
LINE
8
Image
10
62.649376
20
134.954085
11
61.520855
21
135.889632
0
LINE
8
Image
10
61.520855
20
135.889632
11
60.965905
21
136.195936
0
LINE
8
Image
10
60.965905
20
136.195936
11
61.823215
21
133.611781
0
LINE
8
Image
10
61.823215
20
133.611781
11
62.534553
21
131.237019
0
LINE
8
Image
10
62.534553
20
131.237019
11
62.905297
21
128.842821
0
LINE
8
Image
10
62.905297
20
128.842821
11
62.929702
21
126.498086
0
LINE
8
Image
10
62.929702
20
126.498086
11
62.602023
21
124.271711
0
LINE
8
Image
10
62.602023
20
124.271711
11
62.177005
21
122.224146
0
LINE
8
Image
10
62.177005
20
122.224146
11
62.779345
21
121.746867
0
LINE
8
Image
10
62.779345
20
121.746867
11
64.227523
21
120.943706
0
LINE
8
Image
10
64.227523
20
120.943706
11
68.130122
21
118.820901
0
LINE
8
Image
10
68.130122
20
118.820901
11
69.982203
21
117.733324
0
LINE
8
Image
10
69.982203
20
117.733324
11
70.058411
21
120.289925
0
LINE
8
Image
10
70.058411
20
120.289925
11
70.006425
21
122.677731
0
LINE
8
Image
10
70.006425
20
122.677731
11
69.577905
21
124.569743
0
LINE
8
Image
10
69.577905
20
124.569743
11
69.577905
21
124.569743
0
LINE
8
Image
10
61.289342
20
123.957401
11
61.544885
21
125.532800
0
LINE
8
Image
10
61.544885
20
125.532800
11
61.618202
21
127.634758
0
LINE
8
Image
10
61.618202
20
127.634758
11
61.512770
21
129.801427
0
LINE
8
Image
10
61.512770
20
129.801427
11
61.232063
21
131.570959
0
LINE
8
Image
10
61.232063
20
131.570959
11
60.728285
21
133.126249
0
LINE
8
Image
10
60.728285
20
133.126249
11
60.062849
21
134.627227
0
LINE
8
Image
10
60.062849
20
134.627227
11
59.315001
21
135.917388
0
LINE
8
Image
10
59.315001
20
135.917388
11
58.563989
21
136.840224
0
LINE
8
Image
10
58.563989
20
136.840224
11
57.009334
21
137.892499
0
LINE
8
Image
10
57.009334
20
137.892499
11
55.155469
21
138.500948
0
LINE
8
Image
10
55.155469
20
138.500948
11
53.221756
21
138.623247
0
LINE
8
Image
10
53.221756
20
138.623247
11
52.293508
21
138.488866
0
LINE
8
Image
10
52.293508
20
138.488866
11
51.427559
21
138.217076
0
LINE
8
Image
10
51.427559
20
138.217076
11
49.911615
21
137.436829
0
LINE
8
Image
10
49.911615
20
137.436829
11
48.255658
21
136.332390
0
LINE
8
Image
10
48.255658
20
136.332390
11
46.636084
21
135.033203
0
LINE
8
Image
10
46.636084
20
135.033203
11
45.229289
21
133.668708
0
LINE
8
Image
10
45.229289
20
133.668708
11
43.963946
21
132.185945
0
LINE
8
Image
10
43.963946
20
132.185945
11
43.031236
21
130.887333
0
LINE
8
Image
10
43.031236
20
130.887333
11
42.515367
21
129.905440
0
LINE
8
Image
10
42.515367
20
129.905440
11
42.500547
21
129.372834
0
LINE
8
Image
10
42.500547
20
129.372834
11
47.145738
21
127.826100
0
LINE
8
Image
10
47.145738
20
127.826100
11
52.800234
21
125.928231
0
LINE
8
Image
10
52.800234
20
125.928231
11
58.208260
21
123.579116
0
LINE
8
Image
10
58.208260
20
123.579116
11
59.554143
21
123.005401
0
LINE
8
Image
10
59.554143
20
123.005401
11
60.414808
21
122.864751
0
LINE
8
Image
10
60.414808
20
122.864751
11
60.942470
21
123.175855
0
LINE
8
Image
10
60.942470
20
123.175855
11
61.289342
21
123.957401
0
LINE
8
Image
10
61.289342
20
123.957401
11
61.289342
21
123.957401
0
LINE
8
Image
10
41.912918
20
131.461373
11
43.194429
21
133.241187
0
LINE
8
Image
10
43.194429
20
133.241187
11
44.696776
21
134.985981
0
LINE
8
Image
10
44.696776
20
134.985981
11
46.237780
21
136.500640
0
LINE
8
Image
10
46.237780
20
136.500640
11
47.635259
21
137.590047
0
LINE
8
Image
10
47.635259
20
137.590047
11
48.518892
21
138.251848
0
LINE
8
Image
10
48.518892
20
138.251848
11
48.803028
21
138.662042
0
LINE
8
Image
10
48.803028
20
138.662042
11
48.384754
21
138.791055
0
LINE
8
Image
10
48.384754
20
138.791055
11
47.493900
21
138.745827
0
LINE
8
Image
10
47.493900
20
138.745827
11
44.802445
21
138.250515
0
LINE
8
Image
10
44.802445
20
138.250515
11
41.744659
21
137.411845
0
LINE
8
Image
10
41.744659
20
137.411845
11
39.336539
21
136.465556
0
LINE
8
Image
10
39.336539
20
136.465556
11
37.678168
21
135.298765
0
LINE
8
Image
10
37.678168
20
135.298765
11
35.505009
21
133.470180
0
LINE
8
Image
10
35.505009
20
133.470180
11
33.615553
21
131.689240
0
LINE
8
Image
10
33.615553
20
131.689240
11
32.808292
21
130.665382
0
LINE
8
Image
10
32.808292
20
130.665382
11
33.177468
21
130.500145
0
LINE
8
Image
10
33.177468
20
130.500145
11
34.065061
21
130.419809
0
LINE
8
Image
10
34.065061
20
130.419809
11
37.438495
21
130.054586
0
LINE
8
Image
10
37.438495
20
130.054586
11
39.387892
21
129.754738
0
LINE
8
Image
10
39.387892
20
129.754738
11
40.461401
21
129.788006
0
LINE
8
Image
10
40.461401
20
129.788006
11
41.142063
21
130.306260
0
LINE
8
Image
10
41.142063
20
130.306260
11
41.912918
21
131.461373
0
LINE
8
Image
10
41.912918
20
131.461373
11
41.912918
21
131.461373
 0 
ENDSEC
 0 
EOF