999
"DXF R12 Output" (www.mydxf.blogspot.com)
 0 
SECTION
 2 
HEADER
 9 
$ACADVER
 1 
AC1009
 9 
$EXTMIN
 10 
 0 
 20 
 0 
 9 
$EXTMAX
 10 
 8.5 
 20 
 11 
 0 
ENDSEC
 0 
SECTION
 2 
ENTITIES
0
LINE
8
Image
10
3.293903
20
0.477896
11
3.190913
21
20.019074
0
LINE
8
Image
10
3.190913
20
20.019074
11
3.258163
21
62.317034
0
LINE
8
Image
10
3.258163
20
62.317034
11
3.430813
21
104.530930
0
LINE
8
Image
10
3.430813
20
104.530930
11
3.644028
21
123.819913
0
LINE
8
Image
10
3.644028
20
123.819913
11
57.042071
21
123.993224
0
LINE
8
Image
10
57.042071
20
123.993224
11
208.130066
21
124.010705
0
LINE
8
Image
10
208.130066
20
124.010705
11
412.359273
21
123.943417
0
LINE
8
Image
10
412.359273
20
123.943417
11
412.409941
21
62.467833
0
LINE
8
Image
10
412.409941
20
62.467833
11
412.325142
21
0.522457
0
LINE
8
Image
10
412.325142
20
0.522457
11
411.474598
21
0.373964
0
LINE
8
Image
10
411.474598
20
0.373964
11
407.655558
21
0.260520
0
LINE
8
Image
10
407.655558
20
0.260520
11
382.927711
21
0.119978
0
LINE
8
Image
10
382.927711
20
0.119978
11
207.822985
21
0.052667
0
LINE
8
Image
10
207.822985
20
0.052667
11
35.777771
21
0.119972
0
LINE
8
Image
10
35.777771
20
0.119972
11
9.125438
21
0.247981
0
LINE
8
Image
10
9.125438
20
0.247981
11
4.486417
21
0.348372
0
LINE
8
Image
10
4.486417
20
0.348372
11
3.293903
21
0.477896
0
LINE
8
Image
10
3.293903
20
0.477896
11
3.293903
21
0.477896
0
LINE
8
Image
10
411.774412
20
8.039123
11
411.828387
21
69.447594
0
LINE
8
Image
10
411.828387
20
69.447594
11
411.782800
21
123.406512
0
LINE
8
Image
10
411.782800
20
123.406512
11
208.108992
21
123.473801
0
LINE
8
Image
10
208.108992
20
123.473801
11
64.199002
21
123.455645
0
LINE
8
Image
10
64.199002
20
123.455645
11
4.212673
21
123.317503
0
LINE
8
Image
10
4.212673
20
123.317503
11
4.007267
21
104.195017
0
LINE
8
Image
10
4.007267
20
104.195017
11
3.825279
21
62.327650
0
LINE
8
Image
10
3.825279
20
62.327650
11
3.739209
21
20.383894
0
LINE
8
Image
10
3.739209
20
20.383894
11
3.821560
21
1.032240
0
LINE
8
Image
10
3.821560
20
1.032240
11
4.875378
21
0.895298
0
LINE
8
Image
10
4.875378
20
0.895298
11
9.167952
21
0.789801
0
LINE
8
Image
10
9.167952
20
0.789801
11
34.961899
21
0.656886
0
LINE
8
Image
10
34.961899
20
0.656886
11
207.832735
21
0.589572
0
LINE
8
Image
10
207.832735
20
0.589572
11
411.674850
21
0.589572
0
LINE
8
Image
10
411.674850
20
0.589572
11
411.774412
21
8.039123
0
LINE
8
Image
10
8.031904
20
4.998276
11
7.870472
21
5.473794
0
LINE
8
Image
10
7.870472
20
5.473794
11
7.780079
21
6.535435
0
LINE
8
Image
10
7.780079
20
6.535435
11
7.783780
21
11.123777
0
LINE
8
Image
10
7.783780
20
11.123777
11
7.877731
21
63.016364
0
LINE
8
Image
10
7.877731
20
63.016364
11
7.726699
21
113.071098
0
LINE
8
Image
10
7.726699
20
113.071098
11
7.670809
21
117.171707
0
LINE
8
Image
10
7.670809
20
117.171707
11
7.695218
21
118.142959
0
LINE
8
Image
10
7.695218
20
118.142959
11
7.720128
21
118.285601
0
LINE
8
Image
10
7.720128
20
118.285601
11
7.753363
21
118.171692
0
LINE
8
Image
10
7.753363
20
118.171692
11
7.934506
21
116.963656
0
LINE
8
Image
10
7.934506
20
116.963656
11
7.974632
21
118.075857
0
LINE
8
Image
10
7.974632
20
118.075857
11
8.110666
21
118.950018
0
LINE
8
Image
10
8.110666
20
118.950018
11
8.437345
21
119.351006
0
LINE
8
Image
10
8.437345
20
119.351006
11
65.055882
21
119.513953
0
LINE
8
Image
10
65.055882
20
119.513953
11
111.887557
21
119.445876
0
LINE
8
Image
10
111.887557
20
119.445876
11
119.660689
21
119.323290
0
LINE
8
Image
10
119.660689
20
119.323290
11
121.655478
21
119.108350
0
LINE
8
Image
10
121.655478
20
119.108350
11
121.870015
21
117.101862
0
LINE
8
Image
10
121.870015
20
117.101862
11
121.994987
21
109.289322
0
LINE
8
Image
10
121.994987
20
109.289322
11
122.080930
21
62.255503
0
LINE
8
Image
10
122.080930
20
62.255503
11
122.031075
21
15.662692
0
LINE
8
Image
10
122.031075
20
15.662692
11
121.917462
21
7.521063
0
LINE
8
Image
10
121.917462
20
7.521063
11
121.717943
21
5.279422
0
LINE
8
Image
10
121.717943
20
5.279422
11
121.455407
21
5.106392
0
LINE
8
Image
10
121.455407
20
5.106392
11
120.524087
21
4.974766
0
LINE
8
Image
10
120.524087
20
4.974766
11
114.081066
21
4.807923
0
LINE
8
Image
10
114.081066
20
4.807923
11
64.855289
21
4.665256
0
LINE
8
Image
10
64.855289
20
4.665256
11
17.479064
21
4.661599
0
LINE
8
Image
10
17.479064
20
4.661599
11
9.886410
21
4.776424
0
LINE
8
Image
10
9.886410
20
4.776424
11
8.475895
21
4.872600
0
LINE
8
Image
10
8.475895
20
4.872600
11
8.031904
21
4.998276
0
LINE
8
Image
10
8.031904
20
4.998276
11
8.031904
21
4.998276
0
LINE
8
Image
10
121.200966
20
5.511273
11
121.371003
21
22.223764
0
LINE
8
Image
10
121.371003
20
22.223764
11
121.467219
21
62.090604
0
LINE
8
Image
10
121.467219
20
62.090604
11
121.437320
21
110.832877
0
LINE
8
Image
10
121.437320
20
110.832877
11
121.293825
21
117.454902
0
LINE
8
Image
10
121.293825
20
117.454902
11
121.172901
21
118.451559
0
LINE
8
Image
10
121.172901
20
118.451559
11
121.012700
21
118.714047
0
LINE
8
Image
10
121.012700
20
118.714047
11
106.491311
21
118.896554
0
LINE
8
Image
10
106.491311
20
118.896554
11
64.598596
21
118.912385
0
LINE
8
Image
10
64.598596
20
118.912385
11
8.682654
21
118.842823
0
LINE
8
Image
10
8.682654
20
118.842823
11
8.614154
21
62.333608
0
LINE
8
Image
10
8.614154
20
62.333608
11
8.682626
21
5.462465
0
LINE
8
Image
10
8.682626
20
5.462465
11
10.925078
21
5.281951
0
LINE
8
Image
10
10.925078
20
5.281951
11
19.261356
21
5.185542
0
LINE
8
Image
10
19.261356
20
5.185542
11
64.898979
21
5.194014
0
LINE
8
Image
10
64.898979
20
5.194014
11
104.570433
21
5.325767
0
LINE
8
Image
10
104.570433
20
5.325767
11
121.200966
21
5.511273
0
LINE
8
Image
10
121.200966
20
5.511273
11
121.200966
21
5.511273
0
LINE
8
Image
10
32.326187
20
21.012294
11
30.889644
21
21.295389
0
LINE
8
Image
10
30.889644
20
21.295389
11
29.549386
21
21.767185
0
LINE
8
Image
10
29.549386
20
21.767185
11
28.295663
21
22.436048
0
LINE
8
Image
10
28.295663
20
22.436048
11
27.118724
21
23.310347
0
LINE
8
Image
10
27.118724
20
23.310347
11
26.008816
21
24.398450
0
LINE
8
Image
10
26.008816
20
24.398450
11
24.956189
21
25.708725
0
LINE
8
Image
10
24.956189
20
25.708725
11
23.951091
21
27.249540
0
LINE
8
Image
10
23.951091
20
27.249540
11
22.983772
21
29.029262
0
LINE
8
Image
10
22.983772
20
29.029262
11
21.999920
21
31.259093
0
LINE
8
Image
10
21.999920
20
31.259093
11
21.334508
21
33.424181
0
LINE
8
Image
10
21.334508
20
33.424181
11
20.957378
21
35.651595
0
LINE
8
Image
10
20.957378
20
35.651595
11
20.838369
21
38.068399
0
LINE
8
Image
10
20.838369
20
38.068399
11
20.967689
21
41.079028
0
LINE
8
Image
10
20.967689
20
41.079028
11
21.428592
21
43.367103
0
LINE
8
Image
10
21.428592
20
43.367103
11
22.330494
21
45.269028
0
LINE
8
Image
10
22.330494
20
45.269028
11
23.782810
21
47.121207
0
LINE
8
Image
10
23.782810
20
47.121207
11
25.041357
21
48.373067
0
LINE
8
Image
10
25.041357
20
48.373067
11
26.441226
21
49.516479
0
LINE
8
Image
10
26.441226
20
49.516479
11
27.982675
21
50.551574
0
LINE
8
Image
10
27.982675
20
50.551574
11
29.665963
21
51.478479
0
LINE
8
Image
10
29.665963
20
51.478479
11
31.491350
21
52.297324
0
LINE
8
Image
10
31.491350
20
52.297324
11
33.459094
21
53.008238
0
LINE
8
Image
10
33.459094
20
53.008238
11
37.822688
21
54.106786
0
LINE
8
Image
10
37.822688
20
54.106786
11
43.675571
21
54.837163
0
LINE
8
Image
10
43.675571
20
54.837163
11
46.469976
21
55.035085
0
LINE
8
Image
10
46.469976
20
55.035085
11
47.904387
21
55.007818
0
LINE
8
Image
10
47.904387
20
55.007818
11
48.244046
21
54.645736
0
LINE
8
Image
10
48.244046
20
54.645736
11
48.355702
21
53.899641
0
LINE
8
Image
10
48.355702
20
53.899641
11
48.558345
21
52.515975
0
LINE
8
Image
10
48.558345
20
52.515975
11
49.085890
21
50.694846
0
LINE
8
Image
10
49.085890
20
50.694846
11
49.817760
21
48.792717
0
LINE
8
Image
10
49.817760
20
48.792717
11
50.633381
21
47.166051
0
LINE
8
Image
10
50.633381
20
47.166051
11
52.170511
21
45.013671
0
LINE
8
Image
10
52.170511
20
45.013671
11
54.039939
21
43.182713
0
LINE
8
Image
10
54.039939
20
43.182713
11
56.293557
21
41.630600
0
LINE
8
Image
10
56.293557
20
41.630600
11
58.983255
21
40.314754
0
LINE
8
Image
10
58.983255
20
40.314754
11
61.283196
21
39.235657
0
LINE
8
Image
10
61.283196
20
39.235657
11
61.115242
21
38.665375
0
LINE
8
Image
10
61.115242
20
38.665375
11
60.257519
21
37.498218
0
LINE
8
Image
10
60.257519
20
37.498218
11
57.107660
21
34.027158
0
LINE
8
Image
10
57.107660
20
34.027158
11
53.103404
21
30.130222
0
LINE
8
Image
10
53.103404
20
30.130222
11
49.514536
21
27.115158
0
LINE
8
Image
10
49.514536
20
27.115158
11
47.015845
21
25.397921
0
LINE
8
Image
10
47.015845
20
25.397921
11
44.662731
21
23.969532
0
LINE
8
Image
10
44.662731
20
23.969532
11
42.432426
21
22.821906
0
LINE
8
Image
10
42.432426
20
22.821906
11
40.302164
21
21.946960
0
LINE
8
Image
10
40.302164
20
21.946960
11
38.249177
21
21.336610
0
LINE
8
Image
10
38.249177
20
21.336610
11
36.250696
21
20.982771
0
LINE
8
Image
10
36.250696
20
20.982771
11
34.283956
21
20.877360
0
LINE
8
Image
10
34.283956
20
20.877360
11
32.326187
21
21.012294
0
LINE
8
Image
10
32.326187
20
21.012294
11
32.326187
21
21.012294
0
LINE
8
Image
10
39.467653
20
22.286772
11
41.905768
21
23.265154
0
LINE
8
Image
10
41.905768
20
23.265154
11
44.339089
21
24.478601
0
LINE
8
Image
10
44.339089
20
24.478601
11
46.761366
21
25.922462
0
LINE
8
Image
10
46.761366
20
25.922462
11
49.166350
21
27.592089
0
LINE
8
Image
10
49.166350
20
27.592089
11
51.547790
21
29.482833
0
LINE
8
Image
10
51.547790
20
29.482833
11
53.899436
21
31.590045
0
LINE
8
Image
10
53.899436
20
31.590045
11
56.215039
21
33.909076
0
LINE
8
Image
10
56.215039
20
33.909076
11
58.488348
21
36.435276
0
LINE
8
Image
10
58.488348
20
36.435276
11
60.563054
21
38.858666
0
LINE
8
Image
10
60.563054
20
38.858666
11
57.437924
21
40.388771
0
LINE
8
Image
10
57.437924
20
40.388771
11
54.532946
21
41.992327
0
LINE
8
Image
10
54.532946
20
41.992327
11
53.541935
21
42.797029
0
LINE
8
Image
10
53.541935
20
42.797029
11
52.469674
21
43.876708
0
LINE
8
Image
10
52.469674
20
43.876708
11
50.947850
21
45.670753
0
LINE
8
Image
10
50.947850
20
45.670753
11
49.877213
21
47.234803
0
LINE
8
Image
10
49.877213
20
47.234803
11
49.119116
21
48.860298
0
LINE
8
Image
10
49.119116
20
48.860298
11
48.460966
21
50.642031
0
LINE
8
Image
10
48.460966
20
50.642031
11
47.996983
21
52.291874
0
LINE
8
Image
10
47.996983
20
52.291874
11
47.821385
21
53.521700
0
LINE
8
Image
10
47.821385
20
53.521700
11
47.805162
21
54.195551
0
LINE
8
Image
10
47.805162
20
54.195551
11
47.694991
21
54.383164
0
LINE
8
Image
10
47.694991
20
54.383164
11
47.436875
21
54.485656
0
LINE
8
Image
10
47.436875
20
54.485656
11
46.237097
21
54.478533
0
LINE
8
Image
10
46.237097
20
54.478533
11
43.726402
21
54.260704
0
LINE
8
Image
10
43.726402
20
54.260704
11
40.556768
21
53.900680
0
LINE
8
Image
10
40.556768
20
53.900680
11
37.629197
21
53.402406
0
LINE
8
Image
10
37.629197
20
53.402406
11
34.940193
21
52.764612
0
LINE
8
Image
10
34.940193
20
52.764612
11
32.486260
21
51.986028
0
LINE
8
Image
10
32.486260
20
51.986028
11
30.263904
21
51.065383
0
LINE
8
Image
10
30.263904
20
51.065383
11
28.269627
21
50.001408
0
LINE
8
Image
10
28.269627
20
50.001408
11
26.499935
21
48.792831
0
LINE
8
Image
10
26.499935
20
48.792831
11
24.951332
21
47.438384
0
LINE
8
Image
10
24.951332
20
47.438384
11
23.228026
21
45.456560
0
LINE
8
Image
10
23.228026
20
45.456560
11
22.129450
21
43.436191
0
LINE
8
Image
10
22.129450
20
43.436191
11
21.548933
21
41.100546
0
LINE
8
Image
10
21.548933
20
41.100546
11
21.379806
21
38.172899
0
LINE
8
Image
10
21.379806
20
38.172899
11
21.481958
21
35.931252
0
LINE
8
Image
10
21.481958
20
35.931252
11
21.817149
21
33.894962
0
LINE
8
Image
10
21.817149
20
33.894962
11
22.430687
21
31.870085
0
LINE
8
Image
10
22.430687
20
31.870085
11
23.367878
21
29.662679
0
LINE
8
Image
10
23.367878
20
29.662679
11
24.854609
21
26.918640
0
LINE
8
Image
10
24.854609
20
26.918640
11
26.459940
21
24.798548
0
LINE
8
Image
10
26.459940
20
24.798548
11
28.265267
21
23.213992
0
LINE
8
Image
10
28.265267
20
23.213992
11
30.351983
21
22.076561
0
LINE
8
Image
10
30.351983
20
22.076561
11
32.202184
21
21.666043
0
LINE
8
Image
10
32.202184
20
21.666043
11
34.676800
21
21.572047
0
LINE
8
Image
10
34.676800
20
21.572047
11
37.267925
21
21.782861
0
LINE
8
Image
10
37.267925
20
21.782861
11
39.467653
21
22.286772
0
LINE
8
Image
10
39.467653
20
22.286772
11
39.467653
21
22.286772
0
LINE
8
Image
10
90.433178
20
24.905744
11
88.883152
21
25.328775
0
LINE
8
Image
10
88.883152
20
25.328775
11
87.325271
21
25.917629
0
LINE
8
Image
10
87.325271
20
25.917629
11
84.206046
21
27.580019
0
LINE
8
Image
10
84.206046
20
27.580019
11
81.115701
21
29.867344
0
LINE
8
Image
10
81.115701
20
29.867344
11
78.094437
21
32.754035
0
LINE
8
Image
10
78.094437
20
32.754035
11
75.233978
21
36.300848
0
LINE
8
Image
10
75.233978
20
36.300848
11
72.266396
21
40.233365
0
LINE
8
Image
10
72.266396
20
40.233365
11
72.200884
21
40.474735
0
LINE
8
Image
10
72.200884
20
40.474735
11
72.335740
21
40.774946
0
LINE
8
Image
10
72.335740
20
40.774946
11
73.335031
21
41.732061
0
LINE
8
Image
10
73.335031
20
41.732061
11
75.834681
21
43.977747
0
LINE
8
Image
10
75.834681
20
43.977747
11
77.679168
21
46.078225
0
LINE
8
Image
10
77.679168
20
46.078225
11
79.020409
21
48.236589
0
LINE
8
Image
10
79.020409
20
48.236589
11
80.010325
21
50.655930
0
LINE
8
Image
10
80.010325
20
50.655930
11
80.602544
21
52.893517
0
LINE
8
Image
10
80.602544
20
52.893517
11
80.838729
21
55.074546
0
LINE
8
Image
10
80.838729
20
55.074546
11
80.724633
21
57.412004
0
LINE
8
Image
10
80.724633
20
57.412004
11
80.266013
21
60.118876
0
LINE
8
Image
10
80.266013
20
60.118876
11
80.080784
21
60.991346
0
LINE
8
Image
10
80.080784
20
60.991346
11
81.198718
21
60.991346
0
LINE
8
Image
10
81.198718
20
60.991346
11
82.502898
21
60.875674
0
LINE
8
Image
10
82.502898
20
60.875674
11
84.225817
21
60.552245
0
LINE
8
Image
10
84.225817
20
60.552245
11
88.462740
21
59.423656
0
LINE
8
Image
10
88.462740
20
59.423656
11
92.979219
21
57.888654
0
LINE
8
Image
10
92.979219
20
57.888654
11
96.844985
21
56.230313
0
LINE
8
Image
10
96.844985
20
56.230313
11
100.972784
21
53.799692
0
LINE
8
Image
10
100.972784
20
53.799692
11
102.789823
21
52.505237
0
LINE
8
Image
10
102.789823
20
52.505237
11
104.109193
21
51.380406
0
LINE
8
Image
10
104.109193
20
51.380406
11
106.816987
21
48.272662
0
LINE
8
Image
10
106.816987
20
48.272662
11
107.933684
21
46.751352
0
LINE
8
Image
10
107.933684
20
46.751352
11
108.573690
21
45.659926
0
LINE
8
Image
10
108.573690
20
45.659926
11
108.959368
21
44.284658
0
LINE
8
Image
10
108.959368
20
44.284658
11
109.151092
21
42.596848
0
LINE
8
Image
10
109.151092
20
42.596848
11
109.138618
21
40.795863
0
LINE
8
Image
10
109.138618
20
40.795863
11
108.911703
21
39.081069
0
LINE
8
Image
10
108.911703
20
39.081069
11
108.430367
21
37.342736
0
LINE
8
Image
10
108.430367
20
37.342736
11
107.703401
21
35.618390
0
LINE
8
Image
10
107.703401
20
35.618390
11
106.686517
21
33.818530
0
LINE
8
Image
10
106.686517
20
33.818530
11
105.335429
21
31.853657
0
LINE
8
Image
10
105.335429
20
31.853657
11
103.709231
21
29.866495
0
LINE
8
Image
10
103.709231
20
29.866495
11
101.997217
21
28.190460
0
LINE
8
Image
10
101.997217
20
28.190460
11
100.208498
21
26.829797
0
LINE
8
Image
10
100.208498
20
26.829797
11
98.352184
21
25.788756
0
LINE
8
Image
10
98.352184
20
25.788756
11
96.437385
21
25.071582
0
LINE
8
Image
10
96.437385
20
25.071582
11
94.473211
21
24.682524
0
LINE
8
Image
10
94.473211
20
24.682524
11
92.468772
21
24.625829
0
LINE
8
Image
10
92.468772
20
24.625829
11
90.433178
21
24.905744
0
LINE
8
Image
10
90.433178
20
24.905744
11
90.433178
21
24.905744
0
LINE
8
Image
10
97.224362
20
26.011556
11
99.439872
21
27.076393
0
LINE
8
Image
10
99.439872
20
27.076393
11
101.503843
21
28.574308
0
LINE
8
Image
10
101.503843
20
28.574308
11
103.520752
21
30.595394
0
LINE
8
Image
10
103.520752
20
30.595394
11
105.595078
21
33.229742
0
LINE
8
Image
10
105.595078
20
33.229742
11
106.711645
21
34.984838
0
LINE
8
Image
10
106.711645
20
34.984838
11
107.576805
21
36.780298
0
LINE
8
Image
10
107.576805
20
36.780298
11
108.186700
21
38.585219
0
LINE
8
Image
10
108.186700
20
38.585219
11
108.537475
21
40.368695
0
LINE
8
Image
10
108.537475
20
40.368695
11
108.625272
21
42.099821
0
LINE
8
Image
10
108.625272
20
42.099821
11
108.446236
21
43.747693
0
LINE
8
Image
10
108.446236
20
43.747693
11
107.996510
21
45.281404
0
LINE
8
Image
10
107.996510
20
45.281404
11
107.272238
21
46.670051
0
LINE
8
Image
10
107.272238
20
46.670051
11
105.885389
21
48.549026
0
LINE
8
Image
10
105.885389
20
48.549026
11
104.291998
21
50.293892
0
LINE
8
Image
10
104.291998
20
50.293892
11
102.479774
21
51.912859
0
LINE
8
Image
10
102.479774
20
51.912859
11
100.436429
21
53.414139
0
LINE
8
Image
10
100.436429
20
53.414139
11
98.149675
21
54.805941
0
LINE
8
Image
10
98.149675
20
54.805941
11
95.607221
21
56.096475
0
LINE
8
Image
10
95.607221
20
56.096475
11
92.796780
21
57.293954
0
LINE
8
Image
10
92.796780
20
57.293954
11
89.706062
21
58.406587
0
LINE
8
Image
10
89.706062
20
58.406587
11
84.253198
21
59.918447
0
LINE
8
Image
10
84.253198
20
59.918447
11
82.075287
21
60.361608
0
LINE
8
Image
10
82.075287
20
60.361608
11
81.079809
21
60.406867
0
LINE
8
Image
10
81.079809
20
60.406867
11
81.253966
21
57.811736
0
LINE
8
Image
10
81.253966
20
57.811736
11
81.387926
21
55.402547
0
LINE
8
Image
10
81.387926
20
55.402547
11
81.216931
21
53.079771
0
LINE
8
Image
10
81.216931
20
53.079771
11
80.746030
21
50.854805
0
LINE
8
Image
10
80.746030
20
50.854805
11
79.980274
21
48.739052
0
LINE
8
Image
10
79.980274
20
48.739052
11
78.924714
21
46.743909
0
LINE
8
Image
10
78.924714
20
46.743909
11
77.584400
21
44.880778
0
LINE
8
Image
10
77.584400
20
44.880778
11
75.964384
21
43.161057
0
LINE
8
Image
10
75.964384
20
43.161057
11
74.069715
21
41.596148
0
LINE
8
Image
10
74.069715
20
41.596148
11
72.934291
21
40.547071
0
LINE
8
Image
10
72.934291
20
40.547071
11
75.106274
21
37.438263
0
LINE
8
Image
10
75.106274
20
37.438263
11
77.063507
21
34.956501
0
LINE
8
Image
10
77.063507
20
34.956501
11
78.976440
21
32.783407
0
LINE
8
Image
10
78.976440
20
32.783407
11
80.860530
21
30.906963
0
LINE
8
Image
10
80.860530
20
30.906963
11
82.731234
21
29.315147
0
LINE
8
Image
10
82.731234
20
29.315147
11
84.604007
21
27.995943
0
LINE
8
Image
10
84.604007
20
27.995943
11
86.494306
21
26.937329
0
LINE
8
Image
10
86.494306
20
26.937329
11
88.417588
21
26.127287
0
LINE
8
Image
10
88.417588
20
26.127287
11
90.389310
21
25.553798
0
LINE
8
Image
10
90.389310
20
25.553798
11
92.203497
21
25.242726
0
LINE
8
Image
10
92.203497
20
25.242726
11
93.851206
21
25.208886
0
LINE
8
Image
10
93.851206
20
25.208886
11
95.476730
21
25.461942
0
LINE
8
Image
10
95.476730
20
25.461942
11
97.224362
21
26.011556
0
LINE
8
Image
10
97.224362
20
26.011556
11
97.224362
21
26.011556
0
LINE
8
Image
10
60.616270
20
42.041343
11
59.406212
21
42.480059
0
LINE
8
Image
10
59.406212
20
42.480059
11
58.173359
21
43.098349
0
LINE
8
Image
10
58.173359
20
43.098349
11
55.783273
21
44.754499
0
LINE
8
Image
10
55.783273
20
44.754499
11
53.734030
21
46.771483
0
LINE
8
Image
10
53.734030
20
46.771483
11
52.927230
21
47.840816
0
LINE
8
Image
10
52.927230
20
47.840816
11
52.313647
21
48.910992
0
LINE
8
Image
10
52.313647
20
48.910992
11
51.632769
21
50.585016
0
LINE
8
Image
10
51.632769
20
50.585016
11
51.146086
21
52.320173
0
LINE
8
Image
10
51.146086
20
52.320173
11
50.853616
21
54.088342
0
LINE
8
Image
10
50.853616
20
54.088342
11
50.755376
21
55.861397
0
LINE
8
Image
10
50.755376
20
55.861397
11
50.851384
21
57.611218
0
LINE
8
Image
10
50.851384
20
57.611218
11
51.141658
21
59.309679
0
LINE
8
Image
10
51.141658
20
59.309679
11
51.626216
21
60.928658
0
LINE
8
Image
10
51.626216
20
60.928658
11
52.305075
21
62.440031
0
LINE
8
Image
10
52.305075
20
62.440031
11
53.363504
21
64.013634
0
LINE
8
Image
10
53.363504
20
64.013634
11
54.784135
21
65.570633
0
LINE
8
Image
10
54.784135
20
65.570633
11
56.382319
21
66.932491
0
LINE
8
Image
10
56.382319
20
66.932491
11
57.973403
21
67.920672
0
LINE
8
Image
10
57.973403
20
67.920672
11
60.393501
21
68.914074
0
LINE
8
Image
10
60.393501
20
68.914074
11
62.680618
21
69.441191
0
LINE
8
Image
10
62.680618
20
69.441191
11
64.985160
21
69.521933
0
LINE
8
Image
10
64.985160
20
69.521933
11
67.457534
21
69.176211
0
LINE
8
Image
10
67.457534
20
69.176211
11
69.056545
21
68.751102
0
LINE
8
Image
10
69.056545
20
68.751102
11
70.545205
21
68.177084
0
LINE
8
Image
10
70.545205
20
68.177084
11
71.922870
21
67.454659
0
LINE
8
Image
10
71.922870
20
67.454659
11
73.188898
21
66.584329
0
LINE
8
Image
10
73.188898
20
66.584329
11
74.342646
21
65.566596
0
LINE
8
Image
10
74.342646
20
65.566596
11
75.383471
21
64.401960
0
LINE
8
Image
10
75.383471
20
64.401960
11
76.310730
21
63.090924
0
LINE
8
Image
10
76.310730
20
63.090924
11
77.123780
21
61.633989
0
LINE
8
Image
10
77.123780
20
61.633989
11
77.822140
21
60.165316
0
LINE
8
Image
10
77.822140
20
60.165316
11
78.207812
21
59.078928
0
LINE
8
Image
10
78.207812
20
59.078928
11
78.392896
21
57.937224
0
LINE
8
Image
10
78.392896
20
57.937224
11
78.489489
21
56.302602
0
LINE
8
Image
10
78.489489
20
56.302602
11
78.483272
21
53.642072
0
LINE
8
Image
10
78.483272
20
53.642072
11
77.999396
21
51.561452
0
LINE
8
Image
10
77.999396
20
51.561452
11
77.477986
21
50.189094
0
LINE
8
Image
10
77.477986
20
50.189094
11
76.814945
21
48.877181
0
LINE
8
Image
10
76.814945
20
48.877181
11
75.097598
21
46.473068
0
LINE
8
Image
10
75.097598
20
46.473068
11
72.914614
21
44.425872
0
LINE
8
Image
10
72.914614
20
44.425872
11
70.333250
21
42.812351
0
LINE
8
Image
10
70.333250
20
42.812351
11
69.112256
21
42.234985
0
LINE
8
Image
10
69.112256
20
42.234985
11
68.132340
21
41.926188
0
LINE
8
Image
10
68.132340
20
41.926188
11
65.068977
21
41.743348
0
LINE
8
Image
10
65.068977
20
41.743348
11
62.376446
21
41.797438
0
LINE
8
Image
10
62.376446
20
41.797438
11
60.616262
21
42.041343
0
LINE
8
Image
10
60.616262
20
42.041343
11
60.616270
21
42.041343
0
LINE
8
Image
10
68.526174
20
42.659017
11
69.995435
21
43.278210
0
LINE
8
Image
10
69.995435
20
43.278210
11
71.563432
21
44.183507
0
LINE
8
Image
10
71.563432
20
44.183507
11
73.043310
21
45.253790
0
LINE
8
Image
10
73.043310
20
45.253790
11
74.248210
21
46.367942
0
LINE
8
Image
10
74.248210
20
46.367942
11
76.043141
21
48.666440
0
LINE
8
Image
10
76.043141
20
48.666440
11
77.233456
21
51.025981
0
LINE
8
Image
10
77.233456
20
51.025981
11
77.853394
21
53.538710
0
LINE
8
Image
10
77.853394
20
53.538710
11
77.937190
21
56.296776
0
LINE
8
Image
10
77.937190
20
56.296776
11
77.631991
21
58.737509
0
LINE
8
Image
10
77.631991
20
58.737509
11
76.718746
21
61.025221
0
LINE
8
Image
10
76.718746
20
61.025221
11
75.664468
21
62.960734
0
LINE
8
Image
10
75.664468
20
62.960734
11
74.633911
21
64.457479
0
LINE
8
Image
10
74.633911
20
64.457479
11
73.434778
21
65.649768
0
LINE
8
Image
10
73.434778
20
65.649768
11
72.037851
21
66.679574
0
LINE
8
Image
10
72.037851
20
66.679574
11
70.485721
21
67.532857
0
LINE
8
Image
10
70.485721
20
67.532857
11
68.820979
21
68.195572
0
LINE
8
Image
10
68.820979
20
68.195572
11
67.086215
21
68.653679
0
LINE
8
Image
10
67.086215
20
68.653679
11
65.324021
21
68.893134
0
LINE
8
Image
10
65.324021
20
68.893134
11
63.576986
21
68.899897
0
LINE
8
Image
10
63.576986
20
68.899897
11
61.887702
21
68.659925
0
LINE
8
Image
10
61.887702
20
68.659925
11
60.367751
21
68.239457
0
LINE
8
Image
10
60.367751
20
68.239457
11
58.936701
21
67.680593
0
LINE
8
Image
10
58.936701
20
67.680593
11
57.603343
21
66.989914
0
LINE
8
Image
10
57.603343
20
66.989914
11
56.376466
21
66.173999
0
LINE
8
Image
10
56.376466
20
66.173999
11
55.264862
21
65.239430
0
LINE
8
Image
10
55.264862
20
65.239430
11
54.277320
21
64.192786
0
LINE
8
Image
10
54.277320
20
64.192786
11
53.422632
21
63.040647
0
LINE
8
Image
10
53.422632
20
63.040647
11
52.709588
21
61.789593
0
LINE
8
Image
10
52.709588
20
61.789593
11
52.049382
21
60.292803
0
LINE
8
Image
10
52.049382
20
60.292803
11
51.616344
21
58.899511
0
LINE
8
Image
10
51.616344
20
58.899511
11
51.378762
21
57.476551
0
LINE
8
Image
10
51.378762
20
57.476551
11
51.304927
21
55.890752
0
LINE
8
Image
10
51.304927
20
55.890752
11
51.554226
21
53.104599
0
LINE
8
Image
10
51.554226
20
53.104599
11
52.295897
21
50.505857
0
LINE
8
Image
10
52.295897
20
50.505857
11
53.507924
21
48.150363
0
LINE
8
Image
10
53.507924
20
48.150363
11
55.168289
21
46.093958
0
LINE
8
Image
10
55.168289
20
46.093958
11
56.580430
21
44.850783
0
LINE
8
Image
10
56.580430
20
44.850783
11
58.114262
21
43.827757
0
LINE
8
Image
10
58.114262
20
43.827757
11
59.745741
21
43.031064
0
LINE
8
Image
10
59.745741
20
43.031064
11
61.450817
21
42.466887
0
LINE
8
Image
10
61.450817
20
42.466887
11
63.205446
21
42.141411
0
LINE
8
Image
10
63.205446
20
42.141411
11
64.985579
21
42.060818
0
LINE
8
Image
10
64.985579
20
42.060818
11
66.767171
21
42.231292
0
LINE
8
Image
10
66.767171
20
42.231292
11
68.526174
21
42.659017
0
LINE
8
Image
10
68.526174
20
42.659017
11
68.526174
21
42.659017
0
LINE
8
Image
10
61.847210
20
49.801973
11
60.520117
21
50.690443
0
LINE
8
Image
10
60.520117
20
50.690443
11
59.423268
21
51.893944
0
LINE
8
Image
10
59.423268
20
51.893944
11
58.649671
21
53.283535
0
LINE
8
Image
10
58.649671
20
53.283535
11
58.292331
21
54.730275
0
LINE
8
Image
10
58.292331
20
54.730275
11
58.254851
21
56.091397
0
LINE
8
Image
10
58.254851
20
56.091397
11
58.415060
21
57.209863
0
LINE
8
Image
10
58.415060
20
57.209863
11
58.804787
21
58.208193
0
LINE
8
Image
10
58.804787
20
58.208193
11
59.455864
21
59.208909
0
LINE
8
Image
10
59.455864
20
59.208909
11
60.446180
21
60.283388
0
LINE
8
Image
10
60.446180
20
60.283388
11
61.587588
21
61.117552
0
LINE
8
Image
10
61.587588
20
61.117552
11
62.842231
21
61.689189
0
LINE
8
Image
10
62.842231
20
61.689189
11
64.172249
21
61.976087
0
LINE
8
Image
10
64.172249
20
61.976087
11
65.640700
21
61.939920
0
LINE
8
Image
10
65.640700
20
61.939920
11
67.313037
21
61.217208
0
LINE
8
Image
10
67.313037
20
61.217208
11
68.817311
21
60.252246
0
LINE
8
Image
10
68.817311
20
60.252246
11
69.851044
21
59.153622
0
LINE
8
Image
10
69.851044
20
59.153622
11
70.295922
21
58.457573
0
LINE
8
Image
10
70.295922
20
58.457573
11
70.539857
21
57.814996
0
LINE
8
Image
10
70.539857
20
57.814996
11
70.663444
21
55.666288
0
LINE
8
Image
10
70.663444
20
55.666288
11
70.527273
21
53.461953
0
LINE
8
Image
10
70.527273
20
53.461953
11
69.861969
21
51.729740
0
LINE
8
Image
10
69.861969
20
51.729740
11
69.155054
21
50.581233
0
LINE
8
Image
10
69.155054
20
50.581233
11
68.276414
21
49.869336
0
LINE
8
Image
10
68.276414
20
49.869336
11
66.988339
21
49.472396
0
LINE
8
Image
10
66.988339
20
49.472396
11
65.053115
21
49.268764
0
LINE
8
Image
10
65.053115
20
49.268764
11
63.280419
21
49.291003
0
LINE
8
Image
10
63.280419
20
49.291003
11
61.847210
21
49.801973
0
LINE
8
Image
10
61.847210
20
49.801973
11
61.847210
21
49.801973
0
LINE
8
Image
10
67.747334
20
50.320145
11
68.298597
21
50.554344
0
LINE
8
Image
10
68.298597
20
50.554344
11
68.704917
21
50.897330
0
LINE
8
Image
10
68.704917
20
50.897330
11
69.495416
21
52.400871
0
LINE
8
Image
10
69.495416
20
52.400871
11
69.992512
21
53.814682
0
LINE
8
Image
10
69.992512
20
53.814682
11
70.239093
21
55.141185
0
LINE
8
Image
10
70.239093
20
55.141185
11
70.237221
21
56.374363
0
LINE
8
Image
10
70.237221
20
56.374363
11
69.988956
21
57.508198
0
LINE
8
Image
10
69.988956
20
57.508198
11
69.496362
21
58.536673
0
LINE
8
Image
10
69.496362
20
58.536673
11
68.761499
21
59.453771
0
LINE
8
Image
10
68.761499
20
59.453771
11
67.786430
21
60.253474
0
LINE
8
Image
10
67.786430
20
60.253474
11
66.573216
21
60.929765
0
LINE
8
Image
10
66.573216
20
60.929765
11
65.314077
21
61.356940
0
LINE
8
Image
10
65.314077
20
61.356940
11
64.117274
21
61.425132
0
LINE
8
Image
10
64.117274
20
61.425132
11
62.912136
21
61.127592
0
LINE
8
Image
10
62.912136
20
61.127592
11
61.627990
21
60.457571
0
LINE
8
Image
10
61.627990
20
60.457571
11
60.830241
21
59.856341
0
LINE
8
Image
10
60.830241
20
59.856341
11
60.151439
21
59.154971
0
LINE
8
Image
10
60.151439
20
59.154971
11
59.182277
21
57.530660
0
LINE
8
Image
10
59.182277
20
57.530660
11
58.907719
21
56.647145
0
LINE
8
Image
10
58.907719
20
56.647145
11
58.783709
21
55.742340
0
LINE
8
Image
10
58.783709
20
55.742340
11
58.818149
21
54.835959
0
LINE
8
Image
10
58.818149
20
54.835959
11
59.018940
21
53.947713
0
LINE
8
Image
10
59.018940
20
53.947713
11
59.476530
21
53.028267
0
LINE
8
Image
10
59.476530
20
53.028267
11
60.212750
21
51.993317
0
LINE
8
Image
10
60.212750
20
51.993317
11
61.048328
21
51.066602
0
LINE
8
Image
10
61.048328
20
51.066602
11
61.803991
21
50.471860
0
LINE
8
Image
10
61.803991
20
50.471860
11
63.057782
21
50.015001
0
LINE
8
Image
10
63.057782
20
50.015001
11
64.541528
21
49.835507
0
LINE
8
Image
10
64.541528
20
49.835507
11
66.142341
21
49.936262
0
LINE
8
Image
10
66.142341
20
49.936262
11
67.747334
21
50.320145
0
LINE
8
Image
10
67.747334
20
50.320145
11
67.747334
21
50.320145
0
LINE
8
Image
10
49.454338
20
67.855206
11
48.040043
21
72.040393
0
LINE
8
Image
10
48.040043
20
72.040393
11
47.012891
21
76.292911
0
LINE
8
Image
10
47.012891
20
76.292911
11
46.352433
21
80.717901
0
LINE
8
Image
10
46.352433
20
80.717901
11
46.038223
21
85.420506
0
LINE
8
Image
10
46.038223
20
85.420506
11
46.020475
21
89.856211
0
LINE
8
Image
10
46.020475
20
89.856211
11
46.204523
21
91.348486
0
LINE
8
Image
10
46.204523
20
91.348486
11
46.568648
21
93.102322
0
LINE
8
Image
10
46.568648
20
93.102322
11
47.164041
21
95.388625
0
LINE
8
Image
10
47.164041
20
95.388625
11
47.838449
21
97.185307
0
LINE
8
Image
10
47.838449
20
97.185307
11
48.679684
21
98.683253
0
LINE
8
Image
10
48.679684
20
98.683253
11
49.775561
21
100.073344
0
LINE
8
Image
10
49.775561
20
100.073344
11
50.705495
21
101.007946
0
LINE
8
Image
10
50.705495
20
101.007946
11
51.685935
21
101.770311
0
LINE
8
Image
10
51.685935
20
101.770311
11
52.752186
21
102.371023
0
LINE
8
Image
10
52.752186
20
102.371023
11
53.939553
21
102.820666
0
LINE
8
Image
10
53.939553
20
102.820666
11
55.283340
21
103.129823
0
LINE
8
Image
10
55.283340
20
103.129823
11
56.818853
21
103.309078
0
LINE
8
Image
10
56.818853
20
103.309078
11
60.606274
21
103.320219
0
LINE
8
Image
10
60.606274
20
103.320219
11
64.703687
21
102.905782
0
LINE
8
Image
10
64.703687
20
102.905782
11
66.481046
21
102.534710
0
LINE
8
Image
10
66.481046
20
102.534710
11
68.096883
21
102.047518
0
LINE
8
Image
10
68.096883
20
102.047518
11
69.565729
21
101.439046
0
LINE
8
Image
10
69.565729
20
101.439046
11
70.902116
21
100.704133
0
LINE
8
Image
10
70.902116
20
100.704133
11
72.120577
21
99.837615
0
LINE
8
Image
10
72.120577
20
99.837615
11
73.235643
21
98.834332
0
LINE
8
Image
10
73.235643
20
98.834332
11
74.178816
21
97.768303
0
LINE
8
Image
10
74.178816
20
97.768303
11
74.953291
21
96.594654
0
LINE
8
Image
10
74.953291
20
96.594654
11
75.637697
21
95.173533
0
LINE
8
Image
10
75.637697
20
95.173533
11
76.310664
21
93.365093
0
LINE
8
Image
10
76.310664
20
93.365093
11
76.678447
21
91.952754
0
LINE
8
Image
10
76.678447
20
91.952754
11
76.900873
21
90.344746
0
LINE
8
Image
10
76.900873
20
90.344746
11
76.918551
21
86.674087
0
LINE
8
Image
10
76.918551
20
86.674087
11
76.381493
21
82.617844
0
LINE
8
Image
10
76.381493
20
82.617844
11
75.307492
21
78.440746
0
LINE
8
Image
10
75.307492
20
78.440746
11
73.352086
21
73.588397
0
LINE
8
Image
10
73.352086
20
73.588397
11
72.327709
21
71.486929
0
LINE
8
Image
10
72.327709
20
71.486929
11
71.704009
21
70.547727
0
LINE
8
Image
10
71.704009
20
70.547727
11
70.954674
21
70.619752
0
LINE
8
Image
10
70.954674
20
70.619752
11
69.665487
21
70.990496
0
LINE
8
Image
10
69.665487
20
70.990496
11
67.646880
21
71.464144
0
LINE
8
Image
10
67.646880
20
71.464144
11
64.518797
21
71.584591
0
LINE
8
Image
10
64.518797
20
71.584591
11
61.349566
21
71.481528
0
LINE
8
Image
10
61.349566
20
71.481528
11
59.309203
21
70.956069
0
LINE
8
Image
10
59.309203
20
70.956069
11
57.565354
21
70.175916
0
LINE
8
Image
10
57.565354
20
70.175916
11
55.805128
21
69.133023
0
LINE
8
Image
10
55.805128
20
69.133023
11
54.129481
21
67.894426
0
LINE
8
Image
10
54.129481
20
67.894426
11
52.639367
21
66.527161
0
LINE
8
Image
10
52.639367
20
66.527161
11
51.515452
21
65.461408
0
LINE
8
Image
10
51.515452
20
65.461408
11
50.863833
21
65.018130
0
LINE
8
Image
10
50.863833
20
65.018130
11
50.319738
21
65.851521
0
LINE
8
Image
10
50.319738
20
65.851521
11
49.454338
21
67.855206
0
LINE
8
Image
10
49.454338
20
67.855206
11
49.454338
21
67.855206
0
LINE
8
Image
10
52.951562
20
67.637356
11
54.551558
21
69.045268
0
LINE
8
Image
10
54.551558
20
69.045268
11
56.339130
21
70.241220
0
LINE
8
Image
10
56.339130
20
70.241220
11
58.253428
21
71.189957
0
LINE
8
Image
10
58.253428
20
71.189957
11
60.233601
21
71.856225
0
LINE
8
Image
10
60.233601
20
71.856225
11
62.265619
21
72.181418
0
LINE
8
Image
10
62.265619
20
72.181418
11
64.656402
21
72.265396
0
LINE
8
Image
10
64.656402
20
72.265396
11
67.059703
21
72.113091
0
LINE
8
Image
10
67.059703
20
72.113091
11
69.129270
21
71.729439
0
LINE
8
Image
10
69.129270
20
71.729439
11
71.343454
21
71.192534
0
LINE
8
Image
10
71.343454
20
71.192534
11
71.881707
21
71.921969
0
LINE
8
Image
10
71.881707
20
71.921969
11
72.774142
21
73.675717
0
LINE
8
Image
10
72.774142
20
73.675717
11
74.369768
21
77.583941
0
LINE
8
Image
10
74.369768
20
77.583941
11
75.503683
21
81.354009
0
LINE
8
Image
10
75.503683
20
81.354009
11
76.176149
21
84.941567
0
LINE
8
Image
10
76.176149
20
84.941567
11
76.387431
21
88.302258
0
LINE
8
Image
10
76.387431
20
88.302258
11
76.137793
21
91.391729
0
LINE
8
Image
10
76.137793
20
91.391729
11
75.427497
21
94.165624
0
LINE
8
Image
10
75.427497
20
94.165624
11
74.256809
21
96.579589
0
LINE
8
Image
10
74.256809
20
96.579589
11
73.498900
21
97.637737
0
LINE
8
Image
10
73.498900
20
97.637737
11
72.625991
21
98.589269
0
LINE
8
Image
10
72.625991
20
98.589269
11
71.576470
21
99.491248
0
LINE
8
Image
10
71.576470
20
99.491248
11
70.415661
21
100.278061
0
LINE
8
Image
10
70.415661
20
100.278061
11
69.133712
21
100.953124
0
LINE
8
Image
10
69.133712
20
100.953124
11
67.720766
21
101.519853
0
LINE
8
Image
10
67.720766
20
101.519853
11
64.462464
21
102.341979
0
LINE
8
Image
10
64.462464
20
102.341979
11
60.561916
21
102.771771
0
LINE
8
Image
10
60.561916
20
102.771771
11
58.200503
21
102.812881
0
LINE
8
Image
10
58.200503
20
102.812881
11
56.117079
21
102.642164
0
LINE
8
Image
10
56.117079
20
102.642164
11
54.289498
21
102.248449
0
LINE
8
Image
10
54.289498
20
102.248449
11
52.695613
21
101.620568
0
LINE
8
Image
10
52.695613
20
101.620568
11
51.313278
21
100.747350
0
LINE
8
Image
10
51.313278
20
100.747350
11
50.120349
21
99.617627
0
LINE
8
Image
10
50.120349
20
99.617627
11
49.094678
21
98.220228
0
LINE
8
Image
10
49.094678
20
98.220228
11
48.214119
21
96.543983
0
LINE
8
Image
10
48.214119
20
96.543983
11
47.478537
21
94.525066
0
LINE
8
Image
10
47.478537
20
94.525066
11
46.948908
21
92.228494
0
LINE
8
Image
10
46.948908
20
92.228494
11
46.625366
21
89.681540
0
LINE
8
Image
10
46.625366
20
89.681540
11
46.508046
21
86.911473
0
LINE
8
Image
10
46.508046
20
86.911473
11
46.597082
21
83.945565
0
LINE
8
Image
10
46.597082
20
83.945565
11
46.892608
21
80.811088
0
LINE
8
Image
10
46.892608
20
80.811088
11
47.394760
21
77.535313
0
LINE
8
Image
10
47.394760
20
77.535313
11
48.103671
21
74.145511
0
LINE
8
Image
10
48.103671
20
74.145511
11
49.665576
21
69.077817
0
LINE
8
Image
10
49.665576
20
69.077817
11
50.515118
21
66.784127
0
LINE
8
Image
10
50.515118
20
66.784127
11
51.001262
21
65.825304
0
LINE
8
Image
10
51.001262
20
65.825304
11
52.951562
21
67.637356
0
LINE
8
Image
10
52.951562
20
67.637356
11
52.951562
21
67.637356
0
LINE
8
Image
10
155.933936
20
17.678646
11
155.753450
21
51.334411
0
LINE
8
Image
10
155.753450
20
51.334411
11
155.753450
21
84.808817
0
LINE
8
Image
10
155.753450
20
84.808817
11
154.350870
21
84.978102
0
LINE
8
Image
10
154.350870
20
84.978102
11
140.589101
21
85.149722
0
LINE
8
Image
10
140.589101
20
85.149722
11
128.229915
21
85.152103
0
LINE
8
Image
10
128.229915
20
85.152103
11
128.299805
21
95.688856
0
LINE
8
Image
10
128.299805
20
95.688856
11
128.369697
21
106.225611
0
LINE
8
Image
10
128.369697
20
106.225611
11
169.461305
21
106.293577
0
LINE
8
Image
10
169.461305
20
106.293577
11
200.641728
21
106.276847
0
LINE
8
Image
10
200.641728
20
106.276847
11
211.071255
21
106.082792
0
LINE
8
Image
10
211.071255
20
106.082792
11
211.362769
21
105.713686
0
LINE
8
Image
10
211.362769
20
105.713686
11
211.517557
21
104.428557
0
LINE
8
Image
10
211.517557
20
104.428557
11
211.589594
21
95.628142
0
LINE
8
Image
10
211.589594
20
95.628142
11
211.523103
21
88.400119
0
LINE
8
Image
10
211.523103
20
88.400119
11
211.363238
21
85.311668
0
LINE
8
Image
10
211.363238
20
85.311668
11
198.205679
21
85.139728
0
LINE
8
Image
10
198.205679
20
85.139728
11
184.540822
21
84.964910
0
LINE
8
Image
10
184.540822
20
84.964910
11
183.807167
21
84.821456
0
LINE
8
Image
10
183.807167
20
84.821456
11
183.739344
21
51.228900
0
LINE
8
Image
10
183.739344
20
51.228900
11
183.671524
21
17.636342
0
LINE
8
Image
10
183.671524
20
17.636342
11
169.892972
21
17.566839
0
LINE
8
Image
10
169.892972
20
17.566839
11
155.933936
21
17.678694
0
LINE
8
Image
10
155.933936
20
17.678694
11
155.933936
21
17.678646
0
LINE
8
Image
10
183.144617
20
47.837182
11
183.211409
21
81.595062
0
LINE
8
Image
10
183.211409
20
81.595062
11
183.270784
21
85.688960
0
LINE
8
Image
10
183.270784
20
85.688960
11
197.024361
21
85.688960
0
LINE
8
Image
10
197.024361
20
85.688960
11
210.777938
21
85.688960
0
LINE
8
Image
10
210.777938
20
85.688960
11
210.924369
21
86.292977
0
LINE
8
Image
10
210.924369
20
86.292977
11
210.996248
21
96.158600
0
LINE
8
Image
10
210.996248
20
96.158600
11
210.921697
21
105.420206
0
LINE
8
Image
10
210.921697
20
105.420206
11
169.842773
21
105.488172
0
LINE
8
Image
10
169.842773
20
105.488172
11
128.763849
21
105.556137
0
LINE
8
Image
10
128.763849
20
105.556137
11
128.833932
21
95.689661
0
LINE
8
Image
10
128.833932
20
95.689661
11
128.904015
21
85.823186
0
LINE
8
Image
10
128.904015
20
85.823186
11
142.595891
21
85.753635
0
LINE
8
Image
10
142.595891
20
85.753635
11
153.448501
21
85.629414
0
LINE
8
Image
10
153.448501
20
85.629414
11
155.652288
21
85.515895
0
LINE
8
Image
10
155.652288
20
85.515895
11
156.290914
21
85.350955
0
LINE
8
Image
10
156.290914
20
85.350955
11
156.287792
21
52.601954
0
LINE
8
Image
10
156.287792
20
52.601954
11
156.452767
21
19.110040
0
LINE
8
Image
10
156.452767
20
19.110040
11
156.624003
21
18.034000
0
LINE
8
Image
10
156.624003
20
18.034000
11
169.880600
21
18.103601
0
LINE
8
Image
10
169.880600
20
18.103601
11
183.137201
21
18.173199
0
LINE
8
Image
10
183.137201
20
18.173199
11
183.144617
21
47.837182
0
LINE
8
Image
10
247.714998
20
17.835396
11
246.963618
21
19.432133
0
LINE
8
Image
10
246.963618
20
19.432133
11
244.986866
21
24.616055
0
LINE
8
Image
10
244.986866
20
24.616055
11
242.402610
21
31.461590
0
LINE
8
Image
10
242.402610
20
31.461590
11
240.179499
21
37.367540
0
LINE
8
Image
10
240.179499
20
37.367540
11
237.562660
21
44.347300
0
LINE
8
Image
10
237.562660
20
44.347300
11
232.611113
21
57.501465
0
LINE
8
Image
10
232.611113
20
57.501465
11
228.554106
21
68.239558
0
LINE
8
Image
10
228.554106
20
68.239558
11
225.750910
21
75.621998
0
LINE
8
Image
10
225.750910
20
75.621998
11
222.015609
21
85.420506
0
LINE
8
Image
10
222.015609
20
85.420506
11
219.165981
21
92.937172
0
LINE
8
Image
10
219.165981
20
92.937172
11
216.667461
21
99.514255
0
LINE
8
Image
10
216.667461
20
99.514255
11
214.891729
21
104.418070
0
LINE
8
Image
10
214.891729
20
104.418070
11
214.679634
21
105.469809
0
LINE
8
Image
10
214.679634
20
105.469809
11
214.814096
21
105.949028
0
LINE
8
Image
10
214.814096
20
105.949028
11
218.586159
21
106.178623
0
LINE
8
Image
10
218.586159
20
106.178623
11
229.047789
21
106.318422
0
LINE
8
Image
10
229.047789
20
106.318422
11
240.380066
21
106.324021
0
LINE
8
Image
10
240.380066
20
106.324021
11
242.580697
21
106.227778
0
LINE
8
Image
10
242.580697
20
106.227778
11
243.295520
21
106.049969
0
LINE
8
Image
10
243.295520
20
106.049969
11
245.906668
21
98.037766
0
LINE
8
Image
10
245.906668
20
98.037766
11
249.526709
21
86.360091
0
LINE
8
Image
10
249.526709
20
86.360091
11
252.472054
21
76.964259
0
LINE
8
Image
10
252.472054
20
76.964259
11
255.137665
21
68.373784
0
LINE
8
Image
10
255.137665
20
68.373784
11
257.534596
21
60.722892
0
LINE
8
Image
10
257.534596
20
60.722892
11
262.002987
21
46.740507
0
LINE
8
Image
10
262.002987
20
46.740507
11
262.890552
21
44.514076
0
LINE
8
Image
10
262.890552
20
44.514076
11
263.125462
21
44.227303
0
LINE
8
Image
10
263.125462
20
44.227303
11
263.269806
21
44.352539
0
LINE
8
Image
10
263.269806
20
44.352539
11
263.797831
21
46.092241
0
LINE
8
Image
10
263.797831
20
46.092241
11
267.498281
21
58.306821
0
LINE
8
Image
10
267.498281
20
58.306821
11
269.908421
21
66.091940
0
LINE
8
Image
10
269.908421
20
66.091940
11
275.568380
21
84.480925
0
LINE
8
Image
10
275.568380
20
84.480925
11
281.084116
21
102.435309
0
LINE
8
Image
10
281.084116
20
102.435309
11
282.116175
21
105.548247
0
LINE
8
Image
10
282.116175
20
105.548247
11
282.409931
21
105.794078
0
LINE
8
Image
10
282.409931
20
105.794078
11
283.157590
21
105.959647
0
LINE
8
Image
10
283.157590
20
105.959647
11
287.116052
21
106.191765
0
LINE
8
Image
10
287.116052
20
106.191765
11
300.990282
21
106.347188
0
LINE
8
Image
10
300.990282
20
106.347188
11
307.318202
21
106.265228
0
LINE
8
Image
10
307.318202
20
106.265228
11
310.172741
21
106.090317
0
LINE
8
Image
10
310.172741
20
106.090317
11
310.430399
21
105.733172
0
LINE
8
Image
10
310.430399
20
105.733172
11
310.201051
21
104.962492
0
LINE
8
Image
10
310.201051
20
104.962492
11
302.636094
21
84.684503
0
LINE
8
Image
10
302.636094
20
84.684503
11
302.411463
21
84.078245
0
LINE
8
Image
10
302.411463
20
84.078245
11
301.316196
21
81.434941
0
LINE
8
Image
10
301.316196
20
81.434941
11
300.485246
21
78.638334
0
LINE
8
Image
10
300.485246
20
78.638334
11
300.460752
21
78.318965
0
LINE
8
Image
10
300.460752
20
78.318965
11
300.346446
21
78.290780
0
LINE
8
Image
10
300.346446
20
78.290780
11
300.063661
21
77.994800
0
LINE
8
Image
10
300.063661
20
77.994800
11
299.700361
21
77.071655
0
LINE
8
Image
10
299.700361
20
77.071655
11
299.423222
21
76.032141
0
LINE
8
Image
10
299.423222
20
76.032141
11
299.398921
21
75.387053
0
LINE
8
Image
10
299.398921
20
75.387053
11
299.452566
21
75.235528
0
LINE
8
Image
10
299.452566
20
75.235528
11
299.340713
21
75.295254
0
LINE
8
Image
10
299.340713
20
75.295254
11
298.874743
21
74.584828
0
LINE
8
Image
10
298.874743
20
74.584828
11
298.115780
21
72.766990
0
LINE
8
Image
10
298.115780
20
72.766990
11
297.444973
21
70.840027
0
LINE
8
Image
10
297.444973
20
70.840027
11
297.243469
21
69.802225
0
LINE
8
Image
10
297.243469
20
69.802225
11
297.273030
21
69.646563
0
LINE
8
Image
10
297.273030
20
69.646563
11
297.153723
21
69.581819
0
LINE
8
Image
10
297.153723
20
69.581819
11
296.846036
21
69.200837
0
LINE
8
Image
10
296.846036
20
69.200837
11
296.475484
21
68.339738
0
LINE
8
Image
10
296.475484
20
68.339738
11
296.196402
21
67.421292
0
LINE
8
Image
10
296.196402
20
67.421292
11
296.163124
21
66.868269
0
LINE
8
Image
10
296.163124
20
66.868269
11
296.190505
21
66.699176
0
LINE
8
Image
10
296.190505
20
66.699176
11
296.049512
21
66.628845
0
LINE
8
Image
10
296.049512
20
66.628845
11
295.629400
21
65.897345
0
LINE
8
Image
10
295.629400
20
65.897345
11
294.938872
21
64.241942
0
LINE
8
Image
10
294.938872
20
64.241942
11
294.008016
21
61.394023
0
LINE
8
Image
10
294.008016
20
61.394023
11
293.856040
21
60.991346
0
LINE
8
Image
10
293.856040
20
60.991346
11
293.227615
21
59.623063
0
LINE
8
Image
10
293.227615
20
59.623063
11
292.950266
21
58.289126
0
LINE
8
Image
10
292.950266
20
58.289126
11
292.984798
21
58.112029
0
LINE
8
Image
10
292.984798
20
58.112029
11
292.851233
21
58.038370
0
LINE
8
Image
10
292.851233
20
58.038370
11
292.383989
21
57.230077
0
LINE
8
Image
10
292.383989
20
57.230077
11
291.616212
21
55.286733
0
LINE
8
Image
10
291.616212
20
55.286733
11
290.119678
21
51.230226
0
LINE
8
Image
10
290.119678
20
51.230226
11
289.799268
21
50.238535
0
LINE
8
Image
10
289.799268
20
50.238535
11
289.751749
21
49.686625
0
LINE
8
Image
10
289.751749
20
49.686625
11
289.789280
21
49.518021
0
LINE
8
Image
10
289.789280
20
49.518021
11
289.673300
21
49.447894
0
LINE
8
Image
10
289.673300
20
49.447894
11
289.370453
21
49.068222
0
LINE
8
Image
10
289.370453
20
49.068222
11
288.996751
21
48.211217
0
LINE
8
Image
10
288.996751
20
48.211217
11
288.710149
21
47.299895
0
LINE
8
Image
10
288.710149
20
47.299895
11
288.668599
21
46.757273
0
LINE
8
Image
10
288.668599
20
46.757273
11
288.698239
21
46.577923
0
LINE
8
Image
10
288.698239
20
46.577923
11
288.582504
21
46.450735
0
LINE
8
Image
10
288.582504
20
46.450735
11
288.109218
21
45.595015
0
LINE
8
Image
10
288.109218
20
45.595015
11
287.388110
21
43.818663
0
LINE
8
Image
10
287.388110
20
43.818663
11
286.757151
21
42.016259
0
LINE
8
Image
10
286.757151
20
42.016259
11
286.554316
21
41.082383
0
LINE
8
Image
10
286.554316
20
41.082383
11
286.581360
21
40.923504
0
LINE
8
Image
10
286.581360
20
40.923504
11
286.452055
21
40.857421
0
LINE
8
Image
10
286.452055
20
40.857421
11
285.887283
21
39.819882
0
LINE
8
Image
10
285.887283
20
39.819882
11
285.469235
21
38.307124
0
LINE
8
Image
10
285.469235
20
38.307124
11
285.302336
21
37.904445
0
LINE
8
Image
10
285.302336
20
37.904445
11
284.856355
21
36.964863
0
LINE
8
Image
10
284.856355
20
36.964863
11
283.349026
21
32.835873
0
LINE
8
Image
10
283.349026
20
32.835873
11
282.538965
21
30.400293
0
LINE
8
Image
10
282.538965
20
30.400293
11
282.301674
21
29.211766
0
LINE
8
Image
10
282.301674
20
29.211766
11
282.356621
21
29.059354
0
LINE
8
Image
10
282.356621
20
29.059354
11
282.249128
21
29.114857
0
LINE
8
Image
10
282.249128
20
29.114857
11
281.877048
21
28.686253
0
LINE
8
Image
10
281.877048
20
28.686253
11
281.295835
21
27.369917
0
LINE
8
Image
10
281.295835
20
27.369917
11
279.120751
21
21.528853
0
LINE
8
Image
10
279.120751
20
21.528853
11
277.675784
21
17.636294
0
LINE
8
Image
10
277.675784
20
17.636294
11
262.834027
21
17.566945
0
LINE
8
Image
10
262.834027
20
17.566945
11
250.980560
21
17.581126
0
LINE
8
Image
10
250.980560
20
17.581126
11
248.528427
21
17.673735
0
LINE
8
Image
10
248.528427
20
17.673735
11
247.714998
21
17.835396
0
LINE
8
Image
10
247.714998
20
17.835396
11
247.714998
21
17.835396
0
LINE
8
Image
10
277.157942
20
18.460828
11
277.576327
21
19.199070
0
LINE
8
Image
10
277.576327
20
19.199070
11
278.366187
21
21.528853
0
LINE
8
Image
10
278.366187
20
21.528853
11
280.930869
21
28.374388
0
LINE
8
Image
10
280.930869
20
28.374388
11
293.601114
21
62.602059
0
LINE
8
Image
10
293.601114
20
62.602059
11
302.414056
21
86.360091
0
LINE
8
Image
10
302.414056
20
86.360091
11
309.546050
21
105.218867
0
LINE
8
Image
10
309.546050
20
105.218867
11
309.031639
21
105.383480
0
LINE
8
Image
10
309.031639
20
105.383480
11
307.007247
21
105.486366
0
LINE
8
Image
10
307.007247
20
105.486366
11
296.596458
21
105.554432
0
LINE
8
Image
10
296.596458
20
105.554432
11
283.076214
21
105.391428
0
LINE
8
Image
10
283.076214
20
105.391428
11
282.578226
21
104.629803
0
LINE
8
Image
10
282.578226
20
104.629803
11
281.959568
21
102.908244
0
LINE
8
Image
10
281.959568
20
102.908244
11
280.368789
21
97.769315
0
LINE
8
Image
10
280.368789
20
97.769315
11
269.930170
21
63.810095
0
LINE
8
Image
10
269.930170
20
63.810095
11
267.451556
21
55.756524
0
LINE
8
Image
10
267.451556
20
55.756524
11
265.037977
21
47.837182
0
LINE
8
Image
10
265.037977
20
47.837182
11
263.533137
21
42.781376
0
LINE
8
Image
10
263.533137
20
42.781376
11
263.313685
21
42.463372
0
LINE
8
Image
10
263.313685
20
42.463372
11
262.994746
21
42.654600
0
LINE
8
Image
10
262.994746
20
42.654600
11
261.964025
21
44.808203
0
LINE
8
Image
10
261.964025
20
44.808203
11
260.252221
21
49.729084
0
LINE
8
Image
10
260.252221
20
49.729084
11
257.670581
21
57.904144
0
LINE
8
Image
10
257.670581
20
57.904144
11
254.865247
21
66.897297
0
LINE
8
Image
10
254.865247
20
66.897297
11
251.934827
21
76.293128
0
LINE
8
Image
10
251.934827
20
76.293128
11
249.128993
21
85.286281
0
LINE
8
Image
10
249.128993
20
85.286281
11
246.179247
21
94.816338
0
LINE
8
Image
10
246.179247
20
94.816338
11
243.776270
21
102.601457
0
LINE
8
Image
10
243.776270
20
102.601457
11
242.886760
21
105.420206
0
LINE
8
Image
10
242.886760
20
105.420206
11
229.108288
21
105.489735
0
LINE
8
Image
10
229.108288
20
105.489735
11
215.329814
21
105.414154
0
LINE
8
Image
10
215.329814
20
105.414154
11
217.230872
21
99.982774
0
LINE
8
Image
10
217.230872
20
99.982774
11
222.941475
21
85.017830
0
LINE
8
Image
10
222.941475
20
85.017830
11
226.405314
21
75.890449
0
LINE
8
Image
10
226.405314
20
75.890449
11
232.286745
21
60.320216
0
LINE
8
Image
10
232.286745
20
60.320216
11
242.170394
21
34.146112
0
LINE
8
Image
10
242.170394
20
34.146112
11
245.489098
21
25.287185
0
LINE
8
Image
10
245.489098
20
25.287185
11
247.352175
21
20.543549
0
LINE
8
Image
10
247.352175
20
20.543549
11
248.385065
21
18.374539
0
LINE
8
Image
10
248.385065
20
18.374539
11
249.266363
21
18.213050
0
LINE
8
Image
10
249.266363
20
18.213050
11
251.679777
21
18.109817
0
LINE
8
Image
10
251.679777
20
18.109817
11
262.782441
21
18.038974
0
LINE
8
Image
10
262.782441
20
18.038974
11
274.455129
21
18.110125
0
LINE
8
Image
10
274.455129
20
18.110125
11
276.489293
21
18.237665
0
LINE
8
Image
10
276.489293
20
18.237665
11
277.157942
21
18.460828
0
LINE
8
Image
10
277.157942
20
18.460828
11
277.157942
21
18.460828
0
LINE
8
Image
10
309.539303
20
17.907077
11
309.598761
21
18.813382
0
LINE
8
Image
10
309.598761
20
18.813382
11
310.312229
21
20.585239
0
LINE
8
Image
10
310.312229
20
20.585239
11
319.002326
21
43.676170
0
LINE
8
Image
10
319.002326
20
43.676170
11
320.713490
21
48.239859
0
LINE
8
Image
10
320.713490
20
48.239859
11
323.290581
21
55.085393
0
LINE
8
Image
10
323.290581
20
55.085393
11
326.333233
21
63.138964
0
LINE
8
Image
10
326.333233
20
63.138964
11
327.372277
21
65.957715
0
LINE
8
Image
10
327.372277
20
65.957715
11
331.415158
21
76.830033
0
LINE
8
Image
10
331.415158
20
76.830033
11
340.363037
21
100.868088
0
LINE
8
Image
10
340.363037
20
100.868088
11
341.490390
21
103.940498
0
LINE
8
Image
10
341.490390
20
103.940498
11
342.255166
21
105.471634
0
LINE
8
Image
10
342.255166
20
105.471634
11
342.636605
21
105.835201
0
LINE
8
Image
10
342.636605
20
105.835201
11
343.089420
21
106.024620
0
LINE
8
Image
10
343.089420
20
106.024620
11
344.425206
21
106.162574
0
LINE
8
Image
10
344.425206
20
106.162574
11
359.130419
21
106.329337
0
LINE
8
Image
10
359.130419
20
106.329337
11
372.258015
21
106.208504
0
LINE
8
Image
10
372.258015
20
106.208504
11
372.624969
21
106.007343
0
LINE
8
Image
10
372.624969
20
106.007343
11
372.987722
21
105.508551
0
LINE
8
Image
10
372.987722
20
105.508551
11
374.017307
21
103.049402
0
LINE
8
Image
10
374.017307
20
103.049402
11
375.904339
21
98.037766
0
LINE
8
Image
10
375.904339
20
98.037766
11
386.749305
21
68.910689
0
LINE
8
Image
10
386.749305
20
68.910689
11
388.714258
21
63.675869
0
LINE
8
Image
10
388.714258
20
63.675869
11
391.617765
21
55.890752
0
LINE
8
Image
10
391.617765
20
55.890752
11
402.089008
21
27.837482
0
LINE
8
Image
10
402.089008
20
27.837482
11
404.787251
21
20.636925
0
LINE
8
Image
10
404.787251
20
20.636925
11
405.529863
21
18.656700
0
LINE
8
Image
10
405.529863
20
18.656700
11
405.409146
21
18.093108
0
LINE
8
Image
10
405.409146
20
18.093108
11
404.666344
21
17.748081
0
LINE
8
Image
10
404.666344
20
17.748081
11
403.080905
21
17.572282
0
LINE
8
Image
10
403.080905
20
17.572282
11
400.432278
21
17.516371
0
LINE
8
Image
10
400.432278
20
17.516371
11
391.063252
21
17.566870
0
LINE
8
Image
10
391.063252
20
17.566870
11
376.579767
21
17.636294
0
LINE
8
Image
10
376.579767
20
17.636294
11
376.000065
21
19.649686
0
LINE
8
Image
10
376.000065
20
19.649686
11
374.426749
21
25.018734
0
LINE
8
Image
10
374.426749
20
25.018734
11
372.970246
21
30.253554
0
LINE
8
Image
10
372.970246
20
30.253554
11
372.457150
21
31.860965
0
LINE
8
Image
10
372.457150
20
31.860965
11
372.162174
21
32.157446
0
LINE
8
Image
10
372.162174
20
32.157446
11
371.728532
21
32.302297
0
LINE
8
Image
10
371.728532
20
32.302297
11
357.087418
21
32.496542
0
LINE
8
Image
10
357.087418
20
32.496542
11
347.339082
21
32.481676
0
LINE
8
Image
10
347.339082
20
32.481676
11
342.599478
21
32.375496
0
LINE
8
Image
10
342.599478
20
32.375496
11
342.292327
21
32.193811
0
LINE
8
Image
10
342.292327
20
32.193811
11
342.007679
21
31.773939
0
LINE
8
Image
10
342.007679
20
31.773939
11
341.341703
21
29.895978
0
LINE
8
Image
10
341.341703
20
29.895978
11
339.404453
21
23.408019
0
LINE
8
Image
10
339.404453
20
23.408019
11
338.018832
21
18.710105
0
LINE
8
Image
10
338.018832
20
18.710105
11
337.900699
21
18.301584
0
LINE
8
Image
10
337.900699
20
18.301584
11
337.667096
21
17.997347
0
LINE
8
Image
10
337.667096
20
17.997347
11
337.133814
21
17.782039
0
LINE
8
Image
10
337.133814
20
17.782039
11
336.116645
21
17.640307
0
LINE
8
Image
10
336.116645
20
17.640307
11
331.893811
21
17.516157
0
LINE
8
Image
10
331.893811
20
17.516157
11
323.524922
21
17.502069
0
LINE
8
Image
10
323.524922
20
17.502069
11
312.051608
21
17.571888
0
LINE
8
Image
10
312.051608
20
17.571888
11
310.082370
21
17.694523
0
LINE
8
Image
10
310.082370
20
17.694523
11
309.539303
21
17.907077
0
LINE
8
Image
10
309.539303
20
17.907077
11
309.539303
21
17.907077
0
LINE
8
Image
10
337.073106
20
18.374539
11
338.466824
21
22.602663
0
LINE
8
Image
10
338.466824
20
22.602663
11
340.594309
21
29.716649
0
LINE
8
Image
10
340.594309
20
29.716649
11
341.579643
21
32.938077
0
LINE
8
Image
10
341.579643
20
32.938077
11
357.293624
21
32.938077
0
LINE
8
Image
10
357.293624
20
32.938077
11
373.007605
21
32.938077
0
LINE
8
Image
10
373.007605
20
32.938077
11
373.639959
21
30.522005
0
LINE
8
Image
10
373.639959
20
30.522005
11
375.712040
21
23.139568
0
LINE
8
Image
10
375.712040
20
23.139568
11
377.151716
21
18.173199
0
LINE
8
Image
10
377.151716
20
18.173199
11
390.732285
21
18.103598
0
LINE
8
Image
10
390.732285
20
18.103598
11
400.391509
21
18.122726
0
LINE
8
Image
10
400.391509
20
18.122726
11
404.544179
21
18.266454
0
LINE
8
Image
10
404.544179
20
18.266454
11
404.625909
21
18.388383
0
LINE
8
Image
10
404.625909
20
18.388383
11
404.603819
21
18.702314
0
LINE
8
Image
10
404.603819
20
18.702314
11
403.908128
21
20.864808
0
LINE
8
Image
10
403.908128
20
20.864808
11
397.530295
21
38.038671
0
LINE
8
Image
10
397.530295
20
38.038671
11
390.274265
21
57.501465
0
LINE
8
Image
10
390.274265
20
57.501465
11
388.323627
21
62.736284
0
LINE
8
Image
10
388.323627
20
62.736284
11
379.973838
21
85.017830
0
LINE
8
Image
10
379.973838
20
85.017830
11
377.186588
21
92.534495
0
LINE
8
Image
10
377.186588
20
92.534495
11
374.223126
21
100.520951
0
LINE
8
Image
10
374.223126
20
100.520951
11
372.342047
21
105.554432
0
LINE
8
Image
10
372.342047
20
105.554432
11
357.719550
21
105.554432
0
LINE
8
Image
10
357.719550
20
105.554432
11
346.086249
21
105.484602
0
LINE
8
Image
10
346.086249
20
105.484602
11
343.648199
21
105.381496
0
LINE
8
Image
10
343.648199
20
105.381496
11
342.839005
21
105.218867
0
LINE
8
Image
10
342.839005
20
105.218867
11
341.306355
21
101.393421
0
LINE
8
Image
10
341.306355
20
101.393421
11
339.155136
21
95.621697
0
LINE
8
Image
10
339.155136
20
95.621697
11
333.289940
21
79.917236
0
LINE
8
Image
10
333.289940
20
79.917236
11
326.737198
21
62.333608
0
LINE
8
Image
10
326.737198
20
62.333608
11
319.346892
21
42.602362
0
LINE
8
Image
10
319.346892
20
42.602362
11
311.214643
21
20.991948
0
LINE
8
Image
10
311.214643
20
20.991948
11
310.270002
21
18.664350
0
LINE
8
Image
10
310.270002
20
18.664350
11
310.350356
21
18.406575
0
LINE
8
Image
10
310.350356
20
18.406575
11
310.751781
21
18.231119
0
LINE
8
Image
10
310.751781
20
18.231119
11
324.097427
21
18.075531
0
LINE
8
Image
10
324.097427
20
18.075531
11
334.224973
21
18.116443
0
LINE
8
Image
10
334.224973
20
18.116443
11
336.355487
21
18.213654
0
LINE
8
Image
10
336.355487
20
18.213654
11
337.073106
21
18.374539
0
LINE
8
Image
10
337.073106
20
18.374539
11
337.073106
21
18.374539
0
LINE
8
Image
10
347.667248
20
52.273654
11
347.721854
21
53.093226
0
LINE
8
Image
10
347.721854
20
53.093226
11
348.072827
21
54.488386
0
LINE
8
Image
10
348.072827
20
54.488386
11
350.662354
21
63.004738
0
LINE
8
Image
10
350.662354
20
63.004738
11
354.124422
21
74.279736
0
LINE
8
Image
10
354.124422
20
74.279736
11
356.215131
21
80.991043
0
LINE
8
Image
10
356.215131
20
80.991043
11
356.832919
21
82.678652
0
LINE
8
Image
10
356.832919
20
82.678652
11
357.088230
21
83.033272
0
LINE
8
Image
10
357.088230
20
83.033272
11
357.348393
21
83.138663
0
LINE
8
Image
10
357.348393
20
83.138663
11
357.591842
21
83.063040
0
LINE
8
Image
10
357.591842
20
83.063040
11
357.800224
21
82.813962
0
LINE
8
Image
10
357.800224
20
82.813962
11
358.187544
21
81.662174
0
LINE
8
Image
10
358.187544
20
81.662174
11
364.943380
21
59.783311
0
LINE
8
Image
10
364.943380
20
59.783311
11
366.574944
21
54.500128
0
LINE
8
Image
10
366.574944
20
54.500128
11
367.075893
21
52.292442
0
LINE
8
Image
10
367.075893
20
52.292442
11
366.786252
21
52.063322
0
LINE
8
Image
10
366.786252
20
52.063322
11
365.501343
21
51.934052
0
LINE
8
Image
10
365.501343
20
51.934052
11
357.449781
21
51.863966
0
LINE
8
Image
10
357.449781
20
51.863966
11
349.465890
21
51.935013
0
LINE
8
Image
10
349.465890
20
51.935013
11
348.074358
21
52.059118
0
LINE
8
Image
10
348.074358
20
52.059118
11
347.667248
21
52.273654
0
LINE
8
Image
10
347.667248
20
52.273654
11
347.667248
21
52.273654
0
LINE
8
Image
10
366.274418
20
52.873652
11
360.673619
21
71.058309
0
LINE
8
Image
10
360.673619
20
71.058309
11
358.325895
21
78.647825
0
LINE
8
Image
10
358.325895
20
78.647825
11
357.328734
21
81.942105
0
LINE
8
Image
10
357.328734
20
81.942105
11
355.647733
21
76.768658
0
LINE
8
Image
10
355.647733
20
76.768658
11
351.247221
21
62.599274
0
LINE
8
Image
10
351.247221
20
62.599274
11
348.374796
21
52.799494
0
LINE
8
Image
10
348.374796
20
52.799494
11
357.324607
21
52.669325
0
LINE
8
Image
10
357.324607
20
52.669325
11
363.645405
21
52.729345
0
LINE
8
Image
10
363.645405
20
52.729345
11
366.274418
21
52.873652
0
LINE
8
Image
10
366.274418
20
52.873652
11
366.274418
21
52.873652
 0 
ENDSEC
 0 
EOF