999
"DXF R12 Output" (www.mydxf.blogspot.com)
 0 
SECTION
 2 
HEADER
 9 
$ACADVER
 1 
AC1009
 9 
$EXTMIN
 10 
 0 
 20 
 0 
 9 
$EXTMAX
 10 
 8.5 
 20 
 11 
 0 
ENDSEC
 0 
SECTION
 2 
ENTITIES
0
LINE
8
Image
10
9.177344
20
8.735648
11
8.157593
21
9.219575
0
LINE
8
Image
10
8.157593
20
9.219575
11
7.700961
21
9.860299
0
LINE
8
Image
10
7.700961
20
9.860299
11
7.819198
21
10.609553
0
LINE
8
Image
10
7.819198
20
10.609553
11
8.524054
21
11.419070
0
LINE
8
Image
10
8.524054
20
11.419070
11
8.998705
21
11.854638
0
LINE
8
Image
10
8.998705
20
11.854638
11
9.265915
21
12.306022
0
LINE
8
Image
10
9.265915
20
12.306022
11
9.465866
21
14.064900
0
LINE
8
Image
10
9.465866
20
14.064900
11
9.426831
21
15.833875
0
LINE
8
Image
10
9.426831
20
15.833875
11
8.943063
21
16.985486
0
LINE
8
Image
10
8.943063
20
16.985486
11
8.043977
21
18.189543
0
LINE
8
Image
10
8.043977
20
18.189543
11
6.866644
21
19.469358
0
LINE
8
Image
10
6.866644
20
19.469358
11
5.683794
21
20.551946
0
LINE
8
Image
10
5.683794
20
20.551946
11
4.768156
21
21.164321
0
LINE
8
Image
10
4.768156
20
21.164321
11
4.153952
21
21.618341
0
LINE
8
Image
10
4.153952
20
21.618341
11
3.932509
21
22.232480
0
LINE
8
Image
10
3.932509
20
22.232480
11
4.108029
21
22.890376
0
LINE
8
Image
10
4.108029
20
22.890376
11
4.684712
21
23.475668
0
LINE
8
Image
10
4.684712
20
23.475668
11
5.185964
21
23.713308
0
LINE
8
Image
10
5.185964
20
23.713308
11
5.927652
21
23.856308
0
LINE
8
Image
10
5.927652
20
23.856308
11
8.910691
21
23.944786
0
LINE
8
Image
10
8.910691
20
23.944786
11
11.986595
21
23.856225
0
LINE
8
Image
10
11.986595
20
23.856225
11
12.601291
21
23.677885
0
LINE
8
Image
10
12.601291
20
23.677885
11
13.015440
21
23.350049
0
LINE
8
Image
10
13.015440
20
23.350049
11
13.458981
21
22.717268
0
LINE
8
Image
10
13.458981
20
22.717268
11
13.299726
21
21.932826
0
LINE
8
Image
10
13.299726
20
21.932826
11
13.128455
21
21.146641
0
LINE
8
Image
10
13.128455
20
21.146641
11
13.404224
21
20.477045
0
LINE
8
Image
10
13.404224
20
20.477045
11
13.742362
21
20.032422
0
LINE
8
Image
10
13.742362
20
20.032422
11
14.020128
21
19.881156
0
LINE
8
Image
10
14.020128
20
19.881156
11
14.295571
21
20.022172
0
LINE
8
Image
10
14.295571
20
20.022172
11
14.626734
21
20.454397
0
LINE
8
Image
10
14.626734
20
20.454397
11
14.871364
21
21.027930
0
LINE
8
Image
10
14.871364
20
21.027930
11
14.772532
21
21.519476
0
LINE
8
Image
10
14.772532
20
21.519476
11
14.617325
21
22.052171
0
LINE
8
Image
10
14.617325
20
22.052171
11
14.601287
21
22.694764
0
LINE
8
Image
10
14.601287
20
22.694764
11
14.879874
21
23.293138
0
LINE
8
Image
10
14.879874
20
23.293138
11
15.569379
21
23.715174
0
LINE
8
Image
10
15.569379
20
23.715174
11
16.688574
21
23.967876
0
LINE
8
Image
10
16.688574
20
23.967876
11
18.256227
21
24.058245
0
LINE
8
Image
10
18.256227
20
24.058245
11
19.696679
21
23.986845
0
LINE
8
Image
10
19.696679
20
23.986845
11
20.635383
21
23.725458
0
LINE
8
Image
10
20.635383
20
23.725458
11
21.145185
21
23.236345
0
LINE
8
Image
10
21.145185
20
23.236345
11
21.298932
21
22.481767
0
LINE
8
Image
10
21.298932
20
22.481767
11
21.150094
21
21.672969
0
LINE
8
Image
10
21.150094
20
21.672969
11
20.431416
21
21.283134
0
LINE
8
Image
10
20.431416
20
21.283134
11
19.420071
21
20.666603
0
LINE
8
Image
10
19.420071
20
20.666603
11
18.077356
21
19.524732
0
LINE
8
Image
10
18.077356
20
19.524732
11
16.800618
21
18.227507
0
LINE
8
Image
10
16.800618
20
18.227507
11
15.987199
21
17.144913
0
LINE
8
Image
10
15.987199
20
17.144913
11
15.709170
21
16.037804
0
LINE
8
Image
10
15.709170
20
16.037804
11
15.610397
21
14.218112
0
LINE
8
Image
10
15.610397
20
14.218112
11
15.718636
21
12.221587
0
LINE
8
Image
10
15.718636
20
12.221587
11
15.959821
21
11.789237
0
LINE
8
Image
10
15.959821
20
11.789237
11
16.419837
21
11.407331
0
LINE
8
Image
10
16.419837
20
11.407331
11
17.026318
21
10.762537
0
LINE
8
Image
10
17.026318
20
10.762537
11
17.177782
21
10.099518
0
LINE
8
Image
10
17.177782
20
10.099518
11
16.880205
21
9.471100
0
LINE
8
Image
10
16.880205
20
9.471100
11
16.139563
21
8.930111
0
LINE
8
Image
10
16.139563
20
8.930111
11
14.846830
21
8.570901
0
LINE
8
Image
10
14.846830
20
8.570901
11
12.567692
21
8.489835
0
LINE
8
Image
10
12.567692
20
8.489835
11
9.177344
21
8.735648
0
LINE
8
Image
10
9.177344
20
8.735648
11
9.177344
21
8.735648
0
LINE
8
Image
10
15.877222
20
9.526214
11
16.269936
21
9.823581
0
LINE
8
Image
10
16.269936
20
9.823581
11
16.369472
21
10.154926
0
LINE
8
Image
10
16.369472
20
10.154926
11
16.172713
21
10.543318
0
LINE
8
Image
10
16.172713
20
10.543318
11
15.676543
21
11.011832
0
LINE
8
Image
10
15.676543
20
11.011832
11
15.263249
21
11.394100
0
LINE
8
Image
10
15.263249
20
11.394100
11
15.046425
21
11.884642
0
LINE
8
Image
10
15.046425
20
11.884642
11
14.948940
21
14.353706
0
LINE
8
Image
10
14.948940
20
14.353706
11
14.948940
21
17.114926
0
LINE
8
Image
10
14.948940
20
17.114926
11
15.947535
21
18.333251
0
LINE
8
Image
10
15.947535
20
18.333251
11
18.220805
21
20.741196
0
LINE
8
Image
10
18.220805
20
20.741196
11
19.176446
21
21.489497
0
LINE
8
Image
10
19.176446
20
21.489497
11
19.906837
21
21.841349
0
LINE
8
Image
10
19.906837
20
21.841349
11
20.456437
21
22.019035
0
LINE
8
Image
10
20.456437
20
22.019035
11
20.760219
21
22.254985
0
LINE
8
Image
10
20.760219
20
22.254985
11
20.817565
21
22.548290
0
LINE
8
Image
10
20.817565
20
22.548290
11
20.627855
21
22.898043
0
LINE
8
Image
10
20.627855
20
22.898043
11
19.735182
21
23.199547
0
LINE
8
Image
10
19.735182
20
23.199547
11
18.149727
21
23.301599
0
LINE
8
Image
10
18.149727
20
23.301599
11
16.512005
21
23.203428
0
LINE
8
Image
10
16.512005
20
23.203428
11
15.462529
21
22.904261
0
LINE
8
Image
10
15.462529
20
22.904261
11
15.117328
21
22.533924
0
LINE
8
Image
10
15.117328
20
22.533924
11
15.279668
21
22.189887
0
LINE
8
Image
10
15.279668
20
22.189887
11
15.529629
21
21.735697
0
LINE
8
Image
10
15.529629
20
21.735697
11
15.595085
21
21.135145
0
LINE
8
Image
10
15.595085
20
21.135145
11
15.479942
21
20.486428
0
LINE
8
Image
10
15.479942
20
20.486428
11
15.188106
21
19.887748
0
LINE
8
Image
10
15.188106
20
19.887748
11
14.742331
21
19.476539
0
LINE
8
Image
10
14.742331
20
19.476539
11
14.219791
21
19.329281
0
LINE
8
Image
10
14.219791
20
19.329281
11
13.674256
21
19.407393
0
LINE
8
Image
10
13.674256
20
19.407393
11
13.159494
21
19.672296
0
LINE
8
Image
10
13.159494
20
19.672296
11
12.729276
21
20.085409
0
LINE
8
Image
10
12.729276
20
20.085409
11
12.437373
21
20.608154
0
LINE
8
Image
10
12.437373
20
20.608154
11
12.337554
21
21.201951
0
LINE
8
Image
10
12.337554
20
21.201951
11
12.483590
21
21.828220
0
LINE
8
Image
10
12.483590
20
21.828220
11
12.633367
21
22.553437
0
LINE
8
Image
10
12.633367
20
22.553437
11
12.490924
21
22.807166
0
LINE
8
Image
10
12.490924
20
22.807166
11
12.179384
21
22.998056
0
LINE
8
Image
10
12.179384
20
22.998056
11
10.976383
21
23.220557
0
LINE
8
Image
10
10.976383
20
23.220557
11
8.879107
21
23.279424
0
LINE
8
Image
10
8.879107
20
23.279424
11
6.384005
21
23.162282
0
LINE
8
Image
10
6.384005
20
23.162282
11
5.016554
21
22.825143
0
LINE
8
Image
10
5.016554
20
22.825143
11
4.760878
21
22.576957
0
LINE
8
Image
10
4.760878
20
22.576957
11
4.793331
21
22.277231
0
LINE
8
Image
10
4.793331
20
22.277231
11
5.730913
21
21.527771
0
LINE
8
Image
10
5.730913
20
21.527771
11
6.934188
21
20.534866
0
LINE
8
Image
10
6.934188
20
20.534866
11
8.400510
21
18.940974
0
LINE
8
Image
10
8.400510
20
18.940974
11
10.054154
21
16.919105
0
LINE
8
Image
10
10.054154
20
16.919105
11
10.054154
21
14.382220
0
LINE
8
Image
10
10.054154
20
14.382220
11
10.054154
21
11.845332
0
LINE
8
Image
10
10.054154
20
11.845332
11
9.119543
21
10.989263
0
LINE
8
Image
10
9.119543
20
10.989263
11
8.406510
21
10.214572
0
LINE
8
Image
10
8.406510
20
10.214572
11
8.411516
21
9.993631
0
LINE
8
Image
10
8.411516
20
9.993631
11
8.613276
21
9.777700
0
LINE
8
Image
10
8.613276
20
9.777700
11
9.239382
21
9.468729
0
LINE
8
Image
10
9.239382
20
9.468729
11
10.143198
21
9.225084
0
LINE
8
Image
10
10.143198
20
9.225084
11
11.542722
21
9.113599
0
LINE
8
Image
10
11.542722
20
9.113599
11
13.287507
21
9.143566
0
LINE
8
Image
10
13.287507
20
9.143566
11
14.893643
21
9.289574
0
LINE
8
Image
10
14.893643
20
9.289574
11
15.877222
21
9.526209
0
LINE
8
Image
10
15.877222
20
9.526209
11
15.877222
21
9.526214
0
LINE
8
Image
10
25.142575
20
8.911376
11
23.764286
21
9.665251
0
LINE
8
Image
10
23.764286
20
9.665251
11
22.470506
21
10.815298
0
LINE
8
Image
10
22.470506
20
10.815298
11
21.415872
21
12.194943
0
LINE
8
Image
10
21.415872
20
12.194943
11
20.755020
21
13.637614
0
LINE
8
Image
10
20.755020
20
13.637614
11
20.385224
21
15.923053
0
LINE
8
Image
10
20.385224
20
15.923053
11
20.594499
21
18.116598
0
LINE
8
Image
10
20.594499
20
18.116598
11
21.358304
21
20.112584
0
LINE
8
Image
10
21.358304
20
20.112584
11
21.940485
21
21.003471
0
LINE
8
Image
10
21.940485
20
21.003471
11
22.652095
21
21.805345
0
LINE
8
Image
10
22.652095
20
21.805345
11
23.806088
21
22.752004
0
LINE
8
Image
10
23.806088
20
22.752004
11
25.057924
21
23.415904
0
LINE
8
Image
10
25.057924
20
23.415904
11
26.485609
21
23.828379
0
LINE
8
Image
10
26.485609
20
23.828379
11
28.167152
21
24.020764
0
LINE
8
Image
10
28.167152
20
24.020764
11
29.532423
21
24.009520
0
LINE
8
Image
10
29.532423
20
24.009520
11
30.799449
21
23.834094
0
LINE
8
Image
10
30.799449
20
23.834094
11
31.964912
21
23.496388
0
LINE
8
Image
10
31.964912
20
23.496388
11
33.025494
21
22.998307
0
LINE
8
Image
10
33.025494
20
22.998307
11
33.977874
21
22.341754
0
LINE
8
Image
10
33.977874
20
22.341754
11
34.818735
21
21.528632
0
LINE
8
Image
10
34.818735
20
21.528632
11
35.544758
21
20.560846
0
LINE
8
Image
10
35.544758
20
20.560846
11
36.152624
21
19.440298
0
LINE
8
Image
10
36.152624
20
19.440298
11
36.590357
21
18.311278
0
LINE
8
Image
10
36.590357
20
18.311278
11
36.863720
21
17.200073
0
LINE
8
Image
10
36.863720
20
17.200073
11
36.973401
21
16.112014
0
LINE
8
Image
10
36.973401
20
16.112014
11
36.920088
21
15.052435
0
LINE
8
Image
10
36.920088
20
15.052435
11
36.704469
21
14.026667
0
LINE
8
Image
10
36.704469
20
14.026667
11
36.327231
21
13.040041
0
LINE
8
Image
10
36.327231
20
13.040041
11
35.789061
21
12.097891
0
LINE
8
Image
10
35.789061
20
12.097891
11
35.090648
21
11.205546
0
LINE
8
Image
10
35.090648
20
11.205546
11
33.799990
21
9.976919
0
LINE
8
Image
10
33.799990
20
9.976919
11
32.447469
21
9.175445
0
LINE
8
Image
10
32.447469
20
9.175445
11
30.853763
21
8.724918
0
LINE
8
Image
10
30.853763
20
8.724918
11
28.839547
21
8.549136
0
LINE
8
Image
10
28.839547
20
8.549136
11
26.631227
21
8.594268
0
LINE
8
Image
10
26.631227
20
8.594268
11
25.142575
21
8.911376
0
LINE
8
Image
10
25.142575
20
8.911376
11
25.142575
21
8.911376
0
LINE
8
Image
10
30.908189
20
9.402971
11
31.876413
21
9.769801
0
LINE
8
Image
10
31.876413
20
9.769801
11
32.279126
21
10.080045
0
LINE
8
Image
10
32.279126
20
10.080045
11
32.357145
21
10.222476
0
LINE
8
Image
10
32.357145
20
10.222476
11
32.544722
21
10.185843
0
LINE
8
Image
10
32.544722
20
10.185843
11
33.144342
21
10.482721
0
LINE
8
Image
10
33.144342
20
10.482721
11
34.213013
21
11.426997
0
LINE
8
Image
10
34.213013
20
11.426997
11
35.250396
21
12.651649
0
LINE
8
Image
10
35.250396
20
12.651649
11
35.900098
21
13.897548
0
LINE
8
Image
10
35.900098
20
13.897548
11
36.195433
21
15.256518
0
LINE
8
Image
10
36.195433
20
15.256518
11
36.169716
21
16.820387
0
LINE
8
Image
10
36.169716
20
16.820387
11
35.896412
21
18.188273
0
LINE
8
Image
10
35.896412
20
18.188273
11
35.385392
21
19.442306
0
LINE
8
Image
10
35.385392
20
19.442306
11
34.661045
21
20.561096
0
LINE
8
Image
10
34.661045
20
20.561096
11
33.747757
21
21.523257
0
LINE
8
Image
10
33.747757
20
21.523257
11
32.669915
21
22.307399
0
LINE
8
Image
10
32.669915
20
22.307399
11
31.451906
21
22.892133
0
LINE
8
Image
10
31.451906
20
22.892133
11
30.118117
21
23.256071
0
LINE
8
Image
10
30.118117
20
23.256071
11
28.692936
21
23.377825
0
LINE
8
Image
10
28.692936
20
23.377825
11
27.086097
21
23.232848
0
LINE
8
Image
10
27.086097
20
23.232848
11
25.620718
21
22.827207
0
LINE
8
Image
10
25.620718
20
22.827207
11
24.319710
21
22.182692
0
LINE
8
Image
10
24.319710
20
22.182692
11
23.205983
21
21.321089
0
LINE
8
Image
10
23.205983
20
21.321089
11
22.302447
21
20.264189
0
LINE
8
Image
10
22.302447
20
20.264189
11
21.632012
21
19.033780
0
LINE
8
Image
10
21.632012
20
19.033780
11
21.217589
21
17.651650
0
LINE
8
Image
10
21.217589
20
17.651650
11
21.082087
21
16.139588
0
LINE
8
Image
10
21.082087
20
16.139588
11
21.293187
21
14.315488
0
LINE
8
Image
10
21.293187
20
14.315488
11
21.895142
21
12.727614
0
LINE
8
Image
10
21.895142
20
12.727614
11
22.883927
21
11.383387
0
LINE
8
Image
10
22.883927
20
11.383387
11
24.255516
21
10.290227
0
LINE
8
Image
10
24.255516
20
10.290227
11
25.863738
21
9.487295
0
LINE
8
Image
10
25.863738
20
9.487295
11
27.479664
21
9.075634
0
LINE
8
Image
10
27.479664
20
9.075634
11
29.146684
21
9.049455
0
LINE
8
Image
10
29.146684
20
9.049455
11
30.908189
21
9.402971
0
LINE
8
Image
10
30.908189
20
9.402971
11
30.908189
21
9.402971
0
LINE
8
Image
10
28.290741
20
11.768645
11
27.502047
21
12.615091
0
LINE
8
Image
10
27.502047
20
12.615091
11
26.694295
21
14.112668
0
LINE
8
Image
10
26.694295
20
14.112668
11
26.040320
21
15.875824
0
LINE
8
Image
10
26.040320
20
15.875824
11
25.712960
21
17.519007
0
LINE
8
Image
10
25.712960
20
17.519007
11
25.674925
21
18.861950
0
LINE
8
Image
10
25.674925
20
18.861950
11
25.822605
21
19.777587
0
LINE
8
Image
10
25.822605
20
19.777587
11
26.198010
21
20.388518
0
LINE
8
Image
10
26.198010
20
20.388518
11
26.843149
21
20.817341
0
LINE
8
Image
10
26.843149
20
20.817341
11
27.728609
21
21.106618
0
LINE
8
Image
10
27.728609
20
21.106618
11
28.562857
21
20.907096
0
LINE
8
Image
10
28.562857
20
20.907096
11
29.157521
21
20.551941
0
LINE
8
Image
10
29.157521
20
20.551941
11
29.708772
21
20.010793
0
LINE
8
Image
10
29.708772
20
20.010793
11
30.636803
21
18.471037
0
LINE
8
Image
10
30.636803
20
18.471037
11
31.258490
21
16.488858
0
LINE
8
Image
10
31.258490
20
16.488858
11
31.485377
21
14.265290
0
LINE
8
Image
10
31.485377
20
14.265290
11
31.373243
21
12.673781
0
LINE
8
Image
10
31.373243
20
12.673781
11
31.163156
21
12.272448
0
LINE
8
Image
10
31.163156
20
12.272448
11
30.788238
21
11.925463
0
LINE
8
Image
10
30.788238
20
11.925463
11
30.193268
21
11.560017
0
LINE
8
Image
10
30.193268
20
11.560017
11
29.597899
21
11.413270
0
LINE
8
Image
10
29.597899
20
11.413270
11
28.973326
21
11.483416
0
LINE
8
Image
10
28.973326
20
11.483416
11
28.290741
21
11.768645
0
LINE
8
Image
10
28.290741
20
11.768645
11
28.290741
21
11.768645
0
LINE
8
Image
10
30.544335
20
12.758881
11
30.830802
21
13.367096
0
LINE
8
Image
10
30.830802
20
13.367096
11
30.933778
21
14.133352
0
LINE
8
Image
10
30.933778
20
14.133352
11
30.591012
21
16.271879
0
LINE
8
Image
10
30.591012
20
16.271879
11
29.944907
21
18.121443
0
LINE
8
Image
10
29.944907
20
18.121443
11
29.172245
21
19.436318
0
LINE
8
Image
10
29.172245
20
19.436318
11
28.311611
21
20.168153
0
LINE
8
Image
10
28.311611
20
20.168153
11
27.860362
21
20.300321
0
LINE
8
Image
10
27.860362
20
20.300321
11
27.401589
21
20.268596
0
LINE
8
Image
10
27.401589
20
20.268596
11
26.789529
21
19.907149
0
LINE
8
Image
10
26.789529
20
19.907149
11
26.411932
21
19.222425
0
LINE
8
Image
10
26.411932
20
19.222425
11
26.285568
21
18.268941
0
LINE
8
Image
10
26.285568
20
18.268941
11
26.427209
21
17.101212
0
LINE
8
Image
10
26.427209
20
17.101212
11
26.859454
21
15.675267
0
LINE
8
Image
10
26.859454
20
15.675267
11
27.479037
21
14.168503
0
LINE
8
Image
10
27.479037
20
14.168503
11
28.119752
21
12.941451
0
LINE
8
Image
10
28.119752
20
12.941451
11
28.615392
21
12.354644
0
LINE
8
Image
10
28.615392
20
12.354644
11
29.192309
21
12.207609
0
LINE
8
Image
10
29.192309
20
12.207609
11
29.727012
21
12.230351
0
LINE
8
Image
10
29.727012
20
12.230351
11
30.188140
21
12.416299
0
LINE
8
Image
10
30.188140
20
12.416299
11
30.544335
21
12.758881
0
LINE
8
Image
10
30.544335
20
12.758881
11
30.544335
21
12.758881
0
LINE
8
Image
10
42.816506
20
8.725718
11
41.815730
21
9.122150
0
LINE
8
Image
10
41.815730
20
9.122150
11
40.865712
21
9.672080
0
LINE
8
Image
10
40.865712
20
9.672080
11
40.045455
21
10.321962
0
LINE
8
Image
10
40.045455
20
10.321962
11
39.433964
21
11.018251
0
LINE
8
Image
10
39.433964
20
11.018251
11
38.937684
21
12.016506
0
LINE
8
Image
10
38.937684
20
12.016506
11
38.637320
21
13.332432
0
LINE
8
Image
10
38.637320
20
13.332432
11
38.518553
21
15.070365
0
LINE
8
Image
10
38.518553
20
15.070365
11
38.567063
21
17.334643
0
LINE
8
Image
10
38.567063
20
17.334643
11
38.585528
21
19.735535
0
LINE
8
Image
10
38.585528
20
19.735535
11
38.393167
21
20.291857
0
LINE
8
Image
10
38.393167
20
20.291857
11
38.002509
21
20.812415
0
LINE
8
Image
10
38.002509
20
20.812415
11
37.480536
21
21.638215
0
LINE
8
Image
10
37.480536
20
21.638215
11
37.301907
21
22.414813
0
LINE
8
Image
10
37.301907
20
22.414813
11
37.467355
21
23.063183
0
LINE
8
Image
10
37.467355
20
23.063183
11
37.977611
21
23.504301
0
LINE
8
Image
10
37.977611
20
23.504301
11
39.657939
21
23.902261
0
LINE
8
Image
10
39.657939
20
23.902261
11
41.893118
21
24.025597
0
LINE
8
Image
10
41.893118
20
24.025597
11
44.007084
21
23.878069
0
LINE
8
Image
10
44.007084
20
23.878069
11
44.807342
21
23.703907
0
LINE
8
Image
10
44.807342
20
23.703907
11
45.323774
21
23.463439
0
LINE
8
Image
10
45.323774
20
23.463439
11
45.780755
21
22.951199
0
LINE
8
Image
10
45.780755
20
22.951199
11
45.923735
21
22.396165
0
LINE
8
Image
10
45.923735
20
22.396165
11
45.753149
21
21.816184
0
LINE
8
Image
10
45.753149
20
21.816184
11
45.269432
21
21.229107
0
LINE
8
Image
10
45.269432
20
21.229107
11
44.805211
21
20.754382
0
LINE
8
Image
10
44.805211
20
20.754382
11
44.558486
21
20.182441
0
LINE
8
Image
10
44.558486
20
20.182441
11
44.392045
21
17.283110
0
LINE
8
Image
10
44.392045
20
17.283110
11
44.418254
21
14.463562
0
LINE
8
Image
10
44.418254
20
14.463562
11
44.576004
21
13.817158
0
LINE
8
Image
10
44.576004
20
13.817158
11
44.873756
21
13.321311
0
LINE
8
Image
10
44.873756
20
13.321311
11
45.354736
21
12.827338
0
LINE
8
Image
10
45.354736
20
12.827338
11
45.936016
21
12.473902
0
LINE
8
Image
10
45.936016
20
12.473902
11
47.254715
21
12.189007
0
LINE
8
Image
10
47.254715
20
12.189007
11
48.540329
21
12.467354
0
LINE
8
Image
10
48.540329
20
12.467354
11
49.080252
21
12.817970
0
LINE
8
Image
10
49.080252
20
12.817970
11
49.503331
21
13.309669
0
LINE
8
Image
10
49.503331
20
13.309669
11
49.781817
21
13.861047
0
LINE
8
Image
10
49.781817
20
13.861047
11
49.931198
21
14.560358
0
LINE
8
Image
10
49.931198
20
14.560358
11
49.953731
21
17.415407
0
LINE
8
Image
10
49.953731
20
17.415407
11
49.873906
21
20.675607
0
LINE
8
Image
10
49.873906
20
20.675607
11
48.975007
21
21.409171
0
LINE
8
Image
10
48.975007
20
21.409171
11
48.279518
21
22.135063
0
LINE
8
Image
10
48.279518
20
22.135063
11
48.250065
21
22.835837
0
LINE
8
Image
10
48.250065
20
22.835837
11
48.622477
21
23.447590
0
LINE
8
Image
10
48.622477
20
23.447590
11
49.545839
21
23.833500
0
LINE
8
Image
10
49.545839
20
23.833500
11
50.814297
21
23.999837
0
LINE
8
Image
10
50.814297
20
23.999837
11
52.380302
21
23.987203
0
LINE
8
Image
10
52.380302
20
23.987203
11
53.807413
21
23.821591
0
LINE
8
Image
10
53.807413
20
23.821591
11
54.659189
21
23.528992
0
LINE
8
Image
10
54.659189
20
23.528992
11
54.972539
21
23.044261
0
LINE
8
Image
10
54.972539
20
23.044261
11
55.025651
21
22.427220
0
LINE
8
Image
10
55.025651
20
22.427220
11
54.834149
21
21.816491
0
LINE
8
Image
10
54.834149
20
21.816491
11
54.413658
21
21.350696
0
LINE
8
Image
10
54.413658
20
21.350696
11
54.063055
21
21.033706
0
LINE
8
Image
10
54.063055
20
21.033706
11
53.858551
21
20.417621
0
LINE
8
Image
10
53.858551
20
20.417621
11
53.632133
21
16.798847
0
LINE
8
Image
10
53.632133
20
16.798847
11
53.361771
21
13.331404
0
LINE
8
Image
10
53.361771
20
13.331404
11
53.109333
21
12.097762
0
LINE
8
Image
10
53.109333
20
12.097762
11
52.744442
21
11.129484
0
LINE
8
Image
10
52.744442
20
11.129484
11
52.241388
21
10.375553
0
LINE
8
Image
10
52.241388
20
10.375553
11
51.574458
21
9.784953
0
LINE
8
Image
10
51.574458
20
9.784953
11
50.717942
21
9.306665
0
LINE
8
Image
10
50.717942
20
9.306665
11
49.646129
21
8.889675
0
LINE
8
Image
10
49.646129
20
8.889675
11
48.198625
21
8.618673
0
LINE
8
Image
10
48.198625
20
8.618673
11
46.215400
21
8.492310
0
LINE
8
Image
10
46.215400
20
8.492310
11
44.240136
21
8.523638
0
LINE
8
Image
10
44.240136
20
8.523638
11
42.816517
21
8.725710
0
LINE
8
Image
10
42.816517
20
8.725710
11
42.816506
21
8.725718
0
LINE
8
Image
10
48.915600
20
9.407655
11
50.173433
21
9.947791
0
LINE
8
Image
10
50.173433
20
9.947791
11
51.289825
21
10.735712
0
LINE
8
Image
10
51.289825
20
10.735712
11
52.151528
21
11.672669
0
LINE
8
Image
10
52.151528
20
11.672669
11
52.645297
21
12.659914
0
LINE
8
Image
10
52.645297
20
12.659914
11
52.835255
21
14.444224
0
LINE
8
Image
10
52.835255
20
14.444224
11
52.915124
21
17.377458
0
LINE
8
Image
10
52.915124
20
17.377458
11
52.943178
21
19.681605
0
LINE
8
Image
10
52.943178
20
19.681605
11
53.094687
21
20.991067
0
LINE
8
Image
10
53.094687
20
20.991067
11
53.474241
21
21.704101
0
LINE
8
Image
10
53.474241
20
21.704101
11
54.186429
21
22.218965
0
LINE
8
Image
10
54.186429
20
22.218965
11
54.489641
21
22.508509
0
LINE
8
Image
10
54.489641
20
22.508509
11
54.122800
21
22.886259
0
LINE
8
Image
10
54.122800
20
22.886259
11
53.265273
21
23.185681
0
LINE
8
Image
10
53.265273
20
23.185681
11
51.697047
21
23.283329
0
LINE
8
Image
10
51.697047
20
23.283329
11
49.941281
21
23.198729
0
LINE
8
Image
10
49.941281
20
23.198729
11
49.054458
21
22.927797
0
LINE
8
Image
10
49.054458
20
22.927797
11
48.926921
21
22.714424
0
LINE
8
Image
10
48.926921
20
22.714424
11
49.004647
21
22.444830
0
LINE
8
Image
10
49.004647
20
22.444830
11
49.759916
21
21.724128
0
LINE
8
Image
10
49.759916
20
21.724128
11
50.571977
21
21.123744
0
LINE
8
Image
10
50.571977
20
21.123744
11
50.487519
21
17.020634
0
LINE
8
Image
10
50.487519
20
17.020634
11
50.403061
21
12.917523
0
LINE
8
Image
10
50.403061
20
12.917523
11
49.674416
21
12.291392
0
LINE
8
Image
10
49.674416
20
12.291392
11
49.030825
21
11.856310
0
LINE
8
Image
10
49.030825
20
11.856310
11
48.316149
21
11.575967
0
LINE
8
Image
10
48.316149
20
11.575967
11
46.796746
21
11.464794
0
LINE
8
Image
10
46.796746
20
11.464794
11
46.053618
21
11.626612
0
LINE
8
Image
10
46.053618
20
11.626612
11
45.362607
21
11.928465
0
LINE
8
Image
10
45.362607
20
11.928465
11
44.754511
21
12.366677
0
LINE
8
Image
10
44.754511
20
12.366677
11
44.260132
21
12.937573
0
LINE
8
Image
10
44.260132
20
12.937573
11
43.933105
21
13.519770
0
LINE
8
Image
10
43.933105
20
13.519770
11
43.751353
21
14.234848
0
LINE
8
Image
10
43.751353
20
14.234848
11
43.656195
21
17.263185
0
LINE
8
Image
10
43.656195
20
17.263185
11
43.656195
21
20.689775
0
LINE
8
Image
10
43.656195
20
20.689775
11
44.449944
21
21.431248
0
LINE
8
Image
10
44.449944
20
21.431248
11
45.001608
21
22.015925
0
LINE
8
Image
10
45.001608
20
22.015925
11
45.202242
21
22.442802
0
LINE
8
Image
10
45.202242
20
22.442802
11
45.055494
21
22.762413
0
LINE
8
Image
10
45.055494
20
22.762413
11
44.565011
21
23.025294
0
LINE
8
Image
10
44.565011
20
23.025294
11
43.336007
21
23.221329
0
LINE
8
Image
10
43.336007
20
23.221329
11
41.490329
21
23.275050
0
LINE
8
Image
10
41.490329
20
23.275050
11
39.668057
21
23.191638
0
LINE
8
Image
10
39.668057
20
23.191638
11
38.509275
21
22.976275
0
LINE
8
Image
10
38.509275
20
22.976275
11
38.031642
21
22.682144
0
LINE
8
Image
10
38.031642
20
22.682144
11
37.870540
21
22.357072
0
LINE
8
Image
10
37.870540
20
22.357072
11
38.025690
21
21.967710
0
LINE
8
Image
10
38.025690
20
21.967710
11
38.496813
21
21.480712
0
LINE
8
Image
10
38.496813
20
21.480712
11
38.872503
21
21.084838
0
LINE
8
Image
10
38.872503
20
21.084838
11
39.069792
21
20.494730
0
LINE
8
Image
10
39.069792
20
20.494730
11
39.159747
21
17.265815
0
LINE
8
Image
10
39.159747
20
17.265815
11
39.237310
21
14.419759
0
LINE
8
Image
10
39.237310
20
14.419759
11
39.421743
21
12.688272
0
LINE
8
Image
10
39.421743
20
12.688272
11
39.892914
21
11.674950
0
LINE
8
Image
10
39.892914
20
11.674950
11
40.673896
21
10.797574
0
LINE
8
Image
10
40.673896
20
10.797574
11
41.712006
21
10.074349
0
LINE
8
Image
10
41.712006
20
10.074349
11
42.954562
21
9.523480
0
LINE
8
Image
10
42.954562
20
9.523480
11
44.348880
21
9.163171
0
LINE
8
Image
10
44.348880
20
9.163171
11
45.842279
21
9.011628
0
LINE
8
Image
10
45.842279
20
9.011628
11
47.382075
21
9.087054
0
LINE
8
Image
10
47.382075
20
9.087054
11
48.915586
21
9.407655
0
LINE
8
Image
10
48.915586
20
9.407655
11
48.915600
21
9.407655
0
LINE
8
Image
10
35.645119
20
27.743227
11
30.168038
21
32.952517
0
LINE
8
Image
10
30.168038
20
32.952517
11
28.150909
21
35.174542
0
LINE
8
Image
10
28.150909
20
35.174542
11
26.571066
21
37.203462
0
LINE
8
Image
10
26.571066
20
37.203462
11
25.395767
21
39.085756
0
LINE
8
Image
10
25.395767
20
39.085756
11
24.592271
21
40.867903
0
LINE
8
Image
10
24.592271
20
40.867903
11
24.127837
21
42.596384
0
LINE
8
Image
10
24.127837
20
42.596384
11
23.969724
21
44.317678
0
LINE
8
Image
10
23.969724
20
44.317678
11
24.180959
21
46.486306
0
LINE
8
Image
10
24.180959
20
46.486306
11
24.476968
21
47.391911
0
LINE
8
Image
10
24.476968
20
47.391911
11
24.913444
21
48.198609
0
LINE
8
Image
10
24.913444
20
48.198609
11
25.500539
21
48.921574
0
LINE
8
Image
10
25.500539
20
48.921574
11
26.248408
21
49.575981
0
LINE
8
Image
10
26.248408
20
49.575981
11
28.267082
21
50.739815
0
LINE
8
Image
10
28.267082
20
50.739815
11
29.869560
21
51.264547
0
LINE
8
Image
10
29.869560
20
51.264547
11
32.243987
21
51.285814
0
LINE
8
Image
10
32.243987
20
51.285814
11
34.579934
21
51.071759
0
LINE
8
Image
10
34.579934
20
51.071759
11
35.322077
21
50.833879
0
LINE
8
Image
10
35.322077
20
50.833879
11
36.066372
21
50.445912
0
LINE
8
Image
10
36.066372
20
50.445912
11
37.243277
21
49.546445
0
LINE
8
Image
10
37.243277
20
49.546445
11
38.307168
21
48.418660
0
LINE
8
Image
10
38.307168
20
48.418660
11
39.458998
21
47.178188
0
LINE
8
Image
10
39.458998
20
47.178188
11
40.528488
21
48.415694
0
LINE
8
Image
10
40.528488
20
48.415694
11
41.804652
21
49.810468
0
LINE
8
Image
10
41.804652
20
49.810468
11
43.221834
21
50.706443
0
LINE
8
Image
10
43.221834
20
50.706443
11
44.967238
21
51.184981
0
LINE
8
Image
10
44.967238
20
51.184981
11
47.228065
21
51.327443
0
LINE
8
Image
10
47.228065
20
51.327443
11
49.249214
21
51.188941
0
LINE
8
Image
10
49.249214
20
51.188941
11
50.943605
21
50.572305
0
LINE
8
Image
10
50.943605
20
50.572305
11
52.801623
21
49.382369
0
LINE
8
Image
10
52.801623
20
49.382369
11
53.524367
21
48.657113
0
LINE
8
Image
10
53.524367
20
48.657113
11
54.105595
21
47.851634
0
LINE
8
Image
10
54.105595
20
47.851634
11
54.542304
21
46.970909
0
LINE
8
Image
10
54.542304
20
46.970909
11
54.831487
21
46.019915
0
LINE
8
Image
10
54.831487
20
46.019915
11
54.970141
21
45.003629
0
LINE
8
Image
10
54.970141
20
45.003629
11
54.955262
21
43.927028
0
LINE
8
Image
10
54.955262
20
43.927028
11
54.771579
21
42.629187
0
LINE
8
Image
10
54.771579
20
42.629187
11
54.433085
21
41.342794
0
LINE
8
Image
10
54.433085
20
41.342794
11
53.929217
21
40.049539
0
LINE
8
Image
10
53.929217
20
40.049539
11
53.249416
21
38.731115
0
LINE
8
Image
10
53.249416
20
38.731115
11
51.319771
21
35.945523
0
LINE
8
Image
10
51.319771
20
35.945523
11
48.559661
21
32.839551
0
LINE
8
Image
10
48.559661
20
32.839551
11
43.279347
21
27.795685
0
LINE
8
Image
10
43.279347
20
27.795685
11
40.919308
21
25.746614
0
LINE
8
Image
10
40.919308
20
25.746614
11
39.613864
21
24.793360
0
LINE
8
Image
10
39.613864
20
24.793360
11
39.213449
21
24.869518
0
LINE
8
Image
10
39.213449
20
24.869518
11
38.479515
21
25.341214
0
LINE
8
Image
10
38.479515
20
25.341214
11
35.645119
21
27.743227
0
LINE
8
Image
10
35.645119
20
27.743227
11
35.645119
21
27.743227
0
LINE
8
Image
10
42.149498
20
27.715094
11
45.057207
21
30.331415
0
LINE
8
Image
10
45.057207
20
30.331415
11
47.550937
21
32.768046
0
LINE
8
Image
10
47.550937
20
32.768046
11
49.639719
21
35.037291
0
LINE
8
Image
10
49.639719
20
35.037291
11
51.332583
21
37.151451
0
LINE
8
Image
10
51.332583
20
37.151451
11
52.638559
21
39.122830
0
LINE
8
Image
10
52.638559
20
39.122830
11
53.566678
21
40.963729
0
LINE
8
Image
10
53.566678
20
40.963729
11
54.125969
21
42.686452
0
LINE
8
Image
10
54.125969
20
42.686452
11
54.325462
21
44.303300
0
LINE
8
Image
10
54.325462
20
44.303300
11
54.116062
21
46.076809
0
LINE
8
Image
10
54.116062
20
46.076809
11
53.423819
21
47.610329
0
LINE
8
Image
10
53.423819
20
47.610329
11
52.234871
21
48.924847
0
LINE
8
Image
10
52.234871
20
48.924847
11
50.535353
21
50.041352
0
LINE
8
Image
10
50.535353
20
50.041352
11
49.121893
21
50.547364
0
LINE
8
Image
10
49.121893
20
50.547364
11
46.963483
21
50.663875
0
LINE
8
Image
10
46.963483
20
50.663875
11
44.846921
21
50.510873
0
LINE
8
Image
10
44.846921
20
50.510873
11
43.988595
21
50.283664
0
LINE
8
Image
10
43.988595
20
50.283664
11
43.207892
21
49.924023
0
LINE
8
Image
10
43.207892
20
49.924023
11
41.712315
21
48.711558
0
LINE
8
Image
10
41.712315
20
48.711558
11
40.026114
21
46.681712
0
LINE
8
Image
10
40.026114
20
46.681712
11
39.438737
21
45.905175
0
LINE
8
Image
10
39.438737
20
45.905175
11
38.835868
21
46.698924
0
LINE
8
Image
10
38.835868
20
46.698924
11
37.154072
21
48.708983
0
LINE
8
Image
10
37.154072
20
48.708983
11
35.649193
21
49.917431
0
LINE
8
Image
10
35.649193
20
49.917431
11
34.862478
21
50.278424
0
LINE
8
Image
10
34.862478
20
50.278424
11
33.999248
21
50.507863
0
LINE
8
Image
10
33.999248
20
50.507863
11
31.882252
21
50.663875
0
LINE
8
Image
10
31.882252
20
50.663875
11
29.723841
21
50.547364
0
LINE
8
Image
10
29.723841
20
50.547364
11
28.310381
21
50.041352
0
LINE
8
Image
10
28.310381
20
50.041352
11
26.623400
21
48.912278
0
LINE
8
Image
10
26.623400
20
48.912278
11
25.431326
21
47.558846
0
LINE
8
Image
10
25.431326
20
47.558846
11
24.733775
21
45.997256
0
LINE
8
Image
10
24.733775
20
45.997256
11
24.530365
21
44.243708
0
LINE
8
Image
10
24.530365
20
44.243708
11
24.820715
21
42.314402
0
LINE
8
Image
10
24.820715
20
42.314402
11
25.604440
21
40.225537
0
LINE
8
Image
10
25.604440
20
40.225537
11
26.881160
21
37.993314
0
LINE
8
Image
10
26.881160
20
37.993314
11
28.650492
21
35.633931
0
LINE
8
Image
10
28.650492
20
35.633931
11
30.965155
21
33.198143
0
LINE
8
Image
10
30.965155
20
33.198143
11
34.470291
21
29.782482
0
LINE
8
Image
10
34.470291
20
29.782482
11
37.750021
21
26.735570
0
LINE
8
Image
10
37.750021
20
26.735570
11
39.388469
21
25.406028
0
LINE
8
Image
10
39.388469
20
25.406028
11
42.149498
21
27.715094
0
LINE
8
Image
10
42.149498
20
27.715094
11
42.149498
21
27.715094
0
LINE
8
Image
10
7.408723
20
25.408692
11
6.318219
21
25.734933
0
LINE
8
Image
10
6.318219
20
25.734933
11
5.526604
21
26.194698
0
LINE
8
Image
10
5.526604
20
26.194698
11
5.025337
21
26.794991
0
LINE
8
Image
10
5.025337
20
26.794991
11
4.805875
21
27.542816
0
LINE
8
Image
10
4.805875
20
27.542816
11
4.797849
21
28.044263
0
LINE
8
Image
10
4.797849
20
28.044263
11
4.926199
21
28.451242
0
LINE
8
Image
10
4.926199
20
28.451242
11
5.815622
21
29.391077
0
LINE
8
Image
10
5.815622
20
29.391077
11
6.914280
21
30.339456
0
LINE
8
Image
10
6.914280
20
30.339456
11
7.186339
21
34.021280
0
LINE
8
Image
10
7.186339
20
34.021280
11
7.327724
21
37.302723
0
LINE
8
Image
10
7.327724
20
37.302723
11
7.312484
21
40.649356
0
LINE
8
Image
10
7.312484
20
40.649356
11
7.157274
21
43.459602
0
LINE
8
Image
10
7.157274
20
43.459602
11
6.878748
21
45.131884
0
LINE
8
Image
10
6.878748
20
45.131884
11
6.321298
21
46.007775
0
LINE
8
Image
10
6.321298
20
46.007775
11
5.383557
21
47.027741
0
LINE
8
Image
10
5.383557
20
47.027741
11
4.420538
21
48.080372
0
LINE
8
Image
10
4.420538
20
48.080372
11
4.300396
21
48.461689
0
LINE
8
Image
10
4.300396
20
48.461689
11
4.346418
21
48.879822
0
LINE
8
Image
10
4.346418
20
48.879822
11
4.607158
21
49.525129
0
LINE
8
Image
10
4.607158
20
49.525129
11
5.072510
21
50.068406
0
LINE
8
Image
10
5.072510
20
50.068406
11
5.759176
21
50.514582
0
LINE
8
Image
10
5.759176
20
50.514582
11
6.683862
21
50.868584
0
LINE
8
Image
10
6.683862
20
50.868584
11
9.314102
21
51.319781
0
LINE
8
Image
10
9.314102
20
51.319781
11
13.096858
21
51.461418
0
LINE
8
Image
10
13.096858
20
51.461418
11
16.328551
21
51.366925
0
LINE
8
Image
10
16.328551
20
51.366925
11
17.178996
21
51.206285
0
LINE
8
Image
10
17.178996
20
51.206285
11
17.859352
21
50.932252
0
LINE
8
Image
10
17.859352
20
50.932252
11
18.502041
21
50.532727
0
LINE
8
Image
10
18.502041
20
50.532727
11
18.985702
21
50.070044
0
LINE
8
Image
10
18.985702
20
50.070044
11
19.307275
21
49.566265
0
LINE
8
Image
10
19.307275
20
49.566265
11
19.463699
21
49.043457
0
LINE
8
Image
10
19.463699
20
49.043457
11
19.451913
21
48.523684
0
LINE
8
Image
10
19.451913
20
48.523684
11
19.268855
21
48.029009
0
LINE
8
Image
10
19.268855
20
48.029009
11
18.911465
21
47.581497
0
LINE
8
Image
10
18.911465
20
47.581497
11
18.376682
21
47.203213
0
LINE
8
Image
10
18.376682
20
47.203213
11
17.504394
21
46.537900
0
LINE
8
Image
10
17.504394
20
46.537900
11
17.225955
21
46.024261
0
LINE
8
Image
10
17.225955
20
46.024261
11
17.032326
21
45.273023
0
LINE
8
Image
10
17.032326
20
45.273023
11
16.838521
21
42.706922
0
LINE
8
Image
10
16.838521
20
42.706922
11
16.801020
21
38.137937
0
LINE
8
Image
10
16.801020
20
38.137937
11
16.801020
21
31.164447
0
LINE
8
Image
10
16.801020
20
31.164447
11
18.101887
21
30.036117
0
LINE
8
Image
10
18.101887
20
30.036117
11
19.145901
21
28.964211
0
LINE
8
Image
10
19.145901
20
28.964211
11
19.347086
21
28.531946
0
LINE
8
Image
10
19.347086
20
28.531946
11
19.402753
21
28.065230
0
LINE
8
Image
10
19.402753
20
28.065230
11
19.304305
21
27.414660
0
LINE
8
Image
10
19.304305
20
27.414660
11
18.999466
21
26.860611
0
LINE
8
Image
10
18.999466
20
26.860611
11
18.473991
21
26.397655
0
LINE
8
Image
10
18.473991
20
26.397655
11
17.713635
21
26.020365
0
LINE
8
Image
10
17.713635
20
26.020365
11
15.431307
21
25.501073
0
LINE
8
Image
10
15.431307
20
25.501073
11
12.038527
21
25.259317
0
LINE
8
Image
10
12.038527
20
25.259317
11
9.259695
21
25.261390
0
LINE
8
Image
10
9.259695
20
25.261390
11
7.408723
21
25.408692
0
LINE
8
Image
10
7.408723
20
25.408692
11
7.408723
21
25.408692
0
LINE
8
Image
10
16.215035
20
26.297599
11
17.845686
21
26.864616
0
LINE
8
Image
10
17.845686
20
26.864616
11
18.354834
21
27.206920
0
LINE
8
Image
10
18.354834
20
27.206920
11
18.656469
21
27.581711
0
LINE
8
Image
10
18.656469
20
27.581711
11
18.748044
21
27.983957
0
LINE
8
Image
10
18.748044
20
27.983957
11
18.627012
21
28.408627
0
LINE
8
Image
10
18.627012
20
28.408627
11
17.736944
21
29.305106
0
LINE
8
Image
10
17.736944
20
29.305106
11
16.807900
21
30.143371
0
LINE
8
Image
10
16.807900
20
30.143371
11
16.510535
21
30.711387
0
LINE
8
Image
10
16.510535
20
30.711387
11
16.302881
21
31.498278
0
LINE
8
Image
10
16.302881
20
31.498278
11
16.091527
21
34.087548
0
LINE
8
Image
10
16.091527
20
34.087548
11
16.043480
21
38.628907
0
LINE
8
Image
10
16.043480
20
38.628907
11
16.079553
21
43.158268
0
LINE
8
Image
10
16.079553
20
43.158268
11
16.298426
21
45.724933
0
LINE
8
Image
10
16.298426
20
45.724933
11
16.519075
21
46.490230
0
LINE
8
Image
10
16.519075
20
46.490230
11
16.836618
21
47.026424
0
LINE
8
Image
10
16.836618
20
47.026424
11
17.830644
21
47.760260
0
LINE
8
Image
10
17.830644
20
47.760260
11
18.504038
21
48.278442
0
LINE
8
Image
10
18.504038
20
48.278442
11
18.741600
21
48.858251
0
LINE
8
Image
10
18.741600
20
48.858251
11
18.542601
21
49.477083
0
LINE
8
Image
10
18.542601
20
49.477083
11
17.906314
21
50.112337
0
LINE
8
Image
10
17.906314
20
50.112337
11
17.401525
21
50.405035
0
LINE
8
Image
10
17.401525
20
50.405035
11
16.704144
21
50.586779
0
LINE
8
Image
10
16.704144
20
50.586779
11
13.819954
21
50.762439
0
LINE
8
Image
10
13.819954
20
50.762439
11
11.404296
21
50.755461
0
LINE
8
Image
10
11.404296
20
50.755461
11
9.311017
21
50.600863
0
LINE
8
Image
10
9.311017
20
50.600863
11
7.583489
21
50.316287
0
LINE
8
Image
10
7.583489
20
50.316287
11
6.265087
21
49.919377
0
LINE
8
Image
10
6.265087
20
49.919377
11
5.399185
21
49.427775
0
LINE
8
Image
10
5.399185
20
49.427775
11
5.029155
21
48.859124
0
LINE
8
Image
10
5.029155
20
48.859124
11
5.198373
21
48.231069
0
LINE
8
Image
10
5.198373
20
48.231069
11
5.950211
21
47.561252
0
LINE
8
Image
10
5.950211
20
47.561252
11
6.950256
21
46.726833
0
LINE
8
Image
10
6.950256
20
46.726833
11
7.278710
21
46.189157
0
LINE
8
Image
10
7.278710
20
46.189157
11
7.515688
21
45.475092
0
LINE
8
Image
10
7.515688
20
45.475092
11
7.783927
21
43.229557
0
LINE
8
Image
10
7.783927
20
43.229557
11
7.892389
21
39.413754
0
LINE
8
Image
10
7.892389
20
39.413754
11
7.875231
21
34.815345
0
LINE
8
Image
10
7.875231
20
34.815345
11
7.709816
21
31.760579
0
LINE
8
Image
10
7.709816
20
31.760579
11
7.311787
21
29.948681
0
LINE
8
Image
10
7.311787
20
29.948681
11
6.945383
21
29.398054
0
LINE
8
Image
10
6.945383
20
29.398054
11
6.332530
21
28.793820
0
LINE
8
Image
10
6.332530
20
28.793820
11
5.447588
21
27.846650
0
LINE
8
Image
10
5.447588
20
27.846650
11
5.425745
21
27.547466
0
LINE
8
Image
10
5.425745
20
27.547466
11
5.611053
21
27.202999
0
LINE
8
Image
10
5.611053
20
27.202999
11
6.148576
21
26.697622
0
LINE
8
Image
10
6.148576
20
26.697622
11
6.900535
21
26.296424
0
LINE
8
Image
10
6.900535
20
26.296424
11
8.613663
21
26.041735
0
LINE
8
Image
10
8.613663
20
26.041735
11
11.305161
21
25.957094
0
LINE
8
Image
10
11.305161
20
25.957094
11
14.122970
21
26.042382
0
LINE
8
Image
10
14.122970
20
26.042382
11
16.215035
21
26.297482
0
LINE
8
Image
10
16.215035
20
26.297482
11
16.215035
21
26.297599
 0 
ENDSEC
 0 
EOF