999
"DXF R12 Output" (www.mydxf.blogspot.com)
 0 
SECTION
 2 
HEADER
 9 
$ACADVER
 1 
AC1009
 9 
$EXTMIN
 10 
 0 
 20 
 0 
 9 
$EXTMAX
 10 
 8.5 
 20 
 11 
 0 
ENDSEC
 0 
SECTION
 2 
ENTITIES
0
LINE
8
Image
10
26.373489
20
32.514707
11
25.669558
21
33.389760
0
LINE
8
Image
10
25.669558
20
33.389760
11
25.265042
21
34.335152
0
LINE
8
Image
10
25.265042
20
34.335152
11
25.169632
21
35.382465
0
LINE
8
Image
10
25.169632
20
35.382465
11
25.393018
21
36.563281
0
LINE
8
Image
10
25.393018
20
36.563281
11
25.944889
21
37.909179
0
LINE
8
Image
10
25.944889
20
37.909179
11
26.834936
21
39.451742
0
LINE
8
Image
10
26.834936
20
39.451742
11
29.668314
21
43.253187
0
LINE
8
Image
10
29.668314
20
43.253187
11
30.117016
21
43.663453
0
LINE
8
Image
10
30.117016
20
43.663453
11
30.279668
21
43.500117
0
LINE
8
Image
10
30.279668
20
43.500117
11
30.153078
21
42.836360
0
LINE
8
Image
10
30.153078
20
42.836360
11
29.734054
21
41.745365
0
LINE
8
Image
10
29.734054
20
41.745365
11
29.354390
21
40.695718
0
LINE
8
Image
10
29.354390
20
40.695718
11
29.187290
21
39.757298
0
LINE
8
Image
10
29.187290
20
39.757298
11
29.227826
21
38.939043
0
LINE
8
Image
10
29.227826
20
38.939043
11
29.471066
21
38.249889
0
LINE
8
Image
10
29.471066
20
38.249889
11
29.912080
21
37.698774
0
LINE
8
Image
10
29.912080
20
37.698774
11
30.545938
21
37.294634
0
LINE
8
Image
10
30.545938
20
37.294634
11
31.367709
21
37.046406
0
LINE
8
Image
10
31.367709
20
37.046406
11
32.372463
21
36.963027
0
LINE
8
Image
10
32.372463
20
36.963027
11
33.759478
21
37.046970
0
LINE
8
Image
10
33.759478
20
37.046970
11
36.038847
21
37.505139
0
LINE
8
Image
10
36.038847
20
37.505139
11
48.633739
21
40.812922
0
LINE
8
Image
10
48.633739
20
40.812922
11
57.894144
21
43.297920
0
LINE
8
Image
10
57.894144
20
43.297920
11
58.996665
21
43.493716
0
LINE
8
Image
10
58.996665
20
43.493716
11
59.033985
21
43.385415
0
LINE
8
Image
10
59.033985
20
43.385415
11
58.744064
21
43.149800
0
LINE
8
Image
10
58.744064
20
43.149800
11
54.542759
21
41.086495
0
LINE
8
Image
10
54.542759
20
41.086495
11
44.340001
21
36.706168
0
LINE
8
Image
10
44.340001
20
36.706168
11
34.705503
21
32.728951
0
LINE
8
Image
10
34.705503
20
32.728951
11
31.657807
21
31.663515
0
LINE
8
Image
10
31.657807
20
31.663515
11
29.415357
21
31.276831
0
LINE
8
Image
10
29.415357
20
31.276831
11
28.520107
21
31.336067
0
LINE
8
Image
10
28.520107
20
31.336067
11
27.734977
21
31.562646
0
LINE
8
Image
10
27.734977
20
31.562646
11
27.029570
21
31.955787
0
LINE
8
Image
10
27.029570
20
31.955787
11
26.373489
21
32.514707
0
LINE
8
Image
10
26.373489
20
32.514707
11
26.373489
21
32.514707
0
LINE
8
Image
10
35.757366
20
33.694843
11
50.618356
21
39.907927
0
LINE
8
Image
10
50.618356
20
39.907927
11
54.856039
21
41.820621
0
LINE
8
Image
10
54.856039
20
41.820621
11
55.526514
21
42.195159
0
LINE
8
Image
10
55.526514
20
42.195159
11
54.983731
21
42.073882
0
LINE
8
Image
10
54.983731
20
42.073882
11
49.515682
21
40.596136
0
LINE
8
Image
10
49.515682
20
40.596136
11
40.696249
21
38.193658
0
LINE
8
Image
10
40.696249
20
38.193658
11
35.628014
21
36.857949
0
LINE
8
Image
10
35.628014
20
36.857949
11
32.414433
21
36.356040
0
LINE
8
Image
10
32.414433
20
36.356040
11
31.332886
21
36.411430
0
LINE
8
Image
10
31.332886
20
36.411430
11
30.510702
21
36.667674
0
LINE
8
Image
10
30.510702
20
36.667674
11
29.879780
21
37.122239
0
LINE
8
Image
10
29.879780
20
37.122239
11
29.372020
21
37.772593
0
LINE
8
Image
10
29.372020
20
37.772593
11
28.864802
21
38.964706
0
LINE
8
Image
10
28.864802
20
38.964706
11
28.834351
21
40.311087
0
LINE
8
Image
10
28.834351
20
40.311087
11
29.003938
21
41.722196
0
LINE
8
Image
10
29.003938
20
41.722196
11
28.294638
21
40.853458
0
LINE
8
Image
10
28.294638
20
40.853458
11
26.747807
21
38.560322
0
LINE
8
Image
10
26.747807
20
38.560322
11
25.891771
21
36.391771
0
LINE
8
Image
10
25.891771
20
36.391771
11
25.735042
21
35.404706
0
LINE
8
Image
10
25.735042
20
35.404706
11
25.765701
21
34.509375
0
LINE
8
Image
10
25.765701
20
34.509375
11
25.988644
21
33.725974
0
LINE
8
Image
10
25.988644
20
33.725974
11
26.408767
21
33.074700
0
LINE
8
Image
10
26.408767
20
33.074700
11
27.053368
21
32.463880
0
LINE
8
Image
10
27.053368
20
32.463880
11
27.751218
21
32.043330
0
LINE
8
Image
10
27.751218
20
32.043330
11
28.550548
21
31.816248
0
LINE
8
Image
10
28.550548
20
31.816248
11
29.499584
21
31.785834
0
LINE
8
Image
10
29.499584
20
31.785834
11
32.039691
21
32.327807
0
LINE
8
Image
10
32.039691
20
32.327807
11
35.757366
21
33.694843
0
LINE
8
Image
10
35.757366
20
33.694843
11
35.757366
21
33.694843
0
LINE
8
Image
10
6.100613
20
46.181864
11
5.644406
21
49.598128
0
LINE
8
Image
10
5.644406
20
49.598128
11
5.376233
21
52.396669
0
LINE
8
Image
10
5.376233
20
52.396669
11
5.489509
21
52.929438
0
LINE
8
Image
10
5.489509
20
52.929438
11
5.779217
21
53.191702
0
LINE
8
Image
10
5.779217
20
53.191702
11
6.117411
21
53.614766
0
LINE
8
Image
10
6.117411
20
53.614766
11
6.170015
21
54.842112
0
LINE
8
Image
10
6.170015
20
54.842112
11
5.265896
21
62.465934
0
LINE
8
Image
10
5.265896
20
62.465934
11
4.712962
21
66.963845
0
LINE
8
Image
10
4.712962
20
66.963845
11
4.525525
21
67.200232
0
LINE
8
Image
10
4.525525
20
67.200232
11
4.074881
21
67.298553
0
LINE
8
Image
10
4.074881
20
67.298553
11
3.731971
21
67.420991
0
LINE
8
Image
10
3.731971
20
67.420991
11
3.471092
21
67.891803
0
LINE
8
Image
10
3.471092
20
67.891803
11
2.983749
21
70.499547
0
LINE
8
Image
10
2.983749
20
70.499547
11
2.720659
21
72.817123
0
LINE
8
Image
10
2.720659
20
72.817123
11
2.724323
21
73.894163
0
LINE
8
Image
10
2.724323
20
73.894163
11
5.944089
21
74.716883
0
LINE
8
Image
10
5.944089
20
74.716883
11
9.651844
21
75.398193
0
LINE
8
Image
10
9.651844
20
75.398193
11
10.106301
21
75.042399
0
LINE
8
Image
10
10.106301
20
75.042399
11
10.952507
21
74.063626
0
LINE
8
Image
10
10.952507
20
74.063626
11
13.336547
21
70.835933
0
LINE
8
Image
10
13.336547
20
70.835933
11
16.592598
21
66.360614
0
LINE
8
Image
10
16.592598
20
66.360614
11
16.631783
21
66.989092
0
LINE
8
Image
10
16.631783
20
66.989092
11
16.397541
21
68.072721
0
LINE
8
Image
10
16.397541
20
68.072721
11
16.038725
21
69.085350
0
LINE
8
Image
10
16.038725
20
69.085350
11
15.704192
21
69.500828
0
LINE
8
Image
10
15.704192
20
69.500828
11
15.285159
21
69.673513
0
LINE
8
Image
10
15.285159
20
69.673513
11
14.937287
21
70.410671
0
LINE
8
Image
10
14.937287
20
70.410671
11
14.650155
21
71.746323
0
LINE
8
Image
10
14.650155
20
71.746323
11
14.413339
21
73.714490
0
LINE
8
Image
10
14.413339
20
73.714490
11
14.252790
21
75.455914
0
LINE
8
Image
10
14.252790
20
75.455914
11
14.315396
21
75.981721
0
LINE
8
Image
10
14.315396
20
75.981721
11
14.562419
21
76.356085
0
LINE
8
Image
10
14.562419
20
76.356085
11
15.060731
21
76.637880
0
LINE
8
Image
10
15.060731
20
76.637880
11
15.877205
21
76.885976
0
LINE
8
Image
10
15.877205
20
76.885976
11
18.732125
21
77.516555
0
LINE
8
Image
10
18.732125
20
77.516555
11
22.507737
21
78.192530
0
LINE
8
Image
10
22.507737
20
78.192530
11
23.230775
21
78.078753
0
LINE
8
Image
10
23.230775
20
78.078753
11
23.549005
21
77.676112
0
LINE
8
Image
10
23.549005
20
77.676112
11
23.987260
21
74.204400
0
LINE
8
Image
10
23.987260
20
74.204400
11
24.068887
21
71.765831
0
LINE
8
Image
10
24.068887
20
71.765831
11
23.923904
21
71.285718
0
LINE
8
Image
10
23.923904
20
71.285718
11
23.628687
21
71.067702
0
LINE
8
Image
10
23.628687
20
71.067702
11
23.356510
21
70.896663
0
LINE
8
Image
10
23.356510
20
70.896663
11
23.208494
21
70.611762
0
LINE
8
Image
10
23.208494
20
70.611762
11
23.237671
21
69.512338
0
LINE
8
Image
10
23.237671
20
69.512338
11
24.821269
21
57.768718
0
LINE
8
Image
10
24.821269
20
57.768718
11
25.016585
21
57.522992
0
LINE
8
Image
10
25.016585
20
57.522992
11
25.486175
21
57.420789
0
LINE
8
Image
10
25.486175
20
57.420789
11
25.830383
21
57.338712
0
LINE
8
Image
10
25.830383
20
57.338712
11
26.068128
21
57.032878
0
LINE
8
Image
10
26.068128
20
57.032878
11
26.382201
21
55.392318
0
LINE
8
Image
10
26.382201
20
55.392318
11
26.812256
21
51.887403
0
LINE
8
Image
10
26.812256
20
51.887403
11
27.011189
21
50.410956
0
LINE
8
Image
10
27.011189
20
50.410956
11
25.651646
21
50.176885
0
LINE
8
Image
10
25.651646
20
50.176885
11
22.300906
21
49.448474
0
LINE
8
Image
10
22.300906
20
49.448474
11
19.655076
21
48.954712
0
LINE
8
Image
10
19.655076
20
48.954712
11
19.193628
21
49.211771
0
LINE
8
Image
10
19.193628
20
49.211771
11
18.467256
21
49.990499
0
LINE
8
Image
10
18.467256
20
49.990499
11
16.180224
21
53.160643
0
LINE
8
Image
10
16.180224
20
53.160643
11
13.236241
21
57.242227
0
LINE
8
Image
10
13.236241
20
57.242227
11
13.176533
21
56.755532
0
LINE
8
Image
10
13.176533
20
56.755532
11
13.373739
21
55.982346
0
LINE
8
Image
10
13.373739
20
55.982346
11
13.705718
21
55.266381
0
LINE
8
Image
10
13.705718
20
55.266381
11
14.050330
21
54.951346
0
LINE
8
Image
10
14.050330
20
54.951346
11
14.384512
21
54.733467
0
LINE
8
Image
10
14.384512
20
54.733467
11
14.657074
21
53.988160
0
LINE
8
Image
10
14.657074
20
53.988160
11
15.149113
21
50.365241
0
LINE
8
Image
10
15.149113
20
50.365241
11
15.374363
21
48.072188
0
LINE
8
Image
10
15.374363
20
48.072188
11
11.542966
21
47.252726
0
LINE
8
Image
10
11.542966
20
47.252726
11
6.917820
21
46.244345
0
LINE
8
Image
10
6.917820
20
46.244345
11
6.100613
21
46.181864
0
LINE
8
Image
10
6.100613
20
46.181864
11
6.100613
21
46.181864
0
LINE
8
Image
10
10.644329
20
47.545495
11
14.305384
21
48.248577
0
LINE
8
Image
10
14.305384
20
48.248577
11
14.683773
21
48.291095
0
LINE
8
Image
10
14.683773
20
48.291095
11
14.875991
21
48.472202
0
LINE
8
Image
10
14.875991
20
48.472202
11
14.829122
21
49.571492
0
LINE
8
Image
10
14.829122
20
49.571492
11
14.385808
21
52.746488
0
LINE
8
Image
10
14.385808
20
52.746488
11
14.063436
21
54.231026
0
LINE
8
Image
10
14.063436
20
54.231026
11
13.824332
21
54.518618
0
LINE
8
Image
10
13.824332
20
54.518618
11
13.486946
21
54.598569
0
LINE
8
Image
10
13.486946
20
54.598569
11
13.176289
21
54.650763
0
LINE
8
Image
10
13.176289
20
54.650763
11
12.972435
21
54.822272
0
LINE
8
Image
10
12.972435
20
54.822272
11
12.826840
21
55.612803
0
LINE
8
Image
10
12.826840
20
55.612803
11
12.606354
21
57.729467
0
LINE
8
Image
10
12.606354
20
57.729467
11
12.541311
21
58.504121
0
LINE
8
Image
10
12.541311
20
58.504121
11
12.694548
21
58.818493
0
LINE
8
Image
10
12.694548
20
58.818493
11
13.845209
21
57.410556
0
LINE
8
Image
10
13.845209
20
57.410556
11
16.178225
21
54.044352
0
LINE
8
Image
10
16.178225
20
54.044352
11
18.873250
21
50.238141
0
LINE
8
Image
10
18.873250
20
50.238141
11
19.567962
21
49.567324
0
LINE
8
Image
10
19.567962
20
49.567324
11
20.046426
21
49.458457
0
LINE
8
Image
10
20.046426
20
49.458457
11
23.486005
21
50.226690
0
LINE
8
Image
10
23.486005
20
50.226690
11
25.257173
21
50.653410
0
LINE
8
Image
10
25.257173
20
50.653410
11
25.775908
21
50.899938
0
LINE
8
Image
10
25.775908
20
50.899938
11
26.093500
21
51.248542
0
LINE
8
Image
10
26.093500
20
51.248542
11
26.242517
21
51.759194
0
LINE
8
Image
10
26.242517
20
51.759194
11
26.255525
21
52.491864
0
LINE
8
Image
10
26.255525
20
52.491864
11
26.003785
21
54.863152
0
LINE
8
Image
10
26.003785
20
54.863152
11
25.698179
21
56.335875
0
LINE
8
Image
10
25.698179
20
56.335875
11
25.469926
21
56.630852
0
LINE
8
Image
10
25.469926
20
56.630852
11
25.152938
21
56.715233
0
LINE
8
Image
10
25.152938
20
56.715233
11
24.695458
21
56.856747
0
LINE
8
Image
10
24.695458
20
56.856747
11
24.353061
21
57.766084
0
LINE
8
Image
10
24.353061
20
57.766084
11
23.372821
21
64.797003
0
LINE
8
Image
10
23.372821
20
64.797003
11
22.809067
21
70.073863
0
LINE
8
Image
10
22.809067
20
70.073863
11
22.888465
21
70.975603
0
LINE
8
Image
10
22.888465
20
70.975603
11
23.190755
21
71.367662
0
LINE
8
Image
10
23.190755
20
71.367662
11
23.471896
21
71.662534
0
LINE
8
Image
10
23.471896
20
71.662534
11
23.620960
21
72.090322
0
LINE
8
Image
10
23.620960
20
72.090322
11
23.581345
21
73.692826
0
LINE
8
Image
10
23.581345
20
73.692826
11
23.212309
21
76.665106
0
LINE
8
Image
10
23.212309
20
76.665106
11
22.936686
21
77.881873
0
LINE
8
Image
10
22.936686
20
77.881873
11
15.355818
21
76.277233
0
LINE
8
Image
10
15.355818
20
76.277233
11
14.926557
21
76.136514
0
LINE
8
Image
10
14.926557
20
76.136514
11
14.704639
21
75.901453
0
LINE
8
Image
10
14.704639
20
75.901453
11
14.729016
21
74.781159
0
LINE
8
Image
10
14.729016
20
74.781159
11
15.150507
21
71.796464
0
LINE
8
Image
10
15.150507
20
71.796464
11
15.462668
21
70.472072
0
LINE
8
Image
10
15.462668
20
70.472072
11
15.695303
21
70.200145
0
LINE
8
Image
10
15.695303
20
70.200145
11
16.013813
21
70.120773
0
LINE
8
Image
10
16.013813
20
70.120773
11
16.344109
21
70.028336
0
LINE
8
Image
10
16.344109
20
70.028336
11
16.575414
21
69.685400
0
LINE
8
Image
10
16.575414
20
69.685400
11
16.893953
21
67.854283
0
LINE
8
Image
10
16.893953
20
67.854283
11
17.010226
21
65.242817
0
LINE
8
Image
10
17.010226
20
65.242817
11
16.682766
21
65.510348
0
LINE
8
Image
10
16.682766
20
65.510348
11
15.884640
21
66.493792
0
LINE
8
Image
10
15.884640
20
66.493792
11
13.356006
21
69.985891
0
LINE
8
Image
10
13.356006
20
69.985891
11
10.240609
21
74.247153
0
LINE
8
Image
10
10.240609
20
74.247153
11
9.521490
21
74.836627
0
LINE
8
Image
10
9.521490
20
74.836627
11
8.946289
21
74.857258
0
LINE
8
Image
10
8.946289
20
74.857258
11
5.602868
21
74.123125
0
LINE
8
Image
10
5.602868
20
74.123125
11
3.075846
21
73.538918
0
LINE
8
Image
10
3.075846
20
73.538918
11
3.317102
21
71.884660
0
LINE
8
Image
10
3.317102
20
71.884660
11
3.639266
21
68.974247
0
LINE
8
Image
10
3.639266
20
68.974247
11
3.786808
21
67.910689
0
LINE
8
Image
10
3.786808
20
67.910689
11
4.000010
21
67.707250
0
LINE
8
Image
10
4.000010
20
67.707250
11
4.344199
21
67.651332
0
LINE
8
Image
10
4.344199
20
67.651332
11
4.805539
21
67.549531
0
LINE
8
Image
10
4.805539
20
67.549531
11
5.124009
21
66.850697
0
LINE
8
Image
10
5.124009
20
66.850697
11
5.917034
21
61.301340
0
LINE
8
Image
10
5.917034
20
61.301340
11
6.729950
21
54.159402
0
LINE
8
Image
10
6.729950
20
54.159402
11
6.649192
21
53.218009
0
LINE
8
Image
10
6.649192
20
53.218009
11
6.291714
21
52.958901
0
LINE
8
Image
10
6.291714
20
52.958901
11
6.000494
21
52.767466
0
LINE
8
Image
10
6.000494
20
52.767466
11
5.854337
21
52.406588
0
LINE
8
Image
10
5.854337
20
52.406588
11
5.927622
21
50.755313
0
LINE
8
Image
10
5.927622
20
50.755313
11
6.247378
21
48.209582
0
LINE
8
Image
10
6.247378
20
48.209582
11
6.458347
21
47.483982
0
LINE
8
Image
10
6.458347
20
47.483982
11
6.790717
21
47.063786
0
LINE
8
Image
10
6.790717
20
47.063786
11
7.309995
21
46.904418
0
LINE
8
Image
10
7.309995
20
46.904418
11
8.081685
21
46.961299
0
LINE
8
Image
10
8.081685
20
46.961299
11
10.644329
21
47.545495
0
LINE
8
Image
10
10.644329
20
47.545495
11
10.644329
21
47.545495
0
LINE
8
Image
10
72.798986
20
47.051680
11
65.214272
21
48.828813
0
LINE
8
Image
10
65.214272
20
48.828813
11
60.859951
21
49.861465
0
LINE
8
Image
10
60.859951
20
49.861465
11
61.199455
21
53.214083
0
LINE
8
Image
10
61.199455
20
53.214083
11
61.687982
21
55.811183
0
LINE
8
Image
10
61.687982
20
55.811183
11
61.945773
21
56.391410
0
LINE
8
Image
10
61.945773
20
56.391410
11
62.252739
21
56.622711
0
LINE
8
Image
10
62.252739
20
56.622711
11
62.662924
21
56.840562
0
LINE
8
Image
10
62.662924
20
56.840562
11
62.981715
21
57.716826
0
LINE
8
Image
10
62.981715
20
57.716826
11
64.011412
21
64.385703
0
LINE
8
Image
10
64.011412
20
64.385703
11
64.619961
21
69.353443
0
LINE
8
Image
10
64.619961
20
69.353443
11
64.534674
21
70.184485
0
LINE
8
Image
10
64.534674
20
70.184485
11
64.210725
21
70.566254
0
LINE
8
Image
10
64.210725
20
70.566254
11
63.883845
21
70.891115
0
LINE
8
Image
10
63.883845
20
70.891115
11
63.767010
21
71.414771
0
LINE
8
Image
10
63.767010
20
71.414771
11
64.142627
21
74.157920
0
LINE
8
Image
10
64.142627
20
74.157920
11
64.847452
21
77.456257
0
LINE
8
Image
10
64.847452
20
77.456257
11
65.184524
21
77.490493
0
LINE
8
Image
10
65.184524
20
77.490493
11
66.409580
21
77.263332
0
LINE
8
Image
10
66.409580
20
77.263332
11
74.210094
21
75.449025
0
LINE
8
Image
10
74.210094
20
75.449025
11
79.942727
21
74.163948
0
LINE
8
Image
10
79.942727
20
74.163948
11
80.994453
21
73.818172
0
LINE
8
Image
10
80.994453
20
73.818172
11
81.201979
21
73.548496
0
LINE
8
Image
10
81.201979
20
73.548496
11
81.258022
21
73.168314
0
LINE
8
Image
10
81.258022
20
73.168314
11
80.765435
21
69.217219
0
LINE
8
Image
10
80.765435
20
69.217219
11
80.116018
21
66.031338
0
LINE
8
Image
10
80.116018
20
66.031338
11
78.224308
21
66.174599
0
LINE
8
Image
10
78.224308
20
66.174599
11
75.218322
21
66.805368
0
LINE
8
Image
10
75.218322
20
66.805368
11
74.759274
21
67.111996
0
LINE
8
Image
10
74.759274
20
67.111996
11
74.469050
21
67.619225
0
LINE
8
Image
10
74.469050
20
67.619225
11
74.029896
21
68.144713
0
LINE
8
Image
10
74.029896
20
68.144713
11
73.041802
21
68.416086
0
LINE
8
Image
10
73.041802
20
68.416086
11
71.987873
21
68.397125
0
LINE
8
Image
10
71.987873
20
68.397125
11
71.739340
21
68.199437
0
LINE
8
Image
10
71.739340
20
68.199437
11
71.591032
21
67.842515
0
LINE
8
Image
10
71.591032
20
67.842515
11
71.444612
21
67.033164
0
LINE
8
Image
10
71.444612
20
67.033164
11
71.659309
21
66.534071
0
LINE
8
Image
10
71.659309
20
66.534071
11
72.400158
21
66.201617
0
LINE
8
Image
10
72.400158
20
66.201617
11
73.832190
21
65.892186
0
LINE
8
Image
10
73.832190
20
65.892186
11
76.726882
21
65.152629
0
LINE
8
Image
10
76.726882
20
65.152629
11
76.875039
21
64.680444
0
LINE
8
Image
10
76.875039
20
64.680444
11
76.874526
21
63.671138
0
LINE
8
Image
10
76.874526
20
63.671138
11
76.541849
21
60.763880
0
LINE
8
Image
10
76.541849
20
60.763880
11
75.957570
21
57.876290
0
LINE
8
Image
10
75.957570
20
57.876290
11
75.642555
21
56.891570
0
LINE
8
Image
10
75.642555
20
56.891570
11
75.350410
21
56.453804
0
LINE
8
Image
10
75.350410
20
56.453804
11
74.287524
21
56.478653
0
LINE
8
Image
10
74.287524
20
56.478653
11
72.419000
21
56.801995
0
LINE
8
Image
10
72.419000
20
56.801995
11
69.976766
21
57.337900
0
LINE
8
Image
10
69.976766
20
57.337900
11
69.976766
21
56.154711
0
LINE
8
Image
10
69.976766
20
56.154711
11
70.014910
21
55.522772
0
LINE
8
Image
10
70.014910
20
55.522772
11
70.174027
21
55.120605
0
LINE
8
Image
10
70.174027
20
55.120605
11
70.521145
21
54.860524
0
LINE
8
Image
10
70.521145
20
54.860524
11
71.123292
21
54.654846
0
LINE
8
Image
10
71.123292
20
54.654846
11
72.092758
21
54.514499
0
LINE
8
Image
10
72.092758
20
54.514499
11
72.641212
21
54.793421
0
LINE
8
Image
10
72.641212
20
54.793421
11
72.934675
21
55.000666
0
LINE
8
Image
10
72.934675
20
55.000666
11
73.443394
21
55.064444
0
LINE
8
Image
10
73.443394
20
55.064444
11
75.602457
21
54.755197
0
LINE
8
Image
10
75.602457
20
54.755197
11
78.357081
21
54.096949
0
LINE
8
Image
10
78.357081
20
54.096949
11
78.145582
21
51.127411
0
LINE
8
Image
10
78.145582
20
51.127411
11
77.537665
21
46.925662
0
LINE
8
Image
10
77.537665
20
46.925662
11
77.317436
21
46.386631
0
LINE
8
Image
10
77.317436
20
46.386631
11
76.706613
21
46.221246
0
LINE
8
Image
10
76.706613
20
46.221246
11
75.326646
21
46.439573
0
LINE
8
Image
10
75.326646
20
46.439573
11
72.798986
21
47.051680
0
LINE
8
Image
10
72.798986
20
47.051680
11
72.798986
21
47.051680
0
LINE
8
Image
10
77.342207
20
49.144931
11
77.713787
21
52.484937
0
LINE
8
Image
10
77.713787
20
52.484937
11
77.732376
21
53.513363
0
LINE
8
Image
10
77.732376
20
53.513363
11
77.626271
21
53.893014
0
LINE
8
Image
10
77.626271
20
53.893014
11
75.459056
21
54.273016
0
LINE
8
Image
10
75.459056
20
54.273016
11
73.786173
21
54.480766
0
LINE
8
Image
10
73.786173
20
54.480766
11
73.366368
21
54.412023
0
LINE
8
Image
10
73.366368
20
54.412023
11
73.139846
21
54.226507
0
LINE
8
Image
10
73.139846
20
54.226507
11
72.620897
21
53.992957
0
LINE
8
Image
10
72.620897
20
53.992957
11
71.719694
21
54.019760
0
LINE
8
Image
10
71.719694
20
54.019760
11
70.720094
21
54.266123
0
LINE
8
Image
10
70.720094
20
54.266123
11
69.905956
21
54.691253
0
LINE
8
Image
10
69.905956
20
54.691253
11
69.653593
21
54.984461
0
LINE
8
Image
10
69.653593
20
54.984461
11
69.521514
21
55.401869
0
LINE
8
Image
10
69.521514
20
55.401869
11
69.580082
21
56.863415
0
LINE
8
Image
10
69.580082
20
56.863415
11
69.816175
21
57.982815
0
LINE
8
Image
10
69.816175
20
57.982815
11
70.139986
21
58.639145
0
LINE
8
Image
10
70.139986
20
58.639145
11
70.478500
21
58.748044
0
LINE
8
Image
10
70.478500
20
58.748044
11
70.758699
21
58.225150
0
LINE
8
Image
10
70.758699
20
58.225150
11
70.951211
21
57.911652
0
LINE
8
Image
10
70.951211
20
57.911652
11
71.369358
21
57.637359
0
LINE
8
Image
10
71.369358
20
57.637359
11
72.984279
21
57.157595
0
LINE
8
Image
10
72.984279
20
57.157595
11
75.201585
21
56.883577
0
LINE
8
Image
10
75.201585
20
56.883577
11
75.979370
21
60.378554
0
LINE
8
Image
10
75.979370
20
60.378554
11
76.663837
21
64.352953
0
LINE
8
Image
10
76.663837
20
64.352953
11
76.130872
21
64.762553
0
LINE
8
Image
10
76.130872
20
64.762553
11
74.827454
21
65.177505
0
LINE
8
Image
10
74.827454
20
65.177505
11
72.358013
21
65.765631
0
LINE
8
Image
10
72.358013
20
65.765631
11
71.896698
21
65.744992
0
LINE
8
Image
10
71.896698
20
65.744992
11
71.740654
21
65.352654
0
LINE
8
Image
10
71.740654
20
65.352654
11
71.612198
21
64.984196
0
LINE
8
Image
10
71.612198
20
64.984196
11
71.303356
21
64.916081
0
LINE
8
Image
10
71.303356
20
64.916081
11
71.009546
21
65.389423
0
LINE
8
Image
10
71.009546
20
65.389423
11
70.970675
21
66.444783
0
LINE
8
Image
10
70.970675
20
66.444783
11
71.166438
21
68.071893
0
LINE
8
Image
10
71.166438
20
68.071893
11
71.333276
21
68.567696
0
LINE
8
Image
10
71.333276
20
68.567696
11
71.582367
21
68.879062
0
LINE
8
Image
10
71.582367
20
68.879062
11
71.940924
21
69.026538
0
LINE
8
Image
10
71.940924
20
69.026538
11
72.436159
21
69.030673
0
LINE
8
Image
10
72.436159
20
69.030673
11
73.945511
21
68.691114
0
LINE
8
Image
10
73.945511
20
68.691114
11
74.885537
21
68.283644
0
LINE
8
Image
10
74.885537
20
68.283644
11
75.268426
21
67.817858
0
LINE
8
Image
10
75.268426
20
67.817858
11
75.553404
21
67.400943
0
LINE
8
Image
10
75.553404
20
67.400943
11
76.238565
21
67.108932
0
LINE
8
Image
10
76.238565
20
67.108932
11
78.507118
21
66.616773
0
LINE
8
Image
10
78.507118
20
66.616773
11
79.805535
21
66.327679
0
LINE
8
Image
10
79.805535
20
66.327679
11
80.184585
21
68.665198
0
LINE
8
Image
10
80.184585
20
68.665198
11
80.650052
21
72.215164
0
LINE
8
Image
10
80.650052
20
72.215164
11
80.700566
21
73.002671
0
LINE
8
Image
10
80.700566
20
73.002671
11
80.534039
21
73.271502
0
LINE
8
Image
10
80.534039
20
73.271502
11
80.085263
21
73.519061
0
LINE
8
Image
10
80.085263
20
73.519061
11
77.877781
21
74.136391
0
LINE
8
Image
10
77.877781
20
74.136391
11
73.151762
21
75.226717
0
LINE
8
Image
10
73.151762
20
75.226717
11
66.376204
21
76.790315
0
LINE
8
Image
10
66.376204
20
76.790315
11
65.068693
21
77.093477
0
LINE
8
Image
10
65.068693
20
77.093477
11
64.841001
21
75.459206
0
LINE
8
Image
10
64.841001
20
75.459206
11
64.324842
21
72.461562
0
LINE
8
Image
10
64.324842
20
72.461562
11
64.204996
21
71.305353
0
LINE
8
Image
10
64.204996
20
71.305353
11
64.369725
21
71.060278
0
LINE
8
Image
10
64.369725
20
71.060278
11
64.713517
21
70.921115
0
LINE
8
Image
10
64.713517
20
70.921115
11
65.177193
21
70.771672
0
LINE
8
Image
10
65.177193
20
70.771672
11
65.328165
21
70.228542
0
LINE
8
Image
10
65.328165
20
70.228542
11
64.673748
21
65.451497
0
LINE
8
Image
10
64.673748
20
65.451497
11
63.333191
21
57.141715
0
LINE
8
Image
10
63.333191
20
57.141715
11
63.007317
21
56.125877
0
LINE
8
Image
10
63.007317
20
56.125877
11
62.641105
21
55.939529
0
LINE
8
Image
10
62.641105
20
55.939529
11
62.349047
21
55.747090
0
LINE
8
Image
10
62.349047
20
55.747090
11
62.107251
21
55.248834
0
LINE
8
Image
10
62.107251
20
55.248834
11
61.682483
21
53.058495
0
LINE
8
Image
10
61.682483
20
53.058495
11
61.479890
21
50.922163
0
LINE
8
Image
10
61.479890
20
50.922163
11
61.525749
21
50.383570
0
LINE
8
Image
10
61.525749
20
50.383570
11
61.669572
21
50.167010
0
LINE
8
Image
10
61.669572
20
50.167010
11
67.507315
21
48.791483
0
LINE
8
Image
10
67.507315
20
48.791483
11
74.739250
21
47.054797
0
LINE
8
Image
10
74.739250
20
47.054797
11
76.724837
21
46.528473
0
LINE
8
Image
10
76.724837
20
46.528473
11
76.997636
21
47.278998
0
LINE
8
Image
10
76.997636
20
47.278998
11
77.342196
21
49.144931
0
LINE
8
Image
10
77.342196
20
49.144931
11
77.342207
21
49.144931
0
LINE
8
Image
10
27.809764
20
50.381603
11
27.432354
21
53.850686
0
LINE
8
Image
10
27.432354
20
53.850686
11
27.326092
21
56.696094
0
LINE
8
Image
10
27.326092
20
56.696094
11
27.533279
21
57.133553
0
LINE
8
Image
10
27.533279
20
57.133553
11
27.976792
21
57.313479
0
LINE
8
Image
10
27.976792
20
57.313479
11
28.390071
21
57.468661
0
LINE
8
Image
10
28.390071
20
57.468661
11
28.601758
21
57.727682
0
LINE
8
Image
10
28.601758
20
57.727682
11
28.567476
21
58.969763
0
LINE
8
Image
10
28.567476
20
58.969763
11
28.131266
21
65.975638
0
LINE
8
Image
10
28.131266
20
65.975638
11
27.832518
21
70.604180
0
LINE
8
Image
10
27.832518
20
70.604180
11
27.616566
21
71.357626
0
LINE
8
Image
10
27.616566
20
71.357626
11
27.286045
21
71.531881
0
LINE
8
Image
10
27.286045
20
71.531881
11
26.824690
21
71.816563
0
LINE
8
Image
10
26.824690
20
71.816563
11
26.498377
21
72.681480
0
LINE
8
Image
10
26.498377
20
72.681480
11
26.303452
21
74.142941
0
LINE
8
Image
10
26.303452
20
74.142941
11
26.236261
21
76.217254
0
LINE
8
Image
10
26.236261
20
76.217254
11
26.345828
21
77.768657
0
LINE
8
Image
10
26.345828
20
77.768657
11
26.483170
21
78.196782
0
LINE
8
Image
10
26.483170
20
78.196782
11
26.673350
21
78.382297
0
LINE
8
Image
10
26.673350
20
78.382297
11
31.379081
21
78.933296
0
LINE
8
Image
10
31.379081
20
78.933296
11
35.600653
21
79.214511
0
LINE
8
Image
10
35.600653
20
79.214511
11
35.975059
21
75.640662
0
LINE
8
Image
10
35.975059
20
75.640662
11
36.079033
21
72.630178
0
LINE
8
Image
10
36.079033
20
72.630178
11
35.870395
21
72.174267
0
LINE
8
Image
10
35.870395
20
72.174267
11
35.423616
21
71.991851
0
LINE
8
Image
10
35.423616
20
71.991851
11
34.998076
21
71.830055
0
LINE
8
Image
10
34.998076
20
71.830055
11
34.785334
21
71.535691
0
LINE
8
Image
10
34.785334
20
71.535691
11
34.831114
21
69.982441
0
LINE
8
Image
10
34.831114
20
69.982441
11
35.265723
21
62.977032
0
LINE
8
Image
10
35.265723
20
62.977032
11
35.566097
21
58.590413
0
LINE
8
Image
10
35.566097
20
58.590413
11
35.794343
21
57.917275
0
LINE
8
Image
10
35.794343
20
57.917275
11
36.157590
21
57.773565
0
LINE
8
Image
10
36.157590
20
57.773565
11
36.511967
21
57.676590
0
LINE
8
Image
10
36.511967
20
57.676590
11
36.710242
21
57.234761
0
LINE
8
Image
10
36.710242
20
57.234761
11
36.815698
21
54.411109
0
LINE
8
Image
10
36.815698
20
54.411109
11
36.712014
21
51.804084
0
LINE
8
Image
10
36.712014
20
51.804084
11
36.575031
21
51.158416
0
LINE
8
Image
10
36.575031
20
51.158416
11
36.374728
21
50.899074
0
LINE
8
Image
10
36.374728
20
50.899074
11
31.840214
21
50.456598
0
LINE
8
Image
10
31.840214
20
50.456598
11
29.091177
21
50.332637
0
LINE
8
Image
10
29.091177
20
50.332637
11
27.809764
21
50.381603
0
LINE
8
Image
10
27.809764
20
50.381603
11
27.809764
21
50.381603
0
LINE
8
Image
10
35.492783
20
51.293644
11
36.052236
21
51.448751
0
LINE
8
Image
10
36.052236
20
51.448751
11
36.340402
21
51.831299
0
LINE
8
Image
10
36.340402
20
51.831299
11
36.447293
21
52.734161
0
LINE
8
Image
10
36.447293
20
52.734161
11
36.462921
21
54.450210
0
LINE
8
Image
10
36.462921
20
54.450210
11
36.354254
21
56.952664
0
LINE
8
Image
10
36.354254
20
56.952664
11
36.146729
21
57.338072
0
LINE
8
Image
10
36.146729
20
57.338072
11
35.773352
21
57.420789
0
LINE
8
Image
10
35.773352
20
57.420789
11
35.475265
21
57.464324
0
LINE
8
Image
10
35.475265
20
57.464324
11
35.240419
21
57.646499
0
LINE
8
Image
10
35.240419
20
57.646499
11
34.915541
21
58.736182
0
LINE
8
Image
10
34.915541
20
58.736182
11
34.708903
21
61.308663
0
LINE
8
Image
10
34.708903
20
61.308663
11
34.530690
21
65.982769
0
LINE
8
Image
10
34.530690
20
65.982769
11
34.456288
21
71.188359
0
LINE
8
Image
10
34.456288
20
71.188359
11
34.590954
21
72.134300
0
LINE
8
Image
10
34.590954
20
72.134300
11
34.865147
21
72.458697
0
LINE
8
Image
10
34.865147
20
72.458697
11
35.128992
21
72.695981
0
LINE
8
Image
10
35.128992
20
72.695981
11
35.294474
21
73.236475
0
LINE
8
Image
10
35.294474
20
73.236475
11
35.404589
21
75.668861
0
LINE
8
Image
10
35.404589
20
75.668861
11
35.404589
21
78.672024
0
LINE
8
Image
10
35.404589
20
78.672024
11
31.259455
21
78.420604
0
LINE
8
Image
10
31.259455
20
78.420604
11
28.277862
21
78.174932
0
LINE
8
Image
10
28.277862
20
78.174932
11
26.930176
21
77.937335
0
LINE
8
Image
10
26.930176
20
77.937335
11
26.868846
21
74.795073
0
LINE
8
Image
10
26.868846
20
74.795073
11
27.080988
21
72.397917
0
LINE
8
Image
10
27.080988
20
72.397917
11
27.289241
21
71.986181
0
LINE
8
Image
10
27.289241
20
71.986181
11
27.621010
21
71.884660
0
LINE
8
Image
10
27.621010
20
71.884660
11
27.972662
21
71.672090
0
LINE
8
Image
10
27.972662
20
71.672090
11
28.222434
21
70.709287
0
LINE
8
Image
10
28.222434
20
70.709287
11
28.706208
21
64.582439
0
LINE
8
Image
10
28.706208
20
64.582439
11
28.944994
21
59.296271
0
LINE
8
Image
10
28.944994
20
59.296271
11
28.843743
21
57.168379
0
LINE
8
Image
10
28.843743
20
57.168379
11
28.225754
21
56.856926
0
LINE
8
Image
10
28.225754
20
56.856926
11
27.904558
21
56.316411
0
LINE
8
Image
10
27.904558
20
56.316411
11
27.817055
21
55.307629
0
LINE
8
Image
10
27.817055
20
55.307629
11
27.900140
21
53.591370
0
LINE
8
Image
10
27.900140
20
53.591370
11
28.101646
21
50.651456
0
LINE
8
Image
10
28.101646
20
50.651456
11
31.312147
21
50.879553
0
LINE
8
Image
10
31.312147
20
50.879553
11
35.492783
21
51.293644
0
LINE
8
Image
10
35.492783
20
51.293644
11
35.492783
21
51.293644
0
LINE
8
Image
10
53.219844
20
50.423965
11
48.230219
21
50.876849
0
LINE
8
Image
10
48.230219
20
50.876849
11
48.058912
21
51.127924
0
LINE
8
Image
10
48.058912
20
51.127924
11
47.957371
21
51.744411
0
LINE
8
Image
10
47.957371
20
51.744411
11
47.958709
21
54.132154
0
LINE
8
Image
10
47.958709
20
54.132154
11
47.980135
21
56.246644
0
LINE
8
Image
10
47.980135
20
56.246644
11
47.907789
21
56.554219
0
LINE
8
Image
10
47.907789
20
56.554219
11
47.780036
21
56.362457
0
LINE
8
Image
10
47.780036
20
56.362457
11
47.550283
21
55.098021
0
LINE
8
Image
10
47.550283
20
55.098021
11
47.434184
21
53.296474
0
LINE
8
Image
10
47.434184
20
53.296474
11
47.331627
21
51.709299
0
LINE
8
Image
10
47.331627
20
51.709299
11
47.134435
21
50.960270
0
LINE
8
Image
10
47.134435
20
50.960270
11
42.506702
21
51.155219
0
LINE
8
Image
10
42.506702
20
51.155219
11
37.927497
21
51.615869
0
LINE
8
Image
10
37.927497
20
51.615869
11
38.057643
21
55.103666
0
LINE
8
Image
10
38.057643
20
55.103666
11
38.357963
21
57.686499
0
LINE
8
Image
10
38.357963
20
57.686499
11
38.544116
21
58.287371
0
LINE
8
Image
10
38.544116
20
58.287371
11
38.765003
21
58.479121
0
LINE
8
Image
10
38.765003
20
58.479121
11
38.924072
21
58.554399
0
LINE
8
Image
10
38.924072
20
58.554399
11
39.059858
21
58.829349
0
LINE
8
Image
10
39.059858
20
58.829349
11
39.291112
21
60.272957
0
LINE
8
Image
10
39.291112
20
60.272957
11
39.799070
21
68.797858
0
LINE
8
Image
10
39.799070
20
68.797858
11
39.854054
21
71.896938
0
LINE
8
Image
10
39.854054
20
71.896938
11
39.721060
21
72.448746
0
LINE
8
Image
10
39.721060
20
72.448746
11
39.458170
21
72.590213
0
LINE
8
Image
10
39.458170
20
72.590213
11
39.113655
21
72.753984
0
LINE
8
Image
10
39.113655
20
72.753984
11
38.959207
21
73.387063
0
LINE
8
Image
10
38.959207
20
73.387063
11
39.162271
21
76.911737
0
LINE
8
Image
10
39.162271
20
76.911737
11
39.387167
21
79.292984
0
LINE
8
Image
10
39.387167
20
79.292984
11
41.893789
21
79.289915
0
LINE
8
Image
10
41.893789
20
79.289915
11
46.252492
21
79.064387
0
LINE
8
Image
10
46.252492
20
79.064387
11
48.104573
21
78.841926
0
LINE
8
Image
10
48.104573
20
78.841926
11
48.104573
21
75.683043
0
LINE
8
Image
10
48.104573
20
75.683043
11
47.991529
21
73.000714
0
LINE
8
Image
10
47.991529
20
73.000714
11
47.778961
21
72.530087
0
LINE
8
Image
10
47.778961
20
72.530087
11
47.399018
21
72.339650
0
LINE
8
Image
10
47.399018
20
72.339650
11
47.060383
21
72.189452
0
LINE
8
Image
10
47.060383
20
72.189452
11
46.843225
21
71.923676
0
LINE
8
Image
10
46.843225
20
71.923676
11
46.693462
21
70.880158
0
LINE
8
Image
10
46.693462
20
70.880158
11
46.693462
21
69.605172
0
LINE
8
Image
10
46.693462
20
69.605172
11
47.779216
21
70.690925
0
LINE
8
Image
10
47.779216
20
70.690925
11
48.387449
21
71.369639
0
LINE
8
Image
10
48.387449
20
71.369639
11
48.725728
21
72.087932
0
LINE
8
Image
10
48.725728
20
72.087932
11
48.890181
21
73.194795
0
LINE
8
Image
10
48.890181
20
73.194795
11
48.976933
21
75.039215
0
LINE
8
Image
10
48.976933
20
75.039215
11
49.144599
21
77.431342
0
LINE
8
Image
10
49.144599
20
77.431342
11
49.390484
21
78.601187
0
LINE
8
Image
10
49.390484
20
78.601187
11
51.115389
21
78.695674
0
LINE
8
Image
10
51.115389
20
78.695674
11
54.654743
21
78.603840
0
LINE
8
Image
10
54.654743
20
78.603840
11
58.198350
21
78.400997
0
LINE
8
Image
10
58.198350
20
78.400997
11
59.936011
21
78.162455
0
LINE
8
Image
10
59.936011
20
78.162455
11
59.825804
21
74.686091
0
LINE
8
Image
10
59.825804
20
74.686091
11
59.569836
21
71.355494
0
LINE
8
Image
10
59.569836
20
71.355494
11
58.450793
21
71.179105
0
LINE
8
Image
10
58.450793
20
71.179105
11
57.447750
21
70.695030
0
LINE
8
Image
10
57.447750
20
70.695030
11
56.072907
21
69.558007
0
LINE
8
Image
10
56.072907
20
69.558007
11
54.437015
21
67.871886
0
LINE
8
Image
10
54.437015
20
67.871886
11
52.650826
21
65.740516
0
LINE
8
Image
10
52.650826
20
65.740516
11
51.992467
21
64.903550
0
LINE
8
Image
10
51.992467
20
64.903550
11
54.652444
21
60.985780
0
LINE
8
Image
10
54.652444
20
60.985780
11
56.964262
21
57.827543
0
LINE
8
Image
10
56.964262
20
57.827543
11
57.633666
21
57.230404
0
LINE
8
Image
10
57.633666
20
57.230404
11
58.176544
21
57.068010
0
LINE
8
Image
10
58.176544
20
57.068010
11
58.674112
21
57.010161
0
LINE
8
Image
10
58.674112
20
57.010161
11
58.930872
21
56.619765
0
LINE
8
Image
10
58.930872
20
56.619765
11
59.040670
21
53.540237
0
LINE
8
Image
10
59.040670
20
53.540237
11
58.938312
21
50.605792
0
LINE
8
Image
10
58.938312
20
50.605792
11
58.751885
21
50.145339
0
LINE
8
Image
10
58.751885
20
50.145339
11
58.423310
21
50.063302
0
LINE
8
Image
10
58.423310
20
50.063302
11
53.219844
21
50.423965
0
LINE
8
Image
10
53.219844
20
50.423965
11
53.219844
21
50.423965
0
LINE
8
Image
10
58.687893
20
53.716627
11
58.574284
21
56.320989
0
LINE
8
Image
10
58.574284
20
56.320989
11
58.317053
21
56.661098
0
LINE
8
Image
10
58.317053
20
56.661098
11
57.823787
21
56.715233
0
LINE
8
Image
10
57.823787
20
56.715233
11
57.274892
21
56.884812
0
LINE
8
Image
10
57.274892
20
56.884812
11
56.585205
21
57.512072
0
LINE
8
Image
10
56.585205
20
57.512072
11
54.152081
21
60.850763
0
LINE
8
Image
10
54.152081
20
60.850763
11
51.344485
21
64.986291
0
LINE
8
Image
10
51.344485
20
64.986291
11
52.419583
21
66.230617
0
LINE
8
Image
10
52.419583
20
66.230617
11
56.112137
21
70.183202
0
LINE
8
Image
10
56.112137
20
70.183202
11
57.446322
21
71.352999
0
LINE
8
Image
10
57.446322
20
71.352999
11
58.319522
21
71.870807
0
LINE
8
Image
10
58.319522
20
71.870807
11
58.822944
21
72.067241
0
LINE
8
Image
10
58.822944
20
72.067241
11
59.103600
21
72.479838
0
LINE
8
Image
10
59.103600
20
72.479838
11
59.318686
21
74.944216
0
LINE
8
Image
10
59.318686
20
74.944216
11
59.420312
21
77.778556
0
LINE
8
Image
10
59.420312
20
77.778556
11
57.238465
21
78.006603
0
LINE
8
Image
10
57.238465
20
78.006603
11
52.286152
21
78.234652
0
LINE
8
Image
10
52.286152
20
78.234652
11
49.515682
21
78.234652
0
LINE
8
Image
10
49.515682
20
78.234652
11
49.515682
21
75.051774
0
LINE
8
Image
10
49.515682
20
75.051774
11
49.515682
21
71.868894
0
LINE
8
Image
10
49.515682
20
71.868894
11
48.059642
21
70.289280
0
LINE
8
Image
10
48.059642
20
70.289280
11
46.934119
21
69.173676
0
LINE
8
Image
10
46.934119
20
69.173676
11
46.272722
21
68.709664
0
LINE
8
Image
10
46.272722
20
68.709664
11
46.081086
21
69.298978
0
LINE
8
Image
10
46.081086
20
69.298978
11
46.090247
21
70.738132
0
LINE
8
Image
10
46.090247
20
70.738132
11
46.346290
21
72.427544
0
LINE
8
Image
10
46.346290
20
72.427544
11
46.596867
21
72.749514
0
LINE
8
Image
10
46.596867
20
72.749514
11
46.995225
21
72.879334
0
LINE
8
Image
10
46.995225
20
72.879334
11
47.408962
21
73.013853
0
LINE
8
Image
10
47.408962
20
73.013853
11
47.636197
21
73.402304
0
LINE
8
Image
10
47.636197
20
73.402304
11
47.751794
21
75.789747
0
LINE
8
Image
10
47.751794
20
75.789747
11
47.751794
21
78.587429
0
LINE
8
Image
10
47.751794
20
78.587429
11
45.863270
21
78.587429
0
LINE
8
Image
10
45.863270
20
78.587429
11
41.806331
21
78.814073
0
LINE
8
Image
10
41.806331
20
78.814073
11
39.637917
21
79.040717
0
LINE
8
Image
10
39.637917
20
79.040717
11
39.637917
21
75.991854
0
LINE
8
Image
10
39.637917
20
75.991854
11
39.734755
21
73.838595
0
LINE
8
Image
10
39.734755
20
73.838595
11
39.967577
21
72.942992
0
LINE
8
Image
10
39.967577
20
72.942992
11
40.154016
21
70.996030
0
LINE
8
Image
10
40.154016
20
70.996030
11
40.101385
21
65.799251
0
LINE
8
Image
10
40.101385
20
65.799251
11
39.831383
21
59.779119
0
LINE
8
Image
10
39.831383
20
59.779119
11
39.613195
21
58.637376
0
LINE
8
Image
10
39.613195
20
58.637376
11
39.273182
21
58.126342
0
LINE
8
Image
10
39.273182
20
58.126342
11
38.962527
21
57.736895
0
LINE
8
Image
10
38.962527
20
57.736895
11
38.748750
21
57.115297
0
LINE
8
Image
10
38.748750
20
57.115297
11
38.522015
21
54.774959
0
LINE
8
Image
10
38.522015
20
54.774959
11
38.403196
21
51.952739
0
LINE
8
Image
10
38.403196
20
51.952739
11
42.427382
21
51.684801
0
LINE
8
Image
10
42.427382
20
51.684801
11
46.605234
21
51.570528
0
LINE
8
Image
10
46.605234
20
51.570528
11
47.001871
21
54.551505
0
LINE
8
Image
10
47.001871
20
54.551505
11
47.101979
21
56.942251
0
LINE
8
Image
10
47.101979
20
56.942251
11
46.944833
21
57.369887
0
LINE
8
Image
10
46.944833
20
57.369887
11
46.616376
21
57.543164
0
LINE
8
Image
10
46.616376
20
57.543164
11
46.185249
21
57.849713
0
LINE
8
Image
10
46.185249
20
57.849713
11
46.007243
21
58.378084
0
LINE
8
Image
10
46.007243
20
58.378084
11
46.094639
21
58.975667
0
LINE
8
Image
10
46.094639
20
58.975667
11
46.459719
21
59.489852
0
LINE
8
Image
10
46.459719
20
59.489852
11
46.721884
21
59.637739
0
LINE
8
Image
10
46.721884
20
59.637739
11
46.990962
21
59.626637
0
LINE
8
Image
10
46.990962
20
59.626637
11
47.680698
21
59.083965
0
LINE
8
Image
10
47.680698
20
59.083965
11
48.072471
21
58.545384
0
LINE
8
Image
10
48.072471
20
58.545384
11
48.314427
21
57.800974
0
LINE
8
Image
10
48.314427
20
57.800974
11
48.531804
21
54.766847
0
LINE
8
Image
10
48.531804
20
54.766847
11
48.633739
21
51.247184
0
LINE
8
Image
10
48.633739
20
51.247184
11
51.279569
21
51.046156
0
LINE
8
Image
10
51.279569
20
51.046156
11
56.306646
21
50.781573
0
LINE
8
Image
10
56.306646
20
50.781573
11
58.687893
21
50.718018
0
LINE
8
Image
10
58.687893
20
50.718018
11
58.687893
21
53.716627
0
LINE
8
Image
10
47.691379
20
58.444767
11
47.003406
21
59.155013
0
LINE
8
Image
10
47.003406
20
59.155013
11
46.778506
21
59.111813
0
LINE
8
Image
10
46.778506
20
59.111813
11
46.693462
21
58.782595
0
LINE
8
Image
10
46.693462
20
58.782595
11
46.873879
21
58.396783
0
LINE
8
Image
10
46.873879
20
58.396783
11
47.286806
21
57.956221
0
LINE
8
Image
10
47.286806
20
57.956221
11
47.739763
21
57.631114
0
LINE
8
Image
10
47.739763
20
57.631114
11
48.040267
21
57.591667
0
LINE
8
Image
10
48.040267
20
57.591667
11
47.691379
21
58.444767
0
LINE
8
Image
10
47.691379
20
58.444767
11
47.691379
21
58.444767
 0 
ENDSEC
 0 
EOF