999
"DXF R12 Output" (www.mydxf.blogspot.com)
 0 
SECTION
 2 
HEADER
 9 
$ACADVER
 1 
AC1009
 9 
$EXTMIN
 10 
 0 
 20 
 0 
 9 
$EXTMAX
 10 
 8.5 
 20 
 11 
 0 
ENDSEC
 0 
SECTION
 2 
ENTITIES
0
LINE
8
Image
10
34.501951
20
1.730047
11
32.053755
21
2.270149
0
LINE
8
Image
10
32.053755
20
2.270149
11
29.884035
21
2.966065
0
LINE
8
Image
10
29.884035
20
2.966065
11
27.901221
21
3.852695
0
LINE
8
Image
10
27.901221
20
3.852695
11
26.013745
21
4.964934
0
LINE
8
Image
10
26.013745
20
4.964934
11
24.159381
21
6.281551
0
LINE
8
Image
10
24.159381
20
6.281551
11
22.468605
21
7.671463
0
LINE
8
Image
10
22.468605
20
7.671463
11
20.940183
21
9.136184
0
LINE
8
Image
10
20.940183
20
9.136184
11
19.572879
21
10.677231
0
LINE
8
Image
10
19.572879
20
10.677231
11
18.365460
21
12.296118
0
LINE
8
Image
10
18.365460
20
12.296118
11
17.316690
21
13.994361
0
LINE
8
Image
10
17.316690
20
13.994361
11
16.425334
21
15.773475
0
LINE
8
Image
10
16.425334
20
15.773475
11
15.690159
21
17.634975
0
LINE
8
Image
10
15.690159
20
17.634975
11
14.903354
21
20.815915
0
LINE
8
Image
10
14.903354
20
20.815915
11
14.500701
21
24.435920
0
LINE
8
Image
10
14.500701
20
24.435920
11
14.507221
21
28.038788
0
LINE
8
Image
10
14.507221
20
28.038788
11
14.947934
21
31.168314
0
LINE
8
Image
10
14.947934
20
31.168314
11
15.643045
21
33.515064
0
LINE
8
Image
10
15.643045
20
33.515064
11
16.555381
21
35.815176
0
LINE
8
Image
10
16.555381
20
35.815176
11
17.616475
21
37.915964
0
LINE
8
Image
10
17.616475
20
37.915964
11
18.757862
21
39.664743
0
LINE
8
Image
10
18.757862
20
39.664743
11
19.797733
21
41.071186
0
LINE
8
Image
10
19.797733
20
41.071186
11
20.191799
21
41.934769
0
LINE
8
Image
10
20.191799
20
41.934769
11
19.988019
21
42.654570
0
LINE
8
Image
10
19.988019
20
42.654570
11
19.234355
21
43.629665
0
LINE
8
Image
10
19.234355
20
43.629665
11
18.148510
21
45.123719
0
LINE
8
Image
10
18.148510
20
45.123719
11
17.437335
21
46.473644
0
LINE
8
Image
10
17.437335
20
46.473644
11
17.131272
21
47.605184
0
LINE
8
Image
10
17.131272
20
47.605184
11
17.260760
21
48.444083
0
LINE
8
Image
10
17.260760
20
48.444083
11
17.852923
21
48.985842
0
LINE
8
Image
10
17.852923
20
48.985842
11
18.794833
21
49.326212
0
LINE
8
Image
10
18.794833
20
49.326212
11
19.837519
21
49.411760
0
LINE
8
Image
10
19.837519
20
49.411760
11
20.732007
21
49.189054
0
LINE
8
Image
10
20.732007
20
49.189054
11
21.320851
21
48.900524
0
LINE
8
Image
10
21.320851
20
48.900524
11
21.640874
21
48.923242
0
LINE
8
Image
10
21.640874
20
48.923242
11
21.806540
21
49.367192
0
LINE
8
Image
10
21.806540
20
49.367192
11
21.932316
21
50.342355
0
LINE
8
Image
10
21.932316
20
50.342355
11
22.470226
21
52.127325
0
LINE
8
Image
10
22.470226
20
52.127325
11
23.740381
21
54.407668
0
LINE
8
Image
10
23.740381
20
54.407668
11
25.275459
21
56.893650
0
LINE
8
Image
10
25.275459
20
56.893650
11
26.338895
21
58.905540
0
LINE
8
Image
10
26.338895
20
58.905540
11
27.003362
21
60.599189
0
LINE
8
Image
10
27.003362
20
60.599189
11
27.341534
21
62.130449
0
LINE
8
Image
10
27.341534
20
62.130449
11
27.436401
21
63.105482
0
LINE
8
Image
10
27.436401
20
63.105482
11
27.385663
21
63.808105
0
LINE
8
Image
10
27.385663
20
63.808105
11
27.151526
21
64.411594
0
LINE
8
Image
10
27.151526
20
64.411594
11
26.696195
21
65.089227
0
LINE
8
Image
10
26.696195
20
65.089227
11
25.472215
21
67.032029
0
LINE
8
Image
10
25.472215
20
67.032029
11
24.796869
21
68.870393
0
LINE
8
Image
10
24.796869
20
68.870393
11
24.664817
21
70.628094
0
LINE
8
Image
10
24.664817
20
70.628094
11
25.070723
21
72.328904
0
LINE
8
Image
10
25.070723
20
72.328904
11
25.424570
21
74.291190
0
LINE
8
Image
10
25.424570
20
74.291190
11
25.716659
21
77.614460
0
LINE
8
Image
10
25.716659
20
77.614460
11
26.043363
21
81.123939
0
LINE
8
Image
10
26.043363
20
81.123939
11
26.269466
21
82.155652
0
LINE
8
Image
10
26.269466
20
82.155652
11
26.553553
21
82.805515
0
LINE
8
Image
10
26.553553
20
82.805515
11
26.978745
21
83.493913
0
LINE
8
Image
10
26.978745
20
83.493913
11
27.063120
21
83.913385
0
LINE
8
Image
10
27.063120
20
83.913385
11
26.753276
21
84.240843
0
LINE
8
Image
10
26.753276
20
84.240843
11
25.995812
21
84.653200
0
LINE
8
Image
10
25.995812
20
84.653200
11
24.190117
21
85.751697
0
LINE
8
Image
10
24.190117
20
85.751697
11
22.228913
21
87.240483
0
LINE
8
Image
10
22.228913
20
87.240483
11
20.195042
21
89.032678
0
LINE
8
Image
10
20.195042
20
89.032678
11
18.171345
21
91.041401
0
LINE
8
Image
10
18.171345
20
91.041401
11
16.240664
21
93.179774
0
LINE
8
Image
10
16.240664
20
93.179774
11
14.485841
21
95.360917
0
LINE
8
Image
10
14.485841
20
95.360917
11
12.989720
21
97.497951
0
LINE
8
Image
10
12.989720
20
97.497951
11
11.835141
21
99.503996
0
LINE
8
Image
10
11.835141
20
99.503996
11
11.006372
21
101.493165
0
LINE
8
Image
10
11.006372
20
101.493165
11
10.929455
21
102.124432
0
LINE
8
Image
10
10.929455
20
102.124432
11
11.095750
21
102.532237
0
LINE
8
Image
10
11.095750
20
102.532237
11
11.518930
21
102.730643
0
LINE
8
Image
10
11.518930
20
102.730643
11
12.212669
21
102.733711
0
LINE
8
Image
10
12.212669
20
102.733711
11
14.466519
21
102.210083
0
LINE
8
Image
10
14.466519
20
102.210083
11
16.699518
21
101.412749
0
LINE
8
Image
10
16.699518
20
101.412749
11
18.931237
21
100.358878
0
LINE
8
Image
10
18.931237
20
100.358878
11
21.123048
21
99.077855
0
LINE
8
Image
10
21.123048
20
99.077855
11
23.236322
21
97.599066
0
LINE
8
Image
10
23.236322
20
97.599066
11
25.232430
21
95.951893
0
LINE
8
Image
10
25.232430
20
95.951893
11
27.072744
21
94.165722
0
LINE
8
Image
10
27.072744
20
94.165722
11
28.718635
21
92.269938
0
LINE
8
Image
10
28.718635
20
92.269938
11
30.131474
21
90.293924
0
LINE
8
Image
10
30.131474
20
90.293924
11
31.280355
21
88.747112
0
LINE
8
Image
10
31.280355
20
88.747112
11
31.675558
21
88.489420
0
LINE
8
Image
10
31.675558
20
88.489420
11
32.021115
21
88.509584
0
LINE
8
Image
10
32.021115
20
88.509584
11
34.473349
21
89.517087
0
LINE
8
Image
10
34.473349
20
89.517087
11
36.174082
21
90.027976
0
LINE
8
Image
10
36.174082
20
90.027976
11
37.974119
21
90.210861
0
LINE
8
Image
10
37.974119
20
90.210861
11
40.724266
21
90.234354
0
LINE
8
Image
10
40.724266
20
90.234354
11
44.833704
21
90.093925
0
LINE
8
Image
10
44.833704
20
90.093925
11
46.080203
21
89.856725
0
LINE
8
Image
10
46.080203
20
89.856725
11
47.245591
21
89.453389
0
LINE
8
Image
10
47.245591
20
89.453389
11
49.180812
21
88.672425
0
LINE
8
Image
10
49.180812
20
88.672425
11
52.008085
21
91.434312
0
LINE
8
Image
10
52.008085
20
91.434312
11
56.246467
21
95.271467
0
LINE
8
Image
10
56.246467
20
95.271467
11
59.387978
21
97.281718
0
LINE
8
Image
10
59.387978
20
97.281718
11
62.987730
21
99.005028
0
LINE
8
Image
10
62.987730
20
99.005028
11
66.483104
21
100.209254
0
LINE
8
Image
10
66.483104
20
100.209254
11
68.015830
21
100.544165
0
LINE
8
Image
10
68.015830
20
100.544165
11
69.311478
21
100.662250
0
LINE
8
Image
10
69.311478
20
100.662250
11
70.250671
21
100.644854
0
LINE
8
Image
10
70.250671
20
100.644854
11
70.715243
21
100.535016
0
LINE
8
Image
10
70.715243
20
100.535016
11
70.831121
21
100.246260
0
LINE
8
Image
10
70.831121
20
100.246260
11
70.724234
21
99.692112
0
LINE
8
Image
10
70.724234
20
99.692112
11
69.940418
21
97.869981
0
LINE
8
Image
10
69.940418
20
97.869981
11
68.473812
21
95.582991
0
LINE
8
Image
10
68.473812
20
95.582991
11
66.556577
21
93.154654
0
LINE
8
Image
10
66.556577
20
93.154654
11
64.420873
21
90.908483
0
LINE
8
Image
10
64.420873
20
90.908483
11
62.611706
21
89.303122
0
LINE
8
Image
10
62.611706
20
89.303122
11
60.678802
21
87.850543
0
LINE
8
Image
10
60.678802
20
87.850543
11
58.251879
21
86.295289
0
LINE
8
Image
10
58.251879
20
86.295289
11
54.960657
21
84.381903
0
LINE
8
Image
10
54.960657
20
84.381903
11
54.736798
21
84.059091
0
LINE
8
Image
10
54.736798
20
84.059091
11
54.766604
21
83.604514
0
LINE
8
Image
10
54.766604
20
83.604514
11
55.015501
21
83.392818
0
LINE
8
Image
10
55.015501
20
83.392818
11
55.619153
21
83.479187
0
LINE
8
Image
10
55.619153
20
83.479187
11
58.610365
21
84.763024
0
LINE
8
Image
10
58.610365
20
84.763024
11
64.136152
21
87.186877
0
LINE
8
Image
10
64.136152
20
87.186877
11
69.447463
21
89.219369
0
LINE
8
Image
10
69.447463
20
89.219369
11
73.855118
21
90.617247
0
LINE
8
Image
10
73.855118
20
90.617247
11
75.504705
21
91.002191
0
LINE
8
Image
10
75.504705
20
91.002191
11
76.669936
21
91.137262
0
LINE
8
Image
10
76.669936
20
91.137262
11
77.645652
21
91.137262
0
LINE
8
Image
10
77.645652
20
91.137262
11
77.405484
21
88.756015
0
LINE
8
Image
10
77.405484
20
88.756015
11
76.487685
21
82.749666
0
LINE
8
Image
10
76.487685
20
82.749666
11
75.273303
21
77.121997
0
LINE
8
Image
10
75.273303
20
77.121997
11
74.919269
21
75.935554
0
LINE
8
Image
10
74.919269
20
75.935554
11
74.622936
21
75.540132
0
LINE
8
Image
10
74.622936
20
75.540132
11
74.081535
21
75.197881
0
LINE
8
Image
10
74.081535
20
75.197881
11
71.766959
21
74.436790
0
LINE
8
Image
10
71.766959
20
74.436790
11
66.982401
21
73.180096
0
LINE
8
Image
10
66.982401
20
73.180096
11
63.396069
21
72.244640
0
LINE
8
Image
10
63.396069
20
72.244640
11
62.451936
21
71.880599
0
LINE
8
Image
10
62.451936
20
71.880599
11
62.030461
21
71.466970
0
LINE
8
Image
10
62.030461
20
71.466970
11
62.099123
21
70.914715
0
LINE
8
Image
10
62.099123
20
70.914715
11
62.625399
21
70.134799
0
LINE
8
Image
10
62.625399
20
70.134799
11
64.920702
21
67.535842
0
LINE
8
Image
10
64.920702
20
67.535842
11
67.335999
21
64.617682
0
LINE
8
Image
10
67.335999
20
64.617682
11
68.005441
21
63.665274
0
LINE
8
Image
10
68.005441
20
63.665274
11
68.173758
21
63.238649
0
LINE
8
Image
10
68.173758
20
63.238649
11
63.844733
21
61.155640
0
LINE
8
Image
10
63.844733
20
61.155640
11
59.655704
21
59.209971
0
LINE
8
Image
10
59.655704
20
59.209971
11
59.824807
21
58.783896
0
LINE
8
Image
10
59.824807
20
58.783896
11
60.435898
21
57.964028
0
LINE
8
Image
10
60.435898
20
57.964028
11
61.361740
21
56.533433
0
LINE
8
Image
10
61.361740
20
56.533433
11
59.938018
21
55.557507
0
LINE
8
Image
10
59.938018
20
55.557507
11
57.941894
21
54.622184
0
LINE
8
Image
10
57.941894
20
54.622184
11
59.088419
21
52.191425
0
LINE
8
Image
10
59.088419
20
52.191425
11
59.946505
21
50.177004
0
LINE
8
Image
10
59.946505
20
50.177004
11
60.303408
21
48.723769
0
LINE
8
Image
10
60.303408
20
48.723769
11
60.420855
21
47.921570
0
LINE
8
Image
10
60.420855
20
47.921570
11
60.609168
21
47.845084
0
LINE
8
Image
10
60.609168
20
47.845084
11
60.920768
21
47.938055
0
LINE
8
Image
10
60.920768
20
47.938055
11
62.360909
21
48.376911
0
LINE
8
Image
10
62.360909
20
48.376911
11
63.501215
21
48.353921
0
LINE
8
Image
10
63.501215
20
48.353921
11
64.253939
21
47.891580
0
LINE
8
Image
10
64.253939
20
47.891580
11
64.457535
21
47.502683
0
LINE
8
Image
10
64.457535
20
47.502683
11
64.531331
21
47.012385
0
LINE
8
Image
10
64.531331
20
47.012385
11
64.221493
21
46.108862
0
LINE
8
Image
10
64.221493
20
46.108862
11
63.373798
21
44.742459
0
LINE
8
Image
10
63.373798
20
44.742459
11
62.128593
21
43.114006
0
LINE
8
Image
10
62.128593
20
43.114006
11
60.626228
21
41.424334
0
LINE
8
Image
10
60.626228
20
41.424334
11
59.219952
21
39.769385
0
LINE
8
Image
10
59.219952
20
39.769385
11
59.071304
21
39.313029
0
LINE
8
Image
10
59.071304
20
39.313029
11
59.206545
21
38.954893
0
LINE
8
Image
10
59.206545
20
38.954893
11
60.035501
21
37.533784
0
LINE
8
Image
10
60.035501
20
37.533784
11
60.959215
21
35.495048
0
LINE
8
Image
10
60.959215
20
35.495048
11
61.825620
21
33.206292
0
LINE
8
Image
10
61.825620
20
33.206292
11
62.482654
21
31.035123
0
LINE
8
Image
10
62.482654
20
31.035123
11
62.866736
21
29.064579
0
LINE
8
Image
10
62.866736
20
29.064579
11
63.059747
21
26.994913
0
LINE
8
Image
10
63.059747
20
26.994913
11
63.066287
21
24.863569
0
LINE
8
Image
10
63.066287
20
24.863569
11
62.890954
21
22.707991
0
LINE
8
Image
10
62.890954
20
22.707991
11
62.538349
21
20.565621
0
LINE
8
Image
10
62.538349
20
20.565621
11
62.013070
21
18.473904
0
LINE
8
Image
10
62.013070
20
18.473904
11
61.319716
21
16.470282
0
LINE
8
Image
10
61.319716
20
16.470282
11
60.462888
21
14.592199
0
LINE
8
Image
10
60.462888
20
14.592199
11
59.561026
21
12.965944
0
LINE
8
Image
10
59.561026
20
12.965944
11
58.645177
21
11.606655
0
LINE
8
Image
10
58.645177
20
11.606655
11
56.005442
21
8.671390
0
LINE
8
Image
10
56.005442
20
8.671390
11
54.478952
21
7.238351
0
LINE
8
Image
10
54.478952
20
7.238351
11
52.900743
21
5.964731
0
LINE
8
Image
10
52.900743
20
5.964731
11
51.266421
21
4.848281
0
LINE
8
Image
10
51.266421
20
4.848281
11
49.571594
21
3.886748
0
LINE
8
Image
10
49.571594
20
3.886748
11
47.811869
21
3.077882
0
LINE
8
Image
10
47.811869
20
3.077882
11
45.982853
21
2.419430
0
LINE
8
Image
10
45.982853
20
2.419430
11
44.080153
21
1.909142
0
LINE
8
Image
10
44.080153
20
1.909142
11
42.099375
21
1.544768
0
LINE
8
Image
10
42.099375
20
1.544768
11
40.078114
21
1.300673
0
LINE
8
Image
10
40.078114
20
1.300673
11
38.391821
21
1.244001
0
LINE
8
Image
10
38.391821
20
1.244001
11
36.659949
21
1.384033
0
LINE
8
Image
10
36.659949
20
1.384033
11
34.501951
21
1.730047
0
LINE
8
Image
10
34.501951
20
1.730047
11
34.501951
21
1.730047
0
LINE
8
Image
10
41.127835
20
2.595302
11
43.115126
21
2.927963
0
LINE
8
Image
10
43.115126
20
2.927963
11
45.078980
21
3.418714
0
LINE
8
Image
10
45.078980
20
3.418714
11
46.993231
21
4.055386
0
LINE
8
Image
10
46.993231
20
4.055386
11
48.831713
21
4.825812
0
LINE
8
Image
10
48.831713
20
4.825812
11
50.568261
21
5.717826
0
LINE
8
Image
10
50.568261
20
5.717826
11
52.176709
21
6.719259
0
LINE
8
Image
10
52.176709
20
6.719259
11
53.630892
21
7.817944
0
LINE
8
Image
10
53.630892
20
7.817944
11
54.904642
21
9.001714
0
LINE
8
Image
10
54.904642
20
9.001714
11
56.032261
21
10.174867
0
LINE
8
Image
10
56.032261
20
10.174867
11
52.964368
21
10.212597
0
LINE
8
Image
10
52.964368
20
10.212597
11
50.431900
21
10.414713
0
LINE
8
Image
10
50.431900
20
10.414713
11
47.841115
21
10.969484
0
LINE
8
Image
10
47.841115
20
10.969484
11
45.135805
21
11.892593
0
LINE
8
Image
10
45.135805
20
11.892593
11
42.259760
21
13.199725
0
LINE
8
Image
10
42.259760
20
13.199725
11
41.018132
21
13.802978
0
LINE
8
Image
10
41.018132
20
13.802978
11
40.222668
21
14.061147
0
LINE
8
Image
10
40.222668
20
14.061147
11
39.565843
21
14.020237
0
LINE
8
Image
10
39.565843
20
14.020237
11
38.740134
21
13.726253
0
LINE
8
Image
10
38.740134
20
13.726253
11
37.196701
21
13.320866
0
LINE
8
Image
10
37.196701
20
13.320866
11
35.462741
21
13.205673
0
LINE
8
Image
10
35.462741
20
13.205673
11
33.746846
21
13.377264
0
LINE
8
Image
10
33.746846
20
13.377264
11
32.257610
21
13.832230
0
LINE
8
Image
10
32.257610
20
13.832230
11
30.795507
21
14.631119
0
LINE
8
Image
10
30.795507
20
14.631119
11
29.586856
21
15.599537
0
LINE
8
Image
10
29.586856
20
15.599537
11
28.572819
21
16.794760
0
LINE
8
Image
10
28.572819
20
16.794760
11
27.694559
21
18.274062
0
LINE
8
Image
10
27.694559
20
18.274062
11
27.153870
21
19.426406
0
LINE
8
Image
10
27.153870
20
19.426406
11
26.877927
21
20.368734
0
LINE
8
Image
10
26.877927
20
20.368734
11
26.809983
21
21.431995
0
LINE
8
Image
10
26.809983
20
21.431995
11
26.893293
21
22.947138
0
LINE
8
Image
10
26.893293
20
22.947138
11
27.096559
21
25.634790
0
LINE
8
Image
10
27.096559
20
25.634790
11
25.574924
21
27.782596
0
LINE
8
Image
10
25.574924
20
27.782596
11
23.344505
21
31.341507
0
LINE
8
Image
10
23.344505
20
31.341507
11
22.532310
21
33.253690
0
LINE
8
Image
10
22.532310
20
33.253690
11
21.827231
21
35.439614
0
LINE
8
Image
10
21.827231
20
35.439614
11
21.327773
21
37.548097
0
LINE
8
Image
10
21.327773
20
37.548097
11
21.132436
21
39.227962
0
LINE
8
Image
10
21.132436
20
39.227962
11
21.119750
21
40.866495
0
LINE
8
Image
10
21.119750
20
40.866495
11
20.237380
21
39.808163
0
LINE
8
Image
10
20.237380
20
39.808163
11
19.041684
21
38.006505
0
LINE
8
Image
10
19.041684
20
38.006505
11
17.792661
21
35.552096
0
LINE
8
Image
10
17.792661
20
35.552096
11
16.714059
21
32.932668
0
LINE
8
Image
10
16.714059
20
32.932668
11
16.029623
21
30.635951
0
LINE
8
Image
10
16.029623
20
30.635951
11
15.650058
21
28.117594
0
LINE
8
Image
10
15.650058
20
28.117594
11
15.531350
21
25.511814
0
LINE
8
Image
10
15.531350
20
25.511814
11
15.673015
21
22.927877
0
LINE
8
Image
10
15.673015
20
22.927877
11
16.074569
21
20.475051
0
LINE
8
Image
10
16.074569
20
20.475051
11
17.128451
21
17.138599
0
LINE
8
Image
10
17.128451
20
17.138599
11
18.702986
21
14.005967
0
LINE
8
Image
10
18.702986
20
14.005967
11
20.736133
21
11.133737
0
LINE
8
Image
10
20.736133
20
11.133737
11
23.165851
21
8.578489
0
LINE
8
Image
10
23.165851
20
8.578489
11
25.930101
21
6.396805
0
LINE
8
Image
10
25.930101
20
6.396805
11
28.966841
21
4.645268
0
LINE
8
Image
10
28.966841
20
4.645268
11
32.214031
21
3.380457
0
LINE
8
Image
10
32.214031
20
3.380457
11
35.609631
21
2.658956
0
LINE
8
Image
10
35.609631
20
2.658956
11
38.264078
21
2.282901
0
LINE
8
Image
10
38.264078
20
2.282901
11
41.127835
21
2.595302
0
LINE
8
Image
10
41.127835
20
2.595302
11
41.127835
21
2.595302
0
LINE
8
Image
10
57.265194
20
11.882488
11
58.031258
21
12.657289
0
LINE
8
Image
10
58.031258
20
12.657289
11
58.826675
21
13.831499
0
LINE
8
Image
10
58.826675
20
13.831499
11
59.642998
21
15.290140
0
LINE
8
Image
10
59.642998
20
15.290140
11
56.661283
21
15.290140
0
LINE
8
Image
10
56.661283
20
15.290140
11
53.861079
21
15.500882
0
LINE
8
Image
10
53.861079
20
15.500882
11
50.895650
21
16.103502
0
LINE
8
Image
10
50.895650
20
16.103502
11
47.934496
21
17.053593
0
LINE
8
Image
10
47.934496
20
17.053593
11
45.147118
21
18.306746
0
LINE
8
Image
10
45.147118
20
18.306746
11
42.840930
21
19.519055
0
LINE
8
Image
10
42.840930
20
19.519055
11
42.815530
21
21.373342
0
LINE
8
Image
10
42.815530
20
21.373342
11
42.616295
21
23.017771
0
LINE
8
Image
10
42.616295
20
23.017771
11
42.072743
21
24.562504
0
LINE
8
Image
10
42.072743
20
24.562504
11
41.196781
21
25.982672
0
LINE
8
Image
10
41.196781
20
25.982672
11
40.000317
21
27.253406
0
LINE
8
Image
10
40.000317
20
27.253406
11
38.811799
21
28.176614
0
LINE
8
Image
10
38.811799
20
28.176614
11
37.678858
21
28.734683
0
LINE
8
Image
10
37.678858
20
28.734683
11
36.390545
21
28.999286
0
LINE
8
Image
10
36.390545
20
28.999286
11
34.735911
21
29.042098
0
LINE
8
Image
10
34.735911
20
29.042098
11
32.162313
21
29.020667
0
LINE
8
Image
10
32.162313
20
29.020667
11
31.449267
21
29.682805
0
LINE
8
Image
10
31.449267
20
29.682805
11
30.271803
21
31.300218
0
LINE
8
Image
10
30.271803
20
31.300218
11
28.955744
21
33.388668
0
LINE
8
Image
10
28.955744
20
33.388668
11
27.826914
21
35.463917
0
LINE
8
Image
10
27.826914
20
35.463917
11
26.990948
21
36.782664
0
LINE
8
Image
10
26.990948
20
36.782664
11
26.552381
21
37.117519
0
LINE
8
Image
10
26.552381
20
37.117519
11
26.043730
21
37.293868
0
LINE
8
Image
10
26.043730
20
37.293868
11
24.912713
21
37.823660
0
LINE
8
Image
10
24.912713
20
37.823660
11
23.584173
21
38.819273
0
LINE
8
Image
10
23.584173
20
38.819273
11
22.114973
21
40.146607
0
LINE
8
Image
10
22.114973
20
40.146607
11
22.377405
21
38.213500
0
LINE
8
Image
10
22.377405
20
38.213500
11
22.940996
21
35.587638
0
LINE
8
Image
10
22.940996
20
35.587638
11
23.930100
21
32.921860
0
LINE
8
Image
10
23.930100
20
32.921860
11
25.357356
21
30.187922
0
LINE
8
Image
10
25.357356
20
30.187922
11
27.235404
21
27.357580
0
LINE
8
Image
10
27.235404
20
27.357580
11
27.984287
21
26.289711
0
LINE
8
Image
10
27.984287
20
26.289711
11
28.341705
21
25.578094
0
LINE
8
Image
10
28.341705
20
25.578094
11
28.382813
21
24.974746
0
LINE
8
Image
10
28.382813
20
24.974746
11
28.182767
21
24.231683
0
LINE
8
Image
10
28.182767
20
24.231683
11
27.962736
21
22.928343
0
LINE
8
Image
10
27.962736
20
22.928343
11
27.997008
21
21.353833
0
LINE
8
Image
10
27.997008
20
21.353833
11
28.260087
21
19.778241
0
LINE
8
Image
10
28.260087
20
19.778241
11
28.726480
21
18.471655
0
LINE
8
Image
10
28.726480
20
18.471655
11
29.534739
21
17.346714
0
LINE
8
Image
10
29.534739
20
17.346714
11
30.724097
21
16.192844
0
LINE
8
Image
10
30.724097
20
16.192844
11
32.062629
21
15.206411
0
LINE
8
Image
10
32.062629
20
15.206411
11
33.318411
21
14.583780
0
LINE
8
Image
10
33.318411
20
14.583780
11
34.655340
21
14.338420
0
LINE
8
Image
10
34.655340
20
14.338420
11
36.208590
21
14.348875
0
LINE
8
Image
10
36.208590
20
14.348875
11
37.743977
21
14.595643
0
LINE
8
Image
10
37.743977
20
14.595643
11
39.027318
21
15.059220
0
LINE
8
Image
10
39.027318
20
15.059220
11
39.630276
21
15.309327
0
LINE
8
Image
10
39.630276
20
15.309327
11
40.250962
21
15.298535
0
LINE
8
Image
10
40.250962
20
15.298535
11
42.656489
21
14.245006
0
LINE
8
Image
10
42.656489
20
14.245006
11
45.959185
21
12.756712
0
LINE
8
Image
10
45.959185
20
12.756712
11
48.918989
21
11.779751
0
LINE
8
Image
10
48.918989
20
11.779751
11
51.650071
21
11.284588
0
LINE
8
Image
10
51.650071
20
11.284588
11
54.266600
21
11.241689
0
LINE
8
Image
10
54.266600
20
11.241689
11
56.076989
21
11.491979
0
LINE
8
Image
10
56.076989
20
11.491979
11
57.265207
21
11.882494
0
LINE
8
Image
10
57.265207
20
11.882494
11
57.265194
21
11.882488
0
LINE
8
Image
10
33.661424
20
16.896148
11
32.625097
21
17.386750
0
LINE
8
Image
10
32.625097
20
17.386750
11
31.735614
21
18.079880
0
LINE
8
Image
10
31.735614
20
18.079880
11
31.011694
21
18.932556
0
LINE
8
Image
10
31.011694
20
18.932556
11
30.472057
21
19.901795
0
LINE
8
Image
10
30.472057
20
19.901795
11
30.135422
21
20.944613
0
LINE
8
Image
10
30.135422
20
20.944613
11
30.020508
21
22.018028
0
LINE
8
Image
10
30.020508
20
22.018028
11
30.146036
21
23.079057
0
LINE
8
Image
10
30.146036
20
23.079057
11
30.530724
21
24.084718
0
LINE
8
Image
10
30.530724
20
24.084718
11
31.070267
21
24.908428
0
LINE
8
Image
10
31.070267
20
24.908428
11
31.705157
21
25.583268
0
LINE
8
Image
10
31.705157
20
25.583268
11
32.417435
21
26.113428
0
LINE
8
Image
10
32.417435
20
26.113428
11
33.189141
21
26.503101
0
LINE
8
Image
10
33.189141
20
26.503101
11
34.839002
21
26.877749
0
LINE
8
Image
10
34.839002
20
26.877749
11
36.511067
21
26.740744
0
LINE
8
Image
10
36.511067
20
26.740744
11
38.061660
21
26.125618
0
LINE
8
Image
10
38.061660
20
26.125618
11
39.347109
21
25.065903
0
LINE
8
Image
10
39.347109
20
25.065903
11
39.845506
21
24.379803
0
LINE
8
Image
10
39.845506
20
24.379803
11
40.223739
21
23.595129
0
LINE
8
Image
10
40.223739
20
23.595129
11
40.463849
21
22.716075
0
LINE
8
Image
10
40.463849
20
22.716075
11
40.547877
21
21.746830
0
LINE
8
Image
10
40.547877
20
21.746830
11
40.400360
21
20.403352
0
LINE
8
Image
10
40.400360
20
20.403352
11
39.980619
21
19.222287
0
LINE
8
Image
10
39.980619
20
19.222287
11
39.322867
21
18.227734
0
LINE
8
Image
10
39.322867
20
18.227734
11
38.461318
21
17.443795
0
LINE
8
Image
10
38.461318
20
17.443795
11
37.430186
21
16.894567
0
LINE
8
Image
10
37.430186
20
16.894567
11
36.263684
21
16.604150
0
LINE
8
Image
10
36.263684
20
16.604150
11
34.996025
21
16.596644
0
LINE
8
Image
10
34.996025
20
16.596644
11
33.661424
21
16.896148
0
LINE
8
Image
10
33.661424
20
16.896148
11
33.661424
21
16.896148
0
LINE
8
Image
10
36.731031
20
17.759581
11
37.201332
21
17.848255
0
LINE
8
Image
10
37.201332
20
17.848255
11
37.678937
21
18.095594
0
LINE
8
Image
10
37.678937
20
18.095594
11
38.569744
21
18.954166
0
LINE
8
Image
10
38.569744
20
18.954166
11
39.230823
21
20.111095
0
LINE
8
Image
10
39.230823
20
20.111095
11
39.489545
21
21.342180
0
LINE
8
Image
10
39.489545
20
21.342180
11
39.409307
21
22.332992
0
LINE
8
Image
10
39.409307
20
22.332992
11
39.174355
21
23.219985
0
LINE
8
Image
10
39.174355
20
23.219985
11
38.793327
21
23.994439
0
LINE
8
Image
10
38.793327
20
23.994439
11
38.274864
21
24.647635
0
LINE
8
Image
10
38.274864
20
24.647635
11
37.627606
21
25.170854
0
LINE
8
Image
10
37.627606
20
25.170854
11
36.860191
21
25.555376
0
LINE
8
Image
10
36.860191
20
25.555376
11
35.981261
21
25.792484
0
LINE
8
Image
10
35.981261
20
25.792484
11
34.999455
21
25.873457
0
LINE
8
Image
10
34.999455
20
25.873457
11
33.485373
21
25.607766
0
LINE
8
Image
10
33.485373
20
25.607766
11
32.336597
21
24.891426
0
LINE
8
Image
10
32.336597
20
24.891426
11
31.568602
21
23.845537
0
LINE
8
Image
10
31.568602
20
23.845537
11
31.196864
21
22.591198
0
LINE
8
Image
10
31.196864
20
22.591198
11
31.236857
21
21.249508
0
LINE
8
Image
10
31.236857
20
21.249508
11
31.704057
21
19.941568
0
LINE
8
Image
10
31.704057
20
19.941568
11
32.613938
21
18.788477
0
LINE
8
Image
10
32.613938
20
18.788477
11
33.981977
21
17.911335
0
LINE
8
Image
10
33.981977
20
17.911335
11
34.895346
21
17.621214
0
LINE
8
Image
10
34.895346
20
17.621214
11
35.549652
21
17.596055
0
LINE
8
Image
10
35.549652
20
17.596055
11
36.731031
21
17.759581
0
LINE
8
Image
10
36.731031
20
17.759581
11
36.731031
21
17.759581
0
LINE
8
Image
10
33.531162
20
18.604661
11
32.638653
21
19.317246
0
LINE
8
Image
10
32.638653
20
19.317246
11
32.053420
21
20.235508
0
LINE
8
Image
10
32.053420
20
20.235508
11
31.764759
21
21.275648
0
LINE
8
Image
10
31.764759
20
21.275648
11
31.761968
21
22.353867
0
LINE
8
Image
10
31.761968
20
22.353867
11
32.034343
21
23.386365
0
LINE
8
Image
10
32.034343
20
23.386365
11
32.571182
21
24.289343
0
LINE
8
Image
10
32.571182
20
24.289343
11
33.361781
21
24.979001
0
LINE
8
Image
10
33.361781
20
24.979001
11
34.395438
21
25.371538
0
LINE
8
Image
10
34.395438
20
25.371538
11
35.260091
21
25.429044
0
LINE
8
Image
10
35.260091
20
25.429044
11
36.107013
21
25.293020
0
LINE
8
Image
10
36.107013
20
25.293020
11
36.906190
21
24.986647
0
LINE
8
Image
10
36.906190
20
24.986647
11
37.627609
21
24.533103
0
LINE
8
Image
10
37.627609
20
24.533103
11
38.241258
21
23.955567
0
LINE
8
Image
10
38.241258
20
23.955567
11
38.717122
21
23.277220
0
LINE
8
Image
10
38.717122
20
23.277220
11
39.025190
21
22.521239
0
LINE
8
Image
10
39.025190
20
22.521239
11
39.135448
21
21.710805
0
LINE
8
Image
10
39.135448
20
21.710805
11
38.980899
21
20.805616
0
LINE
8
Image
10
38.980899
20
20.805616
11
38.576677
21
19.849257
0
LINE
8
Image
10
38.576677
20
19.849257
11
38.016084
21
19.014868
0
LINE
8
Image
10
38.016084
20
19.014868
11
37.392423
21
18.475592
0
LINE
8
Image
10
37.392423
20
18.475592
11
36.539116
21
18.206162
0
LINE
8
Image
10
36.539116
20
18.206162
11
35.493838
21
18.141784
0
LINE
8
Image
10
35.493838
20
18.141784
11
34.432537
21
18.276577
0
LINE
8
Image
10
34.432537
20
18.276577
11
33.531162
21
18.604661
0
LINE
8
Image
10
33.531162
20
18.604661
11
33.531162
21
18.604661
0
LINE
8
Image
10
37.461077
20
19.930368
11
37.917677
21
20.745683
0
LINE
8
Image
10
37.917677
20
20.745683
11
38.049200
21
21.672039
0
LINE
8
Image
10
38.049200
20
21.672039
11
37.858211
21
22.628175
0
LINE
8
Image
10
37.858211
20
22.628175
11
37.347277
21
23.532832
0
LINE
8
Image
10
37.347277
20
23.532832
11
36.667066
21
24.127489
0
LINE
8
Image
10
36.667066
20
24.127489
11
35.863637
21
24.421163
0
LINE
8
Image
10
35.863637
20
24.421163
11
35.010519
21
24.444204
0
LINE
8
Image
10
35.010519
20
24.444204
11
34.181239
21
24.226962
0
LINE
8
Image
10
34.181239
20
24.226962
11
33.449325
21
23.799788
0
LINE
8
Image
10
33.449325
20
23.799788
11
32.888305
21
23.193032
0
LINE
8
Image
10
32.888305
20
23.193032
11
32.571708
21
22.437043
0
LINE
8
Image
10
32.571708
20
22.437043
11
32.573062
21
21.562173
0
LINE
8
Image
10
32.573062
20
21.562173
11
32.852279
21
20.641696
0
LINE
8
Image
10
32.852279
20
20.641696
11
33.217594
21
19.958599
0
LINE
8
Image
10
33.217594
20
19.958599
11
34.180942
21
19.229511
0
LINE
8
Image
10
34.180942
20
19.229511
11
35.336011
21
18.980934
0
LINE
8
Image
10
35.336011
20
18.980934
11
36.492743
21
19.214132
0
LINE
8
Image
10
36.492743
20
19.214132
11
37.461077
21
19.930368
0
LINE
8
Image
10
37.461077
20
19.930368
11
37.461077
21
19.930368
0
LINE
8
Image
10
59.742532
20
16.561506
11
60.065625
21
16.852082
0
LINE
8
Image
10
60.065625
20
16.852082
11
60.405404
21
17.450036
0
LINE
8
Image
10
60.405404
20
17.450036
11
61.074583
21
19.351623
0
LINE
8
Image
10
61.074583
20
19.351623
11
61.629203
21
21.833363
0
LINE
8
Image
10
61.629203
20
21.833363
11
61.948400
21
24.462349
0
LINE
8
Image
10
61.948400
20
24.462349
11
61.946429
21
27.297008
0
LINE
8
Image
10
61.946429
20
27.297008
11
61.566477
21
30.062718
0
LINE
8
Image
10
61.566477
20
30.062718
11
60.794184
21
32.828413
0
LINE
8
Image
10
60.794184
20
32.828413
11
59.615191
21
35.663028
0
LINE
8
Image
10
59.615191
20
35.663028
11
58.021266
21
38.573441
0
LINE
8
Image
10
58.021266
20
38.573441
11
55.865846
21
37.468736
0
LINE
8
Image
10
55.865846
20
37.468736
11
54.069853
21
36.614884
0
LINE
8
Image
10
54.069853
20
36.614884
11
53.527634
21
36.609861
0
LINE
8
Image
10
53.527634
20
36.609861
11
52.960777
21
36.828395
0
LINE
8
Image
10
52.960777
20
36.828395
11
50.539047
21
37.695775
0
LINE
8
Image
10
50.539047
20
37.695775
11
49.278035
21
37.927799
0
LINE
8
Image
10
49.278035
20
37.927799
11
49.030746
21
37.787055
0
LINE
8
Image
10
49.030746
20
37.787055
11
48.896380
21
37.454173
0
LINE
8
Image
10
48.896380
20
37.454173
11
48.560523
21
36.992272
0
LINE
8
Image
10
48.560523
20
36.992272
11
47.969057
21
36.809557
0
LINE
8
Image
10
47.969057
20
36.809557
11
46.646980
21
36.955192
0
LINE
8
Image
10
46.646980
20
36.955192
11
45.230226
21
37.334988
0
LINE
8
Image
10
45.230226
20
37.334988
11
43.971213
21
37.863282
0
LINE
8
Image
10
43.971213
20
37.863282
11
43.122356
21
38.454408
0
LINE
8
Image
10
43.122356
20
38.454408
11
42.157328
21
39.071626
0
LINE
8
Image
10
42.157328
20
39.071626
11
40.942697
21
39.301415
0
LINE
8
Image
10
40.942697
20
39.301415
11
39.712986
21
39.137459
0
LINE
8
Image
10
39.712986
20
39.137459
11
38.702720
21
38.573441
0
LINE
8
Image
10
38.702720
20
38.573441
11
37.986260
21
38.075145
0
LINE
8
Image
10
37.986260
20
38.075145
11
37.327182
21
37.867889
0
LINE
8
Image
10
37.327182
20
37.867889
11
36.834686
21
37.777470
0
LINE
8
Image
10
36.834686
20
37.777470
11
36.518733
21
37.560081
0
LINE
8
Image
10
36.518733
20
37.560081
11
35.750775
21
37.305191
0
LINE
8
Image
10
35.750775
20
37.305191
11
34.361061
21
37.267789
0
LINE
8
Image
10
34.361061
20
37.267789
11
33.029000
21
37.419373
0
LINE
8
Image
10
33.029000
20
37.419373
11
32.596904
21
37.557127
0
LINE
8
Image
10
32.596904
20
37.557127
11
32.434000
21
37.731440
0
LINE
8
Image
10
32.434000
20
37.731440
11
32.326298
21
37.924940
0
LINE
8
Image
10
32.326298
20
37.924940
11
31.977757
21
38.026221
0
LINE
8
Image
10
31.977757
20
38.026221
11
30.405529
21
37.970084
0
LINE
8
Image
10
30.405529
20
37.970084
11
28.208159
21
37.620887
0
LINE
8
Image
10
28.208159
20
37.620887
11
28.436206
21
36.819032
0
LINE
8
Image
10
28.436206
20
36.819032
11
29.262995
21
35.127158
0
LINE
8
Image
10
29.262995
20
35.127158
11
31.446602
21
31.475955
0
LINE
8
Image
10
31.446602
20
31.475955
11
32.076675
21
30.651701
0
LINE
8
Image
10
32.076675
20
30.651701
11
32.578152
21
30.244550
0
LINE
8
Image
10
32.578152
20
30.244550
11
33.191553
21
30.145239
0
LINE
8
Image
10
33.191553
20
30.145239
11
34.157398
21
30.244506
0
LINE
8
Image
10
34.157398
20
30.244506
11
36.031607
21
30.261814
0
LINE
8
Image
10
36.031607
20
30.261814
11
37.834848
21
29.845854
0
LINE
8
Image
10
37.834848
20
29.845854
11
39.511973
21
29.047479
0
LINE
8
Image
10
39.511973
20
29.047479
11
41.007833
21
27.917540
0
LINE
8
Image
10
41.007833
20
27.917540
11
42.267279
21
26.506887
0
LINE
8
Image
10
42.267279
20
26.506887
11
43.235163
21
24.866372
0
LINE
8
Image
10
43.235163
20
24.866372
11
43.856336
21
23.046846
0
LINE
8
Image
10
43.856336
20
23.046846
11
44.075649
21
21.099160
0
LINE
8
Image
10
44.075649
20
21.099160
11
44.136821
21
20.458428
0
LINE
8
Image
10
44.136821
20
20.458428
11
44.437211
21
19.985693
0
LINE
8
Image
10
44.437211
20
19.985693
11
45.152132
21
19.518689
0
LINE
8
Image
10
45.152132
20
19.518689
11
46.456896
21
18.895152
0
LINE
8
Image
10
46.456896
20
18.895152
11
49.936653
21
17.503685
0
LINE
8
Image
10
49.936653
20
17.503685
11
53.071471
21
16.582218
0
LINE
8
Image
10
53.071471
20
16.582218
11
56.596090
21
16.393535
0
LINE
8
Image
10
56.596090
20
16.393535
11
58.598788
21
16.431750
0
LINE
8
Image
10
58.598788
20
16.431750
11
59.742532
21
16.561501
0
LINE
8
Image
10
59.742532
20
16.561501
11
59.742532
21
16.561506
0
LINE
8
Image
10
47.813514
20
37.785095
11
48.490487
21
38.462707
0
LINE
8
Image
10
48.490487
20
38.462707
11
49.345760
21
39.650506
0
LINE
8
Image
10
49.345760
20
39.650506
11
51.313373
21
43.030642
0
LINE
8
Image
10
51.313373
20
43.030642
11
53.160693
21
46.873456
0
LINE
8
Image
10
53.160693
20
46.873456
11
54.332063
21
50.126900
0
LINE
8
Image
10
54.332063
20
50.126900
11
54.741182
21
51.434932
0
LINE
8
Image
10
54.741182
20
51.434932
11
55.078439
21
51.978981
0
LINE
8
Image
10
55.078439
20
51.978981
11
55.259403
21
51.881363
0
LINE
8
Image
10
55.259403
20
51.881363
11
55.341649
21
51.602149
0
LINE
8
Image
10
55.341649
20
51.602149
11
55.241358
21
50.580782
0
LINE
8
Image
10
55.241358
20
50.580782
11
54.201228
21
47.259202
0
LINE
8
Image
10
54.201228
20
47.259202
11
52.459951
21
43.323768
0
LINE
8
Image
10
52.459951
20
43.323768
11
51.483228
21
41.535083
0
LINE
8
Image
10
51.483228
20
41.535083
11
50.519433
21
40.084007
0
LINE
8
Image
10
50.519433
20
40.084007
11
49.864979
21
39.039785
0
LINE
8
Image
10
49.864979
20
39.039785
11
49.879938
21
38.760383
0
LINE
8
Image
10
49.879938
20
38.760383
11
50.097677
21
38.550642
0
LINE
8
Image
10
50.097677
20
38.550642
11
50.788013
21
38.266775
0
LINE
8
Image
10
50.788013
20
38.266775
11
51.454696
21
38.246884
0
LINE
8
Image
10
51.454696
20
38.246884
11
51.991385
21
38.472766
0
LINE
8
Image
10
51.991385
20
38.472766
11
52.291745
21
38.926221
0
LINE
8
Image
10
52.291745
20
38.926221
11
52.544797
21
39.505782
0
LINE
8
Image
10
52.544797
20
39.505782
11
52.804824
21
39.607640
0
LINE
8
Image
10
52.804824
20
39.607640
11
52.977959
21
39.280593
0
LINE
8
Image
10
52.977959
20
39.280593
11
52.970334
21
38.573441
0
LINE
8
Image
10
52.970334
20
38.573441
11
52.989069
21
37.694944
0
LINE
8
Image
10
52.989069
20
37.694944
11
53.230599
21
37.549474
0
LINE
8
Image
10
53.230599
20
37.549474
11
53.684057
21
37.515109
0
LINE
8
Image
10
53.684057
20
37.515109
11
54.697076
21
37.800855
0
LINE
8
Image
10
54.697076
20
37.800855
11
56.082523
21
38.625083
0
LINE
8
Image
10
56.082523
20
38.625083
11
57.769234
21
39.938283
0
LINE
8
Image
10
57.769234
20
39.938283
11
59.686046
21
41.690944
0
LINE
8
Image
10
59.686046
20
41.690944
11
61.567378
21
43.751312
0
LINE
8
Image
10
61.567378
20
43.751312
11
61.767744
21
44.177030
0
LINE
8
Image
10
61.767744
20
44.177030
11
61.361740
21
44.041491
0
LINE
8
Image
10
61.361740
20
44.041491
11
61.026484
21
43.922197
0
LINE
8
Image
10
61.026484
20
43.922197
11
61.083159
21
44.194472
0
LINE
8
Image
10
61.083159
20
44.194472
11
62.243683
21
45.675442
0
LINE
8
Image
10
62.243683
20
45.675442
11
63.115702
21
46.759545
0
LINE
8
Image
10
63.115702
20
46.759545
11
63.478401
21
47.446822
0
LINE
8
Image
10
63.478401
20
47.446822
11
63.392842
21
47.485845
0
LINE
8
Image
10
63.392842
20
47.485845
11
63.159883
21
47.292935
0
LINE
8
Image
10
63.159883
20
47.292935
11
62.394087
21
46.354661
0
LINE
8
Image
10
62.394087
20
46.354661
11
61.565563
21
45.360236
0
LINE
8
Image
10
61.565563
20
45.360236
11
61.096234
21
45.071349
0
LINE
8
Image
10
61.096234
20
45.071349
11
61.171222
21
45.527575
0
LINE
8
Image
10
61.171222
20
45.527575
11
61.651382
21
46.324596
0
LINE
8
Image
10
61.651382
20
46.324596
11
62.369103
21
47.433779
0
LINE
8
Image
10
62.369103
20
47.433779
11
62.424554
21
47.692376
0
LINE
8
Image
10
62.424554
20
47.692376
11
62.269906
21
47.752464
0
LINE
8
Image
10
62.269906
20
47.752464
11
61.306832
21
47.273569
0
LINE
8
Image
10
61.306832
20
47.273569
11
59.432919
21
45.990013
0
LINE
8
Image
10
59.432919
20
45.990013
11
57.773023
21
44.872865
0
LINE
8
Image
10
57.773023
20
44.872865
11
56.916480
21
44.450777
0
LINE
8
Image
10
56.916480
20
44.450777
11
56.822397
21
44.505778
0
LINE
8
Image
10
56.822397
20
44.505778
11
56.968667
21
44.741022
0
LINE
8
Image
10
56.968667
20
44.741022
11
58.034955
21
45.760870
0
LINE
8
Image
10
58.034955
20
45.760870
11
58.684954
21
46.395487
0
LINE
8
Image
10
58.684954
20
46.395487
11
59.130040
21
47.039018
0
LINE
8
Image
10
59.130040
20
47.039018
11
59.364566
21
47.747435
0
LINE
8
Image
10
59.364566
20
47.747435
11
59.382883
21
48.576713
0
LINE
8
Image
10
59.382883
20
48.576713
11
59.179342
21
49.582824
0
LINE
8
Image
10
59.179342
20
49.582824
11
58.748294
21
50.821742
0
LINE
8
Image
10
58.748294
20
50.821742
11
57.181085
21
54.221888
0
LINE
8
Image
10
57.181085
20
54.221888
11
55.542153
21
57.848176
0
LINE
8
Image
10
55.542153
20
57.848176
11
54.626357
21
60.473461
0
LINE
8
Image
10
54.626357
20
60.473461
11
54.250965
21
62.200467
0
LINE
8
Image
10
54.250965
20
62.200467
11
53.951279
21
62.957262
0
LINE
8
Image
10
53.951279
20
62.957262
11
53.769446
21
63.034482
0
LINE
8
Image
10
53.769446
20
63.034482
11
53.534083
21
62.944332
0
LINE
8
Image
10
53.534083
20
62.944332
11
52.806163
21
62.362162
0
LINE
8
Image
10
52.806163
20
62.362162
11
51.398347
21
61.396378
0
LINE
8
Image
10
51.398347
20
61.396378
11
49.597988
21
60.430231
0
LINE
8
Image
10
49.597988
20
60.430231
11
47.880545
21
59.693837
0
LINE
8
Image
10
47.880545
20
59.693837
11
46.721479
21
59.417309
0
LINE
8
Image
10
46.721479
20
59.417309
11
46.528659
21
59.477018
0
LINE
8
Image
10
46.528659
20
59.477018
11
46.616660
21
59.623723
0
LINE
8
Image
10
46.616660
20
59.623723
11
47.603424
21
60.151720
0
LINE
8
Image
10
47.603424
20
60.151720
11
49.326800
21
61.057017
0
LINE
8
Image
10
49.326800
20
61.057017
11
51.300974
21
62.270674
0
LINE
8
Image
10
51.300974
20
62.270674
11
52.925676
21
63.401623
0
LINE
8
Image
10
52.925676
20
63.401623
11
53.600637
21
64.058801
0
LINE
8
Image
10
53.600637
20
64.058801
11
53.388670
21
64.247642
0
LINE
8
Image
10
53.388670
20
64.247642
11
52.879048
21
64.326186
0
LINE
8
Image
10
52.879048
20
64.326186
11
52.102475
21
64.593136
0
LINE
8
Image
10
52.102475
20
64.593136
11
51.248693
21
65.234952
0
LINE
8
Image
10
51.248693
20
65.234952
11
50.779942
21
65.765788
0
LINE
8
Image
10
50.779942
20
65.765788
11
50.530415
21
66.270560
0
LINE
8
Image
10
50.530415
20
66.270560
11
50.458957
21
66.893907
0
LINE
8
Image
10
50.458957
20
66.893907
11
50.524415
21
67.780470
0
LINE
8
Image
10
50.524415
20
67.780470
11
50.984594
21
69.348155
0
LINE
8
Image
10
50.984594
20
69.348155
11
51.908483
21
70.601815
0
LINE
8
Image
10
51.908483
20
70.601815
11
53.182118
21
71.433311
0
LINE
8
Image
10
53.182118
20
71.433311
11
53.914476
21
71.656955
0
LINE
8
Image
10
53.914476
20
71.656955
11
54.691534
21
71.734507
0
LINE
8
Image
10
54.691534
20
71.734507
11
55.840745
21
71.845543
0
LINE
8
Image
10
55.840745
20
71.845543
11
55.976495
21
72.033055
0
LINE
8
Image
10
55.976495
20
72.033055
11
55.904779
21
72.351869
0
LINE
8
Image
10
55.904779
20
72.351869
11
55.360794
21
76.944390
0
LINE
8
Image
10
55.360794
20
76.944390
11
54.925415
21
80.535923
0
LINE
8
Image
10
54.925415
20
80.535923
11
54.580212
21
81.766495
0
LINE
8
Image
10
54.580212
20
81.766495
11
54.081450
21
82.941605
0
LINE
8
Image
10
54.081450
20
82.941605
11
52.942825
21
85.316436
0
LINE
8
Image
10
52.942825
20
85.316436
11
52.998063
21
85.425274
0
LINE
8
Image
10
52.998063
20
85.425274
11
53.359036
21
85.191556
0
LINE
8
Image
10
53.359036
20
85.191556
11
53.741290
21
84.987796
0
LINE
8
Image
10
53.741290
20
84.987796
11
54.245977
21
85.023840
0
LINE
8
Image
10
54.245977
20
85.023840
11
56.262175
21
85.991576
0
LINE
8
Image
10
56.262175
20
85.991576
11
58.461907
21
87.300759
0
LINE
8
Image
10
58.461907
20
87.300759
11
60.462190
21
88.672318
0
LINE
8
Image
10
60.462190
20
88.672318
11
62.039223
21
89.941073
0
LINE
8
Image
10
62.039223
20
89.941073
11
62.969204
21
90.941841
0
LINE
8
Image
10
62.969204
20
90.941841
11
63.554167
21
92.511075
0
LINE
8
Image
10
63.554167
20
92.511075
11
64.174537
21
95.014145
0
LINE
8
Image
10
64.174537
20
95.014145
11
64.603458
21
97.395123
0
LINE
8
Image
10
64.603458
20
97.395123
11
64.614074
21
98.598081
0
LINE
8
Image
10
64.614074
20
98.598081
11
63.742599
21
98.477228
0
LINE
8
Image
10
63.742599
20
98.477228
11
61.974625
21
97.734015
0
LINE
8
Image
10
61.974625
20
97.734015
11
59.758877
21
96.581928
0
LINE
8
Image
10
59.758877
20
96.581928
11
57.544080
21
95.234456
0
LINE
8
Image
10
57.544080
20
95.234456
11
55.057545
21
93.281204
0
LINE
8
Image
10
55.057545
20
93.281204
11
52.387627
21
90.786660
0
LINE
8
Image
10
52.387627
20
90.786660
11
49.587117
21
87.906651
0
LINE
8
Image
10
49.587117
20
87.906651
11
47.315296
21
88.652437
0
LINE
8
Image
10
47.315296
20
88.652437
11
45.464626
21
89.143328
0
LINE
8
Image
10
45.464626
20
89.143328
11
43.478483
21
89.462369
0
LINE
8
Image
10
43.478483
20
89.462369
11
41.424554
21
89.612780
0
LINE
8
Image
10
41.424554
20
89.612780
11
39.370522
21
89.597780
0
LINE
8
Image
10
39.370522
20
89.597780
11
37.384075
21
89.420589
0
LINE
8
Image
10
37.384075
20
89.420589
11
35.532897
21
89.084426
0
LINE
8
Image
10
35.532897
20
89.084426
11
33.884673
21
88.592511
0
LINE
8
Image
10
33.884673
20
88.592511
11
32.507091
21
87.948064
0
LINE
8
Image
10
32.507091
20
87.948064
11
31.229060
21
87.256712
0
LINE
8
Image
10
31.229060
20
87.256712
11
29.840771
21
89.187557
0
LINE
8
Image
10
29.840771
20
89.187557
11
27.401290
21
92.328917
0
LINE
8
Image
10
27.401290
20
92.328917
11
24.411842
21
95.354561
0
LINE
8
Image
10
24.411842
20
95.354561
11
21.177727
21
97.986934
0
LINE
8
Image
10
21.177727
20
97.986934
11
18.004242
21
99.948481
0
LINE
8
Image
10
18.004242
20
99.948481
11
16.450858
21
100.731769
0
LINE
8
Image
10
16.450858
20
100.731769
11
16.653444
21
98.315325
0
LINE
8
Image
10
16.653444
20
98.315325
11
17.042631
21
95.674279
0
LINE
8
Image
10
17.042631
20
95.674279
11
17.778061
21
93.495183
0
LINE
8
Image
10
17.778061
20
93.495183
11
18.950125
21
91.584217
0
LINE
8
Image
10
18.950125
20
91.584217
11
20.649217
21
89.747562
0
LINE
8
Image
10
20.649217
20
89.747562
11
22.959960
21
87.768545
0
LINE
8
Image
10
22.959960
20
87.768545
11
25.292970
21
86.025075
0
LINE
8
Image
10
25.292970
20
86.025075
11
27.641835
21
84.449343
0
LINE
8
Image
10
27.641835
20
84.449343
11
28.450419
21
85.208966
0
LINE
8
Image
10
28.450419
20
85.208966
11
29.061435
21
85.716981
0
LINE
8
Image
10
29.061435
20
85.716981
11
29.193653
21
85.760138
0
LINE
8
Image
10
29.193653
20
85.760138
11
29.210755
21
85.664401
0
LINE
8
Image
10
29.210755
20
85.664401
11
28.134148
21
83.917609
0
LINE
8
Image
10
28.134148
20
83.917609
11
27.510511
21
82.941028
0
LINE
8
Image
10
27.510511
20
82.941028
11
27.140166
21
81.962419
0
LINE
8
Image
10
27.140166
20
81.962419
11
26.920619
21
80.569765
0
LINE
8
Image
10
26.920619
20
80.569765
11
26.749373
21
78.351051
0
LINE
8
Image
10
26.749373
20
78.351051
11
26.238888
21
73.215082
0
LINE
8
Image
10
26.238888
20
73.215082
11
26.150516
21
72.247054
0
LINE
8
Image
10
26.150516
20
72.247054
11
26.387094
21
72.174159
0
LINE
8
Image
10
26.387094
20
72.174159
11
26.880111
21
72.273653
0
LINE
8
Image
10
26.880111
20
72.273653
11
27.665117
21
72.339352
0
LINE
8
Image
10
27.665117
20
72.339352
11
28.452180
21
72.169433
0
LINE
8
Image
10
28.452180
20
72.169433
11
29.208406
21
71.795409
0
LINE
8
Image
10
29.208406
20
71.795409
11
29.900901
21
71.248796
0
LINE
8
Image
10
29.900901
20
71.248796
11
30.496769
21
70.561108
0
LINE
8
Image
10
30.496769
20
70.561108
11
30.963116
21
69.763860
0
LINE
8
Image
10
30.963116
20
69.763860
11
31.267047
21
68.888565
0
LINE
8
Image
10
31.267047
20
68.888565
11
31.375668
21
67.966740
0
LINE
8
Image
10
31.375668
20
67.966740
11
31.224131
21
66.853669
0
LINE
8
Image
10
31.224131
20
66.853669
11
30.793510
21
65.881558
0
LINE
8
Image
10
30.793510
20
65.881558
11
30.119791
21
65.107311
0
LINE
8
Image
10
30.119791
20
65.107311
11
29.238959
21
64.587835
0
LINE
8
Image
10
29.238959
20
64.587835
11
29.091995
21
64.448094
0
LINE
8
Image
10
29.091995
20
64.448094
11
29.133754
21
64.221159
0
LINE
8
Image
10
29.133754
20
64.221159
11
29.749415
21
63.535180
0
LINE
8
Image
10
29.749415
20
63.535180
11
31.017896
21
62.588851
0
LINE
8
Image
10
31.017896
20
62.588851
11
32.871149
21
61.441123
0
LINE
8
Image
10
32.871149
20
61.441123
11
34.302179
21
60.534272
0
LINE
8
Image
10
34.302179
20
60.534272
11
34.899620
21
59.999587
0
LINE
8
Image
10
34.899620
20
59.999587
11
34.264587
21
60.137234
0
LINE
8
Image
10
34.264587
20
60.137234
11
32.757734
21
60.815249
0
LINE
8
Image
10
32.757734
20
60.815249
11
29.557321
21
62.606984
0
LINE
8
Image
10
29.557321
20
62.606984
11
28.457246
21
63.267854
0
LINE
8
Image
10
28.457246
20
63.267854
11
28.102096
21
61.840318
0
LINE
8
Image
10
28.102096
20
61.840318
11
27.664376
21
60.262901
0
LINE
8
Image
10
27.664376
20
60.262901
11
26.766174
21
58.123834
0
LINE
8
Image
10
26.766174
20
58.123834
11
25.548873
21
55.726300
0
LINE
8
Image
10
25.548873
20
55.726300
11
24.153854
21
53.373484
0
LINE
8
Image
10
24.153854
20
53.373484
11
23.159796
21
51.469537
0
LINE
8
Image
10
23.159796
20
51.469537
11
22.689095
21
49.669322
0
LINE
8
Image
10
22.689095
20
49.669322
11
22.608393
21
48.710936
0
LINE
8
Image
10
22.608393
20
48.710936
11
22.669963
21
48.068861
0
LINE
8
Image
10
22.669963
20
48.068861
11
22.919523
21
47.576386
0
LINE
8
Image
10
22.919523
20
47.576386
11
23.402792
21
47.066799
0
LINE
8
Image
10
23.402792
20
47.066799
11
24.255596
21
46.170777
0
LINE
8
Image
10
24.255596
20
46.170777
11
24.341811
21
45.978722
0
LINE
8
Image
10
24.341811
20
45.978722
11
24.220163
21
45.952542
0
LINE
8
Image
10
24.220163
20
45.952542
11
23.410066
21
46.383519
0
LINE
8
Image
10
23.410066
20
46.383519
11
21.938872
21
47.435133
0
LINE
8
Image
10
21.938872
20
47.435133
11
19.997423
21
48.786169
0
LINE
8
Image
10
19.997423
20
48.786169
11
19.596675
21
48.877425
0
LINE
8
Image
10
19.596675
20
48.877425
11
19.437151
21
48.646357
0
LINE
8
Image
10
19.437151
20
48.646357
11
19.672433
21
47.813690
0
LINE
8
Image
10
19.672433
20
47.813690
11
20.407288
21
46.674706
0
LINE
8
Image
10
20.407288
20
46.674706
11
21.417656
21
45.266446
0
LINE
8
Image
10
21.417656
20
45.266446
11
21.444513
21
44.997336
0
LINE
8
Image
10
21.444513
20
44.997336
11
21.195137
21
44.923433
0
LINE
8
Image
10
21.195137
20
44.923433
11
20.603920
21
45.462532
0
LINE
8
Image
10
20.603920
20
45.462532
11
19.607639
21
46.758663
0
LINE
8
Image
10
19.607639
20
46.758663
11
18.700295
21
47.886345
0
LINE
8
Image
10
18.700295
20
47.886345
11
18.424278
21
48.098296
0
LINE
8
Image
10
18.424278
20
48.098296
11
18.322905
21
48.020452
0
LINE
8
Image
10
18.322905
20
48.020452
11
18.581976
21
47.307570
0
LINE
8
Image
10
18.581976
20
47.307570
11
19.204848
21
46.398878
0
LINE
8
Image
10
19.204848
20
46.398878
11
19.846821
21
45.507223
0
LINE
8
Image
10
19.846821
20
45.507223
11
20.081201
21
44.917428
0
LINE
8
Image
10
20.081201
20
44.917428
11
20.042877
21
44.774003
0
LINE
8
Image
10
20.042877
20
44.774003
11
19.899453
21
44.751973
0
LINE
8
Image
10
19.899453
20
44.751973
11
19.293042
21
45.133340
0
LINE
8
Image
10
19.293042
20
45.133340
11
18.671107
21
45.628376
0
LINE
8
Image
10
18.671107
20
45.628376
11
19.042757
21
45.099823
0
LINE
8
Image
10
19.042757
20
45.099823
11
20.800971
21
42.974335
0
LINE
8
Image
10
20.800971
20
42.974335
11
22.732890
21
40.871366
0
LINE
8
Image
10
22.732890
20
40.871366
11
24.459586
21
39.183534
0
LINE
8
Image
10
24.459586
20
39.183534
11
25.602133
21
38.303456
0
LINE
8
Image
10
25.602133
20
38.303456
11
26.552981
21
38.014162
0
LINE
8
Image
10
26.552981
20
38.014162
11
27.258300
21
38.154913
0
LINE
8
Image
10
27.258300
20
38.154913
11
27.696975
21
38.712814
0
LINE
8
Image
10
27.696975
20
38.712814
11
27.847893
21
39.674969
0
LINE
8
Image
10
27.847893
20
39.674969
11
27.951521
21
40.391910
0
LINE
8
Image
10
27.951521
20
40.391910
11
28.200669
21
40.690105
0
LINE
8
Image
10
28.200669
20
40.690105
11
28.449820
21
40.379220
0
LINE
8
Image
10
28.449820
20
40.379220
11
28.553448
21
39.631773
0
LINE
8
Image
10
28.553448
20
39.631773
11
28.586521
21
39.072316
0
LINE
8
Image
10
28.586521
20
39.072316
11
28.727432
21
38.752302
0
LINE
8
Image
10
28.727432
20
38.752302
11
29.038721
21
38.607441
0
LINE
8
Image
10
29.038721
20
38.607441
11
29.582927
21
38.573441
0
LINE
8
Image
10
29.582927
20
38.573441
11
30.802396
21
38.650197
0
LINE
8
Image
10
30.802396
20
38.650197
11
31.125316
21
38.777889
0
LINE
8
Image
10
31.125316
20
38.777889
11
31.261722
21
38.993346
0
LINE
8
Image
10
31.261722
20
38.993346
11
30.989077
21
39.772213
0
LINE
8
Image
10
30.989077
20
39.772213
11
30.012634
21
41.156121
0
LINE
8
Image
10
30.012634
20
41.156121
11
28.614928
21
43.236600
0
LINE
8
Image
10
28.614928
20
43.236600
11
27.570969
21
45.177587
0
LINE
8
Image
10
27.570969
20
45.177587
11
26.956324
21
46.916117
0
LINE
8
Image
10
26.956324
20
46.916117
11
26.564652
21
48.588232
0
LINE
8
Image
10
26.564652
20
48.588232
11
26.466910
21
49.778879
0
LINE
8
Image
10
26.466910
20
49.778879
11
26.550436
21
50.063950
0
LINE
8
Image
10
26.550436
20
50.063950
11
26.734054
21
50.073010
0
LINE
8
Image
10
26.734054
20
50.073010
11
27.022404
21
49.697495
0
LINE
8
Image
10
27.022404
20
49.697495
11
27.142337
21
49.149001
0
LINE
8
Image
10
27.142337
20
49.149001
11
27.387326
21
47.939189
0
LINE
8
Image
10
27.387326
20
47.939189
11
28.053999
21
46.253500
0
LINE
8
Image
10
28.053999
20
46.253500
11
29.039911
21
44.316503
0
LINE
8
Image
10
29.039911
20
44.316503
11
30.242620
21
42.352769
0
LINE
8
Image
10
30.242620
20
42.352769
11
32.526699
21
38.920140
0
LINE
8
Image
10
32.526699
20
38.920140
11
32.908515
21
38.413678
0
LINE
8
Image
10
32.908515
20
38.413678
11
33.315923
21
38.143321
0
LINE
8
Image
10
33.315923
20
38.143321
11
33.894214
21
38.056412
0
LINE
8
Image
10
33.894214
20
38.056412
11
34.788675
21
38.100288
0
LINE
8
Image
10
34.788675
20
38.100288
11
36.604255
21
38.354188
0
LINE
8
Image
10
36.604255
20
38.354188
11
37.218299
21
38.573436
0
LINE
8
Image
10
37.218299
20
38.573436
11
37.676267
21
38.892882
0
LINE
8
Image
10
37.676267
20
38.892882
11
38.007976
21
39.341530
0
LINE
8
Image
10
38.007976
20
39.341530
11
38.243241
21
39.948379
0
LINE
8
Image
10
38.243241
20
39.948379
11
38.543705
21
41.752689
0
LINE
8
Image
10
38.543705
20
41.752689
11
38.693890
21
44.707355
0
LINE
8
Image
10
38.693890
20
44.707355
11
38.624465
21
48.196757
0
LINE
8
Image
10
38.624465
20
48.196757
11
38.366311
21
51.573619
0
LINE
8
Image
10
38.366311
20
51.573619
11
37.950307
21
54.190662
0
LINE
8
Image
10
37.950307
20
54.190662
11
37.664203
21
55.768241
0
LINE
8
Image
10
37.664203
20
55.768241
11
37.743078
21
56.334908
0
LINE
8
Image
10
37.743078
20
56.334908
11
38.099375
21
55.870158
0
LINE
8
Image
10
38.099375
20
55.870158
11
38.645538
21
54.353486
0
LINE
8
Image
10
38.645538
20
54.353486
11
38.969781
21
53.009664
0
LINE
8
Image
10
38.969781
20
53.009664
11
39.171662
21
51.412937
0
LINE
8
Image
10
39.171662
20
51.412937
11
39.307496
21
46.246348
0
LINE
8
Image
10
39.307496
20
46.246348
11
39.313158
21
40.337329
0
LINE
8
Image
10
39.313158
20
40.337329
11
41.077043
21
40.337329
0
LINE
8
Image
10
41.077043
20
40.337329
11
42.840930
21
40.337329
0
LINE
8
Image
10
42.840930
20
40.337329
11
42.863658
21
45.364406
0
LINE
8
Image
10
42.863658
20
45.364406
11
43.038042
21
49.978745
0
LINE
8
Image
10
43.038042
20
49.978745
11
43.287647
21
51.629017
0
LINE
8
Image
10
43.287647
20
51.629017
11
43.692186
21
53.287564
0
LINE
8
Image
10
43.692186
20
53.287564
11
44.425921
21
55.466667
0
LINE
8
Image
10
44.425921
20
55.466667
11
45.058437
21
56.638949
0
LINE
8
Image
10
45.058437
20
56.638949
11
45.476129
21
56.899897
0
LINE
8
Image
10
45.476129
20
56.899897
11
45.383155
21
56.465549
0
LINE
8
Image
10
45.383155
20
56.465549
11
44.486788
21
53.150818
0
LINE
8
Image
10
44.486788
20
53.150818
11
43.729604
21
48.909048
0
LINE
8
Image
10
43.729604
20
48.909048
11
43.538293
21
46.180874
0
LINE
8
Image
10
43.538293
20
46.180874
11
43.516755
21
42.877711
0
LINE
8
Image
10
43.516755
20
42.877711
11
43.647044
21
40.016814
0
LINE
8
Image
10
43.647044
20
40.016814
11
43.911211
21
38.615441
0
LINE
8
Image
10
43.911211
20
38.615441
11
45.348226
21
38.069167
0
LINE
8
Image
10
45.348226
20
38.069167
11
47.250658
21
37.555146
0
LINE
8
Image
10
47.250658
20
37.555146
11
47.813527
21
37.785095
0
LINE
8
Image
10
47.813527
20
37.785095
11
47.813514
21
37.785095
0
LINE
8
Image
10
36.470724
20
69.412614
11
36.049326
21
69.842713
0
LINE
8
Image
10
36.049326
20
69.842713
11
36.036844
21
70.134339
0
LINE
8
Image
10
36.036844
20
70.134339
11
36.367072
21
70.210798
0
LINE
8
Image
10
36.367072
20
70.210798
11
36.973807
21
69.995398
0
LINE
8
Image
10
36.973807
20
69.995398
11
37.490525
21
69.820425
0
LINE
8
Image
10
37.490525
20
69.820425
11
38.175455
21
69.862087
0
LINE
8
Image
10
38.175455
20
69.862087
11
40.900656
21
70.761225
0
LINE
8
Image
10
40.900656
20
70.761225
11
42.789432
21
70.160789
0
LINE
8
Image
10
42.789432
20
70.160789
11
44.291041
21
69.711424
0
LINE
8
Image
10
44.291041
20
69.711424
11
44.763202
21
69.733851
0
LINE
8
Image
10
44.763202
20
69.733851
11
45.165892
21
69.908681
0
LINE
8
Image
10
45.165892
20
69.908681
11
45.862423
21
70.252330
0
LINE
8
Image
10
45.862423
20
70.252330
11
46.271580
21
70.292790
0
LINE
8
Image
10
46.271580
20
70.292790
11
46.308582
21
70.065552
0
LINE
8
Image
10
46.308582
20
70.065552
11
45.888648
21
69.606109
0
LINE
8
Image
10
45.888648
20
69.606109
11
45.144882
21
69.124535
0
LINE
8
Image
10
45.144882
20
69.124535
11
44.378616
21
68.947253
0
LINE
8
Image
10
44.378616
20
68.947253
11
43.501915
21
69.071421
0
LINE
8
Image
10
43.501915
20
69.071421
11
42.426844
21
69.494196
0
LINE
8
Image
10
42.426844
20
69.494196
11
41.723331
21
69.798329
0
LINE
8
Image
10
41.723331
20
69.798329
11
41.201487
21
69.899706
0
LINE
8
Image
10
41.201487
20
69.899706
11
40.680689
21
69.798329
0
LINE
8
Image
10
40.680689
20
69.798329
11
39.980314
21
69.494196
0
LINE
8
Image
10
39.980314
20
69.494196
11
38.926953
21
69.087721
0
LINE
8
Image
10
38.926953
20
69.087721
11
38.001666
21
68.938883
0
LINE
8
Image
10
38.001666
20
68.938883
11
37.188305
21
69.047306
0
LINE
8
Image
10
37.188305
20
69.047306
11
36.470724
21
69.412614
0
LINE
8
Image
10
36.470724
20
69.412614
11
36.470724
21
69.412614
0
LINE
8
Image
10
30.275402
20
73.500763
11
29.742273
21
74.049772
0
LINE
8
Image
10
29.742273
20
74.049772
11
29.262464
21
74.901145
0
LINE
8
Image
10
29.262464
20
74.901145
11
29.031382
21
76.002185
0
LINE
8
Image
10
29.031382
20
76.002185
11
29.220397
21
76.997557
0
LINE
8
Image
10
29.220397
20
76.997557
11
29.740747
21
77.834889
0
LINE
8
Image
10
29.740747
20
77.834889
11
30.503669
21
78.461808
0
LINE
8
Image
10
30.503669
20
78.461808
11
31.420400
21
78.825941
0
LINE
8
Image
10
31.420400
20
78.825941
11
32.402179
21
78.874915
0
LINE
8
Image
10
32.402179
20
78.874915
11
33.360241
21
78.556356
0
LINE
8
Image
10
33.360241
20
78.556356
11
34.205825
21
77.817892
0
LINE
8
Image
10
34.205825
20
77.817892
11
34.732787
21
76.858069
0
LINE
8
Image
10
34.732787
20
76.858069
11
34.878236
21
75.854968
0
LINE
8
Image
10
34.878236
20
75.854968
11
34.645406
21
74.881737
0
LINE
8
Image
10
34.645406
20
74.881737
11
34.037531
21
74.011524
0
LINE
8
Image
10
34.037531
20
74.011524
11
33.219642
21
73.458601
0
LINE
8
Image
10
33.219642
20
73.458601
11
32.224718
21
73.176231
0
LINE
8
Image
10
32.224718
20
73.176231
11
31.195668
21
73.183817
0
LINE
8
Image
10
31.195668
20
73.183817
11
30.275402
21
73.500763
0
LINE
8
Image
10
30.275402
20
73.500763
11
30.275402
21
73.500763
0
LINE
8
Image
10
33.488601
20
76.492509
11
33.737449
21
77.013287
0
LINE
8
Image
10
33.737449
20
77.013287
11
33.707049
21
77.530309
0
LINE
8
Image
10
33.707049
20
77.530309
11
33.436067
21
77.926429
0
LINE
8
Image
10
33.436067
20
77.926429
11
32.963166
21
78.084502
0
LINE
8
Image
10
32.963166
20
78.084502
11
32.531542
21
77.942433
0
LINE
8
Image
10
32.531542
20
77.942433
11
32.234791
21
77.573361
0
LINE
8
Image
10
32.234791
20
77.573361
11
32.113634
21
77.062984
0
LINE
8
Image
10
32.113634
20
77.062984
11
32.208795
21
76.497001
0
LINE
8
Image
10
32.208795
20
76.497001
11
32.439473
21
76.118533
0
LINE
8
Image
10
32.439473
20
76.118533
11
32.737098
21
75.991602
0
LINE
8
Image
10
32.737098
20
75.991602
11
33.090522
21
76.116245
0
LINE
8
Image
10
33.090522
20
76.116245
11
33.488601
21
76.492503
0
LINE
8
Image
10
33.488601
20
76.492503
11
33.488601
21
76.492509
0
LINE
8
Image
10
40.452071
20
73.359015
11
40.314540
21
73.653136
0
LINE
8
Image
10
40.314540
20
73.653136
11
40.444463
21
73.925571
0
LINE
8
Image
10
40.444463
20
73.925571
11
40.791084
21
74.125962
0
LINE
8
Image
10
40.791084
20
74.125962
11
41.303650
21
74.203950
0
LINE
8
Image
10
41.303650
20
74.203950
11
41.774666
21
74.079429
0
LINE
8
Image
10
41.774666
20
74.079429
11
41.870956
21
73.762978
0
LINE
8
Image
10
41.870956
20
73.762978
11
41.628408
21
73.437418
0
LINE
8
Image
10
41.628408
20
73.437418
11
41.231721
21
73.238977
0
LINE
8
Image
10
41.231721
20
73.238977
11
40.799931
21
73.201546
0
LINE
8
Image
10
40.799931
20
73.201546
11
40.452071
21
73.359015
0
LINE
8
Image
10
40.452071
20
73.359015
11
40.452071
21
73.359015
0
LINE
8
Image
10
47.827388
20
73.876778
11
47.110156
21
74.710504
0
LINE
8
Image
10
47.110156
20
74.710504
11
46.897869
21
75.788199
0
LINE
8
Image
10
46.897869
20
75.788199
11
46.961983
21
76.853355
0
LINE
8
Image
10
46.961983
20
76.853355
11
47.189741
21
77.613266
0
LINE
8
Image
10
47.189741
20
77.613266
11
47.634267
21
78.172144
0
LINE
8
Image
10
47.634267
20
78.172144
11
48.348683
21
78.634200
0
LINE
8
Image
10
48.348683
20
78.634200
11
49.403274
21
78.952019
0
LINE
8
Image
10
49.403274
20
78.952019
11
50.390882
21
78.853516
0
LINE
8
Image
10
50.390882
20
78.853516
11
51.253766
21
78.418902
0
LINE
8
Image
10
51.253766
20
78.418902
11
51.934185
21
77.728387
0
LINE
8
Image
10
51.934185
20
77.728387
11
52.374399
21
76.862182
0
LINE
8
Image
10
52.374399
20
76.862182
11
52.516667
21
75.900496
0
LINE
8
Image
10
52.516667
20
75.900496
11
52.303247
21
74.923540
0
LINE
8
Image
10
52.303247
20
74.923540
11
51.676399
21
74.011524
0
LINE
8
Image
10
51.676399
20
74.011524
11
50.800009
21
73.399397
0
LINE
8
Image
10
50.800009
20
73.399397
11
49.821995
21
73.171343
0
LINE
8
Image
10
49.821995
20
73.171343
11
48.808930
21
73.329693
0
LINE
8
Image
10
48.808930
20
73.329693
11
47.827388
21
73.876778
0
LINE
8
Image
10
47.827388
20
73.876778
11
47.827388
21
73.876778
0
LINE
8
Image
10
49.363581
20
76.492509
11
49.612429
21
77.013287
0
LINE
8
Image
10
49.612429
20
77.013287
11
49.582029
21
77.530309
0
LINE
8
Image
10
49.582029
20
77.530309
11
49.311046
21
77.926429
0
LINE
8
Image
10
49.311046
20
77.926429
11
48.838143
21
78.084502
0
LINE
8
Image
10
48.838143
20
78.084502
11
48.406521
21
77.942433
0
LINE
8
Image
10
48.406521
20
77.942433
11
48.109769
21
77.573361
0
LINE
8
Image
10
48.109769
20
77.573361
11
47.988613
21
77.062984
0
LINE
8
Image
10
47.988613
20
77.062984
11
48.083775
21
76.497001
0
LINE
8
Image
10
48.083775
20
76.497001
11
48.314452
21
76.118533
0
LINE
8
Image
10
48.314452
20
76.118533
11
48.612077
21
75.991602
0
LINE
8
Image
10
48.612077
20
75.991602
11
48.965502
21
76.116245
0
LINE
8
Image
10
48.965502
20
76.116245
11
49.363581
21
76.492503
0
LINE
8
Image
10
49.363581
20
76.492503
11
49.363581
21
76.492509
0
LINE
8
Image
10
59.363411
20
55.992557
11
60.716467
21
56.554272
0
LINE
8
Image
10
60.716467
20
56.554272
11
59.627994
21
57.874777
0
LINE
8
Image
10
59.627994
20
57.874777
11
58.539521
21
59.421315
0
LINE
8
Image
10
58.539521
20
59.421315
11
59.782874
21
60.138620
0
LINE
8
Image
10
59.782874
20
60.138620
11
62.772211
21
61.545794
0
LINE
8
Image
10
62.772211
20
61.545794
11
65.761737
21
62.948529
0
LINE
8
Image
10
65.761737
20
62.948529
11
67.005539
21
63.655153
0
LINE
8
Image
10
67.005539
20
63.655153
11
63.665015
21
67.712092
0
LINE
8
Image
10
63.665015
20
67.712092
11
61.335189
21
70.526961
0
LINE
8
Image
10
61.335189
20
70.526961
11
60.425532
21
71.893815
0
LINE
8
Image
10
60.425532
20
71.893815
11
62.435313
21
72.661151
0
LINE
8
Image
10
62.435313
20
72.661151
11
67.124570
21
74.034617
0
LINE
8
Image
10
67.124570
20
74.034617
11
71.880063
21
75.406010
0
LINE
8
Image
10
71.880063
20
75.406010
11
74.049093
21
76.168360
0
LINE
8
Image
10
74.049093
20
76.168360
11
74.544550
21
77.699597
0
LINE
8
Image
10
74.544550
20
77.699597
11
75.255573
21
80.905274
0
LINE
8
Image
10
75.255573
20
80.905274
11
75.949833
21
84.638265
0
LINE
8
Image
10
75.949833
20
84.638265
11
76.395005
21
87.751442
0
LINE
8
Image
10
76.395005
20
87.751442
11
76.639609
21
90.186448
0
LINE
8
Image
10
76.639609
20
90.186448
11
75.201603
21
89.956501
0
LINE
8
Image
10
75.201603
20
89.956501
11
72.258114
21
89.196331
0
LINE
8
Image
10
72.258114
20
89.196331
11
68.045251
21
87.736794
0
LINE
8
Image
10
68.045251
20
87.736794
11
63.143757
21
85.794637
0
LINE
8
Image
10
63.143757
20
85.794637
11
58.134375
21
83.586607
0
LINE
8
Image
10
58.134375
20
83.586607
11
55.436179
21
82.329570
0
LINE
8
Image
10
55.436179
20
82.329570
11
55.744712
21
81.000785
0
LINE
8
Image
10
55.744712
20
81.000785
11
55.965087
21
79.436425
0
LINE
8
Image
10
55.965087
20
79.436425
11
56.061664
21
77.541257
0
LINE
8
Image
10
56.061664
20
77.541257
11
56.223051
21
75.439639
0
LINE
8
Image
10
56.223051
20
75.439639
11
56.599246
21
73.378912
0
LINE
8
Image
10
56.599246
20
73.378912
11
56.932703
21
71.630317
0
LINE
8
Image
10
56.932703
20
71.630317
11
57.083277
21
69.802622
0
LINE
8
Image
10
57.083277
20
69.802622
11
57.042558
21
68.161348
0
LINE
8
Image
10
57.042558
20
68.161348
11
56.802139
21
66.972016
0
LINE
8
Image
10
56.802139
20
66.972016
11
56.731487
21
66.569243
0
LINE
8
Image
10
56.731487
20
66.569243
11
56.905736
21
66.179470
0
LINE
8
Image
10
56.905736
20
66.179470
11
58.248654
21
65.103417
0
LINE
8
Image
10
58.248654
20
65.103417
11
59.408035
21
64.188773
0
LINE
8
Image
10
59.408035
20
64.188773
11
59.775671
21
63.622948
0
LINE
8
Image
10
59.775671
20
63.622948
11
57.448301
21
62.140161
0
LINE
8
Image
10
57.448301
20
62.140161
11
55.697446
21
61.015936
0
LINE
8
Image
10
55.697446
20
61.015936
11
55.466105
21
60.583402
0
LINE
8
Image
10
55.466105
20
60.583402
11
55.497433
21
60.059436
0
LINE
8
Image
10
55.497433
20
60.059436
11
55.924143
21
58.679641
0
LINE
8
Image
10
55.924143
20
58.679641
11
56.610047
21
57.056625
0
LINE
8
Image
10
56.610047
20
57.056625
11
57.299725
21
55.736814
0
LINE
8
Image
10
57.299725
20
55.736814
11
57.737757
21
55.266636
0
LINE
8
Image
10
57.737757
20
55.266636
11
59.363411
21
55.992557
0
LINE
8
Image
10
59.363411
20
55.992557
11
59.363411
21
55.992557
0
LINE
8
Image
10
57.168523
20
62.794568
11
58.891612
21
63.732393
0
LINE
8
Image
10
58.891612
20
63.732393
11
57.675951
21
64.558455
0
LINE
8
Image
10
57.675951
20
64.558455
11
56.749338
21
65.139614
0
LINE
8
Image
10
56.749338
20
65.139614
11
56.143791
21
65.326768
0
LINE
8
Image
10
56.143791
20
65.326768
11
55.690735
21
65.116185
0
LINE
8
Image
10
55.690735
20
65.116185
11
55.221597
21
64.504134
0
LINE
8
Image
10
55.221597
20
64.504134
11
54.936602
21
63.758337
0
LINE
8
Image
10
54.936602
20
63.758337
11
54.852275
21
62.885202
0
LINE
8
Image
10
54.852275
20
62.885202
11
54.963918
21
62.159686
0
LINE
8
Image
10
54.963918
20
62.159686
11
55.266833
21
61.856745
0
LINE
8
Image
10
55.266833
20
61.856745
11
57.168523
21
62.794568
0
LINE
8
Image
10
57.168523
20
62.794568
11
57.168523
21
62.794568
0
LINE
8
Image
10
29.804203
20
65.897650
11
30.521616
21
66.963952
0
LINE
8
Image
10
30.521616
20
66.963952
11
30.701747
21
68.139811
0
LINE
8
Image
10
30.701747
20
68.139811
11
30.349723
21
69.353942
0
LINE
8
Image
10
30.349723
20
69.353942
11
29.470670
21
70.535065
0
LINE
8
Image
10
29.470670
20
70.535065
11
28.381041
21
71.376936
0
LINE
8
Image
10
28.381041
20
71.376936
11
27.409455
21
71.686842
0
LINE
8
Image
10
27.409455
20
71.686842
11
26.604714
21
71.538367
0
LINE
8
Image
10
26.604714
20
71.538367
11
26.015621
21
71.005098
0
LINE
8
Image
10
26.015621
20
71.005098
11
25.690978
21
70.160619
0
LINE
8
Image
10
25.690978
20
70.160619
11
25.679587
21
69.078517
0
LINE
8
Image
10
25.679587
20
69.078517
11
26.030251
21
67.832376
0
LINE
8
Image
10
26.030251
20
67.832376
11
26.791772
21
66.495782
0
LINE
8
Image
10
26.791772
20
66.495782
11
27.608760
21
65.520636
0
LINE
8
Image
10
27.608760
20
65.520636
11
28.304358
21
65.111544
0
LINE
8
Image
10
28.304358
20
65.111544
11
28.996771
21
65.245039
0
LINE
8
Image
10
28.996771
20
65.245039
11
29.804203
21
65.897650
0
LINE
8
Image
10
29.804203
20
65.897650
11
29.804203
21
65.897650
0
LINE
8
Image
10
55.348607
20
66.148708
11
55.919369
21
67.364433
0
LINE
8
Image
10
55.919369
20
67.364433
11
56.251223
21
68.638224
0
LINE
8
Image
10
56.251223
20
68.638224
11
56.309605
21
69.758078
0
LINE
8
Image
10
56.309605
20
69.758078
11
56.059955
21
70.511988
0
LINE
8
Image
10
56.059955
20
70.511988
11
55.503406
21
70.938891
0
LINE
8
Image
10
55.503406
20
70.938891
11
54.827406
21
71.085518
0
LINE
8
Image
10
54.827406
20
71.085518
11
54.085404
21
70.982254
0
LINE
8
Image
10
54.085404
20
70.982254
11
53.330848
21
70.659483
0
LINE
8
Image
10
53.330848
20
70.659483
11
52.617185
21
70.147590
0
LINE
8
Image
10
52.617185
20
70.147590
11
51.997863
21
69.476959
0
LINE
8
Image
10
51.997863
20
69.476959
11
51.526330
21
68.677976
0
LINE
8
Image
10
51.526330
20
68.677976
11
51.256035
21
67.781023
0
LINE
8
Image
10
51.256035
20
67.781023
11
51.203358
21
66.554383
0
LINE
8
Image
10
51.203358
20
66.554383
11
51.512961
21
65.697880
0
LINE
8
Image
10
51.512961
20
65.697880
11
52.196458
21
65.195628
0
LINE
8
Image
10
52.196458
20
65.195628
11
53.265458
21
65.031741
0
LINE
8
Image
10
53.265458
20
65.031741
11
54.014856
21
65.072225
0
LINE
8
Image
10
54.014856
20
65.072225
11
54.538920
21
65.232779
0
LINE
8
Image
10
54.538920
20
65.232779
11
54.947041
21
65.572055
0
LINE
8
Image
10
54.947041
20
65.572055
11
55.348607
21
66.148708
0
LINE
8
Image
10
55.348607
20
66.148708
11
55.348607
21
66.148708
 0 
ENDSEC
 0 
EOF