999
"DXF R12 Output" (www.mydxf.blogspot.com)
 0 
SECTION
 2 
HEADER
 9 
$ACADVER
 1 
AC1009
 9 
$EXTMIN
 10 
 0 
 20 
 0 
 9 
$EXTMAX
 10 
 8.5 
 20 
 11 
 0 
ENDSEC
 0 
SECTION
 2 
ENTITIES
0
LINE
8
Image
10
39.255960
20
5.919935
11
33.304510
21
9.612423
0
LINE
8
Image
10
33.304510
20
9.612423
11
27.882541
21
13.479217
0
LINE
8
Image
10
27.882541
20
13.479217
11
23.184382
21
17.371330
0
LINE
8
Image
10
23.184382
20
17.371330
11
19.404364
21
21.139773
0
LINE
8
Image
10
19.404364
20
21.139773
11
17.418417
21
23.253083
0
LINE
8
Image
10
17.418417
20
23.253083
11
16.431012
21
24.080557
0
LINE
8
Image
10
16.431012
20
24.080557
11
16.260858
21
24.095992
0
LINE
8
Image
10
16.260858
20
24.095992
11
16.239790
21
24.256947
0
LINE
8
Image
10
16.239790
20
24.256947
11
15.709239
21
25.329734
0
LINE
8
Image
10
15.709239
20
25.329734
11
14.314152
21
27.537445
0
LINE
8
Image
10
14.314152
20
27.537445
11
12.883824
21
29.752231
0
LINE
8
Image
10
12.883824
20
29.752231
11
11.755748
21
31.729121
0
LINE
8
Image
10
11.755748
20
31.729121
11
10.877965
21
33.660930
0
LINE
8
Image
10
10.877965
20
33.660930
11
10.198517
21
35.740475
0
LINE
8
Image
10
10.198517
20
35.740475
11
9.665447
21
38.160572
0
LINE
8
Image
10
9.665447
20
38.160572
11
9.226796
21
41.114036
0
LINE
8
Image
10
9.226796
20
41.114036
11
8.424918
21
49.392332
0
LINE
8
Image
10
8.424918
20
49.392332
11
6.117696
21
79.091490
0
LINE
8
Image
10
6.117696
20
79.091490
11
4.865817
21
97.897803
0
LINE
8
Image
10
4.865817
20
97.897803
11
4.865817
21
98.961231
0
LINE
8
Image
10
4.865817
20
98.961231
11
9.010951
21
99.933165
0
LINE
8
Image
10
9.010951
20
99.933165
11
17.043649
21
101.649684
0
LINE
8
Image
10
17.043649
20
101.649684
11
24.451930
21
102.857485
0
LINE
8
Image
10
24.451930
20
102.857485
11
31.661263
21
103.613735
0
LINE
8
Image
10
31.661263
20
103.613735
11
39.097118
21
103.975601
0
LINE
8
Image
10
39.097118
20
103.975601
11
43.739194
21
104.010066
0
LINE
8
Image
10
43.739194
20
104.010066
11
48.344490
21
103.887348
0
LINE
8
Image
10
48.344490
20
103.887348
11
52.950403
21
103.603173
0
LINE
8
Image
10
52.950403
20
103.603173
11
57.594332
21
103.153270
0
LINE
8
Image
10
57.594332
20
103.153270
11
62.313674
21
102.533364
0
LINE
8
Image
10
62.313674
20
102.533364
11
67.145828
21
101.739184
0
LINE
8
Image
10
67.145828
20
101.739184
11
77.298167
21
99.610906
0
LINE
8
Image
10
77.298167
20
99.610906
11
81.115332
21
98.707747
0
LINE
8
Image
10
81.115332
20
98.707747
11
80.930727
21
97.421537
0
LINE
8
Image
10
80.930727
20
97.421537
11
80.546251
21
92.783942
0
LINE
8
Image
10
80.546251
20
92.783942
11
78.908179
21
69.028710
0
LINE
8
Image
10
78.908179
20
69.028710
11
77.189616
21
46.393725
0
LINE
8
Image
10
77.189616
20
46.393725
11
76.640318
21
41.129551
0
LINE
8
Image
10
76.640318
20
41.129551
11
75.970834
21
37.251181
0
LINE
8
Image
10
75.970834
20
37.251181
11
75.016694
21
34.040500
0
LINE
8
Image
10
75.016694
20
34.040500
11
73.613425
21
30.779394
0
LINE
8
Image
10
73.613425
20
30.779394
11
72.181139
21
28.232673
0
LINE
8
Image
10
72.181139
20
28.232673
11
70.263261
21
25.545796
0
LINE
8
Image
10
70.263261
20
25.545796
11
67.901660
21
22.759368
0
LINE
8
Image
10
67.901660
20
22.759368
11
65.138206
21
19.913993
0
LINE
8
Image
10
65.138206
20
19.913993
11
62.014769
21
17.050278
0
LINE
8
Image
10
62.014769
20
17.050278
11
58.573218
21
14.208826
0
LINE
8
Image
10
58.573218
20
14.208826
11
54.855424
21
11.430244
0
LINE
8
Image
10
54.855424
20
11.430244
11
50.903256
21
8.755137
0
LINE
8
Image
10
50.903256
20
8.755137
11
45.774361
21
5.561049
0
LINE
8
Image
10
45.774361
20
5.561049
11
42.853024
21
3.884056
0
LINE
8
Image
10
42.853024
20
3.884056
11
39.255960
21
5.919935
0
LINE
8
Image
10
39.255960
20
5.919935
11
39.255960
21
5.919935
0
LINE
8
Image
10
45.429629
20
6.045866
11
47.226129
21
7.220668
0
LINE
8
Image
10
47.226129
20
7.220668
11
47.597033
21
7.605950
0
LINE
8
Image
10
47.597033
20
7.605950
11
47.608020
21
7.849570
0
LINE
8
Image
10
47.608020
20
7.849570
11
47.238638
21
8.026803
0
LINE
8
Image
10
47.238638
20
8.026803
11
46.879338
21
7.948689
0
LINE
8
Image
10
46.879338
20
7.948689
11
46.662045
21
7.691859
0
LINE
8
Image
10
46.662045
20
7.691859
11
46.718680
21
7.332945
0
LINE
8
Image
10
46.718680
20
7.332945
11
46.776713
21
7.124911
0
LINE
8
Image
10
46.776713
20
7.124911
11
46.536435
21
7.208930
0
LINE
8
Image
10
46.536435
20
7.208930
11
45.905575
21
7.194108
0
LINE
8
Image
10
45.905575
20
7.194108
11
44.977062
21
6.794921
0
LINE
8
Image
10
44.977062
20
6.794921
11
44.069603
21
6.353657
0
LINE
8
Image
10
44.069603
20
6.353657
11
43.489367
21
6.237664
0
LINE
8
Image
10
43.489367
20
6.237664
11
43.304279
21
10.707849
0
LINE
8
Image
10
43.304279
20
10.707849
11
43.215384
21
20.456490
0
LINE
8
Image
10
43.215384
20
20.456490
11
43.240025
21
30.217938
0
LINE
8
Image
10
43.240025
20
30.217938
11
43.395544
21
34.726544
0
LINE
8
Image
10
43.395544
20
34.726544
11
46.140762
21
35.577628
0
LINE
8
Image
10
46.140762
20
35.577628
11
49.432873
21
36.581408
0
LINE
8
Image
10
49.432873
20
36.581408
11
49.774886
21
36.645170
0
LINE
8
Image
10
49.774886
20
36.645170
11
49.936883
21
36.482907
0
LINE
8
Image
10
49.936883
20
36.482907
11
49.829342
21
35.065363
0
LINE
8
Image
10
49.829342
20
35.065363
11
49.566488
21
33.753712
0
LINE
8
Image
10
49.566488
20
33.753712
11
49.204553
21
32.943534
0
LINE
8
Image
10
49.204553
20
32.943534
11
48.694883
21
32.568678
0
LINE
8
Image
10
48.694883
20
32.568678
11
47.988818
21
32.562990
0
LINE
8
Image
10
47.988818
20
32.562990
11
47.257094
21
32.506888
0
LINE
8
Image
10
47.257094
20
32.506888
11
46.820838
21
31.862838
0
LINE
8
Image
10
46.820838
20
31.862838
11
46.562050
21
31.066189
0
LINE
8
Image
10
46.562050
20
31.066189
11
46.569540
21
30.605642
0
LINE
8
Image
10
46.569540
20
30.605642
11
46.885437
21
30.393573
0
LINE
8
Image
10
46.885437
20
30.393573
11
47.551870
21
30.342356
0
LINE
8
Image
10
47.551870
20
30.342356
11
48.299317
21
30.452483
0
LINE
8
Image
10
48.299317
20
30.452483
11
48.610202
21
30.717257
0
LINE
8
Image
10
48.610202
20
30.717257
11
49.246615
21
31.280577
0
LINE
8
Image
10
49.246615
20
31.280577
11
50.895267
21
32.111482
0
LINE
8
Image
10
50.895267
20
32.111482
11
53.165272
21
33.034972
0
LINE
8
Image
10
53.165272
20
33.034972
11
55.665750
21
33.876047
0
LINE
8
Image
10
55.665750
20
33.876047
11
58.382298
21
34.517177
0
LINE
8
Image
10
58.382298
20
34.517177
11
60.767846
21
34.719491
0
LINE
8
Image
10
60.767846
20
34.719491
11
62.828939
21
34.482939
0
LINE
8
Image
10
62.828939
20
34.482939
11
64.572124
21
33.807470
0
LINE
8
Image
10
64.572124
20
33.807470
11
65.890332
21
33.146788
0
LINE
8
Image
10
65.890332
20
33.146788
11
66.015243
21
33.220205
0
LINE
8
Image
10
66.015243
20
33.220205
11
65.882625
21
33.542887
0
LINE
8
Image
10
65.882625
20
33.542887
11
65.344265
21
34.199044
0
LINE
8
Image
10
65.344265
20
34.199044
11
64.560964
21
34.821690
0
LINE
8
Image
10
64.560964
20
34.821690
11
63.464773
21
35.518718
0
LINE
8
Image
10
63.464773
20
35.518718
11
63.817552
21
36.236762
0
LINE
8
Image
10
63.817552
20
36.236762
11
64.086403
21
36.668635
0
LINE
8
Image
10
64.086403
20
36.668635
11
63.315913
21
36.222263
0
LINE
8
Image
10
63.315913
20
36.222263
11
62.618668
21
35.892175
0
LINE
8
Image
10
62.618668
20
35.892175
11
61.918492
21
35.755421
0
LINE
8
Image
10
61.918492
20
35.755421
11
61.262552
21
35.788895
0
LINE
8
Image
10
61.262552
20
35.788895
11
60.698015
21
35.969491
0
LINE
8
Image
10
60.698015
20
35.969491
11
60.272050
21
36.274103
0
LINE
8
Image
10
60.272050
20
36.274103
11
60.031825
21
36.679626
0
LINE
8
Image
10
60.031825
20
36.679626
11
60.024507
21
37.162954
0
LINE
8
Image
10
60.024507
20
37.162954
11
60.297264
21
37.700980
0
LINE
8
Image
10
60.297264
20
37.700980
11
60.387670
21
37.843911
0
LINE
8
Image
10
60.387670
20
37.843911
11
60.276218
21
37.767683
0
LINE
8
Image
10
60.276218
20
37.767683
11
59.546301
21
37.043981
0
LINE
8
Image
10
59.546301
20
37.043981
11
58.423186
21
36.166948
0
LINE
8
Image
10
58.423186
20
36.166948
11
57.046269
21
35.468742
0
LINE
8
Image
10
57.046269
20
35.468742
11
55.752674
21
35.085839
0
LINE
8
Image
10
55.752674
20
35.085839
11
54.879523
21
35.154718
0
LINE
8
Image
10
54.879523
20
35.154718
11
54.920563
21
35.737570
0
LINE
8
Image
10
54.920563
20
35.737570
11
55.440010
21
36.878842
0
LINE
8
Image
10
55.440010
20
36.878842
11
55.998528
21
38.023270
0
LINE
8
Image
10
55.998528
20
38.023270
11
55.950153
21
38.153209
0
LINE
8
Image
10
55.950153
20
38.153209
11
55.694613
21
38.039623
0
LINE
8
Image
10
55.694613
20
38.039623
11
55.014868
21
37.400009
0
LINE
8
Image
10
55.014868
20
37.400009
11
54.230895
21
36.393242
0
LINE
8
Image
10
54.230895
20
36.393242
11
52.662777
21
34.440242
0
LINE
8
Image
10
52.662777
20
34.440242
11
52.030615
21
34.005080
0
LINE
8
Image
10
52.030615
20
34.005080
11
51.432422
21
33.870139
0
LINE
8
Image
10
51.432422
20
33.870139
11
51.080174
21
33.922867
0
LINE
8
Image
10
51.080174
20
33.922867
11
50.864529
21
34.115573
0
LINE
8
Image
10
50.864529
20
34.115573
11
50.726866
21
35.128054
0
LINE
8
Image
10
50.726866
20
35.128054
11
50.830775
21
36.210608
0
LINE
8
Image
10
50.830775
20
36.210608
11
51.080598
21
37.046918
0
LINE
8
Image
10
51.080598
20
37.046918
11
51.237447
21
37.615044
0
LINE
8
Image
10
51.237447
20
37.615044
11
51.058014
21
37.942009
0
LINE
8
Image
10
51.058014
20
37.942009
11
50.641542
21
37.968883
0
LINE
8
Image
10
50.641542
20
37.968883
11
50.087276
21
37.636737
0
LINE
8
Image
10
50.087276
20
37.636737
11
49.098905
21
37.034897
0
LINE
8
Image
10
49.098905
20
37.034897
11
47.558323
21
36.340386
0
LINE
8
Image
10
47.558323
20
36.340386
11
45.663318
21
35.843093
0
LINE
8
Image
10
45.663318
20
35.843093
11
43.382335
21
35.603814
0
LINE
8
Image
10
43.382335
20
35.603814
11
41.085686
21
35.639055
0
LINE
8
Image
10
41.085686
20
35.639055
11
39.143684
21
35.965321
0
LINE
8
Image
10
39.143684
20
35.965321
11
37.943705
21
36.412052
0
LINE
8
Image
10
37.943705
20
36.412052
11
36.738048
21
37.046489
0
LINE
8
Image
10
36.738048
20
37.046489
11
34.402414
21
38.794600
0
LINE
8
Image
10
34.402414
20
38.794600
11
32.322202
21
41.041887
0
LINE
8
Image
10
32.322202
20
41.041887
11
30.682833
21
43.620583
0
LINE
8
Image
10
30.682833
20
43.620583
11
29.633563
21
45.699179
0
LINE
8
Image
10
29.633563
20
45.699179
11
29.464532
21
58.135469
0
LINE
8
Image
10
29.464532
20
58.135469
11
29.428161
21
66.969900
0
LINE
8
Image
10
29.428161
20
66.969900
11
29.578078
21
70.746400
0
LINE
8
Image
10
29.578078
20
70.746400
11
33.899934
21
70.907364
0
LINE
8
Image
10
33.899934
20
70.907364
11
42.908057
21
70.918219
0
LINE
8
Image
10
42.908057
20
70.918219
11
51.855380
21
70.805812
0
LINE
8
Image
10
51.855380
20
70.805812
11
55.994838
21
70.596992
0
LINE
8
Image
10
55.994838
20
70.596992
11
56.136143
21
66.757246
0
LINE
8
Image
10
56.136143
20
66.757246
11
56.194916
21
57.980561
0
LINE
8
Image
10
56.194916
20
57.980561
11
56.088259
21
47.074845
0
LINE
8
Image
10
56.088259
20
47.074845
11
55.847161
21
45.153713
0
LINE
8
Image
10
55.847161
20
45.153713
11
55.385080
21
43.924293
0
LINE
8
Image
10
55.385080
20
43.924293
11
54.506997
21
42.296045
0
LINE
8
Image
10
54.506997
20
42.296045
11
53.533070
21
40.858268
0
LINE
8
Image
10
53.533070
20
40.858268
11
52.893888
21
39.878774
0
LINE
8
Image
10
52.893888
20
39.878774
11
52.820609
21
39.352354
0
LINE
8
Image
10
52.820609
20
39.352354
11
53.313541
21
39.540425
0
LINE
8
Image
10
53.313541
20
39.540425
11
54.045033
21
40.343329
0
LINE
8
Image
10
54.045033
20
40.343329
11
54.841018
21
41.533894
0
LINE
8
Image
10
54.841018
20
41.533894
11
55.527426
21
42.884950
0
LINE
8
Image
10
55.527426
20
42.884950
11
56.063740
21
44.697162
0
LINE
8
Image
10
56.063740
20
44.697162
11
56.525986
21
47.099289
0
LINE
8
Image
10
56.525986
20
47.099289
11
56.935483
21
49.921508
0
LINE
8
Image
10
56.935483
20
49.921508
11
65.737408
21
50.020785
0
LINE
8
Image
10
65.737408
20
50.020785
11
72.193926
21
50.032103
0
LINE
8
Image
10
72.193926
20
50.032103
11
75.356884
21
49.919897
0
LINE
8
Image
10
75.356884
20
49.919897
11
75.873456
21
49.707609
0
LINE
8
Image
10
75.873456
20
49.707609
11
76.028862
21
48.817581
0
LINE
8
Image
10
76.028862
20
48.817581
11
75.183458
21
41.454852
0
LINE
8
Image
10
75.183458
20
41.454852
11
74.294239
21
36.526386
0
LINE
8
Image
10
74.294239
20
36.526386
11
73.674113
21
34.381728
0
LINE
8
Image
10
73.674113
20
34.381728
11
72.905844
21
32.378710
0
LINE
8
Image
10
72.905844
20
32.378710
11
71.966085
21
30.463773
0
LINE
8
Image
10
71.966085
20
30.463773
11
70.831486
21
28.583359
0
LINE
8
Image
10
70.831486
20
28.583359
11
69.478699
21
26.683910
0
LINE
8
Image
10
69.478699
20
26.683910
11
67.884375
21
24.711868
0
LINE
8
Image
10
67.884375
20
24.711868
11
66.576166
21
23.004416
0
LINE
8
Image
10
66.576166
20
23.004416
11
66.152261
21
22.099725
0
LINE
8
Image
10
66.152261
20
22.099725
11
66.189725
21
21.931209
0
LINE
8
Image
10
66.189725
20
21.931209
11
65.990771
21
21.993709
0
LINE
8
Image
10
65.990771
20
21.993709
11
65.611894
21
22.009951
0
LINE
8
Image
10
65.611894
20
22.009951
11
65.242709
21
21.748205
0
LINE
8
Image
10
65.242709
20
21.748205
11
65.026263
21
21.365810
0
LINE
8
Image
10
65.026263
20
21.365810
11
65.105603
21
21.020104
0
LINE
8
Image
10
65.105603
20
21.020104
11
65.172498
21
20.869947
0
LINE
8
Image
10
65.172498
20
20.869947
11
64.966086
21
20.876174
0
LINE
8
Image
10
64.966086
20
20.876174
11
64.023444
21
20.382654
0
LINE
8
Image
10
64.023444
20
20.382654
11
62.320256
21
19.030975
0
LINE
8
Image
10
62.320256
20
19.030975
11
57.280138
21
14.914146
0
LINE
8
Image
10
57.280138
20
14.914146
11
51.504140
21
10.837027
0
LINE
8
Image
10
51.504140
20
10.837027
11
48.760915
21
8.863977
0
LINE
8
Image
10
48.760915
20
8.863977
11
48.054885
21
8.232700
0
LINE
8
Image
10
48.054885
20
8.232700
11
47.913206
21
7.935716
0
LINE
8
Image
10
47.913206
20
7.935716
11
48.638300
21
8.087581
0
LINE
8
Image
10
48.638300
20
8.087581
11
50.067492
21
8.856304
0
LINE
8
Image
10
50.067492
20
8.856304
11
54.376828
21
11.765155
0
LINE
8
Image
10
54.376828
20
11.765155
11
59.518535
21
15.703937
0
LINE
8
Image
10
59.518535
20
15.703937
11
64.169934
21
19.714321
0
LINE
8
Image
10
64.169934
20
19.714321
11
68.122689
21
23.784377
0
LINE
8
Image
10
68.122689
20
23.784377
11
69.740315
21
25.765989
0
LINE
8
Image
10
69.740315
20
25.765989
11
71.144882
21
27.751980
0
LINE
8
Image
10
71.144882
20
27.751980
11
72.355972
21
29.772342
0
LINE
8
Image
10
72.355972
20
29.772342
11
73.393166
21
31.857069
0
LINE
8
Image
10
73.393166
20
31.857069
11
74.276045
21
34.036151
0
LINE
8
Image
10
74.276045
20
34.036151
11
75.024190
21
36.339582
0
LINE
8
Image
10
75.024190
20
36.339582
11
75.786648
21
39.493841
0
LINE
8
Image
10
75.786648
20
39.493841
11
76.426354
21
44.460441
0
LINE
8
Image
10
76.426354
20
44.460441
11
77.211773
21
53.965558
0
LINE
8
Image
10
77.211773
20
53.965558
11
78.411368
21
70.735369
0
LINE
8
Image
10
78.411368
20
70.735369
11
79.998551
21
93.290120
0
LINE
8
Image
10
79.998551
20
93.290120
11
80.265568
21
98.282499
0
LINE
8
Image
10
80.265568
20
98.282499
11
77.702466
21
98.968966
0
LINE
8
Image
10
77.702466
20
98.968966
11
72.011398
21
100.123149
0
LINE
8
Image
10
72.011398
20
100.123149
11
65.135307
21
101.373323
0
LINE
8
Image
10
65.135307
20
101.373323
11
59.017135
21
102.347764
0
LINE
8
Image
10
59.017135
20
102.347764
11
52.791473
21
102.938115
0
LINE
8
Image
10
52.791473
20
102.938115
11
45.157859
21
103.274727
0
LINE
8
Image
10
45.157859
20
103.274727
11
37.570350
21
103.321020
0
LINE
8
Image
10
37.570350
20
103.321020
11
31.483001
21
103.040417
0
LINE
8
Image
10
31.483001
20
103.040417
11
24.317784
21
102.137413
0
LINE
8
Image
10
24.317784
20
102.137413
11
16.275410
21
100.813991
0
LINE
8
Image
10
16.275410
20
100.813991
11
9.441492
21
99.447298
0
LINE
8
Image
10
9.441492
20
99.447298
11
7.129458
21
98.865583
0
LINE
8
Image
10
7.129458
20
98.865583
11
5.901643
21
98.414481
0
LINE
8
Image
10
5.901643
20
98.414481
11
5.748872
21
98.163742
0
LINE
8
Image
10
5.748872
20
98.163742
11
5.666572
21
97.481219
0
LINE
8
Image
10
5.666572
20
97.481219
11
5.763735
21
93.875791
0
LINE
8
Image
10
5.763735
20
93.875791
11
7.357564
21
71.088148
0
LINE
8
Image
10
7.357564
20
71.088148
11
9.189086
21
47.937568
0
LINE
8
Image
10
9.189086
20
47.937568
11
9.841951
21
41.203686
0
LINE
8
Image
10
9.841951
20
41.203686
11
10.334575
21
37.528041
0
LINE
8
Image
10
10.334575
20
37.528041
11
10.757947
21
35.959081
0
LINE
8
Image
10
10.757947
20
35.959081
11
11.445595
21
34.121189
0
LINE
8
Image
10
11.445595
20
34.121189
11
13.271274
21
30.276147
0
LINE
8
Image
10
13.271274
20
30.276147
11
15.126716
21
27.267993
0
LINE
8
Image
10
15.126716
20
27.267993
11
15.851569
21
26.476212
0
LINE
8
Image
10
15.851569
20
26.476212
11
16.125824
21
26.328125
0
LINE
8
Image
10
16.125824
20
26.328125
11
16.327028
21
26.371806
0
LINE
8
Image
10
16.327028
20
26.371806
11
16.469553
21
26.446180
0
LINE
8
Image
10
16.469553
20
26.446180
11
16.399987
21
26.250902
0
LINE
8
Image
10
16.399987
20
26.250902
11
16.444443
21
25.927106
0
LINE
8
Image
10
16.444443
20
25.927106
11
16.760750
21
25.348253
0
LINE
8
Image
10
16.760750
20
25.348253
11
18.065108
21
23.601036
0
LINE
8
Image
10
18.065108
20
23.601036
11
20.025450
21
21.360554
0
LINE
8
Image
10
20.025450
20
21.360554
11
22.354167
21
18.978114
0
LINE
8
Image
10
22.354167
20
18.978114
11
24.806325
21
16.720058
0
LINE
8
Image
10
24.806325
20
16.720058
11
27.388911
21
14.568079
0
LINE
8
Image
10
27.388911
20
14.568079
11
30.168521
21
12.469385
0
LINE
8
Image
10
30.168521
20
12.469385
11
33.211749
21
10.371184
0
LINE
8
Image
10
33.211749
20
10.371184
11
38.977095
21
6.777276
0
LINE
8
Image
10
38.977095
20
6.777276
11
42.831778
21
4.589622
0
LINE
8
Image
10
42.831778
20
4.589622
11
45.429629
21
6.045876
0
LINE
8
Image
10
45.429629
20
6.045876
11
45.429629
21
6.045866
0
LINE
8
Image
10
40.672715
20
6.767746
11
34.545099
21
10.556535
0
LINE
8
Image
10
34.545099
20
10.556535
11
28.822133
21
14.565360
0
LINE
8
Image
10
28.822133
20
14.565360
11
24.692945
21
17.907037
0
LINE
8
Image
10
24.692945
20
17.907037
11
23.597621
21
19.050448
0
LINE
8
Image
10
23.597621
20
19.050448
11
23.357307
21
19.441779
0
LINE
8
Image
10
23.357307
20
19.441779
11
23.346665
21
19.694377
0
LINE
8
Image
10
23.346665
20
19.694377
11
24.251562
21
19.906207
0
LINE
8
Image
10
24.251562
20
19.906207
11
26.390277
21
20.052005
0
LINE
8
Image
10
26.390277
20
20.052005
11
32.732917
21
20.151544
0
LINE
8
Image
10
32.732917
20
20.151544
11
39.102096
21
20.005075
0
LINE
8
Image
10
39.102096
20
20.005075
11
41.273986
21
19.843364
0
LINE
8
Image
10
41.273986
20
19.843364
11
42.225327
21
19.624680
0
LINE
8
Image
10
42.225327
20
19.624680
11
42.400478
21
19.033773
0
LINE
8
Image
10
42.400478
20
19.033773
11
42.508808
21
17.735509
0
LINE
8
Image
10
42.508808
20
17.735509
11
42.533106
21
12.838248
0
LINE
8
Image
10
42.533106
20
12.838248
11
42.433573
21
8.915323
0
LINE
8
Image
10
42.433573
20
8.915323
11
42.190017
21
6.921214
0
LINE
8
Image
10
42.190017
20
6.921214
11
41.967502
21
6.494989
0
LINE
8
Image
10
41.967502
20
6.494989
11
41.652908
21
6.367996
0
LINE
8
Image
10
41.652908
20
6.367996
11
40.672715
21
6.767746
0
LINE
8
Image
10
40.672715
20
6.767746
11
40.672715
21
6.767746
0
LINE
8
Image
10
41.907434
20
13.232657
11
41.907434
21
19.406259
0
LINE
8
Image
10
41.907434
20
19.406259
11
32.856938
21
19.406259
0
LINE
8
Image
10
32.856938
20
19.406259
11
25.141731
21
19.317468
0
LINE
8
Image
10
25.141731
20
19.317468
11
24.247590
21
19.126277
0
LINE
8
Image
10
24.247590
20
19.126277
11
24.231909
21
18.970591
0
LINE
8
Image
10
24.231909
20
18.970591
11
24.385926
21
18.765934
0
LINE
8
Image
10
24.385926
20
18.765934
11
25.596809
21
17.691163
0
LINE
8
Image
10
25.596809
20
17.691163
11
27.677500
21
16.096624
0
LINE
8
Image
10
27.677500
20
16.096624
11
33.246293
21
12.165729
0
LINE
8
Image
10
33.246293
20
12.165729
11
38.688287
21
8.608216
0
LINE
8
Image
10
38.688287
20
8.608216
11
40.610478
21
7.480405
0
LINE
8
Image
10
40.610478
20
7.480405
11
41.599462
21
7.059052
0
LINE
8
Image
10
41.599462
20
7.059052
11
41.816967
21
8.872548
0
LINE
8
Image
10
41.816967
20
8.872548
11
41.907434
21
13.232657
0
LINE
8
Image
10
41.907434
20
13.232657
11
41.907434
21
13.232657
0
LINE
8
Image
10
13.809296
20
30.778050
11
12.387247
21
33.438357
0
LINE
8
Image
10
12.387247
20
33.438357
11
11.267394
21
36.270535
0
LINE
8
Image
10
11.267394
20
36.270535
11
10.622720
21
38.753515
0
LINE
8
Image
10
10.622720
20
38.753515
11
10.532633
21
39.701224
0
LINE
8
Image
10
10.532633
20
39.701224
11
10.626209
21
40.366234
0
LINE
8
Image
10
10.626209
20
40.366234
11
11.064635
21
40.661452
0
LINE
8
Image
10
11.064635
20
40.661452
11
12.506896
21
40.830671
0
LINE
8
Image
10
12.506896
20
40.830671
11
20.866016
21
40.925676
0
LINE
8
Image
10
20.866016
20
40.925676
11
30.891145
21
40.925676
0
LINE
8
Image
10
30.891145
20
40.925676
11
32.762038
21
39.169189
0
LINE
8
Image
10
32.762038
20
39.169189
11
34.281790
21
37.890830
0
LINE
8
Image
10
34.281790
20
37.890830
11
35.837899
21
36.894257
0
LINE
8
Image
10
35.837899
20
36.894257
11
37.502459
21
36.140284
0
LINE
8
Image
10
37.502459
20
36.140284
11
39.347564
21
35.589725
0
LINE
8
Image
10
39.347564
20
35.589725
11
41.299440
21
35.097479
0
LINE
8
Image
10
41.299440
20
35.097479
11
42.264616
21
34.581559
0
LINE
8
Image
10
42.264616
20
34.581559
11
42.479176
21
34.200648
0
LINE
8
Image
10
42.479176
20
34.200648
11
42.569441
21
33.676932
0
LINE
8
Image
10
42.569441
20
33.676932
11
42.540261
21
32.018566
0
LINE
8
Image
10
42.540261
20
32.018566
11
42.436600
21
29.460413
0
LINE
8
Image
10
42.436600
20
29.460413
11
28.597099
21
29.368129
0
LINE
8
Image
10
28.597099
20
29.368129
11
14.757593
21
29.275848
0
LINE
8
Image
10
14.757593
20
29.275848
11
13.809296
21
30.778050
0
LINE
8
Image
10
41.907434
20
32.212050
11
41.907434
21
34.434518
0
LINE
8
Image
10
41.907434
20
34.434518
11
39.724904
21
34.885315
0
LINE
8
Image
10
39.724904
20
34.885315
11
37.656177
21
35.450719
0
LINE
8
Image
10
37.656177
20
35.450719
11
35.793639
21
36.259411
0
LINE
8
Image
10
35.793639
20
36.259411
11
34.092398
21
37.335130
0
LINE
8
Image
10
34.092398
20
37.335130
11
32.507559
21
38.701612
0
LINE
8
Image
10
32.507559
20
38.701612
11
31.124092
21
39.873277
0
LINE
8
Image
10
31.124092
20
39.873277
11
30.184216
21
40.337714
0
LINE
8
Image
10
30.184216
20
40.337714
11
20.338879
21
40.259318
0
LINE
8
Image
10
20.338879
20
40.259318
11
11.117532
21
40.220120
0
LINE
8
Image
10
11.117532
20
40.220120
11
11.323848
21
38.478092
0
LINE
8
Image
10
11.323848
20
38.478092
11
11.621530
21
36.998226
0
LINE
8
Image
10
11.621530
20
36.998226
11
12.178776
21
35.295064
0
LINE
8
Image
10
12.178776
20
35.295064
11
12.970030
21
33.436113
0
LINE
8
Image
10
12.970030
20
33.436113
11
13.969739
21
31.488881
0
LINE
8
Image
10
13.969739
20
31.488881
11
14.803903
21
29.989579
0
LINE
8
Image
10
14.803903
20
29.989579
11
28.355670
21
29.989579
0
LINE
8
Image
10
28.355670
20
29.989579
11
41.907434
21
29.989579
0
LINE
8
Image
10
41.907434
20
29.989579
11
41.907434
21
32.212050
0
LINE
8
Image
10
9.315179
20
52.655521
11
7.064787
21
81.781146
0
LINE
8
Image
10
7.064787
20
81.781146
11
6.947098
21
84.837376
0
LINE
8
Image
10
6.947098
20
84.837376
11
7.008004
21
85.675564
0
LINE
8
Image
10
7.008004
20
85.675564
11
7.148620
21
86.047506
0
LINE
8
Image
10
7.148620
20
86.047506
11
7.983349
21
86.398196
0
LINE
8
Image
10
7.983349
20
86.398196
11
9.635713
21
86.867016
0
LINE
8
Image
10
9.635713
20
86.867016
11
14.692929
21
88.014251
0
LINE
8
Image
10
14.692929
20
88.014251
11
20.919435
21
89.199627
0
LINE
8
Image
10
20.919435
20
89.199627
11
26.914399
21
90.133559
0
LINE
8
Image
10
26.914399
20
90.133559
11
36.309678
21
91.012092
0
LINE
8
Image
10
36.309678
20
91.012092
11
40.395020
21
91.230550
0
LINE
8
Image
10
40.395020
20
91.230550
11
42.286467
21
91.180217
0
LINE
8
Image
10
42.286467
20
91.180217
11
42.433216
21
90.278985
0
LINE
8
Image
10
42.433216
20
90.278985
11
42.536445
21
88.073574
0
LINE
8
Image
10
42.536445
20
88.073574
11
42.614115
21
81.489097
0
LINE
8
Image
10
42.614115
20
81.489097
11
42.523020
21
74.904553
0
LINE
8
Image
10
42.523020
20
74.904553
11
42.415293
21
72.699060
0
LINE
8
Image
10
42.415293
20
72.699060
11
42.266703
21
71.797712
0
LINE
8
Image
10
42.266703
20
71.797712
11
40.103117
21
71.646569
0
LINE
8
Image
10
40.103117
20
71.646569
11
35.387550
21
71.583704
0
LINE
8
Image
10
35.387550
20
71.583704
11
29.779385
21
71.486212
0
LINE
8
Image
10
29.779385
20
71.486212
11
28.997281
21
71.280313
0
LINE
8
Image
10
28.997281
20
71.280313
11
28.854663
21
70.894950
0
LINE
8
Image
10
28.854663
20
70.894950
11
28.800886
21
70.554471
0
LINE
8
Image
10
28.800886
20
70.554471
11
28.608364
21
70.343584
0
LINE
8
Image
10
28.608364
20
70.343584
11
27.619941
21
70.206193
0
LINE
8
Image
10
27.619941
20
70.206193
11
26.809938
21
70.295762
0
LINE
8
Image
10
26.809938
20
70.295762
11
26.437327
21
70.587396
0
LINE
8
Image
10
26.437327
20
70.587396
11
26.488630
21
71.115479
0
LINE
8
Image
10
26.488630
20
71.115479
11
26.950369
21
71.914399
0
LINE
8
Image
10
26.950369
20
71.914399
11
27.297111
21
72.536641
0
LINE
8
Image
10
27.297111
20
72.536641
11
27.337152
21
72.899629
0
LINE
8
Image
10
27.337152
20
72.899629
11
26.893906
21
72.564459
0
LINE
8
Image
10
26.893906
20
72.564459
11
26.078704
21
71.508153
0
LINE
8
Image
10
26.078704
20
71.508153
11
25.331896
21
70.520364
0
LINE
8
Image
10
25.331896
20
70.520364
11
24.670310
21
69.905183
0
LINE
8
Image
10
24.670310
20
69.905183
11
23.988588
21
69.589609
0
LINE
8
Image
10
23.988588
20
69.589609
11
23.181372
21
69.500640
0
LINE
8
Image
10
23.181372
20
69.500640
11
22.683343
21
69.610793
0
LINE
8
Image
10
22.683343
20
69.610793
11
22.551782
21
69.992710
0
LINE
8
Image
10
22.551782
20
69.992710
11
22.794393
21
70.723575
0
LINE
8
Image
10
22.794393
20
70.723575
11
23.418877
21
71.880572
0
LINE
8
Image
10
23.418877
20
71.880572
11
24.072701
21
73.129641
0
LINE
8
Image
10
24.072701
20
73.129641
11
23.978643
21
73.219983
0
LINE
8
Image
10
23.978643
20
73.219983
11
23.622189
21
73.060088
0
LINE
8
Image
10
23.622189
20
73.060088
11
22.849526
21
72.238316
0
LINE
8
Image
10
22.849526
20
72.238316
11
21.990126
21
70.796829
0
LINE
8
Image
10
21.990126
20
70.796829
11
20.989665
21
69.200568
0
LINE
8
Image
10
20.989665
20
69.200568
11
20.437403
21
68.689383
0
LINE
8
Image
10
20.437403
20
68.689383
11
19.794899
21
68.306473
0
LINE
8
Image
10
19.794899
20
68.306473
11
18.808699
21
67.963786
0
LINE
8
Image
10
18.808699
20
67.963786
11
18.226721
21
67.993041
0
LINE
8
Image
10
18.226721
20
67.993041
11
18.105345
21
68.603724
0
LINE
8
Image
10
18.105345
20
68.603724
11
18.326296
21
69.648545
0
LINE
8
Image
10
18.326296
20
69.648545
11
18.817687
21
70.896158
0
LINE
8
Image
10
18.817687
20
70.896158
11
19.507633
21
72.115222
0
LINE
8
Image
10
19.507633
20
72.115222
11
20.117523
21
73.123833
0
LINE
8
Image
10
20.117523
20
73.123833
11
20.025272
21
73.185965
0
LINE
8
Image
10
20.025272
20
73.185965
11
19.682634
21
73.028510
0
LINE
8
Image
10
19.682634
20
73.028510
11
19.045050
21
72.479672
0
LINE
8
Image
10
19.045050
20
72.479672
11
18.418696
21
71.526087
0
LINE
8
Image
10
18.418696
20
71.526087
11
17.808625
21
70.177163
0
LINE
8
Image
10
17.808625
20
70.177163
11
17.219887
21
68.442308
0
LINE
8
Image
10
17.219887
20
68.442308
11
16.585939
21
66.829958
0
LINE
8
Image
10
16.585939
20
66.829958
11
16.235048
21
66.607995
0
LINE
8
Image
10
16.235048
20
66.607995
11
15.727274
21
66.610745
0
LINE
8
Image
10
15.727274
20
66.610745
11
15.253748
21
66.613988
0
LINE
8
Image
10
15.253748
20
66.613988
11
14.885528
21
66.469146
0
LINE
8
Image
10
14.885528
20
66.469146
11
14.250478
21
65.586407
0
LINE
8
Image
10
14.250478
20
65.586407
11
13.823314
21
64.641383
0
LINE
8
Image
10
13.823314
20
64.641383
11
13.778231
21
64.121589
0
LINE
8
Image
10
13.778231
20
64.121589
11
14.174798
21
63.901652
0
LINE
8
Image
10
14.174798
20
63.901652
11
15.072587
21
63.856201
0
LINE
8
Image
10
15.072587
20
63.856201
11
16.225599
21
64.006217
0
LINE
8
Image
10
16.225599
20
64.006217
11
16.517010
21
64.232584
0
LINE
8
Image
10
16.517010
20
64.232584
11
16.694214
21
64.594390
0
LINE
8
Image
10
16.694214
20
64.594390
11
17.224345
21
65.243596
0
LINE
8
Image
10
17.224345
20
65.243596
11
18.335345
21
65.983441
0
LINE
8
Image
10
18.335345
20
65.983441
11
21.645225
21
67.488182
0
LINE
8
Image
10
21.645225
20
67.488182
11
25.314401
21
68.614886
0
LINE
8
Image
10
25.314401
20
68.614886
11
26.874522
21
68.882184
0
LINE
8
Image
10
26.874522
20
68.882184
11
28.033423
21
68.869826
0
LINE
8
Image
10
28.033423
20
68.869826
11
28.842799
21
68.715103
0
LINE
8
Image
10
28.842799
20
68.715103
11
28.835073
21
59.759273
0
LINE
8
Image
10
28.835073
20
59.759273
11
28.827347
21
50.803440
0
LINE
8
Image
10
28.827347
20
50.803440
11
19.180291
21
50.803440
0
LINE
8
Image
10
19.180291
20
50.803440
11
9.533219
21
50.803440
0
LINE
8
Image
10
9.533219
20
50.803440
11
9.315179
21
52.655521
0
LINE
8
Image
10
28.193218
20
53.802049
11
28.304772
21
56.536073
0
LINE
8
Image
10
28.304772
20
56.536073
11
28.256356
21
57.219431
0
LINE
8
Image
10
28.256356
20
57.219431
11
27.903623
21
57.735246
0
LINE
8
Image
10
27.903623
20
57.735246
11
27.286853
21
58.080010
0
LINE
8
Image
10
27.286853
20
58.080010
11
26.446325
21
58.250217
0
LINE
8
Image
10
26.446325
20
58.250217
11
25.422318
21
58.242360
0
LINE
8
Image
10
25.422318
20
58.242360
11
24.255112
21
58.052930
0
LINE
8
Image
10
24.255112
20
58.052930
11
22.984985
21
57.678422
0
LINE
8
Image
10
22.984985
20
57.678422
11
21.652216
21
57.115327
0
LINE
8
Image
10
21.652216
20
57.115327
11
20.224420
21
56.341157
0
LINE
8
Image
10
20.224420
20
56.341157
11
18.986738
21
55.496757
0
LINE
8
Image
10
18.986738
20
55.496757
11
17.902374
21
54.553803
0
LINE
8
Image
10
17.902374
20
54.553803
11
16.934532
21
53.483970
0
LINE
8
Image
10
16.934532
20
53.483970
11
16.344650
21
53.108921
0
LINE
8
Image
10
16.344650
20
53.108921
11
15.513241
21
52.936328
0
LINE
8
Image
10
15.513241
20
52.936328
11
14.711382
21
52.986508
0
LINE
8
Image
10
14.711382
20
52.986508
11
14.210153
21
53.279778
0
LINE
8
Image
10
14.210153
20
53.279778
11
14.131930
21
54.001120
0
LINE
8
Image
10
14.131930
20
54.001120
11
14.414988
21
54.937615
0
LINE
8
Image
10
14.414988
20
54.937615
11
14.908217
21
55.749022
0
LINE
8
Image
10
14.908217
20
55.749022
11
15.460508
21
56.095100
0
LINE
8
Image
10
15.460508
20
56.095100
11
15.782497
21
56.163994
0
LINE
8
Image
10
15.782497
20
56.163994
11
16.024920
21
56.389060
0
LINE
8
Image
10
16.024920
20
56.389060
11
16.344800
21
57.418015
0
LINE
8
Image
10
16.344800
20
57.418015
11
17.040983
21
60.163554
0
LINE
8
Image
10
17.040983
20
60.163554
11
17.489866
21
61.014408
0
LINE
8
Image
10
17.489866
20
61.014408
11
18.024072
21
61.562054
0
LINE
8
Image
10
18.024072
20
61.562054
11
18.817916
21
62.026194
0
LINE
8
Image
10
18.817916
20
62.026194
11
19.240786
21
62.048061
0
LINE
8
Image
10
19.240786
20
62.048061
11
19.291365
21
61.628761
0
LINE
8
Image
10
19.291365
20
61.628761
11
18.968337
21
60.769401
0
LINE
8
Image
10
18.968337
20
60.769401
11
18.109627
21
58.419359
0
LINE
8
Image
10
18.109627
20
58.419359
11
18.015297
21
57.601416
0
LINE
8
Image
10
18.015297
20
57.601416
11
18.677684
21
57.924178
0
LINE
8
Image
10
18.677684
20
57.924178
11
19.333380
21
58.652583
0
LINE
8
Image
10
19.333380
20
58.652583
11
19.784816
21
59.656861
0
LINE
8
Image
10
19.784816
20
59.656861
11
20.226997
21
60.695866
0
LINE
8
Image
10
20.226997
20
60.695866
11
20.933067
21
61.714674
0
LINE
8
Image
10
20.933067
20
61.714674
11
21.717381
21
62.489827
0
LINE
8
Image
10
21.717381
20
62.489827
11
22.394296
21
62.797869
0
LINE
8
Image
10
22.394296
20
62.797869
11
22.723015
21
62.753089
0
LINE
8
Image
10
22.723015
20
62.753089
11
22.828641
21
62.581878
0
LINE
8
Image
10
22.828641
20
62.581878
11
22.365027
21
61.638932
0
LINE
8
Image
10
22.365027
20
61.638932
11
21.636405
21
60.066065
0
LINE
8
Image
10
21.636405
20
60.066065
11
21.581021
21
59.440993
0
LINE
8
Image
10
21.581021
20
59.440993
11
21.911897
21
59.477724
0
LINE
8
Image
10
21.911897
20
59.477724
11
22.489599
21
60.078436
0
LINE
8
Image
10
22.489599
20
60.078436
11
23.174692
21
61.145302
0
LINE
8
Image
10
23.174692
20
61.145302
11
23.998009
21
62.306858
0
LINE
8
Image
10
23.998009
20
62.306858
11
24.403821
21
62.600317
0
LINE
8
Image
10
24.403821
20
62.600317
11
24.823407
21
62.719100
0
LINE
8
Image
10
24.823407
20
62.719100
11
25.649760
21
62.787489
0
LINE
8
Image
10
25.649760
20
62.787489
11
24.924319
21
61.557959
0
LINE
8
Image
10
24.924319
20
61.557959
11
24.413129
21
60.526984
0
LINE
8
Image
10
24.413129
20
60.526984
11
24.498487
21
60.364464
0
LINE
8
Image
10
24.498487
20
60.364464
11
24.800159
21
60.328428
0
LINE
8
Image
10
24.800159
20
60.328428
11
25.520922
21
60.577587
0
LINE
8
Image
10
25.520922
20
60.577587
11
26.409468
21
61.176628
0
LINE
8
Image
10
26.409468
20
61.176628
11
27.822638
21
62.159877
0
LINE
8
Image
10
27.822638
20
62.159877
11
28.063832
21
63.132298
0
LINE
8
Image
10
28.063832
20
63.132298
11
28.189031
21
65.173877
0
LINE
8
Image
10
28.189031
20
65.173877
11
28.171544
21
67.261378
0
LINE
8
Image
10
28.171544
20
67.261378
11
27.984679
21
68.371566
0
LINE
8
Image
10
27.984679
20
68.371566
11
25.497719
21
68.088478
0
LINE
8
Image
10
25.497719
20
68.088478
11
23.060750
21
67.398169
0
LINE
8
Image
10
23.060750
20
67.398169
11
20.469216
21
66.322804
0
LINE
8
Image
10
20.469216
20
66.322804
11
18.273503
21
65.123861
0
LINE
8
Image
10
18.273503
20
65.123861
11
17.496075
21
64.559758
0
LINE
8
Image
10
17.496075
20
64.559758
11
17.023998
21
64.062814
0
LINE
8
Image
10
17.023998
20
64.062814
11
16.668774
21
63.608957
0
LINE
8
Image
10
16.668774
20
63.608957
11
16.277386
21
63.346828
0
LINE
8
Image
10
16.277386
20
63.346828
11
15.009254
21
63.244731
0
LINE
8
Image
10
15.009254
20
63.244731
11
13.799586
21
63.452866
0
LINE
8
Image
10
13.799586
20
63.452866
11
13.431479
21
63.656748
0
LINE
8
Image
10
13.431479
20
63.656748
11
13.217327
21
63.936104
0
LINE
8
Image
10
13.217327
20
63.936104
11
13.239294
21
64.748034
0
LINE
8
Image
10
13.239294
20
64.748034
11
13.842305
21
65.942242
0
LINE
8
Image
10
13.842305
20
65.942242
11
14.730951
21
67.076747
0
LINE
8
Image
10
14.730951
20
67.076747
11
15.098776
21
67.281063
0
LINE
8
Image
10
15.098776
20
67.281063
11
15.458879
21
67.279211
0
LINE
8
Image
10
15.458879
20
67.279211
11
15.825527
21
67.283862
0
LINE
8
Image
10
15.825527
20
67.283862
11
16.143688
21
67.580501
0
LINE
8
Image
10
16.143688
20
67.580501
11
16.900155
21
69.449747
0
LINE
8
Image
10
16.900155
20
69.449747
11
17.408914
21
70.740025
0
LINE
8
Image
10
17.408914
20
70.740025
11
18.005251
21
71.851039
0
LINE
8
Image
10
18.005251
20
71.851039
11
18.660983
21
72.759875
0
LINE
8
Image
10
18.660983
20
72.759875
11
19.347924
21
73.443619
0
LINE
8
Image
10
19.347924
20
73.443619
11
20.037893
21
73.879356
0
LINE
8
Image
10
20.037893
20
73.879356
11
20.702706
21
74.044172
0
LINE
8
Image
10
20.702706
20
74.044172
11
21.314178
21
73.915153
0
LINE
8
Image
10
21.314178
20
73.915153
11
21.844127
21
73.469385
0
LINE
8
Image
10
21.844127
20
73.469385
11
22.152324
21
73.029183
0
LINE
8
Image
10
22.152324
20
73.029183
11
21.753017
21
73.301266
0
LINE
8
Image
10
21.753017
20
73.301266
11
21.416483
21
73.477648
0
LINE
8
Image
10
21.416483
20
73.477648
11
21.093281
21
73.376860
0
LINE
8
Image
10
21.093281
20
73.376860
11
20.120281
21
72.066545
0
LINE
8
Image
10
20.120281
20
72.066545
11
19.309334
21
70.601389
0
LINE
8
Image
10
19.309334
20
70.601389
11
18.844549
21
69.443492
0
LINE
8
Image
10
18.844549
20
69.443492
11
18.741039
21
68.918643
0
LINE
8
Image
10
18.741039
20
68.918643
11
18.797117
21
68.684421
0
LINE
8
Image
10
18.797117
20
68.684421
11
19.674842
21
68.900192
0
LINE
8
Image
10
19.674842
20
68.900192
11
20.541720
21
69.466974
0
LINE
8
Image
10
20.541720
20
69.466974
11
21.086326
21
70.337047
0
LINE
8
Image
10
21.086326
20
70.337047
11
21.596801
21
71.405524
0
LINE
8
Image
10
21.596801
20
71.405524
11
22.314484
21
72.512499
0
LINE
8
Image
10
22.314484
20
72.512499
11
22.852321
21
73.394879
0
LINE
8
Image
10
22.852321
20
73.394879
11
22.930398
21
73.923375
0
LINE
8
Image
10
22.930398
20
73.923375
11
22.875151
21
74.049475
0
LINE
8
Image
10
22.875151
20
74.049475
11
23.092440
21
73.964390
0
LINE
8
Image
10
23.092440
20
73.964390
11
23.665107
21
73.905359
0
LINE
8
Image
10
23.665107
20
73.905359
11
24.464281
21
74.094092
0
LINE
8
Image
10
24.464281
20
74.094092
11
25.233219
21
74.322433
0
LINE
8
Image
10
25.233219
20
74.322433
11
25.551370
21
74.229391
0
LINE
8
Image
10
25.551370
20
74.229391
11
25.429313
21
73.786024
0
LINE
8
Image
10
25.429313
20
73.786024
11
24.877629
21
72.963388
0
LINE
8
Image
10
24.877629
20
72.963388
11
23.521089
21
70.857916
0
LINE
8
Image
10
23.521089
20
70.857916
11
23.435892
21
70.364426
0
LINE
8
Image
10
23.435892
20
70.364426
11
23.730445
21
70.206193
0
LINE
8
Image
10
23.730445
20
70.206193
11
24.295708
21
70.429099
0
LINE
8
Image
10
24.295708
20
70.429099
11
24.889383
21
70.965025
0
LINE
8
Image
10
24.889383
20
70.965025
11
26.873238
21
73.155527
0
LINE
8
Image
10
26.873238
20
73.155527
11
27.610564
21
73.685179
0
LINE
8
Image
10
27.610564
20
73.685179
11
28.312119
21
73.954781
0
LINE
8
Image
10
28.312119
20
73.954781
11
29.357058
21
74.200779
0
LINE
8
Image
10
29.357058
20
74.200779
11
28.168197
21
72.699721
0
LINE
8
Image
10
28.168197
20
72.699721
11
27.315318
21
71.437329
0
LINE
8
Image
10
27.315318
20
71.437329
11
27.281176
21
71.109612
0
LINE
8
Image
10
27.281176
20
71.109612
11
27.473571
21
70.893206
0
LINE
8
Image
10
27.473571
20
70.893206
11
27.910877
21
70.825583
0
LINE
8
Image
10
27.910877
20
70.825583
11
28.223484
21
71.278915
0
LINE
8
Image
10
28.223484
20
71.278915
11
28.522142
21
71.662480
0
LINE
8
Image
10
28.522142
20
71.662480
11
29.419497
21
71.869449
0
LINE
8
Image
10
29.419497
20
71.869449
11
35.193299
21
71.970080
0
LINE
8
Image
10
35.193299
20
71.970080
11
41.907434
21
71.970080
0
LINE
8
Image
10
41.907434
20
71.970080
11
41.907434
21
81.362168
0
LINE
8
Image
10
41.907434
20
81.362168
11
41.907434
21
90.754257
0
LINE
8
Image
10
41.907434
20
90.754257
11
37.938691
21
90.516838
0
LINE
8
Image
10
37.938691
20
90.516838
11
31.128849
21
89.983008
0
LINE
8
Image
10
31.128849
20
89.983008
11
24.714368
21
89.194136
0
LINE
8
Image
10
24.714368
20
89.194136
11
18.253506
21
88.085107
0
LINE
8
Image
10
18.253506
20
88.085107
11
11.304523
21
86.590805
0
LINE
8
Image
10
11.304523
20
86.590805
11
7.336299
21
85.667098
0
LINE
8
Image
10
7.336299
20
85.667098
11
7.521484
21
83.845666
0
LINE
8
Image
10
7.521484
20
83.845666
11
9.874322
21
52.655521
0
LINE
8
Image
10
9.874322
20
52.655521
11
9.954777
21
51.508996
0
LINE
8
Image
10
9.954777
20
51.508996
11
19.051947
21
51.508996
0
LINE
8
Image
10
19.051947
20
51.508996
11
28.149120
21
51.508996
0
LINE
8
Image
10
28.149120
20
51.508996
11
28.193218
21
53.802049
0
LINE
8
Image
10
12.322747
20
73.473695
11
12.060957
21
73.923113
0
LINE
8
Image
10
12.060957
20
73.923113
11
11.979299
21
74.514504
0
LINE
8
Image
10
11.979299
20
74.514504
11
12.266970
21
75.893713
0
LINE
8
Image
10
12.266970
20
75.893713
11
13.006947
21
77.152330
0
LINE
8
Image
10
13.006947
20
77.152330
11
13.490670
21
77.592981
0
LINE
8
Image
10
13.490670
20
77.592981
11
14.020415
21
77.831364
0
LINE
8
Image
10
14.020415
20
77.831364
11
15.517732
21
78.280781
0
LINE
8
Image
10
15.517732
20
78.280781
11
15.751017
21
78.567462
0
LINE
8
Image
10
15.751017
20
78.567462
11
15.801913
21
79.001321
0
LINE
8
Image
10
15.801913
20
79.001321
11
16.034970
21
80.211518
0
LINE
8
Image
10
16.034970
20
80.211518
11
16.617044
21
81.839317
0
LINE
8
Image
10
16.617044
20
81.839317
11
17.372488
21
83.458339
0
LINE
8
Image
10
17.372488
20
83.458339
11
18.125656
21
84.642201
0
LINE
8
Image
10
18.125656
20
84.642201
11
18.949392
21
85.389963
0
LINE
8
Image
10
18.949392
20
85.389963
11
19.911354
21
85.959114
0
LINE
8
Image
10
19.911354
20
85.959114
11
20.763623
21
86.234278
0
LINE
8
Image
10
20.763623
20
86.234278
11
21.071148
21
86.225558
0
LINE
8
Image
10
21.071148
20
86.225558
11
21.258281
21
86.100076
0
LINE
8
Image
10
21.258281
20
86.100076
11
21.223234
21
85.759269
0
LINE
8
Image
10
21.223234
20
85.759269
11
20.885780
21
85.349556
0
LINE
8
Image
10
20.885780
20
85.349556
11
20.246646
21
84.547698
0
LINE
8
Image
10
20.246646
20
84.547698
11
19.521215
21
83.257122
0
LINE
8
Image
10
19.521215
20
83.257122
11
18.871089
21
81.800562
0
LINE
8
Image
10
18.871089
20
81.800562
11
18.457869
21
80.500752
0
LINE
8
Image
10
18.457869
20
80.500752
11
18.204673
21
79.330046
0
LINE
8
Image
10
18.204673
20
79.330046
11
19.585744
21
80.034615
0
LINE
8
Image
10
19.585744
20
80.034615
11
20.286356
21
80.449002
0
LINE
8
Image
10
20.286356
20
80.449002
11
20.780788
21
80.903873
0
LINE
8
Image
10
20.780788
20
80.903873
11
21.136699
21
81.481375
0
LINE
8
Image
10
21.136699
20
81.481375
11
21.421751
21
82.263653
0
LINE
8
Image
10
21.421751
20
82.263653
11
22.077553
21
83.626277
0
LINE
8
Image
10
22.077553
20
83.626277
11
23.117223
21
84.942918
0
LINE
8
Image
10
23.117223
20
84.942918
11
24.320664
21
85.982389
0
LINE
8
Image
10
24.320664
20
85.982389
11
25.467776
21
86.513504
0
LINE
8
Image
10
25.467776
20
86.513504
11
26.385234
21
86.538227
0
LINE
8
Image
10
26.385234
20
86.538227
11
25.950052
21
85.569386
0
LINE
8
Image
10
25.950052
20
85.569386
11
25.321479
21
84.670064
0
LINE
8
Image
10
25.321479
20
84.670064
11
24.285361
21
82.948449
0
LINE
8
Image
10
24.285361
20
82.948449
11
23.501818
21
81.403221
0
LINE
8
Image
10
23.501818
20
81.403221
11
24.501831
21
81.654207
0
LINE
8
Image
10
24.501831
20
81.654207
11
25.529499
21
81.964714
0
LINE
8
Image
10
25.529499
20
81.964714
11
26.461816
21
83.524543
0
LINE
8
Image
10
26.461816
20
83.524543
11
27.628643
21
84.836506
0
LINE
8
Image
10
27.628643
20
84.836506
11
28.857859
21
85.741358
0
LINE
8
Image
10
28.857859
20
85.741358
11
29.977347
21
86.079854
0
LINE
8
Image
10
29.977347
20
86.079854
11
30.214096
21
85.998485
0
LINE
8
Image
10
30.214096
20
85.998485
11
30.199608
21
85.707845
0
LINE
8
Image
10
30.199608
20
85.707845
11
29.321326
21
84.229092
0
LINE
8
Image
10
29.321326
20
84.229092
11
28.071801
21
82.377011
0
LINE
8
Image
10
28.071801
20
82.377011
11
28.986028
21
82.266000
0
LINE
8
Image
10
28.986028
20
82.266000
11
29.964384
21
82.420537
0
LINE
8
Image
10
29.964384
20
82.420537
11
31.053157
21
83.032282
0
LINE
8
Image
10
31.053157
20
83.032282
11
32.082566
21
83.690898
0
LINE
8
Image
10
32.082566
20
83.690898
11
33.058020
21
84.101346
0
LINE
8
Image
10
33.058020
20
84.101346
11
33.841282
21
84.221890
0
LINE
8
Image
10
33.841282
20
84.221890
11
34.294119
21
84.010795
0
LINE
8
Image
10
34.294119
20
84.010795
11
34.239791
21
83.639931
0
LINE
8
Image
10
34.239791
20
83.639931
11
33.793559
21
83.258956
0
LINE
8
Image
10
33.793559
20
83.258956
11
33.352032
21
82.870364
0
LINE
8
Image
10
33.352032
20
82.870364
11
33.309018
21
82.481193
0
LINE
8
Image
10
33.309018
20
82.481193
11
33.374349
21
82.269167
0
LINE
8
Image
10
33.374349
20
82.269167
11
33.179475
21
82.320477
0
LINE
8
Image
10
33.179475
20
82.320477
11
32.863626
21
82.340575
0
LINE
8
Image
10
32.863626
20
82.340575
11
32.624261
21
82.067512
0
LINE
8
Image
10
32.624261
20
82.067512
11
32.790006
21
81.505321
0
LINE
8
Image
10
32.790006
20
81.505321
11
33.466887
21
80.825996
0
LINE
8
Image
10
33.466887
20
80.825996
11
34.367357
21
80.035355
0
LINE
8
Image
10
34.367357
20
80.035355
11
35.041878
21
79.198456
0
LINE
8
Image
10
35.041878
20
79.198456
11
35.421383
21
78.421073
0
LINE
8
Image
10
35.421383
20
78.421073
11
35.436808
21
77.808983
0
LINE
8
Image
10
35.436808
20
77.808983
11
35.271719
21
77.585441
0
LINE
8
Image
10
35.271719
20
77.585441
11
34.968100
21
77.563695
0
LINE
8
Image
10
34.968100
20
77.563695
11
33.627102
21
78.193128
0
LINE
8
Image
10
33.627102
20
78.193128
11
31.901547
21
78.910116
0
LINE
8
Image
10
31.901547
20
78.910116
11
29.964479
21
79.267590
0
LINE
8
Image
10
29.964479
20
79.267590
11
27.870432
21
79.260805
0
LINE
8
Image
10
27.870432
20
79.260805
11
25.673935
21
78.885018
0
LINE
8
Image
10
25.673935
20
78.885018
11
23.062057
21
78.008835
0
LINE
8
Image
10
23.062057
20
78.008835
11
20.169544
21
76.750824
0
LINE
8
Image
10
20.169544
20
76.750824
11
17.825805
21
75.507233
0
LINE
8
Image
10
17.825805
20
75.507233
11
17.118914
21
75.014671
0
LINE
8
Image
10
17.118914
20
75.014671
11
16.860245
21
74.674306
0
LINE
8
Image
10
16.860245
20
74.674306
11
16.696958
21
74.184839
0
LINE
8
Image
10
16.696958
20
74.184839
11
16.304375
21
73.711804
0
LINE
8
Image
10
16.304375
20
73.711804
11
15.452955
21
73.350185
0
LINE
8
Image
10
15.452955
20
73.350185
11
14.240045
21
73.174084
0
LINE
8
Image
10
14.240045
20
73.174084
11
13.063892
21
73.207316
0
LINE
8
Image
10
13.063892
20
73.207316
11
12.322747
21
73.473695
0
LINE
8
Image
10
12.322747
20
73.473695
11
12.322747
21
73.473695
0
LINE
8
Image
10
16.347594
20
74.824235
11
16.728062
21
75.347689
0
LINE
8
Image
10
16.728062
20
75.347689
11
17.338342
21
75.890515
0
LINE
8
Image
10
17.338342
20
75.890515
11
19.250641
21
77.036043
0
LINE
8
Image
10
19.250641
20
77.036043
11
21.471141
21
78.068772
0
LINE
8
Image
10
21.471141
20
78.068772
11
23.546569
21
78.874055
0
LINE
8
Image
10
23.546569
20
78.874055
11
25.484258
21
79.452906
0
LINE
8
Image
10
25.484258
20
79.452906
11
27.291537
21
79.806337
0
LINE
8
Image
10
27.291537
20
79.806337
11
28.975740
21
79.935361
0
LINE
8
Image
10
28.975740
20
79.935361
11
30.544196
21
79.840992
0
LINE
8
Image
10
30.544196
20
79.840992
11
32.004238
21
79.524243
0
LINE
8
Image
10
32.004238
20
79.524243
11
33.363197
21
78.986126
0
LINE
8
Image
10
33.363197
20
78.986126
11
34.845205
21
78.320167
0
LINE
8
Image
10
34.845205
20
78.320167
11
34.895506
21
78.426906
0
LINE
8
Image
10
34.895506
20
78.426906
11
34.605454
21
78.809736
0
LINE
8
Image
10
34.605454
20
78.809736
11
32.566373
21
80.901463
0
LINE
8
Image
10
32.566373
20
80.901463
11
31.668084
21
81.804436
0
LINE
8
Image
10
31.668084
20
81.804436
11
31.475469
21
82.041678
0
LINE
8
Image
10
31.475469
20
82.041678
11
31.500506
21
82.084340
0
LINE
8
Image
10
31.500506
20
82.084340
11
31.948708
21
82.234108
0
LINE
8
Image
10
31.948708
20
82.234108
11
32.530914
21
82.824206
0
LINE
8
Image
10
32.530914
20
82.824206
11
32.873471
21
83.350714
0
LINE
8
Image
10
32.873471
20
83.350714
11
32.881126
21
83.455450
0
LINE
8
Image
10
32.881126
20
83.455450
11
32.773029
21
83.452209
0
LINE
8
Image
10
32.773029
20
83.452209
11
31.083073
21
82.324965
0
LINE
8
Image
10
31.083073
20
82.324965
11
30.138724
21
81.781374
0
LINE
8
Image
10
30.138724
20
81.781374
11
29.224885
21
81.530618
0
LINE
8
Image
10
29.224885
20
81.530618
11
28.433770
21
81.583404
0
LINE
8
Image
10
28.433770
20
81.583404
11
27.857590
21
81.950439
0
LINE
8
Image
10
27.857590
20
81.950439
11
27.728004
21
82.245247
0
LINE
8
Image
10
27.728004
20
82.245247
11
27.762870
21
82.653228
0
LINE
8
Image
10
27.762870
20
82.653228
11
28.365377
21
83.965136
0
LINE
8
Image
10
28.365377
20
83.965136
11
29.005715
21
85.190534
0
LINE
8
Image
10
29.005715
20
85.190534
11
28.885139
21
85.176440
0
LINE
8
Image
10
28.885139
20
85.176440
11
28.482656
21
84.832680
0
LINE
8
Image
10
28.482656
20
84.832680
11
26.712477
21
82.688798
0
LINE
8
Image
10
26.712477
20
82.688798
11
25.873839
21
81.762049
0
LINE
8
Image
10
25.873839
20
81.762049
11
24.901729
21
81.119625
0
LINE
8
Image
10
24.901729
20
81.119625
11
23.951163
21
80.836175
0
LINE
8
Image
10
23.951163
20
80.836175
11
23.177156
21
80.986347
0
LINE
8
Image
10
23.177156
20
80.986347
11
23.109035
21
81.481175
0
LINE
8
Image
10
23.109035
20
81.481175
11
23.397472
21
82.447231
0
LINE
8
Image
10
23.397472
20
82.447231
11
23.941995
21
83.625822
0
LINE
8
Image
10
23.941995
20
83.625822
11
24.642130
21
84.758258
0
LINE
8
Image
10
24.642130
20
84.758258
11
25.025920
21
85.445369
0
LINE
8
Image
10
25.025920
20
85.445369
11
25.050178
21
85.652578
0
LINE
8
Image
10
25.050178
20
85.652578
11
24.949835
21
85.728396
0
LINE
8
Image
10
24.949835
20
85.728396
11
24.245185
21
85.360277
0
LINE
8
Image
10
24.245185
20
85.360277
11
23.373743
21
84.418635
0
LINE
8
Image
10
23.373743
20
84.418635
11
22.525226
21
83.147541
0
LINE
8
Image
10
22.525226
20
83.147541
11
21.889351
21
81.791068
0
LINE
8
Image
10
21.889351
20
81.791068
11
21.512622
21
80.856990
0
LINE
8
Image
10
21.512622
20
80.856990
11
21.103253
21
80.227906
0
LINE
8
Image
10
21.103253
20
80.227906
11
20.541593
21
79.769856
0
LINE
8
Image
10
20.541593
20
79.769856
11
19.707989
21
79.348879
0
LINE
8
Image
10
19.707989
20
79.348879
11
18.524816
21
78.940333
0
LINE
8
Image
10
18.524816
20
78.940333
11
17.873577
21
78.929547
0
LINE
8
Image
10
17.873577
20
78.929547
11
17.767335
21
79.634265
0
LINE
8
Image
10
17.767335
20
79.634265
11
18.001663
21
80.915714
0
LINE
8
Image
10
18.001663
20
80.915714
11
18.490620
21
82.440458
0
LINE
8
Image
10
18.490620
20
82.440458
11
19.148261
21
83.875061
0
LINE
8
Image
10
19.148261
20
83.875061
11
19.751719
21
85.089577
0
LINE
8
Image
10
19.751719
20
85.089577
11
19.647172
21
85.165914
0
LINE
8
Image
10
19.647172
20
85.165914
11
19.285275
21
84.999072
0
LINE
8
Image
10
19.285275
20
84.999072
11
18.508179
21
84.344689
0
LINE
8
Image
10
18.508179
20
84.344689
11
17.802747
21
83.257709
0
LINE
8
Image
10
17.802747
20
83.257709
11
17.175400
21
81.750629
0
LINE
8
Image
10
17.175400
20
81.750629
11
16.632555
21
79.835942
0
LINE
8
Image
10
16.632555
20
79.835942
11
16.264381
21
78.357049
0
LINE
8
Image
10
16.264381
20
78.357049
11
15.954768
21
77.591797
0
LINE
8
Image
10
15.954768
20
77.591797
11
15.542340
21
77.305068
0
LINE
8
Image
10
15.542340
20
77.305068
11
14.865718
21
77.261740
0
LINE
8
Image
10
14.865718
20
77.261740
11
14.231467
21
77.213225
0
LINE
8
Image
10
14.231467
20
77.213225
11
13.786432
21
77.007829
0
LINE
8
Image
10
13.786432
20
77.007829
11
13.419770
21
76.555775
0
LINE
8
Image
10
13.419770
20
76.555775
11
13.020640
21
75.767283
0
LINE
8
Image
10
13.020640
20
75.767283
11
12.575510
21
74.649151
0
LINE
8
Image
10
12.575510
20
74.649151
11
12.467379
21
74.059479
0
LINE
8
Image
10
12.467379
20
74.059479
11
13.033060
21
73.901660
0
LINE
8
Image
10
13.033060
20
73.901660
11
14.207941
21
73.821815
0
LINE
8
Image
10
14.207941
20
73.821815
11
15.079473
21
73.840905
0
LINE
8
Image
10
15.079473
20
73.840905
11
15.637232
21
73.972470
0
LINE
8
Image
10
15.637232
20
73.972470
11
16.015258
21
74.279313
0
LINE
8
Image
10
16.015258
20
74.279313
11
16.347594
21
74.824235
0
LINE
8
Image
10
16.347594
20
74.824235
11
16.347594
21
74.824235
0
LINE
8
Image
10
17.297162
20
54.836458
11
18.794852
21
56.115375
0
LINE
8
Image
10
18.794852
20
56.115375
11
21.177710
21
57.507746
0
LINE
8
Image
10
21.177710
20
57.507746
11
23.936843
21
58.700948
0
LINE
8
Image
10
23.936843
20
58.700948
11
24.942088
21
58.867212
0
LINE
8
Image
10
24.942088
20
58.867212
11
26.091863
21
58.854592
0
LINE
8
Image
10
26.091863
20
58.854592
11
27.601070
21
58.855217
0
LINE
8
Image
10
27.601070
20
58.855217
11
27.811099
21
58.971193
0
LINE
8
Image
10
27.811099
20
58.971193
11
27.727584
21
59.178019
0
LINE
8
Image
10
27.727584
20
59.178019
11
27.378650
21
59.429922
0
LINE
8
Image
10
27.378650
20
59.429922
11
27.050815
21
59.421782
0
LINE
8
Image
10
27.050815
20
59.421782
11
26.852533
21
59.410868
0
LINE
8
Image
10
26.852533
20
59.410868
11
26.720754
21
59.621823
0
LINE
8
Image
10
26.720754
20
59.621823
11
26.722333
21
60.494917
0
LINE
8
Image
10
26.722333
20
60.494917
11
26.563892
21
60.550306
0
LINE
8
Image
10
26.563892
20
60.550306
11
26.087646
21
60.201987
0
LINE
8
Image
10
26.087646
20
60.201987
11
25.349753
21
59.789642
0
LINE
8
Image
10
25.349753
20
59.789642
11
24.562245
21
59.691095
0
LINE
8
Image
10
24.562245
20
59.691095
11
24.079959
21
59.804410
0
LINE
8
Image
10
24.079959
20
59.804410
11
23.862007
21
60.024917
0
LINE
8
Image
10
23.862007
20
60.024917
11
23.875304
21
60.458333
0
LINE
8
Image
10
23.875304
20
60.458333
11
24.086764
21
61.210371
0
LINE
8
Image
10
24.086764
20
61.210371
11
24.115915
21
61.380798
0
LINE
8
Image
10
24.115915
20
61.380798
11
24.030254
21
61.323263
0
LINE
8
Image
10
24.030254
20
61.323263
11
23.580896
21
60.603904
0
LINE
8
Image
10
23.580896
20
60.603904
11
22.952188
21
59.683210
0
LINE
8
Image
10
22.952188
20
59.683210
11
22.268452
21
59.023397
0
LINE
8
Image
10
22.268452
20
59.023397
11
21.616961
21
58.689421
0
LINE
8
Image
10
21.616961
20
58.689421
11
21.084987
21
58.746238
0
LINE
8
Image
10
21.084987
20
58.746238
11
20.913833
21
59.149626
0
LINE
8
Image
10
20.913833
20
59.149626
11
20.965348
21
59.859506
0
LINE
8
Image
10
20.965348
20
59.859506
11
21.201234
21
60.672883
0
LINE
8
Image
10
21.201234
20
60.672883
11
21.583189
21
61.386760
0
LINE
8
Image
10
21.583189
20
61.386760
11
21.799484
21
61.739478
0
LINE
8
Image
10
21.799484
20
61.739478
11
21.350827
21
61.425678
0
LINE
8
Image
10
21.350827
20
61.425678
11
20.800322
21
60.645295
0
LINE
8
Image
10
20.800322
20
60.645295
11
20.353992
21
59.457498
0
LINE
8
Image
10
20.353992
20
59.457498
11
19.824959
21
58.184922
0
LINE
8
Image
10
19.824959
20
58.184922
11
18.947424
21
57.368520
0
LINE
8
Image
10
18.947424
20
57.368520
11
18.047060
21
56.947789
0
LINE
8
Image
10
18.047060
20
56.947789
11
17.844969
21
57.033809
0
LINE
8
Image
10
17.844969
20
57.033809
11
17.699997
21
57.312560
0
LINE
8
Image
10
17.699997
20
57.312560
11
17.640513
21
58.673005
0
LINE
8
Image
10
17.640513
20
58.673005
11
18.069440
21
60.504818
0
LINE
8
Image
10
18.069440
20
60.504818
11
18.115519
21
60.795906
0
LINE
8
Image
10
18.115519
20
60.795906
11
17.787193
21
60.328428
0
LINE
8
Image
10
17.787193
20
60.328428
11
17.341019
21
59.161508
0
LINE
8
Image
10
17.341019
20
59.161508
11
17.016624
21
57.594405
0
LINE
8
Image
10
17.016624
20
57.594405
11
16.693786
21
56.104114
0
LINE
8
Image
10
16.693786
20
56.104114
11
16.451432
21
55.820118
0
LINE
8
Image
10
16.451432
20
55.820118
11
16.105310
21
55.742324
0
LINE
8
Image
10
16.105310
20
55.742324
11
15.523352
21
55.490613
0
LINE
8
Image
10
15.523352
20
55.490613
11
15.087626
21
54.837415
0
LINE
8
Image
10
15.087626
20
54.837415
11
14.798830
21
53.777590
0
LINE
8
Image
10
14.798830
20
53.777590
11
15.018652
21
53.644769
0
LINE
8
Image
10
15.018652
20
53.644769
11
15.537330
21
53.625670
0
LINE
8
Image
10
15.537330
20
53.625670
11
16.378059
21
53.955749
0
LINE
8
Image
10
16.378059
20
53.955749
11
17.297162
21
54.836458
0
LINE
8
Image
10
17.297162
20
54.836458
11
17.297162
21
54.836458
0
LINE
8
Image
10
28.137902
20
60.593011
11
28.055331
21
61.330111
0
LINE
8
Image
10
28.055331
20
61.330111
11
27.608762
21
60.878398
0
LINE
8
Image
10
27.608762
20
60.878398
11
27.287941
21
60.276850
0
LINE
8
Image
10
27.287941
20
60.276850
11
27.531787
21
59.913663
0
LINE
8
Image
10
27.531787
20
59.913663
11
27.890113
21
59.702230
0
LINE
8
Image
10
27.890113
20
59.702230
11
28.072285
21
59.702061
0
LINE
8
Image
10
28.072285
20
59.702061
11
28.137902
21
60.593011
0
LINE
8
Image
10
28.137902
20
60.593011
11
28.137902
21
60.593011
0
LINE
8
Image
10
56.959267
20
51.038625
11
56.793167
21
52.741879
0
LINE
8
Image
10
56.793167
20
52.741879
11
56.724082
21
56.506675
0
LINE
8
Image
10
56.724082
20
56.506675
11
56.820221
21
60.605320
0
LINE
8
Image
10
56.820221
20
60.605320
11
56.956262
21
61.491275
0
LINE
8
Image
10
56.956262
20
61.491275
11
57.165054
21
61.769985
0
LINE
8
Image
10
57.165054
20
61.769985
11
67.982490
21
61.789880
0
LINE
8
Image
10
67.982490
20
61.789880
11
74.088716
21
61.658124
0
LINE
8
Image
10
74.088716
20
61.658124
11
76.873882
21
61.486378
0
LINE
8
Image
10
76.873882
20
61.486378
11
76.984473
21
60.547671
0
LINE
8
Image
10
76.984473
20
60.547671
11
76.905504
21
58.431971
0
LINE
8
Image
10
76.905504
20
58.431971
11
76.283814
21
52.302745
0
LINE
8
Image
10
76.283814
20
52.302745
11
76.083604
21
50.803440
0
LINE
8
Image
10
76.083604
20
50.803440
11
66.639028
21
50.803440
0
LINE
8
Image
10
66.639028
20
50.803440
11
59.899710
21
50.872526
0
LINE
8
Image
10
59.899710
20
50.872526
11
56.959267
21
51.038625
0
LINE
8
Image
10
56.959267
20
51.038625
11
56.959267
21
51.038625
0
LINE
8
Image
10
76.005518
20
55.213158
11
76.446490
21
60.240235
0
LINE
8
Image
10
76.446490
20
60.240235
11
76.479611
21
61.386760
0
LINE
8
Image
10
76.479611
20
61.386760
11
66.954625
21
61.386760
0
LINE
8
Image
10
66.954625
20
61.386760
11
57.429637
21
61.386760
0
LINE
8
Image
10
57.429637
20
61.386760
11
57.429637
21
56.265534
0
LINE
8
Image
10
57.429637
20
56.265534
11
57.429637
21
51.144308
0
LINE
8
Image
10
57.429637
20
51.144308
11
66.513653
21
51.238457
0
LINE
8
Image
10
66.513653
20
51.238457
11
75.597668
21
51.332606
0
LINE
8
Image
10
75.597668
20
51.332606
11
76.005518
21
55.213158
0
LINE
8
Image
10
56.900471
20
71.617304
11
54.928416
21
71.874352
0
LINE
8
Image
10
54.928416
20
71.874352
11
50.000493
21
71.970080
0
LINE
8
Image
10
50.000493
20
71.970080
11
43.318542
21
71.970080
0
LINE
8
Image
10
43.318542
20
71.970080
11
43.318542
21
77.608021
0
LINE
8
Image
10
43.318542
20
77.608021
11
43.318542
21
83.245965
0
LINE
8
Image
10
43.318542
20
83.245965
11
60.785333
21
83.340654
0
LINE
8
Image
10
60.785333
20
83.340654
11
75.865339
21
83.330265
0
LINE
8
Image
10
75.865339
20
83.330265
11
77.984137
21
83.142881
0
LINE
8
Image
10
77.984137
20
83.142881
11
78.336050
21
82.982743
0
LINE
8
Image
10
78.336050
20
82.982743
11
78.463091
21
82.770345
0
LINE
8
Image
10
78.463091
20
82.770345
11
78.542491
21
80.678807
0
LINE
8
Image
10
78.542491
20
80.678807
11
78.359817
21
77.039907
0
LINE
8
Image
10
78.359817
20
77.039907
11
78.029115
21
73.457781
0
LINE
8
Image
10
78.029115
20
73.457781
11
77.664432
21
71.536561
0
LINE
8
Image
10
77.664432
20
71.536561
11
74.347757
21
71.314343
0
LINE
8
Image
10
74.347757
20
71.314343
11
67.282917
21
71.263443
0
LINE
8
Image
10
67.282917
20
71.263443
11
60.217844
21
71.369288
0
LINE
8
Image
10
60.217844
20
71.369288
11
56.900471
21
71.617304
0
LINE
8
Image
10
56.900471
20
71.617304
11
56.900471
21
71.617304
0
LINE
8
Image
10
77.591671
20
74.968687
11
77.966961
21
80.348543
0
LINE
8
Image
10
77.966961
20
80.348543
11
78.112130
21
82.553400
0
LINE
8
Image
10
78.112130
20
82.553400
11
60.882041
21
82.553400
0
LINE
8
Image
10
60.882041
20
82.553400
11
43.651948
21
82.553400
0
LINE
8
Image
10
43.651948
20
82.553400
11
43.749828
21
77.526323
0
LINE
8
Image
10
43.749828
20
77.526323
11
43.847708
21
72.499246
0
LINE
8
Image
10
43.847708
20
72.499246
11
50.638673
21
72.403435
0
LINE
8
Image
10
50.638673
20
72.403435
11
55.609322
21
72.239312
0
LINE
8
Image
10
55.609322
20
72.239312
11
56.959237
21
72.109896
0
LINE
8
Image
10
56.959237
20
72.109896
11
57.429637
21
71.956970
0
LINE
8
Image
10
57.429637
20
71.956970
11
58.082404
21
71.812851
0
LINE
8
Image
10
58.082404
20
71.812851
11
60.000846
21
71.720955
0
LINE
8
Image
10
60.000846
20
71.720955
11
67.395595
21
71.700004
0
LINE
8
Image
10
67.395595
20
71.700004
11
77.361556
21
71.793691
0
LINE
8
Image
10
77.361556
20
71.793691
11
77.591671
21
74.968687
0
LINE
8
Image
10
77.008777
20
87.177134
11
73.963939
21
87.902156
0
LINE
8
Image
10
73.963939
20
87.902156
11
69.061360
21
88.878524
0
LINE
8
Image
10
69.061360
20
88.878524
11
59.551270
21
90.476294
0
LINE
8
Image
10
59.551270
20
90.476294
11
53.321164
21
91.144077
0
LINE
8
Image
10
53.321164
20
91.144077
11
47.286226
21
91.538615
0
LINE
8
Image
10
47.286226
20
91.538615
11
41.374185
21
91.656148
0
LINE
8
Image
10
41.374185
20
91.656148
11
35.512767
21
91.492915
0
LINE
8
Image
10
35.512767
20
91.492915
11
29.629699
21
91.045158
0
LINE
8
Image
10
29.629699
20
91.045158
11
23.652708
21
90.309116
0
LINE
8
Image
10
23.652708
20
90.309116
11
17.509522
21
89.281030
0
LINE
8
Image
10
17.509522
20
89.281030
11
11.127866
21
87.957139
0
LINE
8
Image
10
11.127866
20
87.957139
11
6.840357
21
87.168652
0
LINE
8
Image
10
6.840357
20
87.168652
11
6.368714
21
92.078388
0
LINE
8
Image
10
6.368714
20
92.078388
11
6.198195
21
95.961068
0
LINE
8
Image
10
6.198195
20
95.961068
11
6.287496
21
96.825322
0
LINE
8
Image
10
6.287496
20
96.825322
11
6.499595
21
97.224145
0
LINE
8
Image
10
6.499595
20
97.224145
11
7.281302
21
97.569191
0
LINE
8
Image
10
7.281302
20
97.569191
11
8.860481
21
98.026929
0
LINE
8
Image
10
8.860481
20
98.026929
11
13.827825
21
99.159730
0
LINE
8
Image
10
13.827825
20
99.159730
11
20.234754
21
100.381044
0
LINE
8
Image
10
20.234754
20
100.381044
11
26.914399
21
101.449363
0
LINE
8
Image
10
26.914399
20
101.449363
11
32.677549
21
101.969320
0
LINE
8
Image
10
32.677549
20
101.969320
11
39.906170
21
102.215326
0
LINE
8
Image
10
39.906170
20
102.215326
11
47.280498
21
102.169307
0
LINE
8
Image
10
47.280498
20
102.169307
11
53.480768
21
101.813189
0
LINE
8
Image
10
53.480768
20
101.813189
11
58.988603
21
101.148385
0
LINE
8
Image
10
58.988603
20
101.148385
11
64.980935
21
100.237750
0
LINE
8
Image
10
64.980935
20
100.237750
11
70.752409
21
99.198217
0
LINE
8
Image
10
70.752409
20
99.198217
11
75.597668
21
98.146717
0
LINE
8
Image
10
75.597668
20
98.146717
11
79.478220
21
97.193659
0
LINE
8
Image
10
79.478220
20
97.193659
11
79.378908
21
92.783942
0
LINE
8
Image
10
79.378908
20
92.783942
11
79.264876
21
89.121289
0
LINE
8
Image
10
79.264876
20
89.121289
11
78.984925
21
87.328066
0
LINE
8
Image
10
78.984925
20
87.328066
11
78.710972
21
86.962743
0
LINE
8
Image
10
78.710972
20
86.962743
11
78.309432
21
86.861079
0
LINE
8
Image
10
78.309432
20
86.861079
11
77.008777
21
87.177134
0
LINE
8
Image
10
77.008777
20
87.177134
11
77.008777
21
87.177134
0
LINE
8
Image
10
78.754294
20
91.943150
11
78.847017
21
95.161060
0
LINE
8
Image
10
78.847017
20
95.161060
11
78.713874
21
96.647581
0
LINE
8
Image
10
78.713874
20
96.647581
11
77.822117
21
97.004692
0
LINE
8
Image
10
77.822117
20
97.004692
11
75.935567
21
97.494179
0
LINE
8
Image
10
75.935567
20
97.494179
11
70.053083
21
98.706143
0
LINE
8
Image
10
70.053083
20
98.706143
11
62.816421
21
99.955193
0
LINE
8
Image
10
62.816421
20
99.955193
11
55.975582
21
100.913046
0
LINE
8
Image
10
55.975582
20
100.913046
11
50.372364
21
101.374491
0
LINE
8
Image
10
50.372364
20
101.374491
11
43.880179
21
101.634708
0
LINE
8
Image
10
43.880179
20
101.634708
11
37.669704
21
101.666761
0
LINE
8
Image
10
37.669704
20
101.666761
11
32.911614
21
101.443715
0
LINE
8
Image
10
32.911614
20
101.443715
11
24.982647
21
100.439122
0
LINE
8
Image
10
24.982647
20
100.439122
11
16.578854
21
99.060969
0
LINE
8
Image
10
16.578854
20
99.060969
11
9.825905
21
97.694218
0
LINE
8
Image
10
9.825905
20
97.694218
11
7.732771
21
97.135419
0
LINE
8
Image
10
7.732771
20
97.135419
11
6.849475
21
96.723830
0
LINE
8
Image
10
6.849475
20
96.723830
11
6.823505
21
95.249644
0
LINE
8
Image
10
6.823505
20
95.249644
11
6.977395
21
92.316565
0
LINE
8
Image
10
6.977395
20
92.316565
11
7.212778
21
89.402214
0
LINE
8
Image
10
7.212778
20
89.402214
11
7.431285
21
87.984217
0
LINE
8
Image
10
7.431285
20
87.984217
11
8.951949
21
88.159443
0
LINE
8
Image
10
8.951949
20
88.159443
11
12.332174
21
88.856568
0
LINE
8
Image
10
12.332174
20
88.856568
11
20.501799
21
90.442725
0
LINE
8
Image
10
20.501799
20
90.442725
11
29.736618
21
91.778937
0
LINE
8
Image
10
29.736618
20
91.778937
11
35.072240
21
92.121029
0
LINE
8
Image
10
35.072240
20
92.121029
11
42.187224
21
92.196512
0
LINE
8
Image
10
42.187224
20
92.196512
11
49.515091
21
92.016702
0
LINE
8
Image
10
49.515091
20
92.016702
11
55.489360
21
91.592913
0
LINE
8
Image
10
55.489360
20
91.592913
11
62.156506
21
90.687671
0
LINE
8
Image
10
62.156506
20
90.687671
11
69.200746
21
89.518977
0
LINE
8
Image
10
69.200746
20
89.518977
11
74.894089
21
88.397517
0
LINE
8
Image
10
74.894089
20
88.397517
11
76.694178
21
87.951588
0
LINE
8
Image
10
76.694178
20
87.951588
11
77.508545
21
87.633973
0
LINE
8
Image
10
77.508545
20
87.633973
11
78.078131
21
87.492282
0
LINE
8
Image
10
78.078131
20
87.492282
11
78.282515
21
87.754442
0
LINE
8
Image
10
78.282515
20
87.754442
11
78.460092
21
88.562279
0
LINE
8
Image
10
78.460092
20
88.562279
11
78.754294
21
91.943150
0
LINE
8
Image
10
78.754294
20
91.943150
11
78.754294
21
91.943150
0
LINE
8
Image
10
8.251079
20
88.862508
11
7.877896
21
92.464733
0
LINE
8
Image
10
7.877896
20
92.464733
11
7.630381
21
95.849684
0
LINE
8
Image
10
7.630381
20
95.849684
11
11.200407
21
96.609866
0
LINE
8
Image
10
11.200407
20
96.609866
11
15.442559
21
97.370048
0
LINE
8
Image
10
15.442559
20
97.370048
11
16.032449
21
97.161531
0
LINE
8
Image
10
16.032449
20
97.161531
11
16.606241
21
96.635366
0
LINE
8
Image
10
16.606241
20
96.635366
11
17.040807
21
95.940630
0
LINE
8
Image
10
17.040807
20
95.940630
11
17.213024
21
95.226402
0
LINE
8
Image
10
17.213024
20
95.226402
11
16.945959
21
94.442042
0
LINE
8
Image
10
16.945959
20
94.442042
11
16.248987
21
93.659803
0
LINE
8
Image
10
16.248987
20
93.659803
11
15.278441
21
93.013604
0
LINE
8
Image
10
15.278441
20
93.013604
11
14.190655
21
92.637363
0
LINE
8
Image
10
14.190655
20
92.637363
11
11.480392
21
92.043251
0
LINE
8
Image
10
11.480392
20
92.043251
11
10.750760
21
91.819846
0
LINE
8
Image
10
10.750760
20
91.819846
11
10.354111
21
91.548062
0
LINE
8
Image
10
10.354111
20
91.548062
11
10.189873
21
91.098566
0
LINE
8
Image
10
10.189873
20
91.098566
11
10.157477
21
90.342029
0
LINE
8
Image
10
10.157477
20
90.342029
11
10.000322
21
89.195011
0
LINE
8
Image
10
10.000322
20
89.195011
11
9.730263
21
88.951368
0
LINE
8
Image
10
9.730263
20
88.951368
11
9.267112
21
88.815440
0
LINE
8
Image
10
9.267112
20
88.815440
11
8.601379
21
88.759057
0
LINE
8
Image
10
8.601379
20
88.759057
11
8.251079
21
88.862508
0
LINE
8
Image
10
8.251079
20
88.862508
11
8.251079
21
88.862508
0
LINE
8
Image
10
9.628311
20
90.909607
11
9.628311
21
92.210731
0
LINE
8
Image
10
9.628311
20
92.210731
11
12.528783
21
92.938308
0
LINE
8
Image
10
12.528783
20
92.938308
11
14.575450
21
93.539186
0
LINE
8
Image
10
14.575450
20
93.539186
11
15.819855
21
94.151369
0
LINE
8
Image
10
15.819855
20
94.151369
11
16.379052
21
94.860617
0
LINE
8
Image
10
16.379052
20
94.860617
11
16.370097
21
95.752692
0
LINE
8
Image
10
16.370097
20
95.752692
11
16.036354
21
96.389068
0
LINE
8
Image
10
16.036354
20
96.389068
11
15.275200
21
96.635258
0
LINE
8
Image
10
15.275200
20
96.635258
11
13.817141
21
96.505386
0
LINE
8
Image
10
13.817141
20
96.505386
11
11.392688
21
96.013578
0
LINE
8
Image
10
11.392688
20
96.013578
11
9.543323
21
95.548105
0
LINE
8
Image
10
9.543323
20
95.548105
11
8.987953
21
95.294921
0
LINE
8
Image
10
8.987953
20
95.294921
11
8.634064
21
94.962328
0
LINE
8
Image
10
8.634064
20
94.962328
11
8.448110
21
94.500992
0
LINE
8
Image
10
8.448110
20
94.500992
11
8.396545
21
93.861577
0
LINE
8
Image
10
8.396545
20
93.861577
11
8.562404
21
91.851176
0
LINE
8
Image
10
8.562404
20
91.851176
11
8.839577
21
90.359294
0
LINE
8
Image
10
8.839577
20
90.359294
11
9.193691
21
89.630807
0
LINE
8
Image
10
9.193691
20
89.630807
11
9.360192
21
89.587648
0
LINE
8
Image
10
9.360192
20
89.587648
11
9.498638
21
89.777112
0
LINE
8
Image
10
9.498638
20
89.777112
11
9.628311
21
90.909607
0
LINE
8
Image
10
9.628311
20
90.909607
11
9.628311
21
90.909607
0
LINE
8
Image
10
9.334330
20
93.371905
11
9.114197
21
93.800957
0
LINE
8
Image
10
9.114197
20
93.800957
11
9.124895
21
94.308326
0
LINE
8
Image
10
9.124895
20
94.308326
11
9.335854
21
94.761536
0
LINE
8
Image
10
9.335854
20
94.761536
11
9.716504
21
95.028113
0
LINE
8
Image
10
9.716504
20
95.028113
11
12.893481
21
95.723339
0
LINE
8
Image
10
12.893481
20
95.723339
11
14.166639
21
95.875822
0
LINE
8
Image
10
14.166639
20
95.875822
11
14.886752
21
95.844112
0
LINE
8
Image
10
14.886752
20
95.844112
11
15.269157
21
95.449052
0
LINE
8
Image
10
15.269157
20
95.449052
11
15.371357
21
94.761851
0
LINE
8
Image
10
15.371357
20
94.761851
11
15.262122
21
94.184453
0
LINE
8
Image
10
15.262122
20
94.184453
11
15.100456
21
94.016131
0
LINE
8
Image
10
15.100456
20
94.016131
11
12.794046
21
93.643432
0
LINE
8
Image
10
12.794046
20
93.643432
11
10.307037
21
93.170550
0
LINE
8
Image
10
10.307037
20
93.170550
11
9.687536
21
93.191354
0
LINE
8
Image
10
9.687536
20
93.191354
11
9.334330
21
93.371905
0
LINE
8
Image
10
9.334330
20
93.371905
11
9.334330
21
93.371905
0
LINE
8
Image
10
13.992041
20
94.601057
11
14.751917
21
94.950039
0
LINE
8
Image
10
14.751917
20
94.950039
11
14.856101
21
95.106921
0
LINE
8
Image
10
14.856101
20
95.106921
11
14.763332
21
95.241178
0
LINE
8
Image
10
14.763332
20
95.241178
11
13.739857
21
95.271328
0
LINE
8
Image
10
13.739857
20
95.271328
11
12.062959
21
94.943951
0
LINE
8
Image
10
12.062959
20
94.943951
11
10.496590
21
94.452033
0
LINE
8
Image
10
10.496590
20
94.452033
11
9.993588
21
94.204679
0
LINE
8
Image
10
9.993588
20
94.204679
11
9.804700
21
93.988558
0
LINE
8
Image
10
9.804700
20
93.988558
11
10.103320
21
93.783022
0
LINE
8
Image
10
10.103320
20
93.783022
11
10.949965
21
93.823792
0
LINE
8
Image
10
10.949965
20
93.823792
11
13.992041
21
94.601057
0
LINE
8
Image
10
13.992041
20
94.601057
11
13.992041
21
94.601057
0
LINE
8
Image
10
73.171598
20
89.804447
11
70.613035
21
90.475179
0
LINE
8
Image
10
70.613035
20
90.475179
11
69.354586
21
90.948423
0
LINE
8
Image
10
69.354586
20
90.948423
11
69.183441
21
92.132681
0
LINE
8
Image
10
69.183441
20
92.132681
11
69.271960
21
94.686557
0
LINE
8
Image
10
69.271960
20
94.686557
11
69.579829
21
97.444945
0
LINE
8
Image
10
69.579829
20
97.444945
11
69.788828
21
97.891355
0
LINE
8
Image
10
69.788828
20
97.891355
11
70.090365
21
97.937686
0
LINE
8
Image
10
70.090365
20
97.937686
11
73.481004
21
97.199469
0
LINE
8
Image
10
73.481004
20
97.199469
11
77.033914
21
96.345942
0
LINE
8
Image
10
77.033914
20
96.345942
11
77.475711
21
95.971353
0
LINE
8
Image
10
77.475711
20
95.971353
11
77.537943
21
95.405999
0
LINE
8
Image
10
77.537943
20
95.405999
11
77.513201
21
94.842808
0
LINE
8
Image
10
77.513201
20
94.842808
11
77.236781
21
94.623815
0
LINE
8
Image
10
77.236781
20
94.623815
11
74.715726
21
95.076995
0
LINE
8
Image
10
74.715726
20
95.076995
11
72.111478
21
95.565166
0
LINE
8
Image
10
72.111478
20
95.565166
11
71.655542
21
95.522415
0
LINE
8
Image
10
71.655542
20
95.522415
11
71.540730
21
95.304414
0
LINE
8
Image
10
71.540730
20
95.304414
11
72.368896
21
94.912369
0
LINE
8
Image
10
72.368896
20
94.912369
11
74.360018
21
94.393523
0
LINE
8
Image
10
74.360018
20
94.393523
11
76.398817
21
93.886174
0
LINE
8
Image
10
76.398817
20
93.886174
11
77.341609
21
93.521771
0
LINE
8
Image
10
77.341609
20
93.521771
11
77.315105
21
92.537171
0
LINE
8
Image
10
77.315105
20
92.537171
11
77.159951
21
92.131141
0
LINE
8
Image
10
77.159951
20
92.131141
11
76.787398
21
91.987228
0
LINE
8
Image
10
76.787398
20
91.987228
11
74.254179
21
92.455411
0
LINE
8
Image
10
74.254179
20
92.455411
11
71.570038
21
92.930013
0
LINE
8
Image
10
71.570038
20
92.930013
11
71.153752
21
92.853477
0
LINE
8
Image
10
71.153752
20
92.853477
11
71.283841
21
92.570460
0
LINE
8
Image
10
71.283841
20
92.570460
11
74.253049
21
91.755609
0
LINE
8
Image
10
74.253049
20
91.755609
11
76.549114
21
91.117300
0
LINE
8
Image
10
76.549114
20
91.117300
11
76.971156
21
90.786540
0
LINE
8
Image
10
76.971156
20
90.786540
11
77.126839
21
90.340905
0
LINE
8
Image
10
77.126839
20
90.340905
11
77.123723
21
89.687985
0
LINE
8
Image
10
77.123723
20
89.687985
11
76.950452
21
89.260326
0
LINE
8
Image
10
76.950452
20
89.260326
11
75.718953
21
89.309922
0
LINE
8
Image
10
75.718953
20
89.309922
11
73.171598
21
89.804447
0
LINE
8
Image
10
73.171598
20
89.804447
11
73.171598
21
89.804447
0
LINE
8
Image
10
76.479611
20
90.113101
11
76.350140
21
90.357658
0
LINE
8
Image
10
76.350140
20
90.357658
11
75.965317
21
90.592697
0
LINE
8
Image
10
75.965317
20
90.592697
11
74.451143
21
91.024544
0
LINE
8
Image
10
74.451143
20
91.024544
11
71.293952
21
91.764584
0
LINE
8
Image
10
71.293952
20
91.764584
11
70.894217
21
92.093354
0
LINE
8
Image
10
70.894217
20
92.093354
11
70.835174
21
92.587001
0
LINE
8
Image
10
70.835174
20
92.587001
11
71.028386
21
93.565116
0
LINE
8
Image
10
71.028386
20
93.565116
11
71.994212
21
93.516694
0
LINE
8
Image
10
71.994212
20
93.516694
11
74.044987
21
93.128959
0
LINE
8
Image
10
74.044987
20
93.128959
11
76.144243
21
92.752121
0
LINE
8
Image
10
76.144243
20
92.752121
11
76.622766
21
92.761495
0
LINE
8
Image
10
76.622766
20
92.761495
11
76.734385
21
92.901563
0
LINE
8
Image
10
76.734385
20
92.901563
11
75.792989
21
93.375989
0
LINE
8
Image
10
75.792989
20
93.375989
11
73.717785
21
93.952159
0
LINE
8
Image
10
73.717785
20
93.952159
11
71.374626
21
94.608554
0
LINE
8
Image
10
71.374626
20
94.608554
11
70.947387
21
94.914937
0
LINE
8
Image
10
70.947387
20
94.914937
11
70.835174
21
95.290932
0
LINE
8
Image
10
70.835174
20
95.290932
11
70.975100
21
95.877702
0
LINE
8
Image
10
70.975100
20
95.877702
11
71.488549
21
96.146428
0
LINE
8
Image
10
71.488549
20
96.146428
11
72.516023
21
96.119122
0
LINE
8
Image
10
72.516023
20
96.119122
11
74.198027
21
95.817798
0
LINE
8
Image
10
74.198027
20
95.817798
11
76.484997
21
95.455684
0
LINE
8
Image
10
76.484997
20
95.455684
11
76.891739
21
95.516146
0
LINE
8
Image
10
76.891739
20
95.516146
11
76.802992
21
95.737755
0
LINE
8
Image
10
76.802992
20
95.737755
11
73.412488
21
96.574024
0
LINE
8
Image
10
73.412488
20
96.574024
11
70.168975
21
97.278698
0
LINE
8
Image
10
70.168975
20
97.278698
11
69.943633
21
95.472292
0
LINE
8
Image
10
69.943633
20
95.472292
11
69.835759
21
92.434221
0
LINE
8
Image
10
69.835759
20
92.434221
11
69.953232
21
91.202556
0
LINE
8
Image
10
69.953232
20
91.202556
11
73.128228
21
90.441688
0
LINE
8
Image
10
73.128228
20
90.441688
11
76.391417
21
89.644883
0
LINE
8
Image
10
76.391417
20
89.644883
11
76.479611
21
90.113101
0
LINE
8
Image
10
76.479611
20
90.113101
11
76.479611
21
90.113101
0
LINE
8
Image
10
66.444409
20
91.491741
11
65.986564
21
92.105245
0
LINE
8
Image
10
65.986564
20
92.105245
11
65.957912
21
93.043851
0
LINE
8
Image
10
65.957912
20
93.043851
11
66.012130
21
93.665940
0
LINE
8
Image
10
66.012130
20
93.665940
11
65.838257
21
94.032181
0
LINE
8
Image
10
65.838257
20
94.032181
11
65.280650
21
94.271404
0
LINE
8
Image
10
65.280650
20
94.271404
11
64.183666
21
94.512441
0
LINE
8
Image
10
64.183666
20
94.512441
11
62.409110
21
94.834298
0
LINE
8
Image
10
62.409110
20
94.834298
11
61.448186
21
94.836729
0
LINE
8
Image
10
61.448186
20
94.836729
11
61.188717
21
94.694283
0
LINE
8
Image
10
61.188717
20
94.694283
11
61.031713
21
94.443329
0
LINE
8
Image
10
61.031713
20
94.443329
11
60.890510
21
93.577691
0
LINE
8
Image
10
60.890510
20
93.577691
11
60.654505
21
92.491542
0
LINE
8
Image
10
60.654505
20
92.491542
11
60.373774
21
92.351799
0
LINE
8
Image
10
60.373774
20
92.351799
11
59.899078
21
92.377465
0
LINE
8
Image
10
59.899078
20
92.377465
11
58.934186
21
92.578007
0
LINE
8
Image
10
58.934186
20
92.578007
11
59.075587
21
96.071286
0
LINE
8
Image
10
59.075587
20
96.071286
11
59.299937
21
99.486712
0
LINE
8
Image
10
59.299937
20
99.486712
11
60.305062
21
99.486712
0
LINE
8
Image
10
60.305062
20
99.486712
11
60.845837
21
99.451638
0
LINE
8
Image
10
60.845837
20
99.451638
11
61.148713
21
99.292372
0
LINE
8
Image
10
61.148713
20
99.292372
11
61.281044
21
98.927848
0
LINE
8
Image
10
61.281044
20
98.927848
11
61.310186
21
98.277002
0
LINE
8
Image
10
61.310186
20
98.277002
11
61.346225
21
97.578328
0
LINE
8
Image
10
61.346225
20
97.578328
11
61.575329
21
97.173310
0
LINE
8
Image
10
61.575329
20
97.173310
11
62.178979
21
96.918056
0
LINE
8
Image
10
62.178979
20
96.918056
11
63.338657
21
96.668671
0
LINE
8
Image
10
63.338657
20
96.668671
11
65.808097
21
96.125566
0
LINE
8
Image
10
65.808097
20
96.125566
11
66.001787
21
96.137875
0
LINE
8
Image
10
66.001787
20
96.137875
11
66.139506
21
96.321008
0
LINE
8
Image
10
66.139506
20
96.321008
11
66.249070
21
97.204731
0
LINE
8
Image
10
66.249070
20
97.204731
11
66.277582
21
97.872609
0
LINE
8
Image
10
66.277582
20
97.872609
11
66.415115
21
98.240274
0
LINE
8
Image
10
66.415115
20
98.240274
11
66.739662
21
98.396079
0
LINE
8
Image
10
66.739662
20
98.396079
11
67.329214
21
98.428380
0
LINE
8
Image
10
67.329214
20
98.428380
11
68.409361
21
98.428380
0
LINE
8
Image
10
68.409361
20
98.428380
11
68.335494
21
95.357014
0
LINE
8
Image
10
68.335494
20
95.357014
11
68.210108
21
92.708881
0
LINE
8
Image
10
68.210108
20
92.708881
11
67.924204
21
91.327227
0
LINE
8
Image
10
67.924204
20
91.327227
11
67.687743
21
91.043235
0
LINE
8
Image
10
67.687743
20
91.043235
11
67.371174
21
90.994148
0
LINE
8
Image
10
67.371174
20
90.994148
11
66.444409
21
91.491741
0
LINE
8
Image
10
66.444409
20
91.491741
11
66.444409
21
91.491741
0
LINE
8
Image
10
67.660178
20
94.724218
11
67.561608
21
96.884979
0
LINE
8
Image
10
67.561608
20
96.884979
11
67.307402
21
97.722825
0
LINE
8
Image
10
67.307402
20
97.722825
11
67.058253
21
97.418056
0
LINE
8
Image
10
67.058253
20
97.418056
11
66.954625
21
96.685313
0
LINE
8
Image
10
66.954625
20
96.685313
11
66.876904
21
95.912068
0
LINE
8
Image
10
66.876904
20
95.912068
11
66.690042
21
95.509923
0
LINE
8
Image
10
66.690042
20
95.509923
11
63.603240
21
95.930075
0
LINE
8
Image
10
63.603240
20
95.930075
11
60.781020
21
96.488104
0
LINE
8
Image
10
60.781020
20
96.488104
11
60.759483
21
97.700607
0
LINE
8
Image
10
60.759483
20
97.700607
11
60.632280
21
98.594266
0
LINE
8
Image
10
60.632280
20
98.594266
11
60.356706
21
99.040189
0
LINE
8
Image
10
60.356706
20
99.040189
11
60.188822
21
98.854100
0
LINE
8
Image
10
60.188822
20
98.854100
11
60.019331
21
98.268284
0
LINE
8
Image
10
60.019331
20
98.268284
11
59.728650
21
96.382781
0
LINE
8
Image
10
59.728650
20
96.382781
11
59.590906
21
94.354301
0
LINE
8
Image
10
59.590906
20
94.354301
11
59.712343
21
93.153465
0
LINE
8
Image
10
59.712343
20
93.153465
11
60.027221
21
92.887300
0
LINE
8
Image
10
60.027221
20
92.887300
11
60.314451
21
93.051630
0
LINE
8
Image
10
60.314451
20
93.051630
11
60.523701
21
93.576576
0
LINE
8
Image
10
60.523701
20
93.576576
11
60.604636
21
94.392260
0
LINE
8
Image
10
60.604636
20
94.392260
11
60.664273
21
95.187701
0
LINE
8
Image
10
60.664273
20
95.187701
11
60.799137
21
95.411555
0
LINE
8
Image
10
60.799137
20
95.411555
11
61.057649
21
95.530670
0
LINE
8
Image
10
61.057649
20
95.530670
11
62.106461
21
95.488196
0
LINE
8
Image
10
62.106461
20
95.488196
11
64.132408
21
95.127308
0
LINE
8
Image
10
64.132408
20
95.127308
11
66.425462
21
94.691961
0
LINE
8
Image
10
66.425462
20
94.691961
11
66.533938
21
93.208785
0
LINE
8
Image
10
66.533938
20
93.208785
11
66.740696
21
92.089654
0
LINE
8
Image
10
66.740696
20
92.089654
11
66.919464
21
91.815778
0
LINE
8
Image
10
66.919464
20
91.815778
11
67.151300
21
91.725610
0
LINE
8
Image
10
67.151300
20
91.725610
11
67.401002
21
91.859860
0
LINE
8
Image
10
67.401002
20
91.859860
11
67.557020
21
92.333493
0
LINE
8
Image
10
67.557020
20
92.333493
11
67.660181
21
94.724218
0
LINE
8
Image
10
67.660181
20
94.724218
11
67.660178
21
94.724218
0
LINE
8
Image
10
18.114969
20
92.156883
11
17.674404
21
93.417488
0
LINE
8
Image
10
17.674404
20
93.417488
11
17.543220
21
95.136616
0
LINE
8
Image
10
17.543220
20
95.136616
11
17.714958
21
96.778993
0
LINE
8
Image
10
17.714958
20
96.778993
11
17.912404
21
97.404126
0
LINE
8
Image
10
17.912404
20
97.404126
11
18.183160
21
97.809344
0
LINE
8
Image
10
18.183160
20
97.809344
11
19.219373
21
98.255875
0
LINE
8
Image
10
19.219373
20
98.255875
11
21.054878
21
98.684585
0
LINE
8
Image
10
21.054878
20
98.684585
11
23.217666
21
99.006822
0
LINE
8
Image
10
23.217666
20
99.006822
11
25.235727
21
99.133934
0
LINE
8
Image
10
25.235727
20
99.133934
11
26.388646
21
99.017094
0
LINE
8
Image
10
26.388646
20
99.017094
11
26.775909
21
98.834947
0
LINE
8
Image
10
26.775909
20
98.834947
11
27.057819
21
98.538232
0
LINE
8
Image
10
27.057819
20
98.538232
11
27.367905
21
97.504840
0
LINE
8
Image
10
27.367905
20
97.504840
11
27.443565
21
95.724406
0
LINE
8
Image
10
27.443565
20
95.724406
11
27.368182
21
93.932369
0
LINE
8
Image
10
27.368182
20
93.932369
11
27.196515
21
93.354408
0
LINE
8
Image
10
27.196515
20
93.354408
11
26.866696
21
92.929952
0
LINE
8
Image
10
26.866696
20
92.929952
11
26.327098
21
92.615101
0
LINE
8
Image
10
26.327098
20
92.615101
11
25.526095
21
92.365954
0
LINE
8
Image
10
25.526095
20
92.365954
11
22.933372
21
91.889172
0
LINE
8
Image
10
22.933372
20
91.889172
11
20.573263
21
91.523433
0
LINE
8
Image
10
20.573263
20
91.523433
11
19.256457
21
91.430973
0
LINE
8
Image
10
19.256457
20
91.430973
11
18.573508
21
91.634540
0
LINE
8
Image
10
18.573508
20
91.634540
11
18.114969
21
92.156883
0
LINE
8
Image
10
18.114969
20
92.156883
11
18.114969
21
92.156883
0
LINE
8
Image
10
22.504683
20
92.440618
11
25.124918
21
92.853824
0
LINE
8
Image
10
25.124918
20
92.853824
11
25.884528
21
93.039337
0
LINE
8
Image
10
25.884528
20
93.039337
11
26.362483
21
93.277905
0
LINE
8
Image
10
26.362483
20
93.277905
11
26.622796
21
93.619864
0
LINE
8
Image
10
26.622796
20
93.619864
11
26.729480
21
94.115548
0
LINE
8
Image
10
26.729480
20
94.115548
11
26.738012
21
95.769435
0
LINE
8
Image
10
26.738012
20
95.769435
11
26.622891
21
97.900522
0
LINE
8
Image
10
26.622891
20
97.900522
11
26.433116
21
98.327965
0
LINE
8
Image
10
26.433116
20
98.327965
11
26.114418
21
98.509163
0
LINE
8
Image
10
26.114418
20
98.509163
11
24.726314
21
98.487706
0
LINE
8
Image
10
24.726314
20
98.487706
11
22.322760
21
98.233313
0
LINE
8
Image
10
22.322760
20
98.233313
11
19.946823
21
97.878858
0
LINE
8
Image
10
19.946823
20
97.878858
11
18.641574
21
97.557216
0
LINE
8
Image
10
18.641574
20
97.557216
11
18.400146
21
96.816443
0
LINE
8
Image
10
18.400146
20
96.816443
11
18.281144
21
95.354929
0
LINE
8
Image
10
18.281144
20
95.354929
11
18.303334
21
93.764356
0
LINE
8
Image
10
18.303334
20
93.764356
11
18.485486
21
92.636406
0
LINE
8
Image
10
18.485486
20
92.636406
11
18.779538
21
92.263022
0
LINE
8
Image
10
18.779538
20
92.263022
11
19.417344
21
92.112265
0
LINE
8
Image
10
19.417344
20
92.112265
11
22.504683
21
92.440618
0
LINE
8
Image
10
22.504683
20
92.440618
11
22.504683
21
92.440618
0
LINE
8
Image
10
19.417882
20
93.178959
11
19.082982
21
93.965742
0
LINE
8
Image
10
19.082982
20
93.965742
11
18.987247
21
95.127612
0
LINE
8
Image
10
18.987247
20
95.127612
11
19.123713
21
96.270446
0
LINE
8
Image
10
19.123713
20
96.270446
11
19.485414
21
97.000121
0
LINE
8
Image
10
19.485414
20
97.000121
11
20.583548
21
97.400583
0
LINE
8
Image
10
20.583548
20
97.400583
11
22.509679
21
97.770772
0
LINE
8
Image
10
22.509679
20
97.770772
11
24.373304
21
97.943213
0
LINE
8
Image
10
24.373304
20
97.943213
11
24.992215
21
97.891022
0
LINE
8
Image
10
24.992215
20
97.891022
11
25.438348
21
97.724244
0
LINE
8
Image
10
25.438348
20
97.724244
11
25.738572
21
97.426143
0
LINE
8
Image
10
25.738572
20
97.426143
11
25.919753
21
96.979986
0
LINE
8
Image
10
25.919753
20
96.979986
11
26.032456
21
95.576563
0
LINE
8
Image
10
26.032456
20
95.576563
11
26.008330
21
94.596661
0
LINE
8
Image
10
26.008330
20
94.596661
11
25.857876
21
94.048667
0
LINE
8
Image
10
25.857876
20
94.048667
11
25.463983
21
93.750549
0
LINE
8
Image
10
25.463983
20
93.750549
11
24.709541
21
93.520275
0
LINE
8
Image
10
24.709541
20
93.520275
11
22.873631
21
93.116042
0
LINE
8
Image
10
22.873631
20
93.116042
11
21.283421
21
92.918201
0
LINE
8
Image
10
21.283421
20
92.918201
11
20.083357
21
92.936068
0
LINE
8
Image
10
20.083357
20
92.936068
11
19.417882
21
93.178959
0
LINE
8
Image
10
19.417882
20
93.178959
11
19.417882
21
93.178959
0
LINE
8
Image
10
24.778698
20
94.187814
11
25.174551
21
94.395868
0
LINE
8
Image
10
25.174551
20
94.395868
11
25.412673
21
94.696087
0
LINE
8
Image
10
25.412673
20
94.696087
11
25.539548
21
95.842266
0
LINE
8
Image
10
25.539548
20
95.842266
11
25.503290
21
97.193659
0
LINE
8
Image
10
25.503290
20
97.193659
11
23.077823
21
97.094211
0
LINE
8
Image
10
23.077823
20
97.094211
11
21.134393
21
96.951881
0
LINE
8
Image
10
21.134393
20
96.951881
11
20.058930
21
96.631330
0
LINE
8
Image
10
20.058930
20
96.631330
11
19.777256
21
96.359882
0
LINE
8
Image
10
19.777256
20
96.359882
11
19.629257
21
95.990673
0
LINE
8
Image
10
19.629257
20
95.990673
11
19.623201
21
94.888025
0
LINE
8
Image
10
19.623201
20
94.888025
11
19.764379
21
93.407631
0
LINE
8
Image
10
19.764379
20
93.407631
11
21.872985
21
93.646192
0
LINE
8
Image
10
21.872985
20
93.646192
11
24.778698
21
94.187814
0
LINE
8
Image
10
24.778698
20
94.187814
11
24.778698
21
94.187814
0
LINE
8
Image
10
28.014289
20
96.183609
11
27.909012
21
98.648162
0
LINE
8
Image
10
27.909012
20
98.648162
11
27.991482
21
99.799577
0
LINE
8
Image
10
27.991482
20
99.799577
11
29.347638
21
100.004153
0
LINE
8
Image
10
29.347638
20
100.004153
11
32.304629
21
100.192266
0
LINE
8
Image
10
32.304629
20
100.192266
11
35.131464
21
100.225996
0
LINE
8
Image
10
35.131464
20
100.225996
11
36.072444
21
100.127101
0
LINE
8
Image
10
36.072444
20
100.127101
11
36.750675
21
99.927114
0
LINE
8
Image
10
36.750675
20
99.927114
11
37.205316
21
99.608096
0
LINE
8
Image
10
37.205316
20
99.608096
11
37.475525
21
99.152106
0
LINE
8
Image
10
37.475525
20
99.152106
11
37.619276
21
97.757454
0
LINE
8
Image
10
37.619276
20
97.757454
11
37.854183
21
94.988801
0
LINE
8
Image
10
37.854183
20
94.988801
11
37.985472
21
94.142242
0
LINE
8
Image
10
37.985472
20
94.142242
11
37.956221
21
93.694889
0
LINE
8
Image
10
37.956221
20
93.694889
11
37.710254
21
93.519666
0
LINE
8
Image
10
37.710254
20
93.519666
11
37.191395
21
93.489497
0
LINE
8
Image
10
37.191395
20
93.489497
11
36.001883
21
93.401303
0
LINE
8
Image
10
36.001883
20
93.401303
11
35.763937
21
93.649901
0
LINE
8
Image
10
35.763937
20
93.649901
11
35.558529
21
94.371440
0
LINE
8
Image
10
35.558529
20
94.371440
11
35.410939
21
94.981377
0
LINE
8
Image
10
35.410939
20
94.981377
11
35.072391
21
95.307510
0
LINE
8
Image
10
35.072391
20
95.307510
11
34.292540
21
95.456104
0
LINE
8
Image
10
34.292540
20
95.456104
11
32.821042
21
95.533422
0
LINE
8
Image
10
32.821042
20
95.533422
11
30.265787
21
95.637071
0
LINE
8
Image
10
30.265787
20
95.637071
11
30.265787
21
94.210507
0
LINE
8
Image
10
30.265787
20
94.210507
11
30.240831
21
93.425043
0
LINE
8
Image
10
30.240831
20
93.425043
11
30.115383
21
92.997169
0
LINE
8
Image
10
30.115383
20
92.997169
11
29.813571
21
92.819322
0
LINE
8
Image
10
29.813571
20
92.819322
11
29.259525
21
92.783942
0
LINE
8
Image
10
29.259525
20
92.783942
11
28.253263
21
92.783942
0
LINE
8
Image
10
28.253263
20
92.783942
11
28.014289
21
96.183609
0
LINE
8
Image
10
29.604327
20
94.195052
11
29.736618
21
95.253384
0
LINE
8
Image
10
29.736618
20
95.253384
11
29.868910
21
95.958938
0
LINE
8
Image
10
29.868910
20
95.958938
11
30.654692
21
96.210165
0
LINE
8
Image
10
30.654692
20
96.210165
11
32.533639
21
96.311716
0
LINE
8
Image
10
32.533639
20
96.311716
11
34.292749
21
96.220289
0
LINE
8
Image
10
34.292749
20
96.220289
11
35.444006
21
95.918820
0
LINE
8
Image
10
35.444006
20
95.918820
11
36.072420
21
95.366528
0
LINE
8
Image
10
36.072420
20
95.366528
11
36.263000
21
94.522631
0
LINE
8
Image
10
36.263000
20
94.522631
11
36.424980
21
94.035885
0
LINE
8
Image
10
36.424980
20
94.035885
11
36.832205
21
93.842274
0
LINE
8
Image
10
36.832205
20
93.842274
11
37.103494
21
93.891846
0
LINE
8
Image
10
37.103494
20
93.891846
11
37.239500
21
94.070009
0
LINE
8
Image
10
37.239500
20
94.070009
11
37.155481
21
94.988801
0
LINE
8
Image
10
37.155481
20
94.988801
11
36.939224
21
97.591293
0
LINE
8
Image
10
36.939224
20
97.591293
11
36.850145
21
98.650503
0
LINE
8
Image
10
36.850145
20
98.650503
11
36.528330
21
99.349355
0
LINE
8
Image
10
36.528330
20
99.349355
11
35.967828
21
99.694892
0
LINE
8
Image
10
35.967828
20
99.694892
11
35.162689
21
99.694155
0
LINE
8
Image
10
35.162689
20
99.694155
11
31.389444
21
99.512927
0
LINE
8
Image
10
31.389444
20
99.512927
11
28.456166
21
99.486712
0
LINE
8
Image
10
28.456166
20
99.486712
11
28.553543
21
96.488104
0
LINE
8
Image
10
28.553543
20
96.488104
11
28.732984
21
94.178251
0
LINE
8
Image
10
28.732984
20
94.178251
11
28.890931
21
93.654073
0
LINE
8
Image
10
28.890931
20
93.654073
11
29.105575
21
93.489497
0
LINE
8
Image
10
29.105575
20
93.489497
11
29.439629
21
93.696754
0
LINE
8
Image
10
29.439629
20
93.696754
11
29.604327
21
94.195052
0
LINE
8
Image
10
29.604327
20
94.195052
11
29.604327
21
94.195052
0
LINE
8
Image
10
29.560231
20
97.722825
11
29.593784
21
98.313573
0
LINE
8
Image
10
29.593784
20
98.313573
11
29.774647
21
98.632001
0
LINE
8
Image
10
29.774647
20
98.632001
11
30.223128
21
98.764265
0
LINE
8
Image
10
30.223128
20
98.764265
11
31.059533
21
98.796521
0
LINE
8
Image
10
31.059533
20
98.796521
11
34.072126
21
99.104486
0
LINE
8
Image
10
34.072126
20
99.104486
11
35.085862
21
99.256113
0
LINE
8
Image
10
35.085862
20
99.256113
11
35.398102
21
99.209776
0
LINE
8
Image
10
35.398102
20
99.209776
11
35.370329
21
98.951551
0
LINE
8
Image
10
35.370329
20
98.951551
11
35.566591
21
98.593747
0
LINE
8
Image
10
35.566591
20
98.593747
11
35.797534
21
98.177740
0
LINE
8
Image
10
35.797534
20
98.177740
11
35.775298
21
97.802835
0
LINE
8
Image
10
35.775298
20
97.802835
11
35.510544
21
97.473459
0
LINE
8
Image
10
35.510544
20
97.473459
11
35.013931
21
97.194039
0
LINE
8
Image
10
35.013931
20
97.194039
11
33.367772
21
96.802784
0
LINE
8
Image
10
33.367772
20
96.802784
11
30.922101
21
96.664493
0
LINE
8
Image
10
30.922101
20
96.664493
11
30.170151
21
96.690194
0
LINE
8
Image
10
30.170151
20
96.690194
11
29.761914
21
96.821224
0
LINE
8
Image
10
29.761914
20
96.821224
11
29.593304
21
97.138472
0
LINE
8
Image
10
29.593304
20
97.138472
11
29.560231
21
97.722825
0
LINE
8
Image
10
29.560231
20
97.722825
11
29.560231
21
97.722825
0
LINE
8
Image
10
35.126772
20
98.014769
11
35.101702
21
98.235504
0
LINE
8
Image
10
35.101702
20
98.235504
11
34.811256
21
98.364929
0
LINE
8
Image
10
34.811256
20
98.364929
11
33.214715
21
98.393305
0
LINE
8
Image
10
33.214715
20
98.393305
11
30.635328
21
98.153565
0
LINE
8
Image
10
30.635328
20
98.153565
11
30.080700
21
97.949359
0
LINE
8
Image
10
30.080700
20
97.949359
11
29.913008
21
97.666225
0
LINE
8
Image
10
29.913008
20
97.666225
11
30.129637
21
97.505723
0
LINE
8
Image
10
30.129637
20
97.505723
11
30.702289
21
97.419016
0
LINE
8
Image
10
30.702289
20
97.419016
11
32.452237
21
97.436011
0
LINE
8
Image
10
32.452237
20
97.436011
11
34.236011
21
97.655248
0
LINE
8
Image
10
34.236011
20
97.655248
11
34.850946
21
97.821346
0
LINE
8
Image
10
34.850946
20
97.821346
11
35.126772
21
98.014769
0
LINE
8
Image
10
35.126772
20
98.014769
11
35.126772
21
98.014769
0
LINE
8
Image
10
53.549086
20
93.030343
11
51.030397
21
93.267482
0
LINE
8
Image
10
51.030397
20
93.267482
11
50.201829
21
93.495548
0
LINE
8
Image
10
50.201829
20
93.495548
11
49.612266
21
93.837498
0
LINE
8
Image
10
49.612266
20
93.837498
11
49.225570
21
94.323997
0
LINE
8
Image
10
49.225570
20
94.323997
11
49.005606
21
94.985710
0
LINE
8
Image
10
49.005606
20
94.985710
11
48.921333
21
96.957432
0
LINE
8
Image
10
48.921333
20
96.957432
11
49.068173
21
98.891715
0
LINE
8
Image
10
49.068173
20
98.891715
11
49.276923
21
99.481462
0
LINE
8
Image
10
49.276923
20
99.481462
11
49.652949
21
99.867169
0
LINE
8
Image
10
49.652949
20
99.867169
11
50.254039
21
100.084502
0
LINE
8
Image
10
50.254039
20
100.084502
11
51.137986
21
100.169128
0
LINE
8
Image
10
51.137986
20
100.169128
11
53.985611
21
100.082920
0
LINE
8
Image
10
53.985611
20
100.082920
11
58.410589
21
99.681683
0
LINE
8
Image
10
58.410589
20
99.681683
11
58.444027
21
99.325797
0
LINE
8
Image
10
58.444027
20
99.325797
11
58.260121
21
98.734454
0
LINE
8
Image
10
58.260121
20
98.734454
11
57.992145
21
98.320487
0
LINE
8
Image
10
57.992145
20
98.320487
11
57.486078
21
98.101484
0
LINE
8
Image
10
57.486078
20
98.101484
11
54.717900
21
98.045853
0
LINE
8
Image
10
54.717900
20
98.045853
11
51.514360
21
98.116267
0
LINE
8
Image
10
51.514360
20
98.116267
11
51.347070
21
96.773020
0
LINE
8
Image
10
51.347070
20
96.773020
11
51.257297
21
95.331585
0
LINE
8
Image
10
51.257297
20
95.331585
11
54.646809
21
94.978807
0
LINE
8
Image
10
54.646809
20
94.978807
11
56.549563
21
94.816176
0
LINE
8
Image
10
56.549563
20
94.816176
11
57.546824
21
94.632106
0
LINE
8
Image
10
57.546824
20
94.632106
11
57.949982
21
94.315205
0
LINE
8
Image
10
57.949982
20
94.315205
11
58.070428
21
93.754080
0
LINE
8
Image
10
58.070428
20
93.754080
11
58.100678
21
93.225958
0
LINE
8
Image
10
58.100678
20
93.225958
11
57.985513
21
92.943148
0
LINE
8
Image
10
57.985513
20
92.943148
11
57.648222
21
92.840264
0
LINE
8
Image
10
57.648222
20
92.840264
11
57.012096
21
92.851915
0
LINE
8
Image
10
57.012096
20
92.851915
11
53.549086
21
93.030343
0
LINE
8
Image
10
53.549086
20
93.030343
11
53.549086
21
93.030343
0
LINE
8
Image
10
57.429637
20
93.793930
11
56.471075
21
94.100859
0
LINE
8
Image
10
56.471075
20
94.100859
11
54.166445
21
94.411291
0
LINE
8
Image
10
54.166445
20
94.411291
11
50.903256
21
94.724218
0
LINE
8
Image
10
50.903256
20
94.724218
11
50.903256
21
96.664493
0
LINE
8
Image
10
50.903256
20
96.664493
11
50.903256
21
98.604768
0
LINE
8
Image
10
50.903256
20
98.604768
11
54.342835
21
98.560983
0
LINE
8
Image
10
54.342835
20
98.560983
11
57.076405
21
98.625686
0
LINE
8
Image
10
57.076405
20
98.625686
11
57.625147
21
98.767476
0
LINE
8
Image
10
57.625147
20
98.767476
11
57.782414
21
99.001954
0
LINE
8
Image
10
57.782414
20
99.001954
11
57.599333
21
99.239299
0
LINE
8
Image
10
57.599333
20
99.239299
11
56.956120
21
99.387979
0
LINE
8
Image
10
56.956120
20
99.387979
11
53.725475
21
99.486712
0
LINE
8
Image
10
53.725475
20
99.486712
11
49.668534
21
99.486712
0
LINE
8
Image
10
49.668534
20
99.486712
11
49.668534
21
96.847603
0
LINE
8
Image
10
49.668534
20
96.847603
11
49.707098
21
95.137245
0
LINE
8
Image
10
49.707098
20
95.137245
11
49.819390
21
94.614272
0
LINE
8
Image
10
49.819390
20
94.614272
11
50.050654
21
94.259836
0
LINE
8
Image
10
50.050654
20
94.259836
11
50.443615
21
94.034237
0
LINE
8
Image
10
50.443615
20
94.034237
11
51.040996
21
93.897775
0
LINE
8
Image
10
51.040996
20
93.897775
11
53.019920
21
93.733464
0
LINE
8
Image
10
53.019920
20
93.733464
11
56.610483
21
93.561193
0
LINE
8
Image
10
56.610483
20
93.561193
11
57.260258
21
93.625479
0
LINE
8
Image
10
57.260258
20
93.625479
11
57.429637
21
93.793930
0
LINE
8
Image
10
57.429637
20
93.793930
11
57.429637
21
93.793930
0
LINE
8
Image
10
38.732440
20
94.547829
11
38.732440
21
95.606161
0
LINE
8
Image
10
38.732440
20
95.606161
11
42.348406
21
95.678705
0
LINE
8
Image
10
42.348406
20
95.678705
11
45.964372
21
95.751248
0
LINE
8
Image
10
45.964372
20
95.751248
11
42.800740
21
95.869948
0
LINE
8
Image
10
42.800740
20
95.869948
11
40.590140
21
96.045221
0
LINE
8
Image
10
40.590140
20
96.045221
11
39.239263
21
96.434469
0
LINE
8
Image
10
39.239263
20
96.434469
11
38.828641
21
96.740357
0
LINE
8
Image
10
38.828641
20
96.740357
11
38.563855
21
97.136968
0
LINE
8
Image
10
38.563855
20
97.136968
11
38.379664
21
98.251991
0
LINE
8
Image
10
38.379664
20
98.251991
11
38.571642
21
99.468836
0
LINE
8
Image
10
38.571642
20
99.468836
11
38.868516
21
99.873354
0
LINE
8
Image
10
38.868516
20
99.873354
11
39.349890
21
100.162322
0
LINE
8
Image
10
39.349890
20
100.162322
11
41.017874
21
100.454759
0
LINE
8
Image
10
41.017874
20
100.454759
11
43.879064
21
100.468456
0
LINE
8
Image
10
43.879064
20
100.468456
11
48.062539
21
100.368655
0
LINE
8
Image
10
48.062539
20
100.368655
11
48.063068
21
99.486712
0
LINE
8
Image
10
48.063068
20
99.486712
11
47.999889
21
98.977587
0
LINE
8
Image
10
47.999889
20
98.977587
11
47.586285
21
98.693412
0
LINE
8
Image
10
47.586285
20
98.693412
11
44.368156
21
98.409240
0
LINE
8
Image
10
44.368156
20
98.409240
11
41.130374
21
98.119652
0
LINE
8
Image
10
41.130374
20
98.119652
11
44.243180
21
98.060530
0
LINE
8
Image
10
44.243180
20
98.060530
11
46.631713
21
97.985163
0
LINE
8
Image
10
46.631713
20
97.985163
11
47.270238
21
97.817576
0
LINE
8
Image
10
47.270238
20
97.817576
11
47.682759
21
97.541586
0
LINE
8
Image
10
47.682759
20
97.541586
11
48.077256
21
96.777805
0
LINE
8
Image
10
48.077256
20
96.777805
11
48.242804
21
95.707002
0
LINE
8
Image
10
48.242804
20
95.707002
11
48.166175
21
94.646302
0
LINE
8
Image
10
48.166175
20
94.646302
11
47.834138
21
93.912830
0
LINE
8
Image
10
47.834138
20
93.912830
11
47.378902
21
93.727138
0
LINE
8
Image
10
47.378902
20
93.727138
11
46.435828
21
93.594900
0
LINE
8
Image
10
46.435828
20
93.594900
11
43.071644
21
93.489497
0
LINE
8
Image
10
43.071644
20
93.489497
11
38.732485
21
93.489497
0
LINE
8
Image
10
38.732485
20
93.489497
11
38.732440
21
94.547829
0
LINE
8
Image
10
47.340603
20
94.223247
11
47.513663
21
94.711273
0
LINE
8
Image
10
47.513663
20
94.711273
11
47.592891
21
95.527073
0
LINE
8
Image
10
47.592891
20
95.527073
11
47.568289
21
96.367470
0
LINE
8
Image
10
47.568289
20
96.367470
11
47.429858
21
96.929288
0
LINE
8
Image
10
47.429858
20
96.929288
11
47.110976
21
97.125376
0
LINE
8
Image
10
47.110976
20
97.125376
11
46.422184
21
97.262752
0
LINE
8
Image
10
46.422184
20
97.262752
11
43.864633
21
97.370048
0
LINE
8
Image
10
43.864633
20
97.370048
11
41.879560
21
97.420638
0
LINE
8
Image
10
41.879560
20
97.420638
11
40.752666
21
97.615199
0
LINE
8
Image
10
40.752666
20
97.615199
11
40.315922
21
98.017913
0
LINE
8
Image
10
40.315922
20
98.017913
11
40.401300
21
98.692963
0
LINE
8
Image
10
40.401300
20
98.692963
11
40.669028
21
98.893823
0
LINE
8
Image
10
40.669028
20
98.893823
11
41.337760
21
99.030745
0
LINE
8
Image
10
41.337760
20
99.030745
11
44.053495
21
99.133934
0
LINE
8
Image
10
44.053495
20
99.133934
11
46.615984
21
99.231304
0
LINE
8
Image
10
46.615984
20
99.231304
11
47.310237
21
99.345843
0
LINE
8
Image
10
47.310237
20
99.345843
11
47.551870
21
99.497907
0
LINE
8
Image
10
47.551870
20
99.497907
11
47.280711
21
99.647459
0
LINE
8
Image
10
47.280711
20
99.647459
11
46.483351
21
99.742436
0
LINE
8
Image
10
46.483351
20
99.742436
11
43.406738
21
99.762490
0
LINE
8
Image
10
43.406738
20
99.762490
11
39.261606
21
99.663100
0
LINE
8
Image
10
39.261606
20
99.663100
11
39.149341
21
98.493529
0
LINE
8
Image
10
39.149341
20
98.493529
11
39.176418
21
97.384513
0
LINE
8
Image
10
39.176418
20
97.384513
11
39.345925
21
97.008583
0
LINE
8
Image
10
39.345925
20
97.008583
11
39.651904
21
96.732004
0
LINE
8
Image
10
39.651904
20
96.732004
11
40.770750
21
96.417794
0
LINE
8
Image
10
40.770750
20
96.417794
11
42.727908
21
96.323675
0
LINE
8
Image
10
42.727908
20
96.323675
11
46.326267
21
96.202301
0
LINE
8
Image
10
46.326267
20
96.202301
11
46.641020
21
95.980190
0
LINE
8
Image
10
46.641020
20
95.980190
11
46.462071
21
95.547365
0
LINE
8
Image
10
46.462071
20
95.547365
11
46.160706
21
95.209749
0
LINE
8
Image
10
46.160706
20
95.209749
11
45.561708
21
95.013711
0
LINE
8
Image
10
45.561708
20
95.013711
11
42.600578
21
94.900606
0
LINE
8
Image
10
42.600578
20
94.900606
11
40.089292
21
94.803919
0
LINE
8
Image
10
40.089292
20
94.803919
11
39.085219
21
94.562096
0
LINE
8
Image
10
39.085219
20
94.562096
11
39.423369
21
94.406240
0
LINE
8
Image
10
39.423369
20
94.406240
11
40.318298
21
94.268095
0
LINE
8
Image
10
40.318298
20
94.268095
11
43.061377
21
94.074373
0
LINE
8
Image
10
43.061377
20
94.074373
11
45.880223
21
94.039801
0
LINE
8
Image
10
45.880223
20
94.039801
11
47.340603
21
94.223247
0
LINE
8
Image
10
47.340603
20
94.223247
11
47.340603
21
94.223247
0
LINE
8
Image
10
47.054592
20
8.738728
11
53.085081
21
12.619328
0
LINE
8
Image
10
53.085081
20
12.619328
11
54.852083
21
13.952180
0
LINE
8
Image
10
54.852083
20
13.952180
11
55.401730
21
14.609166
0
LINE
8
Image
10
55.401730
20
14.609166
11
55.363372
21
14.772548
0
LINE
8
Image
10
55.363372
20
14.772548
11
55.548873
21
14.715999
0
LINE
8
Image
10
55.548873
20
14.715999
11
55.961493
21
14.820500
0
LINE
8
Image
10
55.961493
20
14.820500
11
56.770408
21
15.316232
0
LINE
8
Image
10
56.770408
20
15.316232
11
59.231090
21
17.198012
0
LINE
8
Image
10
59.231090
20
17.198012
11
62.238856
21
19.794580
0
LINE
8
Image
10
62.238856
20
19.794580
11
65.101645
21
22.539176
0
LINE
8
Image
10
65.101645
20
22.539176
11
67.563978
21
25.259664
0
LINE
8
Image
10
67.563978
20
25.259664
11
69.677697
21
27.991493
0
LINE
8
Image
10
69.677697
20
27.991493
11
71.396032
21
30.668649
0
LINE
8
Image
10
71.396032
20
30.668649
11
72.672211
21
33.225115
0
LINE
8
Image
10
72.672211
20
33.225115
11
73.384745
21
35.440369
0
LINE
8
Image
10
73.384745
20
35.440369
11
74.060894
21
38.571036
0
LINE
8
Image
10
74.060894
20
38.571036
11
74.682729
21
42.519331
0
LINE
8
Image
10
74.682729
20
42.519331
11
75.232321
21
47.187474
0
LINE
8
Image
10
75.232321
20
47.187474
11
75.456315
21
49.392332
0
LINE
8
Image
10
75.456315
20
49.392332
11
66.488425
21
49.392332
0
LINE
8
Image
10
66.488425
20
49.392332
11
57.520532
21
49.392332
0
LINE
8
Image
10
57.520532
20
49.392332
11
57.285969
21
47.540251
0
LINE
8
Image
10
57.285969
20
47.540251
11
56.812864
21
44.985971
0
LINE
8
Image
10
56.812864
20
44.985971
11
56.064524
21
42.785915
0
LINE
8
Image
10
56.064524
20
42.785915
11
54.996869
21
40.839440
0
LINE
8
Image
10
54.996869
20
40.839440
11
53.565823
21
39.045903
0
LINE
8
Image
10
53.565823
20
39.045903
11
52.271751
21
37.449862
0
LINE
8
Image
10
52.271751
20
37.449862
11
51.427122
21
36.011742
0
LINE
8
Image
10
51.427122
20
36.011742
11
51.142747
21
34.974498
0
LINE
8
Image
10
51.142747
20
34.974498
11
51.245283
21
34.682129
0
LINE
8
Image
10
51.245283
20
34.682129
11
51.529436
21
34.581087
0
LINE
8
Image
10
51.529436
20
34.581087
11
51.983286
21
34.669204
0
LINE
8
Image
10
51.983286
20
34.669204
11
52.433904
21
34.980422
0
LINE
8
Image
10
52.433904
20
34.980422
11
53.701708
21
36.626459
0
LINE
8
Image
10
53.701708
20
36.626459
11
54.628030
21
37.718979
0
LINE
8
Image
10
54.628030
20
37.718979
11
55.813196
21
38.707790
0
LINE
8
Image
10
55.813196
20
38.707790
11
57.139184
21
39.508773
0
LINE
8
Image
10
57.139184
20
39.508773
11
58.487969
21
40.037807
0
LINE
8
Image
10
58.487969
20
40.037807
11
58.890881
21
40.115035
0
LINE
8
Image
10
58.890881
20
40.115035
11
58.947795
21
39.994978
0
LINE
8
Image
10
58.947795
20
39.994978
11
57.898841
21
38.927913
0
LINE
8
Image
10
57.898841
20
38.927913
11
56.690569
21
37.696591
0
LINE
8
Image
10
56.690569
20
37.696591
11
55.851328
21
36.637010
0
LINE
8
Image
10
55.851328
20
36.637010
11
55.274884
21
35.699728
0
LINE
8
Image
10
55.274884
20
35.699728
11
56.549745
21
35.987255
0
LINE
8
Image
10
56.549745
20
35.987255
11
57.804558
21
36.547515
0
LINE
8
Image
10
57.804558
20
36.547515
11
59.029404
21
37.515323
0
LINE
8
Image
10
59.029404
20
37.515323
11
60.359382
21
38.642895
0
LINE
8
Image
10
60.359382
20
38.642895
11
61.390467
21
39.146848
0
LINE
8
Image
10
61.390467
20
39.146848
11
61.696984
21
39.143841
0
LINE
8
Image
10
61.696984
20
39.143841
11
61.812451
21
38.959577
0
LINE
8
Image
10
61.812451
20
38.959577
11
61.698091
21
38.585605
0
LINE
8
Image
10
61.698091
20
38.585605
11
61.315129
21
38.013474
0
LINE
8
Image
10
61.315129
20
38.013474
11
60.701359
21
36.974356
0
LINE
8
Image
10
60.701359
20
36.974356
11
60.678056
21
36.635374
0
LINE
8
Image
10
60.678056
20
36.635374
11
60.837096
21
36.420859
0
LINE
8
Image
10
60.837096
20
36.420859
11
61.682079
21
36.377486
0
LINE
8
Image
10
61.682079
20
36.377486
11
63.196049
21
36.868737
0
LINE
8
Image
10
63.196049
20
36.868737
11
64.670128
21
37.315204
0
LINE
8
Image
10
64.670128
20
37.315204
11
65.653054
21
37.336804
0
LINE
8
Image
10
65.653054
20
37.336804
11
65.877731
21
37.209658
0
LINE
8
Image
10
65.877731
20
37.209658
11
65.880496
21
37.001950
0
LINE
8
Image
10
65.880496
20
37.001950
11
65.088122
21
36.379052
0
LINE
8
Image
10
65.088122
20
36.379052
11
64.279950
21
35.946533
0
LINE
8
Image
10
64.279950
20
35.946533
11
65.570401
21
34.589987
0
LINE
8
Image
10
65.570401
20
34.589987
11
66.370164
21
33.594379
0
LINE
8
Image
10
66.370164
20
33.594379
11
66.964867
21
32.567162
0
LINE
8
Image
10
66.964867
20
32.567162
11
67.266596
21
31.694645
0
LINE
8
Image
10
67.266596
20
31.694645
11
67.187440
21
31.163135
0
LINE
8
Image
10
67.187440
20
31.163135
11
66.781956
21
31.333399
0
LINE
8
Image
10
66.781956
20
31.333399
11
66.023745
21
31.959437
0
LINE
8
Image
10
66.023745
20
31.959437
11
64.636626
21
33.032121
0
LINE
8
Image
10
64.636626
20
33.032121
11
63.131155
21
33.747122
0
LINE
8
Image
10
63.131155
20
33.747122
11
61.502661
21
34.106039
0
LINE
8
Image
10
61.502661
20
34.106039
11
59.746474
21
34.110473
0
LINE
8
Image
10
59.746474
20
34.110473
11
56.552069
21
33.493313
0
LINE
8
Image
10
56.552069
20
33.493313
11
53.140356
21
32.398466
0
LINE
8
Image
10
53.140356
20
32.398466
11
50.424022
21
31.171704
0
LINE
8
Image
10
50.424022
20
31.171704
11
49.611838
21
30.616908
0
LINE
8
Image
10
49.611838
20
30.616908
11
49.315758
21
30.158799
0
LINE
8
Image
10
49.315758
20
30.158799
11
49.203616
21
29.921245
0
LINE
8
Image
10
49.203616
20
29.921245
11
48.902798
21
29.753232
0
LINE
8
Image
10
48.902798
20
29.753232
11
47.948777
21
29.624215
0
LINE
8
Image
10
47.948777
20
29.624215
11
46.880982
21
29.768516
0
LINE
8
Image
10
46.880982
20
29.768516
11
46.126699
21
30.182902
0
LINE
8
Image
10
46.126699
20
30.182902
11
45.922456
21
30.507093
0
LINE
8
Image
10
45.922456
20
30.507093
11
45.871922
21
30.857930
0
LINE
8
Image
10
45.871922
20
30.857930
11
46.254186
21
31.946787
0
LINE
8
Image
10
46.254186
20
31.946787
11
46.929070
21
32.927299
0
LINE
8
Image
10
46.929070
20
32.927299
11
47.343107
21
33.113646
0
LINE
8
Image
10
47.343107
20
33.113646
11
47.898942
21
33.164565
0
LINE
8
Image
10
47.898942
20
33.164565
11
48.723183
21
33.304329
0
LINE
8
Image
10
48.723183
20
33.304329
11
48.908480
21
33.495432
0
LINE
8
Image
10
48.908480
20
33.495432
11
48.967797
21
33.781924
0
LINE
8
Image
10
48.967797
20
33.781924
11
49.189306
21
35.208230
0
LINE
8
Image
10
49.189306
20
35.208230
11
49.291385
21
35.665015
0
LINE
8
Image
10
49.291385
20
35.665015
11
49.204097
21
35.847047
0
LINE
8
Image
10
49.204097
20
35.847047
11
48.037962
21
35.490771
0
LINE
8
Image
10
48.037962
20
35.490771
11
45.170623
21
34.580033
0
LINE
8
Image
10
45.170623
20
34.580033
11
43.671321
21
34.195700
0
LINE
8
Image
10
43.671321
20
34.195700
11
43.671321
21
20.627371
0
LINE
8
Image
10
43.671321
20
20.627371
11
43.758409
21
11.044739
0
LINE
8
Image
10
43.758409
20
11.044739
11
43.967792
21
7.059041
0
LINE
8
Image
10
43.967792
20
7.059041
11
47.054592
21
8.738717
0
LINE
8
Image
10
47.054592
20
8.738717
11
47.054592
21
8.738728
0
LINE
8
Image
10
45.616102
20
16.223971
11
45.567086
21
16.711135
0
LINE
8
Image
10
45.567086
20
16.711135
11
45.805436
21
17.296598
0
LINE
8
Image
10
45.805436
20
17.296598
11
46.215678
21
17.788543
0
LINE
8
Image
10
46.215678
20
17.788543
11
46.682339
21
17.995151
0
LINE
8
Image
10
46.682339
20
17.995151
11
47.047297
21
18.188432
0
LINE
8
Image
10
47.047297
20
18.188432
11
47.199094
21
18.653129
0
LINE
8
Image
10
47.199094
20
18.653129
11
47.414601
21
19.406829
0
LINE
8
Image
10
47.414601
20
19.406829
11
47.939269
21
20.232007
0
LINE
8
Image
10
47.939269
20
20.232007
11
48.590320
21
20.896999
0
LINE
8
Image
10
48.590320
20
20.896999
11
49.184977
21
21.170144
0
LINE
8
Image
10
49.184977
20
21.170144
11
49.440170
21
21.143501
0
LINE
8
Image
10
49.440170
20
21.143501
11
49.521940
21
21.033759
0
LINE
8
Image
10
49.521940
20
21.033759
11
49.159365
21
20.386095
0
LINE
8
Image
10
49.159365
20
20.386095
11
48.637362
21
19.399921
0
LINE
8
Image
10
48.637362
20
19.399921
11
48.660000
21
19.142231
0
LINE
8
Image
10
48.660000
20
19.142231
11
48.874777
21
19.055713
0
LINE
8
Image
10
48.874777
20
19.055713
11
49.238707
21
19.368491
0
LINE
8
Image
10
49.238707
20
19.368491
11
49.742144
21
20.117234
0
LINE
8
Image
10
49.742144
20
20.117234
11
50.404688
21
20.931120
0
LINE
8
Image
10
50.404688
20
20.931120
11
51.227538
21
21.503766
0
LINE
8
Image
10
51.227538
20
21.503766
11
51.998356
21
21.728880
0
LINE
8
Image
10
51.998356
20
21.728880
11
52.297898
21
21.677897
0
LINE
8
Image
10
52.297898
20
21.677897
11
52.504806
21
21.500172
0
LINE
8
Image
10
52.504806
20
21.500172
11
52.870817
21
21.277939
0
LINE
8
Image
10
52.870817
20
21.277939
11
53.534428
21
21.515094
0
LINE
8
Image
10
53.534428
20
21.515094
11
54.164806
21
21.756083
0
LINE
8
Image
10
54.164806
20
21.756083
11
54.504292
21
21.712662
0
LINE
8
Image
10
54.504292
20
21.712662
11
54.488500
21
21.446427
0
LINE
8
Image
10
54.488500
20
21.446427
11
54.053045
21
21.018969
0
LINE
8
Image
10
54.053045
20
21.018969
11
53.652612
21
20.588904
0
LINE
8
Image
10
53.652612
20
20.588904
11
53.643706
21
20.252382
0
LINE
8
Image
10
53.643706
20
20.252382
11
53.956956
21
20.184387
0
LINE
8
Image
10
53.956956
20
20.184387
11
54.331069
21
20.399927
0
LINE
8
Image
10
54.331069
20
20.399927
11
54.876928
21
20.694754
0
LINE
8
Image
10
54.876928
20
20.694754
11
55.603104
21
20.817381
0
LINE
8
Image
10
55.603104
20
20.817381
11
56.211668
21
20.720399
0
LINE
8
Image
10
56.211668
20
20.720399
11
56.042153
21
20.316692
0
LINE
8
Image
10
56.042153
20
20.316692
11
55.816710
21
19.859245
0
LINE
8
Image
10
55.816710
20
19.859245
11
56.123846
21
19.522943
0
LINE
8
Image
10
56.123846
20
19.522943
11
56.955412
21
18.564436
0
LINE
8
Image
10
56.955412
20
18.564436
11
57.429629
21
17.463585
0
LINE
8
Image
10
57.429629
20
17.463585
11
57.156583
21
17.519325
0
LINE
8
Image
10
57.156583
20
17.519325
11
56.500110
21
17.969558
0
LINE
8
Image
10
56.500110
20
17.969558
11
55.310220
21
18.541717
0
LINE
8
Image
10
55.310220
20
18.541717
11
53.781970
21
18.697922
0
LINE
8
Image
10
53.781970
20
18.697922
11
51.998901
21
18.440720
0
LINE
8
Image
10
51.998901
20
18.440720
11
50.044557
21
17.772660
0
LINE
8
Image
10
50.044557
20
17.772660
11
48.533242
21
16.975326
0
LINE
8
Image
10
48.533242
20
16.975326
11
47.904641
21
16.361552
0
LINE
8
Image
10
47.904641
20
16.361552
11
47.593981
21
16.027888
0
LINE
8
Image
10
47.593981
20
16.027888
11
46.885502
21
15.880304
0
LINE
8
Image
10
46.885502
20
15.880304
11
46.114455
21
15.938952
0
LINE
8
Image
10
46.114455
20
15.938952
11
45.616094
21
16.223985
0
LINE
8
Image
10
45.616094
20
16.223985
11
45.616102
21
16.223971
0
LINE
8
Image
10
47.447008
20
16.900002
11
48.219879
21
17.554816
0
LINE
8
Image
10
48.219879
20
17.554816
11
49.491592
21
18.190077
0
LINE
8
Image
10
49.491592
20
18.190077
11
50.610991
21
18.730035
0
LINE
8
Image
10
50.610991
20
18.730035
11
50.765594
21
18.933213
0
LINE
8
Image
10
50.765594
20
18.933213
11
50.658122
21
19.098073
0
LINE
8
Image
10
50.658122
20
19.098073
11
50.375777
21
19.474317
0
LINE
8
Image
10
50.375777
20
19.474317
11
50.664710
21
20.137966
0
LINE
8
Image
10
50.664710
20
20.137966
11
50.882525
21
20.600708
0
LINE
8
Image
10
50.882525
20
20.600708
11
50.861609
21
20.687599
0
LINE
8
Image
10
50.861609
20
20.687599
11
50.750395
21
20.655525
0
LINE
8
Image
10
50.750395
20
20.655525
11
49.814811
21
19.348038
0
LINE
8
Image
10
49.814811
20
19.348038
11
49.201257
21
18.528881
0
LINE
8
Image
10
49.201257
20
18.528881
11
48.854068
21
18.407621
0
LINE
8
Image
10
48.854068
20
18.407621
11
48.416887
21
18.437505
0
LINE
8
Image
10
48.416887
20
18.437505
11
47.873027
21
18.467301
0
LINE
8
Image
10
47.873027
20
18.467301
11
47.750172
21
18.312465
0
LINE
8
Image
10
47.750172
20
18.312465
11
47.613662
21
17.938922
0
LINE
8
Image
10
47.613662
20
17.938922
11
47.036970
21
17.442895
0
LINE
8
Image
10
47.036970
20
17.442895
11
46.465339
21
16.938678
0
LINE
8
Image
10
46.465339
20
16.938678
11
46.340995
21
16.545453
0
LINE
8
Image
10
46.340995
20
16.545453
11
46.576746
21
16.292662
0
LINE
8
Image
10
46.576746
20
16.292662
11
46.835989
21
16.266312
0
LINE
8
Image
10
46.835989
20
16.266312
11
47.447003
21
16.900002
0
LINE
8
Image
10
47.447003
20
16.900002
11
47.447008
21
16.900002
0
LINE
8
Image
10
55.455134
20
19.457189
11
54.910419
21
19.673194
0
LINE
8
Image
10
54.910419
20
19.673194
11
53.900472
21
19.814733
0
LINE
8
Image
10
53.900472
20
19.814733
11
52.926761
21
19.839711
0
LINE
8
Image
10
52.926761
20
19.839711
11
52.490754
21
19.706032
0
LINE
8
Image
10
52.490754
20
19.706032
11
52.309404
21
19.492866
0
LINE
8
Image
10
52.309404
20
19.492866
11
51.873394
21
19.328673
0
LINE
8
Image
10
51.873394
20
19.328673
11
51.804786
21
19.279665
0
LINE
8
Image
10
51.804786
20
19.279665
11
52.074356
21
19.241824
0
LINE
8
Image
10
52.074356
20
19.241824
11
53.424451
21
19.214611
0
LINE
8
Image
10
53.424451
20
19.214611
11
54.915438
21
19.292161
0
LINE
8
Image
10
54.915438
20
19.292161
11
55.455134
21
19.457189
0
LINE
8
Image
10
55.455134
20
19.457189
11
55.455134
21
19.457189
0
LINE
8
Image
10
52.067421
20
20.182369
11
52.475381
21
20.867527
0
LINE
8
Image
10
52.475381
20
20.867527
11
52.406257
21
21.087531
0
LINE
8
Image
10
52.406257
20
21.087531
11
52.150389
21
21.170144
0
LINE
8
Image
10
52.150389
20
21.170144
11
51.799086
21
20.962888
0
LINE
8
Image
10
51.799086
20
20.962888
11
51.432422
21
20.464591
0
LINE
8
Image
10
51.432422
20
20.464591
11
51.262560
21
19.999043
0
LINE
8
Image
10
51.262560
20
19.999043
11
51.344265
21
19.782382
0
LINE
8
Image
10
51.344265
20
19.782382
11
51.628798
21
19.836271
0
LINE
8
Image
10
51.628798
20
19.836271
11
52.067421
21
20.182369
0
LINE
8
Image
10
52.067421
20
20.182369
11
52.067421
21
20.182369
0
LINE
8
Image
10
45.789909
20
22.930436
11
45.664122
21
23.724104
0
LINE
8
Image
10
45.664122
20
23.724104
11
45.977468
21
24.528959
0
LINE
8
Image
10
45.977468
20
24.528959
11
46.603570
21
25.152812
0
LINE
8
Image
10
46.603570
20
25.152812
11
47.416054
21
25.403472
0
LINE
8
Image
10
47.416054
20
25.403472
11
48.038895
21
25.551345
0
LINE
8
Image
10
48.038895
20
25.551345
11
48.257426
21
25.972802
0
LINE
8
Image
10
48.257426
20
25.972802
11
48.511352
21
26.940447
0
LINE
8
Image
10
48.511352
20
26.940447
11
49.151658
21
28.073810
0
LINE
8
Image
10
49.151658
20
28.073810
11
49.996136
21
29.107015
0
LINE
8
Image
10
49.996136
20
29.107015
11
50.862579
21
29.774190
0
LINE
8
Image
10
50.862579
20
29.774190
11
52.060132
21
30.185016
0
LINE
8
Image
10
52.060132
20
30.185016
11
51.087694
21
28.357957
0
LINE
8
Image
10
51.087694
20
28.357957
11
50.479035
21
27.191648
0
LINE
8
Image
10
50.479035
20
27.191648
11
50.386272
21
26.563262
0
LINE
8
Image
10
50.386272
20
26.563262
11
50.516171
21
26.488174
0
LINE
8
Image
10
50.516171
20
26.488174
11
50.754427
21
26.592427
0
LINE
8
Image
10
50.754427
20
26.592427
11
51.528521
21
27.398769
0
LINE
8
Image
10
51.528521
20
27.398769
11
52.518065
21
28.588730
0
LINE
8
Image
10
52.518065
20
28.588730
11
53.381481
21
29.412226
0
LINE
8
Image
10
53.381481
20
29.412226
11
54.226258
21
29.955244
0
LINE
8
Image
10
54.226258
20
29.955244
11
55.159883
21
30.303772
0
LINE
8
Image
10
55.159883
20
30.303772
11
56.091523
21
30.496142
0
LINE
8
Image
10
56.091523
20
30.496142
11
56.639459
21
30.483597
0
LINE
8
Image
10
56.639459
20
30.483597
11
56.726651
21
30.291019
0
LINE
8
Image
10
56.726651
20
30.291019
11
56.276061
21
29.943288
0
LINE
8
Image
10
56.276061
20
29.943288
11
54.771745
21
28.646834
0
LINE
8
Image
10
54.771745
20
28.646834
11
54.098127
21
27.804426
0
LINE
8
Image
10
54.098127
20
27.804426
11
54.222200
21
27.662750
0
LINE
8
Image
10
54.222200
20
27.662750
11
54.637345
21
27.578831
0
LINE
8
Image
10
54.637345
20
27.578831
11
55.434340
21
27.765773
0
LINE
8
Image
10
55.434340
20
27.765773
11
56.320987
21
28.551430
0
LINE
8
Image
10
56.320987
20
28.551430
11
57.333632
21
29.407732
0
LINE
8
Image
10
57.333632
20
29.407732
11
58.487969
21
29.851597
0
LINE
8
Image
10
58.487969
20
29.851597
11
59.722688
21
30.061472
0
LINE
8
Image
10
59.722688
20
30.061472
11
58.664356
21
29.151920
0
LINE
8
Image
10
58.664356
20
29.151920
11
57.909486
21
28.353592
0
LINE
8
Image
10
57.909486
20
28.353592
11
57.903556
21
28.112617
0
LINE
8
Image
10
57.903556
20
28.112617
11
58.114330
21
27.907015
0
LINE
8
Image
10
58.114330
20
27.907015
11
58.738865
21
27.781233
0
LINE
8
Image
10
58.738865
20
27.781233
11
59.596114
21
28.075065
0
LINE
8
Image
10
59.596114
20
28.075065
11
60.395818
21
28.393041
0
LINE
8
Image
10
60.395818
20
28.393041
11
61.180716
21
28.558525
0
LINE
8
Image
10
61.180716
20
28.558525
11
61.778221
21
28.551706
0
LINE
8
Image
10
61.778221
20
28.551706
11
62.015742
21
28.352776
0
LINE
8
Image
10
62.015742
20
28.352776
11
61.418752
21
27.690557
0
LINE
8
Image
10
61.418752
20
27.690557
11
61.118711
21
27.423370
0
LINE
8
Image
10
61.118711
20
27.423370
11
61.057843
21
27.151178
0
LINE
8
Image
10
61.057843
20
27.151178
11
61.747153
21
26.154266
0
LINE
8
Image
10
61.747153
20
26.154266
11
62.838020
21
24.451819
0
LINE
8
Image
10
62.838020
20
24.451819
11
63.027130
21
23.788529
0
LINE
8
Image
10
63.027130
20
23.788529
11
62.926251
21
23.374171
0
LINE
8
Image
10
62.926251
20
23.374171
11
62.637702
21
23.413890
0
LINE
8
Image
10
62.637702
20
23.413890
11
62.242002
21
23.807431
0
LINE
8
Image
10
62.242002
20
23.807431
11
61.772958
21
24.207191
0
LINE
8
Image
10
61.772958
20
24.207191
11
61.309197
21
24.168142
0
LINE
8
Image
10
61.309197
20
24.168142
11
61.029298
21
24.057517
0
LINE
8
Image
10
61.029298
20
24.057517
11
61.090826
21
24.275610
0
LINE
8
Image
10
61.090826
20
24.275610
11
61.125119
21
24.517844
0
LINE
8
Image
10
61.125119
20
24.517844
11
60.960261
21
24.769412
0
LINE
8
Image
10
60.960261
20
24.769412
11
60.156830
21
25.249221
0
LINE
8
Image
10
60.156830
20
25.249221
11
58.928009
21
25.612385
0
LINE
8
Image
10
58.928009
20
25.612385
11
57.521273
21
25.756251
0
LINE
8
Image
10
57.521273
20
25.756251
11
54.788504
21
25.440175
0
LINE
8
Image
10
54.788504
20
25.440175
11
51.874259
21
24.665150
0
LINE
8
Image
10
51.874259
20
24.665150
11
49.555752
21
23.690983
0
LINE
8
Image
10
49.555752
20
23.690983
11
48.862782
21
23.210411
0
LINE
8
Image
10
48.862782
20
23.210411
11
48.610202
21
22.777481
0
LINE
8
Image
10
48.610202
20
22.777481
11
48.508570
21
22.499198
0
LINE
8
Image
10
48.508570
20
22.499198
11
48.236569
21
22.311239
0
LINE
8
Image
10
48.236569
20
22.311239
11
47.378824
21
22.195590
0
LINE
8
Image
10
47.378824
20
22.195590
11
46.431694
21
22.409125
0
LINE
8
Image
10
46.431694
20
22.409125
11
45.789909
21
22.930436
0
LINE
8
Image
10
45.789909
20
22.930436
11
45.789909
21
22.930436
0
LINE
8
Image
10
52.335396
20
25.392296
11
54.953669
21
26.109748
0
LINE
8
Image
10
54.953669
20
26.109748
11
57.092971
21
26.412395
0
LINE
8
Image
10
57.092971
20
26.412395
11
58.858049
21
26.305489
0
LINE
8
Image
10
58.858049
20
26.305489
11
60.353652
21
25.794280
0
LINE
8
Image
10
60.353652
20
25.794280
11
61.240443
21
25.420046
0
LINE
8
Image
10
61.240443
20
25.420046
11
61.618922
21
25.426095
0
LINE
8
Image
10
61.618922
20
25.426095
11
61.464215
21
25.773177
0
LINE
8
Image
10
61.464215
20
25.773177
11
60.751448
21
26.422040
0
LINE
8
Image
10
60.751448
20
26.422040
11
60.149531
21
27.070632
0
LINE
8
Image
10
60.149531
20
27.070632
11
60.113612
21
27.594169
0
LINE
8
Image
10
60.113612
20
27.594169
11
60.212612
21
27.859739
0
LINE
8
Image
10
60.212612
20
27.859739
11
59.811741
21
27.582845
0
LINE
8
Image
10
59.811741
20
27.582845
11
59.114013
21
27.286802
0
LINE
8
Image
10
59.114013
20
27.286802
11
58.244720
21
27.230069
0
LINE
8
Image
10
58.244720
20
27.230069
11
57.463091
21
27.487812
0
LINE
8
Image
10
57.463091
20
27.487812
11
57.314148
21
27.756141
0
LINE
8
Image
10
57.314148
20
27.756141
11
57.283556
21
28.158895
0
LINE
8
Image
10
57.283556
20
28.158895
11
57.217251
21
28.755126
0
LINE
8
Image
10
57.217251
20
28.755126
11
56.576026
21
28.048696
0
LINE
8
Image
10
56.576026
20
28.048696
11
55.656224
21
27.296937
0
LINE
8
Image
10
55.656224
20
27.296937
11
54.340858
21
26.922523
0
LINE
8
Image
10
54.340858
20
26.922523
11
53.359079
21
26.847719
0
LINE
8
Image
10
53.359079
20
26.847719
11
52.927810
21
26.992092
0
LINE
8
Image
10
52.927810
20
26.992092
11
53.020168
21
27.399393
0
LINE
8
Image
10
53.020168
20
27.399393
11
53.609273
21
28.113376
0
LINE
8
Image
10
53.609273
20
28.113376
11
54.094597
21
28.744517
0
LINE
8
Image
10
54.094597
20
28.744517
11
54.186143
21
29.117342
0
LINE
8
Image
10
54.186143
20
29.117342
11
53.805574
21
28.975500
0
LINE
8
Image
10
53.805574
20
28.975500
11
53.155817
21
28.369249
0
LINE
8
Image
10
53.155817
20
28.369249
11
51.117380
21
26.216122
0
LINE
8
Image
10
51.117380
20
26.216122
11
50.605361
21
25.847050
0
LINE
8
Image
10
50.605361
20
25.847050
11
50.213736
21
25.756257
0
LINE
8
Image
10
50.213736
20
25.756257
11
49.953860
21
25.822946
0
LINE
8
Image
10
49.953860
20
25.822946
11
49.780546
21
26.008894
0
LINE
8
Image
10
49.780546
20
26.008894
11
49.686059
21
26.653827
0
LINE
8
Image
10
49.686059
20
26.653827
11
49.915191
21
27.521587
0
LINE
8
Image
10
49.915191
20
27.521587
11
50.452859
21
28.442705
0
LINE
8
Image
10
50.452859
20
28.442705
11
50.940295
21
29.143540
0
LINE
8
Image
10
50.940295
20
29.143540
11
50.572207
21
28.931253
0
LINE
8
Image
10
50.572207
20
28.931253
11
49.861559
21
28.013480
0
LINE
8
Image
10
49.861559
20
28.013480
11
49.086777
21
26.550006
0
LINE
8
Image
10
49.086777
20
26.550006
11
48.260752
21
25.063857
0
LINE
8
Image
10
48.260752
20
25.063857
11
47.874155
21
24.777272
0
LINE
8
Image
10
47.874155
20
24.777272
11
47.417674
21
24.697925
0
LINE
8
Image
10
47.417674
20
24.697925
11
46.897877
21
24.595105
0
LINE
8
Image
10
46.897877
20
24.595105
11
46.494525
21
24.305786
0
LINE
8
Image
10
46.494525
20
24.305786
11
46.233519
21
23.858680
0
LINE
8
Image
10
46.233519
20
23.858680
11
46.140762
21
23.282498
0
LINE
8
Image
10
46.140762
20
23.282498
11
46.211234
21
23.067008
0
LINE
8
Image
10
46.211234
20
23.067008
11
46.402216
21
22.929379
0
LINE
8
Image
10
46.402216
20
22.929379
11
47.023113
21
22.873506
0
LINE
8
Image
10
47.023113
20
22.873506
11
47.758252
21
23.086473
0
LINE
8
Image
10
47.758252
20
23.086473
11
48.362433
21
23.539874
0
LINE
8
Image
10
48.362433
20
23.539874
11
48.856858
21
23.941851
0
LINE
8
Image
10
48.856858
20
23.941851
11
49.714439
21
24.398855
0
LINE
8
Image
10
49.714439
20
24.398855
11
52.335396
21
25.392302
0
LINE
8
Image
10
52.335396
20
25.392302
11
52.335396
21
25.392296
0
LINE
8
Image
10
45.840000
20
36.466746
11
47.256257
21
36.885035
0
LINE
8
Image
10
47.256257
20
36.885035
11
48.590534
21
37.451677
0
LINE
8
Image
10
48.590534
20
37.451677
11
49.837208
21
38.162005
0
LINE
8
Image
10
49.837208
20
38.162005
11
50.990656
21
39.011351
0
LINE
8
Image
10
50.990656
20
39.011351
11
52.045256
21
39.995046
0
LINE
8
Image
10
52.045256
20
39.995046
11
52.995384
21
41.108425
0
LINE
8
Image
10
52.995384
20
41.108425
11
53.835418
21
42.346817
0
LINE
8
Image
10
53.835418
20
42.346817
11
54.559735
21
43.705557
0
LINE
8
Image
10
54.559735
20
43.705557
11
55.489360
21
45.688170
0
LINE
8
Image
10
55.489360
20
45.688170
11
55.590579
21
57.947181
0
LINE
8
Image
10
55.590579
20
57.947181
11
55.691798
21
70.206193
0
LINE
8
Image
10
55.691798
20
70.206193
11
42.802402
21
70.206193
0
LINE
8
Image
10
42.802402
20
70.206193
11
29.913008
21
70.206193
0
LINE
8
Image
10
29.913008
20
70.206193
11
29.913008
21
58.608895
0
LINE
8
Image
10
29.913008
20
58.608895
11
29.949825
21
51.163916
0
LINE
8
Image
10
29.949825
20
51.163916
11
30.196535
21
46.962376
0
LINE
8
Image
10
30.196535
20
46.962376
11
30.462470
21
45.609323
0
LINE
8
Image
10
30.462470
20
45.609323
11
30.857523
21
44.504842
0
LINE
8
Image
10
30.857523
20
44.504842
11
32.137175
21
42.291879
0
LINE
8
Image
10
32.137175
20
42.291879
11
33.424409
21
40.539497
0
LINE
8
Image
10
33.424409
20
40.539497
11
34.857657
21
39.069380
0
LINE
8
Image
10
34.857657
20
39.069380
11
36.424714
21
37.886714
0
LINE
8
Image
10
36.424714
20
37.886714
11
38.113377
21
36.996688
0
LINE
8
Image
10
38.113377
20
36.996688
11
39.911441
21
36.404491
0
LINE
8
Image
10
39.911441
20
36.404491
11
41.806702
21
36.115309
0
LINE
8
Image
10
41.806702
20
36.115309
11
43.786956
21
36.134332
0
LINE
8
Image
10
43.786956
20
36.134332
11
45.840000
21
36.466746
0
LINE
8
Image
10
45.840000
20
36.466746
11
45.840000
21
36.466746
0
LINE
8
Image
10
46.248256
20
39.195406
11
46.055772
21
39.631261
0
LINE
8
Image
10
46.055772
20
39.631261
11
46.048076
21
40.207652
0
LINE
8
Image
10
46.048076
20
40.207652
11
46.197127
21
40.710488
0
LINE
8
Image
10
46.197127
20
40.710488
11
46.474882
21
40.925676
0
LINE
8
Image
10
46.474882
20
40.925676
11
46.978101
21
41.378737
0
LINE
8
Image
10
46.978101
20
41.378737
11
47.834334
21
42.468012
0
LINE
8
Image
10
47.834334
20
42.468012
11
48.695557
21
43.873447
0
LINE
8
Image
10
48.695557
20
43.873447
11
48.638366
21
44.229656
0
LINE
8
Image
10
48.638366
20
44.229656
11
48.307329
21
44.584676
0
LINE
8
Image
10
48.307329
20
44.584676
11
47.715047
21
45.013371
0
LINE
8
Image
10
47.715047
20
45.013371
11
47.253269
21
45.130257
0
LINE
8
Image
10
47.253269
20
45.130257
11
46.953268
21
44.938412
0
LINE
8
Image
10
46.953268
20
44.938412
11
46.846317
21
44.440912
0
LINE
8
Image
10
46.846317
20
44.440912
11
46.761152
21
44.077607
0
LINE
8
Image
10
46.761152
20
44.077607
11
46.494269
21
43.739035
0
LINE
8
Image
10
46.494269
20
43.739035
11
45.347013
21
43.073785
0
LINE
8
Image
10
45.347013
20
43.073785
11
43.997812
21
42.343413
0
LINE
8
Image
10
43.997812
20
42.343413
11
42.859395
21
41.498823
0
LINE
8
Image
10
42.859395
20
41.498823
11
41.962821
21
40.844889
0
LINE
8
Image
10
41.962821
20
40.844889
11
41.195070
21
40.572899
0
LINE
8
Image
10
41.195070
20
40.572899
11
40.888202
21
40.635112
0
LINE
8
Image
10
40.888202
20
40.635112
11
40.728009
21
40.807509
0
LINE
8
Image
10
40.728009
20
40.807509
11
40.808254
21
41.397414
0
LINE
8
Image
10
40.808254
20
41.397414
11
41.357015
21
42.171724
0
LINE
8
Image
10
41.357015
20
42.171724
11
42.295498
21
42.959552
0
LINE
8
Image
10
42.295498
20
42.959552
11
44.364210
21
44.396727
0
LINE
8
Image
10
44.364210
20
44.396727
11
44.724953
21
44.754605
0
LINE
8
Image
10
44.724953
20
44.754605
11
44.896131
21
45.084002
0
LINE
8
Image
10
44.896131
20
45.084002
11
44.812166
21
45.706158
0
LINE
8
Image
10
44.812166
20
45.706158
11
44.346003
21
46.513256
0
LINE
8
Image
10
44.346003
20
46.513256
11
43.476725
21
47.223260
0
LINE
8
Image
10
43.476725
20
47.223260
11
42.116587
21
47.810778
0
LINE
8
Image
10
42.116587
20
47.810778
11
40.335475
21
48.252905
0
LINE
8
Image
10
40.335475
20
48.252905
11
38.203274
21
48.526733
0
LINE
8
Image
10
38.203274
20
48.526733
11
35.733834
21
48.765230
0
LINE
8
Image
10
35.733834
20
48.765230
11
35.203087
21
48.685233
0
LINE
8
Image
10
35.203087
20
48.685233
11
35.112103
21
48.157610
0
LINE
8
Image
10
35.112103
20
48.157610
11
35.408691
21
46.499981
0
LINE
8
Image
10
35.408691
20
46.499981
11
35.601200
21
46.118398
0
LINE
8
Image
10
35.601200
20
46.118398
11
35.854338
21
45.941982
0
LINE
8
Image
10
35.854338
20
45.941982
11
36.152459
21
45.647769
0
LINE
8
Image
10
36.152459
20
45.647769
11
36.251254
21
45.148289
0
LINE
8
Image
10
36.251254
20
45.148289
11
36.150996
21
44.620403
0
LINE
8
Image
10
36.150996
20
44.620403
11
35.851957
21
44.240975
0
LINE
8
Image
10
35.851957
20
44.240975
11
35.323134
21
44.346282
0
LINE
8
Image
10
35.323134
20
44.346282
11
34.610237
21
45.013904
0
LINE
8
Image
10
34.610237
20
45.013904
11
34.184017
21
45.626984
0
LINE
8
Image
10
34.184017
20
45.626984
11
33.945460
21
46.265027
0
LINE
8
Image
10
33.945460
20
46.265027
11
33.874876
21
48.319305
0
LINE
8
Image
10
33.874876
20
48.319305
11
34.090607
21
50.278745
0
LINE
8
Image
10
34.090607
20
50.278745
11
34.366683
21
50.631043
0
LINE
8
Image
10
34.366683
20
50.631043
11
34.848457
21
50.803813
0
LINE
8
Image
10
34.848457
20
50.803813
11
35.415017
21
51.028060
0
LINE
8
Image
10
35.415017
20
51.028060
11
35.267670
21
51.293747
0
LINE
8
Image
10
35.267670
20
51.293747
11
34.841882
21
51.761123
0
LINE
8
Image
10
34.841882
20
51.761123
11
34.462978
21
52.486304
0
LINE
8
Image
10
34.462978
20
52.486304
11
34.085867
21
53.158022
0
LINE
8
Image
10
34.085867
20
53.158022
11
33.877244
21
53.117005
0
LINE
8
Image
10
33.877244
20
53.117005
11
33.579051
21
52.856662
0
LINE
8
Image
10
33.579051
20
52.856662
11
33.060627
21
52.072571
0
LINE
8
Image
10
33.060627
20
52.072571
11
32.570273
21
50.943484
0
LINE
8
Image
10
32.570273
20
50.943484
11
32.033271
21
49.879919
0
LINE
8
Image
10
32.033271
20
49.879919
11
31.714957
21
49.589905
0
LINE
8
Image
10
31.714957
20
49.589905
11
31.359298
21
49.455990
0
LINE
8
Image
10
31.359298
20
49.455990
11
30.859209
21
49.416384
0
LINE
8
Image
10
30.859209
20
49.416384
11
30.666277
21
49.578716
0
LINE
8
Image
10
30.666277
20
49.578716
11
31.129852
21
50.991159
0
LINE
8
Image
10
31.129852
20
50.991159
11
31.465681
21
52.214551
0
LINE
8
Image
10
31.465681
20
52.214551
11
32.382573
21
53.802049
0
LINE
8
Image
10
32.382573
20
53.802049
11
33.146449
21
54.810366
0
LINE
8
Image
10
33.146449
20
54.810366
11
33.756185
21
55.280734
0
LINE
8
Image
10
33.756185
20
55.280734
11
34.365268
21
55.271186
0
LINE
8
Image
10
34.365268
20
55.271186
11
35.127187
21
54.839754
0
LINE
8
Image
10
35.127187
20
54.839754
11
35.573086
21
54.555722
0
LINE
8
Image
10
35.573086
20
54.555722
11
35.853433
21
54.510893
0
LINE
8
Image
10
35.853433
20
54.510893
11
36.060914
21
54.740346
0
LINE
8
Image
10
36.060914
20
54.740346
11
36.288217
21
55.279161
0
LINE
8
Image
10
36.288217
20
55.279161
11
37.522050
21
57.392914
0
LINE
8
Image
10
37.522050
20
57.392914
11
38.349838
21
58.727219
0
LINE
8
Image
10
38.349838
20
58.727219
11
38.215309
21
58.802486
0
LINE
8
Image
10
38.215309
20
58.802486
11
37.702935
21
58.414128
0
LINE
8
Image
10
37.702935
20
58.414128
11
37.308804
21
58.088631
0
LINE
8
Image
10
37.308804
20
58.088631
11
37.017885
21
57.993893
0
LINE
8
Image
10
37.017885
20
57.993893
11
36.291826
21
58.535841
0
LINE
8
Image
10
36.291826
20
58.535841
11
35.557569
21
59.444565
0
LINE
8
Image
10
35.557569
20
59.444565
11
37.737023
21
61.745035
0
LINE
8
Image
10
37.737023
20
61.745035
11
39.454439
21
63.252793
0
LINE
8
Image
10
39.454439
20
63.252793
11
39.934959
21
63.505582
0
LINE
8
Image
10
39.934959
20
63.505582
11
40.183816
21
63.438472
0
LINE
8
Image
10
40.183816
20
63.438472
11
40.806199
21
63.149721
0
LINE
8
Image
10
40.806199
20
63.149721
11
42.025379
21
63.102711
0
LINE
8
Image
10
42.025379
20
63.102711
11
43.205656
21
63.060275
0
LINE
8
Image
10
43.205656
20
63.060275
11
43.832733
21
62.822306
0
LINE
8
Image
10
43.832733
20
62.822306
11
44.198521
21
62.555899
0
LINE
8
Image
10
44.198521
20
62.555899
11
44.750598
21
62.445092
0
LINE
8
Image
10
44.750598
20
62.445092
11
45.207483
21
62.377538
0
LINE
8
Image
10
45.207483
20
62.377538
11
45.405398
21
62.182633
0
LINE
8
Image
10
45.405398
20
62.182633
11
45.341263
21
61.872013
0
LINE
8
Image
10
45.341263
20
61.872013
11
45.011998
21
61.457317
0
LINE
8
Image
10
45.011998
20
61.457317
11
44.792803
21
61.122178
0
LINE
8
Image
10
44.792803
20
61.122178
11
45.145191
21
61.033984
0
LINE
8
Image
10
45.145191
20
61.033984
11
45.667244
21
60.878541
0
LINE
8
Image
10
45.667244
20
60.878541
11
46.140886
21
60.504818
0
LINE
8
Image
10
46.140886
20
60.504818
11
46.371429
21
60.071509
0
LINE
8
Image
10
46.371429
20
60.071509
11
45.919499
21
59.951776
0
LINE
8
Image
10
45.919499
20
59.951776
11
45.513692
21
59.865022
0
LINE
8
Image
10
45.513692
20
59.865022
11
46.052693
21
59.545088
0
LINE
8
Image
10
46.052693
20
59.545088
11
46.609533
21
59.152183
0
LINE
8
Image
10
46.609533
20
59.152183
11
46.814307
21
58.704039
0
LINE
8
Image
10
46.814307
20
58.704039
11
46.664807
21
58.237227
0
LINE
8
Image
10
46.664807
20
58.237227
11
46.158822
21
57.788318
0
LINE
8
Image
10
46.158822
20
57.788318
11
45.696152
21
57.345286
0
LINE
8
Image
10
45.696152
20
57.345286
11
45.882775
21
56.862978
0
LINE
8
Image
10
45.882775
20
56.862978
11
46.043143
21
56.583547
0
LINE
8
Image
10
46.043143
20
56.583547
11
46.021825
21
56.304665
0
LINE
8
Image
10
46.021825
20
56.304665
11
45.359355
21
55.562820
0
LINE
8
Image
10
45.359355
20
55.562820
11
43.959711
21
54.588993
0
LINE
8
Image
10
43.959711
20
54.588993
11
43.706277
21
54.443812
0
LINE
8
Image
10
43.706277
20
54.443812
11
43.652573
21
54.273306
0
LINE
8
Image
10
43.652573
20
54.273306
11
44.096157
21
53.881606
0
LINE
8
Image
10
44.096157
20
53.881606
11
45.194054
21
53.464479
0
LINE
8
Image
10
45.194054
20
53.464479
11
46.849860
21
53.072509
0
LINE
8
Image
10
46.849860
20
53.072509
11
48.794132
21
52.608560
0
LINE
8
Image
10
48.794132
20
52.608560
11
49.893525
21
52.174316
0
LINE
8
Image
10
49.893525
20
52.174316
11
50.386737
21
51.886509
0
LINE
8
Image
10
50.386737
20
51.886509
11
50.587805
21
52.020725
0
LINE
8
Image
10
50.587805
20
52.020725
11
50.483332
21
52.492866
0
LINE
8
Image
10
50.483332
20
52.492866
11
50.059921
21
53.218834
0
LINE
8
Image
10
50.059921
20
53.218834
11
49.474802
21
54.376168
0
LINE
8
Image
10
49.474802
20
54.376168
11
49.323368
21
55.543385
0
LINE
8
Image
10
49.323368
20
55.543385
11
49.601561
21
56.647769
0
LINE
8
Image
10
49.601561
20
56.647769
11
50.305325
21
57.616598
0
LINE
8
Image
10
50.305325
20
57.616598
11
51.163735
21
58.286083
0
LINE
8
Image
10
51.163735
20
58.286083
11
51.838146
21
58.564541
0
LINE
8
Image
10
51.838146
20
58.564541
11
52.409473
21
58.771797
0
LINE
8
Image
10
52.409473
20
58.771797
11
53.020044
21
59.270096
0
LINE
8
Image
10
53.020044
20
59.270096
11
53.956663
21
59.975652
0
LINE
8
Image
10
53.956663
20
59.975652
11
54.184992
21
59.654624
0
LINE
8
Image
10
54.184992
20
59.654624
11
54.247388
21
58.928691
0
LINE
8
Image
10
54.247388
20
58.928691
11
54.151732
21
58.153581
0
LINE
8
Image
10
54.151732
20
58.153581
11
53.905908
21
57.685022
0
LINE
8
Image
10
53.905908
20
57.685022
11
53.811213
21
57.284345
0
LINE
8
Image
10
53.811213
20
57.284345
11
54.145546
21
56.571265
0
LINE
8
Image
10
54.145546
20
56.571265
11
54.520497
21
55.743321
0
LINE
8
Image
10
54.520497
20
55.743321
11
54.368936
21
55.088492
0
LINE
8
Image
10
54.368936
20
55.088492
11
54.180849
21
54.506847
0
LINE
8
Image
10
54.180849
20
54.506847
11
54.364914
21
53.931462
0
LINE
8
Image
10
54.364914
20
53.931462
11
54.550662
21
53.112539
0
LINE
8
Image
10
54.550662
20
53.112539
11
54.397212
21
51.816663
0
LINE
8
Image
10
54.397212
20
51.816663
11
54.184883
21
50.948132
0
LINE
8
Image
10
54.184883
20
50.948132
11
53.931559
21
50.487662
0
LINE
8
Image
10
53.931559
20
50.487662
11
53.499325
21
50.306095
0
LINE
8
Image
10
53.499325
20
50.306095
11
52.750270
21
50.274274
0
LINE
8
Image
10
52.750270
20
50.274274
11
51.648962
21
50.125638
0
LINE
8
Image
10
51.648962
20
50.125638
11
51.472322
21
49.852916
0
LINE
8
Image
10
51.472322
20
49.852916
11
51.432329
21
49.370657
0
LINE
8
Image
10
51.432329
20
49.370657
11
51.225235
21
48.510013
0
LINE
8
Image
10
51.225235
20
48.510013
11
50.727004
21
47.709716
0
LINE
8
Image
10
50.727004
20
47.709716
11
50.244806
21
47.114766
0
LINE
8
Image
10
50.244806
20
47.114766
11
50.063304
21
46.591201
0
LINE
8
Image
10
50.063304
20
46.591201
11
50.172560
21
45.983404
0
LINE
8
Image
10
50.172560
20
45.983404
11
50.562637
21
45.135757
0
LINE
8
Image
10
50.562637
20
45.135757
11
50.844359
21
44.515994
0
LINE
8
Image
10
50.844359
20
44.515994
11
50.870097
21
44.033727
0
LINE
8
Image
10
50.870097
20
44.033727
11
50.587765
21
43.478320
0
LINE
8
Image
10
50.587765
20
43.478320
11
49.945277
21
42.639136
0
LINE
8
Image
10
49.945277
20
42.639136
11
47.350987
21
39.650122
0
LINE
8
Image
10
47.350987
20
39.650122
11
46.657464
21
39.147183
0
LINE
8
Image
10
46.657464
20
39.147183
11
46.248394
21
39.195406
0
LINE
8
Image
10
46.248394
20
39.195406
11
46.248256
21
39.195406
0
LINE
8
Image
10
48.785869
20
42.095183
11
49.766606
21
43.296517
0
LINE
8
Image
10
49.766606
20
43.296517
11
50.210194
21
44.015725
0
LINE
8
Image
10
50.210194
20
44.015725
11
50.221381
21
44.538979
0
LINE
8
Image
10
50.221381
20
44.538979
11
49.904913
21
45.152450
0
LINE
8
Image
10
49.904913
20
45.152450
11
49.598986
21
45.982392
0
LINE
8
Image
10
49.598986
20
45.982392
11
49.583949
21
46.840361
0
LINE
8
Image
10
49.583949
20
46.840361
11
49.841248
21
47.602302
0
LINE
8
Image
10
49.841248
20
47.602302
11
50.352330
21
48.144161
0
LINE
8
Image
10
50.352330
20
48.144161
11
50.616846
21
48.723023
0
LINE
8
Image
10
50.616846
20
48.723023
11
50.726866
21
49.789701
0
LINE
8
Image
10
50.726866
20
49.789701
11
50.843900
21
50.922305
0
LINE
8
Image
10
50.843900
20
50.922305
11
51.049041
21
51.054081
0
LINE
8
Image
10
51.049041
20
51.054081
11
51.404241
21
50.988773
0
LINE
8
Image
10
51.404241
20
50.988773
11
52.480847
21
50.686478
0
LINE
8
Image
10
52.480847
20
50.686478
11
53.141971
21
50.623572
0
LINE
8
Image
10
53.141971
20
50.623572
11
53.484899
21
50.812241
0
LINE
8
Image
10
53.484899
20
50.812241
11
53.606916
21
51.264669
0
LINE
8
Image
10
53.606916
20
51.264669
11
53.721793
21
55.146017
0
LINE
8
Image
10
53.721793
20
55.146017
11
53.571857
21
56.249081
0
LINE
8
Image
10
53.571857
20
56.249081
11
53.278499
21
56.882232
0
LINE
8
Image
10
53.278499
20
56.882232
11
52.939941
21
57.474671
0
LINE
8
Image
10
52.939941
20
57.474671
11
53.177487
21
58.012697
0
LINE
8
Image
10
53.177487
20
58.012697
11
53.362464
21
58.271909
0
LINE
8
Image
10
53.362464
20
58.271909
11
53.332594
21
58.383443
0
LINE
8
Image
10
53.332594
20
58.383443
11
52.472011
21
58.206388
0
LINE
8
Image
10
52.472011
20
58.206388
11
51.476162
21
57.801487
0
LINE
8
Image
10
51.476162
20
57.801487
11
50.678257
21
57.285830
0
LINE
8
Image
10
50.678257
20
57.285830
11
50.173346
21
56.458473
0
LINE
8
Image
10
50.173346
20
56.458473
11
50.015279
21
55.374682
0
LINE
8
Image
10
50.015279
20
55.374682
11
50.200854
21
54.287325
0
LINE
8
Image
10
50.200854
20
54.287325
11
50.726866
21
53.449270
0
LINE
8
Image
10
50.726866
20
53.449270
11
51.148878
21
52.962018
0
LINE
8
Image
10
51.148878
20
52.962018
11
51.365685
21
52.484688
0
LINE
8
Image
10
51.365685
20
52.484688
11
51.398799
21
52.050142
0
LINE
8
Image
10
51.398799
20
52.050142
11
51.269731
21
51.691245
0
LINE
8
Image
10
51.269731
20
51.691245
11
50.999992
21
51.440861
0
LINE
8
Image
10
50.999992
20
51.440861
11
50.611092
21
51.331852
0
LINE
8
Image
10
50.611092
20
51.331852
11
50.124544
21
51.397083
0
LINE
8
Image
10
50.124544
20
51.397083
11
49.561857
21
51.669418
0
LINE
8
Image
10
49.561857
20
51.669418
11
48.372294
21
52.129063
0
LINE
8
Image
10
48.372294
20
52.129063
11
46.600951
21
52.524685
0
LINE
8
Image
10
46.600951
20
52.524685
11
45.024288
21
52.837399
0
LINE
8
Image
10
45.024288
20
52.837399
11
43.886767
21
53.198630
0
LINE
8
Image
10
43.886767
20
53.198630
11
43.197542
21
53.604533
0
LINE
8
Image
10
43.197542
20
53.604533
11
42.965766
21
54.051265
0
LINE
8
Image
10
42.965766
20
54.051265
11
43.142854
21
54.554073
0
LINE
8
Image
10
43.142854
20
54.554073
11
43.573113
21
55.108865
0
LINE
8
Image
10
43.573113
20
55.108865
11
44.105037
21
55.557622
0
LINE
8
Image
10
44.105037
20
55.557622
11
44.587120
21
55.742324
0
LINE
8
Image
10
44.587120
20
55.742324
11
45.015016
21
55.862591
0
LINE
8
Image
10
45.015016
20
55.862591
11
45.276937
21
56.150687
0
LINE
8
Image
10
45.276937
20
56.150687
11
45.320423
21
56.497548
0
LINE
8
Image
10
45.320423
20
56.497548
11
45.093018
21
56.794113
0
LINE
8
Image
10
45.093018
20
56.794113
11
44.935147
21
56.957850
0
LINE
8
Image
10
44.935147
20
56.957850
11
44.938546
21
57.168556
0
LINE
8
Image
10
44.938546
20
57.168556
11
45.454359
21
57.801116
0
LINE
8
Image
10
45.454359
20
57.801116
11
46.248286
21
58.540768
0
LINE
8
Image
10
46.248286
20
58.540768
11
45.400773
21
59.246474
0
LINE
8
Image
10
45.400773
20
59.246474
11
44.896002
21
59.748324
0
LINE
8
Image
10
44.896002
20
59.748324
11
44.872523
21
59.963915
0
LINE
8
Image
10
44.872523
20
59.963915
11
44.910435
21
60.179461
0
LINE
8
Image
10
44.910435
20
60.179461
11
44.553264
21
60.681205
0
LINE
8
Image
10
44.553264
20
60.681205
11
44.193244
21
61.179503
0
LINE
8
Image
10
44.193244
20
61.179503
11
44.224305
21
61.386760
0
LINE
8
Image
10
44.224305
20
61.386760
11
44.209994
21
61.549916
0
LINE
8
Image
10
44.209994
20
61.549916
11
43.740885
21
61.942186
0
LINE
8
Image
10
43.740885
20
61.942186
11
42.845181
21
62.305537
0
LINE
8
Image
10
42.845181
20
62.305537
11
41.805228
21
62.399163
0
LINE
8
Image
10
41.805228
20
62.399163
11
40.888126
21
62.397679
0
LINE
8
Image
10
40.888126
20
62.397679
11
40.287784
21
62.532338
0
LINE
8
Image
10
40.287784
20
62.532338
11
39.476701
21
62.204002
0
LINE
8
Image
10
39.476701
20
62.204002
11
38.052920
21
61.089342
0
LINE
8
Image
10
38.052920
20
61.089342
11
36.616673
21
59.633015
0
LINE
8
Image
10
36.616673
20
59.633015
11
36.514288
21
59.261132
0
LINE
8
Image
10
36.514288
20
59.261132
11
36.725671
21
58.972504
0
LINE
8
Image
10
36.725671
20
58.972504
11
37.183497
21
58.730547
0
LINE
8
Image
10
37.183497
20
58.730547
11
37.487133
21
58.900188
0
LINE
8
Image
10
37.487133
20
58.900188
11
37.797919
21
59.161436
0
LINE
8
Image
10
37.797919
20
59.161436
11
38.224094
21
59.270096
0
LINE
8
Image
10
38.224094
20
59.270096
11
38.611499
21
59.016698
0
LINE
8
Image
10
38.611499
20
59.016698
11
38.721906
21
58.414229
0
LINE
8
Image
10
38.721906
20
58.414229
11
38.563869
21
57.699278
0
LINE
8
Image
10
38.563869
20
57.699278
11
38.145942
21
57.108435
0
LINE
8
Image
10
38.145942
20
57.108435
11
37.536465
21
56.326070
0
LINE
8
Image
10
37.536465
20
56.326070
11
36.894716
21
55.124962
0
LINE
8
Image
10
36.894716
20
55.124962
11
36.437539
21
54.172528
0
LINE
8
Image
10
36.437539
20
54.172528
11
36.070872
21
53.743725
0
LINE
8
Image
10
36.070872
20
53.743725
11
35.654710
21
53.765810
0
LINE
8
Image
10
35.654710
20
53.765810
11
35.049048
21
54.166044
0
LINE
8
Image
10
35.049048
20
54.166044
11
34.438233
21
54.531845
0
LINE
8
Image
10
34.438233
20
54.531845
11
33.931293
21
54.683992
0
LINE
8
Image
10
33.931293
20
54.683992
11
33.405839
21
54.304261
0
LINE
8
Image
10
33.405839
20
54.304261
11
32.742645
21
53.447128
0
LINE
8
Image
10
32.742645
20
53.447128
11
32.224354
21
52.535685
0
LINE
8
Image
10
32.224354
20
52.535685
11
32.133608
21
51.993021
0
LINE
8
Image
10
32.133608
20
51.993021
11
32.332149
21
52.077951
0
LINE
8
Image
10
32.332149
20
52.077951
11
32.550519
21
52.541116
0
LINE
8
Image
10
32.550519
20
52.541116
11
33.088844
21
53.367867
0
LINE
8
Image
10
33.088844
20
53.367867
11
33.860081
21
53.793146
0
LINE
8
Image
10
33.860081
20
53.793146
11
34.551880
21
53.737943
0
LINE
8
Image
10
34.551880
20
53.737943
11
34.770381
21
53.505470
0
LINE
8
Image
10
34.770381
20
53.505470
11
34.851891
21
53.123248
0
LINE
8
Image
10
34.851891
20
53.123248
11
35.054233
21
52.540594
0
LINE
8
Image
10
35.054233
20
52.540594
11
35.540712
21
51.786781
0
LINE
8
Image
10
35.540712
20
51.786781
11
35.907933
21
51.117550
0
LINE
8
Image
10
35.907933
20
51.117550
11
35.889857
21
50.582031
0
LINE
8
Image
10
35.889857
20
50.582031
11
35.507364
21
50.226663
0
LINE
8
Image
10
35.507364
20
50.226663
11
34.781335
21
50.097887
0
LINE
8
Image
10
34.781335
20
50.097887
11
34.311168
21
49.908198
0
LINE
8
Image
10
34.311168
20
49.908198
11
34.146336
21
49.367133
0
LINE
8
Image
10
34.146336
20
49.367133
11
34.234531
21
48.836726
0
LINE
8
Image
10
34.234531
20
48.836726
11
34.720989
21
49.211032
0
LINE
8
Image
10
34.720989
20
49.211032
11
35.294870
21
49.558317
0
LINE
8
Image
10
35.294870
20
49.558317
11
35.867514
21
49.540956
0
LINE
8
Image
10
35.867514
20
49.540956
11
38.203274
21
49.198795
0
LINE
8
Image
10
38.203274
20
49.198795
11
39.740743
21
49.017276
0
LINE
8
Image
10
39.740743
20
49.017276
11
40.960261
21
48.717682
0
LINE
8
Image
10
40.960261
20
48.717682
11
41.955544
21
48.446706
0
LINE
8
Image
10
41.955544
20
48.446706
11
42.953886
21
48.334000
0
LINE
8
Image
10
42.953886
20
48.334000
11
43.471435
21
48.274187
0
LINE
8
Image
10
43.471435
20
48.274187
11
43.899668
21
48.069924
0
LINE
8
Image
10
43.899668
20
48.069924
11
44.694808
21
47.079114
0
LINE
8
Image
10
44.694808
20
47.079114
11
45.217714
21
45.996791
0
LINE
8
Image
10
45.217714
20
45.996791
11
45.435206
21
45.156792
0
LINE
8
Image
10
45.435206
20
45.156792
11
45.217334
21
44.619338
0
LINE
8
Image
10
45.217334
20
44.619338
11
44.606078
21
43.957253
0
LINE
8
Image
10
44.606078
20
43.957253
11
42.457597
21
42.487083
0
LINE
8
Image
10
42.457597
20
42.487083
11
41.936039
21
42.072722
0
LINE
8
Image
10
41.936039
20
42.072722
11
41.643372
21
41.606027
0
LINE
8
Image
10
41.643372
20
41.606027
11
41.660773
21
41.418924
0
LINE
8
Image
10
41.660773
20
41.418924
11
41.904489
21
41.719425
0
LINE
8
Image
10
41.904489
20
41.719425
11
42.304864
21
42.157739
0
LINE
8
Image
10
42.304864
20
42.157739
11
42.718714
21
42.344629
0
LINE
8
Image
10
42.718714
20
42.344629
11
43.276840
21
42.552817
0
LINE
8
Image
10
43.276840
20
42.552817
11
44.024098
21
43.042340
0
LINE
8
Image
10
44.024098
20
43.042340
11
44.828319
21
43.531861
0
LINE
8
Image
10
44.828319
20
43.531861
11
45.523402
21
43.740050
0
LINE
8
Image
10
45.523402
20
43.740050
11
45.964022
21
43.923930
0
LINE
8
Image
10
45.964022
20
43.923930
11
46.146164
21
44.365255
0
LINE
8
Image
10
46.146164
20
44.365255
11
46.478092
21
45.498866
0
LINE
8
Image
10
46.478092
20
45.498866
11
46.691556
21
45.748506
0
LINE
8
Image
10
46.691556
20
45.748506
11
46.966277
21
45.821106
0
LINE
8
Image
10
46.966277
20
45.821106
11
48.060190
21
45.416380
0
LINE
8
Image
10
48.060190
20
45.416380
11
48.979149
21
44.801664
0
LINE
8
Image
10
48.979149
20
44.801664
11
49.315758
21
44.159309
0
LINE
8
Image
10
49.315758
20
44.159309
11
49.003111
21
43.278770
0
LINE
8
Image
10
49.003111
20
43.278770
11
48.276062
21
42.081515
0
LINE
8
Image
10
48.276062
20
42.081515
11
47.450947
21
41.026555
0
LINE
8
Image
10
47.450947
20
41.026555
11
46.844103
21
40.572899
0
LINE
8
Image
10
46.844103
20
40.572899
11
46.596517
21
40.396731
0
LINE
8
Image
10
46.596517
20
40.396731
11
46.493538
21
39.973177
0
LINE
8
Image
10
46.493538
20
39.973177
11
46.575032
21
39.636552
0
LINE
8
Image
10
46.575032
20
39.636552
11
46.783108
21
39.708594
0
LINE
8
Image
10
46.783108
20
39.708594
11
48.785869
21
42.095183
0
LINE
8
Image
10
48.785869
20
42.095183
11
48.785869
21
42.095183
0
LINE
8
Image
10
35.328188
20
45.576505
11
34.601162
21
47.275668
0
LINE
8
Image
10
34.601162
20
47.275668
11
34.174046
21
48.510389
0
LINE
8
Image
10
34.174046
20
48.510389
11
34.381436
21
47.287246
0
LINE
8
Image
10
34.381436
20
47.287246
11
34.917857
21
45.575350
0
LINE
8
Image
10
34.917857
20
45.575350
11
35.238605
21
45.055711
0
LINE
8
Image
10
35.238605
20
45.055711
11
35.491222
21
44.975187
0
LINE
8
Image
10
35.491222
20
44.975187
11
35.328188
21
45.576505
0
LINE
8
Image
10
35.328188
20
45.576505
11
35.328188
21
45.576505
0
LINE
8
Image
10
31.811499
20
50.645376
11
31.862345
21
50.975430
0
LINE
8
Image
10
31.862345
20
50.975430
11
31.672853
21
50.977332
0
LINE
8
Image
10
31.672853
20
50.977332
11
31.324116
21
50.429844
0
LINE
8
Image
10
31.324116
20
50.429844
11
31.367290
21
50.163498
0
LINE
8
Image
10
31.367290
20
50.163498
11
31.479861
21
50.118133
0
LINE
8
Image
10
31.479861
20
50.118133
11
31.811499
21
50.645376
0
LINE
8
Image
10
31.811499
20
50.645376
11
31.811499
21
50.645376
0
LINE
8
Image
10
52.623802
20
39.231919
11
52.285842
21
39.287956
0
LINE
8
Image
10
52.285842
20
39.287956
11
51.758496
21
38.961234
0
LINE
8
Image
10
51.758496
20
38.961234
11
51.350467
21
38.441453
0
LINE
8
Image
10
51.350467
20
38.441453
11
51.299376
21
38.033328
0
LINE
8
Image
10
51.299376
20
38.033328
11
51.637335
21
37.977290
0
LINE
8
Image
10
51.637335
20
37.977290
11
52.164682
21
38.304013
0
LINE
8
Image
10
52.164682
20
38.304013
11
52.572710
21
38.823794
0
LINE
8
Image
10
52.572710
20
38.823794
11
52.623802
21
39.231919
0
LINE
8
Image
10
52.623802
20
39.231919
11
52.623802
21
39.231919
 0 
ENDSEC
 0 
EOF