999
"DXF R12 Output" (www.mydxf.blogspot.com)
 0 
SECTION
 2 
HEADER
 9 
$ACADVER
 1 
AC1009
 9 
$EXTMIN
 10 
 0 
 20 
 0 
 9 
$EXTMAX
 10 
 8.5 
 20 
 11 
 0 
ENDSEC
 0 
SECTION
 2 
ENTITIES
0
LINE
8
Image
10
-0.816274
20
154.888203
11
-0.816274
21
315.490083
0
LINE
8
Image
10
-0.816274
20
315.490083
11
168.516847
21
315.490083
0
LINE
8
Image
10
168.516847
20
315.490083
11
337.849975
21
315.490083
0
LINE
8
Image
10
337.849975
20
315.490083
11
337.849975
21
154.888203
0
LINE
8
Image
10
337.849975
20
154.888203
11
337.849975
21
-5.713670
0
LINE
8
Image
10
337.849975
20
-5.713670
11
168.516847
21
-5.713670
0
LINE
8
Image
10
168.516847
20
-5.713670
11
-0.816274
21
-5.713670
0
LINE
8
Image
10
-0.816274
20
-5.713670
11
-0.816274
21
154.888203
0
LINE
8
Image
10
174.137913
20
25.699529
11
176.584832
21
30.005035
0
LINE
8
Image
10
176.584832
20
30.005035
11
178.838121
21
33.973780
0
LINE
8
Image
10
178.838121
20
33.973780
11
187.308831
21
49.055011
0
LINE
8
Image
10
187.308831
20
49.055011
11
192.076053
21
57.521659
0
LINE
8
Image
10
192.076053
20
57.521659
11
206.680728
21
83.450793
0
LINE
8
Image
10
206.680728
20
83.450793
11
212.509822
21
93.769530
0
LINE
8
Image
10
212.509822
20
93.769530
11
220.056830
21
107.187349
0
LINE
8
Image
10
220.056830
20
107.187349
11
224.505877
21
115.124839
0
LINE
8
Image
10
224.505877
20
115.124839
11
233.602387
21
131.208025
0
LINE
8
Image
10
233.602387
20
131.208025
11
245.698317
21
152.639248
0
LINE
8
Image
10
245.698317
20
152.639248
11
252.390656
21
164.545483
0
LINE
8
Image
10
252.390656
20
164.545483
11
257.287822
21
173.276722
0
LINE
8
Image
10
257.287822
20
173.276722
11
264.159765
21
185.447540
0
LINE
8
Image
10
264.159765
20
185.447540
11
270.378161
21
196.427734
0
LINE
8
Image
10
270.378161
20
196.427734
11
281.579494
21
216.271459
0
LINE
8
Image
10
281.579494
20
216.271459
11
284.401299
21
221.298536
0
LINE
8
Image
10
284.401299
20
221.298536
11
288.093925
21
227.913111
0
LINE
8
Image
10
288.093925
20
227.913111
11
291.844627
21
234.543077
0
LINE
8
Image
10
291.844627
20
234.543077
11
292.569409
21
235.905465
0
LINE
8
Image
10
292.569409
20
235.905465
11
292.870865
21
236.744360
0
LINE
8
Image
10
292.870865
20
236.744360
11
292.621945
21
237.473370
0
LINE
8
Image
10
292.621945
20
237.473370
11
292.035143
21
238.409118
0
LINE
8
Image
10
292.035143
20
238.409118
11
291.350398
21
239.221703
0
LINE
8
Image
10
291.350398
20
239.221703
11
290.807647
21
239.581224
0
LINE
8
Image
10
290.807647
20
239.581224
11
271.307350
21
239.515078
0
LINE
8
Image
10
271.307350
20
239.515078
11
239.557383
21
239.435293
0
LINE
8
Image
10
239.557383
20
239.435293
11
158.065819
21
239.469139
0
LINE
8
Image
10
158.065819
20
239.469139
11
96.947146
21
239.660297
0
LINE
8
Image
10
96.947146
20
239.660297
11
56.949999
21
239.743263
0
LINE
8
Image
10
56.949999
20
239.743263
11
44.162837
21
239.577787
0
LINE
8
Image
10
44.162837
20
239.577787
11
43.989555
21
239.370650
0
LINE
8
Image
10
43.989555
20
239.370650
11
44.000813
21
239.034367
0
LINE
8
Image
10
44.000813
20
239.034367
11
44.692003
21
237.528875
0
LINE
8
Image
10
44.692003
20
237.528875
11
46.557027
21
234.283235
0
LINE
8
Image
10
46.557027
20
234.283235
11
48.785676
21
230.426650
0
LINE
8
Image
10
48.785676
20
230.426650
11
50.523021
21
227.383945
0
LINE
8
Image
10
50.523021
20
227.383945
11
52.643717
21
223.812075
0
LINE
8
Image
10
52.643717
20
223.812075
11
59.433213
21
212.170423
0
LINE
8
Image
10
59.433213
20
212.170423
11
65.823155
21
201.190228
0
LINE
8
Image
10
65.823155
20
201.190228
11
67.351947
21
198.605406
0
LINE
8
Image
10
67.351947
20
198.605406
11
68.239890
21
197.093356
0
LINE
8
Image
10
68.239890
20
197.093356
11
69.640124
21
194.651102
0
LINE
8
Image
10
69.640124
20
194.651102
11
74.997930
21
185.503742
0
LINE
8
Image
10
74.997930
20
185.503742
11
80.469438
21
176.111046
0
LINE
8
Image
10
80.469438
20
176.111046
11
83.495735
21
170.895475
0
LINE
8
Image
10
83.495735
20
170.895475
11
90.157517
21
159.518406
0
LINE
8
Image
10
90.157517
20
159.518406
11
99.194940
21
144.040300
0
LINE
8
Image
10
99.194940
20
144.040300
11
108.636116
21
127.900737
0
LINE
8
Image
10
108.636116
20
127.900737
11
116.531939
21
114.539296
0
LINE
8
Image
10
116.531939
20
114.539296
11
124.399981
21
101.045563
0
LINE
8
Image
10
124.399981
20
101.045563
11
126.840082
21
96.944526
0
LINE
8
Image
10
126.840082
20
96.944526
11
128.568320
21
94.034113
0
LINE
8
Image
10
128.568320
20
94.034113
11
135.897240
21
81.598712
0
LINE
8
Image
10
135.897240
20
81.598712
11
139.812259
21
74.851846
0
LINE
8
Image
10
139.812259
20
74.851846
11
141.400860
21
72.206016
0
LINE
8
Image
10
141.400860
20
72.206016
11
142.764431
21
69.957060
0
LINE
8
Image
10
142.764431
20
69.957060
11
144.215118
21
67.443522
0
LINE
8
Image
10
144.215118
20
67.443522
11
145.604840
21
65.089532
0
LINE
8
Image
10
145.604840
20
65.089532
11
147.826676
21
61.517661
0
LINE
8
Image
10
147.826676
20
61.517661
11
149.993018
21
58.015781
0
LINE
8
Image
10
149.993018
20
58.015781
11
152.471550
21
53.579477
0
LINE
8
Image
10
152.471550
20
53.579477
11
153.844034
21
51.470786
0
LINE
8
Image
10
153.844034
20
51.470786
11
154.879154
21
49.785207
0
LINE
8
Image
10
154.879154
20
49.785207
11
155.669284
21
48.538519
0
LINE
8
Image
10
155.669284
20
48.538519
11
156.081446
21
47.845258
0
LINE
8
Image
10
156.081446
20
47.845258
11
156.844226
21
46.356291
0
LINE
8
Image
10
156.844226
20
46.356291
11
163.702370
21
34.238363
0
LINE
8
Image
10
163.702370
20
34.238363
11
164.947286
21
32.121699
0
LINE
8
Image
10
164.947286
20
32.121699
11
166.745079
21
28.995585
0
LINE
8
Image
10
166.745079
20
28.995585
11
168.393065
21
25.677066
0
LINE
8
Image
10
168.393065
20
25.677066
11
169.070613
21
24.847765
0
LINE
8
Image
10
169.070613
20
24.847765
11
170.289845
21
24.016070
0
LINE
8
Image
10
170.289845
20
24.016070
11
171.583602
21
23.443102
0
LINE
8
Image
10
171.583602
20
23.443102
11
172.112441
21
23.335242
0
LINE
8
Image
10
172.112441
20
23.335242
11
172.484727
21
23.389984
0
LINE
8
Image
10
172.484727
20
23.389984
11
173.165319
21
24.172766
0
LINE
8
Image
10
173.165319
20
24.172766
11
174.137913
21
25.699529
0
LINE
8
Image
10
174.137913
20
25.699529
11
174.137913
21
25.699529
0
LINE
8
Image
10
167.304149
20
34.701383
11
165.837788
21
37.232490
0
LINE
8
Image
10
165.837788
20
37.232490
11
165.077268
21
38.626816
0
LINE
8
Image
10
165.077268
20
38.626816
11
164.366601
21
39.866017
0
LINE
8
Image
10
164.366601
20
39.866017
11
161.364153
21
44.953974
0
LINE
8
Image
10
161.364153
20
44.953974
11
152.482249
21
60.150868
0
LINE
8
Image
10
152.482249
20
60.150868
11
151.848118
21
61.244106
0
LINE
8
Image
10
151.848118
20
61.244106
11
147.440570
21
68.921739
0
LINE
8
Image
10
147.440570
20
68.921739
11
141.919739
21
78.423716
0
LINE
8
Image
10
141.919739
20
78.423716
11
138.079986
21
84.999024
0
LINE
8
Image
10
138.079986
20
84.999024
11
135.531729
21
89.364644
0
LINE
8
Image
10
135.531729
20
89.364644
11
128.392605
21
101.456658
0
LINE
8
Image
10
128.392605
20
101.456658
11
127.771065
21
102.547119
0
LINE
8
Image
10
127.771065
20
102.547119
11
126.051276
21
105.533462
0
LINE
8
Image
10
126.051276
20
105.533462
11
124.331486
21
108.484898
0
LINE
8
Image
10
124.331486
20
108.484898
11
121.645730
21
113.024949
0
LINE
8
Image
10
121.645730
20
113.024949
11
117.901648
21
119.434081
0
LINE
8
Image
10
117.901648
20
119.434081
11
114.799680
21
124.858033
0
LINE
8
Image
10
114.799680
20
124.858033
11
112.388159
21
129.056751
0
LINE
8
Image
10
112.388159
20
129.056751
11
112.022849
21
129.904901
0
LINE
8
Image
10
112.022849
20
129.904901
11
112.030700
21
130.285741
0
LINE
8
Image
10
112.030700
20
130.285741
11
114.092031
21
131.644047
0
LINE
8
Image
10
114.092031
20
131.644047
11
119.568992
21
134.927355
0
LINE
8
Image
10
119.568992
20
134.927355
11
127.249492
21
139.499293
0
LINE
8
Image
10
127.249492
20
139.499293
11
130.434027
21
141.129887
0
LINE
8
Image
10
130.434027
20
141.129887
11
130.663500
21
140.988843
0
LINE
8
Image
10
130.663500
20
140.988843
11
130.817461
21
140.417529
0
LINE
8
Image
10
130.817461
20
140.417529
11
131.030214
21
137.094996
0
LINE
8
Image
10
131.030214
20
137.094996
11
131.238077
21
133.829043
0
LINE
8
Image
10
131.238077
20
133.829043
11
131.589238
21
131.006585
0
LINE
8
Image
10
131.589238
20
131.006585
11
132.113524
21
128.444148
0
LINE
8
Image
10
132.113524
20
128.444148
11
132.840764
21
125.958259
0
LINE
8
Image
10
132.840764
20
125.958259
11
134.076172
21
122.763749
0
LINE
8
Image
10
134.076172
20
122.763749
11
136.211548
21
119.304404
0
LINE
8
Image
10
136.211548
20
119.304404
11
137.664304
21
117.332519
0
LINE
8
Image
10
137.664304
20
117.332519
11
139.388511
21
115.345755
0
LINE
8
Image
10
139.388511
20
115.345755
11
141.184423
21
113.558278
0
LINE
8
Image
10
141.184423
20
113.558278
11
142.852296
21
112.184253
0
LINE
8
Image
10
142.852296
20
112.184253
11
145.488902
21
110.542437
0
LINE
8
Image
10
145.488902
20
110.542437
11
148.676123
21
108.910346
0
LINE
8
Image
10
148.676123
20
108.910346
11
151.961063
21
107.500821
0
LINE
8
Image
10
151.961063
20
107.500821
11
154.890823
21
106.526701
0
LINE
8
Image
10
154.890823
20
106.526701
11
159.269336
21
105.610938
0
LINE
8
Image
10
159.269336
20
105.610938
11
164.077215
21
105.003933
0
LINE
8
Image
10
164.077215
20
105.003933
11
168.845445
21
104.747954
0
LINE
8
Image
10
168.845445
20
104.747954
11
173.105007
21
104.885268
0
LINE
8
Image
10
173.105007
20
104.885268
11
177.311813
21
105.407118
0
LINE
8
Image
10
177.311813
20
105.407118
11
181.230894
21
106.185876
0
LINE
8
Image
10
181.230894
20
106.185876
11
184.862476
21
107.221640
0
LINE
8
Image
10
184.862476
20
107.221640
11
188.206785
21
108.514512
0
LINE
8
Image
10
188.206785
20
108.514512
11
191.264046
21
110.064592
0
LINE
8
Image
10
191.264046
20
110.064592
11
194.034487
21
111.871981
0
LINE
8
Image
10
194.034487
20
111.871981
11
196.518334
21
113.936778
0
LINE
8
Image
10
196.518334
20
113.936778
11
198.715811
21
116.259085
0
LINE
8
Image
10
198.715811
20
116.259085
11
200.832330
21
119.015203
0
LINE
8
Image
10
200.832330
20
119.015203
11
202.530741
21
121.754511
0
LINE
8
Image
10
202.530741
20
121.754511
11
203.858575
21
124.564166
0
LINE
8
Image
10
203.858575
20
124.564166
11
204.863368
21
127.531326
0
LINE
8
Image
10
204.863368
20
127.531326
11
205.741684
21
130.997231
0
LINE
8
Image
10
205.741684
20
130.997231
11
206.007036
21
132.874926
0
LINE
8
Image
10
206.007036
20
132.874926
11
206.181733
21
135.406191
0
LINE
8
Image
10
206.181733
20
135.406191
11
206.334811
21
144.100663
0
LINE
8
Image
10
206.334811
20
144.100663
11
206.352216
21
160.423105
0
LINE
8
Image
10
206.352216
20
160.423105
11
206.420211
21
181.250329
0
LINE
8
Image
10
206.420211
20
181.250329
11
206.521728
21
185.544526
0
LINE
8
Image
10
206.521728
20
185.544526
11
206.682945
21
186.936507
0
LINE
8
Image
10
206.682945
20
186.936507
11
208.568370
21
188.292406
0
LINE
8
Image
10
208.568370
20
188.292406
11
214.157415
21
191.669693
0
LINE
8
Image
10
214.157415
20
191.669693
11
218.787617
21
194.464867
0
LINE
8
Image
10
218.787617
20
194.464867
11
223.550111
21
197.317498
0
LINE
8
Image
10
223.550111
20
197.317498
11
230.958435
21
201.712893
0
LINE
8
Image
10
230.958435
20
201.712893
11
247.627164
21
211.693964
0
LINE
8
Image
10
247.627164
20
211.693964
11
253.977156
21
215.531063
0
LINE
8
Image
10
253.977156
20
215.531063
11
269.322978
21
224.812362
0
LINE
8
Image
10
269.322978
20
224.812362
11
274.482346
21
227.948179
0
LINE
8
Image
10
274.482346
20
227.948179
11
279.846433
21
231.235620
0
LINE
8
Image
10
279.846433
20
231.235620
11
281.276137
21
231.988877
0
LINE
8
Image
10
281.276137
20
231.988877
11
281.858815
21
232.141595
0
LINE
8
Image
10
281.858815
20
232.141595
11
281.485296
21
231.081381
0
LINE
8
Image
10
281.485296
20
231.081381
11
280.221946
21
228.791625
0
LINE
8
Image
10
280.221946
20
228.791625
11
278.157642
21
225.155992
0
LINE
8
Image
10
278.157642
20
225.155992
11
275.581451
21
220.525790
0
LINE
8
Image
10
275.581451
20
220.525790
11
268.995292
21
208.995427
0
LINE
8
Image
10
268.995292
20
208.995427
11
264.429296
21
201.057937
0
LINE
8
Image
10
264.429296
20
201.057937
11
261.523418
21
196.030860
0
LINE
8
Image
10
261.523418
20
196.030860
11
255.510478
21
185.579831
0
LINE
8
Image
10
255.510478
20
185.579831
11
250.010597
21
175.922552
0
LINE
8
Image
10
250.010597
20
175.922552
11
244.459116
21
166.265272
0
LINE
8
Image
10
244.459116
20
166.265272
11
240.356204
21
159.121531
0
LINE
8
Image
10
240.356204
20
159.121531
11
237.038333
21
153.300705
0
LINE
8
Image
10
237.038333
20
153.300705
11
234.398617
21
148.670503
0
LINE
8
Image
10
234.398617
20
148.670503
11
231.622467
21
143.775717
0
LINE
8
Image
10
231.622467
20
143.775717
11
227.782965
21
137.028851
0
LINE
8
Image
10
227.782965
20
137.028851
11
224.211719
21
130.811150
0
LINE
8
Image
10
224.211719
20
130.811150
11
222.972428
21
128.694486
0
LINE
8
Image
10
222.972428
20
128.694486
11
214.964104
21
114.539296
0
LINE
8
Image
10
214.964104
20
114.539296
11
212.762528
21
110.664729
0
LINE
8
Image
10
212.762528
20
110.664729
11
209.924939
21
105.637652
0
LINE
8
Image
10
209.924939
20
105.637652
11
207.880056
21
102.103895
0
LINE
8
Image
10
207.880056
20
102.103895
11
205.607330
21
98.135150
0
LINE
8
Image
10
205.607330
20
98.135150
11
202.388633
21
92.446615
0
LINE
8
Image
10
202.388633
20
92.446615
11
200.009280
21
88.213287
0
LINE
8
Image
10
200.009280
20
88.213287
11
196.104752
21
81.334129
0
LINE
8
Image
10
196.104752
20
81.334129
11
190.226700
21
71.015392
0
LINE
8
Image
10
190.226700
20
71.015392
11
184.266854
21
60.564364
0
LINE
8
Image
10
184.266854
20
60.564364
11
179.238134
21
51.833132
0
LINE
8
Image
10
179.238134
20
51.833132
11
175.135774
21
44.689391
0
LINE
8
Image
10
175.135774
20
44.689391
11
170.449544
21
36.566945
0
LINE
8
Image
10
170.449544
20
36.566945
11
169.000663
21
34.271153
0
LINE
8
Image
10
169.000663
20
34.271153
11
168.329562
21
33.452181
0
LINE
8
Image
10
168.329562
20
33.452181
11
167.896522
21
33.815986
0
LINE
8
Image
10
167.896522
20
33.815986
11
167.304149
21
34.701383
0
LINE
8
Image
10
167.304149
20
34.701383
11
167.304149
21
34.701383
0
LINE
8
Image
10
162.696021
20
108.877338
11
158.109021
21
109.489889
0
LINE
8
Image
10
158.109021
20
109.489889
11
154.626240
21
110.409467
0
LINE
8
Image
10
154.626240
20
110.409467
11
150.766432
21
111.882972
0
LINE
8
Image
10
150.766432
20
111.882972
11
148.251274
21
113.260558
0
LINE
8
Image
10
148.251274
20
113.260558
11
147.234153
21
113.877838
0
LINE
8
Image
10
147.234153
20
113.877838
11
146.333110
21
114.440243
0
LINE
8
Image
10
146.333110
20
114.440243
11
144.672689
21
115.768484
0
LINE
8
Image
10
144.672689
20
115.768484
11
141.641609
21
118.568630
0
LINE
8
Image
10
141.641609
20
118.568630
11
139.421456
21
121.560007
0
LINE
8
Image
10
139.421456
20
121.560007
11
137.609628
21
124.821243
0
LINE
8
Image
10
137.609628
20
124.821243
11
136.265489
21
128.226927
0
LINE
8
Image
10
136.265489
20
128.226927
11
135.448409
21
131.651648
0
LINE
8
Image
10
135.448409
20
131.651648
11
135.203857
21
140.550759
0
LINE
8
Image
10
135.203857
20
140.550759
11
135.095323
21
165.150452
0
LINE
8
Image
10
135.095323
20
165.150452
11
134.987650
21
191.373017
0
LINE
8
Image
10
134.987650
20
191.373017
11
134.860924
21
195.798578
0
LINE
8
Image
10
134.860924
20
195.798578
11
134.650223
21
196.962507
0
LINE
8
Image
10
134.650223
20
196.962507
11
133.738246
21
197.140877
0
LINE
8
Image
10
133.738246
20
197.140877
11
132.102934
21
197.217432
0
LINE
8
Image
10
132.102934
20
197.217432
11
130.323426
21
197.311721
0
LINE
8
Image
10
130.323426
20
197.311721
11
129.865764
21
197.447203
0
LINE
8
Image
10
129.865764
20
197.447203
11
129.589396
21
197.660387
0
LINE
8
Image
10
129.589396
20
197.660387
11
129.413984
21
198.140335
0
LINE
8
Image
10
129.413984
20
198.140335
11
129.315055
21
199.212407
0
LINE
8
Image
10
129.315055
20
199.212407
11
129.304826
21
204.075704
0
LINE
8
Image
10
129.304826
20
204.075704
11
129.435354
21
208.460899
0
LINE
8
Image
10
129.435354
20
208.460899
11
129.648467
21
210.317521
0
LINE
8
Image
10
129.648467
20
210.317521
11
133.485022
21
210.569036
0
LINE
8
Image
10
133.485022
20
210.569036
11
143.555462
21
210.796308
0
LINE
8
Image
10
143.555462
20
210.796308
11
155.208030
21
210.908840
0
LINE
8
Image
10
155.208030
20
210.908840
11
157.075216
21
210.799770
0
LINE
8
Image
10
157.075216
20
210.799770
11
157.697741
21
210.556863
0
LINE
8
Image
10
157.697741
20
210.556863
11
157.971204
21
210.151651
0
LINE
8
Image
10
157.971204
20
210.151651
11
158.121508
21
209.250269
0
LINE
8
Image
10
158.121508
20
209.250269
11
158.198110
21
204.074389
0
LINE
8
Image
10
158.198110
20
204.074389
11
158.117440
21
198.745240
0
LINE
8
Image
10
158.117440
20
198.745240
11
157.935113
21
197.848414
0
LINE
8
Image
10
157.935113
20
197.848414
11
157.585690
21
197.332759
0
LINE
8
Image
10
157.585690
20
197.332759
11
157.191091
21
196.934167
0
LINE
8
Image
10
157.191091
20
196.934167
11
156.723823
21
196.727218
0
LINE
8
Image
10
156.723823
20
196.727218
11
154.578752
21
196.669227
0
LINE
8
Image
10
154.578752
20
196.669227
11
152.184239
21
196.717675
0
LINE
8
Image
10
152.184239
20
196.717675
11
152.042793
21
195.448227
0
LINE
8
Image
10
152.042793
20
195.448227
11
151.978319
21
164.280900
0
LINE
8
Image
10
151.978319
20
164.280900
11
152.108167
21
140.892468
0
LINE
8
Image
10
152.108167
20
140.892468
11
152.217507
21
135.352409
0
LINE
8
Image
10
152.217507
20
135.352409
11
152.365457
21
133.192397
0
LINE
8
Image
10
152.365457
20
133.192397
11
152.829461
21
132.010692
0
LINE
8
Image
10
152.829461
20
132.010692
11
153.589125
21
130.666764
0
LINE
8
Image
10
153.589125
20
130.666764
11
154.494895
21
129.395463
0
LINE
8
Image
10
154.494895
20
129.395463
11
155.397213
21
128.431636
0
LINE
8
Image
10
155.397213
20
128.431636
11
156.595158
21
127.592156
0
LINE
8
Image
10
156.595158
20
127.592156
11
158.233913
21
126.684904
0
LINE
8
Image
10
158.233913
20
126.684904
11
160.014437
21
125.861258
0
LINE
8
Image
10
160.014437
20
125.861258
11
161.637689
21
125.272600
0
LINE
8
Image
10
161.637689
20
125.272600
11
163.882762
21
124.732261
0
LINE
8
Image
10
163.882762
20
124.732261
11
166.191553
21
124.391486
0
LINE
8
Image
10
166.191553
20
124.391486
11
168.527973
21
124.247962
0
LINE
8
Image
10
168.527973
20
124.247962
11
170.855932
21
124.299376
0
LINE
8
Image
10
170.855932
20
124.299376
11
173.139343
21
124.543418
0
LINE
8
Image
10
173.139343
20
124.543418
11
175.342115
21
124.977773
0
LINE
8
Image
10
175.342115
20
124.977773
11
177.428162
21
125.600131
0
LINE
8
Image
10
177.428162
20
125.600131
11
179.361392
21
126.408179
0
LINE
8
Image
10
179.361392
20
126.408179
11
180.661922
21
127.124768
0
LINE
8
Image
10
180.661922
20
127.124768
11
181.831647
21
127.940400
0
LINE
8
Image
10
181.831647
20
127.940400
11
182.868259
21
128.852161
0
LINE
8
Image
10
182.868259
20
128.852161
11
183.769450
21
129.857141
0
LINE
8
Image
10
183.769450
20
129.857141
11
184.532912
21
130.952428
0
LINE
8
Image
10
184.532912
20
130.952428
11
185.156337
21
132.135109
0
LINE
8
Image
10
185.156337
20
132.135109
11
185.637418
21
133.402273
0
LINE
8
Image
10
185.637418
20
133.402273
11
185.973846
21
134.751008
0
LINE
8
Image
10
185.973846
20
134.751008
11
186.174057
21
143.630579
0
LINE
8
Image
10
186.174057
20
143.630579
11
186.243908
21
166.424368
0
LINE
8
Image
10
186.243908
20
166.424368
11
186.176047
21
192.698793
0
LINE
8
Image
10
186.176047
20
192.698793
11
186.023629
21
196.232673
0
LINE
8
Image
10
186.023629
20
196.232673
11
185.898083
21
196.774538
0
LINE
8
Image
10
185.898083
20
196.774538
11
185.732136
21
196.947592
0
LINE
8
Image
10
185.732136
20
196.947592
11
184.749369
21
197.141028
0
LINE
8
Image
10
184.749369
20
197.141028
11
183.105205
21
197.221483
0
LINE
8
Image
10
183.105205
20
197.221483
11
181.366690
21
197.313633
0
LINE
8
Image
10
181.366690
20
197.313633
11
180.574273
21
197.637257
0
LINE
8
Image
10
180.574273
20
197.637257
11
180.373805
21
198.312860
0
LINE
8
Image
10
180.373805
20
198.312860
11
180.229746
21
199.722132
0
LINE
8
Image
10
180.229746
20
199.722132
11
180.111759
21
203.779633
0
LINE
8
Image
10
180.111759
20
203.779633
11
180.222112
21
207.885650
0
LINE
8
Image
10
180.222112
20
207.885650
11
180.363478
21
209.355567
0
LINE
8
Image
10
180.363478
20
209.355567
11
180.562605
21
210.116073
0
LINE
8
Image
10
180.562605
20
210.116073
11
180.966705
21
210.693004
0
LINE
8
Image
10
180.966705
20
210.693004
11
194.307771
21
210.637963
0
LINE
8
Image
10
194.307771
20
210.637963
11
205.003633
21
210.524005
0
LINE
8
Image
10
205.003633
20
210.524005
11
207.223001
21
210.409618
0
LINE
8
Image
10
207.223001
20
210.409618
11
207.992718
21
210.238387
0
LINE
8
Image
10
207.992718
20
210.238387
11
208.156744
21
209.784294
0
LINE
8
Image
10
208.156744
20
209.784294
11
208.262697
21
208.705804
0
LINE
8
Image
10
208.262697
20
208.705804
11
208.336596
21
204.020906
0
LINE
8
Image
10
208.336596
20
204.020906
11
208.307697
21
199.961861
0
LINE
8
Image
10
208.307697
20
199.961861
11
208.209546
21
198.748115
0
LINE
8
Image
10
208.209546
20
198.748115
11
208.000460
21
197.957563
0
LINE
8
Image
10
208.000460
20
197.957563
11
207.639088
21
197.499712
0
LINE
8
Image
10
207.639088
20
197.499712
11
207.084079
21
197.284069
0
LINE
8
Image
10
207.084079
20
197.284069
11
205.227746
21
197.217432
0
LINE
8
Image
10
205.227746
20
197.217432
11
203.586398
21
197.151326
0
LINE
8
Image
10
203.586398
20
197.151326
11
202.705397
21
196.997934
0
LINE
8
Image
10
202.705397
20
196.997934
11
202.537428
21
195.595821
0
LINE
8
Image
10
202.537428
20
195.595821
11
202.434653
21
190.867902
0
LINE
8
Image
10
202.434653
20
190.867902
11
202.373187
21
166.745324
0
LINE
8
Image
10
202.373187
20
166.745324
11
202.349322
21
147.447401
0
LINE
8
Image
10
202.349322
20
147.447401
11
202.171056
21
136.900331
0
LINE
8
Image
10
202.171056
20
136.900331
11
201.979694
21
133.837452
0
LINE
8
Image
10
201.979694
20
133.837452
11
201.696539
21
131.677190
0
LINE
8
Image
10
201.696539
20
131.677190
11
201.303858
21
129.991180
0
LINE
8
Image
10
201.303858
20
129.991180
11
200.783921
21
128.351055
0
LINE
8
Image
10
200.783921
20
128.351055
11
199.211419
21
124.507929
0
LINE
8
Image
10
199.211419
20
124.507929
11
197.207541
21
121.082245
0
LINE
8
Image
10
197.207541
20
121.082245
11
194.771076
21
118.073063
0
LINE
8
Image
10
194.771076
20
118.073063
11
191.900809
21
115.479448
0
LINE
8
Image
10
191.900809
20
115.479448
11
188.595528
21
113.300460
0
LINE
8
Image
10
188.595528
20
113.300460
11
184.854020
21
111.535163
0
LINE
8
Image
10
184.854020
20
111.535163
11
180.675072
21
110.182619
0
LINE
8
Image
10
180.675072
20
110.182619
11
176.057470
21
109.241891
0
LINE
8
Image
10
176.057470
20
109.241891
11
173.004756
21
108.922117
0
LINE
8
Image
10
173.004756
20
108.922117
11
169.332289
21
108.743090
0
LINE
8
Image
10
169.332289
20
108.743090
11
165.682052
21
108.722325
0
LINE
8
Image
10
165.682052
20
108.722325
11
162.696029
21
108.877338
0
LINE
8
Image
10
162.696029
20
108.877338
11
162.696021
21
108.877338
0
LINE
8
Image
10
162.960604
20
128.773155
11
160.754558
21
129.475787
0
LINE
8
Image
10
160.754558
20
129.475787
11
159.089185
21
130.262745
0
LINE
8
Image
10
159.089185
20
130.262745
11
157.863733
21
131.193909
0
LINE
8
Image
10
157.863733
20
131.193909
11
156.977451
21
132.329161
0
LINE
8
Image
10
156.977451
20
132.329161
11
156.345414
21
133.678445
0
LINE
8
Image
10
156.345414
20
133.678445
11
155.995525
21
134.974991
0
LINE
8
Image
10
155.995525
20
134.974991
11
155.818009
21
146.106963
0
LINE
8
Image
10
155.818009
20
146.106963
11
155.795466
21
155.978827
0
LINE
8
Image
10
155.795466
20
155.978827
11
156.562672
21
156.690283
0
LINE
8
Image
10
156.562672
20
156.690283
11
160.872843
21
159.505063
0
LINE
8
Image
10
160.872843
20
159.505063
11
166.003306
21
162.652640
0
LINE
8
Image
10
166.003306
20
162.652640
11
169.046010
21
164.492399
0
LINE
8
Image
10
169.046010
20
164.492399
11
172.221006
21
166.383522
0
LINE
8
Image
10
172.221006
20
166.383522
11
176.126402
21
168.790434
0
LINE
8
Image
10
176.126402
20
168.790434
11
181.024923
21
171.603042
0
LINE
8
Image
10
181.024923
20
171.603042
11
181.797812
21
171.806649
0
LINE
8
Image
10
181.797812
20
171.806649
11
182.075064
21
171.490786
0
LINE
8
Image
10
182.075064
20
171.490786
11
182.197249
21
166.144096
0
LINE
8
Image
10
182.197249
20
166.144096
11
182.231419
21
154.781836
0
LINE
8
Image
10
182.231419
20
154.781836
11
182.051172
21
136.588751
0
LINE
8
Image
10
182.051172
20
136.588751
11
181.719158
21
134.242203
0
LINE
8
Image
10
181.719158
20
134.242203
11
181.418183
21
133.527527
0
LINE
8
Image
10
181.418183
20
133.527527
11
180.927332
21
132.780026
0
LINE
8
Image
10
180.927332
20
132.780026
11
179.936082
21
131.571007
0
LINE
8
Image
10
179.936082
20
131.571007
11
178.851106
21
130.638622
0
LINE
8
Image
10
178.851106
20
130.638622
11
177.518579
21
129.874950
0
LINE
8
Image
10
177.518579
20
129.874950
11
175.784675
21
129.172069
0
LINE
8
Image
10
175.784675
20
129.172069
11
174.376164
21
128.703763
0
LINE
8
Image
10
174.376164
20
128.703763
11
173.153677
21
128.439776
0
LINE
8
Image
10
173.153677
20
128.439776
11
169.310599
21
128.244486
0
LINE
8
Image
10
169.310599
20
128.244486
11
165.523709
21
128.280632
0
LINE
8
Image
10
165.523709
20
128.280632
11
162.960607
21
128.773155
0
LINE
8
Image
10
162.960607
20
128.773155
11
162.960604
21
128.773155
0
LINE
8
Image
10
55.512657
20
249.536755
11
56.995113
21
250.816289
0
LINE
8
Image
10
56.995113
20
250.816289
11
66.573536
21
258.803176
0
LINE
8
Image
10
66.573536
20
258.803176
11
68.025938
21
259.662674
0
LINE
8
Image
10
68.025938
20
259.662674
11
70.144370
21
258.108631
0
LINE
8
Image
10
70.144370
20
258.108631
11
75.383631
21
253.585708
0
LINE
8
Image
10
75.383631
20
253.585708
11
78.382241
21
250.987819
0
LINE
8
Image
10
78.382241
20
250.987819
11
80.249560
21
249.525683
0
LINE
8
Image
10
80.249560
20
249.525683
11
81.203268
21
249.049752
0
LINE
8
Image
10
81.203268
20
249.049752
11
81.405541
21
249.134881
0
LINE
8
Image
10
81.405541
20
249.134881
11
81.461042
21
249.410480
0
LINE
8
Image
10
81.461042
20
249.410480
11
80.538232
21
253.180788
0
LINE
8
Image
10
80.538232
20
253.180788
11
77.827553
21
263.852635
0
LINE
8
Image
10
77.827553
20
263.852635
11
77.427899
21
266.090912
0
LINE
8
Image
10
77.427899
20
266.090912
11
77.513622
21
266.955161
0
LINE
8
Image
10
77.513622
20
266.955161
11
83.051850
21
270.793811
0
LINE
8
Image
10
83.051850
20
270.793811
11
89.448698
21
275.163556
0
LINE
8
Image
10
89.448698
20
275.163556
11
90.601370
21
276.172519
0
LINE
8
Image
10
90.601370
20
276.172519
11
90.764612
21
276.458121
0
LINE
8
Image
10
90.764612
20
276.458121
11
90.689922
21
276.626411
0
LINE
8
Image
10
90.689922
20
276.626411
11
88.062469
21
276.787533
0
LINE
8
Image
10
88.062469
20
276.787533
11
82.247213
21
276.856915
0
LINE
8
Image
10
82.247213
20
276.856915
11
75.838722
21
276.932568
0
LINE
8
Image
10
75.838722
20
276.932568
11
74.344435
21
277.035325
0
LINE
8
Image
10
74.344435
20
277.035325
11
73.727461
21
277.191695
0
LINE
8
Image
10
73.727461
20
277.191695
11
73.255093
21
278.159441
0
LINE
8
Image
10
73.255093
20
278.159441
11
72.471146
21
280.441210
0
LINE
8
Image
10
72.471146
20
280.441210
11
70.322071
21
287.841161
0
LINE
8
Image
10
70.322071
20
287.841161
11
68.939406
21
292.443872
0
LINE
8
Image
10
68.939406
20
292.443872
11
68.470592
21
293.473911
0
LINE
8
Image
10
68.470592
20
293.473911
11
68.098629
21
293.794278
0
LINE
8
Image
10
68.098629
20
293.794278
11
67.679744
21
293.313864
0
LINE
8
Image
10
67.679744
20
293.313864
11
66.853541
21
291.344599
0
LINE
8
Image
10
66.853541
20
291.344599
11
62.776852
21
279.771379
0
LINE
8
Image
10
62.776852
20
279.771379
11
62.112180
21
278.008439
0
LINE
8
Image
10
62.112180
20
278.008439
11
61.675868
21
277.487740
0
LINE
8
Image
10
61.675868
20
277.487740
11
60.986118
21
277.153053
0
LINE
8
Image
10
60.986118
20
277.153053
11
59.904839
21
276.963503
0
LINE
8
Image
10
59.904839
20
276.963503
11
58.293938
21
276.878215
0
LINE
8
Image
10
58.293938
20
276.878215
11
52.930911
21
276.856915
0
LINE
8
Image
10
52.930911
20
276.856915
11
47.003672
21
276.782458
0
LINE
8
Image
10
47.003672
20
276.782458
11
44.427420
21
276.599791
0
LINE
8
Image
10
44.427420
20
276.599791
11
44.223014
21
276.306732
0
LINE
8
Image
10
44.223014
20
276.306732
11
44.680160
21
275.876238
0
LINE
8
Image
10
44.680160
20
275.876238
11
53.106917
21
270.246391
0
LINE
8
Image
10
53.106917
20
270.246391
11
56.341685
21
268.023876
0
LINE
8
Image
10
56.341685
20
268.023876
11
57.202313
21
267.315482
0
LINE
8
Image
10
57.202313
20
267.315482
11
57.544948
21
266.885877
0
LINE
8
Image
10
57.544948
20
266.885877
11
57.552210
21
266.232780
0
LINE
8
Image
10
57.552210
20
266.232780
11
57.273127
21
264.723229
0
LINE
8
Image
10
57.273127
20
264.723229
11
55.394504
21
257.017241
0
LINE
8
Image
10
55.394504
20
257.017241
11
53.805514
21
250.152104
0
LINE
8
Image
10
53.805514
20
250.152104
11
53.708577
21
248.886572
0
LINE
8
Image
10
53.708577
20
248.886572
11
53.806485
21
248.626533
0
LINE
8
Image
10
53.806485
20
248.626533
11
53.991304
21
248.550585
0
LINE
8
Image
10
53.991304
20
248.550585
11
55.512657
21
249.536755
0
LINE
8
Image
10
55.512657
20
249.536755
11
55.512657
21
249.536755
0
LINE
8
Image
10
105.297324
20
249.781483
11
109.760345
21
253.551791
0
LINE
8
Image
10
109.760345
20
253.551791
11
114.297877
21
257.346781
0
LINE
8
Image
10
114.297877
20
257.346781
11
116.644494
21
259.164573
0
LINE
8
Image
10
116.644494
20
259.164573
11
117.275131
21
259.516871
0
LINE
8
Image
10
117.275131
20
259.516871
11
117.692744
21
259.596693
0
LINE
8
Image
10
117.692744
20
259.596693
11
118.335175
21
259.234669
0
LINE
8
Image
10
118.335175
20
259.234669
11
128.744686
21
250.272684
0
LINE
8
Image
10
128.744686
20
250.272684
11
130.004964
21
249.361730
0
LINE
8
Image
10
130.004964
20
249.361730
11
130.541471
21
249.143497
0
LINE
8
Image
10
130.541471
20
249.143497
11
130.856595
21
249.166675
0
LINE
8
Image
10
130.856595
20
249.166675
11
130.873079
21
249.618271
0
LINE
8
Image
10
130.873079
20
249.618271
11
130.635194
21
250.840696
0
LINE
8
Image
10
130.635194
20
250.840696
11
129.224258
21
256.355784
0
LINE
8
Image
10
129.224258
20
256.355784
11
127.566105
21
262.926027
0
LINE
8
Image
10
127.566105
20
262.926027
11
126.977316
21
266.146402
0
LINE
8
Image
10
126.977316
20
266.146402
11
126.999982
21
266.725389
0
LINE
8
Image
10
126.999982
20
266.725389
11
127.689620
21
267.454652
0
LINE
8
Image
10
127.689620
20
267.454652
11
134.799654
21
272.296475
0
LINE
8
Image
10
134.799654
20
272.296475
11
139.851349
21
275.767317
0
LINE
8
Image
10
139.851349
20
275.767317
11
140.380246
21
276.321602
0
LINE
8
Image
10
140.380246
20
276.321602
11
140.206466
21
276.587340
0
LINE
8
Image
10
140.206466
20
276.587340
11
137.697229
21
276.782404
0
LINE
8
Image
10
137.697229
20
276.782404
11
131.573768
21
276.856915
0
LINE
8
Image
10
131.573768
20
276.856915
11
125.049015
21
276.931034
0
LINE
8
Image
10
125.049015
20
276.931034
11
123.608276
21
277.033584
0
LINE
8
Image
10
123.608276
20
277.033584
11
123.080196
21
277.191695
0
LINE
8
Image
10
123.080196
20
277.191695
11
121.308271
21
282.814084
0
LINE
8
Image
10
121.308271
20
282.814084
11
119.040461
21
290.520213
0
LINE
8
Image
10
119.040461
20
290.520213
11
117.986796
21
293.529695
0
LINE
8
Image
10
117.986796
20
293.529695
11
117.810992
21
293.719734
0
LINE
8
Image
10
117.810992
20
293.719734
11
117.619322
21
293.730691
0
LINE
8
Image
10
117.619322
20
293.730691
11
117.140390
21
293.124751
0
LINE
8
Image
10
117.140390
20
293.124751
11
115.464209
21
288.767201
0
LINE
8
Image
10
115.464209
20
288.767201
11
112.620615
21
280.710214
0
LINE
8
Image
10
112.620615
20
280.710214
11
111.231942
21
277.166496
0
LINE
8
Image
10
111.231942
20
277.166496
11
102.503341
21
276.860966
0
LINE
8
Image
10
102.503341
20
276.860966
11
93.768533
21
276.549184
0
LINE
8
Image
10
93.768533
20
276.549184
11
93.775886
21
276.298815
0
LINE
8
Image
10
93.775886
20
276.298815
11
94.461423
21
275.713104
0
LINE
8
Image
10
94.461423
20
275.713104
11
99.592976
21
272.266617
0
LINE
8
Image
10
99.592976
20
272.266617
11
105.805184
21
268.038186
0
LINE
8
Image
10
105.805184
20
268.038186
11
106.871083
21
267.098659
0
LINE
8
Image
10
106.871083
20
267.098659
11
107.133591
21
266.517805
0
LINE
8
Image
10
107.133591
20
266.517805
11
105.282121
21
258.493437
0
LINE
8
Image
10
105.282121
20
258.493437
11
103.369903
21
250.303052
0
LINE
8
Image
10
103.369903
20
250.303052
11
103.220410
21
248.897046
0
LINE
8
Image
10
103.220410
20
248.897046
11
103.303599
21
248.625743
0
LINE
8
Image
10
103.303599
20
248.625743
11
103.475424
21
248.550585
0
LINE
8
Image
10
103.475424
20
248.550585
11
104.168392
21
248.912162
0
LINE
8
Image
10
104.168392
20
248.912162
11
105.297324
21
249.781483
0
LINE
8
Image
10
105.297324
20
249.781483
11
105.297324
21
249.781483
0
LINE
8
Image
10
154.127538
20
249.140777
11
159.754602
21
253.837125
0
LINE
8
Image
10
159.754602
20
253.837125
11
165.728617
21
258.823022
0
LINE
8
Image
10
165.728617
20
258.823022
11
166.707674
21
259.530114
0
LINE
8
Image
10
166.707674
20
259.530114
11
167.128302
21
259.663071
0
LINE
8
Image
10
167.128302
20
259.663071
11
167.685525
21
259.411343
0
LINE
8
Image
10
167.685525
20
259.411343
11
168.682184
21
258.695229
0
LINE
8
Image
10
168.682184
20
258.695229
11
171.693110
21
256.104274
0
LINE
8
Image
10
171.693110
20
256.104274
11
176.274848
21
252.132949
0
LINE
8
Image
10
176.274848
20
252.132949
11
179.813586
21
249.250772
0
LINE
8
Image
10
179.813586
20
249.250772
11
180.160185
21
249.157384
0
LINE
8
Image
10
180.160185
20
249.157384
11
180.436750
21
249.252095
0
LINE
8
Image
10
180.436750
20
249.252095
11
180.099200
21
251.338083
0
LINE
8
Image
10
180.099200
20
251.338083
11
178.950805
21
256.092523
0
LINE
8
Image
10
178.950805
20
256.092523
11
176.802877
21
264.596391
0
LINE
8
Image
10
176.802877
20
264.596391
11
176.538541
21
266.039333
0
LINE
8
Image
10
176.538541
20
266.039333
11
176.579075
21
266.655730
0
LINE
8
Image
10
176.579075
20
266.655730
11
178.143550
21
268.008095
0
LINE
8
Image
10
178.143550
20
268.008095
11
182.181384
21
270.775483
0
LINE
8
Image
10
182.181384
20
270.775483
11
188.706096
21
275.216004
0
LINE
8
Image
10
188.706096
20
275.216004
11
189.831387
21
276.196358
0
LINE
8
Image
10
189.831387
20
276.196358
11
189.981097
21
276.468575
0
LINE
8
Image
10
189.981097
20
276.468575
11
189.901739
21
276.630541
0
LINE
8
Image
10
189.901739
20
276.630541
11
187.234895
21
276.788695
0
LINE
8
Image
10
187.234895
20
276.788695
11
181.315372
21
276.856841
0
LINE
8
Image
10
181.315372
20
276.856841
11
174.729290
21
276.931302
0
LINE
8
Image
10
174.729290
20
276.931302
11
173.316325
21
277.037447
0
LINE
8
Image
10
173.316325
20
277.037447
11
172.794548
21
277.204300
0
LINE
8
Image
10
172.794548
20
277.204300
11
171.325202
21
281.636065
0
LINE
8
Image
10
171.325202
20
281.636065
11
169.435048
21
288.105669
0
LINE
8
Image
10
169.435048
20
288.105669
11
168.378470
21
291.758608
0
LINE
8
Image
10
168.378470
20
291.758608
11
167.727030
21
293.375377
0
LINE
8
Image
10
167.727030
20
293.375377
11
167.396291
21
293.631927
0
LINE
8
Image
10
167.396291
20
293.631927
11
167.057825
21
293.526454
0
LINE
8
Image
10
167.057825
20
293.526454
11
166.026516
21
291.079843
0
LINE
8
Image
10
166.026516
20
291.079843
11
164.011067
21
285.582722
0
LINE
8
Image
10
164.011067
20
285.582722
11
160.958684
21
277.453225
0
LINE
8
Image
10
160.958684
20
277.453225
11
160.528756
21
277.202161
0
LINE
8
Image
10
160.528756
20
277.202161
11
159.300862
21
277.046035
0
LINE
8
Image
10
159.300862
20
277.046035
11
152.089995
21
276.860892
0
LINE
8
Image
10
152.089995
20
276.860892
11
145.672376
21
276.691317
0
LINE
8
Image
10
145.672376
20
276.691317
11
143.463943
21
276.447539
0
LINE
8
Image
10
143.463943
20
276.447539
11
144.895680
21
275.252127
0
LINE
8
Image
10
144.895680
20
275.252127
11
148.469192
21
272.772730
0
LINE
8
Image
10
148.469192
20
272.772730
11
155.001212
21
268.423589
0
LINE
8
Image
10
155.001212
20
268.423589
11
156.698705
21
267.038378
0
LINE
8
Image
10
156.698705
20
267.038378
11
156.731997
21
266.485026
0
LINE
8
Image
10
156.731997
20
266.485026
11
156.526999
21
265.213340
0
LINE
8
Image
10
156.526999
20
265.213340
11
155.305130
21
260.026928
0
LINE
8
Image
10
155.305130
20
260.026928
11
153.166898
21
251.201170
0
LINE
8
Image
10
153.166898
20
251.201170
11
152.856532
21
249.514116
0
LINE
8
Image
10
152.856532
20
249.514116
11
152.879578
21
248.680433
0
LINE
8
Image
10
152.879578
20
248.680433
11
153.031883
21
248.549819
0
LINE
8
Image
10
153.031883
20
248.549819
11
153.286444
21
248.592002
0
LINE
8
Image
10
153.286444
20
248.592002
11
154.127538
21
249.140703
0
LINE
8
Image
10
154.127538
20
249.140703
11
154.127538
21
249.140777
0
LINE
8
Image
10
210.345988
20
254.106828
11
215.147240
21
258.030925
0
LINE
8
Image
10
215.147240
20
258.030925
11
217.333469
21
259.663071
0
LINE
8
Image
10
217.333469
20
259.663071
11
217.833579
21
259.448869
0
LINE
8
Image
10
217.833579
20
259.448869
11
218.873988
21
258.672941
0
LINE
8
Image
10
218.873988
20
258.672941
11
223.567706
21
254.635994
0
LINE
8
Image
10
223.567706
20
254.635994
11
228.679626
21
250.229260
0
LINE
8
Image
10
228.679626
20
250.229260
11
229.832197
21
249.347223
0
LINE
8
Image
10
229.832197
20
249.347223
11
230.363123
21
249.089842
0
LINE
8
Image
10
230.363123
20
249.089842
11
230.534949
21
249.144600
0
LINE
8
Image
10
230.534949
20
249.144600
11
230.636870
21
249.336292
0
LINE
8
Image
10
230.636870
20
249.336292
11
230.618835
21
250.219609
0
LINE
8
Image
10
230.618835
20
250.219609
11
229.610157
21
254.609933
0
LINE
8
Image
10
229.610157
20
254.609933
11
227.449702
21
263.048343
0
LINE
8
Image
10
227.449702
20
263.048343
11
226.726557
21
266.432874
0
LINE
8
Image
10
226.726557
20
266.432874
11
226.964744
21
266.855676
0
LINE
8
Image
10
226.964744
20
266.855676
11
227.775806
21
267.560608
0
LINE
8
Image
10
227.775806
20
267.560608
11
231.686038
21
270.255789
0
LINE
8
Image
10
231.686038
20
270.255789
11
238.460432
21
274.872708
0
LINE
8
Image
10
238.460432
20
274.872708
11
239.965086
21
276.063715
0
LINE
8
Image
10
239.965086
20
276.063715
11
240.345430
21
276.605606
0
LINE
8
Image
10
240.345430
20
276.605606
11
237.949841
21
276.792609
0
LINE
8
Image
10
237.949841
20
276.792609
11
231.802714
21
276.865017
0
LINE
8
Image
10
231.802714
20
276.865017
11
225.788087
21
276.926832
0
LINE
8
Image
10
225.788087
20
276.926832
11
223.101921
21
277.069905
0
LINE
8
Image
10
223.101921
20
277.069905
11
222.364496
21
278.997438
0
LINE
8
Image
10
222.364496
20
278.997438
11
221.035141
21
283.349700
0
LINE
8
Image
10
221.035141
20
283.349700
11
218.330958
21
292.513813
0
LINE
8
Image
10
218.330958
20
292.513813
11
217.854942
21
293.633164
0
LINE
8
Image
10
217.854942
20
293.633164
11
217.692010
21
293.753267
0
LINE
8
Image
10
217.692010
20
293.753267
11
217.524294
21
293.742647
0
LINE
8
Image
10
217.524294
20
293.742647
11
217.112010
21
293.333137
0
LINE
8
Image
10
217.112010
20
293.333137
11
216.387289
21
291.668158
0
LINE
8
Image
10
216.387289
20
291.668158
11
212.668389
21
281.104785
0
LINE
8
Image
10
212.668389
20
281.104785
11
211.727119
21
278.637327
0
LINE
8
Image
10
211.727119
20
278.637327
11
211.059055
21
277.334477
0
LINE
8
Image
10
211.059055
20
277.334477
11
210.573253
21
277.076893
0
LINE
8
Image
10
210.573253
20
277.076893
11
209.346265
21
276.934524
0
LINE
8
Image
10
209.346265
20
276.934524
11
202.134504
21
276.860966
0
LINE
8
Image
10
202.134504
20
276.860966
11
195.982135
21
276.791653
0
LINE
8
Image
10
195.982135
20
276.791653
11
193.528849
21
276.610798
0
LINE
8
Image
10
193.528849
20
276.610798
11
193.897777
21
276.099566
0
LINE
8
Image
10
193.897777
20
276.099566
11
195.001891
21
275.221737
0
LINE
8
Image
10
195.001891
20
275.221737
11
200.795973
21
271.343992
0
LINE
8
Image
10
200.795973
20
271.343992
11
204.826535
21
268.697066
0
LINE
8
Image
10
204.826535
20
268.697066
11
206.698441
21
267.314677
0
LINE
8
Image
10
206.698441
20
267.314677
11
207.056830
21
266.878177
0
LINE
8
Image
10
207.056830
20
266.878177
11
207.153874
21
266.494403
0
LINE
8
Image
10
207.153874
20
266.494403
11
206.935016
21
265.533819
0
LINE
8
Image
10
206.935016
20
265.533819
11
204.772489
21
256.825704
0
LINE
8
Image
10
204.772489
20
256.825704
11
202.912637
21
248.954360
0
LINE
8
Image
10
202.912637
20
248.954360
11
203.025714
21
248.669194
0
LINE
8
Image
10
203.025714
20
248.669194
11
203.297579
21
248.550585
0
LINE
8
Image
10
203.297579
20
248.550585
11
205.526838
21
250.182731
0
LINE
8
Image
10
205.526838
20
250.182731
11
210.345988
21
254.106828
0
LINE
8
Image
10
210.345988
20
254.106828
11
210.345988
21
254.106828
0
LINE
8
Image
10
256.622986
20
251.363004
11
264.694226
21
258.109150
0
LINE
8
Image
10
264.694226
20
258.109150
11
266.295243
21
259.339728
0
LINE
8
Image
10
266.295243
20
259.339728
11
266.919638
21
259.663071
0
LINE
8
Image
10
266.919638
20
259.663071
11
268.928058
21
258.179175
0
LINE
8
Image
10
268.928058
20
258.179175
11
273.161813
21
254.611512
0
LINE
8
Image
10
273.161813
20
254.611512
11
278.753037
21
249.904895
0
LINE
8
Image
10
278.753037
20
249.904895
11
279.874500
21
249.174710
0
LINE
8
Image
10
279.874500
20
249.174710
11
280.170976
21
249.098623
0
LINE
8
Image
10
280.170976
20
249.098623
11
280.350057
21
249.170720
0
LINE
8
Image
10
280.350057
20
249.170720
11
279.924422
21
251.413093
0
LINE
8
Image
10
279.924422
20
251.413093
11
278.652651
21
256.555877
0
LINE
8
Image
10
278.652651
20
256.555877
11
276.451426
21
265.204982
0
LINE
8
Image
10
276.451426
20
265.204982
11
276.124507
21
266.645856
0
LINE
8
Image
10
276.124507
20
266.645856
11
276.967575
21
267.349694
0
LINE
8
Image
10
276.967575
20
267.349694
11
281.041306
21
270.138267
0
LINE
8
Image
10
281.041306
20
270.138267
11
286.684792
21
273.928834
0
LINE
8
Image
10
286.684792
20
273.928834
11
289.599270
21
276.124989
0
LINE
8
Image
10
289.599270
20
276.124989
11
289.608153
21
276.380674
0
LINE
8
Image
10
289.608153
20
276.380674
11
289.399033
21
276.621913
0
LINE
8
Image
10
289.399033
20
276.621913
11
286.761111
21
276.786212
0
LINE
8
Image
10
286.761111
20
276.786212
11
280.930869
21
276.856915
0
LINE
8
Image
10
280.930869
20
276.856915
11
274.511603
21
276.931230
0
LINE
8
Image
10
274.511603
20
276.931230
11
273.084750
21
277.033813
0
LINE
8
Image
10
273.084750
20
277.033813
11
272.554039
21
277.191695
0
LINE
8
Image
10
272.554039
20
277.191695
11
270.657561
21
283.210736
0
LINE
8
Image
10
270.657561
20
283.210736
11
268.713337
21
289.937724
0
LINE
8
Image
10
268.713337
20
289.937724
11
267.617598
21
293.193169
0
LINE
8
Image
10
267.617598
20
293.193169
11
267.265053
21
293.797104
0
LINE
8
Image
10
267.265053
20
293.797104
11
266.977199
21
293.866803
0
LINE
8
Image
10
266.977199
20
293.866803
11
266.704893
21
293.513481
0
LINE
8
Image
10
266.704893
20
293.513481
11
266.398992
21
292.848357
0
LINE
8
Image
10
266.398992
20
292.848357
11
263.720687
21
285.459914
0
LINE
8
Image
10
263.720687
20
285.459914
11
260.765297
21
277.068484
0
LINE
8
Image
10
260.765297
20
277.068484
11
252.014617
21
276.870047
0
LINE
8
Image
10
252.014617
20
276.870047
11
245.481950
21
276.693967
0
LINE
8
Image
10
245.481950
20
276.693967
11
243.212507
21
276.449910
0
LINE
8
Image
10
243.212507
20
276.449910
11
245.067859
21
274.974799
0
LINE
8
Image
10
245.067859
20
274.974799
11
249.658786
21
271.819707
0
LINE
8
Image
10
249.658786
20
271.819707
11
254.353640
21
268.618087
0
LINE
8
Image
10
254.353640
20
268.618087
11
256.458863
21
267.031104
0
LINE
8
Image
10
256.458863
20
267.031104
11
256.476204
21
266.411773
0
LINE
8
Image
10
256.476204
20
266.411773
11
256.224976
21
264.938513
0
LINE
8
Image
10
256.224976
20
264.938513
11
254.805036
21
258.879244
0
LINE
8
Image
10
254.805036
20
258.879244
11
252.866418
21
250.525367
0
LINE
8
Image
10
252.866418
20
250.525367
11
252.695455
21
248.970169
0
LINE
8
Image
10
252.695455
20
248.970169
11
252.773923
21
248.649953
0
LINE
8
Image
10
252.773923
20
248.649953
11
252.948116
21
248.559210
0
LINE
8
Image
10
252.948116
20
248.559210
11
254.179237
21
249.386381
0
LINE
8
Image
10
254.179237
20
249.386381
11
256.622986
21
251.363004
0
LINE
8
Image
10
256.622986
20
251.363004
11
256.622986
21
251.363004
 0 
ENDSEC
 0 
EOF