999
"DXF R12 Output" (www.mydxf.blogspot.com)
 0 
SECTION
 2 
HEADER
 9 
$ACADVER
 1 
AC1009
 9 
$EXTMIN
 10 
 0 
 20 
 0 
 9 
$EXTMAX
 10 
 8.5 
 20 
 11 
 0 
ENDSEC
 0 
SECTION
 2 
ENTITIES
0
LINE
8
Image
10
61.309466
20
5.943178
11
58.995504
21
7.498721
0
LINE
8
Image
10
58.995504
20
7.498721
11
56.723251
21
8.822674
0
LINE
8
Image
10
56.723251
20
8.822674
11
54.456652
21
9.927426
0
LINE
8
Image
10
54.456652
20
9.927426
11
52.159649
21
10.825369
0
LINE
8
Image
10
52.159649
20
10.825369
11
49.796186
21
11.528891
0
LINE
8
Image
10
49.796186
20
11.528891
11
47.330206
21
12.050383
0
LINE
8
Image
10
47.330206
20
12.050383
11
44.725654
21
12.402235
0
LINE
8
Image
10
44.725654
20
12.402235
11
41.946473
21
12.596837
0
LINE
8
Image
10
41.946473
20
12.596837
11
37.440344
21
12.643935
0
LINE
8
Image
10
37.440344
20
12.643935
11
35.907490
21
12.484304
0
LINE
8
Image
10
35.907490
20
12.484304
11
34.421489
21
12.178463
0
LINE
8
Image
10
34.421489
20
12.178463
11
32.375120
21
11.800195
0
LINE
8
Image
10
32.375120
20
11.800195
11
30.241462
21
11.637618
0
LINE
8
Image
10
30.241462
20
11.637618
11
28.055172
21
11.685180
0
LINE
8
Image
10
28.055172
20
11.685180
11
25.850905
21
11.937331
0
LINE
8
Image
10
25.850905
20
11.937331
11
23.663318
21
12.388523
0
LINE
8
Image
10
23.663318
20
12.388523
11
21.527067
21
13.033204
0
LINE
8
Image
10
21.527067
20
13.033204
11
19.476806
21
13.865824
0
LINE
8
Image
10
19.476806
20
13.865824
11
17.547194
21
14.880834
0
LINE
8
Image
10
17.547194
20
14.880834
11
15.462581
21
16.332301
0
LINE
8
Image
10
15.462581
20
16.332301
11
13.614457
21
18.006477
0
LINE
8
Image
10
13.614457
20
18.006477
11
12.212532
21
19.686906
0
LINE
8
Image
10
12.212532
20
19.686906
11
11.466513
21
21.157134
0
LINE
8
Image
10
11.466513
20
21.157134
11
10.943349
21
22.347909
0
LINE
8
Image
10
10.943349
20
22.347909
11
10.127816
21
23.072004
0
LINE
8
Image
10
10.127816
20
23.072004
11
9.165459
21
23.683481
0
LINE
8
Image
10
9.165459
20
23.683481
11
8.433897
21
24.373745
0
LINE
8
Image
10
8.433897
20
24.373745
11
7.939651
21
25.105364
0
LINE
8
Image
10
7.939651
20
25.105364
11
7.689242
21
25.840908
0
LINE
8
Image
10
7.689242
20
25.840908
11
7.689192
21
26.542946
0
LINE
8
Image
10
7.689192
20
26.542946
11
7.946021
21
27.174049
0
LINE
8
Image
10
7.946021
20
27.174049
11
8.466251
21
27.696786
0
LINE
8
Image
10
8.466251
20
27.696786
11
9.256404
21
28.073726
0
LINE
8
Image
10
9.256404
20
28.073726
11
8.670389
21
29.491110
0
LINE
8
Image
10
8.670389
20
29.491110
11
7.311067
21
32.876558
0
LINE
8
Image
10
7.311067
20
32.876558
11
6.412972
21
36.339615
0
LINE
8
Image
10
6.412972
20
36.339615
11
6.028853
21
39.603538
0
LINE
8
Image
10
6.028853
20
39.603538
11
6.046019
21
41.074342
0
LINE
8
Image
10
6.046019
20
41.074342
11
6.211461
21
42.391582
0
LINE
8
Image
10
6.211461
20
42.391582
11
6.418211
21
43.576290
0
LINE
8
Image
10
6.418211
20
43.576290
11
6.427842
21
44.361184
0
LINE
8
Image
10
6.427842
20
44.361184
11
6.197325
21
45.029305
0
LINE
8
Image
10
6.197325
20
45.029305
11
5.683634
21
45.863691
0
LINE
8
Image
10
5.683634
20
45.863691
11
4.695916
21
47.587915
0
LINE
8
Image
10
4.695916
20
47.587915
11
3.960149
21
49.388373
0
LINE
8
Image
10
3.960149
20
49.388373
11
3.482725
21
51.245796
0
LINE
8
Image
10
3.482725
20
51.245796
11
3.270032
21
53.140917
0
LINE
8
Image
10
3.270032
20
53.140917
11
3.231697
21
54.503330
0
LINE
8
Image
10
3.231697
20
54.503330
11
3.320030
21
55.238356
0
LINE
8
Image
10
3.320030
20
55.238356
11
3.623796
21
55.592589
0
LINE
8
Image
10
3.623796
20
55.592589
11
4.231760
21
55.812620
0
LINE
8
Image
10
4.231760
20
55.812620
11
5.746048
21
55.987437
0
LINE
8
Image
10
5.746048
20
55.987437
11
7.908806
21
55.897388
0
LINE
8
Image
10
7.908806
20
55.897388
11
10.355095
21
55.575120
0
LINE
8
Image
10
10.355095
20
55.575120
11
12.719974
21
55.053282
0
LINE
8
Image
10
12.719974
20
55.053282
11
15.116304
21
54.388799
0
LINE
8
Image
10
15.116304
20
54.388799
11
17.082355
21
56.069547
0
LINE
8
Image
10
17.082355
20
56.069547
11
19.276625
21
57.810524
0
LINE
8
Image
10
19.276625
20
57.810524
11
21.605872
21
59.400630
0
LINE
8
Image
10
21.605872
20
59.400630
11
24.057030
21
60.833924
0
LINE
8
Image
10
24.057030
20
60.833924
11
26.617032
21
62.104460
0
LINE
8
Image
10
26.617032
20
62.104460
11
29.272810
21
63.206297
0
LINE
8
Image
10
29.272810
20
63.206297
11
32.011298
21
64.133489
0
LINE
8
Image
10
32.011298
20
64.133489
11
34.819428
21
64.880094
0
LINE
8
Image
10
34.819428
20
64.880094
11
37.684133
21
65.440169
0
LINE
8
Image
10
37.684133
20
65.440169
11
41.038712
21
65.791030
0
LINE
8
Image
10
41.038712
20
65.791030
11
45.241146
21
65.979120
0
LINE
8
Image
10
45.241146
20
65.979120
11
49.435239
21
65.984692
0
LINE
8
Image
10
49.435239
20
65.984692
11
52.764796
21
65.787998
0
LINE
8
Image
10
52.764796
20
65.787998
11
58.294247
21
64.863285
0
LINE
8
Image
10
58.294247
20
64.863285
11
63.674738
21
63.446097
0
LINE
8
Image
10
63.674738
20
63.446097
11
66.448833
21
62.460687
0
LINE
8
Image
10
66.448833
20
62.460687
11
68.985223
21
61.390945
0
LINE
8
Image
10
68.985223
20
61.390945
11
70.824042
21
60.448379
0
LINE
8
Image
10
70.824042
20
60.448379
11
71.338153
21
60.090883
0
LINE
8
Image
10
71.338153
20
60.090883
11
71.505421
21
59.844497
0
LINE
8
Image
10
71.505421
20
59.844497
11
70.564722
21
59.324605
0
LINE
8
Image
10
70.564722
20
59.324605
11
68.362617
21
58.502949
0
LINE
8
Image
10
68.362617
20
58.502949
11
65.360136
21
57.322849
0
LINE
8
Image
10
65.360136
20
57.322849
11
62.630427
21
55.871021
0
LINE
8
Image
10
62.630427
20
55.871021
11
60.117587
21
54.113240
0
LINE
8
Image
10
60.117587
20
54.113240
11
57.765716
21
52.015283
0
LINE
8
Image
10
57.765716
20
52.015283
11
56.279474
21
50.433353
0
LINE
8
Image
10
56.279474
20
50.433353
11
55.424648
21
49.279794
0
LINE
8
Image
10
55.424648
20
49.279794
11
55.211190
21
48.571946
0
LINE
8
Image
10
55.211190
20
48.571946
11
55.348084
21
48.390583
0
LINE
8
Image
10
55.348084
20
48.390583
11
55.649052
21
48.327150
0
LINE
8
Image
10
55.649052
20
48.327150
11
57.013169
21
47.916807
0
LINE
8
Image
10
57.013169
20
47.916807
11
59.284662
21
46.899537
0
LINE
8
Image
10
59.284662
20
46.899537
11
61.844504
21
45.575346
0
LINE
8
Image
10
61.844504
20
45.575346
11
64.073666
21
44.244241
0
LINE
8
Image
10
64.073666
20
44.244241
11
66.347606
21
42.569459
0
LINE
8
Image
10
66.347606
20
42.569459
11
68.686208
21
40.557364
0
LINE
8
Image
10
68.686208
20
40.557364
11
70.987318
21
38.324620
0
LINE
8
Image
10
70.987318
20
38.324620
11
73.148782
21
35.987890
0
LINE
8
Image
10
73.148782
20
35.987890
11
75.068448
21
33.663836
0
LINE
8
Image
10
75.068448
20
33.663836
11
76.644161
21
31.469121
0
LINE
8
Image
10
76.644161
20
31.469121
11
77.773768
21
29.520408
0
LINE
8
Image
10
77.773768
20
29.520408
11
78.355115
21
27.934359
0
LINE
8
Image
10
78.355115
20
27.934359
11
78.468406
21
27.189614
0
LINE
8
Image
10
78.468406
20
27.189614
11
78.404265
21
26.990954
0
LINE
8
Image
10
78.404265
20
26.990954
11
78.208274
21
26.901176
0
LINE
8
Image
10
78.208274
20
26.901176
11
77.266761
21
27.027498
0
LINE
8
Image
10
77.266761
20
27.027498
11
75.335911
21
27.527034
0
LINE
8
Image
10
75.335911
20
27.527034
11
72.361815
21
28.181794
0
LINE
8
Image
10
72.361815
20
28.181794
11
69.221622
21
28.631657
0
LINE
8
Image
10
69.221622
20
28.631657
11
66.135086
21
28.852939
0
LINE
8
Image
10
66.135086
20
28.852939
11
63.321959
21
28.821953
0
LINE
8
Image
10
63.321959
20
28.821953
11
58.988798
21
28.279552
0
LINE
8
Image
10
58.988798
20
28.279552
11
57.375271
21
27.896296
0
LINE
8
Image
10
57.375271
20
27.896296
11
56.500305
21
27.509495
0
LINE
8
Image
10
56.500305
20
27.509495
11
56.529373
21
27.229497
0
LINE
8
Image
10
56.529373
20
27.229497
11
56.826796
21
26.662987
0
LINE
8
Image
10
56.826796
20
26.662987
11
58.026404
21
24.999822
0
LINE
8
Image
10
58.026404
20
24.999822
11
59.702892
21
22.728705
0
LINE
8
Image
10
59.702892
20
22.728705
11
61.204036
21
20.296672
0
LINE
8
Image
10
61.204036
20
20.296672
11
62.439314
21
17.864626
0
LINE
8
Image
10
62.439314
20
17.864626
11
63.318204
21
15.593473
0
LINE
8
Image
10
63.318204
20
15.593473
11
63.959300
21
13.020095
0
LINE
8
Image
10
63.959300
20
13.020095
11
64.403979
21
10.195973
0
LINE
8
Image
10
64.403979
20
10.195973
11
64.600575
21
7.560940
0
LINE
8
Image
10
64.600575
20
7.560940
11
64.497422
21
5.554831
0
LINE
8
Image
10
64.497422
20
5.554831
11
64.203904
21
3.876761
0
LINE
8
Image
10
64.203904
20
3.876761
11
61.309466
21
5.943178
0
LINE
8
Image
10
64.027514
20
6.724351
11
63.765690
21
10.198898
0
LINE
8
Image
10
63.765690
20
10.198898
11
63.023717
21
13.833011
0
LINE
8
Image
10
63.023717
20
13.833011
11
61.866845
21
17.379931
0
LINE
8
Image
10
61.866845
20
17.379931
11
60.360325
21
20.592895
0
LINE
8
Image
10
60.360325
20
20.592895
11
58.863095
21
22.883999
0
LINE
8
Image
10
58.863095
20
22.883999
11
56.963595
21
25.356109
0
LINE
8
Image
10
56.963595
20
25.356109
11
55.624764
21
27.012711
0
LINE
8
Image
10
55.624764
20
27.012711
11
55.296278
21
27.550145
0
LINE
8
Image
10
55.296278
20
27.550145
11
55.197919
21
27.949946
0
LINE
8
Image
10
55.197919
20
27.949946
11
55.331817
21
28.254322
0
LINE
8
Image
10
55.331817
20
28.254322
11
55.700102
21
28.505482
0
LINE
8
Image
10
55.700102
20
28.505482
11
57.148356
21
29.016991
0
LINE
8
Image
10
57.148356
20
29.016991
11
58.353877
21
29.233986
0
LINE
8
Image
10
58.353877
20
29.233986
11
60.213073
21
29.379476
0
LINE
8
Image
10
60.213073
20
29.379476
11
65.080593
21
29.463674
0
LINE
8
Image
10
65.080593
20
29.463674
11
70.127128
21
29.285050
0
LINE
8
Image
10
70.127128
20
29.285050
11
73.728889
21
28.859069
0
LINE
8
Image
10
73.728889
20
28.859069
11
76.868495
21
28.019171
0
LINE
8
Image
10
76.868495
20
28.019171
11
77.166744
21
27.952923
0
LINE
8
Image
10
77.166744
20
27.952923
11
77.340725
21
28.032840
0
LINE
8
Image
10
77.340725
20
28.032840
11
77.345861
21
28.582448
0
LINE
8
Image
10
77.345861
20
28.582448
11
76.943853
21
29.570564
0
LINE
8
Image
10
76.943853
20
29.570564
11
76.194654
21
30.899752
0
LINE
8
Image
10
76.194654
20
30.899752
11
73.894487
21
34.191614
0
LINE
8
Image
10
73.894487
20
34.191614
11
70.924976
21
37.678565
0
LINE
8
Image
10
70.924976
20
37.678565
11
69.176003
21
39.413372
0
LINE
8
Image
10
69.176003
20
39.413372
11
67.318487
21
41.043892
0
LINE
8
Image
10
67.318487
20
41.043892
11
63.421664
21
43.899522
0
LINE
8
Image
10
63.421664
20
43.899522
11
61.454273
21
45.078358
0
LINE
8
Image
10
61.454273
20
45.078358
11
59.522175
21
46.060357
0
LINE
8
Image
10
59.522175
20
46.060357
11
57.661328
21
46.822384
0
LINE
8
Image
10
57.661328
20
46.822384
11
55.907690
21
47.341300
0
LINE
8
Image
10
55.907690
20
47.341300
11
54.656090
21
47.749657
0
LINE
8
Image
10
54.656090
20
47.749657
11
54.332836
21
48.013921
0
LINE
8
Image
10
54.332836
20
48.013921
11
54.208954
21
48.354627
0
LINE
8
Image
10
54.208954
20
48.354627
11
54.552342
21
49.374521
0
LINE
8
Image
10
54.552342
20
49.374521
11
55.672314
21
51.027651
0
LINE
8
Image
10
55.672314
20
51.027651
11
56.751806
21
52.352842
0
LINE
8
Image
10
56.751806
20
52.352842
11
57.995391
21
53.630155
0
LINE
8
Image
10
57.995391
20
53.630155
11
60.869063
21
55.967102
0
LINE
8
Image
10
60.869063
20
55.967102
11
64.081776
21
57.890415
0
LINE
8
Image
10
64.081776
20
57.890415
11
65.749164
21
58.650683
0
LINE
8
Image
10
65.749164
20
58.650683
11
67.421979
21
59.252013
0
LINE
8
Image
10
67.421979
20
59.252013
11
68.767234
21
59.770553
0
LINE
8
Image
10
68.767234
20
59.770553
11
69.284252
21
60.176503
0
LINE
8
Image
10
69.284252
20
60.176503
11
68.447308
21
60.795278
0
LINE
8
Image
10
68.447308
20
60.795278
11
66.431356
21
61.672771
0
LINE
8
Image
10
66.431356
20
61.672771
11
63.689821
21
62.633762
0
LINE
8
Image
10
63.689821
20
62.633762
11
60.676129
21
63.503027
0
LINE
8
Image
10
60.676129
20
63.503027
11
55.153597
21
64.613183
0
LINE
8
Image
10
55.153597
20
64.613183
11
49.596484
21
65.156858
0
LINE
8
Image
10
49.596484
20
65.156858
11
44.085857
21
65.146584
0
LINE
8
Image
10
44.085857
20
65.146584
11
38.702783
21
64.594895
0
LINE
8
Image
10
38.702783
20
64.594895
11
33.528330
21
63.514325
0
LINE
8
Image
10
33.528330
20
63.514325
11
28.643565
21
61.917406
0
LINE
8
Image
10
28.643565
20
61.917406
11
26.335148
21
60.929233
0
LINE
8
Image
10
26.335148
20
60.929233
11
24.129555
21
59.816673
0
LINE
8
Image
10
24.129555
20
59.816673
11
22.036916
21
58.581293
0
LINE
8
Image
10
22.036916
20
58.581293
11
20.067367
21
57.224659
0
LINE
8
Image
10
20.067367
20
57.224659
11
17.696217
21
55.292180
0
LINE
8
Image
10
17.696217
20
55.292180
11
15.430597
21
53.125370
0
LINE
8
Image
10
15.430597
20
53.125370
11
13.398589
21
50.856430
0
LINE
8
Image
10
13.398589
20
50.856430
11
11.728277
21
48.617557
0
LINE
8
Image
10
11.728277
20
48.617557
11
10.873803
21
47.278370
0
LINE
8
Image
10
10.873803
20
47.278370
11
10.494168
21
46.460700
0
LINE
8
Image
10
10.494168
20
46.460700
11
10.533151
21
45.944379
0
LINE
8
Image
10
10.533151
20
45.944379
11
10.934528
21
45.509239
0
LINE
8
Image
10
10.934528
20
45.509239
11
11.308252
21
45.092075
0
LINE
8
Image
10
11.308252
20
45.092075
11
11.463694
21
44.705812
0
LINE
8
Image
10
11.463694
20
44.705812
11
11.282344
21
44.610706
0
LINE
8
Image
10
11.282344
20
44.610706
11
10.846334
21
44.893557
0
LINE
8
Image
10
10.846334
20
44.893557
11
10.190460
21
45.367720
0
LINE
8
Image
10
10.190460
20
45.367720
11
9.565405
21
45.598347
0
LINE
8
Image
10
9.565405
20
45.598347
11
8.979288
21
45.591043
0
LINE
8
Image
10
8.979288
20
45.591043
11
8.440227
21
45.351411
0
LINE
8
Image
10
8.440227
20
45.351411
11
7.956342
21
44.885053
0
LINE
8
Image
10
7.956342
20
44.885053
11
7.535751
21
44.197574
0
LINE
8
Image
10
7.535751
20
44.197574
11
6.916927
21
42.181662
0
LINE
8
Image
10
6.916927
20
42.181662
11
6.816984
21
40.938798
0
LINE
8
Image
10
6.816984
20
40.938798
11
6.864403
21
39.285639
0
LINE
8
Image
10
6.864403
20
39.285639
11
7.291099
21
35.458588
0
LINE
8
Image
10
7.291099
20
35.458588
11
7.976551
21
32.120805
0
LINE
8
Image
10
7.976551
20
32.120805
11
8.347416
21
31.079233
0
LINE
8
Image
10
8.347416
20
31.079233
11
8.700296
21
30.692589
0
LINE
8
Image
10
8.700296
20
30.692589
11
8.881497
21
30.782900
0
LINE
8
Image
10
8.881497
20
30.782900
11
8.845887
21
31.000027
0
LINE
8
Image
10
8.845887
20
31.000027
11
8.546148
21
32.276670
0
LINE
8
Image
10
8.546148
20
32.276670
11
8.324230
21
34.586395
0
LINE
8
Image
10
8.324230
20
34.586395
11
8.226169
21
37.218243
0
LINE
8
Image
10
8.226169
20
37.218243
11
8.298001
21
39.461256
0
LINE
8
Image
10
8.298001
20
39.461256
11
8.533389
21
41.117899
0
LINE
8
Image
10
8.533389
20
41.117899
11
8.881528
21
42.110070
0
LINE
8
Image
10
8.881528
20
42.110070
11
9.377761
21
42.495433
0
LINE
8
Image
10
9.377761
20
42.495433
11
10.057433
21
42.331646
0
LINE
8
Image
10
10.057433
20
42.331646
11
11.213177
21
40.615675
0
LINE
8
Image
10
11.213177
20
40.615675
11
13.188606
21
36.919937
0
LINE
8
Image
10
13.188606
20
36.919937
11
15.202888
21
33.126898
0
LINE
8
Image
10
15.202888
20
33.126898
11
16.452048
21
31.176985
0
LINE
8
Image
10
16.452048
20
31.176985
11
16.858509
21
30.848980
0
LINE
8
Image
10
16.858509
20
30.848980
11
17.195123
21
30.725600
0
LINE
8
Image
10
17.195123
20
30.725600
11
18.102377
21
31.061744
0
LINE
8
Image
10
18.102377
20
31.061744
11
18.855904
21
31.847363
0
LINE
8
Image
10
18.855904
20
31.847363
11
19.594129
21
33.413001
0
LINE
8
Image
10
19.594129
20
33.413001
11
20.351649
21
35.851262
0
LINE
8
Image
10
20.351649
20
35.851262
11
21.163056
21
39.254752
0
LINE
8
Image
10
21.163056
20
39.254752
11
21.825385
21
41.659667
0
LINE
8
Image
10
21.825385
20
41.659667
11
22.702590
21
43.795593
0
LINE
8
Image
10
22.702590
20
43.795593
11
23.779575
21
45.646909
0
LINE
8
Image
10
23.779575
20
45.646909
11
25.041241
21
47.197994
0
LINE
8
Image
10
25.041241
20
47.197994
11
26.472492
21
48.433227
0
LINE
8
Image
10
26.472492
20
48.433227
11
28.058229
21
49.336985
0
LINE
8
Image
10
28.058229
20
49.336985
11
29.783354
21
49.893649
0
LINE
8
Image
10
29.783354
20
49.893649
11
31.632771
21
50.087596
0
LINE
8
Image
10
31.632771
20
50.087596
11
32.726125
21
50.051026
0
LINE
8
Image
10
32.726125
20
50.051026
11
33.548345
21
49.889244
0
LINE
8
Image
10
33.548345
20
49.889244
11
34.292479
21
49.539168
0
LINE
8
Image
10
34.292479
20
49.539168
11
35.151571
21
48.937712
0
LINE
8
Image
10
35.151571
20
48.937712
11
36.312761
21
47.936344
0
LINE
8
Image
10
36.312761
20
47.936344
11
37.315416
21
46.819334
0
LINE
8
Image
10
37.315416
20
46.819334
11
38.164513
21
45.575143
0
LINE
8
Image
10
38.164513
20
45.575143
11
38.865028
21
44.192229
0
LINE
8
Image
10
38.865028
20
44.192229
11
39.421936
21
42.659056
0
LINE
8
Image
10
39.421936
20
42.659056
11
39.840213
21
40.964083
0
LINE
8
Image
10
39.840213
20
40.964083
11
40.280777
21
37.042581
0
LINE
8
Image
10
40.280777
20
37.042581
11
40.280468
21
33.752589
0
LINE
8
Image
10
40.280468
20
33.752589
11
39.916219
21
31.398619
0
LINE
8
Image
10
39.916219
20
31.398619
11
39.489486
21
29.360279
0
LINE
8
Image
10
39.489486
20
29.360279
11
40.488872
21
29.604240
0
LINE
8
Image
10
40.488872
20
29.604240
11
41.573134
21
29.774356
0
LINE
8
Image
10
41.573134
20
29.774356
11
42.746344
21
29.546255
0
LINE
8
Image
10
42.746344
20
29.546255
11
43.901380
21
28.957520
0
LINE
8
Image
10
43.901380
20
28.957520
11
44.931117
21
28.045735
0
LINE
8
Image
10
44.931117
20
28.045735
11
45.524203
21
27.241614
0
LINE
8
Image
10
45.524203
20
27.241614
11
45.956666
21
26.369683
0
LINE
8
Image
10
45.956666
20
26.369683
11
46.228207
21
25.440059
0
LINE
8
Image
10
46.228207
20
25.440059
11
46.338526
21
24.462862
0
LINE
8
Image
10
46.338526
20
24.462862
11
46.287321
21
23.448210
0
LINE
8
Image
10
46.287321
20
23.448210
11
46.074293
21
22.406223
0
LINE
8
Image
10
46.074293
20
22.406223
11
45.161566
21
20.280714
0
LINE
8
Image
10
45.161566
20
20.280714
11
44.027058
21
18.752033
0
LINE
8
Image
10
44.027058
20
18.752033
11
42.412616
21
17.063809
0
LINE
8
Image
10
42.412616
20
17.063809
11
40.679041
21
15.560030
0
LINE
8
Image
10
40.679041
20
15.560030
11
39.187134
21
14.584684
0
LINE
8
Image
10
39.187134
20
14.584684
11
38.293629
21
14.085267
0
LINE
8
Image
10
38.293629
20
14.085267
11
37.921993
21
13.731737
0
LINE
8
Image
10
37.921993
20
13.731737
11
39.191440
21
13.552091
0
LINE
8
Image
10
39.191440
20
13.552091
11
42.243515
21
13.470736
0
LINE
8
Image
10
42.243515
20
13.470736
11
45.735225
21
13.294621
0
LINE
8
Image
10
45.735225
20
13.294621
11
48.939948
21
12.754992
0
LINE
8
Image
10
48.939948
20
12.754992
11
52.053294
21
11.805757
0
LINE
8
Image
10
52.053294
20
11.805757
11
55.270875
21
10.400820
0
LINE
8
Image
10
55.270875
20
10.400820
11
59.875194
21
7.750728
0
LINE
8
Image
10
59.875194
20
7.750728
11
61.849189
21
6.411906
0
LINE
8
Image
10
61.849189
20
6.411906
11
62.966174
21
5.472636
0
LINE
8
Image
10
62.966174
20
5.472636
11
63.457005
21
5.018324
0
LINE
8
Image
10
63.457005
20
5.018324
11
63.785730
21
5.061618
0
LINE
8
Image
10
63.785730
20
5.061618
11
63.970012
21
5.623350
0
LINE
8
Image
10
63.970012
20
5.623350
11
64.027514
21
6.724351
0
LINE
8
Image
10
64.027514
20
6.724351
11
64.027514
21
6.724351
0
LINE
8
Image
10
48.421464
20
50.083387
11
48.446681
21
52.600468
0
LINE
8
Image
10
48.446681
20
52.600468
11
48.227750
21
54.959675
0
LINE
8
Image
10
48.227750
20
54.959675
11
47.766252
21
57.150431
0
LINE
8
Image
10
47.766252
20
57.150431
11
47.063770
21
59.162159
0
LINE
8
Image
10
47.063770
20
59.162159
11
46.372139
21
60.775669
0
LINE
8
Image
10
46.372139
20
60.775669
11
44.490944
21
60.581512
0
LINE
8
Image
10
44.490944
20
60.581512
11
42.678952
21
60.186796
0
LINE
8
Image
10
42.678952
20
60.186796
11
40.648068
21
59.360461
0
LINE
8
Image
10
40.648068
20
59.360461
11
38.423228
21
58.114650
0
LINE
8
Image
10
38.423228
20
58.114650
11
36.029368
21
56.461505
0
LINE
8
Image
10
36.029368
20
56.461505
11
34.253167
21
55.246396
0
LINE
8
Image
10
34.253167
20
55.246396
11
33.383538
21
54.875877
0
LINE
8
Image
10
33.383538
20
54.875877
11
33.795266
21
55.545414
0
LINE
8
Image
10
33.795266
20
55.545414
11
35.099774
21
56.830863
0
LINE
8
Image
10
35.099774
20
56.830863
11
36.635275
21
58.047668
0
LINE
8
Image
10
36.635275
20
58.047668
11
38.304319
21
59.116312
0
LINE
8
Image
10
38.304319
20
59.116312
11
40.028176
21
60.009350
0
LINE
8
Image
10
40.028176
20
60.009350
11
41.728116
21
60.699334
0
LINE
8
Image
10
41.728116
20
60.699334
11
43.325406
21
61.158817
0
LINE
8
Image
10
43.325406
20
61.158817
11
44.741318
21
61.360353
0
LINE
8
Image
10
44.741318
20
61.360353
11
45.897120
21
61.276496
0
LINE
8
Image
10
45.897120
20
61.276496
11
46.714081
21
60.879797
0
LINE
8
Image
10
46.714081
20
60.879797
11
47.307954
21
60.115347
0
LINE
8
Image
10
47.307954
20
60.115347
11
47.874107
21
58.973742
0
LINE
8
Image
10
47.874107
20
58.973742
11
48.828859
21
55.955080
0
LINE
8
Image
10
48.828859
20
55.955080
11
49.389552
21
52.615844
0
LINE
8
Image
10
49.389552
20
52.615844
11
49.463131
21
51.073520
0
LINE
8
Image
10
49.463131
20
51.073520
11
49.367402
21
49.748063
0
LINE
8
Image
10
49.367402
20
49.748063
11
48.932485
21
47.476000
0
LINE
8
Image
10
48.932485
20
47.476000
11
48.748561
21
47.040351
0
LINE
8
Image
10
48.748561
20
47.040351
11
48.542882
21
46.920348
0
LINE
8
Image
10
48.542882
20
46.920348
11
48.382737
21
47.849491
0
LINE
8
Image
10
48.382737
20
47.849491
11
48.421464
21
50.083387
0
LINE
8
Image
10
48.421464
20
50.083387
11
48.421464
21
50.083387
0
LINE
8
Image
10
45.170015
20
49.363761
11
44.234282
21
50.188516
0
LINE
8
Image
10
44.234282
20
50.188516
11
42.501920
21
51.307484
0
LINE
8
Image
10
42.501920
20
51.307484
11
40.535255
21
52.386521
0
LINE
8
Image
10
40.535255
20
52.386521
11
38.896619
21
53.091484
0
LINE
8
Image
10
38.896619
20
53.091484
11
36.510882
21
53.856618
0
LINE
8
Image
10
36.510882
20
53.856618
11
36.357043
21
53.976338
0
LINE
8
Image
10
36.357043
20
53.976338
11
36.358833
21
54.168637
0
LINE
8
Image
10
36.358833
20
54.168637
11
36.766708
21
54.729957
0
LINE
8
Image
10
36.766708
20
54.729957
11
38.761503
21
56.272368
0
LINE
8
Image
10
38.761503
20
56.272368
11
41.493807
21
57.827601
0
LINE
8
Image
10
41.493807
20
57.827601
11
42.823569
21
58.404947
0
LINE
8
Image
10
42.823569
20
58.404947
11
43.962161
21
58.739404
0
LINE
8
Image
10
43.962161
20
58.739404
11
44.681781
21
58.843878
0
LINE
8
Image
10
44.681781
20
58.843878
11
45.114854
21
58.771382
0
LINE
8
Image
10
45.114854
20
58.771382
11
45.394803
21
58.447803
0
LINE
8
Image
10
45.394803
20
58.447803
11
45.655048
21
57.799025
0
LINE
8
Image
10
45.655048
20
57.799025
11
46.016403
21
56.414270
0
LINE
8
Image
10
46.016403
20
56.414270
11
46.239658
21
54.818991
0
LINE
8
Image
10
46.239658
20
54.818991
11
46.306936
21
51.606678
0
LINE
8
Image
10
46.306936
20
51.606678
11
46.168491
21
50.294553
0
LINE
8
Image
10
46.168491
20
50.294553
11
45.927011
21
49.381722
0
LINE
8
Image
10
45.927011
20
49.381722
11
45.591264
21
49.020640
0
LINE
8
Image
10
45.591264
20
49.020640
11
45.170015
21
49.363761
0
LINE
8
Image
10
45.170015
20
49.363761
11
45.170015
21
49.363761
0
LINE
8
Image
10
45.657779
20
53.270340
11
45.535494
21
55.351898
0
LINE
8
Image
10
45.535494
20
55.351898
11
45.203595
21
56.837167
0
LINE
8
Image
10
45.203595
20
56.837167
11
44.669448
21
57.706114
0
LINE
8
Image
10
44.669448
20
57.706114
11
44.328834
21
57.903207
0
LINE
8
Image
10
44.328834
20
57.903207
11
43.940421
21
57.938707
0
LINE
8
Image
10
43.940421
20
57.938707
11
43.048221
21
57.719731
0
LINE
8
Image
10
43.048221
20
57.719731
11
41.945765
21
57.280808
0
LINE
8
Image
10
41.945765
20
57.280808
11
39.615846
21
56.050284
0
LINE
8
Image
10
39.615846
20
56.050284
11
37.962186
21
54.861463
0
LINE
8
Image
10
37.962186
20
54.861463
11
37.705054
21
54.474668
0
LINE
8
Image
10
37.705054
20
54.474668
11
37.996307
21
54.328672
0
LINE
8
Image
10
37.996307
20
54.328672
11
39.227020
21
53.940946
0
LINE
8
Image
10
39.227020
20
53.940946
11
41.128829
21
53.016139
0
LINE
8
Image
10
41.128829
20
53.016139
11
43.031364
21
51.911809
0
LINE
8
Image
10
43.031364
20
51.911809
11
44.264254
21
50.985514
0
LINE
8
Image
10
44.264254
20
50.985514
11
44.952145
21
50.427808
0
LINE
8
Image
10
44.952145
20
50.427808
11
45.197115
21
50.408069
0
LINE
8
Image
10
45.197115
20
50.408069
11
45.383621
21
50.573400
0
LINE
8
Image
10
45.383621
20
50.573400
11
45.603795
21
51.496256
0
LINE
8
Image
10
45.603795
20
51.496256
11
45.657779
21
53.270340
0
LINE
8
Image
10
45.657779
20
53.270340
11
45.657779
21
53.270340
0
LINE
8
Image
10
34.217831
20
13.297937
11
36.626027
21
14.229361
0
LINE
8
Image
10
36.626027
20
14.229361
11
38.828867
21
15.412277
0
LINE
8
Image
10
38.828867
20
15.412277
11
40.781585
21
16.798680
0
LINE
8
Image
10
40.781585
20
16.798680
11
42.439418
21
18.340570
0
LINE
8
Image
10
42.439418
20
18.340570
11
43.757600
21
19.989943
0
LINE
8
Image
10
43.757600
20
19.989943
11
44.691368
21
21.698798
0
LINE
8
Image
10
44.691368
20
21.698798
11
45.195955
21
23.419132
0
LINE
8
Image
10
45.195955
20
23.419132
11
45.226598
21
25.102943
0
LINE
8
Image
10
45.226598
20
25.102943
11
44.896439
21
26.428329
0
LINE
8
Image
10
44.896439
20
26.428329
11
44.307199
21
27.488175
0
LINE
8
Image
10
44.307199
20
27.488175
11
43.477162
21
28.258902
0
LINE
8
Image
10
43.477162
20
28.258902
11
42.424606
21
28.716932
0
LINE
8
Image
10
42.424606
20
28.716932
11
41.691664
21
28.842931
0
LINE
8
Image
10
41.691664
20
28.842931
11
41.005831
21
28.762004
0
LINE
8
Image
10
41.005831
20
28.762004
11
38.930637
21
27.744153
0
LINE
8
Image
10
38.930637
20
27.744153
11
33.712859
21
24.970823
0
LINE
8
Image
10
33.712859
20
24.970823
11
32.014211
21
24.164758
0
LINE
8
Image
10
32.014211
20
24.164758
11
30.702924
21
23.700945
0
LINE
8
Image
10
30.702924
20
23.700945
11
29.353204
21
23.467874
0
LINE
8
Image
10
29.353204
20
23.467874
11
27.539256
21
23.354036
0
LINE
8
Image
10
27.539256
20
23.354036
11
25.730651
21
23.311813
0
LINE
8
Image
10
25.730651
20
23.311813
11
24.417807
21
23.412781
0
LINE
8
Image
10
24.417807
20
23.412781
11
23.189741
21
23.723536
0
LINE
8
Image
10
23.189741
20
23.723536
11
21.635469
21
24.310670
0
LINE
8
Image
10
21.635469
20
24.310670
11
19.222126
21
25.106783
0
LINE
8
Image
10
19.222126
20
25.106783
11
17.305814
21
25.400929
0
LINE
8
Image
10
17.305814
20
25.400929
11
15.680757
21
25.400929
0
LINE
8
Image
10
15.680757
20
25.400929
11
16.227428
21
24.566604
0
LINE
8
Image
10
16.227428
20
24.566604
11
16.587808
21
23.626614
0
LINE
8
Image
10
16.587808
20
23.626614
11
16.444802
21
22.779495
0
LINE
8
Image
10
16.444802
20
22.779495
11
15.842535
21
22.114763
0
LINE
8
Image
10
15.842535
20
22.114763
11
14.825133
21
21.721929
0
LINE
8
Image
10
14.825133
20
21.721929
11
13.721502
21
21.617262
0
LINE
8
Image
10
13.721502
20
21.617262
11
12.859383
21
21.701662
0
LINE
8
Image
10
12.859383
20
21.701662
11
12.317716
21
21.728406
0
LINE
8
Image
10
12.317716
20
21.728406
11
12.194035
21
21.354442
0
LINE
8
Image
10
12.194035
20
21.354442
11
12.483124
21
20.614882
0
LINE
8
Image
10
12.483124
20
20.614882
11
13.179768
21
19.544840
0
LINE
8
Image
10
13.179768
20
19.544840
11
14.697526
21
17.774938
0
LINE
8
Image
10
14.697526
20
17.774938
11
16.465498
21
16.319294
0
LINE
8
Image
10
16.465498
20
16.319294
11
18.620911
21
15.083779
0
LINE
8
Image
10
18.620911
20
15.083779
11
21.300994
21
13.974264
0
LINE
8
Image
10
21.300994
20
13.974264
11
24.706239
21
13.005318
0
LINE
8
Image
10
24.706239
20
13.005318
11
28.039330
21
12.567248
0
LINE
8
Image
10
28.039330
20
12.567248
11
31.232463
21
12.663604
0
LINE
8
Image
10
31.232463
20
12.663604
11
34.217831
21
13.297937
0
LINE
8
Image
10
34.217831
20
13.297937
11
34.217831
21
13.297937
0
LINE
8
Image
10
29.519838
20
17.921597
11
29.451466
21
18.075245
0
LINE
8
Image
10
29.451466
20
18.075245
11
29.712853
21
18.217187
0
LINE
8
Image
10
29.712853
20
18.217187
11
31.228385
21
18.467066
0
LINE
8
Image
10
31.228385
20
18.467066
11
33.835790
21
19.006571
0
LINE
8
Image
10
33.835790
20
19.006571
11
34.958929
21
19.450752
0
LINE
8
Image
10
34.958929
20
19.450752
11
35.950527
21
20.003889
0
LINE
8
Image
10
35.950527
20
20.003889
11
36.802207
21
20.660487
0
LINE
8
Image
10
36.802207
20
20.660487
11
37.505593
21
21.415048
0
LINE
8
Image
10
37.505593
20
21.415048
11
38.052311
21
22.262075
0
LINE
8
Image
10
38.052311
20
22.262075
11
38.433985
21
23.196072
0
LINE
8
Image
10
38.433985
20
23.196072
11
38.483813
21
23.836653
0
LINE
8
Image
10
38.483813
20
23.836653
11
37.924946
21
23.989821
0
LINE
8
Image
10
37.924946
20
23.989821
11
37.459199
21
24.093449
0
LINE
8
Image
10
37.459199
20
24.093449
11
37.392827
21
24.342597
0
LINE
8
Image
10
37.392827
20
24.342597
11
37.942687
21
24.698221
0
LINE
8
Image
10
37.942687
20
24.698221
11
38.776694
21
24.663855
0
LINE
8
Image
10
38.776694
20
24.663855
11
39.718065
21
24.281041
0
LINE
8
Image
10
39.718065
20
24.281041
11
40.590014
21
23.591319
0
LINE
8
Image
10
40.590014
20
23.591319
11
41.343363
21
22.718282
0
LINE
8
Image
10
41.343363
20
22.718282
11
40.761072
21
22.936355
0
LINE
8
Image
10
40.761072
20
22.936355
11
40.049488
21
23.200538
0
LINE
8
Image
10
40.049488
20
23.200538
11
39.864427
21
23.143865
0
LINE
8
Image
10
39.864427
20
23.143865
11
39.754953
21
22.962337
0
LINE
8
Image
10
39.754953
20
22.962337
11
39.166803
21
21.915341
0
LINE
8
Image
10
39.166803
20
21.915341
11
38.147527
21
20.706234
0
LINE
8
Image
10
38.147527
20
20.706234
11
36.930069
21
19.578397
0
LINE
8
Image
10
36.930069
20
19.578397
11
35.747375
21
18.775213
0
LINE
8
Image
10
35.747375
20
18.775213
11
34.152771
21
18.187200
0
LINE
8
Image
10
34.152771
20
18.187200
11
32.280837
21
17.807468
0
LINE
8
Image
10
32.280837
20
17.807468
11
30.585287
21
17.698207
0
LINE
8
Image
10
30.585287
20
17.698207
11
29.519838
21
17.921607
0
LINE
8
Image
10
29.519838
20
17.921607
11
29.519838
21
17.921597
0
LINE
8
Image
10
13.573716
20
24.331027
11
13.818529
21
24.537383
0
LINE
8
Image
10
13.818529
20
24.537383
11
13.872117
21
24.778287
0
LINE
8
Image
10
13.872117
20
24.778287
11
13.359255
21
25.648539
0
LINE
8
Image
10
13.359255
20
25.648539
11
12.936121
21
26.133781
0
LINE
8
Image
10
12.936121
20
26.133781
11
12.494807
21
26.436322
0
LINE
8
Image
10
12.494807
20
26.436322
11
11.254065
21
26.635651
0
LINE
8
Image
10
11.254065
20
26.635651
11
10.272051
21
26.493681
0
LINE
8
Image
10
10.272051
20
26.493681
11
9.786305
21
26.097184
0
LINE
8
Image
10
9.786305
20
26.097184
11
9.816841
21
25.490273
0
LINE
8
Image
10
9.816841
20
25.490273
11
10.383672
21
24.717064
0
LINE
8
Image
10
10.383672
20
24.717064
11
11.078551
21
24.256229
0
LINE
8
Image
10
11.078551
20
24.256229
11
11.931034
21
24.027485
0
LINE
8
Image
10
11.931034
20
24.027485
11
12.807346
21
24.047022
0
LINE
8
Image
10
12.807346
20
24.047022
11
13.573716
21
24.331027
0
LINE
8
Image
10
13.573716
20
24.331027
11
13.573716
21
24.331027
0
LINE
8
Image
10
31.790571
20
25.210006
11
33.578794
21
25.914312
0
LINE
8
Image
10
33.578794
20
25.914312
11
35.066938
21
26.649614
0
LINE
8
Image
10
35.066938
20
26.649614
11
36.285153
21
27.449119
0
LINE
8
Image
10
36.285153
20
27.449119
11
37.263587
21
28.346033
0
LINE
8
Image
10
37.263587
20
28.346033
11
38.032389
21
29.373564
0
LINE
8
Image
10
38.032389
20
29.373564
11
38.621708
21
30.564918
0
LINE
8
Image
10
38.621708
20
30.564918
11
39.061695
21
31.953304
0
LINE
8
Image
10
39.061695
20
31.953304
11
39.382497
21
33.571927
0
LINE
8
Image
10
39.382497
20
33.571927
11
39.612322
21
36.321357
0
LINE
8
Image
10
39.612322
20
36.321357
11
39.220702
21
39.371523
0
LINE
8
Image
10
39.220702
20
39.371523
11
38.478161
21
42.299739
0
LINE
8
Image
10
38.478161
20
42.299739
11
37.428708
21
44.974705
0
LINE
8
Image
10
37.428708
20
44.974705
11
36.215167
21
47.093850
0
LINE
8
Image
10
36.215167
20
47.093850
11
35.591497
21
47.850435
0
LINE
8
Image
10
35.591497
20
47.850435
11
34.980365
21
48.354600
0
LINE
8
Image
10
34.980365
20
48.354600
11
33.938044
21
48.869509
0
LINE
8
Image
10
33.938044
20
48.869509
11
32.851044
21
49.175430
0
LINE
8
Image
10
32.851044
20
49.175430
11
31.729998
21
49.274283
0
LINE
8
Image
10
31.729998
20
49.274283
11
30.585542
21
49.167990
0
LINE
8
Image
10
30.585542
20
49.167990
11
29.428310
21
48.858471
0
LINE
8
Image
10
29.428310
20
48.858471
11
28.268936
21
48.347649
0
LINE
8
Image
10
28.268936
20
48.347649
11
27.118056
21
47.637444
0
LINE
8
Image
10
27.118056
20
47.637444
11
25.986304
21
46.729776
0
LINE
8
Image
10
25.986304
20
46.729776
11
24.539437
21
45.088601
0
LINE
8
Image
10
24.539437
20
45.088601
11
23.320254
21
42.922218
0
LINE
8
Image
10
23.320254
20
42.922218
11
22.271824
21
40.105524
0
LINE
8
Image
10
22.271824
20
40.105524
11
21.337218
21
36.513415
0
LINE
8
Image
10
21.337218
20
36.513415
11
20.196408
21
32.280087
0
LINE
8
Image
10
20.196408
20
32.280087
11
19.629438
21
31.375789
0
LINE
8
Image
10
19.629438
20
31.375789
11
18.953440
21
30.648220
0
LINE
8
Image
10
18.953440
20
30.648220
11
18.243775
21
30.163323
0
LINE
8
Image
10
18.243775
20
30.163323
11
17.575803
21
29.987036
0
LINE
8
Image
10
17.575803
20
29.987036
11
16.950477
21
29.826100
0
LINE
8
Image
10
16.950477
20
29.826100
11
16.755354
21
29.310334
0
LINE
8
Image
10
16.755354
20
29.310334
11
16.559454
21
28.145364
0
LINE
8
Image
10
16.559454
20
28.145364
11
16.329908
21
27.788663
0
LINE
8
Image
10
16.329908
20
27.788663
11
16.026256
21
27.587423
0
LINE
8
Image
10
16.026256
20
27.587423
11
15.658719
21
27.545349
0
LINE
8
Image
10
15.658719
20
27.545349
11
15.237515
21
27.666147
0
LINE
8
Image
10
15.237515
20
27.666147
11
14.274983
21
28.411172
0
LINE
8
Image
10
14.274983
20
28.411172
11
13.839084
21
28.984932
0
LINE
8
Image
10
13.839084
20
28.984932
11
13.549950
21
29.711847
0
LINE
8
Image
10
13.549950
20
29.711847
11
13.209302
21
32.379917
0
LINE
8
Image
10
13.209302
20
32.379917
11
13.041455
21
34.087370
0
LINE
8
Image
10
13.041455
20
34.087370
11
12.768565
21
35.411406
0
LINE
8
Image
10
12.768565
20
35.411406
11
12.292341
21
36.694044
0
LINE
8
Image
10
12.292341
20
36.694044
11
11.514493
21
38.277303
0
LINE
8
Image
10
11.514493
20
38.277303
11
10.349759
21
40.270493
0
LINE
8
Image
10
10.349759
20
40.270493
11
9.611732
21
41.099520
0
LINE
8
Image
10
9.611732
20
41.099520
11
9.267947
21
40.849105
0
LINE
8
Image
10
9.267947
20
40.849105
11
9.000717
21
40.156533
0
LINE
8
Image
10
9.000717
20
40.156533
11
8.710772
21
37.796943
0
LINE
8
Image
10
8.710772
20
37.796943
11
8.771594
21
34.724805
0
LINE
8
Image
10
8.771594
20
34.724805
11
9.212884
21
31.644173
0
LINE
8
Image
10
9.212884
20
31.644173
11
9.686275
21
29.726882
0
LINE
8
Image
10
9.686275
20
29.726882
11
10.104476
21
28.577153
0
LINE
8
Image
10
10.104476
20
28.577153
11
10.558005
21
28.017484
0
LINE
8
Image
10
10.558005
20
28.017484
11
11.137383
21
27.870372
0
LINE
8
Image
10
11.137383
20
27.870372
11
12.043097
21
27.663116
0
LINE
8
Image
10
12.043097
20
27.663116
11
13.227581
21
27.164817
0
LINE
8
Image
10
13.227581
20
27.164817
11
14.744563
21
26.644785
0
LINE
8
Image
10
14.744563
20
26.644785
11
16.503121
21
26.459261
0
LINE
8
Image
10
16.503121
20
26.459261
11
18.598667
21
26.206889
0
LINE
8
Image
10
18.598667
20
26.206889
11
21.015086
21
25.555610
0
LINE
8
Image
10
21.015086
20
25.555610
11
24.245435
21
24.572190
0
LINE
8
Image
10
24.245435
20
24.572190
11
26.778338
21
24.197680
0
LINE
8
Image
10
26.778338
20
24.197680
11
29.123486
21
24.415735
0
LINE
8
Image
10
29.123486
20
24.415735
11
31.790571
21
25.210006
0
LINE
8
Image
10
31.790571
20
25.210006
11
31.790571
21
25.210006
0
LINE
8
Image
10
32.347777
20
29.747935
11
31.298206
21
31.128099
0
LINE
8
Image
10
31.298206
20
31.128099
11
30.569263
21
32.707622
0
LINE
8
Image
10
30.569263
20
32.707622
11
30.116264
21
34.618459
0
LINE
8
Image
10
30.116264
20
34.618459
11
29.894524
21
36.992565
0
LINE
8
Image
10
29.894524
20
36.992565
11
29.870959
21
39.417307
0
LINE
8
Image
10
29.870959
20
39.417307
11
30.067825
21
41.076830
0
LINE
8
Image
10
30.067825
20
41.076830
11
30.499193
21
42.029639
0
LINE
8
Image
10
30.499193
20
42.029639
11
30.807212
21
42.259310
0
LINE
8
Image
10
30.807212
20
42.259310
11
31.179133
21
42.334241
0
LINE
8
Image
10
31.179133
20
42.334241
11
31.849221
21
42.130838
0
LINE
8
Image
10
31.849221
20
42.130838
11
32.495963
21
41.555335
0
LINE
8
Image
10
32.495963
20
41.555335
11
33.099019
21
40.659792
0
LINE
8
Image
10
33.099019
20
40.659792
11
33.638044
21
39.496268
0
LINE
8
Image
10
33.638044
20
39.496268
11
34.442636
21
36.573514
0
LINE
8
Image
10
34.442636
20
36.573514
11
34.667517
21
34.918404
0
LINE
8
Image
10
34.667517
20
34.918404
11
34.746997
21
33.203551
0
LINE
8
Image
10
34.746997
20
33.203551
11
34.569259
21
30.959044
0
LINE
8
Image
10
34.569259
20
30.959044
11
34.073092
21
29.581576
0
LINE
8
Image
10
34.073092
20
29.581576
11
33.722966
21
29.242996
0
LINE
8
Image
10
33.722966
20
29.242996
11
33.314074
21
29.151192
0
LINE
8
Image
10
33.314074
20
29.151192
11
32.853362
21
29.316170
0
LINE
8
Image
10
32.853362
20
29.316170
11
32.347777
21
29.747935
0
LINE
8
Image
10
32.347777
20
29.747935
11
32.347777
21
29.747935
0
LINE
8
Image
10
33.121754
20
35.483936
11
33.342147
21
36.576552
0
LINE
8
Image
10
33.342147
20
36.576552
11
33.316464
21
37.847755
0
LINE
8
Image
10
33.316464
20
37.847755
11
33.072363
21
39.044543
0
LINE
8
Image
10
33.072363
20
39.044543
11
32.637498
21
39.913913
0
LINE
8
Image
10
32.637498
20
39.913913
11
32.099892
21
40.388762
0
LINE
8
Image
10
32.099892
20
40.388762
11
31.680306
21
40.342147
0
LINE
8
Image
10
31.680306
20
40.342147
11
31.343366
21
39.743914
0
LINE
8
Image
10
31.343366
20
39.743914
11
31.053697
21
38.563910
0
LINE
8
Image
10
31.053697
20
38.563910
11
31.005358
21
37.772066
0
LINE
8
Image
10
31.005358
20
37.772066
11
31.123573
21
36.978983
0
LINE
8
Image
10
31.123573
20
36.978983
11
31.701895
21
35.624064
0
LINE
8
Image
10
31.701895
20
35.624064
11
32.083120
21
35.179708
0
LINE
8
Image
10
32.083120
20
35.179708
11
32.473132
21
34.969075
0
LINE
8
Image
10
32.473132
20
34.969075
11
32.832491
21
35.050904
0
LINE
8
Image
10
32.832491
20
35.050904
11
33.121754
21
35.483936
0
LINE
8
Image
10
33.121754
20
35.483936
11
33.121754
21
35.483936
0
LINE
8
Image
10
15.697022
20
30.649394
11
15.574152
21
31.384803
0
LINE
8
Image
10
15.574152
20
31.384803
11
15.271119
21
31.978675
0
LINE
8
Image
10
15.271119
20
31.978675
11
14.886292
21
32.300116
0
LINE
8
Image
10
14.886292
20
32.300116
11
14.518037
21
32.218231
0
LINE
8
Image
10
14.518037
20
32.218231
11
14.348161
21
31.766222
0
LINE
8
Image
10
14.348161
20
31.766222
11
14.292281
21
31.044133
0
LINE
8
Image
10
14.292281
20
31.044133
11
14.350044
21
30.321896
0
LINE
8
Image
10
14.350044
20
30.321896
11
14.521098
21
29.869443
0
LINE
8
Image
10
14.521098
20
29.869443
11
14.946972
21
29.614930
0
LINE
8
Image
10
14.946972
20
29.614930
11
15.324292
21
29.686200
0
LINE
8
Image
10
15.324292
20
29.686200
11
15.593996
21
30.044080
0
LINE
8
Image
10
15.593996
20
30.044080
11
15.697023
21
30.649394
0
LINE
8
Image
10
15.697023
20
30.649394
11
15.697022
21
30.649394
0
LINE
8
Image
10
8.611216
20
46.567571
11
9.172434
21
47.111620
0
LINE
8
Image
10
9.172434
20
47.111620
11
10.068848
21
48.419652
0
LINE
8
Image
10
10.068848
20
48.419652
11
12.568548
21
51.908189
0
LINE
8
Image
10
12.568548
20
51.908189
11
13.933135
21
53.743688
0
LINE
8
Image
10
13.933135
20
53.743688
11
13.642592
21
54.006033
0
LINE
8
Image
10
13.642592
20
54.006033
11
12.859306
21
54.291153
0
LINE
8
Image
10
12.859306
20
54.291153
11
10.344581
21
54.839745
0
LINE
8
Image
10
10.344581
20
54.839745
11
7.449100
21
55.209510
0
LINE
8
Image
10
7.449100
20
55.209510
11
5.233006
21
55.220494
0
LINE
8
Image
10
5.233006
20
55.220494
11
3.612127
21
54.977429
0
LINE
8
Image
10
3.612127
20
54.977429
11
3.835975
21
53.072838
0
LINE
8
Image
10
3.835975
20
53.072838
11
4.151726
21
51.375769
0
LINE
8
Image
10
4.151726
20
51.375769
11
4.686674
21
49.561036
0
LINE
8
Image
10
4.686674
20
49.561036
11
5.378792
21
47.808936
0
LINE
8
Image
10
5.378792
20
47.808936
11
6.166053
21
46.299763
0
LINE
8
Image
10
6.166053
20
46.299763
11
6.871140
21
45.150013
0
LINE
8
Image
10
6.871140
20
45.150013
11
7.579919
21
45.858792
0
LINE
8
Image
10
7.579919
20
45.858792
11
8.175234
21
46.359367
0
LINE
8
Image
10
8.175234
20
46.359367
11
8.611216
21
46.567571
0
LINE
8
Image
10
8.611216
20
46.567571
11
8.611216
21
46.567571
 0 
ENDSEC
 0 
EOF