999
"DXF R12 Output" (www.mydxf.blogspot.com)
 0 
SECTION
 2 
HEADER
 9 
$ACADVER
 1 
AC1009
 9 
$EXTMIN
 10 
 0 
 20 
 0 
 9 
$EXTMAX
 10 
 8.5 
 20 
 11 
 0 
ENDSEC
 0 
SECTION
 2 
ENTITIES
0
LINE
8
Image
10
26.629012
20
0.793821
11
31.103208
21
23.023489
0
LINE
8
Image
10
31.103208
20
23.023489
11
31.598045
21
24.768769
0
LINE
8
Image
10
31.598045
20
24.768769
11
31.948595
21
25.338370
0
LINE
8
Image
10
31.948595
20
25.338370
11
32.405840
21
25.786421
0
LINE
8
Image
10
32.405840
20
25.786421
11
32.887297
21
26.249047
0
LINE
8
Image
10
32.887297
20
26.249047
11
33.212728
21
26.824508
0
LINE
8
Image
10
33.212728
20
26.824508
11
33.612675
21
28.868525
0
LINE
8
Image
10
33.612675
20
28.868525
11
34.180136
21
35.013221
0
LINE
8
Image
10
34.180136
20
35.013221
11
34.401731
21
36.175706
0
LINE
8
Image
10
34.401731
20
36.175706
11
34.941498
21
37.058234
0
LINE
8
Image
10
34.941498
20
37.058234
11
35.663592
21
37.780331
0
LINE
8
Image
10
35.663592
20
37.780331
11
34.574272
21
39.155710
0
LINE
8
Image
10
34.574272
20
39.155710
11
33.620923
21
40.185477
0
LINE
8
Image
10
33.620923
20
40.185477
11
32.858512
21
40.729916
0
LINE
8
Image
10
32.858512
20
40.729916
11
31.810914
21
40.662123
0
LINE
8
Image
10
31.810914
20
40.662123
11
30.171902
21
40.219937
0
LINE
8
Image
10
30.171902
20
40.219937
11
28.406520
21
39.714128
0
LINE
8
Image
10
28.406520
20
39.714128
11
27.007718
21
39.529822
0
LINE
8
Image
10
27.007718
20
39.529822
11
26.011369
21
39.667712
0
LINE
8
Image
10
26.011369
20
39.667712
11
25.453347
21
40.128495
0
LINE
8
Image
10
25.453347
20
40.128495
11
24.871882
21
42.333352
0
LINE
8
Image
10
24.871882
20
42.333352
11
24.586062
21
43.583505
0
LINE
8
Image
10
24.586062
20
43.583505
11
24.260112
21
44.359941
0
LINE
8
Image
10
24.260112
20
44.359941
11
24.069846
21
44.899946
0
LINE
8
Image
10
24.069846
20
44.899946
11
24.110245
21
45.581653
0
LINE
8
Image
10
24.110245
20
45.581653
11
24.102076
21
46.325976
0
LINE
8
Image
10
24.102076
20
46.325976
11
23.734490
21
47.005623
0
LINE
8
Image
10
23.734490
20
47.005623
11
23.333238
21
47.640801
0
LINE
8
Image
10
23.333238
20
47.640801
11
23.754728
21
48.247629
0
LINE
8
Image
10
23.754728
20
48.247629
11
24.055564
21
48.606939
0
LINE
8
Image
10
24.055564
20
48.606939
11
24.071933
21
48.925404
0
LINE
8
Image
10
24.071933
20
48.925404
11
23.025592
21
49.974181
0
LINE
8
Image
10
23.025592
20
49.974181
11
21.695804
21
51.100082
0
LINE
8
Image
10
21.695804
20
51.100082
11
23.243050
21
52.687940
0
LINE
8
Image
10
23.243050
20
52.687940
11
24.376284
21
54.058308
0
LINE
8
Image
10
24.376284
20
54.058308
11
24.601205
21
54.558146
0
LINE
8
Image
10
24.601205
20
54.558146
11
24.612095
21
54.957239
0
LINE
8
Image
10
24.612095
20
54.957239
11
24.581467
21
55.608666
0
LINE
8
Image
10
24.581467
20
55.608666
11
24.758071
21
56.217951
0
LINE
8
Image
10
24.758071
20
56.217951
11
24.890047
21
56.666247
0
LINE
8
Image
10
24.890047
20
56.666247
11
24.556372
21
56.797224
0
LINE
8
Image
10
24.556372
20
56.797224
11
24.120927
21
56.693595
0
LINE
8
Image
10
24.120927
20
56.693595
11
23.812468
21
56.444444
0
LINE
8
Image
10
23.812468
20
56.444444
11
23.524869
21
56.134643
0
LINE
8
Image
10
23.524869
20
56.134643
11
23.281113
21
56.114007
0
LINE
8
Image
10
23.281113
20
56.114007
11
23.145189
21
56.346785
0
LINE
8
Image
10
23.145189
20
56.346785
11
23.181085
21
56.797224
0
LINE
8
Image
10
23.181085
20
56.797224
11
23.218792
21
57.303259
0
LINE
8
Image
10
23.218792
20
57.303259
11
23.013189
21
57.476370
0
LINE
8
Image
10
23.013189
20
57.476370
11
22.613519
21
57.315556
0
LINE
8
Image
10
22.613519
20
57.315556
11
22.069023
21
56.819819
0
LINE
8
Image
10
22.069023
20
56.819819
11
21.690305
21
56.448058
0
LINE
8
Image
10
21.690305
20
56.448058
11
21.344640
21
56.361937
0
LINE
8
Image
10
21.344640
20
56.361937
11
20.021141
21
57.172595
0
LINE
8
Image
10
20.021141
20
57.172595
11
18.840665
21
57.904083
0
LINE
8
Image
10
18.840665
20
57.904083
11
18.010308
21
58.208332
0
LINE
8
Image
10
18.010308
20
58.208332
11
17.229128
21
58.631598
0
LINE
8
Image
10
17.229128
20
58.631598
11
16.098383
21
59.583062
0
LINE
8
Image
10
16.098383
20
59.583062
11
15.130916
21
60.585222
0
LINE
8
Image
10
15.130916
20
60.585222
11
14.839570
21
61.160574
0
LINE
8
Image
10
14.839570
20
61.160574
11
18.889020
21
61.675777
0
LINE
8
Image
10
18.889020
20
61.675777
11
23.693009
21
62.088883
0
LINE
8
Image
10
23.693009
20
62.088883
11
24.475802
21
62.684746
0
LINE
8
Image
10
24.475802
20
62.684746
11
25.587273
21
64.117352
0
LINE
8
Image
10
25.587273
20
64.117352
11
26.987983
21
65.992155
0
LINE
8
Image
10
26.987983
20
65.992155
11
28.713789
21
67.992832
0
LINE
8
Image
10
28.713789
20
67.992832
11
30.368737
21
69.686683
0
LINE
8
Image
10
30.368737
20
69.686683
11
31.556875
21
70.641003
0
LINE
8
Image
10
31.556875
20
70.641003
11
36.080168
21
72.188151
0
LINE
8
Image
10
36.080168
20
72.188151
11
39.909239
21
73.363763
0
LINE
8
Image
10
39.909239
20
73.363763
11
42.444175
21
72.089447
0
LINE
8
Image
10
42.444175
20
72.089447
11
45.242309
21
70.569234
0
LINE
8
Image
10
45.242309
20
70.569234
11
47.888671
21
68.930998
0
LINE
8
Image
10
47.888671
20
68.930998
11
50.070556
21
67.381213
0
LINE
8
Image
10
50.070556
20
67.381213
11
51.475260
21
66.126353
0
LINE
8
Image
10
51.475260
20
66.126353
11
52.232171
21
65.065773
0
LINE
8
Image
10
52.232171
20
65.065773
11
52.815372
21
63.715115
0
LINE
8
Image
10
52.815372
20
63.715115
11
53.297610
21
61.855154
0
LINE
8
Image
10
53.297610
20
61.855154
11
53.751637
21
59.266664
0
LINE
8
Image
10
53.751637
20
59.266664
11
54.157513
21
56.620834
0
LINE
8
Image
10
54.157513
20
56.620834
11
55.300943
21
56.663252
0
LINE
8
Image
10
55.300943
20
56.663252
11
56.108489
21
56.612242
0
LINE
8
Image
10
56.108489
20
56.612242
11
56.444372
21
56.430027
0
LINE
8
Image
10
56.444372
20
56.430027
11
56.096148
21
55.917999
0
LINE
8
Image
10
56.096148
20
55.917999
11
55.256907
21
55.166256
0
LINE
8
Image
10
55.256907
20
55.166256
11
54.234794
21
54.422396
0
LINE
8
Image
10
54.234794
20
54.422396
11
53.337956
21
53.934015
0
LINE
8
Image
10
53.337956
20
53.934015
11
52.715993
21
53.520246
0
LINE
8
Image
10
52.715993
20
53.520246
11
52.675179
21
52.881718
0
LINE
8
Image
10
52.675179
20
52.881718
11
52.713986
21
52.502346
0
LINE
8
Image
10
52.713986
20
52.502346
11
52.580847
21
52.199083
0
LINE
8
Image
10
52.580847
20
52.199083
11
51.656349
21
51.648549
0
LINE
8
Image
10
51.656349
20
51.648549
11
50.900281
21
51.214524
0
LINE
8
Image
10
50.900281
20
51.214524
11
50.468090
21
50.771155
0
LINE
8
Image
10
50.468090
20
50.771155
11
50.470546
21
50.502086
0
LINE
8
Image
10
50.470546
20
50.502086
11
51.018421
21
50.590958
0
LINE
8
Image
10
51.018421
20
50.590958
11
51.293952
21
50.659820
0
LINE
8
Image
10
51.293952
20
50.659820
11
51.441406
21
50.583702
0
LINE
8
Image
10
51.441406
20
50.583702
11
51.413298
21
49.887469
0
LINE
8
Image
10
51.413298
20
49.887469
11
51.343135
21
49.387840
0
LINE
8
Image
10
51.343135
20
49.387840
11
51.418776
21
49.136464
0
LINE
8
Image
10
51.418776
20
49.136464
11
51.701639
21
49.080726
0
LINE
8
Image
10
51.701639
20
49.080726
11
52.253145
21
49.168012
0
LINE
8
Image
10
52.253145
20
49.168012
11
52.997576
21
49.212454
0
LINE
8
Image
10
52.997576
20
49.212454
11
53.269376
21
48.980749
0
LINE
8
Image
10
53.269376
20
48.980749
11
53.039827
21
48.295877
0
LINE
8
Image
10
53.039827
20
48.295877
11
52.456934
21
47.245707
0
LINE
8
Image
10
52.456934
20
47.245707
11
50.865664
21
45.079369
0
LINE
8
Image
10
50.865664
20
45.079369
11
49.985356
21
44.121227
0
LINE
8
Image
10
49.985356
20
44.121227
11
50.921811
21
43.756454
0
LINE
8
Image
10
50.921811
20
43.756454
11
52.679124
21
43.060853
0
LINE
8
Image
10
52.679124
20
43.060853
11
53.312874
21
42.680896
0
LINE
8
Image
10
53.312874
20
42.680896
11
52.878586
21
42.445202
0
LINE
8
Image
10
52.878586
20
42.445202
11
51.431787
21
42.182386
0
LINE
8
Image
10
51.431787
20
42.182386
11
48.883207
21
41.592549
0
LINE
8
Image
10
48.883207
20
41.592549
11
49.866139
21
41.124053
0
LINE
8
Image
10
49.866139
20
41.124053
11
52.484684
21
40.252991
0
LINE
8
Image
10
52.484684
20
40.252991
11
55.504541
21
39.186047
0
LINE
8
Image
10
55.504541
20
39.186047
11
58.952835
21
37.708056
0
LINE
8
Image
10
58.952835
20
37.708056
11
62.773682
21
35.844705
0
LINE
8
Image
10
62.773682
20
35.844705
11
66.911199
21
33.621682
0
LINE
8
Image
10
66.911199
20
33.621682
11
69.793312
21
32.008336
0
LINE
8
Image
10
69.793312
20
32.008336
11
69.803208
21
29.936697
0
LINE
8
Image
10
69.803208
20
29.936697
11
69.785516
21
28.740324
0
LINE
8
Image
10
69.785516
20
28.740324
11
69.639867
21
28.048028
0
LINE
8
Image
10
69.639867
20
28.048028
11
69.249367
21
27.614313
0
LINE
8
Image
10
69.249367
20
27.614313
11
68.497120
21
27.193685
0
LINE
8
Image
10
68.497120
20
27.193685
11
67.420356
21
26.444219
0
LINE
8
Image
10
67.420356
20
26.444219
11
66.679536
21
25.585087
0
LINE
8
Image
10
66.679536
20
25.585087
11
66.436253
21
25.007701
0
LINE
8
Image
10
66.436253
20
25.007701
11
66.394383
21
24.386083
0
LINE
8
Image
10
66.394383
20
24.386083
11
66.996837
21
22.113538
0
LINE
8
Image
10
66.996837
20
22.113538
11
67.943020
21
19.129844
0
LINE
8
Image
10
67.943020
20
19.129844
11
67.572719
21
18.587749
0
LINE
8
Image
10
67.572719
20
18.587749
11
66.490663
21
17.913021
0
LINE
8
Image
10
66.490663
20
17.913021
11
65.375037
21
17.296319
0
LINE
8
Image
10
65.375037
20
17.296319
11
64.911015
21
16.891310
0
LINE
8
Image
10
64.911015
20
16.891310
11
65.779231
21
12.621366
0
LINE
8
Image
10
65.779231
20
12.621366
11
66.842921
21
6.102109
0
LINE
8
Image
10
66.842921
20
6.102109
11
67.380159
21
0.441045
0
LINE
8
Image
10
67.380159
20
0.441045
11
66.451794
21
0.225450
0
LINE
8
Image
10
66.451794
20
0.225450
11
63.198710
21
0.090165
0
LINE
8
Image
10
63.198710
20
0.090165
11
46.912661
21
0.000072
0
LINE
8
Image
10
46.912661
20
0.000072
11
26.444857
21
0.000072
0
LINE
8
Image
10
26.444857
20
0.000072
11
26.629012
21
0.793821
 0 
ENDSEC
 0 
EOF